<svg version="1.2" xmlns="http://www.w3.org/2000/svg" viewBox="0 0 237 256" width="237" height="256">
	<title>androidstudio-svg</title>
	<defs>
		<clipPath clipPathUnits="userSpaceOnUse" id="cp1">
			<path d="m237 118.52c0-65.45-53.06-118.52-118.5-118.52-65.44 0-118.5 53.07-118.5 118.52 0 35.99 16.06 68.21 41.38 89.93l-14.22 24.63v19.55c0 1.72 1.4 3.12 3.12 3.12q0.87-0.01 1.57-0.42l16.92-9.76 13.21-22.86c16.79 9.13 36.05 14.33 56.52 14.33 20.47 0 39.73-5.2 56.54-14.33l13.2 22.86 16.92 9.76q0.71 0.41 1.58 0.42c1.71 0 3.11-1.4 3.11-3.12v-19.55l-14.22-24.63c25.31-21.72 41.37-53.94 41.37-89.93z"/>
		</clipPath>
		<clipPath clipPathUnits="userSpaceOnUse" id="cp2">
			<path d="m237 118.52c0-65.45-53.06-118.52-118.5-118.52-65.44 0-118.5 53.07-118.5 118.52 0 35.99 16.06 68.21 41.38 89.93l-14.22 24.63v19.55c0 1.72 1.4 3.12 3.12 3.12q0.87-0.01 1.57-0.42l16.92-9.76 13.21-22.86c16.79 9.13 36.05 14.33 56.52 14.33 20.47 0 39.73-5.2 56.54-14.33l13.2 22.86 16.92 9.76q0.71 0.41 1.58 0.42c1.71 0 3.11-1.4 3.11-3.12v-19.55l-14.22-24.63c25.31-21.72 41.37-53.94 41.37-89.93z"/>
		</clipPath>
		<clipPath clipPathUnits="userSpaceOnUse" id="cp3">
			<path d="m237 118.52c0-65.45-53.06-118.52-118.5-118.52-65.44 0-118.5 53.07-118.5 118.52 0 35.99 16.06 68.21 41.38 89.93l-14.22 24.63v19.55c0 1.72 1.4 3.12 3.12 3.12q0.87-0.01 1.57-0.42l16.92-9.76 13.21-22.86c16.79 9.13 36.05 14.33 56.52 14.33 20.47 0 39.73-5.2 56.54-14.33l13.2 22.86 16.92 9.76q0.71 0.41 1.58 0.42c1.71 0 3.11-1.4 3.11-3.12v-19.55l-14.22-24.63c25.31-21.72 41.37-53.94 41.37-89.93z"/>
		</clipPath>
		<clipPath clipPathUnits="userSpaceOnUse" id="cp4">
			<path d="m237 118.52c0-65.45-53.06-118.52-118.5-118.52-65.44 0-118.5 53.07-118.5 118.52 0 35.99 16.06 68.21 41.38 89.93l-14.22 24.63v19.55c0 1.72 1.4 3.12 3.12 3.12q0.87-0.01 1.57-0.42l16.92-9.76 13.21-22.86c16.79 9.13 36.05 14.33 56.52 14.33 20.47 0 39.73-5.2 56.54-14.33l13.2 22.86 16.92 9.76q0.71 0.41 1.58 0.42c1.71 0 3.11-1.4 3.11-3.12v-19.55l-14.22-24.63c25.31-21.72 41.37-53.94 41.37-89.93z"/>
		</clipPath>
		<clipPath clipPathUnits="userSpaceOnUse" id="cp5">
			<path d="m237 118.52c0-65.45-53.06-118.52-118.5-118.52-65.44 0-118.5 53.07-118.5 118.52 0 35.99 16.06 68.21 41.38 89.93l-14.22 24.63v19.55c0 1.72 1.4 3.12 3.12 3.12q0.87-0.01 1.57-0.42l16.92-9.76 13.21-22.86c16.79 9.13 36.05 14.33 56.52 14.33 20.47 0 39.73-5.2 56.54-14.33l13.2 22.86 16.92 9.76q0.71 0.41 1.58 0.42c1.71 0 3.11-1.4 3.11-3.12v-19.55l-14.22-24.63c25.31-21.72 41.37-53.94 41.37-89.93z"/>
		</clipPath>
		<clipPath clipPathUnits="userSpaceOnUse" id="cp6">
			<path d="m237 118.52c0-65.45-53.06-118.52-118.5-118.52-65.44 0-118.5 53.07-118.5 118.52 0 35.99 16.06 68.21 41.38 89.93l-14.22 24.63v19.55c0 1.72 1.4 3.12 3.12 3.12q0.87-0.01 1.57-0.42l16.92-9.76 13.21-22.86c16.79 9.13 36.05 14.33 56.52 14.33 20.47 0 39.73-5.2 56.54-14.33l13.2 22.86 16.92 9.76q0.71 0.41 1.58 0.42c1.71 0 3.11-1.4 3.11-3.12v-19.55l-14.22-24.63c25.31-21.72 41.37-53.94 41.37-89.93z"/>
		</clipPath>
		<clipPath clipPathUnits="userSpaceOnUse" id="cp7">
			<path d="m237 118.52c0-65.45-53.06-118.52-118.5-118.52-65.44 0-118.5 53.07-118.5 118.52 0 35.99 16.06 68.21 41.38 89.93l-14.22 24.63v19.55c0 1.72 1.4 3.12 3.12 3.12q0.87-0.01 1.57-0.42l16.92-9.76 13.21-22.86c16.79 9.13 36.05 14.33 56.52 14.33 20.47 0 39.73-5.2 56.54-14.33l13.2 22.86 16.92 9.76q0.71 0.41 1.58 0.42c1.71 0 3.11-1.4 3.11-3.12v-19.55l-14.22-24.63c25.31-21.72 41.37-53.94 41.37-89.93z"/>
		</clipPath>
		<linearGradient id="g1" x2="1" gradientUnits="userSpaceOnUse" gradientTransform="matrix(110.484,65.092,-72.139,122.444,90.994,154.271)">
			<stop offset="0" stop-color="#263238" stop-opacity=".2"/>
			<stop offset="1" stop-color="#263238" stop-opacity=".02"/>
		</linearGradient>
		<clipPath clipPathUnits="userSpaceOnUse" id="cp8">
			<path d="m237 118.52c0-65.45-53.06-118.52-118.5-118.52-65.44 0-118.5 53.07-118.5 118.52 0 35.99 16.06 68.21 41.38 89.93l-14.22 24.63v19.55c0 1.72 1.4 3.12 3.12 3.12q0.87-0.01 1.57-0.42l16.92-9.76 13.21-22.86c16.79 9.13 36.05 14.33 56.52 14.33 20.47 0 39.73-5.2 56.54-14.33l13.2 22.86 16.92 9.76q0.71 0.41 1.58 0.42c1.71 0 3.11-1.4 3.11-3.12v-19.55l-14.22-24.63c25.31-21.72 41.37-53.94 41.37-89.93z"/>
		</clipPath>
		<clipPath clipPathUnits="userSpaceOnUse" id="cp9">
			<path d="m237 118.52c0-65.45-53.06-118.52-118.5-118.52-65.44 0-118.5 53.07-118.5 118.52 0 35.99 16.06 68.21 41.38 89.93l-14.22 24.63v19.55c0 1.72 1.4 3.12 3.12 3.12q0.87-0.01 1.57-0.42l16.92-9.76 13.21-22.86c16.79 9.13 36.05 14.33 56.52 14.33 20.47 0 39.73-5.2 56.54-14.33l13.2 22.86 16.92 9.76q0.71 0.41 1.58 0.42c1.71 0 3.11-1.4 3.11-3.12v-19.55l-14.22-24.63c25.31-21.72 41.37-53.94 41.37-89.93z"/>
		</clipPath>
		<clipPath clipPathUnits="userSpaceOnUse" id="cp10">
			<path d="m237 118.52c0-65.45-53.06-118.52-118.5-118.52-65.44 0-118.5 53.07-118.5 118.52 0 35.99 16.06 68.21 41.38 89.93l-14.22 24.63v19.55c0 1.72 1.4 3.12 3.12 3.12q0.87-0.01 1.57-0.42l16.92-9.76 13.21-22.86c16.79 9.13 36.05 14.33 56.52 14.33 20.47 0 39.73-5.2 56.54-14.33l13.2 22.86 16.92 9.76q0.71 0.41 1.58 0.42c1.71 0 3.11-1.4 3.11-3.12v-19.55l-14.22-24.63c25.31-21.72 41.37-53.94 41.37-89.93z"/>
		</clipPath>
		<clipPath clipPathUnits="userSpaceOnUse" id="cp11">
			<path d="m237 118.52c0-65.45-53.06-118.52-118.5-118.52-65.44 0-118.5 53.07-118.5 118.52 0 35.99 16.06 68.21 41.38 89.93l-14.22 24.63v19.55c0 1.72 1.4 3.12 3.12 3.12q0.87-0.01 1.57-0.42l16.92-9.76 13.21-22.86c16.79 9.13 36.05 14.33 56.52 14.33 20.47 0 39.73-5.2 56.54-14.33l13.2 22.86 16.92 9.76q0.71 0.41 1.58 0.42c1.71 0 3.11-1.4 3.11-3.12v-19.55l-14.22-24.63c25.31-21.72 41.37-53.94 41.37-89.93z"/>
		</clipPath>
		<clipPath clipPathUnits="userSpaceOnUse" id="cp12">
			<path d="m237 118.52c0-65.45-53.06-118.52-118.5-118.52-65.44 0-118.5 53.07-118.5 118.52 0 35.99 16.06 68.21 41.38 89.93l-14.22 24.63v19.55c0 1.72 1.4 3.12 3.12 3.12q0.87-0.01 1.57-0.42l16.92-9.76 13.21-22.86c16.79 9.13 36.05 14.33 56.52 14.33 20.47 0 39.73-5.2 56.54-14.33l13.2 22.86 16.92 9.76q0.71 0.41 1.58 0.42c1.71 0 3.11-1.4 3.11-3.12v-19.55l-14.22-24.63c25.31-21.72 41.37-53.94 41.37-89.93z"/>
		</clipPath>
		<clipPath clipPathUnits="userSpaceOnUse" id="cp13">
			<path d="m237 118.52c0-65.45-53.06-118.52-118.5-118.52-65.44 0-118.5 53.07-118.5 118.52 0 35.99 16.06 68.21 41.38 89.93l-14.22 24.63v19.55c0 1.72 1.4 3.12 3.12 3.12q0.87-0.01 1.57-0.42l16.92-9.76 13.21-22.86c16.79 9.13 36.05 14.33 56.52 14.33 20.47 0 39.73-5.2 56.54-14.33l13.2 22.86 16.92 9.76q0.71 0.41 1.58 0.42c1.71 0 3.11-1.4 3.11-3.12v-19.55l-14.22-24.63c25.31-21.72 41.37-53.94 41.37-89.93z"/>
		</clipPath>
		<radialGradient id="g2" cx="0" cy="0" r="1" gradientUnits="userSpaceOnUse" gradientTransform="matrix(280.851,0,0,280.851,34.861,34.606)">
			<stop offset="0" stop-color="#ffffff" stop-opacity=".1"/>
			<stop offset="1" stop-color="#ffffff" stop-opacity="0"/>
		</radialGradient>
	</defs>
	<style>
		.s0 { fill: #45ef8a } 
		.s1 { opacity: .2;fill: #263238 } 
		.s2 { fill: #3ddc84 } 
		.s3 { opacity: .1;fill: #263238 } 
		.s4 { opacity: .1;fill: #ffffff } 
		.s5 { fill: url(#g1) } 
		.s6 { opacity: .2;fill: #ffffff } 
		.s7 { fill: #d7effe } 
		.s8 { opacity: .3;fill: #bdbdbd } 
		.s9 { opacity: .1;fill: #212121 } 
		.s10 { opacity: .4;fill: #ffffff } 
		.s11 { fill: #073042 } 
		.s12 { fill: url(#g2) } 
	</style>
	<g id="g690">
		<g id="Clipped">
			<g id="Clip-Path: Oval" clip-path="url(#cp1)">
				<path id="Oval" class="s0" d="m118.5 237c-65.5 0-118.5-52.9-118.5-118.5 0-65.5 53-118.5 118.5-118.5 65.5 0 118.5 53 118.5 118.5 0 65.6-53 118.5-118.5 118.5z"/>
			</g>
		</g>
		<g id="g44">
			<g id="g41">
			</g>
			<g id="Clip-Path: Shape" clip-path="url(#cp2)">
				<path id="Shape" class="s1" d="m118.5 235.5c64.9 0 117.6-52.2 118.5-117 0 65.5-53.1 118.5-118.5 118.5-65.4 0-118.5-53-118.5-118.5 0.9 64.8 53.6 117 118.5 117z"/>
			</g>
		</g>
		<g id="g53">
			<g id="g49">
			</g>
			<g id="Clip-Path: path51" clip-path="url(#cp3)">
				<path id="path51" class="s2" d="m118.5 0c-65.4 0-118.5 53.1-118.5 118.5h237c0-65.4-53.1-118.5-118.5-118.5z"/>
			</g>
		</g>
		<g id="g62">
			<g id="g58">
			</g>
			<g id="Clip-Path: circle60" clip-path="url(#cp4)">
				<path id="circle60" class="s2" d="m118.5 115.4c-8.6 0-15.6-7-15.6-15.6 0-8.6 7-15.6 15.6-15.6 8.6 0 15.6 7 15.6 15.6 0 8.6-7 15.6-15.6 15.6z"/>
			</g>
		</g>
		<g id="g71">
			<g id="g67">
			</g>
			<g id="Clip-Path: polygon69" clip-path="url(#cp5)">
				<path id="polygon69" class="s3" d="m0 117h237v1.5h-237z"/>
			</g>
		</g>
		<g id="g80">
			<g id="g76">
			</g>
			<g id="Clip-Path: polygon78" clip-path="url(#cp6)">
				<path id="polygon78" class="s4" d="m0 118.5h237v1.6h-237z"/>
			</g>
		</g>
		<g id="g89">
			<g id="g85">
			</g>
			<g id="Clip-Path: polygon87" clip-path="url(#cp7)">
				<path id="polygon87" class="s5" d="m93.3 118.5l-63 137.3h206.7v-106.1l-106-106-25 18.7z"/>
			</g>
		</g>
		<g id="g105">
			<g id="g101">
			</g>
			<g id="Clip-Path: path103" clip-path="url(#cp8)">
				<path id="path103" class="s6" d="m118.5 1.6c64.9 0 117.6 52.2 118.5 116.9 0-65.4-53.1-118.5-118.5-118.5-65.4 0-118.5 53.1-118.5 118.5 0.9-64.7 53.6-116.9 118.5-116.9z"/>
			</g>
		</g>
		<g id="g124">
			<g id="g110">
			</g>
			<g id="Clip-Path: Group" clip-path="url(#cp9)">
				<g id="Group">
					<g id="g121">
						<path id="path113" class="s7" d="m143.7 118.5h-28.8l73.3 127.1 17 9.7q0.7 0.4 1.5 0.5c1.8 0 3.2-1.5 3.2-3.2v-19.5z"/>
						<path id="path115" class="s8" d="m143.7 118.5h-28.8l73.3 127.1 17 9.7q0.7 0.4 1.5 0.5c1.8 0 3.2-1.5 3.2-3.2v-19.5z"/>
						<path id="polygon117" class="s6" d="m209.8 233.1l-66.1-114.6h-0.9l67 116.1z"/>
						<path id="path119" class="s9" d="m206.7 254.2q-0.8 0-1.6-0.4l-16.9-9.8-72.4-125.5h-0.9l73.3 127.1 17 9.7q0.7 0.4 1.5 0.5c1.8 0 3.2-1.5 3.2-3.2v-1.5c-0.1 1.7-1.5 3.1-3.2 3.1z"/>
					</g>
				</g>
			</g>
		</g>
		<g id="g143">
			<g id="g129">
			</g>
			<g id="Clip-Path: g141" clip-path="url(#cp10)">
				<g id="g141">
					<g id="g139">
						<path id="path133" class="s7" d="m180.9 118.5c0 34.5-28 62.4-62.4 62.4-10.2 0-19.9-2.5-28.4-6.9l28.4-49.2 3.6-6.3h-28.8l-66.2 114.6v19.5c0 1.7 1.4 3.2 3.2 3.2q0.8-0.1 1.5-0.5l17-9.7 28.8-49.9c12.2 6.5 26.1 10.1 40.9 10.1 48.2 0 87.3-39 87.3-87.3z"/>
						<path id="path135" class="s10" d="m93.3 118.5l-66.2 114.6v1.5l67.1-116.1zm25.2 62.4c-10.2 0-19.9-2.5-28.4-6.9v1.6c8.5 4.4 18.2 6.9 28.4 6.9 34.4 0 62.4-28 62.4-62.4h24.9q0-0.8 0-1.6h-24.9c0 34.5-28 62.4-62.4 62.4z"/>
						<path id="path137" fill-rule="evenodd" class="s9" d="m205.8 118.5c0 48.3-39.1 87.3-87.3 87.3-14.8 0-28.7-3.6-40.9-10.1l-28.8 49.9-17 9.7q-0.7 0.4-1.5 0.5c-1.8 0-3.2-1.5-3.2-3.2v-1.5c0 1.7 1.4 3.1 3.2 3.1q0.8 0 1.5-0.4l17-9.8 28.8-49.9c12.2 6.5 26.1 10.2 40.9 10.2 47.7 0 86.4-38.3 87.3-85.8zm-115.8 55.5v-1.5l31.2-54h0.9z"/>
					</g>
				</g>
			</g>
		</g>
		<g id="g158">
			<g id="g148">
			</g>
			<g id="Clip-Path: g156" clip-path="url(#cp11)">
				<g id="g156">
					<g id="g154">
						<path id="path152" fill-rule="evenodd" class="s11" d="m155.9 71.7v46.8l-30.8 30.8c-1.7 1.7-4 2.7-6.6 2.7-2.6 0-4.9-1-6.6-2.7l-30.8-30.8v-46.8c0-5.1 4.2-9.3 9.3-9.3h15.6v-18.7h25v18.7h15.6c5.1 0 9.3 4.2 9.3 9.3zm-21.8 28.1c0-8.6-7-15.6-15.6-15.6-8.6 0-15.6 7-15.6 15.6 0 8.6 7 15.6 15.6 15.6 8.6 0 15.6-7 15.6-15.6z"/>
					</g>
				</g>
			</g>
		</g>
		<g id="g167">
			<g id="g163">
			</g>
			<g id="Clip-Path: path165" clip-path="url(#cp12)">
				<path id="path165" class="s4" d="m146.6 62.4h-15.6v1.5h15.6c5.1 0 9.3 4.2 9.3 9.4v-1.6c0-5.1-4.2-9.3-9.3-9.3zm-40.6-18.7h25v1.5h-25zm0 18.7h-15.6c-5.1 0-9.3 4.2-9.3 9.4v1.6c0-5.2 4.2-9.4 9.3-9.4h15.6zm12.5 53c-8.6 0-15.6-7-15.6-15.6v1.6c0 8.6 7 15.6 15.6 15.6 8.6 0 15.6-7 15.6-15.6v-1.6c0 8.6-7 15.6-15.6 15.6z"/>
			</g>
		</g>
		<g id="g176">
			<g id="g172">
			</g>
			<g id="Clip-Path: path174" clip-path="url(#cp13)">
				<path id="path174" class="s9" d="m118.5 84.2c8.6 0 15.6 7 15.6 15.6v-1.6c0-8.6-7-15.5-15.6-15.5-8.6 0-15.6 6.9-15.6 15.5v1.6c0-8.6 7-15.6 15.6-15.6zm6.6 63.5c-1.7 1.7-4 2.8-6.6 2.8-2.6 0-4.9-1.1-6.6-2.8l-30.8-30.7v1.5l30.8 30.8c1.7 1.7 4 2.7 6.6 2.7 2.6 0 4.9-1 6.6-2.7l30.8-30.8v-1.5z"/>
			</g>
		</g>
		<path id="path178" class="s12" d="m237 118.5c0-65.4-53.1-118.5-118.5-118.5-65.4 0-118.5 53.1-118.5 118.5 0 36 16.1 68.2 41.4 90l-14.2 24.6v19.5c0 1.7 1.4 3.2 3.1 3.2q0.8-0.1 1.6-0.5l16.9-9.7 13.2-22.9c16.8 9.1 36 14.3 56.5 14.3 20.5 0 39.7-5.2 56.5-14.3l13.2 22.9 17 9.7q0.7 0.4 1.5 0.5c1.8 0 3.2-1.5 3.2-3.2v-19.5l-14.3-24.6c25.3-21.8 41.4-54 41.4-90z"/>
	</g>
</svg>