<svg version="1.2" xmlns="http://www.w3.org/2000/svg" viewBox="0 0 128 256" width="128" height="256">
	<title>apache-svg</title>
	<defs>
		<linearGradient id="g1" x2="1" gradientUnits="userSpaceOnUse" gradientTransform="matrix(53.633,-14.912,13.521,48.63,96.569,21.713)">
			<stop offset="0" stop-color="#f69923"/>
			<stop offset=".312" stop-color="#f79a23"/>
			<stop offset=".838" stop-color="#e97826"/>
		</linearGradient>
		<linearGradient id="g2" x2="1" gradientUnits="userSpaceOnUse" gradientTransform="matrix(109.008,-233.777,78.715,36.704,-20.785,262.245)">
			<stop offset=".323" stop-color="#9e2064"/>
			<stop offset=".63" stop-color="#c92037"/>
			<stop offset=".751" stop-color="#cd2335"/>
			<stop offset="1" stop-color="#e97826"/>
		</linearGradient>
		<linearGradient id="g3" x2="1" gradientUnits="userSpaceOnUse" gradientTransform="matrix(64.958,-139.308,73.295,34.177,15.832,244.959)">
			<stop offset="0" stop-color="#282662"/>
			<stop offset=".095" stop-color="#662e8d"/>
			<stop offset=".788" stop-color="#9f2064"/>
			<stop offset=".949" stop-color="#cd2032"/>
		</linearGradient>
		<linearGradient id="g4" x2="1" gradientUnits="userSpaceOnUse" gradientTransform="matrix(109.085,-233.942,47.307,22.059,-16.877,248.183)">
			<stop offset=".323" stop-color="#9e2064"/>
			<stop offset=".63" stop-color="#c92037"/>
			<stop offset=".751" stop-color="#cd2335"/>
			<stop offset="1" stop-color="#e97826"/>
		</linearGradient>
		<linearGradient id="g5" x2="1" gradientUnits="userSpaceOnUse" gradientTransform="matrix(57.328,-122.944,40.799,19.024,-5.756,232.568)">
			<stop offset="0" stop-color="#282662"/>
			<stop offset=".095" stop-color="#662e8d"/>
			<stop offset=".788" stop-color="#9f2064"/>
			<stop offset=".949" stop-color="#cd2032"/>
		</linearGradient>
		<linearGradient id="g6" x2="1" gradientUnits="userSpaceOnUse" gradientTransform="matrix(109.008,-233.776,64.66,30.151,7.374,259.381)">
			<stop offset=".323" stop-color="#9e2064"/>
			<stop offset=".63" stop-color="#c92037"/>
			<stop offset=".751" stop-color="#cd2335"/>
			<stop offset="1" stop-color="#e97826"/>
		</linearGradient>
		<linearGradient id="g7" x2="1" gradientUnits="userSpaceOnUse" gradientTransform="matrix(109.008,-233.776,100.489,46.857,-0.595,273.323)">
			<stop offset=".323" stop-color="#9e2064"/>
			<stop offset=".63" stop-color="#c92037"/>
			<stop offset=".751" stop-color="#cd2335"/>
			<stop offset="1" stop-color="#e97826"/>
		</linearGradient>
		<linearGradient id="g8" x2="1" gradientUnits="userSpaceOnUse" gradientTransform="matrix(109.008,-233.776,348.147,162.338,14.575,262.737)">
			<stop offset=".323" stop-color="#9e2064"/>
			<stop offset=".63" stop-color="#c92037"/>
			<stop offset=".751" stop-color="#cd2335"/>
			<stop offset="1" stop-color="#e97826"/>
		</linearGradient>
		<linearGradient id="g9" x2="1" gradientUnits="userSpaceOnUse" gradientTransform="matrix(109.008,-233.776,356.852,166.397,13.751,262.353)">
			<stop offset=".323" stop-color="#9e2064"/>
			<stop offset=".63" stop-color="#c92037"/>
			<stop offset=".751" stop-color="#cd2335"/>
			<stop offset="1" stop-color="#e97826"/>
		</linearGradient>
		<linearGradient id="g10" x2="1" gradientUnits="userSpaceOnUse" gradientTransform="matrix(24.094,-51.672,27.536,12.84,74.839,130.944)">
			<stop offset=".323" stop-color="#9e2064"/>
			<stop offset=".63" stop-color="#c92037"/>
			<stop offset=".751" stop-color="#cd2335"/>
			<stop offset="1" stop-color="#e97826"/>
		</linearGradient>
	</defs>
	<style>
		.s0 { fill: url(#g1) } 
		.s1 { fill: none } 
		.s2 { fill: #be202e } 
		.s3 { opacity: .3;fill: #be202e } 
		.s4 { fill: url(#g2) } 
		.s5 { fill: url(#g3) } 
		.s6 { fill: url(#g4) } 
		.s7 { fill: url(#g5) } 
		.s8 { fill: url(#g6) } 
		.s9 { fill: url(#g7) } 
		.s10 { fill: url(#g8) } 
		.s11 { fill: url(#g9) } 
		.s12 { fill: url(#g10) } 
	</style>
	<path id="Layer" class="s0" d="m109 1.2c-4 2.4-10.7 9.1-18.6 18.8l7.3 13.8c5.1-7.3 10.3-13.9 15.6-19.6q0.6-0.6 0.6-0.6-0.3 0.3-0.6 0.6c-1.7 1.9-6.9 7.9-14.7 19.9 7.5-0.4 19.1-1.9 28.5-3.5 2.8-15.7-2.7-22.9-2.7-22.9 0 0-7.1-11.4-15.4-6.5z"/>
	<path id="Layer" fill-rule="evenodd" class="s1" d="m96.6 80q0.1 0 0.2 0l-1.1 0.1q-0.1 0-0.1 0.1 0.5-0.1 1-0.2z"/>
	<path id="Layer" fill-rule="evenodd" class="s1" d="m89.2 104.7q-0.9 0.2-1.9 0.3 1-0.1 1.9-0.3z"/>
	<path id="Layer" fill-rule="evenodd" class="s1" d="m38.4 160.2q0.1-0.3 0.2-0.6 2.4-6.4 4.8-12.4 2.6-6.8 5.2-13.2 2.8-6.7 5.4-12.9 2.8-6.6 5.5-12.7 2.2-4.9 4.4-9.6 0.7-1.5 1.4-3 1.4-3 2.8-5.9 1.2-2.7 2.5-5.2 0.4-0.9 0.8-1.7 0.1-0.2 0.1-0.3l-0.9 0.1-0.7-1.4q-0.1 0.2-0.2 0.4-1.9 3.8-3.8 7.7-1.1 2.3-2.2 4.6-3 6.3-5.9 12.7-2.9 6.4-5.7 12.9-2.8 6.4-5.5 12.8-2.6 6.4-5.2 12.7-2.6 6.6-5.1 13-0.6 1.5-1.1 2.9-2 5.2-3.9 10.3l1.1 2.2 1-0.1q0.1-0.1 0.1-0.3 2.5-6.7 4.9-13z"/>
	<path id="Layer" fill-rule="evenodd" class="s1" d="m86.9 105.1q0 0 0 0 0 0 0 0z"/>
	<path id="Layer" class="s2" d="m84.4 117.2q-1.4 0.2-2.8 0.5-0.1 0-0.1 0 0.8-0.1 1.5-0.2 0.7-0.2 1.4-0.3z"/>
	<path id="Layer" class="s3" d="m84.4 117.2q-1.4 0.2-2.8 0.5-0.1 0-0.1 0 0.8-0.1 1.5-0.2 0.7-0.2 1.4-0.3z"/>
	<path id="Layer" class="s2" d="m86.9 105.1q0 0 0 0 0 0 0 0 0.2 0 0.4 0 1-0.2 1.9-0.4-1.2 0.2-2.3 0.4z"/>
	<path id="Layer" class="s3" d="m86.9 105.1q0 0 0 0 0 0 0 0 0.2 0 0.4 0 1-0.2 1.9-0.4-1.2 0.2-2.3 0.4z"/>
	<path id="Layer" class="s4" d="m76.1 69.5q3.3-6.2 6.8-12.2 3.5-6.1 7.1-11.9 0.2-0.3 0.5-0.7 3.5-5.7 7.2-10.9l-7.3-13.8q-0.9 1-1.7 2.1-3.2 3.9-6.5 8.4-3.9 5.1-7.8 10.8-3.7 5.3-7.4 11-3.2 4.8-6.4 9.9-0.1 0.2-0.2 0.4l9.5 18.8q3.1-6 6.2-11.9z"/>
	<path id="Layer" class="s5" d="m32.7 175.5q-1.9 5.1-3.8 10.5 0 0.1 0 0.2-0.3 0.8-0.6 1.5c-0.8 2.5-1.6 4.6-3.3 9.6 2.8 1.3 5.1 4.7 7.2 8.5-0.2-4-1.9-7.7-5-10.6 13.9 0.7 25.8-2.8 32-12.9q0.8-1.4 1.5-2.9c-2.8 3.5-6.3 5.1-12.9 4.7q0 0 0 0 0 0 0 0c9.7-4.3 14.5-8.4 18.8-15.3 1-1.6 2-3.4 3-5.4-8.4 8.7-18.2 11.1-28.5 9.3l-7.7 0.8q-0.3 1-0.7 2z"/>
	<path id="Layer" class="s6" d="m36.3 158.2q2.5-6.4 5.1-13 2.6-6.3 5.2-12.7 2.7-6.4 5.5-12.8 2.8-6.5 5.7-13 2.9-6.3 5.9-12.6 1.1-2.3 2.2-4.6 1.9-3.9 3.8-7.7 0.1-0.2 0.2-0.4l-9.5-18.8q-0.2 0.4-0.5 0.8-3.3 5.4-6.6 11.1-3.3 5.7-6.4 11.6-2.7 5-5.2 10.1-0.5 1-1 2.1-3.1 6.4-5.7 12.3-2.8 6.8-5.1 12.9-1.4 4-2.6 7.7-1 3.2-1.9 6.4-2.2 7.5-3.7 14.9l9.6 18.9q1.9-5.1 3.9-10.3 0.5-1.4 1.1-2.9z"/>
	<path id="Layer" class="s7" d="m21.6 153.2c-1.2 6-2.1 12-2.5 18q0 0.3-0.1 0.7c-2.9-4.8-10.9-9.5-10.9-9.5 5.7 8.3 10.1 16.6 10.7 24.7-3.1 0.6-7.3-0.3-12.1-2.1 5 4.6 8.8 5.9 10.3 6.3-4.6 0.3-9.5 3.5-14.4 7.1 7.2-2.9 12.9-4 17.1-3.1-6.6 18.5-13.1 39-19.7 60.7 2-0.6 3.2-2 3.9-3.8 1.2-3.9 8.9-29.7 21.1-63.6q0.5-1.5 1-2.9 0.2-0.4 0.3-0.8 2-5.4 4-10.9 0.5-1.3 1-2.5 0-0.1 0-0.1l-9.6-18.9q0 0.3-0.1 0.7z"/>
	<path id="Layer" class="s8" d="m71.4 83q-0.4 0.8-0.8 1.7-1.3 2.5-2.5 5.2-1.4 2.9-2.8 5.9-0.7 1.5-1.4 3-2.2 4.7-4.4 9.6-2.7 6.1-5.5 12.7-2.6 6.2-5.4 13-2.6 6.3-5.2 13.1-2.4 6-4.8 12.4-0.1 0.3-0.2 0.6-2.4 6.3-4.9 13 0 0.2-0.1 0.3l7.7-0.8q-0.2-0.1-0.4-0.1c9.2-1.2 21.4-8 29.3-16.5 3.7-3.9 7-8.6 10.1-14q3.4-6 6.4-13.4 2.7-6.4 5.1-14c-2.1 1.1-4.5 1.9-7.2 2.5q-0.7 0.1-1.4 0.3-0.7 0.1-1.5 0.2 0 0 0.1 0c8.5-3.3 14-9.7 17.9-17.5-2.3 1.5-5.9 3.6-10.3 4.5q-0.9 0.2-1.9 0.4-0.2 0-0.4 0 0 0 0 0 0 0 0 0c3-1.2 5.5-2.6 7.7-4.3q0.7-0.5 1.3-1.1 1-0.8 1.9-1.8 0.6-0.6 1.2-1.2 1.2-1.6 2.4-3.4 0.3-0.5 0.6-1.1 0.5-0.8 0.9-1.6 1.8-3.6 2.9-6.4 0.6-1.5 1-2.7 0.2-0.5 0.3-0.9 0.5-1.4 0.8-2.4 0.4-1.6 0.5-2.5-0.4 0.3-1 0.6c-2.6 1.6-7 3-10.6 3.7l7.1-0.8-7.1 0.8q-0.1 0-0.2 0-0.5 0.1-1.1 0.2 0.1-0.1 0.2-0.1l-24.2 2.6q0 0.2-0.1 0.3z"/>
	<path id="Layer" class="s9" d="m98.6 34.1q-3.2 4.9-7 11.3-0.2 0.3-0.4 0.7-3.3 5.5-6.9 12.1-3.2 5.7-6.6 12.3-3 5.8-6.2 12.2l24.2-2.6c7.1-3.3 10.2-6.2 13.3-10.4q1.2-1.8 2.4-3.7c2.5-3.9 5-8.1 7.1-12.4 2.1-4.1 4-8.2 5.4-11.8 0.9-2.3 1.7-4.5 2.2-6.4q0.6-2.5 1-4.8c-9.4 1.6-20.9 3.1-28.5 3.5z"/>
	<path id="Layer" class="s2" d="m83 117.5q-0.7 0.1-1.5 0.2 0.8-0.1 1.5-0.2z"/>
	<path id="Layer" class="s3" d="m83 117.5q-0.7 0.1-1.5 0.2 0.8-0.1 1.5-0.2z"/>
	<path id="Layer" class="s10" d="m83 117.5q-0.7 0.1-1.5 0.2 0.8-0.1 1.5-0.2z"/>
	<path id="Layer" class="s2" d="m86.9 105.1q0.2 0 0.4 0-0.2 0-0.4 0z"/>
	<path id="Layer" class="s3" d="m86.9 105.1q0.2 0 0.4 0-0.2 0-0.4 0z"/>
	<path id="Layer" class="s11" d="m86.9 105.1q0.2 0 0.4 0-0.2 0-0.4 0z"/>
	<path id="Layer" class="s2" d="m86.9 105.1q0 0 0 0 0 0 0 0z"/>
	<path id="Layer" class="s3" d="m86.9 105.1q0 0 0 0 0 0 0 0z"/>
	<path id="Layer" class="s12" d="m86.9 105.1q0 0 0 0 0 0 0 0z"/>
</svg>