<svg version="1.2" xmlns="http://www.w3.org/2000/svg" viewBox="0 0 128 256" width="128" height="256">
	<title>apache-svg</title>
	<defs>
		<linearGradient id="g1" x2="1" gradientUnits="userSpaceOnUse" gradientTransform="matrix(53.658,-14.919,13.519,48.625,96.615,21.773)">
			<stop offset="0" stop-color="#f69923"/>
			<stop offset=".312" stop-color="#f79a23"/>
			<stop offset=".838" stop-color="#e97826"/>
		</linearGradient>
		<linearGradient id="g2" x2="1" gradientUnits="userSpaceOnUse" gradientTransform="matrix(108.982,-233.721,78.776,36.733,-20.756,262.244)">
			<stop offset=".323" stop-color="#9e2064"/>
			<stop offset=".63" stop-color="#c92037"/>
			<stop offset=".751" stop-color="#cd2335"/>
			<stop offset="1" stop-color="#e97826"/>
		</linearGradient>
		<linearGradient id="g3" x2="1" gradientUnits="userSpaceOnUse" gradientTransform="matrix(64.943,-139.275,73.322,34.189,15.862,244.961)">
			<stop offset="0" stop-color="#282662"/>
			<stop offset=".095" stop-color="#662e8d"/>
			<stop offset=".788" stop-color="#9f2064"/>
			<stop offset=".949" stop-color="#cd2032"/>
		</linearGradient>
		<linearGradient id="g4" x2="1" gradientUnits="userSpaceOnUse" gradientTransform="matrix(109.137,-234.053,47.316,22.063,-16.885,248.267)">
			<stop offset=".323" stop-color="#9e2064"/>
			<stop offset=".63" stop-color="#c92037"/>
			<stop offset=".751" stop-color="#cd2335"/>
			<stop offset="1" stop-color="#e97826"/>
		</linearGradient>
		<linearGradient id="g5" x2="1" gradientUnits="userSpaceOnUse" gradientTransform="matrix(57.355,-123.002,40.812,19.03,-5.759,232.618)">
			<stop offset="0" stop-color="#282662"/>
			<stop offset=".095" stop-color="#662e8d"/>
			<stop offset=".788" stop-color="#9f2064"/>
			<stop offset=".949" stop-color="#cd2032"/>
		</linearGradient>
		<linearGradient id="g6" x2="1" gradientUnits="userSpaceOnUse" gradientTransform="matrix(108.982,-233.721,64.656,30.148,7.416,259.381)">
			<stop offset=".323" stop-color="#9e2064"/>
			<stop offset=".63" stop-color="#c92037"/>
			<stop offset=".751" stop-color="#cd2335"/>
			<stop offset="1" stop-color="#e97826"/>
		</linearGradient>
		<linearGradient id="g7" x2="1" gradientUnits="userSpaceOnUse" gradientTransform="matrix(108.982,-233.721,100.547,46.884,-0.557,273.319)">
			<stop offset=".323" stop-color="#9e2064"/>
			<stop offset=".63" stop-color="#c92037"/>
			<stop offset=".751" stop-color="#cd2335"/>
			<stop offset="1" stop-color="#e97826"/>
		</linearGradient>
		<linearGradient id="g8" x2="1" gradientUnits="userSpaceOnUse" gradientTransform="matrix(108.982,-233.721,348.146,162.338,14.621,262.735)">
			<stop offset=".323" stop-color="#9e2064"/>
			<stop offset=".63" stop-color="#c92037"/>
			<stop offset=".751" stop-color="#cd2335"/>
			<stop offset="1" stop-color="#e97826"/>
		</linearGradient>
		<linearGradient id="g9" x2="1" gradientUnits="userSpaceOnUse" gradientTransform="matrix(108.982,-233.721,356.846,166.394,13.797,262.351)">
			<stop offset=".323" stop-color="#9e2064"/>
			<stop offset=".63" stop-color="#c92037"/>
			<stop offset=".751" stop-color="#cd2335"/>
			<stop offset="1" stop-color="#e97826"/>
		</linearGradient>
		<linearGradient id="g10" x2="1" gradientUnits="userSpaceOnUse" gradientTransform="matrix(24.089,-51.66,27.544,12.843,74.883,130.973)">
			<stop offset=".323" stop-color="#9e2064"/>
			<stop offset=".63" stop-color="#c92037"/>
			<stop offset=".751" stop-color="#cd2335"/>
			<stop offset="1" stop-color="#e97826"/>
		</linearGradient>
	</defs>
	<style>
		.s0 { fill: url(#g1) } 
		.s1 { fill: none } 
		.s2 { fill: #be202e } 
		.s3 { opacity: .3;fill: #be202e } 
		.s4 { fill: url(#g2) } 
		.s5 { fill: url(#g3) } 
		.s6 { fill: url(#g4) } 
		.s7 { fill: url(#g5) } 
		.s8 { fill: url(#g6) } 
		.s9 { fill: url(#g7) } 
		.s10 { fill: url(#g8) } 
		.s11 { fill: url(#g9) } 
		.s12 { fill: url(#g10) } 
	</style>
	<path id="Layer" class="s0" d="m109.1 1.3c-4 2.3-10.7 9.1-18.7 18.8l7.3 13.8c5.2-7.4 10.4-14 15.7-19.6q0.6-0.7 0.6-0.7-0.3 0.4-0.6 0.7c-1.7 1.9-6.9 7.9-14.7 19.8 7.5-0.3 19-1.9 28.5-3.5 2.8-15.6-2.8-22.8-2.8-22.8 0 0-7-11.4-15.3-6.5z"/>
	<path id="Layer" fill-rule="evenodd" class="s1" d="m96.7 80q0.1 0 0.1 0l-1 0.1q-0.1 0.1-0.2 0.1 0.5-0.1 1.1-0.2z"/>
	<path id="Layer" fill-rule="evenodd" class="s1" d="m89.2 104.8q-0.9 0.2-1.8 0.3 0.9-0.2 1.8-0.3z"/>
	<path id="Layer" fill-rule="evenodd" class="s1" d="m38.4 160.2q0.1-0.3 0.2-0.6 2.4-6.4 4.8-12.4 2.7-6.8 5.3-13.1 2.7-6.7 5.4-13 2.8-6.5 5.5-12.6 2.2-5 4.3-9.6 0.7-1.6 1.4-3.1 1.4-3 2.8-5.9 1.3-2.6 2.5-5.2 0.4-0.8 0.8-1.7 0.1-0.1 0.2-0.2h-0.9l-0.7-1.4q-0.1 0.2-0.3 0.5-1.9 3.8-3.8 7.7-1.1 2.2-2.2 4.5-3 6.3-5.9 12.7-2.9 6.5-5.7 13-2.8 6.3-5.4 12.7-2.7 6.4-5.2 12.7-2.7 6.6-5.2 13-0.5 1.5-1.1 3-2 5.2-3.9 10.2l1.1 2.2 1-0.1q0.1-0.1 0.1-0.3 2.5-6.6 4.9-13z"/>
	<path id="Layer" fill-rule="evenodd" class="s1" d="m86.9 105.2q0 0 0-0.1 0 0 0 0.1z"/>
	<path id="Layer" class="s2" d="m84.5 117.2q-1.4 0.3-2.9 0.5 0 0 0 0 0.7-0.1 1.4-0.2 0.8-0.1 1.5-0.3z"/>
	<path id="Layer" class="s3" d="m84.5 117.2q-1.4 0.3-2.9 0.5 0 0 0 0 0.7-0.1 1.4-0.2 0.8-0.1 1.5-0.3z"/>
	<path id="Layer" class="s2" d="m86.9 105.1q0 0 0 0 0 0.1 0 0.1 0.2-0.1 0.5-0.1 0.9-0.1 1.8-0.3-1.1 0.1-2.3 0.3z"/>
	<path id="Layer" class="s3" d="m86.9 105.1q0 0 0 0 0 0.1 0 0.1 0.2-0.1 0.5-0.1 0.9-0.1 1.8-0.3-1.1 0.1-2.3 0.3z"/>
	<path id="Layer" class="s4" d="m76.1 69.5q3.4-6.2 6.8-12.1 3.5-6.2 7.2-12 0.2-0.3 0.4-0.6 3.6-5.7 7.2-10.9l-7.3-13.8q-0.8 1-1.7 2-3.1 4-6.5 8.5-3.8 5.1-7.8 10.7-3.7 5.3-7.4 11-3.2 4.8-6.3 10-0.2 0.2-0.3 0.3l9.6 18.8q3-6 6.1-11.9z"/>
	<path id="Layer" class="s5" d="m32.7 175.5q-1.9 5.2-3.8 10.6 0 0 0 0.1-0.3 0.8-0.6 1.5c-0.8 2.5-1.6 4.7-3.3 9.6 2.8 1.3 5.1 4.7 7.2 8.5-0.2-4-1.8-7.7-5-10.5 13.9 0.6 25.8-2.9 32-13q0.8-1.4 1.5-2.9c-2.8 3.6-6.3 5.1-12.8 4.7q-0.1 0-0.1 0 0 0 0.1 0c9.6-4.3 14.4-8.4 18.7-15.3 1-1.6 2-3.4 3-5.3-8.4 8.6-18.2 11-28.5 9.2l-7.7 0.8q-0.3 1-0.7 2z"/>
	<path id="Layer" class="s6" d="m36.3 158.2q2.5-6.4 5.2-13 2.5-6.3 5.2-12.7 2.6-6.4 5.4-12.7 2.8-6.6 5.7-13 2.9-6.4 5.9-12.7 1.1-2.3 2.2-4.5 1.9-3.9 3.8-7.8 0.1-0.2 0.3-0.4l-9.6-18.8q-0.2 0.4-0.4 0.8-3.4 5.4-6.6 11.1-3.3 5.7-6.5 11.7-2.7 5-5.2 10.1-0.5 1-1 2-3.1 6.4-5.7 12.4-2.8 6.7-5 12.8-1.5 4-2.7 7.8-1 3.1-1.9 6.3-2.2 7.5-3.7 14.9l9.6 18.9q1.9-5.1 3.9-10.3 0.6-1.4 1.1-2.9z"/>
	<path id="Layer" class="s7" d="m21.6 153.2c-1.2 6-2.1 12.1-2.5 18q0 0.4 0 0.7c-3-4.8-11-9.5-11-9.4 5.7 8.3 10.1 16.5 10.7 24.6-3.1 0.6-7.3-0.3-12.1-2.1 5 4.7 8.8 5.9 10.3 6.3-4.6 0.3-9.5 3.5-14.4 7.1 7.2-2.9 13-4 17.1-3.1-6.6 18.5-13.1 39-19.7 60.7 2-0.6 3.2-2 3.9-3.8 1.2-3.9 8.9-29.7 21.1-63.6q0.5-1.4 1-2.9 0.2-0.4 0.3-0.8 2-5.3 4-10.9 0.5-1.3 1-2.5 0-0.1 0-0.1l-9.6-18.9q0 0.4-0.1 0.7z"/>
	<path id="Layer" class="s8" d="m71.4 83q-0.4 0.9-0.8 1.7-1.2 2.6-2.5 5.2-1.4 2.9-2.8 5.9-0.7 1.5-1.4 3.1-2.1 4.6-4.3 9.6-2.7 6.1-5.5 12.6-2.7 6.3-5.4 13-2.6 6.3-5.3 13.1-2.4 6-4.8 12.4-0.1 0.3-0.2 0.6-2.4 6.4-4.9 13 0 0.2-0.1 0.3l7.7-0.8q-0.2 0-0.4-0.1c9.2-1.1 21.5-8 29.4-16.5 3.6-3.9 6.9-8.5 10-13.9q3.4-6 6.5-13.4 2.6-6.5 5.1-14.1c-2.1 1.1-4.5 2-7.2 2.5q-0.7 0.2-1.5 0.3-0.7 0.1-1.4 0.2 0 0 0 0c8.6-3.3 14-9.7 17.9-17.5-2.2 1.6-5.9 3.6-10.3 4.6q-0.9 0.2-1.8 0.3-0.3 0-0.5 0.1 0 0 0 0 0 0 0-0.1c3-1.2 5.5-2.6 7.7-4.2q0.7-0.6 1.4-1.1 1-0.9 1.9-1.9 0.6-0.6 1.1-1.2 1.3-1.5 2.4-3.3 0.4-0.6 0.7-1.1 0.4-0.9 0.8-1.7 1.8-3.6 2.9-6.4 0.6-1.4 1-2.6 0.2-0.5 0.4-1 0.4-1.3 0.7-2.4 0.4-1.6 0.6-2.5-0.5 0.3-1 0.7c-2.6 1.5-7.1 2.9-10.7 3.6l7.1-0.8-7.1 0.8q0 0-0.1 0-0.6 0.1-1.1 0.2 0.1 0 0.2-0.1l-24.2 2.7q-0.1 0.1-0.2 0.2z"/>
	<path id="Layer" class="s9" d="m98.7 34.2q-3.2 4.9-7 11.2-0.2 0.4-0.4 0.7-3.3 5.5-7 12.1-3.2 5.8-6.6 12.4-3 5.7-6.1 12.2l24.2-2.7c7-3.2 10.2-6.2 13.3-10.4q1.2-1.8 2.4-3.7c2.5-3.8 4.9-8.1 7.1-12.3 2.1-4.1 4-8.2 5.4-11.9 0.9-2.3 1.6-4.5 2.1-6.4q0.7-2.5 1.1-4.8c-9.5 1.6-21 3.2-28.5 3.6z"/>
	<path id="Layer" class="s2" d="m83 117.5q-0.7 0.1-1.4 0.2 0.7-0.1 1.4-0.2z"/>
	<path id="Layer" class="s3" d="m83 117.5q-0.7 0.1-1.4 0.2 0.7-0.1 1.4-0.2z"/>
	<path id="Layer" class="s10" d="m83 117.5q-0.7 0.1-1.4 0.2 0.7-0.1 1.4-0.2z"/>
	<path id="Layer" class="s2" d="m86.9 105.2q0.2-0.1 0.5-0.1-0.3 0-0.5 0.1z"/>
	<path id="Layer" class="s3" d="m86.9 105.2q0.2-0.1 0.5-0.1-0.3 0-0.5 0.1z"/>
	<path id="Layer" class="s11" d="m86.9 105.2q0.2-0.1 0.5-0.1-0.3 0-0.5 0.1z"/>
	<path id="Layer" class="s2" d="m86.9 105.1q0 0.1 0 0 0 0 0 0z"/>
	<path id="Layer" class="s3" d="m86.9 105.1q0 0.1 0 0 0 0 0 0z"/>
	<path id="Layer" class="s12" d="m86.9 105.1q0 0.1 0 0 0 0 0 0z"/>
</svg>