<svg version="1.2" xmlns="http://www.w3.org/2000/svg" viewBox="0 0 40 40" width="40" height="40">
	<title>arch</title>
	<style>
		.s0 { fill: #1793d1 } 
	</style>
	<path fill-rule="evenodd" class="s0" d="m20 0c-1.8 4.4-2.9 7.2-4.8 11.5 1.2 1.2 2.7 2.7 5.1 4.4-2.6-1-4.4-2.1-5.7-3.2-2.6 5.3-6.5 12.8-14.6 27.3 6.3-3.7 11.3-5.9 15.8-6.8q-0.3-1.3-0.3-2.7v-0.2c0.1-4.1 2.3-7.2 4.8-7 2.5 0.2 4.4 3.7 4.3 7.8q0 0.2 0 0.5 0 0.3-0.1 0.6 0 0.2 0 0.5-0.1 0.3-0.1 0.6c4.5 0.8 9.3 3.1 15.6 6.7l-3.4-6.3c-1.6-1.2-3.4-2.9-6.9-4.7 2.4 0.6 4.2 1.3 5.5 2.1-10.7-19.9-11.5-22.5-15.2-31.1z"/>
</svg>