<svg version="1.2" xmlns="http://www.w3.org/2000/svg" viewBox="0 0 128 128" width="128" height="128">
	<title>atom-svg</title>
	<style>
		.s0 { fill: #67595d;stroke: #ffffff;paint-order:stroke fill markers;stroke-linejoin: round;stroke-width: 2 } 
	</style>
	<path id="Layer" fill-rule="evenodd" class="s0" d="m38.6 67c-0.8 1.7-1.5 3.1-2.2 4.5-3.3 7.2-6.1 14.6-7.5 22.4-0.8 4.3-1.2 8.7-0.1 13.1 1 3.7 3 5.6 6.5 5.8 1.5 0.1 3.1-0.3 4.6-0.7 3.9-1.1 7.3-3.2 10.6-5.6 0.8-0.5 1.6-0.9 2.6-0.5 1.8 0.7 2.4 3 0.9 4.1-5.3 4-11 7.5-18 7.7-5.7 0.2-9.9-2.9-11.7-8.3-1.3-4.1-1.4-8.3-0.9-12.5 1.5-12.4 6.3-23.8 12.1-34.8 0.5-0.9 0.5-1.7 0.1-2.7-1.4-4.1-2.8-8.3-4.1-12.5-0.2-0.8-0.5-1-1.3-0.8-5.7 1.2-11.3 2.7-16.3 5.7-2 1.2-3.8 2.6-5.4 4.2-2.5 2.7-2.6 5.7-0.5 8.8 1.9 2.7 4.4 4.6 7.2 6.2 0.8 0.6 1.7 1 2.6 1.5 1.3 0.8 1.7 2.2 1 3.4-0.6 1.3-2.1 1.7-3.4 1.1-3.8-2-7.4-4.4-10.3-7.7-1.7-2-3-4.2-3.4-6.9-0.6-3.4 0.4-6.3 2.4-9 2.1-2.7 4.8-4.7 7.8-6.3 5.2-2.9 10.9-4.6 16.8-5.8 0.4-0.1 0.8-0.2 1.3-0.4-0.3-1.5-0.6-3-0.8-4.6-1-6.2-1.4-12.4 0.1-18.5 0.6-2.5 1.6-4.8 3.2-6.7 3.4-4 7.7-4.9 12.5-3.7 4.8 1.2 8.8 3.8 12.6 6.9 1 0.9 1.1 2.5 0.2 3.5-0.9 1-2.3 1.1-3.5 0.3-1.9-1.3-3.7-2.6-5.6-3.8-2.3-1.3-4.7-2.3-7.4-2.3q-3.3 0-5.2 2.7c-1.6 2.3-2.2 4.9-2.5 7.6-0.6 5.7 0.1 11.4 1.2 17 0.2 0.5 0.4 0.8 1 0.7 4.5-0.5 9-0.9 13.5-1.3 1-0.1 1.7-0.4 2.3-1.2 5.8-7.4 12.3-14.3 19.9-20 4.2-3.2 8.6-6 13.8-7.5 3.2-0.9 6.4-1.3 9.7-0.2 4 1.5 6.3 4.5 7.4 8.5 1.2 4.2 1.1 8.5 0.6 12.8q-0.1 0.4-0.2 0.8 0 0.4-0.1 0.8 0 0.4-0.1 0.8-0.1 0.4-0.2 0.9c-0.3 1.4-1.4 2.2-2.8 2-1.4-0.1-2.2-1.2-2.1-2.7 0.2-2.1 0.7-4.1 0.7-6.2 0-2.4 0-4.9-0.6-7.3-1-4.9-4.4-6.8-9.5-5.7-3.7 0.8-7.1 2.6-10.3 4.7-6.6 4.3-12.2 9.7-17.4 15.6-0.9 1-1.9 2.2-2.8 3.3-0.1 0 0 0.2-0.1 0.4h1.3c13.4 0.2 26.6 1.8 39.5 5.5 6.2 1.7 12.1 4.1 17.5 7.4 2.9 1.8 5.6 3.9 7.7 6.7 4.3 5.5 4 11.8-1 16.7-3.3 3.4-7.4 5.5-11.8 7.2-1.3 0.4-2.6-0.2-3.1-1.4-0.5-1.3 0-2.7 1.4-3.3 2-1 4.1-1.8 6-3q0.6-0.4 1.2-0.8 0.6-0.4 1.1-0.8 0.5-0.5 1.1-0.9 0.5-0.5 1-1c2.6-2.9 2.7-6 0.5-9.2-1.7-2.4-4-4.1-6.5-5.6-6-3.8-12.7-6.1-19.5-7.9-7.2-1.9-14.4-3.3-21.8-3.8-5.9-0.4-11.7-0.5-17.6-0.8-0.9 0-1.5 0.2-1.9 0.9-3.5 5.3-7 10.6-10.4 16-0.2 0.4-0.3 1.1-0.2 1.5 5.8 13.8 13.2 26.7 22.9 38.1 4.1 4.8 8.6 9.3 14 12.7 2.5 1.5 5.2 2.9 8.3 3.1 2.8 0.2 4.8-1 6.2-3.4 1.3-2.2 1.8-4.7 2-7.2 0.8-8.2-0.8-16.1-3-23.9-2.2-8-5.3-15.6-8.8-23.1-0.3-0.6-0.5-1.3-0.5-2 0-1.2 1-2 2.1-2.2 1.1-0.1 2.1 0.4 2.6 1.5 1.3 2.7 2.6 5.5 3.8 8.2 3.6 8.6 6.5 17.4 8 26.6 1.1 6.4 1.6 12.9 0.1 19.3q-0.1 0.5-0.3 1.1-0.1 0.5-0.3 1-0.2 0.6-0.4 1.1-0.2 0.5-0.4 1c-2.6 5.5-7.7 8-13.6 6.7-4.8-1-8.9-3.5-12.7-6.6-7-5.5-12.7-12.3-17.8-19.5-5.9-8.2-10.8-17-14.9-26.2-0.2-0.4-0.4-0.7-0.7-1.3zm-2.5-22l3.2 10.2c2.5-3.9 4.9-7.5 7.4-11.3zm28.4 26.2c-4 0-7.3-3.2-7.3-7.2 0-4.1 3.3-7.3 7.4-7.3 4 0 7.2 3.2 7.2 7.2 0 4.1-3.2 7.3-7.3 7.3z"/>
</svg>