<svg version="1.2" xmlns="http://www.w3.org/2000/svg" viewBox="0 0 281 256" width="281" height="256">
	<title>atom-svg</title>
	<style>
		.s0 { fill: #67595d;stroke: #ffffff;paint-order:stroke fill markers;stroke-linejoin: round;stroke-width: 4 } 
	</style>
	<path id="Layer" fill-rule="evenodd" class="s0" d="m84 134.3c-1.9 3.6-3.3 6.8-4.8 9.9-7.4 15.9-13.6 32.1-16.7 49.4-1.8 9.6-2.6 19.3-0.2 28.9 2.2 8.3 6.7 12.5 14.3 12.9 3.4 0.1 6.9-0.6 10.2-1.5 8.6-2.5 16.2-7.2 23.4-12.4 1.8-1.2 3.6-1.9 5.7-1.2 4 1.5 5.4 6.7 2.1 9.2-11.9 8.8-24.5 16.4-39.9 16.9-12.6 0.4-21.7-6.4-25.7-18.4-3.1-8.9-3.2-18.2-2.1-27.4 3.3-27.5 13.9-52.5 26.6-76.8 1.2-2.1 1.2-3.7 0.4-5.9-3.1-9.2-6.1-18.4-9-27.7-0.6-1.7-1.1-2.2-3-1.8-12.5 2.8-24.9 6.1-36 12.7-4.2 2.6-8.3 5.7-11.8 9.2-5.7 6-5.8 12.6-1.2 19.5 4.2 6 9.9 10 16 13.7 1.8 1.1 3.8 2.1 5.6 3.3 2.9 1.7 3.8 4.8 2.4 7.4-1.5 2.8-4.6 3.8-7.6 2.3-8.4-4.3-16.4-9.5-22.6-16.8-4-4.4-6.8-9.4-7.8-15.3-1.2-7.4 1-14 5.4-19.8 4.6-6 10.6-10.3 17.2-13.9 11.7-6.3 24.1-10.1 37.1-12.9 0.9-0.2 1.8-0.5 3-0.8-0.6-3.4-1.3-6.7-1.8-10.1-2.2-13.6-3.2-27.3 0.2-40.9 1.4-5.4 3.4-10.4 7.1-14.8 7.4-8.7 17-10.7 27.6-8.1 10.6 2.6 19.4 8.4 27.7 15.2 2.3 2 2.4 5.4 0.5 7.7-1.9 2.2-5 2.5-7.6 0.8-4.2-2.9-8.3-5.9-12.6-8.5-5-2.9-10.3-5-16.2-5-4.9 0-8.7 2-11.6 5.9-3.5 5.1-4.7 10.9-5.4 16.9-1.5 12.6 0.2 24.9 2.7 37.2 0.3 1.4 0.8 1.9 2.1 1.7 10-1 20-2 30-2.9 2.1-0.1 3.5-0.9 4.9-2.6 13-16.3 27.1-31.5 43.9-44.1 9.2-7.1 19.2-13.2 30.5-16.5 7-2.2 14.2-2.9 21.4-0.4 8.9 3.1 13.8 9.9 16.5 18.6 2.6 9.3 2.2 18.8 1.1 28.2q-0.1 0.9-0.3 1.8 0 1-0.2 1.9-0.1 0.9-0.3 1.7-0.1 0.9-0.3 1.8c-0.6 3.3-3.1 5-6.3 4.6-3-0.3-4.9-2.6-4.6-6 0.4-4.5 1.4-9.1 1.4-13.6 0.1-5.4 0-10.9-1.1-16.1-2.3-10.9-9.9-15.2-21-12.7-8.3 1.9-15.8 5.8-22.8 10.4-14.5 9.5-26.9 21.4-38.4 34.4-2.1 2.3-4.2 4.8-6.2 7.3-0.1 0.2-0.1 0.3-0.3 1h3c29.6 0.3 58.7 3.8 87.2 12 13.6 3.9 26.6 9 38.6 16.4 6.5 4.1 12.4 8.7 17 14.7 9.6 12.2 8.7 26-2.2 37-7.4 7.4-16.4 12.1-26.2 15.7-2.6 1-5.7-0.5-6.7-3-1.1-3 0.1-5.9 3-7.4 4.4-2.2 9.1-4 13.4-6.6q1.2-0.8 2.5-1.7 1.3-0.8 2.5-1.8 1.2-1 2.3-2 1.2-1.1 2.2-2.2c6-6.2 6.2-13.1 1.2-20.2-3.8-5.2-8.9-9.1-14.3-12.5-13.3-8.2-28.1-13.4-43.2-17.4-15.7-4.2-31.7-7.1-48-8.3-13-0.9-26-1.2-38.9-1.8-1.9-0.1-3.2 0.4-4.2 2.1-7.6 11.7-15.4 23.4-22.9 35.2-0.5 0.8-0.8 2.3-0.4 3.2 12.7 30.5 29.1 58.9 50.6 84.2 9 10.6 18.8 20.4 30.8 27.9 5.6 3.5 11.5 6.4 18.3 6.9 6.2 0.3 10.6-2.2 13.7-7.4 2.9-4.9 4.1-10.4 4.5-16 1.7-18-1.8-35.4-6.6-52.7-4.8-17.6-11.7-34.4-19.6-50.9-0.6-1.4-1.2-3-1.1-4.4 0.1-2.6 2.2-4.5 4.8-4.9 2.2-0.3 4.6 0.9 5.7 3.4 2.9 6 5.7 11.9 8.3 18.1 8 18.9 14.3 38.2 17.8 58.6 2.3 14.1 3.4 28.4 0.2 42.5q-0.3 1.2-0.7 2.5-0.3 1.1-0.7 2.2-0.4 1.2-0.9 2.4-0.4 1.1-1 2.2c-5.5 12.2-16.9 17.7-29.9 14.9-10.7-2.4-19.7-8-28.1-14.6-15.4-12.3-27.9-27.1-39.3-43.1-12.9-18.2-23.8-37.5-32.9-57.8-0.4-0.8-0.8-1.5-1.4-2.9zm-5.6-48.4l7.1 22.4c5.5-8.5 10.7-16.4 16.3-25zm62.7 57.9c-8.9 0-16.1-7.2-16.1-16 0-8.9 7.2-16 16.1-16 8.9 0 16.2 7.1 16.2 16 0 8.8-7.3 16-16.2 16z"/>
</svg>