<svg version="1.2" xmlns="http://www.w3.org/2000/svg" viewBox="0 0 322 257" width="322" height="257">
	<title>bootstrap-svg</title>
	<defs>
		<linearGradient id="g1" x2="1" gradientUnits="userSpaceOnUse" gradientTransform="matrix(280.72,222.839,-223.572,281.644,48.219,7.411)">
			<stop offset="0" stop-color="#9013fe"/>
			<stop offset="1" stop-color="#6610f2"/>
		</linearGradient>
		<filter x="-50%" y="-50%" width="200%" height="200%" id="f1" ><feDropShadow dx="-1.2246467991473532e-16" dy="2" stdDeviation="4.166666666666667" flood-color="#000000" flood-opacity=".1"/></filter>
		<linearGradient id="g2" x2="1" gradientUnits="userSpaceOnUse" gradientTransform="matrix(62.745,106.12,-95.822,56.656,122.881,70.423)">
			<stop offset="0" stop-color="#ffffff"/>
			<stop offset="1" stop-color="#f1e5fc"/>
		</linearGradient>
	</defs>
	<style>
		.s0 { fill: url(#g1) } 
		.s1 { filter: url(#f1);fill: url(#g2);stroke: #ffffff;stroke-width: .8 } 
	</style>
	<path id="Layer" class="s0" d="m35.9 34.1c-0.6-17.4 13-33.5 31.3-33.5h187.8c18.4 0 31.9 16.1 31.3 33.5-0.6 16.7 0.2 38.4 5.6 56 5.5 17.7 14.7 28.9 29.8 30.4v16.3c-15.1 1.4-24.3 12.6-29.8 30.3-5.4 17.7-6.2 39.4-5.6 56.1 0.6 17.4-12.9 33.4-31.3 33.4h-187.8c-18.3 0-31.9-16-31.3-33.4 0.6-16.7-0.2-38.4-5.6-56.1-5.5-17.7-14.7-28.9-29.8-30.3v-16.3c15.1-1.5 24.3-12.7 29.8-30.4 5.4-17.6 6.2-39.3 5.6-56z"/>
	<path id="Layer" fill-rule="evenodd" class="s1" d="m113.1 197.6v-136.1h55.7c24.7 0 41 13.4 41 33.9 0 14.5-11 27.4-24.9 29.7v0.7c19 2.1 31.7 15.2 31.7 33.3 0 24-17.9 38.5-47.5 38.5zm21.6-78.2h24.3c18.7 0 29.1-7.6 29.1-21 0-12.7-8.9-19.7-24.6-19.7h-28.8zm29.9 61c19.5 0 29.8-7.8 29.8-22.6 0-14.7-10.6-22.2-31.1-22.2h-28.6v44.8z"/>
</svg>