<svg version="1.2" xmlns="http://www.w3.org/2000/svg" viewBox="0 0 321 256" width="321" height="256">
	<title>bootstrap-svg</title>
	<defs>
		<linearGradient id="g1" x2="1" gradientUnits="userSpaceOnUse" gradientTransform="matrix(280.005,222.271,-222.994,280.915,47.894,7.029)">
			<stop offset="0" stop-color="#9013fe"/>
			<stop offset="1" stop-color="#6610f2"/>
		</linearGradient>
		<linearGradient id="g2" x2="1" gradientUnits="userSpaceOnUse" gradientTransform="matrix(62.576,105.835,-95.563,56.503,122.371,69.887)">
			<stop offset="0" stop-color="#ffffff"/>
			<stop offset="1" stop-color="#f1e5fc"/>
		</linearGradient>
	</defs>
	<style>
		.s0 { fill: url(#g1) } 
		.s1 { fill: url(#g2);stroke: #ffffff } 
	</style>
	<path id="Layer" class="s0" d="m35.6 33.6c-0.6-17.3 12.9-33.3 31.2-33.3h187.4c18.2 0 31.8 16 31.2 33.3-0.6 16.7 0.1 38.3 5.6 55.9 5.4 17.7 14.6 28.8 29.7 30.3v16.3c-15.1 1.4-24.3 12.6-29.7 30.2-5.4 17.6-6.2 39.3-5.6 56 0.6 17.3-13 33.3-31.2 33.3h-187.4c-18.3 0-31.8-16-31.2-33.3 0.6-16.7-0.2-38.4-5.6-56-5.5-17.6-14.7-28.8-29.7-30.2v-16.3c15-1.4 24.2-12.6 29.7-30.3 5.4-17.6 6.2-39.2 5.6-55.9z"/>
	<path id="Layer" fill-rule="evenodd" class="s1" d="m112.6 196.8v-135.9h55.5c24.7 0 40.9 13.4 40.9 33.9 0 14.4-10.9 27.3-24.8 29.6v0.7c18.9 2.1 31.6 15.2 31.6 33.2 0 23.9-17.8 38.4-47.4 38.4zm21.6-78h24.2c18.7 0 29-7.5 29-21 0-12.6-8.9-19.6-24.5-19.6l-28.7 0.1zm29.8 60.8c19.5 0 29.8-7.8 29.8-22.5 0-14.7-10.6-22.2-31.1-22.2h-28.5v44.7z"/>
</svg>