<svg version="1.2" xmlns="http://www.w3.org/2000/svg" viewBox="0 0 232 256" width="232" height="256">
	<title>C_Programming_Language-svg</title>
	<style>
		.s0 { fill: #004482 } 
		.s1 { fill: #659ad2 } 
		.s2 { fill: #ffffff } 
		.s3 { fill: #00599c } 
	</style>
	<path id="path2" fill-rule="evenodd" class="s0" d="m109.3 1.7c4.1-2.3 9.2-2.3 13.3 0 20.5 11.5 82.1 46.1 102.6 57.5 4.1 2.4 6.7 6.7 6.7 11.3 0 23 0 92 0 115 0 4.6-2.6 8.9-6.7 11.3-20.5 11.4-82.1 46-102.6 57.5-4.1 2.3-9.2 2.3-13.3 0-20.5-11.5-82.1-46.1-102.6-57.5-4.1-2.4-6.7-6.7-6.7-11.3 0-23 0-92 0-115 0-4.6 2.6-8.9 6.7-11.3 20.5-11.4 82.1-46 102.6-57.5z"/>
	<path id="path4" fill-rule="evenodd" class="s1" d="m1.9 191.4c-1.7-2.2-1.9-4.2-1.9-7 0-22.8 0-91.5 0-114.3 0-4.6 2.5-8.9 6.7-11.2 20.4-11.4 81.8-45.8 102.2-57.2 4.1-2.3 9.7-2.3 13.8 0.1 20.4 11.4 81.6 45.4 102 56.8 1.7 1 2.9 2.1 4.1 3.5z"/>
	<path id="path6" fill-rule="evenodd" class="s2" d="m115.9 213.3c-47.2 0-85.4-38.1-85.4-85.3 0-47.2 38.2-85.3 85.4-85.3 47.3 0 85.5 38.1 85.5 85.3 0 47.2-38.2 85.3-85.5 85.3zm42.8-85.3c0-23.6-19.1-42.7-42.8-42.7-23.6 0-42.7 19.1-42.7 42.7 0 23.6 19.1 42.7 42.7 42.7 23.7 0 42.8-19.1 42.8-42.7z"/>
	<path id="path8" fill-rule="evenodd" class="s3" d="m228.8 62.2c3.1 2.9 3 7.4 3 10.9 0 23.1-0.2 88.9 0.1 112 0 2.4-0.8 5-2 6.9l-116.4-64z"/>
</svg>