<?xml version="1.0" encoding="UTF-8"?>
<svg xmlns="http://www.w3.org/2000/svg" xmlns:xlink="http://www.w3.org/1999/xlink" width="px" height="40px" viewBox="0 0 36 39" version="1.1">
<g id="surface1">
<path style=" stroke:none;fill-rule:evenodd;fill:rgb(0%,26.666668%,50.980395%);fill-opacity:1;" d="M 16.960938 0.257812 C 17.597656 -0.0898438 18.386719 -0.0898438 19.023438 0.257812 C 22.207031 2.011719 31.765625 7.28125 34.945312 9.019531 C 35.582031 9.382812 35.984375 10.039062 35.984375 10.742188 C 35.984375 14.242188 35.984375 24.757812 35.984375 28.257812 C 35.984375 28.960938 35.582031 29.617188 34.945312 29.980469 C 31.765625 31.71875 22.207031 36.988281 19.023438 38.742188 C 18.386719 39.089844 17.597656 39.089844 16.960938 38.742188 C 13.78125 36.988281 4.21875 31.71875 1.039062 29.980469 C 0.402344 29.617188 0 28.960938 0 28.257812 C 0 24.757812 0 14.242188 0 10.742188 C 0 10.039062 0.402344 9.382812 1.039062 9.019531 C 4.21875 7.28125 13.78125 2.011719 16.960938 0.257812 Z M 16.960938 0.257812 "/>
<path style=" stroke:none;fill-rule:evenodd;fill:rgb(39.607844%,60.392159%,82.352942%);fill-opacity:1;" d="M 0.292969 29.160156 C 0.03125 28.824219 0 28.519531 0 28.09375 C 0 24.617188 0 14.152344 0 10.679688 C 0 9.980469 0.386719 9.324219 1.039062 8.972656 C 4.207031 7.238281 13.734375 1.996094 16.898438 0.257812 C 17.535156 -0.0898438 18.402344 -0.0898438 19.039062 0.273438 C 22.207031 2.011719 31.703125 7.191406 34.867188 8.925781 C 35.132812 9.078125 35.316406 9.246094 35.503906 9.460938 Z M 0.292969 29.160156 "/>
<path style=" stroke:none;fill-rule:evenodd;fill:rgb(100%,100%,100%);fill-opacity:1;" d="M 17.984375 32.496094 C 10.660156 32.496094 4.734375 26.691406 4.734375 19.5 C 4.734375 12.308594 10.660156 6.503906 17.984375 6.503906 C 25.324219 6.503906 31.25 12.308594 31.25 19.5 C 31.25 26.691406 25.324219 32.496094 17.984375 32.496094 Z M 24.625 19.5 C 24.625 15.90625 21.660156 12.996094 17.984375 12.996094 C 14.324219 12.996094 11.359375 15.90625 11.359375 19.5 C 11.359375 23.09375 14.324219 26.003906 17.984375 26.003906 C 21.660156 26.003906 24.625 23.09375 24.625 19.5 Z M 24.625 19.5 "/>
<path style=" stroke:none;fill-rule:evenodd;fill:rgb(0%,34.901962%,61.176473%);fill-opacity:1;" d="M 35.503906 9.476562 C 35.984375 9.917969 35.96875 10.601562 35.96875 11.136719 C 35.96875 14.65625 35.9375 24.679688 35.984375 28.199219 C 35.984375 28.566406 35.859375 28.960938 35.675781 29.25 L 17.613281 19.5 Z M 35.503906 9.476562 "/>
</g>
</svg>
