<svg version="1.2" xmlns="http://www.w3.org/2000/svg" viewBox="0 0 286 256" width="286" height="256">
	<title>chocolatey-svg</title>
	<style>
		.s0 { fill: #924716 } 
		.s1 { fill: #793812 } 
		.s2 { fill: #9f5326 } 
		.s3 { fill: #80b5e3 } 
		.s4 { opacity: .2;fill: #ffffff } 
		.s5 { fill: #342565 } 
	</style>
	<g id="Layer">
		<path id="Layer" class="s0" d="m249.1 245.4h-197.7v-236.4h197.7v53.3z"/>
		<path id="Layer" class="s1" d="m249.1 9v236.4h-17.1v-221.9z"/>
		<path id="Layer" class="s2" d="m229.3 23.5h-197.7v-14.5h214.8z"/>
		<g id="Layer">
			<path id="Layer" class="s3" d="m249.1 245.4h-215.7v-236.4h43.3l37 28.9 36.1-14.4 22.6 27.9 42.4-7.2 17.2 52.3 17.1 66.8 26.2 27.1-13.6 22.5 24.4 43.3z"/>
			<path id="Layer" class="s3" d="m33.4 245.4v-236.4l-33.4-9 17.1 37.9-17.1 29.8 17.1 29.7-17.1 29.8 17.1 28.9-17.1 29.8 17.1 29.7-17.1 40.6z"/>
		</g>
		<path id="Layer" class="s4" d="m93.9 23.5h-45.2l-17.1-14.5h43.3z"/>
		<g id="Layer">
			<path id="Layer" class="s0" d="m165.2 123.6c-6.3 5.4-22.6 17.1-39.7 20.8-20.8 4.5-32.5-12.7-28-28.9 4.5-19 25.2-33.4 43.3-27.1 8.1 2.7 5.4 13.5 2.7 19-7.2 13.5 2.7 15.3 7.2 10.8 13.6-14.4 21.7-38.8-1.8-47.8-36.1-13.6-65.9 19.8-75.8 46.9-15.3 43.3 21.7 81.2 64.1 52.3 10.8-7.2 23.5-19.8 31.6-30.7 7.2-10.8 2.7-20.7-3.6-15.3z"/>
			<path id="Layer" class="s0" d="m209.4 110.9c-5.6 5.7-13.3 7.1-17.2 3.2-3.9-3.8-2.5-11.5 3.2-17.2 5.6-5.6 13.3-7.1 17.2-3.2 3.9 3.9 2.4 11.6-3.2 17.2z"/>
			<path id="Layer" class="s0" d="m204.4 149.5c-5.6 5.6-13.3 7.1-17.2 3.2-3.9-3.9-2.5-11.6 3.2-17.3 5.6-5.6 13.3-7 17.2-3.1 3.9 3.8 2.4 11.5-3.2 17.2z"/>
		</g>
		<path id="Layer" class="s4" d="m51.4 230.1l-18 15.3v-236.4l18 14.5z"/>
		<g id="Layer" style="opacity: .2">
			<path id="Layer" class="s5" d="m249.1 245.4h-215.7l18-15.3h180.6z"/>
			<path id="Layer" class="s5" d="m249.1 245.4l-17.1-15.3v-133.6l17.1 66.8z"/>
		</g>
	</g>
</svg>