<svg version="1.2" xmlns="http://www.w3.org/2000/svg" viewBox="0 0 282 256" width="282" height="256">
	<title>chocolatey-svg</title>
	<style>
		.s0 { fill: #924716 } 
		.s1 { fill: #793812 } 
		.s2 { fill: #9f5326 } 
		.s3 { fill: #80b5e3 } 
		.s4 { opacity: .2;fill: #ffffff } 
		.s5 { fill: #342565 } 
	</style>
	<g id="Layer">
		<path id="Layer" class="s0" d="m245.7 245.2h-194.2v-235.2h194.2v53z"/>
		<path id="Layer" class="s1" d="m245.7 10v235.2h-16.9v-220.9z"/>
		<path id="Layer" class="s2" d="m226.2 24.3h-194.2v-14.3h211z"/>
		<g id="Layer">
			<path id="Layer" class="s3" d="m245.7 245.2h-211.9v-235.2h42.5l36.4 28.7 35.4-14.4 22.2 27.9 41.7-7.2 16.8 52.1 16.9 66.4 25.7 27-13.3 22.4 23.9 43.1z"/>
			<path id="Layer" class="s3" d="m33.8 245.2v-235.2l-32.8-9 16.8 37.7-16.8 29.6 16.8 29.7-16.8 29.6 16.8 28.7-16.8 29.7 16.8 29.6-16.8 40.4z"/>
		</g>
		<path id="Layer" class="s4" d="m93.2 24.3h-44.3l-16.9-14.3h42.6z"/>
		<g id="Layer">
			<path id="Layer" class="s0" d="m163.2 124c-6.2 5.4-22.1 17.1-39 20.7-20.4 4.5-31.9-12.6-27.5-28.8 4.5-18.8 24.9-33.2 42.6-26.9 8 2.7 5.3 13.5 2.6 18.8-7 13.5 2.7 15.3 7.1 10.8 13.3-14.3 21.3-38.6-1.7-47.6-35.5-13.4-64.7 19.8-74.5 46.7-15.1 43.1 21.3 80.8 62.9 52.1 10.7-7.2 23.1-19.8 31.1-30.5 7.1-10.8 2.6-20.7-3.6-15.3z"/>
			<path id="Layer" class="s0" d="m206.7 111.4c-5.6 5.6-13.2 7.1-17 3.2-3.8-3.9-2.4-11.5 3.2-17.1 5.5-5.7 13.1-7.1 16.9-3.2 3.8 3.8 2.4 11.5-3.1 17.1z"/>
			<path id="Layer" class="s0" d="m201.7 149.8c-5.5 5.6-13.1 7-16.9 3.1-3.8-3.8-2.4-11.5 3.2-17.1 5.5-5.6 13.1-7 16.9-3.2 3.8 3.9 2.4 11.5-3.2 17.2z"/>
		</g>
		<path id="Layer" class="s4" d="m51.5 230l-17.7 15.2v-235.2l17.7 14.3z"/>
		<g id="Layer" style="opacity: .2">
			<path id="Layer" class="s5" d="m245.7 245.2h-211.9l17.7-15.2h177.3z"/>
			<path id="Layer" class="s5" d="m245.7 245.2l-16.9-15.2v-132.9l16.9 66.4z"/>
		</g>
	</g>
</svg>