<svg version="1.2" xmlns="http://www.w3.org/2000/svg" viewBox="0 0 300 256" width="300" height="256">
	<title>cobol-svg</title>
	<style>
		.s0 { fill: #005ca5 } 
	</style>
	<path id="Layer" fill-rule="evenodd" class="s0" d="m216 27.2q3.5-2.4 6.4-5.3 3-3 5.4-6.5 2.4-3.4 4.2-7.2 1.8-3.9 2.9-7.9 0.6 2.8 0.9 5.7 0.3 2.9 0.3 5.8 0 2.9-0.4 5.8-0.3 2.9-1 5.7c-2.4 6.2-6.1 11.9-8.9 17.9q5.5-4.7 11.4-9 5.8-4.3 11.9-8.3 6.1-3.9 12.5-7.4 6.3-3.6 12.9-6.7c-5.2 15.9-19.5 25.5-30 37.7 2 4.4 3 10.6 8.6 11.8q3.2 1.1 6.5 1.7 3.3 0.6 6.7 0.9 3.4 0.2 6.8 0 3.3-0.3 6.7-0.9c9.7-3.3 14.3-13.4 19.2-21.7v15.7q-0.6 2.3-1.3 4.7-0.8 2.3-1.5 4.7-0.8 2.3-1.7 4.6-0.8 2.3-1.7 4.6c2.1 5.9 4.4 11.7 6.2 17.6v10.2c-2.3 3.9-4.7 7.8-7.1 11.6q-1.2-1.7-2.5-3.4-1.3-1.6-2.7-3.2-1.5-1.5-3-3-1.5-1.4-3.2-2.8-2.4-0.7-4.8-1.2-2.5-0.4-5-0.6-2.5-0.2-5 0-2.5 0.1-5 0.5 2.1 3.3 4.9 6 2.8 2.8 6.2 4.8 3.4 2.1 7.1 3.3 3.7 1.2 7.6 1.6c-3.8 4-7.1 9.8-13.1 10.4-17.6 2.6-34.3-5.4-51.7-5.4-3.1 0.2-7.6 0.3-8.4 4 0 7.8 2.3 15.5 2 23.4-0.6 13.4-5.5 26.3-5.7 39.8q0.6 4.7 1.4 9.4 0.8 4.7 1.9 9.3 1.1 4.6 2.6 9.2 1.4 4.5 3.1 8.9c-5.6-0.8-11.2-1.7-16.7-2.7-1.1 2.2-2 4.5-2.8 6.7q1.2 1.9 2.6 3.6 1.4 1.8 2.9 3.4 1.6 1.6 3.2 3.1 1.7 1.4 3.5 2.7c-0.7 1.4-2 4.1-2.6 5.4l-6.1 1.5q-2.1 4-4.3 7.9-2.9-0.6-5.8-0.9-3-0.3-6-0.2-3 0-5.9 0.5-2.9 0.5-5.8 1.3-7.5-3-14.8-6.1 1.1-2.9 2-6 0.8-3 1.4-6.1 0.5-3.2 0.8-6.3 0.2-3.2 0.1-6.3c-3-10.5-17.1-10.5-21.4-20.1q-2.2-3.4-4.1-7-1.8-3.7-3.2-7.6-1.4-3.8-2.3-7.8-0.9-4-1.3-8.1c-8.8-4.6-15.5-13-25.6-14.9-0.5 4.3-0.9 8.7-1.7 13.1q-1 3.6-2.4 7-1.5 3.4-3.3 6.7-1.8 3.2-4 6.2-2.2 3.1-4.7 5.8 0.6 6.8 1.3 13.5 5.6 5.2 11 10.4-1.8 1.1-3.6 2.2-1.9 1-3.8 2-1.9 0.9-3.9 1.8-1.9 0.9-3.9 1.7-2.2 0.2-4.5 0.4-2.2 0.2-4.5 0.3-2.3 0.1-4.5 0.1-2.3 0-4.5 0-4.2-4.1-8.3-8.2 1.1-3.3 1.7-6.8 0.6-3.5 0.8-7 0.1-3.6-0.2-7.1-0.3-3.5-1.1-7c1.8-4.2 3.5-8.6 5.1-13q-3.9 1.4-7.9 2.2-4 0.8-8.1 1.1-4 0.3-8.1 0-4.1-0.3-8.1-1.1c-4.8-1.8-9.3-4.3-13.4-7.3-4.1-3.1-7.7-6.7-10.8-10.8-3.1-4.1-5.6-8.6-7.5-13.3-1.8-4.8-3-9.8-3.5-14.9-0.2-3.3 0-6.6 0.5-9.8 0.5-3.3 1.5-6.5 2.8-9.5 1.3-3 3-5.9 4.9-8.5 2-2.6 4.3-5 6.9-7.1q-1.1 3.4-1.8 6.8-0.6 3.5-1 7-0.3 3.6-0.2 7.1 0 3.5 0.4 7c0.6 3.3 1.7 6.5 3.2 9.5 1.6 2.9 3.6 5.6 6 8 2.4 2.3 5.1 4.3 8.1 5.8 2.9 1.5 6.1 2.6 9.4 3.1q2.8-0.1 5.6-0.5 2.8-0.5 5.4-1.3 2.7-0.9 5.2-2.2 2.5-1.3 4.8-2.9-1.1-5.5-1.4-11.1-0.3-5.6 0.2-11.2 0.5-5.6 1.8-11.1 1.2-5.5 3.3-10.8c2-3.5 4.4-6.9 7.1-9.9 2.7-3.1 5.7-5.9 9-8.3 3.3-2.5 6.8-4.5 10.6-6.3 3.7-1.7 7.6-3 11.6-3.9q3.2-1.2 6.3-2.9 3-1.7 5.7-3.8 2.7-2.1 5.1-4.6 2.4-2.6 4.4-5.4 1.8-2 3.8-3.9 2-1.8 4-3.6 2-1.8 4.2-3.5 2.1-1.7 4.3-3.2c-2.4-2.4-4.8-4.7-7.3-7.1q3-1 5.6-2.8 2.6-1.8 4.6-4.2 2.1-2.4 3.4-5.3 1.3-2.8 1.7-6c13.8-3.2 27.3-7 40.9-10.8q1.7 1.2 3.5 2.2 1.8 1 3.7 1.8 1.9 0.9 3.9 1.5 2 0.6 4 1c3.4 3.7 5.3 12.4 11.8 9.9zm-40.4 142.8c0.4 8.2-0.5 17.8 7.2 23.1 0-8.1-0.5-16.1-1.1-24.2z"/>
</svg>