<?xml version="1.0" encoding="UTF-8"?>
<svg xmlns="http://www.w3.org/2000/svg" xmlns:xlink="http://www.w3.org/1999/xlink" width="px" height="40px" viewBox="0 0 46 40" version="1.1">
<g id="surface1">
<path style=" stroke:none;fill-rule:evenodd;fill:rgb(0%,36.078432%,64.705884%);fill-opacity:1;" d="M 33.121094 4.25 C 33.476562 4 33.804688 3.722656 34.101562 3.421875 C 34.40625 3.109375 34.683594 2.769531 34.929688 2.40625 C 35.175781 2.050781 35.390625 1.675781 35.574219 1.28125 C 35.757812 0.875 35.90625 0.464844 36.019531 0.046875 C 36.078125 0.339844 36.125 0.636719 36.15625 0.9375 C 36.1875 1.238281 36.203125 1.542969 36.203125 1.84375 C 36.203125 2.144531 36.179688 2.449219 36.140625 2.75 C 36.109375 3.050781 36.058594 3.347656 35.988281 3.640625 C 35.621094 4.609375 35.050781 5.5 34.621094 6.4375 C 35.183594 5.949219 35.765625 5.480469 36.371094 5.03125 C 36.964844 4.582031 37.570312 4.152344 38.195312 3.734375 C 38.820312 3.328125 39.457031 2.941406 40.113281 2.578125 C 40.757812 2.203125 41.414062 1.855469 42.089844 1.53125 C 41.292969 4.015625 39.101562 5.515625 37.488281 7.421875 C 37.796875 8.109375 37.949219 9.078125 38.808594 9.265625 C 39.136719 9.378906 39.46875 9.46875 39.804688 9.53125 C 40.144531 9.59375 40.484375 9.640625 40.832031 9.671875 C 41.179688 9.691406 41.527344 9.691406 41.875 9.671875 C 42.210938 9.640625 42.554688 9.59375 42.902344 9.53125 C 44.390625 9.015625 45.09375 7.4375 45.847656 6.140625 L 45.847656 8.59375 C 45.785156 8.832031 45.71875 9.078125 45.648438 9.328125 C 45.566406 9.566406 45.488281 9.8125 45.417969 10.0625 C 45.335938 10.300781 45.25 10.542969 45.15625 10.78125 C 45.074219 11.019531 44.988281 11.261719 44.894531 11.5 C 45.21875 12.421875 45.570312 13.328125 45.847656 14.25 L 45.847656 15.84375 C 45.492188 16.453125 45.125 17.0625 44.757812 17.65625 C 44.636719 17.480469 44.507812 17.300781 44.375 17.125 C 44.242188 16.957031 44.105469 16.792969 43.960938 16.625 C 43.808594 16.46875 43.652344 16.3125 43.5 16.15625 C 43.347656 16.011719 43.183594 15.863281 43.011719 15.71875 C 42.765625 15.644531 42.519531 15.582031 42.273438 15.53125 C 42.019531 15.488281 41.761719 15.457031 41.507812 15.4375 C 41.25 15.417969 40.996094 15.417969 40.742188 15.4375 C 40.484375 15.449219 40.230469 15.472656 39.972656 15.515625 C 40.1875 15.859375 40.4375 16.171875 40.726562 16.453125 C 41.011719 16.746094 41.328125 16.996094 41.675781 17.203125 C 42.023438 17.421875 42.386719 17.59375 42.765625 17.71875 C 43.144531 17.84375 43.53125 17.925781 43.929688 17.96875 C 43.347656 18.59375 42.839844 19.5 41.921875 19.59375 C 39.222656 20 36.660156 18.75 33.992188 18.75 C 33.519531 18.78125 32.828125 18.796875 32.707031 19.375 C 32.707031 20.59375 33.058594 21.796875 33.011719 23.03125 C 32.921875 25.125 32.167969 27.140625 32.136719 29.25 C 32.199219 29.738281 32.273438 30.230469 32.351562 30.71875 C 32.433594 31.207031 32.53125 31.691406 32.644531 32.171875 C 32.757812 32.652344 32.890625 33.128906 33.042969 33.609375 C 33.1875 34.078125 33.34375 34.542969 33.519531 35 C 32.660156 34.875 31.800781 34.734375 30.957031 34.578125 C 30.789062 34.921875 30.652344 35.28125 30.527344 35.625 C 30.652344 35.824219 30.785156 36.011719 30.925781 36.1875 C 31.070312 36.375 31.21875 36.550781 31.371094 36.71875 C 31.535156 36.886719 31.699219 37.046875 31.863281 37.203125 C 32.035156 37.347656 32.214844 37.488281 32.398438 37.625 C 32.292969 37.84375 32.09375 38.265625 32 38.46875 L 31.066406 38.703125 C 30.851562 39.121094 30.632812 39.53125 30.40625 39.9375 C 30.109375 39.875 29.8125 39.828125 29.515625 39.796875 C 29.210938 39.765625 28.902344 39.753906 28.597656 39.765625 C 28.289062 39.765625 27.988281 39.792969 27.691406 39.84375 C 27.394531 39.894531 27.097656 39.964844 26.800781 40.046875 C 26.035156 39.734375 25.28125 39.417969 24.535156 39.09375 C 24.644531 38.792969 24.746094 38.480469 24.839844 38.15625 C 24.921875 37.84375 24.992188 37.527344 25.054688 37.203125 C 25.105469 36.871094 25.148438 36.542969 25.175781 36.21875 C 25.199219 35.886719 25.203125 35.558594 25.191406 35.234375 C 24.734375 33.59375 22.570312 33.59375 21.910156 32.09375 C 21.6875 31.738281 21.476562 31.375 21.28125 31 C 21.097656 30.613281 20.933594 30.21875 20.792969 29.8125 C 20.648438 29.417969 20.53125 29.011719 20.4375 28.59375 C 20.347656 28.175781 20.28125 27.753906 20.238281 27.328125 C 18.890625 26.609375 17.863281 25.296875 16.316406 25 C 16.238281 25.671875 16.175781 26.359375 16.054688 27.046875 C 15.953125 27.421875 15.828125 27.785156 15.6875 28.140625 C 15.53125 28.496094 15.363281 28.84375 15.179688 29.1875 C 14.996094 29.519531 14.792969 29.84375 14.566406 30.15625 C 14.339844 30.480469 14.101562 30.78125 13.847656 31.0625 C 13.90625 31.769531 13.972656 32.472656 14.046875 33.171875 C 14.617188 33.714844 15.179688 34.253906 15.730469 34.796875 C 15.546875 34.910156 15.363281 35.027344 15.179688 35.140625 C 14.984375 35.246094 14.792969 35.347656 14.597656 35.453125 C 14.402344 35.546875 14.203125 35.640625 14 35.734375 C 13.804688 35.828125 13.605469 35.917969 13.402344 36 C 13.175781 36.019531 12.945312 36.042969 12.710938 36.0625 C 12.488281 36.082031 12.257812 36.097656 12.019531 36.109375 C 11.785156 36.121094 11.554688 36.125 11.332031 36.125 C 11.097656 36.125 10.867188 36.125 10.640625 36.125 C 10.210938 35.699219 9.789062 35.269531 9.367188 34.84375 C 9.480469 34.5 9.566406 34.144531 9.628906 33.78125 C 9.691406 33.417969 9.730469 33.050781 9.753906 32.6875 C 9.761719 32.3125 9.753906 31.941406 9.722656 31.578125 C 9.691406 31.214844 9.632812 30.847656 9.550781 30.484375 C 9.828125 29.828125 10.089844 29.140625 10.335938 28.453125 C 9.9375 28.597656 9.53125 28.714844 9.125 28.796875 C 8.714844 28.878906 8.300781 28.9375 7.882812 28.96875 C 7.472656 29 7.058594 29 6.640625 28.96875 C 6.21875 28.9375 5.804688 28.878906 5.398438 28.796875 C 4.660156 28.515625 3.972656 28.125 3.34375 27.65625 C 2.714844 27.171875 2.160156 26.609375 1.6875 25.96875 C 1.210938 25.328125 0.828125 24.625 0.535156 23.890625 C 0.261719 23.140625 0.078125 22.359375 0 21.5625 C -0.03125 21.046875 0 20.53125 0.078125 20.03125 C 0.152344 19.515625 0.308594 19.015625 0.507812 18.546875 C 0.707031 18.078125 0.964844 17.625 1.257812 17.21875 C 1.5625 16.8125 1.917969 16.4375 2.316406 16.109375 C 2.203125 16.464844 2.109375 16.816406 2.039062 17.171875 C 1.976562 17.535156 1.925781 17.902344 1.886719 18.265625 C 1.855469 18.640625 1.84375 19.011719 1.855469 19.375 C 1.855469 19.738281 1.875 20.105469 1.917969 20.46875 C 2.007812 20.984375 2.175781 21.484375 2.40625 21.953125 C 2.652344 22.40625 2.960938 22.828125 3.328125 23.203125 C 3.695312 23.5625 4.109375 23.875 4.570312 24.109375 C 5.015625 24.34375 5.503906 24.515625 6.011719 24.59375 C 6.296875 24.582031 6.582031 24.558594 6.871094 24.515625 C 7.15625 24.464844 7.429688 24.394531 7.699219 24.3125 C 7.972656 24.21875 8.238281 24.105469 8.496094 23.96875 C 8.75 23.832031 8.996094 23.683594 9.230469 23.515625 C 9.117188 22.941406 9.046875 22.363281 9.015625 21.78125 C 8.984375 21.199219 8.996094 20.613281 9.046875 20.03125 C 9.097656 19.449219 9.191406 18.871094 9.324219 18.296875 C 9.445312 17.722656 9.613281 17.160156 9.828125 16.609375 C 10.136719 16.0625 10.503906 15.53125 10.917969 15.0625 C 11.332031 14.578125 11.792969 14.140625 12.296875 13.765625 C 12.804688 13.375 13.339844 13.0625 13.921875 12.78125 C 14.488281 12.515625 15.089844 12.3125 15.703125 12.171875 C 16.027344 12.046875 16.351562 11.894531 16.667969 11.71875 C 16.972656 11.542969 17.265625 11.34375 17.542969 11.125 C 17.816406 10.90625 18.078125 10.667969 18.324219 10.40625 C 18.570312 10.136719 18.792969 9.855469 18.996094 9.5625 C 19.183594 9.355469 19.375 9.152344 19.582031 8.953125 C 19.785156 8.765625 19.988281 8.578125 20.195312 8.390625 C 20.398438 8.203125 20.613281 8.019531 20.839844 7.84375 C 21.050781 7.667969 21.273438 7.5 21.496094 7.34375 C 21.128906 6.96875 20.761719 6.609375 20.378906 6.234375 C 20.683594 6.128906 20.972656 5.984375 21.238281 5.796875 C 21.503906 5.609375 21.738281 5.390625 21.941406 5.140625 C 22.15625 4.890625 22.332031 4.613281 22.464844 4.3125 C 22.597656 4.019531 22.683594 3.707031 22.722656 3.375 C 24.839844 2.875 26.910156 2.28125 28.996094 1.6875 C 29.167969 1.8125 29.347656 1.925781 29.53125 2.03125 C 29.714844 2.136719 29.90625 2.230469 30.097656 2.3125 C 30.292969 2.40625 30.492188 2.484375 30.699219 2.546875 C 30.902344 2.609375 31.105469 2.660156 31.3125 2.703125 C 31.832031 3.28125 32.125 4.640625 33.121094 4.25 Z M 26.925781 26.5625 C 26.988281 27.84375 26.847656 29.34375 28.03125 30.171875 C 28.03125 28.90625 27.953125 27.65625 27.859375 26.390625 Z M 26.925781 26.5625 "/>
</g>
</svg>
