<svg version="1.2" xmlns="http://www.w3.org/2000/svg" viewBox="0 0 227 256" width="227" height="256">
	<title>cplusplus-svg</title>
	<style>
		.s0 { fill: #00599c } 
		.s1 { fill: #004482 } 
		.s2 { fill: #659ad2 } 
		.s3 { fill: #ffffff } 
	</style>
	<path id="Layer" class="s0" d="m224.1 191.6c1.8-3 2.9-6.5 2.9-9.6v-108.4c0-3.2-1.1-6.6-2.9-9.7l-110.6 63.9z"/>
	<path id="Layer" class="s1" d="m123.3 253.2l93.9-54.2c2.7-1.6 5.1-4.3 6.9-7.4l-110.6-63.8-110.6 63.8c1.8 3.1 4.2 5.8 6.9 7.4l93.9 54.2c5.4 3.1 14.2 3.1 19.6 0z"/>
	<path id="Layer" class="s2" d="m224.1 63.9c-1.8-3.1-4.2-5.8-6.9-7.4l-93.9-54.2c-5.4-3.1-14.2-3.1-19.6 0l-93.9 54.2c-5.4 3.2-9.8 10.8-9.8 17.1v108.4c0 3.1 1.1 6.6 2.9 9.6l110.6-63.8z"/>
	<g id="Layer">
		<path id="Layer" class="s3" d="m113.5 203.4c-41.7 0-75.7-33.9-75.7-75.6 0-41.8 34-75.7 75.7-75.7 26.9 0 52 14.5 65.5 37.8l-32.7 18.9c-6.8-11.6-19.3-18.9-32.8-18.9-20.9 0-37.8 17-37.8 37.9 0 20.8 16.9 37.8 37.8 37.8 13.5 0 26-7.3 32.8-18.9l32.7 18.9c-13.5 23.4-38.6 37.8-65.5 37.8z"/>
	</g>
	<g id="Layer">
		<path id="Layer" class="s3" d="m189.2 123.6h-8.4v-8.5h-8.4v8.5h-8.5v8.4h8.5v8.4h8.4v-8.4h8.4z"/>
	</g>
	<g id="Layer">
		<path id="Layer" class="s3" d="m220.7 123.6h-8.4v-8.5h-8.4v8.5h-8.4v8.4h8.4v8.4h8.4v-8.4h8.4z"/>
	</g>
</svg>