<svg version="1.2" xmlns="http://www.w3.org/2000/svg" viewBox="0 0 228 256" width="228" height="256">
	<title>csharp-svg</title>
	<style>
		.s0 { fill: #a179dc } 
		.s1 { fill: #280068 } 
		.s2 { fill: #390091 } 
		.s3 { fill: #ffffff } 
	</style>
	<g id="Layer">
		<path id="Layer" class="s0" d="m227.6 75.1q0-6.5-2.8-11.4-2.7-4.8-8.2-8c-30.3-17.4-60.6-34.8-90.9-52.3-8.2-4.7-16.1-4.5-24.2 0.3-12.1 7.1-72.5 41.6-90.5 52-7.4 4.3-11 10.8-11 19.4q0 52.6 0 105.2 0 6.3 2.7 11.1 2.7 5 8.3 8.2c18 10.4 78.4 45 90.5 52.1 8.1 4.7 16 4.9 24.2 0.2 30.3-17.5 60.6-34.8 90.9-52.3q5.6-3.3 8.4-8.2 2.6-4.8 2.6-11.1c0 0 0-70.2 0-105.2z"/>
		<path id="Layer" class="s1" d="m114.2 127.3l-111.5 64.1q2.7 5 8.3 8.2c18 10.4 78.4 45 90.5 52.1 8.1 4.7 16 4.9 24.2 0.2 30.3-17.5 60.6-34.8 90.9-52.3q5.6-3.3 8.4-8.2z"/>
		<path id="Layer" class="s2" d="m227.6 75.1q0-6.5-2.8-11.4l-110.6 63.6 110.8 64.1q2.6-4.8 2.6-11.1c0 0 0-70.2 0-105.2z"/>
		<path id="Layer" fill-rule="evenodd" class="s3" d="m179.8 103.4v11.9h12v-11.9h6v11.9h12v6h-12v12h12v6h-12v12h-6v-12h-12v12h-6v-12h-12v-6h12v-12h-12v-6h12v-11.9zm0 29.9h12v-12h-12z"/>
		<path id="Layer" class="s3" d="m114.4 43.2c31.3 0 58.6 17 73.3 42.2l-0.2-0.2-36.8 21.1c-7.3-12.2-20.6-20.5-35.8-20.7h-0.5c-23.3 0-42.1 18.8-42.1 42.1 0 7.6 2 14.7 5.5 20.8 7.3 12.7 20.9 21.2 36.6 21.2 15.8 0 29.5-8.6 36.7-21.4l-0.2 0.3 36.8 21.3c-14.5 25-41.4 41.9-72.4 42.2h-0.9c-31.4 0-58.8-17.1-73.4-42.4-7.1-12.4-11.2-26.7-11.2-42 0-46.7 37.9-84.5 84.6-84.5z"/>
	</g>
</svg>