<svg version="1.2" xmlns="http://www.w3.org/2000/svg" viewBox="0 0 226 256" width="226" height="256">
	<title>css3-svg</title>
	<style>
		.s0 { fill: #1572b6 } 
		.s1 { fill: #33a9dc } 
		.s2 { fill: #ffffff } 
		.s3 { fill: #ebebeb } 
	</style>
	<path id="Layer" class="s0" d="m21 229.8l-20.5-229.1h225l-20.5 229.1-92.1 25.5z"/>
	<path id="Layer" class="s1" d="m113 235.8l74.4-20.6 17.5-195.8h-91.9z"/>
	<path id="Layer" class="s2" d="m113 102.5h37.3l2.5-28.8h-39.8v-28.1h70.6l-0.7 7.5-6.9 77.5h-63z"/>
	<path id="Layer" class="s3" d="m113.2 175.4l-0.2 0.1-31.3-8.5-2-22.4h-28.3l4 44.1 57.6 16h0.2z"/>
	<path id="Layer" class="s2" d="m147.9 129.4l-3.4 37.6-31.4 8.5v29.2l57.7-16 0.4-4.7 4.9-54.6z"/>
	<path id="Layer" class="s3" d="m113.1 45.6v28.1h-68l-0.6-6.3-1.3-14.3-0.6-7.5zm-0.1 56.9v28.1h-31l-0.6-6.4-1.3-14.2-0.6-7.5z"/>
</svg>