<svg version="1.2" xmlns="http://www.w3.org/2000/svg" viewBox="0 0 225 256" width="225" height="256">
	<title>css3-svg</title>
	<style>
		.s0 { fill: #1572b6 } 
		.s1 { fill: #33a9dc } 
		.s2 { fill: #ffffff } 
		.s3 { fill: #ebebeb } 
	</style>
	<path id="Layer" class="s0" d="m20.5 230.2l-20.5-230h225l-20.5 230-92.1 25.6z"/>
	<path id="Layer" class="s1" d="m112.5 236.2l74.4-20.6 17.6-196.6h-92z"/>
	<path id="Layer" class="s2" d="m112.5 102.4h37.3l2.5-28.9h-39.8v-28.2h70.6l-0.7 7.5-6.9 77.8h-63z"/>
	<path id="Layer" class="s3" d="m112.7 175.6l-0.2 0.1-31.3-8.5-2-22.5h-28.3l4 44.3 57.6 16h0.2z"/>
	<path id="Layer" class="s2" d="m147.4 129.4l-3.4 37.8-31.4 8.5v29.3l57.7-16 0.4-4.8 4.9-54.8z"/>
	<path id="Layer" class="s3" d="m112.6 45.3v28.2h-68l-0.6-6.4-1.3-14.3-0.6-7.5zm-0.1 57.1v28.2h-31l-0.6-6.4-1.3-14.3-0.6-7.5z"/>
</svg>