<svg version="1.2" xmlns="http://www.w3.org/2000/svg" viewBox="0 0 256 256" width="256" height="256">
	<title>dbeaver-svg</title>
	<style>
		.s0 { fill: #fefefe } 
		.s1 { fill: #fcfbfb } 
		.s2 { fill: #fbfbfb } 
		.s3 { fill: #a08470 } 
		.s4 { fill: #45352f } 
	</style>
	<g id="Layer">
		<path id="Layer" class="s0" d="m106.3 255.1c-50-9.1-90.1-47.7-101.2-97.3-3.1-14.1-3.4-42.7-0.4-56.1 5.3-24.4 16.5-45.4 33.3-62.5 17.7-18.2 37-29.1 63-35.8 7.2-1.9 11.2-2.2 28.2-2.2 17.1 0 21.1 0.3 28.3 2.2 50.1 12.8 85.6 49.1 96.4 98.3 2 8.8 2.3 13.3 2.3 27.5-0.1 14.7-0.4 18.5-2.6 28.1-8.8 37.6-33.3 69.1-67.1 86.3-8.7 4.4-24.8 9.7-35.2 11.5-11 1.9-33.9 1.9-44.8-0.1z"/>
		<path id="Layer" fill-rule="evenodd" class="s1" d="m120.5 234.9c-24.3-6.1-46-28.7-67.1-69.8-30.1-58.8-33.9-112.4-9.3-128.6 8.5-5.2 20.8-5 31.7 0.5 6.1 3.1 7.8 5 11.3 12.6 4.2 9.4 5.9 20.1 6.6 42.8l0.7 20.9 3.4-7.9c1.9-4.3 5.6-11.8 8.4-16.6 2.8-4.9 5-10.1 5-11.7 0-1.6-1.2-5.8-2.7-9.3-2.7-6.6-3.1-10.2-2-16.1 0.7-3.4 0.7-3.4 7.8-3.4h7.1l4.4-5.8c5-6.5 14.7-14.4 23-18.8 4.9-2.5 7-2.9 14.8-2.9 8.1 0 9.8 0.3 14.4 3.1 2.8 1.7 4.9 3.3 4.7 3.5-0.3 0.3-3.3-0.3-6.8-1.3-8.5-2.5-17-1.6-25.7 2.7-20.5 10.2-41.4 48.6-33.3 61.2 1.1 1.7 3.8 3.2 7.7 4.3 6.3 1.9 9.3 1.4 4.1-0.6-11.1-4.2-8.8-14.3 7.4-32.5l9.2-10.4-0.6-6c-0.6-5.4-0.4-6.1 1.8-7.2 3-1.7 7.8-0.7 11.4 2.1 3.4 2.7 13.9 2.9 22.8 0.6 3.3-0.9 8.9-1.6 12.6-1.7 6.2 0 6.7 0.2 7.3 2.7 0.4 1.5 0.4 3.4 0.1 4.3-0.3 0.9 0.4 3.9 1.6 6.7 2.8 6.4 3.8 21.3 2.1 29.5-0.7 3.2-3.2 9.8-5.5 14.7-5.9 12.1-6.1 13.9-2.7 21.9 5.7 13.7 9.9 40 8.8 55.2-0.3 4.5-1.8 14.5-3.4 22.2-3 14.8-2.8 19.9 1.1 23.2 0.9 0.7 1.6 2.9 1.6 4.8 0 4-3 7.2-8.5 9.1-5.1 1.7-16.2 1.5-21.5-0.4-6.4-2.3-11.7-2.1-16.1 0.7-3.3 2.1-5.4 2.5-17.7 2.7-9.4 0.2-15.9-0.2-20.2-1.3zm-16.3-38c-9.5-28.2-6.6-59.9 8.7-92.8l4.6-9.9-4.9-4.3-4.3 9.4c-17.5 38-20.2 71.5-7.7 96.4 3.3 6.6 6.3 11.8 6.9 11.8 0.1 0-1.3-4.8-3.3-10.6zm82-94.5l2.2-5.6-0.5 4.7c-0.2 2.7 0 4.3 0.5 3.8 0.9-0.9 6.4-14.8 6.4-16.2 0-0.4-1.5 0.6-3.3 2.1-3.3 2.8-9.2 5-13.7 5-2.2 0-2.4 0.4-1.8 4.1 1.3 7.3 1.6 7.8 4.8 7.8 2.7 0 3.4-0.7 5.3-5.7z"/>
		<path id="Layer" fill-rule="evenodd" class="s2" d="m120.5 234.9c-24.3-6.1-46-28.7-67.1-69.8-23-45.1-30.9-86.8-21.4-112.4 6.8-18.4 25.2-24.8 43.9-15.3 6.1 3.1 7.8 5 11.3 12.6 4.2 9.4 5.9 20.1 6.6 42.8l0.7 20.8 3.4-7.8c1.8-4.4 5.6-11.8 8.4-16.7 2.7-4.8 5-10 5-11.6 0-1.6-1.2-5.8-2.7-9.3-2.7-6.6-3.2-10.2-2-16.1 0.7-3.4 0.7-3.4 7.8-3.4h7.1l4.4-5.8c5-6.5 14.7-14.5 23-18.8 4.9-2.5 6.9-2.9 14.8-2.9 8.1 0 9.7 0.3 14.4 3.1 2.8 1.6 4.9 3.3 4.6 3.5-0.3 0.3-3.3-0.3-6.7-1.3-8.5-2.5-17-1.6-25.7 2.7-20.6 10.2-41.5 48.6-33.3 61.2 1.1 1.7 3.8 3.2 7.7 4.3 6.3 1.9 9.3 1.4 4-0.6-11-4.3-8.7-14.3 7.4-32.5l9.2-10.4-0.6-6c-0.5-5.4-0.4-6.1 1.8-7.3 3-1.6 7.9-0.7 11.5 2.2 3.4 2.7 13.9 2.9 22.8 0.5 3.2-0.8 8.9-1.6 12.5-1.6 6.3 0 6.8 0.2 7.4 2.7 0.4 1.5 0.4 3.4 0.1 4.3-0.4 0.9 0.4 3.9 1.6 6.7 2.8 6.3 3.8 21.3 2 29.5-0.6 3.2-3.1 9.8-5.4 14.7-5.9 12.1-6.1 13.9-2.7 21.9 5.7 13.7 9.9 40 8.8 55.2-0.3 4.5-1.8 14.5-3.4 22.1-3 14.8-2.8 20 1.1 23.3 0.8 0.7 1.6 2.9 1.6 4.8 0 4-3 7.2-8.5 9-5.1 1.8-16.2 1.6-21.5-0.4-6.4-2.2-11.7-2-16.1 0.8-3.3 2.1-5.4 2.4-17.7 2.7-9.4 0.2-15.9-0.3-20.2-1.3zm-16.3-38c-9.5-28.2-6.6-59.9 8.6-92.8l4.6-9.9-4.9-4.3-4.3 9.3c-17.4 38.1-20.1 71.5-7.6 96.5 3.3 6.6 6.3 11.8 6.9 11.8 0.1 0-1.4-4.8-3.3-10.6zm82-94.5l2.2-5.6-0.5 4.7c-0.3 2.7-0.1 4.3 0.5 3.8 0.8-0.9 6.4-14.8 6.4-16.2 0-0.4-1.5 0.6-3.3 2.1-3.3 2.8-9.2 5-13.7 5-2.3 0-2.4 0.3-1.8 4 1.2 7.4 1.6 7.9 4.8 7.9 2.7 0 3.3-0.7 5.3-5.7z"/>
		<path id="Layer" fill-rule="evenodd" class="s3" d="m120.5 234.9c-13.3-3.3-29-14.1-40.3-27.6-18.9-22.6-39-62.9-47.4-94.4-3-11.5-3.4-15.1-3.9-31-0.4-16.1-0.2-18.8 1.8-25.5 2.7-9 5.6-13.6 11.6-18.2 8.7-6.7 21.6-7.1 33.6-1 6 3.1 7.8 5.1 11.2 12.7 4.3 9.3 5.9 20 6.6 42.7l0.7 20.9 3.4-7.9c1.9-4.3 5.7-11.8 8.4-16.6 2.8-4.8 5-10.1 5-11.7 0-1.6-1.2-5.8-2.6-9.3-2.8-6.6-3.2-10.1-2.1-16.1 0.7-3.4 0.7-3.4 7.8-3.4h7.1l4.4-5.8c5-6.5 14.7-14.4 23.1-18.7 4.8-2.6 6.9-3 14.7-3 8.2 0 9.8 0.4 14.4 3.1 2.9 1.7 5 3.3 4.7 3.6-0.3 0.2-3.3-0.3-6.7-1.3-8.5-2.5-17.1-1.6-25.7 2.7-20.6 10.1-41.5 48.6-33.4 61.1 1.1 1.7 3.8 3.2 7.7 4.3 6.3 1.9 9.3 1.4 4.1-0.6-11-4.2-8.8-14.3 7.4-32.5l9.2-10.4-0.6-6c-0.6-5.4-0.4-6.1 1.8-7.2 3-1.6 7.9-0.7 11.4 2.1 3.4 2.7 14 3 22.9 0.6 3.2-0.9 8.9-1.6 12.5-1.6 6.2-0.1 6.7 0.1 7.3 2.7 0.4 1.4 0.4 3.4 0.1 4.2-0.3 0.9 0.4 3.9 1.6 6.7 2.8 6.4 3.9 21.3 2.1 29.5-0.7 3.2-3.2 9.8-5.5 14.7-5.8 12.1-6.1 13.9-2.7 21.9 5.8 13.8 10 40 8.9 55.2-0.4 4.5-1.9 14.5-3.5 22.2-3 14.8-2.7 19.9 1.1 23.2 0.9 0.7 1.6 2.9 1.6 4.8 0 4-3 7.2-8.5 9.1-5.1 1.7-16.1 1.5-21.5-0.4-6.4-2.3-11.7-2-16.1 0.8-3.3 2.1-5.4 2.4-17.6 2.6-9.5 0.2-16-0.2-20.3-1.3zm-16.3-38c-9.5-28.2-6.5-59.9 8.7-92.8l4.6-9.9-4.9-4.3-4.3 9.4c-17.5 38-20.2 71.5-7.6 96.4 3.3 6.6 6.3 11.8 6.8 11.8 0.2 0-1.3-4.8-3.3-10.5zm82-94.5l2.2-5.7-0.4 4.7c-0.3 2.7-0.1 4.3 0.4 3.8 0.9-0.9 6.4-14.8 6.4-16.2 0-0.3-1.5 0.6-3.2 2.1-3.4 2.8-9.3 5-13.8 5-2.2 0-2.4 0.4-1.7 4.1 1.2 7.3 1.5 7.8 4.7 7.8 2.7 0 3.4-0.7 5.4-5.7z"/>
		<path id="Layer" fill-rule="evenodd" class="s4" d="m120.5 234.9c-24-6.6-46-30.3-66.7-71.8-17.4-35-24.8-62.8-23.6-88.4 0.9-21 6.8-32.6 19.1-38 7-3 16.9-2.6 25 1.1 9.5 4.1 12.9 8.9 16.8 23.6 1.9 6.9 2.3 12.6 2.8 33.7l0.5 25.4 1.9-5.4c2-5.9 9.5-21.4 13.4-27.5 3.6-5.7 3.9-11.4 0.9-17.9-1.6-3.4-2.5-7.4-2.5-11 0-8.7 0.3-9 8.4-9.1h7.1l4.1-5.4c4.9-6.5 14.2-14 22.7-18.3 5.4-2.8 7.5-3.2 14.4-3.2 6.7 0.1 9.1 0.6 13 2.8 2.7 1.5 3.9 2.4 2.7 2-15.2-4.8-28.6-1.2-41.6 11.2-16.1 15.4-27 41.5-21.6 51.8q3 6-1.4 1.1l-2.1-2.2-2.1 4.1c-4.7 9.3-12.1 29.7-14.9 41-2.6 10.3-2.9 14-2.9 27.5 0 14.1 0.3 16.5 2.8 24.3 3.5 10.4 12.2 25.2 16.4 27.8 0.6 0.3 0-3.8-1.5-9.3-3.1-11.7-3.8-31.9-1.3-39l1.4-4.1 3.3 5.8c5.7 9.9 22 24.6 29.5 26.5 5.6 1.4 5.5-5.9-0.4-21.8-5-13.7-6.1-18.9-6.1-31.8 0-12.9 1.6-18.7 8.8-32 5-9.1 5.4-13.1 2.2-23.2-1.2-3.8-2.1-7.5-2.2-8.3 0-0.7 2.6 0.6 5.7 2.9 7.9 6 18.3 11 24.2 11.7 4.3 0.5 5.5 0.2 8.4-2.3 3.6-3.1 7.8-12.7 7.8-17.9 0-1.8 0.4-3.2 1-3.2 1.4 0 2.5 6.5 2 11.7l-0.4 4.3 3-2.8c1.6-1.6 3.9-5.4 5.1-8.4l2.2-5.4-0.4 9.2c-0.3 8.3-0.8 10.2-5.3 20.1-3.1 6.6-5.1 12.3-5.1 14.7 0 2.1 1.5 7.5 3.2 11.9 7.6 19.1 9.6 48.3 4.9 70.4-3.6 16.6-3.6 22.1 0.1 26.5 2.4 2.8 2.7 3.9 1.9 6.2-1.5 4.2-5.7 6.8-13.6 8.1-6.4 1.1-7.9 1-14.5-1.1-9.3-3.1-11.4-3-17.5 0.3-4.7 2.5-6.1 2.7-19.3 2.6-8.4-0.1-16.4-0.7-19.5-1.6zm63.8-126.3c1-0.8 2.3-2.3 3-3.5 1.2-2.1 1.2-2.1 0.6 0.2-1 3.7 1.3 3 3.3-0.9 2.5-4.9 5.9-15.3 5.3-15.9-0.3-0.3-1.9 0.7-3.5 2.3-3.6 3.4-7.8 5.1-12.8 5.1h-3.8l0.5 5.3c0.8 7.8 3.6 10.5 7.5 7.4zm-1.8-48.7c-10.8-5.2-13.4-12.4-5.9-16 4.9-2.4 18-4.7 21.7-3.7 2.6 0.6 3 1.2 3 5 0 7.5-6.7 17.3-11.7 17.2-1 0-4.2-1.1-7.1-2.5zm-36.6-6.4c1.3-2 1.4-3.3 0.4-6.9-2.2-8.4 2.9-10.2 13.5-4.9l6 3.1-5.6 1.8c-3.2 1-7.7 3.5-10.1 5.6-5.1 4.3-6.3 4.8-4.1 1.3z"/>
	</g>
</svg>