<svg version="1.2" xmlns="http://www.w3.org/2000/svg" viewBox="0 0 207 256" width="207" height="256">
	<title>debian-svg</title>
	<style>
		.s0 { fill: #d70751 } 
	</style>
	<path id="Layer" class="s0" d="m183.5 110c0.3 6.6-1.8 10.2-3.6 16.2-6 1.8-4.8 8.4-5.4 10.2-3.6 1.8-21.1 20.4-15 10.2-6.1 4.2-4.9 6-14.5 9l-0.2-0.6c-23.5 10.9-56.6-10.8-56.6-40.8-0.2 1.8-0.6 1.2-1.2 1.8-0.6-33.7 38.5-52.9 61.4-32.5-15.1-17.4-46.9-18.6-57.8 2.4-6 3.6-7.2 15.7-9.6 17.5-3 52.8 45.1 87.1 90.3 46.8 4.8-3.6 9.6-9.6 11.4-10.2-1.8 3.4 0.4 1.2-1.2 4.2 3.6-6 0.6-18.6 7.2-9.7 0.5-11.4 13.2-34.9 6.6-13.8 1.8-7.2 0.6-21.7 3.6-8.4-1.8-7.3 1.8-12.7 3-16.9-3.6-9-10.8-25.8-2.4-13.8-17.4-36 0.6-21 7.3 3-0.6-6.5-3-12.7-4.9-18.6 1.2 0.6-2.4-13.2 1.9-3.6-5.5-19.9-22.9-37.3-39.2-46.9 10.9 10.8-31.3-9-41.5-12.6 7.2 4.2-36.7 4.2-12.3 0.5-8.4-0.6-19.3 2.4-9-3-6.5 0.3-15.1 3.6-12.7 0.6-12.6 6.6-51.1 32.4-40.3 18.6-13.8 12.6-22.3 21.6-29.5 38.5-47.5 66.7-1.2 167 74 195.3 6.6 2.4 17.5 2.4 26.5 2.4-10.2-3-12-1.2-22.3-4.8-7.2-3.1-9-7.3-14.4-12.1-0.4 4.8-14.4-0.3-9.6-6-3-0.2-8.5-5.4-10.3-8.4-5.4 1.2-10.2-8.4-10.2-12-0.6 1.8-22.3-19.8-9.6-13.8-3-3-7.2-3.6-3.6-7.2-3-8.5-10.9-12.1-1.8-9.1-13.3-9-21.1-23.4-15.1-24-3-3.6-3-6.6-2.4-11.4-10.2-22.2 0.6-49.9 8.4-68.5-12.6 1.2 22.9-30.1 32.5-30.1-1.2-4.8 6.7-10.8 16.3-13.8-0.6-0.6 33.7-15.6 19.2-4.8 40.4-13.2 84.9 21.6 87.3 57.7 2.4 0.6-0.3 27-0.6 28.8"/>
</svg>