<svg version="1.2" xmlns="http://www.w3.org/2000/svg" viewBox="0 0 207 256" width="207" height="256">
	<title>debian-svg</title>
	<style>
		.s0 { fill: #d70751 } 
	</style>
	<path id="Layer" class="s0" d="m183.3 109.4c0.2 6.6-1.8 10.2-3.6 16.3-6 1.8-4.8 8.4-5.4 10.2-3.6 1.8-21 20.4-15 10.2-6 4.2-4.8 6-14.5 9l-0.2-0.6c-23.4 10.8-56.5-10.8-56.5-40.9-0.2 1.8-0.6 1.2-1.2 1.8-0.6-33.6 38.5-52.9 61.3-32.4-15-17.4-46.9-18.7-57.7 2.4-6 3.6-7.2 15.6-9.6 17.4-3 52.9 45.1 87.2 90.1 46.9 4.8-3.6 9.7-9.6 11.5-10.2-1.8 3.4 0.3 1.2-1.2 4.2 3.6-6 0.6-18.7 7.2-9.8 0.5-11.4 13.2-34.8 6.6-13.8 1.8-7.2 0.6-21.6 3.6-8.4-1.8-7.2 1.8-12.6 3-16.8-3.6-9-10.8-25.9-2.4-13.8-17.4-36.1 0.6-21.1 7.2 3-0.6-6.5-2.9-12.8-4.8-18.7 1.2 0.6-2.4-13.2 1.8-3.6-5.4-19.8-22.8-37.2-39.1-46.9 10.8 10.9-31.2-9-41.4-12.6 7.2 4.2-36.7 4.2-12.4 0.5-8.4-0.6-19.2 2.4-9-3-6.5 0.4-15 3.6-12.6 0.6-12.6 6.6-51.1 32.5-40.3 18.6-13.8 12.7-22.2 21.7-29.4 38.5-47.5 66.7-1.2 167.1 73.9 195.3 6.6 2.4 17.4 2.4 26.5 2.4-10.3-3-12.1-1.2-22.3-4.8-7.2-3-9-7.2-14.4-12-0.4 4.8-14.4-0.3-9.6-6-3-0.3-8.4-5.4-10.2-8.4-5.4 1.2-10.3-8.4-10.3-12-0.6 1.8-22.2-19.9-9.6-13.9-3-3-7.2-3.6-3.6-7.2-3-8.4-10.8-12-1.8-9-13.2-9-21-23.4-15-24-3-3.6-3-6.6-2.4-11.5-10.2-22.2 0.6-49.8 8.4-68.5-12.6 1.2 22.8-30 32.5-30-1.2-4.8 6.6-10.8 16.2-13.8-0.6-0.6 33.6-15.7 19.2-4.9 40.3-13.2 84.8 21.7 87.2 57.7 2.4 0.6-0.3 27.1-0.6 28.9"/>
</svg>