<svg version="1.2" xmlns="http://www.w3.org/2000/svg" viewBox="0 0 256 256" width="256" height="256">
	<title>delphi-svg</title>
	<style>
		.s0 { fill: #f32735 } 
		.s1 { fill: #9e0f20 } 
		.s2 { fill: #ffffff } 
	</style>
	<path id="Layer" class="s0" d="m128 255.7c-70.6 0-127.7-57.1-127.7-127.7 0-70.6 57.1-127.7 127.7-127.7 70.6 0 127.7 57.1 127.7 127.7 0 70.6-57.1 127.7-127.7 127.7z"/>
	<path id="Layer" class="s1" d="m217.9 37.4l-179.8 181.2q0 0.1 0 0.1c50.1 49.6 130.9 49.3 180.6-0.8 49.6-50.1 49.3-130.9-0.8-180.5z"/>
	<g id="Layer">
		<path id="Layer" fill-rule="evenodd" class="s2" d="m108.6 151.1c0.9 3.7 1.6 7.4 2.4 11.1 0 0.1 0.1 0.3 0.2 0.5 2.2-0.4 4.3-0.9 6.6-1.3 4.4 9.2 8.8 18.4 13.2 27.8-1.5-0.2-3-0.5-4.4-0.6-3.1-0.4-6.1-0.7-9.2-1-2.6-0.2-5.3-0.4-8-0.3-4.9 0.1-9.7 0.4-14.3 2-2.6 0.9-4.9 2.2-6.7 4.6-1.1-1.1-2.3-2.2-3.4-3.3q-6.7-7.2-10.8-16.1c-2.4-5.3-4.1-10.9-5-16.7-0.7-4.5-0.9-9.1-0.5-13.6 0.9-11.4 4.6-21.8 11.2-31.1q8.6-12.2 21.7-19.2c6-3.2 12.3-5.3 18.9-6.4 4.4-0.8 8.8-1 13.3-0.7 8.6 0.5 16.6 3.1 24.2 7.2 4.9 2.6 9.4 5.7 13.6 9.3 0.7 0.6 1.4 1.2 2.1 1.9l-14.7 10.2q-19.9 13.5-39.7 27.1c-3.3 2.2-6.6 4.5-9.9 6.7-0.7 0.5-1 1-0.8 1.9zm6.6-56.1q-0.4 0.2-0.8 0.4c-5.9 2.7-11.3 6.1-16.3 10.1-5.9 4.7-11 10.2-14.9 16.6-4.6 7.4-7 15.4-7.4 24-0.2 5.2 0.6 10.3 1.8 15.3 1.9 7.2 4.9 13.9 8.6 20.3 0.3 0.6 0.8 0.6 1.2 0.4 1.3-0.6 2.5-1.3 3.8-2-0.2-0.3-0.3-0.5-0.4-0.7-1.8-3.1-3.7-6-5.2-9.2-4.2-8.6-6.4-17.6-5.6-27.3 0.3-3.5 1-6.9 2.1-10.3 3.9-12 11.6-21.3 21.2-29.3q5.6-4.6 11.9-8.3z"/>
		<path id="Layer" class="s2" d="m121.9 164.1c2.3-0.5 4.5-0.9 6.8-1.3 0.2-0.1 0.5 0.2 0.7 0.4 3.3 3.2 6.4 6.5 9.8 9.6 2.8 2.6 5.8 4.9 8.8 7.4q6.3 5.2 11.1 11.8c5.5 7.8 9.6 16.3 11.8 25.6 0.2 0.8-0.1 1.8-0.4 2.6-0.9 2.9-3 4.9-5.2 6.7-3.2 2.6-6.7 4.5-10.5 6.1-0.8 0.3-1.1 0.1-1.4-0.6-3.9-8.5-7.8-17-11.7-25.4q-7.9-17.2-15.9-34.4-1.8-4-3.7-8-0.1-0.2-0.2-0.5z"/>
		<path id="Layer" fill-rule="evenodd" class="s2" d="m137.5 208.3c0.1 0.2 0.1 0.5 0 0.7-2.1 3.9-4.3 7.8-6.4 11.5-4.4-0.7-8.8-1.6-13.1-2.2q-5.1-0.7-10.1-1.1c-3.5-0.3-7-0.6-10.4-0.6-5.8 0-11.6 0.6-17.1 2.4-0.1 0.1-0.2 0.1-0.5 0.2 1.1-2.7 2.2-5.1 3.3-7.6 2-4.8 4.1-9.5 6-14.3 0.7-1.6 1.8-2.7 3.3-3.5 2.5-1.4 5.3-2.1 8.1-2.5 4-0.6 8-0.8 12.1-0.5 5.7 0.5 11.4 1.2 17.1 1.9 0.3 0 0.7 0.3 0.8 0.5q3.5 7.5 6.9 15.1zm-22-14q-0.5-0.1-0.9-0.2c-2.8-0.6-5.6-0.7-8.4-0.4-3.8 0.3-7.6 1-11.2 2.1-0.4 0.1-0.7 0.5-0.9 0.8q-2.7 5.5-5.3 11.1-0.8 1.7-1.6 3.3 0.1 0.1 0.2 0.2c0.1-0.1 0.1-0.2 0.2-0.4q4.5-6.4 9.1-12.7c0.3-0.4 0.8-0.8 1.2-0.9 5.7-1.8 11.5-3.3 17.6-2.9z"/>
		<path id="Layer" class="s2" d="m186.5 136.1q-1.1-6.4-2.1-12.7-0.9-5.7-1.8-11.4c-0.5-2.8-0.9-5.7-1.4-8.7l-69.5 47.7c-0.2 0.2-0.4 0.6-0.4 0.8 0.6 2.3 1.2 4.5 1.9 6.7 0.1 0 0.2 0 0.3 0q8.2-1.6 16.5-3.3 15.8-3 31.6-6.1c8.4-1.7 16.9-3.4 25.3-5 0.7-0.1 0.8-0.5 0.7-1.1q-0.6-3.4-1.1-6.9z"/>
		<path id="Layer" class="s2" d="m146.6 78q-2.5 3.6-4.9 7.2c9.1 1.5 16.3 5.3 20.2 7.5 0.6 0.3 0.9 0.2 1.4-0.2q4.6-3.9 9.2-7.8 9.1-7.6 18.3-15.3 9.6-8 19.1-16.1c-10.4-7.4-22.2-13.1-34.9-16.4q-4.4 6.4-8.9 12.8-9.7 14.2-19.5 28.3z"/>
		<path id="Layer" class="s2" d="m112.8 79c-0.7 2.5-1.5 5.3-2.2 8 1.5-0.4 10.4-3.7 23-2.9 0.6 0.1 1-0.2 1.2-0.7 2.8-5.1 5.4-10 8.1-15.1q6-11 11.9-22.1c2.2-3.9 4.3-7.9 6.5-11.9q-6.6-0.9-13.4-0.9c-8.1 0-16 0.9-23.6 2.6q-0.3 1.4-0.7 2.8-5.4 20.1-10.8 40.2z"/>
		<path id="Layer" class="s2" d="m81.5 58.8q0.3 3.7 0.6 7.5 0.3 3.6 0.6 7.2 0.3 3.7 0.7 7.3 0.3 3.8 0.6 7.5 0.2 3.6 0.5 7.3c0.2 2.1 0.4 4.4 0.6 6.7 2.5-2.4 10.2-9.2 19.6-13.2 0.4-0.1 0.9-0.2 1-0.9 0.6-3.8 1.2-6.9 1.8-10.7q1.4-7.9 2.8-15.7 1.7-9.9 3.4-19.8c0.2-1 0.3-2 0.5-3.2-12 4-23.1 10.1-32.9 17.8q0 0 0 0.1c0 0.7 0.1 1.4 0.2 2.1z"/>
		<path id="Layer" class="s2" d="m68.9 115.3c0.9 1.8 2 4 2.9 5.9 2-4.4 6.2-11.1 10.2-15.6 0.2-0.2 0.3-0.7 0.3-1-0.7-3.1-1.4-6.1-2.1-9.2q-2.8-12.4-5.6-24.8c-0.5-2.1-1-4.3-1.5-6.7-0.7 0.8-1.3 1.4-1.9 2-2.3 2.5-4.8 4.9-6.9 7.6-2.8 3.6-5.4 7.5-8.1 11.2q-0.6 1.1-1.3 2.2 0 0.3 0.2 0.7 6.9 13.8 13.8 27.7z"/>
		<path id="Layer" class="s2" d="m46.8 120.7q8 7.1 16 14.2c1.3 1 2.6 2.2 3.9 3.4 0.5-4 1.9-9 3.4-12.9 0.3-0.8 0-1.2-0.4-1.7-5.4-7.3-10.9-14.5-16.3-21.8-1.2-1.6-2.4-3.2-3.7-4.9-0.1 0.3-0.2 0.4-0.3 0.6q-0.3 0.6-0.5 1.2c-2.6 5.8-4.6 11.8-6.1 18.1 0.1 0.2 0.2 0.4 0.3 0.5 1.2 1.2 2.5 2.2 3.7 3.3z"/>
		<path id="Layer" class="s2" d="m62 155.9c1.4 0.5 3 1.1 4.5 1.6-0.9-5.3-0.5-12.9-0.4-14.5 0-0.6-0.2-1-0.8-1.4-6-3.7-12.2-7.5-18.2-11.2-2-1.3-4-2.5-6.1-3.8q-1.1 7.7-1.1 15.7 0 3 0.1 6 0.2 0.1 0.3 0.1 10.9 3.8 21.7 7.5z"/>
		<path id="Layer" class="s2" d="m72.1 176.2c-0.4-0.6-0.7-0.7-1.4-0.5-6.1 1.4-12.4 2.9-18.5 4.4q-2.5 0.6-5.2 1.2 3 7.9 7.1 15.1 11.3-6 22.6-12.1c-2.9-4.5-3.2-5.6-4.6-8.1z"/>
		<path id="Layer" class="s2" d="m55.9 172c3.4-0.1 6.7-0.1 10.1-0.1h4.2c-0.1-0.3-2.1-6-2.7-9 0-0.3-0.5-0.7-0.8-0.8-7.5-1.5-14.8-3.1-22.2-4.6q-1.8-0.4-3.7-0.7 1 7.9 3.2 15.3 0 0 0 0 6-0.1 11.9-0.1z"/>
	</g>
</svg>