<svg version="1.2" xmlns="http://www.w3.org/2000/svg" viewBox="0 0 452 256" width="452" height="256">
	<title>docker-svg</title>
	<style>
		.s0 { fill: #364548 } 
		.s1 { fill: #22a0c8 } 
		.s2 { fill: #37b1d9 } 
		.s3 { fill: #1b81a5 } 
		.s4 { fill: #1d91b4 } 
		.s5 { fill: #23a3c2 } 
		.s6 { fill: #34bbde } 
		.s7 { fill: #d3ecec } 
		.s8 { fill: #bdd9d7 } 
	</style>
	<g id="Layer">
		<path id="Layer" fill-rule="evenodd" class="s0" d="m68.2 307.2v-29c0-3.7 2.4-6.8 6.3-6.8h1.1c3.9 0 6.3 3.1 6.3 6.8v61c0 14.8-7.4 26.6-20.1 34-6 3.6-12.5 5.3-19.4 5.3h-2.7c-14.8 0-26.6-7.4-34-20.1-3.6-5.8-5.3-12.4-5.3-19.2v-2.9c0-14.8 7.2-26.5 20.1-34 5.8-3.6 12.3-5.3 19.2-5.3h2.7c10 0 18.5 3.8 25.8 10.2zm-54.3 30.5c0 10.8 5.3 18.8 14.7 23.9 3.7 2.1 7.9 3.2 12.2 3.2 10.6 0 18.3-5 23.6-13.8 2.7-4.3 3.8-8.7 3.8-13.6 0-9.2-4.5-16.4-11.9-21.9q-6.9-4.8-15.2-4.8c-11.4 0-19.7 5.7-24.7 16.1-1.6 3.4-2.5 7.1-2.5 10.9zm115.3-40.7h2c15.9 0 27.9 7.7 35.7 21.5 3 5.5 4.5 11.5 4.5 17.8v2.9c0 14.8-7.2 26.6-20.1 34-5.8 3.6-12.3 5.3-19.2 5.3h-2.9c-14.8 0-26.4-7.4-34-20.1-3.6-5.8-5.3-12.4-5.3-19.2v-2.9c0-14.8 7.4-26.5 20.1-34 5.8-3.6 12.5-5.3 19.2-5.3zm-25.6 40.7c0 10.5 5.2 18.1 13.8 23.5 4.3 2.5 8.7 3.6 13.6 3.6 10.2 0 17.8-5.2 23.1-13.8 2.5-4.3 3.7-8.7 3.7-13.6 0-9.5-4.7-17-12.7-22.4q-6.5-4.3-14.4-4.3c-11.5 0-19.6 5.7-24.8 16.1-1.6 3.4-2.3 7.1-2.3 10.9zm124.7-25.9c-1.9-1.1-5.8-1.4-8.1-1.4-11.5-0.4-19.8 6-24.6 16-1.7 3.6-2.4 7.3-2.4 11 0 11.8 6.1 19.9 16.6 25.1 3.8 1.7 8.8 2.1 12.8 2.1 3.8 0 9.1-2.3 12.2-3.9l0.6-0.2h2.8c3.2 0.7 5.5 2.7 5.5 6v1.4c0 8.3-15.2 10.3-21.1 10.6-20.4 1.4-35.8-9.9-41.6-29.5-1.1-3.3-1.4-6.7-1.4-10.2v-2.6c0-14.9 7.2-26.7 19.9-34.3 6-3.5 12.6-5.3 19.4-5.3h2.7c7.4 0 14.1 2.1 20.1 6.2l0.5 0.3 0.2 0.6c0.7 1 1.3 2.4 1.3 3.7v1.2c0 3.5-2.7 5.5-5.9 6l-0.1 0.2h-0.9c-2 0-6.6-2.1-8.5-3zm44.5 9.2q7.9-8 15.9-15.9c1.6-1.4 7.2-7.6 9.5-7.6h2.7c3.1 0.7 5.4 2.6 5.4 6v1.4c0 2.3-2.6 4.9-4 6.5-3.2 3.4-6.6 6.6-9.7 9.7l-16.6 16.8q10.7 10.8 21.3 21.6 3 3 5.9 6c0.7 0.7 1.5 1.6 2.3 2.6 0.5 0.9 0.8 2 0.8 3v1.8c-0.8 3.2-2.8 5.6-6.1 5.6h-1.3c-2.1 0-4.7-2.6-6.3-4-3.2-3-6.2-6.2-9.4-9.2l-10.4-10.4v16.6c0 3.7-2.5 6.7-6.4 6.7h-1c-3.9 0-6.4-3-6.4-6.7v-92.9c0-3.9 2.5-6.9 6.4-6.9h1c3.9 0 6.4 3 6.4 6.9zm170.4-23.5h1.4c4 0 6.9 2.7 6.9 6.7 0 5.7-5.5 7.3-10.1 7.3-6.2 0-12 3.7-16.2 7.7-5.3 5.3-7.6 12-7.6 19.3v33.2c0 3.7-2.5 6.7-6.4 6.7h-1c-4.1 0-6.4-3-6.4-6.7v-35.2c0-13.4 6.5-24.3 17.5-32.1 6.5-4.6 13.9-6.9 21.9-6.9zm-97.1 65.5c4.9 1.8 10.6 1.6 15.7 0.7 2.6-1.2 9.3-4 11.6-3.7l0.6 0.2 0.3 0.2c1.4 0.7 2.8 1.7 3.7 3.1 1.8 3.8 0.9 7.3-2.6 9.2l-1.3 0.7c-12.9 7.6-26.6 6.6-39.7-0.5-6.2-3.3-10.8-8.3-14.3-14.3l-0.9-1.4c-8.3-14.5-7.2-29.7 2.3-43.3 3.2-4.7 7.4-8.4 12.4-11.3l1.9-1c12.2-7.1 25.3-6.7 37.8-0.6 6.7 3.4 12.2 8.3 16.1 14.9l0.5 1.2c2.8 4.8-0.7 8.8-4.4 11.7-4.2 3.3-8.5 7.2-12.5 10.7q-13.6 11.9-27.2 23.5zm-11.9-8.1q15.2-13.1 30.4-26.3c3.5-2.8 7.4-6 10.8-9.2-2.9-3.3-7.4-6-11.3-7.4-8-3-15.7-1.9-23 2.1-9.3 5.5-13.4 14.3-13 25.1 0.1 4.2 1.2 8.3 3.5 12q1.2 1.9 2.6 3.7z"/>
		<path id="Layer" fill-rule="evenodd" class="s0" d="m260.4 80.7h40.5v41.3h20.3c9.5 0 19-1.6 28-4.8 4.5-1.4 9.4-3.5 13.6-6-5.6-7.6-8.4-16.9-9.3-26.1-1.3-12.7 1.2-29 9.9-38.8l4.2-5 4.9 4.1c12.9 10.2 23.5 24.5 25.5 40.8 15.3-4.5 33.3-3.4 46.8 4.4l5.6 3.1-3 5.7c-11.5 22.2-35.3 29.3-58.6 28.1-35 87-111.1 128.1-203.4 128.1-47.7 0-91.5-17.8-116.4-60l-0.3-0.7-3.5-7.4c-8.5-18.5-11.3-39-9.4-59.3l0.5-6.2h34.5v-41.3h40.4v-40.3h80.7v-40.4h48.5z"/>
		<path id="Layer" fill-rule="evenodd" class="s1" d="m391.3 96c2.6-21-13.1-37.6-22.8-45.3-11.3 12.9-13.1 46.9 4.6 61.4-9.9 8.7-30.6 16.6-51.9 16.6h-258.7c-2.1 22.3 1.8 42.7 10.6 60.2l3 5.3q2.8 4.8 6.2 9.2 15.9 1 29.3 0.7c17.6-0.4 32.1-2.5 42.9-6.2 1.8-0.7 3.5 0.2 4.1 2 0.5 1.5-0.4 3.3-2 3.8q-2.1 0.7-4.6 1.5c-8.5 2.4-17.6 4-29.6 4.7 0.7 0-0.7 0.2-0.7 0.2-0.4 0-0.9 0-1.3 0.2-4.8 0.1-9.7 0.1-15 0.1-5.6 0-11.1 0-17.3-0.3l-0.2 0.2c21.6 24.2 55.3 38.6 97.5 38.6 89.5 0 165.3-39.5 198.8-128.5 23.8 2.3 46.8-3.7 57.2-24-16.6-9.5-38-6.5-50.1-0.4z"/>
		<path id="Layer" fill-rule="evenodd" class="s2" d="m391.3 96c2.6-21-13.1-37.6-22.8-45.3-11.3 12.9-13.1 46.9 4.6 61.4-9.9 8.7-30.6 16.6-51.9 16.6h-243.5c-1.1 34.1 11.6 59.9 33.9 75.4 17.6-0.4 32.1-2.5 42.9-6.2 1.8-0.7 3.5 0.2 4.1 2 0.5 1.5-0.4 3.3-2 3.8q-2.1 0.7-4.6 1.5c-8.5 2.4-18.5 4.2-30.3 5.1l-0.4-0.4c30.4 15.6 74.5 15.6 125.2-3.9 56.7-21.7 109.4-63.3 146.4-110.8q-0.9 0.5-1.6 0.8z"/>
		<path id="Layer" fill-rule="evenodd" class="s3" d="m62.9 155.7c1.7 11.8 5.1 23 10.2 33.2l3 5.3q2.8 4.8 6.2 9.2 15.9 1 29.3 0.7c17.6-0.4 32.1-2.5 42.9-6.2 1.8-0.7 3.5 0.2 4.1 2 0.5 1.5-0.4 3.3-2 3.8q-2.1 0.7-4.6 1.5c-8.5 2.4-18.5 4.2-30.3 4.9-0.4 0-1.1 0-1.6 0q-6.9 0.5-14.9 0.5c-5.6 0-11.3-0.2-17.4-0.5 21.5 24.2 55.4 38.8 97.6 38.8 76.6 0 143.2-28.9 181.8-93.2z"/>
		<path id="Layer" fill-rule="evenodd" class="s4" d="m80.2 155.7c4.5 20.9 15.5 37.3 31.4 48.4 17.6-0.4 32.1-2.5 42.9-6.2 1.8-0.7 3.5 0.2 4.1 2 0.5 1.5-0.4 3.3-2 3.8q-2.1 0.7-4.6 1.5c-8.5 2.4-18.7 4.2-30.5 4.9 30.3 15.5 74.3 15.4 125-4.1 30.5-11.8 60-29.3 86.5-50.3z"/>
		<path id="Layer" fill-rule="evenodd" class="s5" d="m97.6 87.4h35v35.1h-35zm2.9 32h2.8v-29.1h-2.8zm5.3 0h2.8v-29.2h-2.8zm5.3 0h2.8v-29.1h-2.8zm5.3 0h2.8v-29.1h-2.8zm5.3 0h2.8v-29.3h-2.8zm5.2 0h2.7v-29.2h-2.7z"/>
		<path id="Layer" fill-rule="evenodd" class="s5" d="m137.9 47.1h35v35h-35zm3 32.1h2.6v-29.3h-2.6zm5.1 0h2.8v-29.1h-2.8zm5.3 0h2.8v-29.1h-2.8zm5.3 0h2.8v-29.2h-2.8zm5.3 0h3v-29.1h-3zm5.3 0h2.8v-29.1h-2.8z"/>
		<path id="Layer" fill-rule="evenodd" class="s6" d="m137.9 87.4h35v35.1h-35zm3 32h2.6v-29.1h-2.6zm5.1 0h2.8v-29.2h-2.8zm5.3 0h2.8v-29.1h-2.8zm5.3 0h2.8v-29.1h-2.8zm5.3 0h3v-29.3h-3zm5.3 0h2.8v-29.2h-2.8z"/>
		<path id="Layer" fill-rule="evenodd" class="s5" d="m178.3 87.4h35v35.1h-35zm2.9 32h2.8v-29.1h-2.8zm5.2 0h2.9v-29.2h-2.9zm5.3 0h2.9v-29.1h-2.9zm5.3 0h2.9v-29.1h-2.9zm5.3 0h2.9v-29.3h-2.9zm5.3 0h2.9v-29.2h-2.9z"/>
		<path id="Layer" fill-rule="evenodd" class="s6" d="m178.3 47.1h35v35h-35zm2.9 32.1h2.8v-29.3h-2.8zm5.2 0h2.9v-29.1h-2.9zm5.3 0h2.9v-29.1h-2.9zm5.3 0h2.9v-29.2h-2.9zm5.3 0h2.9v-29.1h-2.9zm5.3 0h2.9v-29.1h-2.9z"/>
		<path id="Layer" fill-rule="evenodd" class="s6" d="m218.8 87.4h34.9v35.1h-34.9zm2.8 32h2.8v-29.1h-2.8zm5.3 0h2.8v-29.2h-2.8zm5.3 0h2.8v-29.1h-2.8zm5.3 0h2.8v-29.1h-2.8zm5.3 0h2.8v-29.3h-2.8zm5.3 0h2.6v-29.2h-2.6z"/>
		<path id="Layer" fill-rule="evenodd" class="s5" d="m218.8 47.1h34.9v35h-34.9zm2.8 32.1h2.8v-29.3h-2.8zm5.3 0h2.8v-29.1h-2.8zm5.3 0h2.8v-29.1h-2.8zm5.3 0h2.8v-29.2h-2.8zm5.3 0h2.8v-29.1h-2.8zm5.3 0h2.6v-29.1h-2.6z"/>
		<path id="Layer" fill-rule="evenodd" class="s6" d="m218.8 6.7h34.9v35h-34.9zm2.8 32.1h2.8v-29.1h-2.8zm5.3 0h2.8v-29.2h-2.8zm5.3 0h2.8v-29.3h-2.8zm5.3 0h2.8v-29.1h-2.8zm5.3 0h2.8v-29.1h-2.8zm5.3 0h2.6v-29.2h-2.6z"/>
		<path id="Layer" fill-rule="evenodd" class="s5" d="m259 87.4h35v35.1h-35zm3 32h2.7v-29.1h-2.7zm5.1 0h2.9v-29.2h-2.9zm5.3 0h2.9v-29.1h-2.9zm5.3 0h2.9v-29.1h-2.9zm5.3 0h3v-29.3h-3zm5.3 0h2.9v-29.2h-2.9z"/>
		<path id="Layer" fill-rule="evenodd" class="s7" d="m170.7 198.4c-5.3 0-9.7-4.3-9.7-9.6 0-5.3 4.4-9.6 9.7-9.6 5.4 0 9.7 4.3 9.7 9.6 0 5.3-4.3 9.6-9.7 9.6z"/>
		<path id="Layer" fill-rule="evenodd" class="s0" d="m170.7 181.8q1.4 0 2.5 0.6c-0.9 0.5-1.4 1.4-1.4 2.4 0 1.6 1.2 2.9 2.8 2.9 1.1 0 2-0.6 2.5-1.4q0.5 1.2 0.5 2.6c0 3.7-3 6.9-6.9 6.9-3.8 0-6.8-3.2-6.8-6.9 0-3.9 3-7.1 6.8-7.1z"/>
		<path id="Layer" fill-rule="evenodd" class="s0" d="m0 159.2h449c-9.7-2.4-30.9-5.8-27.4-18.7-17.8 20.7-60.7 14.5-71.5 4.3-12 17.5-82.3 10.9-87-2.7-15.2 17.7-62 17.7-77 0-4.9 13.6-75 20.2-87.2 2.7-10.8 10.2-53.7 16.4-71.5-4.3 3.5 12.9-17.7 16.3-27.4 18.7z"/>
		<path id="Layer" fill-rule="evenodd" class="s8" d="m196.3 248.8c-23.8-11.3-36.9-26.9-44.3-43.6q-13.2 3.8-31.9 4.7-6.9 0.5-14.7 0.5-9 0-18.9-0.5c22.1 21.9 48.9 38.7 98.9 39q5.5 0 10.9-0.1z"/>
		<path id="Layer" fill-rule="evenodd" class="s7" d="m161 220.7c-3.3-4.4-6.5-10.1-9-15.5q-13.2 3.8-31.9 4.7c8.6 4.8 20.8 9 40.9 10.8z"/>
	</g>
</svg>