<svg version="1.2" xmlns="http://www.w3.org/2000/svg" viewBox="0 0 256 150" width="256" height="150">
	<title>docker-svg</title>
	<style>
		.s0 { fill: #364548 } 
		.s1 { fill: #22a0c8 } 
		.s2 { fill: #37b1d9 } 
		.s3 { fill: #1b81a5 } 
		.s4 { fill: #1d91b4 } 
		.s5 { fill: #23a3c2 } 
		.s6 { fill: #34bbde } 
		.s7 { fill: #d3ecec } 
		.s8 { fill: #bdd9d7 } 
	</style>
	<g id="Layer">
		<path id="Layer" fill-rule="evenodd" class="s0" d="m38.6 174v-16.4c0-2.1 1.4-3.9 3.6-3.9h0.6c2.2 0 3.6 1.8 3.6 3.9v34.5c0 8.4-4.2 15.1-11.4 19.3-3.4 2-7.1 3-11 3h-1.5c-8.4 0-15.1-4.2-19.3-11.4-2-3.3-3-7-3-10.9v-1.6c0-8.4 4.1-15 11.4-19.3 3.3-2 7-3 10.9-3h1.5c5.7 0 10.5 2.2 14.6 5.8zm-30.7 17.3c0 6.1 3 10.6 8.3 13.5 2.1 1.2 4.5 1.8 6.9 1.8 6 0 10.4-2.8 13.4-7.8 1.5-2.4 2.1-4.9 2.1-7.7 0-5.2-2.5-9.3-6.7-12.4q-3.9-2.7-8.6-2.7c-6.5 0-11.2 3.2-14 9.1-0.9 1.9-1.4 4-1.4 6.2zm65.3-23.1h1.1c9 0 15.8 4.4 20.2 12.2 1.7 3.1 2.6 6.5 2.6 10.1v1.6c0 8.4-4.1 15.1-11.4 19.3-3.3 2-7 3-10.9 3h-1.6c-8.4 0-15-4.2-19.3-11.4-2-3.3-3-7-3-10.9v-1.6c0-8.4 4.2-15 11.4-19.3 3.3-2 7.1-3 10.9-3zm-14.5 23.1c0 5.9 2.9 10.2 7.8 13.3 2.4 1.4 4.9 2 7.7 2 5.8 0 10.1-2.9 13.1-7.8 1.4-2.4 2.1-4.9 2.1-7.7 0-5.4-2.7-9.6-7.2-12.7q-3.7-2.4-8.2-2.4c-6.5 0-11.1 3.2-14 9.1-0.9 1.9-1.3 4-1.3 6.2zm70.6-14.7c-1.1-0.6-3.3-0.8-4.6-0.8-6.5-0.2-11.2 3.4-13.9 9.1-1 2-1.4 4.1-1.4 6.2 0 6.7 3.5 11.3 9.4 14.2 2.2 1 5 1.2 7.3 1.2 2.1 0 5.1-1.3 6.9-2.2l0.3-0.1h1.5 0.1c1.8 0.4 3.1 1.5 3.1 3.4v0.8c0 4.7-8.6 5.8-11.9 6-11.6 0.8-20.3-5.6-23.6-16.7-0.6-1.9-0.8-3.8-0.8-5.8v-1.5c0-8.4 4.1-15.1 11.3-19.4 3.4-2 7.1-3 11-3h1.5c4.2 0 8 1.2 11.4 3.5l0.3 0.2 0.1 0.3c0.4 0.6 0.7 1.4 0.7 2.1v0.7c0 2-1.5 3.1-3.3 3.4l-0.1 0.1h-0.5c-1.1 0-3.7-1.2-4.8-1.7zm25.2 5.2q4.5-4.5 9-9c0.9-0.8 4.1-4.3 5.4-4.3h1.4 0.1c1.8 0.4 3.1 1.5 3.1 3.4v0.8c0 1.3-1.5 2.8-2.3 3.7-1.8 1.9-3.7 3.7-5.5 5.5l-9.4 9.5q6.1 6.1 12.1 12.2 1.7 1.7 3.3 3.4c0.4 0.4 0.9 0.9 1.3 1.5 0.3 0.5 0.5 1.1 0.5 1.7v0.8 0.2c-0.5 1.8-1.6 3.2-3.5 3.2h-0.7c-1.2 0-2.7-1.5-3.6-2.3-1.8-1.7-3.5-3.5-5.3-5.2l-5.9-5.9v9.4c0 2.1-1.4 3.8-3.6 3.8h-0.6c-2.2 0-3.6-1.7-3.6-3.8v-52.6c0-2.2 1.4-3.9 3.6-3.9h0.6c2.2 0 3.6 1.7 3.6 3.9zm96.5-13.3h0.8c2.3 0 3.9 1.5 3.9 3.8 0 3.2-3.1 4.1-5.7 4.1-3.5 0-6.8 2.1-9.2 4.4-3 3-4.3 6.8-4.3 10.9v18.8c0 2.1-1.4 3.8-3.6 3.8h-0.6c-2.3 0-3.6-1.7-3.6-3.8v-19.9c0-7.6 3.7-13.8 9.9-18.2 3.7-2.6 7.9-3.9 12.4-3.9zm-55 37.1c2.8 1 6 0.9 8.9 0.4 1.5-0.7 5.3-2.3 6.6-2.1l0.3 0.1 0.2 0.1c0.8 0.4 1.6 1 2.1 1.8 1 2.1 0.5 4.1-1.5 5.2l-0.7 0.4c-7.3 4.3-15.1 3.7-22.5-0.3-3.5-1.9-6.1-4.7-8.1-8.1l-0.5-0.8c-4.7-8.2-4.1-16.8 1.3-24.5 1.8-2.7 4.2-4.8 7-6.4l1.1-0.6c6.9-4 14.3-3.8 21.4-0.3 3.8 1.9 6.9 4.7 9.1 8.4l0.3 0.7c1.6 2.7-0.4 5-2.5 6.6-2.4 1.9-4.8 4.1-7.1 6.1q-7.7 6.7-15.4 13.3zm-6.7-4.6q8.6-7.4 17.2-14.9c2-1.6 4.2-3.4 6.1-5.2-1.6-1.9-4.2-3.4-6.4-4.2-4.5-1.7-8.9-1.1-13 1.2-5.3 3.1-7.6 8.1-7.4 14.2 0.1 2.4 0.7 4.7 2 6.8q0.7 1.1 1.5 2.1z"/>
		<path id="Layer" fill-rule="evenodd" class="s0" d="m147.5 45.7h22.9v23.4h11.5c5.4 0 10.8-0.9 15.9-2.7 2.5-0.8 5.3-2 7.7-3.4-3.2-4.3-4.8-9.6-5.3-14.8-0.7-7.2 0.7-16.4 5.6-22l2.4-2.8 2.8 2.3c7.3 5.8 13.3 13.9 14.4 23.1 8.7-2.5 18.9-1.9 26.5 2.5l3.2 1.8-1.7 3.2c-6.5 12.6-20 16.6-33.2 15.9-19.8 49.3-62.9 72.6-115.2 72.6-27 0-51.8-10.1-65.9-34l-0.2-0.4-2-4.2c-4.8-10.5-6.4-22.1-5.3-33.6l0.3-3.5h19.5v-23.4h22.9v-22.8h45.7v-22.9h27.5z"/>
		<path id="Layer" fill-rule="evenodd" class="s1" d="m221.6 54.4c1.5-11.9-7.4-21.3-12.9-25.7-6.4 7.3-7.4 26.6 2.6 34.8-5.6 4.9-17.3 9.4-29.4 9.4h-146.5c-1.2 12.6 1 24.2 6 34.1l1.7 3q1.6 2.7 3.5 5.2 9 0.6 16.6 0.4c10-0.2 18.2-1.4 24.3-3.5 1-0.4 2 0.1 2.3 1.1 0.3 0.9-0.2 1.9-1.1 2.2q-1.2 0.4-2.6 0.8 0 0 0 0c-4.8 1.4-10 2.3-16.8 2.7 0.4 0-0.4 0.1-0.4 0.1-0.2 0-0.5 0-0.7 0.1-2.7 0.1-5.5 0.1-8.5 0.1-3.2 0-6.3 0-9.8-0.2l-0.1 0.1c12.2 13.7 31.3 21.9 55.2 21.9 50.7 0 93.6-22.4 112.6-72.8 13.5 1.3 26.5-2.1 32.4-13.6-9.4-5.4-21.5-3.7-28.4-0.2z"/>
		<path id="Layer" fill-rule="evenodd" class="s2" d="m221.6 54.4c1.5-11.9-7.4-21.3-12.9-25.7-6.4 7.3-7.4 26.6 2.6 34.8-5.6 4.9-17.3 9.4-29.4 9.4h-137.9c-0.6 19.3 6.6 33.9 19.2 42.7 10-0.2 18.2-1.4 24.3-3.5 1-0.4 2 0.1 2.3 1.1 0.3 0.9-0.2 1.9-1.1 2.2q-1.2 0.4-2.6 0.8 0 0 0 0c-4.8 1.4-10.5 2.4-17.2 2.9 0 0-0.2-0.2-0.2-0.2 17.2 8.8 42.2 8.8 70.9-2.2 32.1-12.3 62-35.9 82.9-62.8q-0.5 0.3-0.9 0.5z"/>
		<path id="Layer" fill-rule="evenodd" class="s3" d="m35.6 88.2c1 6.7 2.9 13 5.8 18.8l1.7 3q1.6 2.7 3.5 5.2 9 0.6 16.6 0.4c10-0.2 18.2-1.4 24.3-3.5 1-0.4 2 0.1 2.3 1.1 0.3 0.9-0.2 1.9-1.1 2.2q-1.2 0.4-2.6 0.8 0 0 0 0c-4.8 1.4-10.5 2.4-17.2 2.8-0.2 0-0.6 0-0.9 0-2.6 0.2-5.4 0.3-8.4 0.3-3.2 0-6.4-0.1-9.9-0.3 12.2 13.7 31.4 22 55.3 22 43.4 0 81.1-16.4 103-52.8z"/>
		<path id="Layer" fill-rule="evenodd" class="s4" d="m45.4 88.2c2.6 11.8 8.8 21.1 17.8 27.4 10-0.2 18.2-1.4 24.3-3.5 1-0.4 2 0.1 2.3 1.1 0.3 0.9-0.2 1.9-1.1 2.2q-1.2 0.4-2.6 0.8 0 0 0 0c-4.8 1.4-10.6 2.4-17.3 2.8 17.2 8.8 42.1 8.7 70.8-2.3 17.3-6.7 34-16.6 49-28.5z"/>
		<path id="Layer" fill-rule="evenodd" class="s5" d="m55.3 49.5h19.8v19.9h-19.8zm1.6 18.1h1.6v-16.5h-1.6zm3 0h1.6v-16.5h-1.6zm3 0h1.6v-16.5h-1.6zm3 0h1.6v-16.5h-1.6zm3 0h1.6v-16.6h-1.6zm3 0h1.5v-16.5h-1.5z"/>
		<path id="Layer" fill-rule="evenodd" class="s5" d="m78.1 26.7h19.8v19.8h-19.8zm1.7 18.2h1.5v-16.6h-1.5zm2.9 0h1.6v-16.5h-1.6zm3 0h1.6v-16.5h-1.6zm3 0h1.6v-16.5h-1.6zm3 0h1.7v-16.5h-1.7zm3 0h1.6v-16.5h-1.6z"/>
		<path id="Layer" fill-rule="evenodd" class="s6" d="m78.1 49.5h19.8v19.9h-19.8zm1.7 18.1h1.5v-16.5h-1.5zm2.9 0h1.6v-16.5h-1.6zm3 0h1.6v-16.5h-1.6zm3 0h1.6v-16.5h-1.6zm3 0h1.7v-16.6h-1.7zm3 0h1.6v-16.5h-1.6z"/>
		<path id="Layer" fill-rule="evenodd" class="s5" d="m101 49.5h19.8v19.9h-19.8zm1.6 18.1h1.6v-16.5h-1.6zm3 0h1.6v-16.5h-1.6zm3 0h1.6v-16.5h-1.6zm3 0h1.6v-16.5h-1.6zm3 0h1.6v-16.6h-1.6zm3 0h1.6v-16.5h-1.6z"/>
		<path id="Layer" fill-rule="evenodd" class="s6" d="m101 26.7h19.8v19.8h-19.8zm1.6 18.2h1.6v-16.6h-1.6zm3 0h1.6v-16.5h-1.6zm3 0h1.6v-16.5h-1.6zm3 0h1.6v-16.5h-1.6zm3 0h1.6v-16.5h-1.6zm3 0h1.6v-16.5h-1.6z"/>
		<path id="Layer" fill-rule="evenodd" class="s6" d="m123.9 49.5h19.8v19.9h-19.8zm1.6 18.1h1.6v-16.5h-1.6zm3 0h1.6v-16.5h-1.6zm3 0h1.6v-16.5h-1.6zm3 0h1.6v-16.5h-1.6zm3 0h1.6v-16.6h-1.6zm3 0h1.5v-16.5h-1.5z"/>
		<path id="Layer" fill-rule="evenodd" class="s5" d="m123.9 26.7h19.8v19.8h-19.8zm1.6 18.2h1.6v-16.6h-1.6zm3 0h1.6v-16.5h-1.6zm3 0h1.6v-16.5h-1.6zm3 0h1.6v-16.5h-1.6zm3 0h1.6v-16.5h-1.6zm3 0h1.5v-16.5h-1.5z"/>
		<path id="Layer" fill-rule="evenodd" class="s6" d="m123.9 3.8h19.8v19.8h-19.8zm1.6 18.2h1.6v-16.5h-1.6zm3 0h1.6v-16.5h-1.6zm3 0h1.6v-16.6h-1.6zm3 0h1.6v-16.5h-1.6zm3 0h1.6v-16.5h-1.6zm3 0h1.5v-16.5h-1.5z"/>
		<path id="Layer" fill-rule="evenodd" class="s5" d="m146.7 49.5h19.8v19.9h-19.8zm1.7 18.1h1.5v-16.5h-1.5zm2.9 0h1.6v-16.5h-1.6zm3 0h1.6v-16.5h-1.6zm3 0h1.6v-16.5h-1.6zm3 0h1.7v-16.6h-1.7zm3 0h1.6v-16.5h-1.6z"/>
		<path id="Layer" fill-rule="evenodd" class="s7" d="m96.7 101.5c3 0 5.5 2.4 5.5 5.5 0 3-2.5 5.4-5.5 5.4-3 0-5.5-2.4-5.5-5.4 0-3.1 2.5-5.5 5.5-5.5z"/>
		<path id="Layer" fill-rule="evenodd" class="s0" d="m96.7 103q0.8 0 1.4 0.3c-0.5 0.3-0.8 0.8-0.8 1.4 0 0.9 0.7 1.6 1.6 1.6 0.6 0 1.1-0.3 1.4-0.8q0.3 0.7 0.3 1.5c0 2.1-1.7 3.9-3.9 3.9-2.2 0-3.9-1.8-3.9-3.9 0-2.2 1.7-4 3.9-4z"/>
		<path id="Layer" fill-rule="evenodd" class="s0" d="m0 90.2h254.3c-5.5-1.4-17.5-3.3-15.5-10.6-10.1 11.7-34.4 8.2-40.5 2.4-6.8 9.9-46.6 6.2-49.3-1.5-8.6 10-35.1 10-43.6 0-2.8 7.7-42.5 11.4-49.4 1.5-6.1 5.8-30.4 9.3-40.5-2.4 2 7.3-10 9.2-15.5 10.6z"/>
		<path id="Layer" fill-rule="evenodd" class="s8" d="m111.2 140.9c-13.5-6.4-20.9-15.2-25.1-24.7q-7.5 2.2-18.1 2.7-3.9 0.3-8.3 0.3-5.1 0-10.7-0.3c12.5 12.4 27.7 21.9 56 22.1q3.1 0 6.2-0.1z"/>
		<path id="Layer" fill-rule="evenodd" class="s7" d="m91.2 125c-1.9-2.5-3.7-5.7-5.1-8.8q-7.5 2.2-18.1 2.7c4.9 2.7 11.8 5.1 23.2 6.1z"/>
	</g>
</svg>