<svg version="1.2" xmlns="http://www.w3.org/2000/svg" viewBox="0 0 451 256" width="451" height="256">
	<title>docker-svg</title>
	<style>
		.s0 { fill: #364548 } 
		.s1 { fill: #22a0c8 } 
		.s2 { fill: #37b1d9 } 
		.s3 { fill: #1b81a5 } 
		.s4 { fill: #1d91b4 } 
		.s5 { fill: #23a3c2 } 
		.s6 { fill: #34bbde } 
		.s7 { fill: #d3ecec } 
		.s8 { fill: #bdd9d7 } 
	</style>
	<g id="Layer">
		<path id="Layer" fill-rule="evenodd" class="s0" d="m259.9 80.5h40.3v41.2h20.3c9.5 0 19-1.6 28-4.7 4.4-1.4 9.3-3.5 13.5-6-5.6-7.6-8.4-16.9-9.3-26.1-1.2-12.7 1.2-28.9 9.9-38.7l4.2-5 4.9 4.1c12.9 10.2 23.5 24.5 25.4 40.7 15.3-4.4 33.3-3.4 46.7 4.4l5.6 3.1-3 5.7c-11.4 22.2-35.2 29.2-58.5 28-34.9 86.8-110.8 127.9-202.9 127.9-47.6 0-91.3-17.8-116.1-59.9l-0.4-0.7-3.5-7.4c-8.4-18.5-11.3-38.9-9.3-59.2l0.5-6.2h34.4v-41.2h40.3v-40.2h80.5v-40.3h48.5z"/>
		<path id="Layer" fill-rule="evenodd" class="s1" d="m390.4 95.8c2.6-20.9-13-37.5-22.7-45.2-11.3 12.8-13.1 46.8 4.6 61.3-9.9 8.6-30.5 16.5-51.8 16.5h-258.1c-2.1 22.2 1.7 42.7 10.5 60.1l3 5.3q2.8 4.7 6.2 9.2 15.9 1 29.2 0.7c17.7-0.4 32.1-2.5 42.9-6.2 1.7-0.7 3.5 0.2 4 1.9 0.5 1.6-0.3 3.4-1.9 3.9q-2.1 0.7-4.6 1.4c-8.5 2.5-17.6 4.1-29.6 4.8 0.7 0-0.7 0.1-0.7 0.1-0.4 0-0.9 0-1.3 0.2-4.7 0.2-9.6 0.2-14.9 0.2-5.7 0-11.1 0-17.3-0.4l-0.2 0.2c21.5 24.2 55.2 38.6 97.3 38.6 89.3 0 164.9-39.5 198.4-128.3 23.7 2.3 46.6-3.7 57-23.9-16.5-9.5-37.8-6.5-50-0.4z"/>
		<path id="Layer" fill-rule="evenodd" class="s2" d="m390.4 95.8c2.6-20.9-13-37.5-22.7-45.2-11.3 12.8-13.1 46.8 4.6 61.3-9.9 8.6-30.5 16.5-51.8 16.5h-243c-1 34 11.6 59.8 33.8 75.3 17.7-0.4 32.1-2.5 42.9-6.2 1.7-0.7 3.5 0.2 4 1.9 0.5 1.6-0.4 3.4-1.9 3.9q-2.1 0.7-4.6 1.4c-8.5 2.5-18.5 4.2-30.3 5.1l-0.4-0.3c30.3 15.5 74.4 15.5 124.9-3.9 56.6-21.7 109.3-63.3 146.1-110.6q-0.9 0.5-1.6 0.8z"/>
		<path id="Layer" fill-rule="evenodd" class="s3" d="m62.7 155.4c1.8 11.8 5.1 22.9 10.2 33.1l3 5.3q2.8 4.7 6.2 9.2 15.9 1 29.2 0.7c17.7-0.4 32.1-2.5 42.9-6.2 1.7-0.7 3.5 0.2 4 1.9 0.5 1.6-0.4 3.4-1.9 3.9q-2.1 0.7-4.6 1.4c-8.5 2.5-18.5 4.2-30.3 4.9-0.4 0-1.1 0-1.6 0q-6.9 0.6-14.8 0.6c-5.6 0-11.3-0.2-17.4-0.6 21.5 24.2 55.3 38.8 97.4 38.8 76.4 0 142.9-28.9 181.4-93z"/>
		<path id="Layer" fill-rule="evenodd" class="s4" d="m80 155.4c4.6 20.8 15.5 37.2 31.3 48.3 17.7-0.4 32.1-2.5 42.9-6.2 1.7-0.7 3.5 0.2 4 1.9 0.5 1.6-0.4 3.4-1.9 3.9q-2.1 0.7-4.6 1.4c-8.5 2.5-18.7 4.2-30.5 4.9 30.3 15.5 74.2 15.4 124.7-4 30.5-11.8 59.9-29.3 86.4-50.2z"/>
		<path id="Layer" fill-rule="evenodd" class="s5" d="m97.4 87.2h34.9v35.1h-34.9zm2.8 31.9h2.9v-29.1h-2.9zm5.3 0h2.8v-29.1h-2.8zm5.3 0h2.8v-29.1h-2.8zm5.3 0h2.8v-29h-2.8zm5.3 0h2.8v-29.3h-2.8zm5.3 0h2.6v-29h-2.6z"/>
		<path id="Layer" fill-rule="evenodd" class="s5" d="m137.6 47h34.9v34.9h-34.9zm3 32.1h2.6v-29.3h-2.6zm5.1 0h2.8v-29h-2.8zm5.3 0h2.8v-29.1h-2.8zm5.3 0h2.8v-29.1h-2.8zm5.2 0h3v-29h-3zm5.3 0h2.9v-29.1h-2.9z"/>
		<path id="Layer" fill-rule="evenodd" class="s6" d="m137.6 87.2h34.9v35.1h-34.9zm3 31.9h2.6v-29.1h-2.6zm5.1 0h2.8v-29.1h-2.8zm5.3 0h2.8v-29.1h-2.8zm5.3 0h2.8v-29h-2.8zm5.2 0h3v-29.3h-3zm5.3 0h2.9v-29h-2.9z"/>
		<path id="Layer" fill-rule="evenodd" class="s5" d="m177.9 87.2h34.9v35.1h-34.9zm2.9 31.9h2.8v-29.1h-2.8zm5.2 0h2.9v-29.1h-2.9zm5.3 0h2.8v-29.1h-2.8zm5.3 0h2.8v-29h-2.8zm5.3 0h2.8v-29.3h-2.8zm5.3 0h2.8v-29h-2.8z"/>
		<path id="Layer" fill-rule="evenodd" class="s6" d="m177.9 47h34.9v34.9h-34.9zm2.9 32.1h2.8v-29.3h-2.8zm5.2 0h2.9v-29h-2.9zm5.3 0h2.8v-29.1h-2.8zm5.3 0h2.8v-29.1h-2.8zm5.3 0h2.8v-29h-2.8zm5.3 0h2.8v-29.1h-2.8z"/>
		<path id="Layer" fill-rule="evenodd" class="s6" d="m218.3 87.2h34.9v35.1h-34.9zm2.8 31.9h2.8v-29.1h-2.8zm5.3 0h2.8v-29.1h-2.8zm5.3 0h2.8v-29.1h-2.8zm5.3 0h2.8v-29h-2.8zm5.2 0h2.9v-29.3h-2.9zm5.3 0h2.7v-29h-2.7z"/>
		<path id="Layer" fill-rule="evenodd" class="s5" d="m218.3 47h34.9v34.9h-34.9zm2.8 32.1h2.8v-29.3h-2.8zm5.3 0h2.8v-29h-2.8zm5.3 0h2.8v-29.1h-2.8zm5.3 0h2.8v-29.1h-2.8zm5.2 0h2.9v-29h-2.9zm5.3 0h2.7v-29.1h-2.7z"/>
		<path id="Layer" fill-rule="evenodd" class="s6" d="m218.3 6.7h34.9v34.9h-34.9zm2.8 32h2.8v-29h-2.8zm5.3 0h2.8v-29.1h-2.8zm5.3 0h2.8v-29.2h-2.8zm5.3 0h2.8v-29.1h-2.8zm5.2 0h2.9v-29.1h-2.9zm5.3 0h2.7v-29h-2.7z"/>
		<path id="Layer" fill-rule="evenodd" class="s5" d="m258.4 87.2h34.9v35.1h-34.9zm3 31.9h2.7v-29.1h-2.7zm5.1 0h2.9v-29.1h-2.9zm5.3 0h2.9v-29.1h-2.9zm5.3 0h2.8v-29h-2.8zm5.3 0h3v-29.3h-3zm5.3 0h2.8v-29h-2.8z"/>
		<path id="Layer" fill-rule="evenodd" class="s7" d="m170.4 198c-5.4 0-9.7-4.3-9.7-9.6 0-5.3 4.3-9.6 9.7-9.6 5.3 0 9.6 4.3 9.6 9.6 0 5.3-4.3 9.6-9.6 9.6z"/>
		<path id="Layer" fill-rule="evenodd" class="s0" d="m170.4 181.5q1.4 0 2.4 0.5c-0.9 0.5-1.4 1.4-1.4 2.5 0 1.5 1.2 2.8 2.8 2.8 1.1 0 2-0.6 2.5-1.4q0.5 1.2 0.5 2.6c0 3.7-3 6.9-6.8 6.9-3.9 0-6.9-3.2-6.9-6.9 0-3.9 3-7 6.9-7z"/>
		<path id="Layer" fill-rule="evenodd" class="s0" d="m0 158.9h448c-9.7-2.5-30.8-5.8-27.3-18.7-17.8 20.6-60.6 14.5-71.4 4.3-11.9 17.4-82 10.9-86.8-2.7-15.2 17.6-61.8 17.6-76.8 0-4.9 13.6-74.9 20.1-87 2.7-10.8 10.2-53.6 16.3-71.4-4.3 3.5 12.9-17.6 16.2-27.3 18.7z"/>
		<path id="Layer" fill-rule="evenodd" class="s8" d="m195.9 248.2c-23.8-11.2-36.8-26.8-44.2-43.5q-13.2 3.9-31.9 4.8-6.9 0.5-14.6 0.5-9 0-18.9-0.5c22 21.8 48.8 38.6 98.7 38.9q5.4 0 10.9-0.2z"/>
		<path id="Layer" fill-rule="evenodd" class="s7" d="m160.7 220.2c-3.4-4.4-6.5-10-9-15.5q-13.2 3.9-31.9 4.8c8.6 4.7 20.8 9 40.9 10.7z"/>
	</g>
</svg>