<?xml version="1.0" encoding="UTF-8"?>
<svg xmlns="http://www.w3.org/2000/svg" xmlns:xlink="http://www.w3.org/1999/xlink" width="px" height="40px" viewBox="0 0 70 40" version="1.1">
<g id="surface1">
<path style=" stroke:none;fill-rule:evenodd;fill:rgb(21.176471%,27.058825%,28.235295%);fill-opacity:1;" d="M 40.339844 12.578125 L 46.59375 12.578125 L 46.59375 19.015625 L 49.746094 19.015625 C 51.21875 19.015625 52.695312 18.765625 54.089844 18.28125 C 54.773438 18.0625 55.535156 17.734375 56.1875 17.34375 C 55.316406 16.15625 54.882812 14.703125 54.742188 13.265625 C 54.554688 11.28125 54.929688 8.75 56.28125 7.21875 L 56.929688 6.4375 L 57.691406 7.078125 C 59.695312 8.671875 61.339844 10.90625 61.632812 13.4375 C 64.007812 12.75 66.800781 12.90625 68.882812 14.125 L 69.75 14.609375 L 69.285156 15.5 C 67.515625 18.96875 63.824219 20.0625 60.207031 19.875 C 54.789062 33.4375 43.007812 39.859375 28.714844 39.859375 C 21.324219 39.859375 14.542969 37.078125 10.695312 30.5 L 10.632812 30.390625 L 10.089844 29.234375 C 8.785156 26.34375 8.335938 23.15625 8.644531 19.984375 L 8.722656 19.015625 L 14.0625 19.015625 L 14.0625 12.578125 L 20.316406 12.578125 L 20.316406 6.296875 L 32.8125 6.296875 L 32.8125 0 L 40.339844 0 Z M 40.339844 12.578125 "/>
<path style=" stroke:none;fill-rule:evenodd;fill:rgb(13.333334%,62.7451%,78.431374%);fill-opacity:1;" d="M 60.59375 14.96875 C 60.996094 11.703125 58.578125 9.109375 57.070312 7.90625 C 55.316406 9.90625 55.039062 15.21875 57.785156 17.484375 C 56.25 18.828125 53.050781 20.0625 49.746094 20.0625 L 9.683594 20.0625 C 9.359375 23.53125 9.949219 26.734375 11.316406 29.453125 L 11.78125 30.28125 C 12.070312 30.769531 12.390625 31.25 12.742188 31.71875 C 14.386719 31.824219 15.898438 31.859375 17.273438 31.828125 C 20.023438 31.765625 22.257812 31.4375 23.933594 30.859375 C 24.199219 30.75 24.476562 30.890625 24.554688 31.15625 C 24.632812 31.40625 24.507812 31.6875 24.257812 31.765625 C 24.042969 31.839844 23.804688 31.910156 23.546875 31.984375 C 22.226562 32.375 20.8125 32.625 18.953125 32.734375 C 19.058594 32.734375 18.84375 32.75 18.84375 32.75 C 18.78125 32.75 18.703125 32.75 18.640625 32.78125 C 17.910156 32.8125 17.152344 32.8125 16.328125 32.8125 C 15.445312 32.8125 14.605469 32.8125 13.644531 32.75 L 13.613281 32.78125 C 16.949219 36.5625 22.179688 38.8125 28.714844 38.8125 C 42.574219 38.8125 54.308594 32.640625 59.507812 18.765625 C 63.1875 19.125 66.742188 18.1875 68.355469 15.03125 C 65.792969 13.546875 62.488281 14.015625 60.59375 14.96875 Z M 60.59375 14.96875 "/>
<path style=" stroke:none;fill-rule:evenodd;fill:rgb(21.568628%,69.411767%,85.09804%);fill-opacity:1;" d="M 60.59375 14.96875 C 60.996094 11.703125 58.578125 9.109375 57.070312 7.90625 C 55.316406 9.90625 55.039062 15.21875 57.785156 17.484375 C 56.25 18.828125 53.050781 20.0625 49.746094 20.0625 L 12.027344 20.0625 C 11.875 25.375 13.828125 29.40625 17.273438 31.828125 C 20.023438 31.765625 22.257812 31.4375 23.933594 30.859375 C 24.199219 30.75 24.476562 30.890625 24.554688 31.15625 C 24.632812 31.40625 24.492188 31.6875 24.257812 31.765625 C 24.042969 31.839844 23.804688 31.910156 23.546875 31.984375 C 22.226562 32.375 20.675781 32.640625 18.84375 32.78125 L 18.78125 32.734375 C 23.484375 35.15625 30.328125 35.15625 38.167969 32.125 C 46.953125 28.734375 55.128906 22.234375 60.84375 14.84375 C 60.75 14.894531 60.667969 14.9375 60.59375 14.96875 Z M 60.59375 14.96875 "/>
<path style=" stroke:none;fill-rule:evenodd;fill:rgb(10.588235%,50.588238%,64.705884%);fill-opacity:1;" d="M 9.730469 24.28125 C 10.011719 26.125 10.523438 27.859375 11.316406 29.453125 L 11.78125 30.28125 C 12.070312 30.769531 12.390625 31.25 12.742188 31.71875 C 14.386719 31.824219 15.898438 31.859375 17.273438 31.828125 C 20.023438 31.765625 22.257812 31.4375 23.933594 30.859375 C 24.199219 30.75 24.476562 30.890625 24.554688 31.15625 C 24.632812 31.40625 24.492188 31.6875 24.257812 31.765625 C 24.042969 31.839844 23.804688 31.910156 23.546875 31.984375 C 22.226562 32.375 20.675781 32.640625 18.84375 32.75 C 18.78125 32.75 18.671875 32.75 18.59375 32.75 C 17.878906 32.8125 17.113281 32.84375 16.296875 32.84375 C 15.429688 32.84375 14.542969 32.8125 13.597656 32.75 C 16.933594 36.53125 22.179688 38.8125 28.714844 38.8125 C 40.570312 38.8125 50.894531 34.296875 56.871094 24.28125 Z M 9.730469 24.28125 "/>
<path style=" stroke:none;fill-rule:evenodd;fill:rgb(11.372549%,56.862748%,70.588237%);fill-opacity:1;" d="M 12.417969 24.28125 C 13.128906 27.53125 14.824219 30.09375 17.273438 31.828125 C 20.023438 31.765625 22.257812 31.4375 23.933594 30.859375 C 24.199219 30.75 24.476562 30.890625 24.554688 31.15625 C 24.632812 31.40625 24.492188 31.6875 24.257812 31.765625 C 24.042969 31.839844 23.804688 31.910156 23.546875 31.984375 C 22.226562 32.375 20.644531 32.640625 18.8125 32.75 C 23.515625 35.171875 30.328125 35.15625 38.167969 32.125 C 42.898438 30.28125 47.464844 27.546875 51.578125 24.28125 Z M 12.417969 24.28125 "/>
<path style=" stroke:none;fill-rule:evenodd;fill:rgb(13.725491%,63.921571%,76.078433%);fill-opacity:1;" d="M 15.117188 13.625 L 20.535156 13.625 L 20.535156 19.109375 L 15.117188 19.109375 Z M 15.550781 18.609375 L 16.003906 18.609375 L 16.003906 14.0625 L 15.550781 14.0625 Z M 16.375 18.609375 L 16.808594 18.609375 L 16.808594 14.0625 L 16.375 14.0625 Z M 17.199219 18.609375 L 17.632812 18.609375 L 17.632812 14.0625 L 17.199219 14.0625 Z M 18.019531 18.609375 L 18.453125 18.609375 L 18.453125 14.078125 L 18.019531 14.078125 Z M 18.84375 18.609375 L 19.277344 18.609375 L 19.277344 14.03125 L 18.84375 14.03125 Z M 19.664062 18.609375 L 20.070312 18.609375 L 20.070312 14.078125 L 19.664062 14.078125 Z M 19.664062 18.609375 "/>
<path style=" stroke:none;fill-rule:evenodd;fill:rgb(13.725491%,63.921571%,76.078433%);fill-opacity:1;" d="M 21.355469 7.34375 L 26.773438 7.34375 L 26.773438 12.796875 L 21.355469 12.796875 Z M 21.824219 12.359375 L 22.226562 12.359375 L 22.226562 7.78125 L 21.824219 7.78125 Z M 22.613281 12.359375 L 23.046875 12.359375 L 23.046875 7.828125 L 22.613281 7.828125 Z M 23.4375 12.359375 L 23.871094 12.359375 L 23.871094 7.8125 L 23.4375 7.8125 Z M 24.257812 12.359375 L 24.695312 12.359375 L 24.695312 7.8125 L 24.257812 7.8125 Z M 25.066406 12.359375 L 25.53125 12.359375 L 25.53125 7.828125 L 25.066406 7.828125 Z M 25.890625 12.359375 L 26.339844 12.359375 L 26.339844 7.8125 L 25.890625 7.8125 Z M 25.890625 12.359375 "/>
<path style=" stroke:none;fill-rule:evenodd;fill:rgb(20.392157%,73.333335%,87.058824%);fill-opacity:1;" d="M 21.355469 13.625 L 26.773438 13.625 L 26.773438 19.109375 L 21.355469 19.109375 Z M 21.824219 18.609375 L 22.226562 18.609375 L 22.226562 14.0625 L 21.824219 14.0625 Z M 22.613281 18.609375 L 23.046875 18.609375 L 23.046875 14.0625 L 22.613281 14.0625 Z M 23.4375 18.609375 L 23.871094 18.609375 L 23.871094 14.0625 L 23.4375 14.0625 Z M 24.257812 18.609375 L 24.695312 18.609375 L 24.695312 14.078125 L 24.257812 14.078125 Z M 25.066406 18.609375 L 25.53125 18.609375 L 25.53125 14.03125 L 25.066406 14.03125 Z M 25.890625 18.609375 L 26.339844 18.609375 L 26.339844 14.078125 L 25.890625 14.078125 Z M 25.890625 18.609375 "/>
<path style=" stroke:none;fill-rule:evenodd;fill:rgb(13.725491%,63.921571%,76.078433%);fill-opacity:1;" d="M 27.613281 13.625 L 33.027344 13.625 L 33.027344 19.109375 L 27.613281 19.109375 Z M 28.0625 18.609375 L 28.496094 18.609375 L 28.496094 14.0625 L 28.0625 14.0625 Z M 28.871094 18.609375 L 29.320312 18.609375 L 29.320312 14.0625 L 28.871094 14.0625 Z M 29.691406 18.609375 L 30.125 18.609375 L 30.125 14.0625 L 29.691406 14.0625 Z M 30.515625 18.609375 L 30.949219 18.609375 L 30.949219 14.078125 L 30.515625 14.078125 Z M 31.335938 18.609375 L 31.773438 18.609375 L 31.773438 14.03125 L 31.335938 14.03125 Z M 32.160156 18.609375 L 32.59375 18.609375 L 32.59375 14.078125 L 32.160156 14.078125 Z M 32.160156 18.609375 "/>
<path style=" stroke:none;fill-rule:evenodd;fill:rgb(20.392157%,73.333335%,87.058824%);fill-opacity:1;" d="M 27.613281 7.34375 L 33.027344 7.34375 L 33.027344 12.796875 L 27.613281 12.796875 Z M 28.0625 12.359375 L 28.496094 12.359375 L 28.496094 7.78125 L 28.0625 7.78125 Z M 28.871094 12.359375 L 29.320312 12.359375 L 29.320312 7.828125 L 28.871094 7.828125 Z M 29.691406 12.359375 L 30.125 12.359375 L 30.125 7.8125 L 29.691406 7.8125 Z M 30.515625 12.359375 L 30.949219 12.359375 L 30.949219 7.8125 L 30.515625 7.8125 Z M 31.335938 12.359375 L 31.773438 12.359375 L 31.773438 7.828125 L 31.335938 7.828125 Z M 32.160156 12.359375 L 32.59375 12.359375 L 32.59375 7.8125 L 32.160156 7.8125 Z M 32.160156 12.359375 "/>
<path style=" stroke:none;fill-rule:evenodd;fill:rgb(20.392157%,73.333335%,87.058824%);fill-opacity:1;" d="M 33.882812 13.625 L 39.300781 13.625 L 39.300781 19.109375 L 33.882812 19.109375 Z M 34.316406 18.609375 L 34.75 18.609375 L 34.75 14.0625 L 34.316406 14.0625 Z M 35.140625 18.609375 L 35.574219 18.609375 L 35.574219 14.0625 L 35.140625 14.0625 Z M 35.960938 18.609375 L 36.398438 18.609375 L 36.398438 14.0625 L 35.960938 14.0625 Z M 36.785156 18.609375 L 37.21875 18.609375 L 37.21875 14.078125 L 36.785156 14.078125 Z M 37.59375 18.609375 L 38.042969 18.609375 L 38.042969 14.03125 L 37.59375 14.03125 Z M 38.414062 18.609375 L 38.832031 18.609375 L 38.832031 14.078125 L 38.414062 14.078125 Z M 38.414062 18.609375 "/>
<path style=" stroke:none;fill-rule:evenodd;fill:rgb(13.725491%,63.921571%,76.078433%);fill-opacity:1;" d="M 33.882812 7.34375 L 39.300781 7.34375 L 39.300781 12.796875 L 33.882812 12.796875 Z M 34.316406 12.359375 L 34.75 12.359375 L 34.75 7.78125 L 34.316406 7.78125 Z M 35.140625 12.359375 L 35.574219 12.359375 L 35.574219 7.828125 L 35.140625 7.828125 Z M 35.960938 12.359375 L 36.398438 12.359375 L 36.398438 7.8125 L 35.960938 7.8125 Z M 36.785156 12.359375 L 37.21875 12.359375 L 37.21875 7.8125 L 36.785156 7.8125 Z M 37.59375 12.359375 L 38.042969 12.359375 L 38.042969 7.828125 L 37.59375 7.828125 Z M 38.414062 12.359375 L 38.832031 12.359375 L 38.832031 7.8125 L 38.414062 7.8125 Z M 38.414062 12.359375 "/>
<path style=" stroke:none;fill-rule:evenodd;fill:rgb(20.392157%,73.333335%,87.058824%);fill-opacity:1;" d="M 33.882812 1.046875 L 39.300781 1.046875 L 39.300781 6.5 L 33.882812 6.5 Z M 34.316406 6.046875 L 34.75 6.046875 L 34.75 1.515625 L 34.316406 1.515625 Z M 35.140625 6.046875 L 35.574219 6.046875 L 35.574219 1.5 L 35.140625 1.5 Z M 35.960938 6.046875 L 36.398438 6.046875 L 36.398438 1.484375 L 35.960938 1.484375 Z M 36.785156 6.046875 L 37.21875 6.046875 L 37.21875 1.5 L 36.785156 1.5 Z M 37.59375 6.046875 L 38.042969 6.046875 L 38.042969 1.5 L 37.59375 1.5 Z M 38.414062 6.046875 L 38.832031 6.046875 L 38.832031 1.515625 L 38.414062 1.515625 Z M 38.414062 6.046875 "/>
<path style=" stroke:none;fill-rule:evenodd;fill:rgb(13.725491%,63.921571%,76.078433%);fill-opacity:1;" d="M 40.105469 13.625 L 45.523438 13.625 L 45.523438 19.109375 L 40.105469 19.109375 Z M 40.570312 18.609375 L 40.992188 18.609375 L 40.992188 14.0625 L 40.570312 14.0625 Z M 41.363281 18.609375 L 41.8125 18.609375 L 41.8125 14.0625 L 41.363281 14.0625 Z M 42.1875 18.609375 L 42.636719 18.609375 L 42.636719 14.0625 L 42.1875 14.0625 Z M 43.007812 18.609375 L 43.445312 18.609375 L 43.445312 14.078125 L 43.007812 14.078125 Z M 43.832031 18.609375 L 44.296875 18.609375 L 44.296875 14.03125 L 43.832031 14.03125 Z M 44.652344 18.609375 L 45.089844 18.609375 L 45.089844 14.078125 L 44.652344 14.078125 Z M 44.652344 18.609375 "/>
<path style=" stroke:none;fill-rule:evenodd;fill:rgb(82.745099%,92.54902%,92.54902%);fill-opacity:1;" d="M 26.449219 30.9375 C 25.609375 30.9375 24.941406 30.265625 24.941406 29.4375 C 24.941406 28.609375 25.609375 27.9375 26.449219 27.9375 C 27.269531 27.9375 27.9375 28.609375 27.9375 29.4375 C 27.9375 30.265625 27.269531 30.9375 26.449219 30.9375 Z M 26.449219 30.9375 "/>
<path style=" stroke:none;fill-rule:evenodd;fill:rgb(21.176471%,27.058825%,28.235295%);fill-opacity:1;" d="M 26.449219 28.359375 C 26.59375 28.359375 26.71875 28.386719 26.820312 28.4375 C 26.679688 28.515625 26.601562 28.65625 26.601562 28.828125 C 26.601562 29.0625 26.789062 29.265625 27.039062 29.265625 C 27.207031 29.265625 27.347656 29.171875 27.425781 29.046875 C 27.476562 29.171875 27.503906 29.308594 27.503906 29.453125 C 27.503906 30.03125 27.039062 30.53125 26.449219 30.53125 C 25.84375 30.53125 25.375 30.03125 25.375 29.453125 C 25.375 28.84375 25.84375 28.359375 26.449219 28.359375 Z M 26.449219 28.359375 "/>
<path style=" stroke:none;fill-rule:evenodd;fill:rgb(21.176471%,27.058825%,28.235295%);fill-opacity:1;" d="M 0 24.828125 L 69.535156 24.828125 C 68.027344 24.4375 64.753906 23.921875 65.296875 21.90625 C 62.535156 25.125 55.890625 24.171875 54.214844 22.578125 C 52.367188 25.296875 41.488281 24.28125 40.742188 22.15625 C 38.382812 24.90625 31.152344 24.90625 28.824219 22.15625 C 28.0625 24.28125 17.199219 25.296875 15.320312 22.578125 C 13.644531 24.171875 7 25.125 4.238281 21.90625 C 4.78125 23.921875 1.503906 24.4375 0 24.828125 Z M 0 24.828125 "/>
<path style=" stroke:none;fill-rule:evenodd;fill:rgb(74.117649%,85.09804%,84.313726%);fill-opacity:1;" d="M 30.40625 38.78125 C 26.710938 37.03125 24.695312 34.59375 23.546875 31.984375 C 22.179688 32.390625 20.527344 32.640625 18.59375 32.734375 C 17.878906 32.785156 17.125 32.8125 16.328125 32.8125 C 15.398438 32.8125 14.417969 32.785156 13.394531 32.734375 C 16.808594 36.140625 20.96875 38.765625 28.714844 38.8125 C 29.273438 38.8125 29.835938 38.800781 30.40625 38.78125 Z M 30.40625 38.78125 "/>
<path style=" stroke:none;fill-rule:evenodd;fill:rgb(82.745099%,92.54902%,92.54902%);fill-opacity:1;" d="M 24.941406 34.40625 C 24.414062 33.71875 23.933594 32.84375 23.546875 31.984375 C 22.179688 32.390625 20.527344 32.640625 18.59375 32.734375 C 19.929688 33.46875 21.824219 34.140625 24.941406 34.40625 Z M 24.941406 34.40625 "/>
</g>
</svg>
