<?xml version="1.0" encoding="UTF-8"?>
<svg xmlns="http://www.w3.org/2000/svg" xmlns:xlink="http://www.w3.org/1999/xlink" width="px" height="40px" viewBox="0 0 44 40" version="1.1">
<defs>
<filter id="alpha" filterUnits="objectBoundingBox" x="0%" y="0%" width="100%" height="100%">
  <feColorMatrix type="matrix" in="SourceGraphic" values="0 0 0 0 1 0 0 0 0 1 0 0 0 0 1 0 0 0 1 0"/>
</filter>
<mask id="mask0">
  <g filter="url(#alpha)">
<rect x="0" y="0" width="44" height="40" style="fill:rgb(0%,0%,0%);fill-opacity:0.2;stroke:none;"/>
  </g>
</mask>
<clipPath id="clip1">
  <rect x="0" y="0" width="44" height="40"/>
</clipPath>
<g id="surface5" clip-path="url(#clip1)">
<path style=" stroke:none;fill-rule:nonzero;fill:rgb(0%,0%,0%);fill-opacity:1;" d="M 0.078125 19.578125 C 0.078125 19.8125 0.046875 20.03125 0.046875 20.265625 C 0.046875 31.109375 8.617188 39.84375 19.253906 39.84375 C 29.894531 39.84375 38.464844 31.109375 38.464844 20.265625 C 38.464844 20.03125 38.433594 19.8125 38.433594 19.578125 C 38.066406 30.09375 29.664062 38.453125 19.253906 38.453125 C 8.847656 38.453125 0.445312 30.09375 0.078125 19.578125 Z M 0.078125 19.578125 "/>
</g>
<mask id="mask1">
  <g filter="url(#alpha)">
<rect x="0" y="0" width="44" height="40" style="fill:rgb(0%,0%,0%);fill-opacity:0.2;stroke:none;"/>
  </g>
</mask>
<clipPath id="clip2">
  <rect x="0" y="0" width="44" height="40"/>
</clipPath>
<g id="surface8" clip-path="url(#clip2)">
<path style=" stroke:none;fill-rule:nonzero;fill:rgb(100%,100%,100%);fill-opacity:1;" d="M 19.253906 0 C 8.617188 0 0.046875 8.734375 0.046875 19.578125 C 0.046875 19.65625 0.046875 19.734375 0.0625 19.8125 C 0.292969 9.1875 8.769531 0.703125 19.253906 0.703125 C 29.742188 0.703125 38.21875 9.1875 38.449219 19.8125 C 38.464844 19.734375 38.464844 19.65625 38.464844 19.578125 C 38.464844 8.734375 29.894531 0 19.253906 0 Z M 19.253906 0 "/>
</g>
<mask id="mask2">
  <g filter="url(#alpha)">
<rect x="0" y="0" width="44" height="40" style="fill:rgb(0%,0%,0%);fill-opacity:0.2;stroke:none;"/>
  </g>
</mask>
<clipPath id="clip3">
  <rect x="0" y="0" width="44" height="40"/>
</clipPath>
<g id="surface11" clip-path="url(#clip3)">
<path style=" stroke:none;fill-rule:nonzero;fill:rgb(0%,0%,0%);fill-opacity:1;" d="M 24.746094 39.84375 C 14.105469 39.84375 5.535156 31.109375 5.535156 20.265625 C 5.535156 20.03125 5.566406 19.8125 5.566406 19.578125 C 5.933594 30.09375 14.335938 38.453125 24.746094 38.453125 C 35.152344 38.453125 43.554688 30.09375 43.921875 19.578125 C 43.921875 19.8125 43.953125 20.03125 43.953125 20.265625 C 43.953125 31.109375 35.382812 39.84375 24.746094 39.84375 Z M 24.746094 39.84375 "/>
</g>
<mask id="mask3">
  <g filter="url(#alpha)">
<rect x="0" y="0" width="44" height="40" style="fill:rgb(0%,0%,0%);fill-opacity:0.2;stroke:none;"/>
  </g>
</mask>
<clipPath id="clip4">
  <rect x="0" y="0" width="44" height="40"/>
</clipPath>
<g id="surface14" clip-path="url(#clip4)">
<path style=" stroke:none;fill-rule:nonzero;fill:rgb(0%,0%,0%);fill-opacity:1;" d="M 6.808594 13.28125 C 6.46875 14.1875 6.195312 15.109375 5.980469 16.078125 L 43.507812 16.078125 C 43.292969 15.109375 43.019531 14.1875 42.679688 13.28125 C 42.679688 13.28125 6.808594 13.28125 6.808594 13.28125 Z M 5.597656 18.875 C 5.582031 19.109375 5.582031 19.34375 5.566406 19.578125 C 5.597656 20.285156 5.65625 20.984375 5.75 21.671875 L 43.738281 21.671875 C 43.832031 20.984375 43.894531 20.285156 43.921875 19.578125 C 43.90625 19.34375 43.90625 19.109375 43.894531 18.875 C 43.894531 18.875 5.597656 18.875 5.597656 18.875 Z M 6.332031 24.46875 C 6.609375 25.4375 6.976562 26.359375 7.390625 27.265625 L 42.097656 27.265625 C 42.511719 26.359375 42.878906 25.4375 43.15625 24.46875 C 43.15625 24.46875 6.332031 24.46875 6.332031 24.46875 Z M 6.332031 24.46875 "/>
</g>
<mask id="mask4">
  <g filter="url(#alpha)">
<rect x="0" y="0" width="44" height="40" style="fill:rgb(0%,0%,0%);fill-opacity:0.8;stroke:none;"/>
  </g>
</mask>
<clipPath id="clip5">
  <rect x="0" y="0" width="44" height="40"/>
</clipPath>
<g id="surface17" clip-path="url(#clip5)">
<path style=" stroke:none;fill-rule:nonzero;fill:rgb(100%,100%,100%);fill-opacity:1;" d="M 6.808594 12.578125 C 6.46875 13.484375 6.195312 14.421875 5.980469 15.375 L 43.507812 15.375 C 43.292969 14.421875 43.019531 13.484375 42.679688 12.578125 C 42.679688 12.578125 6.808594 12.578125 6.808594 12.578125 Z M 5.597656 18.171875 C 5.566406 18.640625 5.535156 19.09375 5.535156 19.578125 C 5.535156 20.046875 5.566406 20.5 5.597656 20.96875 L 43.894531 20.96875 C 43.921875 20.5 43.953125 20.046875 43.953125 19.578125 C 43.953125 19.09375 43.921875 18.640625 43.894531 18.171875 Z M 5.964844 23.765625 C 6.179688 24.734375 6.453125 25.65625 6.792969 26.5625 L 42.667969 26.5625 C 43.003906 25.65625 43.292969 24.734375 43.492188 23.765625 C 43.492188 23.765625 5.964844 23.765625 5.964844 23.765625 Z M 5.964844 23.765625 "/>
</g>
<mask id="mask5">
  <g filter="url(#alpha)">
<rect x="0" y="0" width="44" height="40" style="fill:rgb(0%,0%,0%);fill-opacity:0.101961;stroke:none;"/>
  </g>
</mask>
<clipPath id="clip6">
  <rect x="0" y="0" width="44" height="40"/>
</clipPath>
<g id="surface20" clip-path="url(#clip6)">
<path style=" stroke:none;fill-rule:nonzero;fill:rgb(100%,100%,100%);fill-opacity:1;" d="M 24.746094 0 C 14.105469 0 5.535156 8.734375 5.535156 19.578125 C 5.535156 19.652344 5.539062 19.722656 5.550781 19.796875 C 5.796875 9.171875 14.257812 0.703125 24.746094 0.703125 C 35.230469 0.703125 43.707031 9.1875 43.9375 19.8125 C 43.953125 19.734375 43.953125 19.65625 43.953125 19.578125 C 43.953125 8.734375 35.382812 0 24.746094 0 Z M 24.746094 0 "/>
</g>
</defs>
<g id="surface1">
<use xlink:href="#surface5" mask="url(#mask0)"/>
<path style=" stroke:none;fill-rule:nonzero;fill:rgb(100%,67.058825%,18.82353%);fill-opacity:1;" d="M 0.046875 17.5 C 0.046875 7.828125 7.726562 0 17.214844 0 L 21.292969 0 C 30.785156 0 38.464844 7.828125 38.464844 17.5 L 38.464844 21.640625 C 38.464844 31.3125 30.785156 39.140625 21.292969 39.140625 L 17.214844 39.140625 C 7.726562 39.140625 0.046875 31.3125 0.046875 21.640625 Z M 0.046875 17.5 "/>
<use xlink:href="#surface8" mask="url(#mask1)"/>
<use xlink:href="#surface11" mask="url(#mask2)"/>
<path style=" stroke:none;fill-rule:nonzero;fill:rgb(36.862746%,25.098041%,58.431375%);fill-opacity:1;" d="M 5.535156 17.5 C 5.535156 7.828125 13.214844 0 22.707031 0 L 26.785156 0 C 36.273438 0 43.953125 7.828125 43.953125 17.5 L 43.953125 21.640625 C 43.953125 31.3125 36.273438 39.140625 26.785156 39.140625 L 22.707031 39.140625 C 13.214844 39.140625 5.535156 31.3125 5.535156 21.640625 Z M 5.535156 17.5 "/>
<use xlink:href="#surface14" mask="url(#mask3)"/>
<use xlink:href="#surface17" mask="url(#mask4)"/>
<use xlink:href="#surface20" mask="url(#mask5)"/>
</g>
</svg>
