<svg version="1.2" xmlns="http://www.w3.org/2000/svg" viewBox="0 0 286 256" width="286" height="256">
	<title>eclipse-svg</title>
	<style>
		.s0 { opacity: .2;fill: #000000 } 
		.s1 { fill: #ffab30 } 
		.s2 { opacity: .2;fill: #ffffff } 
		.s3 { fill: #5e4095 } 
		.s4 { opacity: .8;fill: #ffffff } 
		.s5 { opacity: .1;fill: #ffffff } 
	</style>
	<path id="Layer" class="s0" d="m0.2 126.3c0 1.5-0.2 3-0.2 4.5 0 69.4 55.8 125.2 125.1 125.2 69.3 0 125.1-55.8 125.1-125.2 0-1.5-0.1-3-0.2-4.5-2.3 67.3-57.1 120.8-124.9 120.8-67.8 0-122.5-53.5-124.9-120.8z"/>
	<path id="Layer" class="s1" d="m0 126.1c0-69 56-125 125-125h0.3c69 0 125 56 125 125v0.4c0 69.1-56 125-125 125h-0.3c-69 0-125-55.9-125-125z"/>
	<path id="Layer" class="s2" d="m125.1 1.1c-69.3 0-125.1 55.9-125.1 125.2 0 0.5 0.1 1 0.1 1.5 1.6-67.9 56.7-122.2 125-122.2 68.3 0 123.5 54.3 125.1 122.2 0-0.5 0.1-1 0.1-1.5 0-69.3-55.9-125.2-125.2-125.2z"/>
	<path id="Layer" class="s0" d="m160.9 256c-69.3 0-125.2-55.8-125.2-125.2 0-1.5 0.2-3 0.3-4.5 2.3 67.3 57.1 120.8 124.9 120.8 67.8 0 122.5-53.5 124.9-120.8 0 1.5 0.2 3 0.2 4.5 0 69.4-55.8 125.2-125.1 125.2z"/>
	<path id="Layer" class="s3" d="m35.8 126.1c0-69 55.9-125 125-125h0.2c69 0 125 56 125 125v0.4c0 69.1-56 125-125 125h-0.2c-69.1 0-125-55.9-125-125z"/>
	<path id="Layer" class="s0" d="m44.1 86.1c-2.2 5.8-4.1 11.7-5.4 17.9h244.4c-1.4-6.2-3.2-12.1-5.4-17.9 0 0-233.6 0-233.6 0zm-7.9 35.8c-0.1 1.4-0.1 2.9-0.2 4.4q0.2 6.8 1.2 13.4h247.4q0.9-6.6 1.2-13.4c-0.1-1.5-0.2-3-0.3-4.4 0 0-249.3 0-249.3 0zm4.8 35.7c1.8 6.2 4.2 12.2 6.9 17.9h226c2.7-5.7 5.1-11.7 6.9-17.9 0 0-239.8 0-239.8 0z"/>
	<path id="Layer" class="s4" d="m44.1 81.6c-2.2 5.8-4.1 11.7-5.4 17.9h244.4c-1.4-6.2-3.2-12.1-5.4-17.9 0 0-233.6 0-233.6 0zm-7.9 35.8c-0.2 3-0.5 5.9-0.5 8.9 0 3 0.3 6 0.5 9h249.3c0.2-3 0.5-6 0.5-9 0-3-0.3-5.9-0.5-8.9zm2.5 35.8c1.3 6.1 3.2 12.1 5.4 17.8h233.6c2.2-5.7 4.1-11.7 5.4-17.8 0 0-244.4 0-244.4 0z"/>
	<path id="Layer" class="s5" d="m160.9 1.1c-69.3 0-125.2 55.9-125.2 125.2q0.1 0.8 0.1 1.5c1.6-68 56.8-122.2 125.1-122.2 68.3 0 123.4 54.3 125 122.2 0-0.5 0.1-1 0.1-1.5 0-69.3-55.8-125.2-125.1-125.2z"/>
</svg>