<svg version="1.2" xmlns="http://www.w3.org/2000/svg" viewBox="0 0 287 256" width="287" height="256">
	<title>eclipse-svg</title>
	<style>
		.s0 { opacity: .2;fill: #000000 } 
		.s1 { fill: #ffab30 } 
		.s2 { opacity: .2;fill: #ffffff } 
		.s3 { fill: #5e4095 } 
		.s4 { opacity: .8;fill: #ffffff } 
		.s5 { opacity: .1;fill: #ffffff } 
	</style>
	<path id="Layer" class="s0" d="m0.5 125.3c0 1.5-0.2 2.9-0.2 4.4 0 69.4 55.9 125.3 125.3 125.3 69.4 0 125.3-55.9 125.3-125.3 0-1.5-0.2-2.9-0.2-4.4-2.4 67.3-57.2 120.8-125.1 120.8-67.9 0-122.7-53.5-125.1-120.8z"/>
	<path id="Layer" class="s1" d="m0.3 112c0-61.9 50.1-112 112-112h26.6c61.9 0 112 50.1 112 112v26.5c0 61.9-50.1 112-112 112h-26.6c-61.9 0-112-50.1-112-112z"/>
	<path id="Layer" class="s2" d="m125.6 0c-69.4 0-125.3 55.9-125.3 125.3 0 0.5 0 1 0.1 1.5 1.5-68 56.8-122.3 125.2-122.3 68.4 0 123.7 54.3 125.2 122.3 0.1-0.5 0.1-1 0.1-1.5 0-69.4-55.9-125.3-125.3-125.3z"/>
	<path id="Layer" class="s0" d="m161.4 255c-69.4 0-125.3-55.9-125.3-125.3 0-1.5 0.2-2.9 0.2-4.4 2.4 67.3 57.2 120.8 125.1 120.8 67.9 0 122.7-53.5 125.1-120.8 0 1.5 0.2 2.9 0.2 4.4 0 69.4-55.9 125.3-125.3 125.3z"/>
	<path id="Layer" class="s3" d="m36.1 112c0-61.9 50.1-112 112-112h26.6c61.9 0 112 50.1 112 112v26.5c0 61.9-50.1 112-112 112h-26.6c-61.9 0-112-50.1-112-112z"/>
	<path id="Layer" class="s0" d="m44.4 85c-2.2 5.8-4 11.7-5.4 17.9h244.8c-1.4-6.2-3.2-12.1-5.4-17.9 0 0-234 0-234 0zm-7.9 35.8c-0.1 1.5-0.1 3-0.2 4.5q0.3 6.8 1.2 13.4h247.8q0.9-6.6 1.2-13.4c-0.1-1.5-0.1-3-0.2-4.5 0 0-249.8 0-249.8 0zm4.8 35.8c1.8 6.2 4.2 12.1 6.9 17.9h226.4c2.7-5.8 5.1-11.7 6.9-17.9 0 0-240.2 0-240.2 0z"/>
	<path id="Layer" class="s4" d="m44.4 80.5c-2.2 5.8-4 11.8-5.4 17.9h244.8c-1.4-6.1-3.2-12.1-5.4-17.9 0 0-234 0-234 0zm-7.9 35.8c-0.2 3-0.4 5.9-0.4 9 0 3 0.2 5.9 0.4 8.9h249.8c0.2-3 0.4-5.9 0.4-8.9 0-3.1-0.2-6-0.4-9zm2.4 35.8c1.4 6.2 3.2 12.1 5.4 17.9h234c2.2-5.8 4.1-11.7 5.4-17.9 0 0-244.8 0-244.8 0z"/>
	<path id="Layer" class="s5" d="m161.4 0c-69.4 0-125.3 55.9-125.3 125.3q0 0.7 0.1 1.4c1.6-68 56.8-122.2 125.2-122.2 68.4 0 123.7 54.3 125.2 122.3 0.1-0.5 0.1-1 0.1-1.5 0-69.4-55.9-125.3-125.3-125.3z"/>
</svg>