<svg version="1.2" xmlns="http://www.w3.org/2000/svg" viewBox="0 0 257 256" width="257" height="256">
	<title>eli5-svg</title>
	<defs>
		<clipPath clipPathUnits="userSpaceOnUse" id="cp1">
			<path d="m0.64 0h255.72v256h-255.72z"/>
		</clipPath>
	</defs>
	<style>
		.s0 { fill: #450671 } 
	</style>
	<g id="Clip-Path" clip-path="url(#cp1)">
		<g id="Layer">
			<path id="Layer" fill-rule="evenodd" class="s0" d="m129.6 0l1.6 6c0.9 3.3 2.4 9.4 3.3 13.4 0.9 4.1 2.2 10 2.9 13.1 0.8 3.2 1.9 8.3 2.6 11.5 0.8 3.1 2.1 9 2.9 13.1 0.9 4.1 2.2 9.1 2.8 11.3 0.7 2.1 1.2 5 1.2 6.4 0 2.3-1.3 2.5-16.9 2.5-12.6 0-17.3-0.5-18.4-1.9-0.9-1-1.2-2.8-0.7-4 0.7-1.8 3.1-2.2 13.7-2.2 11.3 0 12.8-0.3 12.8-2.4-0.1-1.2-1.3-7.1-2.8-12.9-1.5-5.8-2.7-11.4-2.7-12.4 0-0.9-0.7-3.4-1.5-5.5-1.5-3.7-1.6-3.5-3.9 5.5-1.2 5.2-3.2 10-4.5 10.8-1.6 1-2.8 0.9-3.9-0.2-1.3-1.3-0.5-6.2 3.4-22.2 2.8-11.3 5.8-22.7 6.6-25.2zm-91.4 36.9c0.4 0 5.5 2.9 11.4 6.5 5.8 3.5 15 9.2 20.2 12.5 5.3 3.4 15.3 9.7 22.2 14 6.9 4.3 12.6 8.2 12.6 8.6 0 0.5-5.5 6.2-12.3 12.9l-12.2 12-2.9-2.8-2.8-2.8 9.5-9.4 9.4-9.5-7.6-4.4c-4.2-2.5-11.1-6.7-15.2-9.4-4.1-2.7-8.3-5.3-9.2-5.9-1-0.5 0 1.9 2.1 5.5 2.2 3.6 4.7 7.8 5.7 9.3 1 1.6 1.4 3.9 1 5.1-0.5 1.2-2 2.2-3.4 2.2-1.8 0-5.6-5.3-13.2-17.8-5.9-9.8-11.9-19.8-13.3-22.2-1.5-2.4-2.4-4.4-2-4.4zm182.2 1.4c0.3 0.6-2.2 5.2-5.5 10.3-3.3 5-9.1 14-12.9 19.9-3.8 5.9-10.4 16.1-14.7 22.7l-7.8 12-5.5-5.3c-3-2.8-8.4-8.1-11.9-11.7-3.4-3.6-6.3-7.6-6.3-8.8 0-1.2 1.2-2.4 2.6-2.6 1.7-0.3 5.5 2.3 11.2 8 4.8 4.6 8.9 8.1 9.2 7.8 0.3-0.3 4.7-7.1 9.8-15.1 5.1-7.9 9-14.7 8.6-15.1-0.3-0.3-4.1 1.6-8.3 4.2-5.4 3.3-8.7 4.5-10.6 3.9-1.7-0.5-2.7-1.8-2.4-3.1 0.2-1.3 10.2-8.1 22.3-15.2 12-7.1 22-12.5 22.2-11.9zm-91.4 49.8c2.5-0.1 7.8 0.8 11.8 2 4 1.1 9.8 3.9 12.9 6 3 2.2 7.3 6.5 9.6 9.5 2.2 3 5 8.7 6.1 12.7 1.2 3.9 2.1 8.8 2.1 10.9 0 2.1-0.9 6.8-2 10.4-1.1 3.6-3.3 8.6-4.9 11.1-1.5 2.5-5.3 6.6-8.4 9.2-3.1 2.6-8.9 6-12.9 7.4-4.1 1.5-9.9 2.7-13 2.7-3 0-8.1-0.7-11.2-1.6-3.1-0.8-8-3-10.9-4.8-2.9-1.8-7.4-5.5-9.9-8.2-2.6-2.7-5.8-8.1-7.3-12-1.5-3.9-2.8-10-2.8-13.6 0-3.5 0.7-8.5 1.5-11 0.8-2.5 2.4-6.4 3.6-8.6 1.2-2.2 4.1-6 6.4-8.5 2.3-2.5 6.3-5.7 8.8-7.2 2.5-1.6 7.1-3.6 10.2-4.6 3.2-0.9 7.8-1.8 10.3-1.8zm56.8 23c2.6 0.4 2.8 1.5 3.2 12.9 0.3 11.4 0.6 12.4 3.1 12.4 1.5 0 7.1-1.1 12.6-2.5 5.4-1.4 12.1-3 15-3.4 2.8-0.5 5.1-1.4 5.1-2 0-0.5-4.1-1.8-9-2.9-5.3-1.1-9.4-2.7-10.1-4-0.7-1.2-0.7-3-0.1-4 1-1.5 5.5-0.8 24.9 3.9 13 3.2 24.5 6.2 25.5 6.8 1.2 0.6-0.3 1.5-4.1 2.4-3.3 0.8-8.7 2.1-12.1 2.8-3.4 0.8-9.2 2.1-13 2.9-3.7 0.9-9.3 2.1-12.3 2.8-3 0.6-10.8 2.4-17.3 3.9-6.5 1.5-12.8 2.7-14 2.7-1.8 0-2.1-2.4-2.1-16.6 0-9.1 0.4-17 1-17.5 0.5-0.5 2.2-0.8 3.7-0.6zm-112.2 1.2l3.8-0.1-0.4 17.2-0.4 17.1h-3.4c-3.4 0-3.4-0.1-3.8-13l-0.4-12.9-11.2 2.5c-6.1 1.4-14.2 3.2-17.9 3.9-3.7 0.8-7 1.6-7.3 1.9-0.3 0.3 2.7 1.5 6.7 2.6 4 1.1 8.5 2.2 10 2.5 1.5 0.2 3 1.5 3.2 2.9 0.3 1.4-0.1 3.1-0.8 3.8-0.9 0.8-9.5-0.7-24.2-4.3-12.5-3-24.1-6-25.6-6.6-2.3-0.8-1.6-1.3 3.9-2.7 3.7-0.9 9.1-2.1 12.1-2.8 3-0.6 8.3-1.8 11.6-2.5 3.4-0.8 9.3-2.1 13-2.9 3.8-0.8 11.4-2.6 17.1-4 5.6-1.3 11.9-2.5 14-2.6zm6.5 41.6c0.5 0 6.2 5.4 12.8 12 10.6 10.7 11.7 12.4 10.4 14.8-0.8 1.5-2.2 2.8-3.1 2.8-0.9 0-5.7-4-10.7-8.9l-9.1-8.9-4.7 7.9c-2.6 4.3-7 11.4-9.8 15.6-2.8 4.3-4.7 7.7-4.2 7.7 0.5 0 4.6-2.1 9.1-4.7 4.6-2.7 9.1-4.5 10.1-4.1 1 0.4 1.9 1.8 1.9 3.3 0 1.8-5.8 6-21.8 15.5-12 7.1-22.1 12.9-22.6 12.9-0.4 0 0.9-2.9 3-6.4 2-3.5 7.8-12.5 12.7-20 4.9-7.4 12.6-19.4 17.1-26.5 4.5-7.1 8.5-12.9 8.9-13zm100.3 0.3c1.5 0.2 2.9 1.5 3.2 2.8 0.3 1.5-2.6 5.4-7.5 10.5-4.4 4.4-8.1 8.5-8.3 9-0.2 0.5 1.3 1.9 3.4 3.1 2.1 1.2 8.9 5.3 15.2 9.1 6.3 3.9 11.6 6.8 11.8 6.6 0.3-0.2-1.7-3.7-4.3-7.8-2.6-4-4.5-8.6-4.3-10.1 0.2-1.6 1.4-2.7 3-2.7 2 0 6.1 5.6 15.9 21.6 7.3 11.8 12.8 21.7 12.1 21.9-0.6 0.3-4.7-1.9-9.1-4.8-4.3-2.9-11.9-7.7-16.8-10.7-4.8-2.9-15.4-9.4-23.5-14.4-8-4.9-15-9.6-15.5-10.4-0.5-0.8 4.3-6.5 10.5-12.7 7.9-7.8 12.3-11.3 14.2-11zm-51.5 25.6l17.4 0.3v3.4c0 3.3-0.2 3.4-13.2 3.7l-13.2 0.4 1.2 4.3c0.6 2.4 2.4 9.5 3.9 15.8 1.5 6.3 2.9 12.6 3.2 14.1 0.4 1.8 1.1 0.8 2.3-3.3 1-3.4 2.4-8.1 3.1-10.5 1-3.3 2-4.3 4.6-4.3 2.3 0 3.3 0.7 3.3 2.5 0 1.4-2.5 12.4-5.6 24.5-3 12.1-5.8 22.9-6.1 23.9-0.4 1.1-0.9 1.6-1.3 1.3-0.4-0.4-1.3-3.9-2.2-8-0.8-4-1.9-9.4-2.5-12-0.6-2.5-3.6-15.7-6.7-29.2-3.1-13.5-5.6-25.2-5.6-25.9 0-0.9 6-1.3 17.4-1z"/>
		</g>
	</g>
</svg>