<svg version="1.2" xmlns="http://www.w3.org/2000/svg" viewBox="0 0 260 256" width="260" height="256">
	<title>fedora-svg</title>
	<style>
		.s0 { fill: #51a2da } 
		.s1 { fill: #ffffff } 
	</style>
	<g id="Layer">
		<path id="Layer" class="s0" d="m129.6 1.9c-71.5 0-129.4 56.8-129.6 126.9v98.3c0.1 15.9 13.2 28.8 29.5 28.8h100.1c71.5-0.1 129.4-56.9 129.4-126.9 0-70.2-58-127-129.5-127z"/>
		<path id="Layer" class="s1" d="m155.9 54.1c-20.2 0-38.1 14.9-40.5 34.5-0.2 1.6-0.2 2.8-0.2 4.3v80c0 15.3-11.7 25.7-26.4 25.7-14.6 0-26.4-11.4-26.4-25.8 0.2-15.7 13-25.7 28-26.1h0.1l15.2-0.1v-21.1l-15.2 0.1c-27.3-0.3-48.9 20.7-49.7 47.3 0 25.8 21.7 46.9 48 46.9 24.9 0 45.5-19 47.8-42.8 0.3-8.1 0.1-18.8 0.1-18.8 0.1-4.4 0-2.8 0-11.5l18.9-0.2c14.6 0.1 14.4-21.4-0.2-21.1l-18.7 0.1c0-10.8 0.2-21.6 0-32.5 0-9.4 9.1-17.7 19.2-17.7 10.1 0 20.7 4.9 20.7 17.7 0 1.8 0 2.9-0.1 3.6-1.1 5.9 3 11.6 9.1 12.4 6 0.9 11.6-3.5 12.2-9.4 0.4-2.4 0.4-4.5 0.4-6.6 0-22.5-20.6-38.8-42.3-38.8z"/>
	</g>
</svg>