<svg version="1.2" xmlns="http://www.w3.org/2000/svg" viewBox="0 0 261 256" width="261" height="256">
	<title>fedora-svg</title>
	<style>
		.s0 { fill: #51a2da } 
		.s1 { fill: #ffffff } 
	</style>
	<g id="Layer">
		<path id="Layer" class="s0" d="m130.3 0.4c-71.9 0-130.1 57.1-130.3 127.7v98.8c0.1 16 13.3 29 29.6 29h100.7c72-0.1 130.2-57.2 130.2-127.7 0-70.6-58.3-127.7-130.3-127.7z"/>
		<path id="Layer" class="s1" d="m156.8 52.9c-20.3 0-38.3 15-40.8 34.7-0.1 1.6-0.2 2.8-0.2 4.3v80.5c0 15.4-11.7 25.9-26.5 25.9-14.7 0-26.6-11.6-26.6-26 0.3-15.8 13.2-25.8 28.2-26.2h0.1l15.3-0.2v-21.2l-15.3 0.1c-27.4-0.3-49.2 20.8-50 47.6 0 26 21.9 47.2 48.3 47.2 25 0 45.8-19.1 48.1-43.1 0.3-8.1 0.1-18.9 0.1-18.9 0.1-4.4 0-2.8 0-11.6l19-0.1c14.7 0.1 14.5-21.6-0.2-21.3l-18.8 0.1c0-10.9 0.2-21.7 0-32.7 0-9.4 9.2-17.8 19.3-17.8 10.1 0 20.8 5 20.8 17.8 0 1.9 0 2.9-0.1 3.6-1.1 6 3 11.7 9.1 12.5 6.2 0.9 11.8-3.5 12.4-9.5 0.3-2.4 0.3-4.5 0.3-6.6 0-22.6-20.6-39-42.5-39z"/>
	</g>
</svg>