<svg version="1.2" xmlns="http://www.w3.org/2000/svg" viewBox="0 0 218 256" width="218" height="256">
	<title>firestore-svg</title>
	<style>
		.s0 { fill: #ffc24a } 
		.s1 { fill: #f4bd62 } 
		.s2 { fill: #f6820c } 
		.s3 { fill: #fde068 } 
		.s4 { fill: #fcca3f } 
		.s5 { fill: #eeab37 } 
		.s6 { fill: #757575 } 
		.s7 { fill: #ffffff } 
	</style>
	<g id="Layer">
		<path id="Layer" class="s0" d="m-0.2 206.4l1.5-2.2 73.3-138.7 0.1-1.4-32.3-60.6c-2.7-5.1-10.3-3.8-11.2 1.9z"/>
		<path id="Layer" class="s1" d="m98.3 109.9l24-24.6-24-45.8c-2.3-4.3-8.7-4.3-11 0l-12.8 24.5v2.1z"/>
		<path id="Layer" class="s2" d="m-0.2 206.4l0.7-0.7 2.5-1 93.8-93.2 1.1-3.2-23.3-44.5z"/>
		<path id="Layer" class="s3" d="m101.3 253.4l84.8-47.2-24.2-148.9c-0.8-4.7-6.6-6.5-9.9-3.2l-152.2 152.3 84.4 47c5.2 3 11.8 3 17.1 0z"/>
		<path id="Layer" class="s4" d="m185.4 205.8l-24-147.7c-0.8-4.7-5.6-6.6-8.9-3.3l-151.8 151.3 83.4 46.5c5.3 3 11.7 3 17 0z"/>
		<path id="Layer" class="s5" d="m101.3 252c-5.3 3-11.9 3-17.2 0l-83.7-46.3-0.7 0.7 84.4 47c5.3 2.9 11.9 2.9 17.2 0l84.8-47.2-0.2-1.3z"/>
		<path id="Layer" class="s6" d="m216.9 205c-4.9 30.1-33.2 50.4-63.3 45.6-30.1-4.9-50.5-33.1-45.6-63.2 4.8-30 33.1-50.4 63.2-45.5 30.2 4.9 50.6 33.1 45.7 63.1z"/>
		<path id="Layer" class="s7" d="m137.5 181.3l24.5-12.4 25.2 12.4v12.6l-25.2-12.5-24.5 12.5z"/>
		<path id="Layer" class="s7" d="m137.5 202.8l24.5-12.5 25.2 12.5v12.5l-25.2-12.5-24.5 12.5z"/>
		<path id="Layer" class="s7" d="m162.1 215l7.1-3.3 12.6 5.8-19.7 9.4z"/>
	</g>
</svg>