<svg version="1.2" xmlns="http://www.w3.org/2000/svg" viewBox="0 0 218 256" width="218" height="256">
	<title>firestore-svg</title>
	<style>
		.s0 { fill: #ffc24a } 
		.s1 { fill: #f4bd62 } 
		.s2 { fill: #f6820c } 
		.s3 { fill: #fde068 } 
		.s4 { fill: #fcca3f } 
		.s5 { fill: #eeab37 } 
		.s6 { fill: #757575 } 
		.s7 { fill: #ffffff } 
	</style>
	<g id="Layer">
		<path id="Layer" class="s0" d="m0.5 206.4l1.5-2.2 73-138.7 0.2-1.4-32.2-60.6c-2.8-5.1-10.3-3.8-11.2 1.9z"/>
		<path id="Layer" class="s1" d="m98.7 109.9l23.9-24.6-23.9-45.8c-2.3-4.3-8.7-4.3-10.9 0l-12.8 24.5v2.1z"/>
		<path id="Layer" class="s2" d="m0.5 206.4l0.7-0.7 2.5-1 93.5-93.2 1.1-3.2-23.3-44.5z"/>
		<path id="Layer" class="s3" d="m101.7 253.4l84.5-47.2-24.2-148.9c-0.7-4.7-6.5-6.5-9.7-3.2l-151.8 152.3 84.1 47c5.3 3 11.8 3 17.1 0z"/>
		<path id="Layer" class="s4" d="m185.5 205.8l-24-147.7c-0.7-4.7-5.5-6.6-8.8-3.3l-151.3 151.3 83.1 46.5c5.3 3 11.7 3 17 0z"/>
		<path id="Layer" class="s5" d="m101.7 252c-5.3 3-11.8 3-17.2 0l-83.4-46.3-0.7 0.7 84.1 47c5.4 2.9 11.9 2.9 17.2 0l84.5-47.2-0.2-1.3z"/>
		<path id="Layer" class="s6" d="m216.9 205c-4.9 30.1-33.1 50.4-63.1 45.6-30-4.9-50.3-33.1-45.5-63.2 4.9-30 33.1-50.4 63.1-45.5 30 4.9 50.3 33.1 45.5 63.1z"/>
		<path id="Layer" class="s7" d="m137.7 181.3l24.5-12.4 25.1 12.4v12.6l-25.1-12.5-24.5 12.5z"/>
		<path id="Layer" class="s7" d="m137.7 202.8l24.5-12.5 25.1 12.5v12.5l-25.1-12.5-24.5 12.5z"/>
		<path id="Layer" class="s7" d="m162.2 215l7.2-3.3 12.5 5.8-19.7 9.4z"/>
	</g>
</svg>