<?xml version="1.0" encoding="UTF-8"?>
<svg xmlns="http://www.w3.org/2000/svg" xmlns:xlink="http://www.w3.org/1999/xlink" width="px" height="40px" viewBox="0 0 40 40" version="1.1">
<g id="surface1">
<path style=" stroke:none;fill-rule:nonzero;fill:rgb(95.294118%,30.980393%,16.078432%);fill-opacity:1;" d="M 38.984375 18.25 L 21.75 1.015625 C 20.765625 0.03125 19.15625 0.03125 18.15625 1.015625 L 14.59375 4.59375 L 19.125 9.140625 C 20.171875 8.78125 21.390625 9.015625 22.234375 9.859375 C 23.078125 10.703125 23.3125 11.921875 22.9375 12.984375 L 27.3125 17.359375 C 28.375 16.984375 29.59375 17.21875 30.4375 18.0625 C 31.625 19.25 31.625 21.15625 30.4375 22.34375 C 30.15625 22.625 29.828125 22.84375 29.453125 23 C 29.09375 23.15625 28.703125 23.234375 28.296875 23.234375 C 27.90625 23.234375 27.515625 23.15625 27.140625 23 C 26.78125 22.84375 26.453125 22.625 26.171875 22.34375 C 25.953125 22.136719 25.777344 21.902344 25.640625 21.640625 C 25.496094 21.371094 25.394531 21.089844 25.34375 20.796875 C 25.28125 20.503906 25.265625 20.214844 25.296875 19.921875 C 25.328125 19.621094 25.394531 19.332031 25.5 19.0625 L 21.421875 14.984375 L 21.421875 25.703125 C 21.503906 25.746094 21.578125 25.785156 21.640625 25.828125 C 21.714844 25.871094 21.785156 25.917969 21.859375 25.96875 C 21.921875 26.011719 21.984375 26.058594 22.046875 26.109375 C 22.109375 26.160156 22.171875 26.21875 22.234375 26.28125 C 23.40625 27.46875 23.40625 29.375 22.234375 30.5625 C 21.046875 31.734375 19.140625 31.734375 17.953125 30.5625 C 16.765625 29.375 16.765625 27.46875 17.953125 26.28125 C 18.027344 26.207031 18.097656 26.140625 18.171875 26.078125 C 18.253906 26.015625 18.339844 25.957031 18.421875 25.90625 C 18.503906 25.84375 18.589844 25.792969 18.671875 25.75 C 18.765625 25.699219 18.855469 25.65625 18.9375 25.625 L 18.9375 14.796875 C 18.855469 14.753906 18.765625 14.714844 18.671875 14.671875 C 18.589844 14.621094 18.503906 14.566406 18.421875 14.515625 C 18.339844 14.453125 18.253906 14.390625 18.171875 14.328125 C 18.097656 14.265625 18.027344 14.199219 17.953125 14.125 C 17.0625 13.234375 16.84375 11.921875 17.296875 10.828125 L 12.828125 6.359375 L 1.015625 18.15625 C 0.78125 18.40625 0.59375 18.671875 0.46875 18.984375 C 0.34375 19.296875 0.28125 19.625 0.28125 19.953125 C 0.28125 20.296875 0.34375 20.625 0.46875 20.9375 C 0.59375 21.234375 0.78125 21.515625 1.015625 21.75 L 18.25 38.984375 C 19.234375 39.96875 20.84375 39.96875 21.84375 38.984375 L 38.984375 21.84375 C 39.21875 21.59375 39.40625 21.328125 39.53125 21.015625 C 39.65625 20.703125 39.71875 20.375 39.71875 20.046875 C 39.71875 19.703125 39.65625 19.375 39.53125 19.0625 C 39.40625 18.765625 39.21875 18.484375 38.984375 18.25 Z M 38.984375 18.25 "/>
</g>
</svg>
