<svg version="1.2" xmlns="http://www.w3.org/2000/svg" viewBox="0 0 256 256" width="256" height="256">
	<title>git-svg</title>
	<style>
		.s0 { fill: #f34f29 } 
	</style>
	<path id="Layer" class="s0" d="m249.5 116.8l-110.3-110.3c-6.3-6.3-16.6-6.3-23 0l-22.8 22.9 29 29.1c6.7-2.3 14.5-0.8 19.9 4.6 5.4 5.4 6.9 13.2 4.5 20l28 28c6.8-2.4 14.6-0.9 20 4.5 7.6 7.6 7.6 19.8 0 27.4-1.8 1.8-3.9 3.2-6.3 4.2-2.3 1-4.8 1.5-7.4 1.5-2.5 0-5-0.5-7.4-1.5-2.3-1-4.4-2.4-6.2-4.2q-2.1-2-3.4-4.5-1.4-2.6-1.9-5.4-0.6-2.8-0.3-5.6 0.3-2.9 1.3-5.5l-26.1-26.1v68.6q0.8 0.4 1.4 0.8 0.7 0.4 1.4 0.9 0.6 0.4 1.2 0.9 0.6 0.5 1.2 1.1c7.5 7.6 7.5 19.8 0 27.4-7.6 7.5-19.8 7.5-27.4 0-7.6-7.6-7.6-19.8 0-27.4q0.7-0.7 1.4-1.3 0.8-0.6 1.6-1.1 0.8-0.6 1.6-1 0.9-0.5 1.7-0.8v-69.3q-0.8-0.4-1.7-0.8-0.8-0.5-1.6-1-0.8-0.6-1.6-1.2-0.7-0.6-1.4-1.3c-5.7-5.7-7.1-14.1-4.2-21.1l-28.6-28.6-75.6 75.5c-1.5 1.6-2.7 3.3-3.5 5.3-0.8 2-1.2 4.1-1.2 6.2 0 2.2 0.4 4.3 1.2 6.3 0.8 1.9 2 3.7 3.5 5.2l110.3 110.3c6.3 6.3 16.6 6.3 23 0l109.7-109.7c1.5-1.6 2.7-3.3 3.5-5.3 0.8-2 1.2-4.1 1.2-6.2 0-2.2-0.4-4.3-1.2-6.3-0.8-1.9-2-3.7-3.5-5.2z"/>
</svg>