<svg version="1.2" xmlns="http://www.w3.org/2000/svg" viewBox="0 0 256 256" width="256" height="256">
	<title>githubactions-svg</title>
	<style>
		.s0 { fill: #ffffff } 
		.s1 { fill: #4a7ebf } 
		.s2 { fill: #85b3df } 
	</style>
	<g id="Layer">
		<path id="Shape 1" class="s0" d="m53 103c-27.7 0-50-22.3-50-50 0-27.7 22.3-50 50-50 27.7 0 50 22.3 50 50 0 27.7-22.3 50-50 50z"/>
		<path id="Shape 2" class="s0" d="m123 165c-17.7 0-32-14.3-32-32 0-17.7 14.3-32 32-32 17.7 0 32 14.3 32 32 0 17.7-14.3 32-32 32z"/>
		<path id="Shape 3" class="s0" d="m219 163c-17.7 0-32-14.3-32-32 0-17.7 14.3-32 32-32 17.7 0 32 14.3 32 32 0 17.7-14.3 32-32 32zm-96 87c-17.7 0-32-14.3-32-32 0-17.7 14.3-32 32-32 17.7 0 32 14.3 32 32 0 17.7-14.3 32-32 32z"/>
		<path id="Shape 4" class="s0" d="m219 250c-17.7 0-32-14.3-32-32 0-17.7 14.3-32 32-32 17.7 0 32 14.3 32 32 0 17.7-14.3 32-32 32z"/>
		<path id="Layer" fill-rule="evenodd" class="s1" d="m53.6 0c29.6 0 53.6 24 53.6 53.6 0 29.1-23.2 52.7-52.1 53.5 0 2.5 0.1 7.2 1.5 10 1.9 3.9 13.5 11.1 24.9 11.1h4.1c2.6-18.3 18.2-32.3 37.2-32.3 18.9 0 34.6 13.9 37.2 32.1h21.2c2.6-18.2 18.3-32.1 37.2-32.1 20.8 0 37.6 16.8 37.6 37.6 0 20.8-16.8 37.6-37.6 37.6-18.9 0-34.6-14-37.2-32.1h-21.2c-2.6 18.1-18.3 32.1-37.2 32.1-18.8 0-34.5-13.9-37.2-32l-4.5 0.1c-7.4 0-15.3-2-21.6-6.3-1.7-1.2-3.4-2.4-5.2-3.6v2.5c0 0.8-0.1 12.6-0.1 25.8v2.8c0 8.6 0 17.5 0.3 24 0.4 14.3 12 25.8 24.8 28.5 1.6 0.3 4.5 0.4 6.3 0.2 2.6-18.3 18.3-32.3 37.2-32.3 20.8 0 37.6 16.8 37.6 37.6 0 20.8-16.8 37.6-37.6 37.6-18.7 0-34.3-13.7-37.1-31.7h-3.3c-24.4-1.3-39.6-23.8-39.3-41.9 0.3-22.9 0-45.8 0-68.7v-7.5c-24.6-4.9-43.1-26.6-43.1-52.6 0-29.6 24-53.6 53.6-53.6zm95.9 218.4c0-14.7-11.9-26.6-26.7-26.6-14.7 0-26.6 11.9-26.6 26.6 0 14.7 11.9 26.6 26.6 26.6 14.8 0 26.7-11.9 26.7-26.6zm0-84.9c0-14.7-11.9-26.6-26.7-26.6-14.7 0-26.6 11.9-26.6 26.6 0 14.7 11.9 26.6 26.6 26.6 14.8 0 26.7-11.9 26.7-26.6zm95.5 0c0-14.7-11.9-26.6-26.6-26.6-14.7 0-26.6 11.9-26.6 26.6 0 14.7 11.9 26.6 26.6 26.6 14.7 0 26.6-11.9 26.6-26.6zm-11.5-11.2c2.1 2.1 2.2 5.4 0.2 7.6l-0.1 0.2-16.4 16.3c-2 2.1-5.4 2.1-7.5 0.2l-0.2-0.2-8-7.8c-2.2-2.2-2.2-5.6 0-7.8 2-2.1 5.4-2.2 7.6-0.2l0.1 0.1 4.1 4.1 12.5-12.5c2.1-2.2 5.6-2.2 7.7 0zm-95.9-0.1c2 2.1 2.1 5.4 0.1 7.6l-0.1 0.2-16.3 16.3c-2.1 2.1-5.5 2.2-7.6 0.2l-0.2-0.2-8-7.8c-2.1-2.1-2.2-5.6 0-7.8 2-2.1 5.4-2.2 7.6-0.2l0.1 0.2 4.1 4 12.5-12.5c2.1-2.1 5.6-2.1 7.8 0zm-41.4-68.6c0-23.6-19-42.6-42.6-42.6-23.6 0-42.6 19-42.6 42.6 0 23.5 19 42.6 42.6 42.6 23.6 0 42.6-19.1 42.6-42.6zm-47-25.5q13.4 8.1 26.5 16.7c7.3 4.9 7.3 13.6-0.1 18.4q-13.3 8.8-27.1 16.7c-7.4 4.4-15.8-0.6-16-9.3-0.1-5.6 0-11.2 0-16.8 0-5.5-0.1-10.9 0-16.4 0.3-9.2 8.8-14 16.7-9.3zm-5.9 8.9v3.9q0 2.8 0 5.6v3.8 5.4c0 4.3 0 8.4 0 12.6 0 2 1 1.9 2.3 1.1q11.4-7.1 22.8-14.2c1.3-0.7 1.3-1.6 0.1-2.3-8.2-5.2-16.3-10.3-25.2-15.9z"/>
		<path id="Layer" class="s2" d="m133.2 223.9c-3 0-5.5-2.5-5.5-5.5 0-3.1 2.5-5.5 5.5-5.5 3.1 0 5.5 2.4 5.5 5.5 0 3-2.4 5.5-5.5 5.5z"/>
		<path id="Layer" class="s2" d="m112.2 223.9c-3.1 0-5.5-2.5-5.5-5.5 0-3.1 2.4-5.5 5.5-5.5 3 0 5.5 2.4 5.5 5.5 0 3-2.5 5.5-5.5 5.5z"/>
		<path id="Layer" fill-rule="evenodd" class="s2" d="m256 218.4c0 20.8-16.8 37.6-37.6 37.6-18.9 0-34.6-13.9-37.2-32.1h-6.2c-2.7 0-4.8-2.5-4.8-5.5 0-3 2.1-5.5 4.8-5.5h6.2c2.6-18.2 18.3-32.1 37.2-32.1 20.8 0 37.6 16.8 37.6 37.6zm-11 0c0-14.7-11.9-26.6-26.6-26.6-14.7 0-26.6 11.9-26.6 26.6 0 14.7 11.9 26.6 26.6 26.6 14.7 0 26.6-11.9 26.6-26.6z"/>
	</g>
</svg>