<svg version="1.2" xmlns="http://www.w3.org/2000/svg" viewBox="0 0 256 256" width="256" height="256">
	<title>github-svg</title>
	<style>
		.s0 { fill: #ffffff } 
		.s1 { fill: #000000 } 
	</style>
	<path id="Shape 1" class="s0" d="m128 256c-70.8 0-128-57.2-128-128 0-70.8 57.2-128 128-128 70.8 0 128 57.2 128 128 0 70.8-57.2 128-128 128z"/>
	<path id="Layer" class="s1" d="m103.5 7.6c-32.6 7.2-59.2 25.2-77.6 52.5-32.1 48.2-25.7 112.7 15.3 153.9 12.2 12.3 30.9 24.3 45 28.9 5.2 1.7 5.9 1.7 8.2 0.1 2.6-1.7 2.7-2.2 2.7-14.4v-12.6l-9.4 0.5c-11 0.6-19.5-1.4-24.7-5.7-1.8-1.5-5.3-6.7-7.7-11.3-4.1-7.9-7.1-11.6-15.4-18.9-2.8-2.5-2.9-2.6-1-4 4.6-3.4 13.9-0.1 19.8 7 10.2 12.4 14.2 15.7 20 17 5.2 1.1 10 0.7 17.3-1.5 1-0.3 2.2-2.5 2.9-5.1 0.6-2.4 2.3-6.2 3.7-8.2l2.6-3.7-8.7-1.7c-18.1-3.8-29.3-10.3-36.7-21.4-6.8-10.2-9-19.1-9.1-35.6 0-15.6 1.7-22 8.4-30.7 3-3.9 3.3-5 2.4-7.3-1.6-3.8-1.1-20 0.6-24.9 1.4-3.7 2.1-4.3 5-4.6 4.8-0.6 13.8 2.5 22.8 7.7l7.8 4.4 6.8-1.6c9.7-2.2 38.9-2.1 47.6 0l6.6 1.7 6.2-3.7c8.2-4.9 18.7-8.7 23.9-8.7 4.2 0 4.2 0.1 5.9 5.5 1.8 6.3 2.1 17.7 0.5 23.2-0.9 3.2-0.6 4.1 1.7 7.2 11.6 15.4 12.9 40.9 3.1 61.8-6.6 13.7-20.6 23.3-39.4 26.9l-8.9 1.7 3.3 5.8 3.4 6 0.3 23.8 0.4 23.8 2.7 1.7c2.5 1.6 3 1.6 8.1-0.2 8.6-2.9 23.2-10.8 31.2-16.9 47.5-35.6 62.9-99.5 36.6-152.6-15.5-31.3-44.7-55.3-78.2-64.2-14.6-3.9-42.2-4.7-56-1.6z"/>
</svg>