<svg version="1.2" xmlns="http://www.w3.org/2000/svg" viewBox="0 0 256 256" width="256" height="256">
	<title>github-svg</title>
	<style>
		.s0 { fill: #ffffff } 
		.s1 { fill: #181616 } 
	</style>
	<g id="Layer">
		<path id="Shape 1" class="s0" d="m127.7 255.5c-70.6 0-127.7-57.1-127.7-127.8 0-70.6 57.1-127.7 127.7-127.7 70.7 0 127.8 57.1 127.8 127.7 0 70.7-57.1 127.8-127.8 127.8z"/>
		<path id="Layer" fill-rule="evenodd" class="s1" d="m127.7 1.3c-69.8 0-126.4 56.6-126.4 126.4 0 55.9 36.2 103.3 86.5 120 6.3 1.2 8.6-2.7 8.6-6.1 0-3-0.1-12.9-0.2-23.5-35.2 7.6-42.6-14.9-42.6-14.9-5.7-14.6-14-18.5-14-18.5-11.5-7.9 0.8-7.7 0.8-7.7 12.7 0.9 19.4 13 19.4 13 11.3 19.3 29.6 13.8 36.8 10.5 1.2-8.1 4.4-13.7 8.1-16.9-28.1-3.2-57.7-14-57.7-62.5 0-13.8 5-25.1 13.1-33.9-1.3-3.2-5.7-16.1 1.2-33.5 0 0 10.6-3.4 34.8 13 10.1-2.8 20.9-4.2 31.6-4.3 10.8 0.1 21.6 1.5 31.7 4.3 24.2-16.4 34.8-13 34.8-13 6.8 17.4 2.5 30.3 1.2 33.5 8.1 8.8 13 20.1 13 33.9 0 48.6-29.6 59.3-57.7 62.4 4.5 3.9 8.5 11.6 8.5 23.4 0 16.9-0.1 30.6-0.1 34.7 0 3.4 2.3 7.3 8.7 6.1 50.2-16.7 86.4-64.1 86.4-120 0-69.8-56.6-126.4-126.5-126.4z"/>
		<path id="Layer" class="s1" d="m49.2 182.8c-0.3 0.7-1.3 0.8-2.2 0.4-0.9-0.4-1.4-1.3-1.1-1.9 0.2-0.6 1.2-0.8 2.2-0.4 0.9 0.4 1.4 1.3 1.1 1.9zm5.1 5.7c-0.6 0.6-1.8 0.3-2.6-0.5-0.8-0.9-1-2.1-0.4-2.7 0.7-0.5 1.8-0.3 2.6 0.6 0.9 0.9 1 2.1 0.4 2.6zm5 7.3c-0.8 0.6-2.1 0.1-2.8-1.1-0.8-1.1-0.8-2.4 0-3 0.8-0.5 2 0 2.8 1.1 0.8 1.1 0.8 2.5 0 3zm6.8 7.1c-0.7 0.7-2.2 0.5-3.2-0.5-1.1-1-1.4-2.5-0.8-3.3 0.8-0.7 2.2-0.5 3.3 0.5 1.1 1 1.5 2.5 0.7 3.3zm6.8 5.2c-1.5 0-2.6-0.9-2.6-1.9 0-1.1 1.1-2 2.6-2 1.5 0 2.7 0.9 2.7 2 0 1-1.2 1.9-2.7 1.9zm10.3 1.5c-1.5 0-2.7-0.8-2.7-1.9 0-1 1.2-1.8 2.7-1.8 1.5 0 2.7 0.8 2.7 1.8 0 1.1-1.2 1.9-2.7 1.9zm9.6-1.1c-1.5 0-2.7-0.9-2.7-2 0-1 1.2-1.9 2.7-1.9 1.5 0 2.7 0.9 2.7 1.9 0 1.1-1.2 2-2.7 2z"/>
	</g>
</svg>