<svg version="1.2" xmlns="http://www.w3.org/2000/svg" viewBox="0 0 276 256" width="276" height="256">
	<title>gitlab-svg</title>
	<style>
		.s0 { fill: #fc6d26 } 
		.s1 { fill: #e24329 } 
		.s2 { fill: #fca326 } 
	</style>
	<path id="Layer" class="s0" d="m275.4 145.1l-15.5-47.5-30.6-94.1c-1.5-4.8-8.4-4.8-9.9 0l-30.6 94.1h-101.6l-30.5-94.1c-1.6-4.8-8.5-4.8-10 0l-30.6 94.1-15.5 47.5q-0.5 1.6-0.5 3.3 0 1.6 0.5 3.2 0.6 1.6 1.5 2.9 1 1.4 2.4 2.4l133.5 97 133.5-97q1.4-1 2.4-2.4 0.9-1.3 1.5-2.9 0.5-1.6 0.5-3.2 0-1.7-0.5-3.3z"/>
	<path id="Layer" class="s1" d="m138 253.9l50.8-156.3h-101.6c0 0 50.8 156.3 50.8 156.3z"/>
	<path id="Layer" class="s0" d="m138 253.9l-50.8-156.3h-71.1c0 0 121.9 156.3 121.9 156.3z"/>
	<path id="Layer" class="s2" d="m16.1 97.6l-15.5 47.5q-0.5 1.6-0.5 3.3 0 1.6 0.5 3.2 0.6 1.6 1.5 2.9 1 1.4 2.4 2.4l133.5 97c0 0-121.9-156.3-121.9-156.3z"/>
	<path id="Layer" class="s1" d="m16.1 97.6h71.1l-30.5-94.1c-1.6-4.8-8.5-4.8-10 0 0 0-30.6 94.1-30.6 94.1z"/>
	<path id="Layer" class="s0" d="m138 253.9l50.8-156.3h71.1c0 0-121.9 156.3-121.9 156.3z"/>
	<path id="Layer" class="s2" d="m259.9 97.6l15.5 47.5q0.5 1.6 0.5 3.3 0 1.6-0.5 3.2-0.6 1.6-1.5 2.9-1 1.4-2.4 2.4l-133.5 97c0 0 121.9-156.3 121.9-156.3z"/>
	<path id="Layer" class="s1" d="m259.9 97.6h-71.1l30.6-94.1c1.5-4.8 8.4-4.8 10 0 0 0 30.5 94.1 30.5 94.1z"/>
</svg>