<svg version="1.2" xmlns="http://www.w3.org/2000/svg" viewBox="0 0 256 256" width="256" height="256">
	<title>gitlab-svg</title>
	<style>
		.s0 { fill: #fc6d26 } 
		.s1 { fill: #e24329 } 
		.s2 { fill: #fca326 } 
	</style>
	<path id="Layer" class="s0" d="m253.2 144.6l-14-43.3-27.9-85.8c-1.5-4.4-7.7-4.4-9.1 0l-27.9 85.8h-92.6l-27.9-85.8c-1.4-4.4-7.6-4.4-9.1 0l-27.9 85.8-14 43.3q-0.5 1.5-0.5 3 0 1.5 0.5 2.9 0.4 1.5 1.3 2.7 0.9 1.2 2.1 2.1l121.8 88.5 121.7-88.5q1.3-0.9 2.2-2.1 0.9-1.2 1.3-2.7 0.5-1.4 0.5-2.9 0-1.5-0.5-3z"/>
	<path id="Layer" class="s1" d="m128 243.8l46.3-142.5h-92.6c0 0 46.3 142.5 46.3 142.5z"/>
	<path id="Layer" class="s0" d="m128 243.8l-46.3-142.5h-64.9c0 0 111.2 142.5 111.2 142.5z"/>
	<path id="Layer" class="s2" d="m16.8 101.3l-14 43.3q-0.5 1.5-0.5 3 0 1.5 0.5 2.9 0.4 1.5 1.3 2.7 0.9 1.2 2.1 2.1l121.8 88.5c0 0-111.2-142.5-111.2-142.5z"/>
	<path id="Layer" class="s1" d="m16.8 101.3h64.9l-27.9-85.8c-1.4-4.4-7.6-4.4-9.1 0 0 0-27.9 85.8-27.9 85.8z"/>
	<path id="Layer" class="s0" d="m128 243.8l46.3-142.5h64.9c0 0-111.2 142.5-111.2 142.5z"/>
	<path id="Layer" class="s2" d="m239.2 101.3l14 43.3q0.5 1.5 0.5 3 0 1.5-0.5 2.9-0.4 1.5-1.3 2.7-0.9 1.2-2.1 2.1l-121.8 88.5c0 0 111.2-142.5 111.2-142.5z"/>
	<path id="Layer" class="s1" d="m239.2 101.3h-64.9l27.9-85.8c1.4-4.4 7.7-4.4 9.1 0 0 0 27.9 85.8 27.9 85.8z"/>
</svg>