<?xml version="1.0" encoding="UTF-8"?>
<svg xmlns="http://www.w3.org/2000/svg" xmlns:xlink="http://www.w3.org/1999/xlink" width="px" height="40px" viewBox="0 0 43 40" version="1.1">
<g id="surface1">
<path style=" stroke:none;fill-rule:nonzero;fill:rgb(98.823529%,42.745098%,14.901961%);fill-opacity:1;" d="M 42.90625 22.671875 L 40.492188 15.25 L 35.722656 0.546875 C 35.492188 -0.203125 34.414062 -0.203125 34.183594 0.546875 L 29.414062 15.25 L 13.585938 15.25 L 8.832031 0.546875 C 8.585938 -0.203125 7.507812 -0.203125 7.277344 0.546875 L 2.507812 15.25 L 0.09375 22.671875 C 0.0429688 22.839844 0.015625 23.011719 0.015625 23.1875 C 0.015625 23.355469 0.0429688 23.519531 0.09375 23.6875 C 0.15625 23.855469 0.234375 24.003906 0.328125 24.140625 C 0.429688 24.285156 0.554688 24.410156 0.699219 24.515625 L 21.5 39.671875 L 42.300781 24.515625 C 42.445312 24.410156 42.570312 24.285156 42.671875 24.140625 C 42.765625 24.003906 42.84375 23.855469 42.90625 23.6875 C 42.957031 23.519531 42.984375 23.355469 42.984375 23.1875 C 42.984375 23.011719 42.957031 22.839844 42.90625 22.671875 Z M 42.90625 22.671875 "/>
<path style=" stroke:none;fill-rule:nonzero;fill:rgb(88.627452%,26.274511%,16.078432%);fill-opacity:1;" d="M 21.5 39.671875 L 29.414062 15.25 L 13.585938 15.25 C 13.585938 15.25 21.5 39.671875 21.5 39.671875 Z M 21.5 39.671875 "/>
<path style=" stroke:none;fill-rule:nonzero;fill:rgb(98.823529%,42.745098%,14.901961%);fill-opacity:1;" d="M 21.5 39.671875 L 13.585938 15.25 L 2.507812 15.25 C 2.507812 15.25 21.5 39.671875 21.5 39.671875 Z M 21.5 39.671875 "/>
<path style=" stroke:none;fill-rule:nonzero;fill:rgb(98.823529%,63.921571%,14.901961%);fill-opacity:1;" d="M 2.507812 15.25 L 0.09375 22.671875 C 0.0429688 22.839844 0.015625 23.011719 0.015625 23.1875 C 0.015625 23.355469 0.0429688 23.519531 0.09375 23.6875 C 0.15625 23.855469 0.234375 24.003906 0.328125 24.140625 C 0.429688 24.285156 0.554688 24.410156 0.699219 24.515625 L 21.5 39.671875 C 21.5 39.671875 2.507812 15.25 2.507812 15.25 Z M 2.507812 15.25 "/>
<path style=" stroke:none;fill-rule:nonzero;fill:rgb(88.627452%,26.274511%,16.078432%);fill-opacity:1;" d="M 2.507812 15.25 L 13.585938 15.25 L 8.832031 0.546875 C 8.585938 -0.203125 7.507812 -0.203125 7.277344 0.546875 C 7.277344 0.546875 2.507812 15.25 2.507812 15.25 Z M 2.507812 15.25 "/>
<path style=" stroke:none;fill-rule:nonzero;fill:rgb(98.823529%,42.745098%,14.901961%);fill-opacity:1;" d="M 21.5 39.671875 L 29.414062 15.25 L 40.492188 15.25 C 40.492188 15.25 21.5 39.671875 21.5 39.671875 Z M 21.5 39.671875 "/>
<path style=" stroke:none;fill-rule:nonzero;fill:rgb(98.823529%,63.921571%,14.901961%);fill-opacity:1;" d="M 40.492188 15.25 L 42.90625 22.671875 C 42.957031 22.839844 42.984375 23.011719 42.984375 23.1875 C 42.984375 23.355469 42.957031 23.519531 42.90625 23.6875 C 42.84375 23.855469 42.765625 24.003906 42.671875 24.140625 C 42.570312 24.285156 42.445312 24.410156 42.300781 24.515625 L 21.5 39.671875 C 21.5 39.671875 40.492188 15.25 40.492188 15.25 Z M 40.492188 15.25 "/>
<path style=" stroke:none;fill-rule:nonzero;fill:rgb(88.627452%,26.274511%,16.078432%);fill-opacity:1;" d="M 40.492188 15.25 L 29.414062 15.25 L 34.183594 0.546875 C 34.414062 -0.203125 35.492188 -0.203125 35.738281 0.546875 C 35.738281 0.546875 40.492188 15.25 40.492188 15.25 Z M 40.492188 15.25 "/>
</g>
</svg>
