<svg version="1.2" xmlns="http://www.w3.org/2000/svg" viewBox="0 0 437 256" width="437" height="256">
	<title>Google_Colaboratory_SVG_Logo-svg</title>
	<style>
		.s0 { fill: #e8710a } 
		.s1 { fill: #f9ab00 } 
	</style>
	<g id="Layer">
		<path id="Layer" class="s0" d="m80.8 81.1l-43.4-43.5c-11.9 11.8-21.3 25.9-27.7 41.4-6.4 15.5-9.7 32.1-9.7 48.9 0 16.8 3.3 33.4 9.7 48.9 6.4 15.5 15.8 29.6 27.7 41.5l43.5-43.6c-6.1-6.1-11-13.4-14.3-21.4-3.3-8.1-5.1-16.7-5.1-25.4 0-8.6 1.7-17.2 5-25.3 3.3-8 8.1-15.3 14.3-21.5z"/>
		<path id="Layer" class="s1" d="m37.4 37.6l43.4 43.5c6.1-6.1 13.4-11 21.5-14.4 8-3.3 16.6-5 25.4-5 8.7 0 17.3 1.7 25.3 5 8.1 3.4 15.4 8.3 21.6 14.4l31.5-54.1-1.8-1.4c-12.2-9.2-26-16-40.6-20.3-14.6-4.3-29.9-5.9-45.1-4.8-15.2 1.1-30.1 4.9-44 11.2-13.8 6.3-26.4 15.1-37.2 25.9z"/>
		<path id="Layer" class="s1" d="m206.3 228.8l-31.7-53.9c-6.2 6.1-13.5 11-21.6 14.4-8 3.3-16.6 5-25.3 5-8.8 0-17.4-1.7-25.4-5-8.1-3.4-15.4-8.3-21.5-14.4l-43.4 43.5c10.7 10.7 23.3 19.4 37.1 25.7 13.8 6.2 28.6 10 43.7 11.1 15.2 1.1 30.3-0.5 44.9-4.7 14.6-4.3 28.3-11 40.4-20.1l2.1-1.6"/>
		<path id="Layer" class="s1" d="m218.5 37.6c-11.9 11.8-21.3 25.9-27.7 41.4-6.4 15.5-9.7 32.1-9.7 48.9 0 16.8 3.3 33.4 9.7 48.9 6.4 15.5 15.8 29.6 27.7 41.5l43.6-43.6c-12.4-12.5-19.4-29.3-19.4-46.9 0-17.6 7-34.4 19.4-46.8 12.4-12.5 29.3-19.4 46.9-19.4 17.5 0 34.4 6.9 46.8 19.4l43.8-43.4c-11.9-12-26-21.4-41.5-27.8-15.6-6.5-32.2-9.8-49-9.8-16.9 0-33.5 3.3-49.1 9.8-15.5 6.4-29.6 15.8-41.5 27.8z"/>
		<path id="Layer" class="s0" d="m399.6 37.6l-43.4 43.5c12.4 12.5 19.4 29.3 19.4 46.9 0 17.6-7 34.4-19.4 46.9-12.4 12.4-29.3 19.4-46.9 19.4-17.5 0-34.4-7-46.8-19.4l-44 43.5c24 24 56.6 37.5 90.5 37.5 33.9 0 66.5-13.4 90.5-37.4 24-24 37.5-56.5 37.5-90.4 0-34-13.4-66.5-37.4-90.5z"/>
	</g>
</svg>