<?xml version="1.0" encoding="UTF-8"?>
<svg xmlns="http://www.w3.org/2000/svg" xmlns:xlink="http://www.w3.org/1999/xlink" width="px" height="40px" viewBox="0 0 68 40" version="1.1">
<g id="surface1">
<path style=" stroke:none;fill-rule:nonzero;fill:rgb(90.980393%,44.313726%,3.921569%);fill-opacity:1;" d="M 12.574219 12.671875 L 5.820312 5.875 C 3.96875 7.71875 2.503906 9.921875 1.507812 12.34375 C 0.511719 14.765625 0 17.359375 0 19.984375 C 0 22.609375 0.511719 25.203125 1.507812 27.625 C 2.503906 30.046875 3.96875 32.25 5.820312 34.109375 L 12.589844 27.296875 C 11.640625 26.34375 10.875 25.203125 10.363281 23.953125 C 9.851562 22.6875 9.570312 21.34375 9.570312 19.984375 C 9.570312 18.640625 9.835938 17.296875 10.347656 16.03125 C 10.859375 14.78125 11.609375 13.640625 12.574219 12.671875 Z M 12.574219 12.671875 "/>
<path style=" stroke:none;fill-rule:nonzero;fill:rgb(97.647059%,67.058825%,0%);fill-opacity:1;" d="M 5.820312 5.875 L 12.574219 12.671875 C 13.523438 11.71875 14.65625 10.953125 15.917969 10.421875 C 17.164062 9.90625 18.5 9.640625 19.871094 9.640625 C 21.226562 9.640625 22.5625 9.90625 23.808594 10.421875 C 25.066406 10.953125 26.203125 11.71875 27.167969 12.671875 L 32.070312 4.21875 L 31.789062 4 C 29.890625 2.5625 27.746094 1.5 25.472656 0.828125 C 23.199219 0.15625 20.820312 -0.09375 18.453125 0.078125 C 16.089844 0.25 13.769531 0.84375 11.609375 1.828125 C 9.460938 2.8125 7.5 4.1875 5.820312 5.875 Z M 5.820312 5.875 "/>
<path style=" stroke:none;fill-rule:nonzero;fill:rgb(97.647059%,67.058825%,0%);fill-opacity:1;" d="M 32.101562 35.75 L 27.167969 27.328125 C 26.203125 28.28125 25.066406 29.046875 23.808594 29.578125 C 22.5625 30.09375 21.226562 30.359375 19.871094 30.359375 C 18.5 30.359375 17.164062 30.09375 15.917969 29.578125 C 14.65625 29.046875 13.523438 28.28125 12.574219 27.328125 L 5.820312 34.125 C 7.484375 35.796875 9.445312 37.15625 11.59375 38.140625 C 13.738281 39.109375 16.042969 39.703125 18.394531 39.875 C 20.757812 40.046875 23.109375 39.796875 25.378906 39.140625 C 27.652344 38.46875 29.78125 37.421875 31.664062 36 L 31.992188 35.75 "/>
<path style=" stroke:none;fill-rule:nonzero;fill:rgb(97.647059%,67.058825%,0%);fill-opacity:1;" d="M 34 5.875 C 32.148438 7.71875 30.6875 9.921875 29.691406 12.34375 C 28.695312 14.765625 28.179688 17.359375 28.179688 19.984375 C 28.179688 22.609375 28.695312 25.203125 29.691406 27.625 C 30.6875 30.046875 32.148438 32.25 34 34.109375 L 40.785156 27.296875 C 38.855469 25.34375 37.765625 22.71875 37.765625 19.96875 C 37.765625 17.21875 38.855469 14.59375 40.785156 12.65625 C 42.714844 10.703125 45.34375 9.625 48.082031 9.625 C 50.804688 9.625 53.433594 10.703125 55.363281 12.65625 L 62.179688 5.875 C 60.328125 4 58.132812 2.53125 55.722656 1.53125 C 53.296875 0.515625 50.710938 0 48.097656 0 C 45.46875 0 42.886719 0.515625 40.457031 1.53125 C 38.046875 2.53125 35.851562 4 34 5.875 Z M 34 5.875 "/>
<path style=" stroke:none;fill-rule:nonzero;fill:rgb(90.980393%,44.313726%,3.921569%);fill-opacity:1;" d="M 62.179688 5.875 L 55.425781 12.671875 C 57.355469 14.625 58.445312 17.25 58.445312 20 C 58.445312 22.75 57.355469 25.375 55.425781 27.328125 C 53.496094 29.265625 50.867188 30.359375 48.128906 30.359375 C 45.40625 30.359375 42.777344 29.265625 40.847656 27.328125 L 34 34.125 C 37.734375 37.875 42.808594 39.984375 48.082031 39.984375 C 53.359375 39.984375 58.429688 37.890625 62.164062 34.140625 C 65.898438 30.390625 68 25.3125 68 20.015625 C 68 14.703125 65.914062 9.625 62.179688 5.875 Z M 62.179688 5.875 "/>
</g>
</svg>
