<svg version="1.2" xmlns="http://www.w3.org/2000/svg" viewBox="0 0 344 256" width="344" height="256">
	<title>gradle-svg</title>
	<style>
		.s0 { fill: #02303a } 
	</style>
	<path id="Layer" fill-rule="evenodd" class="s0" d="m281 157.8c-25.2 18.9-34.1 56.6-34.6 89.5q0 1-0.4 2-0.4 0.9-1.2 1.6-0.7 0.7-1.6 1.1-1 0.4-2 0.4h-23.3q-1 0-1.9-0.3-0.8-0.4-1.5-1-0.8-0.6-1.2-1.5-0.4-0.8-0.6-1.7c-1.1-8.6-5.3-16.4-11.8-22.1-6.4-5.7-14.7-8.8-23.4-8.8-8.6 0-16.9 3.1-23.4 8.8-6.4 5.7-10.6 13.5-11.8 22.1q-0.1 0.9-0.5 1.7-0.5 0.9-1.2 1.5-0.7 0.6-1.6 1-0.8 0.3-1.8 0.3h-23.5q-0.9 0-1.8-0.3-0.9-0.4-1.6-1-0.7-0.6-1.1-1.5-0.5-0.8-0.6-1.7c-1.1-8.6-5.3-16.4-11.8-22.1-6.4-5.7-14.8-8.8-23.4-8.8-8.6 0-16.9 3.1-23.4 8.8-6.5 5.7-10.7 13.5-11.8 22.1q-0.1 0.9-0.5 1.8-0.5 0.9-1.2 1.6-0.7 0.6-1.7 1-0.9 0.3-1.9 0.3h-24q-0.9 0-1.8-0.3-0.8-0.3-1.5-0.9-0.7-0.6-1.2-1.4-0.4-0.8-0.6-1.6c-13.5-70.5 11.5-126.1 52.2-155.1l21.3 36.7c1.2 2.2 2.8 4.2 4.5 5.9 1.8 1.8 3.8 3.3 5.9 4.5 2.2 1.3 4.5 2.2 6.9 2.9 2.4 0.6 4.9 0.9 7.4 0.9q1.8 0 3.6-0.2 1.8-0.2 3.5-0.7 1.8-0.5 3.5-1.1 1.6-0.7 3.2-1.6l10-5.6h0.3q4.4-2.7 8.7-5.7 4.3-2.9 8.5-6 4.1-3.1 8.1-6.4 4-3.3 7.9-6.8 0.8-0.8 1.2-1.8 0.4-1 0.4-2.1 0-1.1-0.5-2.1-0.5-1-1.3-1.7-0.8-0.6-1.7-0.9-1-0.3-1.9-0.3-1 0.1-1.9 0.4-0.9 0.4-1.7 1.1-3.6 3.2-7.4 6.3-3.8 3.1-7.8 6-3.9 3-8 5.7-4 2.8-8.2 5.4l-9.8 5.5 0.4-0.3-0.6 0.3c-2 1.1-4.2 1.9-6.5 2.1-2.3 0.3-4.6 0.2-6.9-0.5-2.2-0.6-4.3-1.6-6.1-3-1.9-1.4-3.4-3.2-4.5-5.2l-22.6-38.9c-1.2-2.1-2-4.4-2.3-6.9-0.3-2.4 0-4.9 0.7-7.2 0.7-2.4 1.9-4.6 3.5-6.4 1.6-1.9 3.6-3.4 5.8-4.5 131.2-62.5 189 58.8 232.3 15.5 5.8-5.5 9.3-13.1 9.7-21.1 0.4-8.1-2.3-16-7.6-22.1-5.3-6.1-12.7-9.9-20.8-10.6-8-0.7-16 1.7-22.3 6.7q-0.8 0.6-1.7 0.8-0.9 0.3-1.8 0.2-0.9 0-1.8-0.4-0.8-0.4-1.5-1.1l-6.6-6.7q-0.8-0.7-1.2-1.7-0.4-1-0.4-2.1 0-1.1 0.4-2.1 0.4-1 1.2-1.7c5.1-4.8 11.1-8.6 17.7-11.1 6.5-2.5 13.5-3.7 20.5-3.6 7 0.1 13.9 1.6 20.3 4.3 6.5 2.8 12.4 6.7 17.3 11.7 20.3 20.2 43.3 76.3-44.3 141.8zm-40.7-52.3c-0.3-3.6-2.5-6.8-5.8-8.4-3.2-1.6-7.1-1.5-10.2 0.4-3.1 1.9-4.9 5.3-4.9 9l16.7 8.3c2.9-2.1 4.5-5.6 4.2-9.3z"/>
</svg>