<svg version="1.2" xmlns="http://www.w3.org/2000/svg" viewBox="0 0 235 256" width="235" height="256">
	<title>grafana-svg</title>
	<defs>
		<linearGradient id="g1" x2="1" gradientUnits="userSpaceOnUse" gradientTransform="matrix(0,-232.837,214.466,0,117.5,312.655)">
			<stop offset="0" stop-color="#fcee1f"/>
			<stop offset="1" stop-color="#f15b2a"/>
		</linearGradient>
	</defs>
	<style>
		.s0 { fill: url(#g1) } 
	</style>
	<path id="Layer" class="s0" d="m234.5 113c-0.4-4.3-1.1-9.3-2.4-14.8-1.4-5.4-3.7-11.3-6.6-17.6-3.2-6.1-7-12.7-12.3-18.8-2-2.5-4.3-4.8-6.5-7.2 3.6-14.3-4.3-26.8-4.3-26.8-13.9-0.9-22.5 4.3-25.6 6.6-0.5-0.2-1.2-0.4-1.6-0.7-2.3-0.9-4.8-1.8-7.3-2.7-2.5-0.7-5-1.6-7.5-2-2.4-0.7-5.2-1.2-7.9-1.6-0.4 0-0.9-0.2-1.3-0.2-5.9-19.1-23.2-27.2-23.2-27.2-19.7 12.7-23.5 29.7-23.5 29.7 0 0 0 0.4-0.3 0.9-1.1 0.2-2 0.6-3.1 0.9-1.4 0.4-3 0.9-4.3 1.6-1.4 0.6-3 1.1-4.3 1.8-3 1.3-5.7 2.7-8.7 4.3-2.7 1.5-5.4 3.1-7.9 4.9-0.4-0.2-0.7-0.4-0.7-0.4-26.5-10.2-50 2-50 2-2.1 28.3 10.6 46 13.1 49.2-0.7 1.8-1.1 3.3-1.8 5.2-2.1 6.3-3.4 12.9-4.3 19.7-0.2 0.9-0.2 2-0.5 2.9-24.4 12-31.7 36.9-31.7 36.9 20.4 23.5 44.4 24.9 44.4 24.9 3 5.4 6.6 10.6 10.4 15.4 1.6 2 3.4 3.8 5.3 5.9-7.5 21.3 1.1 39.1 1.1 39.1 22.9 0.9 37.8-9.9 41-12.4q3.4 1 6.8 2c7 1.8 14.3 3 21.3 3.2q2.7 0 5.4 0h0.9 0.7 1.2 1.1c10.6 15.4 29.7 17.4 29.7 17.4 13.4-14.2 14.3-28 14.3-31.2 0 0 0 0 0-0.2 0-0.3 0-0.5 0-0.5q0-0.3 0-0.7c2.7-2 5.4-4 8.1-6.3 5.5-4.8 10-10.4 14.1-16.3 0.4-0.5 0.6-1.1 1.1-1.6 15.2 0.9 25.8-9.5 25.8-9.5-2.5-15.8-11.5-23.5-13.3-24.9 0 0 0 0-0.3-0.2l-0.2-0.3-0.2-0.2c0-0.9 0.2-1.8 0.2-2.9 0.2-1.8 0.2-3.4 0.2-5.2v-1.4-0.7-0.2c0-0.4 0-0.2 0-0.4v-1.2-1.3q0-0.7 0-1.4c0-0.4 0-0.9-0.2-1.4l-0.2-1.3-0.2-1.4c-0.3-1.8-0.7-3.4-0.9-5.2-1.6-6.8-4.4-13.3-7.8-19-3.6-5.9-7.9-10.9-12.9-15.4-5-4.3-10.4-7.9-16.3-10.4-5.9-2.7-11.8-4.3-17.9-5-2.9-0.4-6.1-0.4-9.1-0.4h-1.1-0.2-0.5-0.4-1.2c-0.4 0-0.9 0-1.1 0-1.6 0.2-3.2 0.4-4.5 0.6-6.1 1.2-11.8 3.4-16.8 6.4-5 2.9-9.3 6.8-12.9 11.1-3.6 4.3-6.4 8.8-8.2 13.8-1.8 4.7-2.9 9.9-3.1 14.7 0 1.1 0 2.5 0 3.6 0 0.3 0 0.7 0 0.9v0.9c0 0.7 0 1.2 0.2 1.8 0.2 2.5 0.7 4.8 1.3 7.1q2.1 6.8 6.2 12.2c2.7 3.6 5.6 6.3 9 8.6 3.4 2.3 6.8 3.8 10.5 5q5.4 1.7 10.2 1.3c0.4 0 0.9 0 1.1 0q0.3 0 0.7 0 0.3 0 0.6 0c0.5 0 0.7 0 1.2 0h0.2 0.2q0.4 0 0.7 0c0.5 0 0.9-0.2 1.1-0.2 0.5 0 0.7-0.2 1.2-0.2 0.7-0.2 1.6-0.5 2.2-0.7 1.4-0.5 2.8-1.1 4.1-1.6q2.1-1 3.4-2c0.3-0.3 0.7-0.5 0.9-0.7 1.2-0.9 1.4-2.5 0.5-3.6-0.9-0.9-2.3-1.2-3.4-0.7-0.2 0.2-0.5 0.2-0.9 0.4-0.9 0.5-2.1 1-3 1.2-1.1 0.2-2.2 0.7-3.4 0.9-0.6 0-1.1 0.2-1.8 0.2-0.2 0-0.7 0-0.9 0-0.2 0-0.7 0-0.9 0-0.2 0-0.7 0-0.9 0-0.5 0-0.7 0-1.1 0 0 0-0.3 0 0 0h-0.3-0.2c-0.2 0-0.2 0-0.4 0-0.3 0-0.7 0-0.9-0.2-2.5-0.5-5.3-1.1-7.8-2.3-2.4-1.1-4.9-2.7-7-4.7-2.2-2.1-4.1-4.3-5.6-7.1-1.6-2.7-2.5-5.6-3-8.6-0.2-1.5-0.4-3.1-0.2-4.7q0-0.7 0-1.4c0 0.3 0 0 0 0v-0.2-0.2q0-0.4 0-0.7c0-0.9 0.2-1.6 0.4-2.5 1.2-6.8 4.6-13.3 9.8-18.3 1.3-1.4 2.7-2.5 4.3-3.4q2.4-1.7 4.7-2.7c1.6-0.7 3.4-1.4 5.3-1.8 1.8-0.5 3.6-1 5.4-1 0.9 0 1.8-0.2 2.7-0.2q0.4 0 0.7 0h0.7 0.4c0.3 0 0 0 0 0h0.3 0.6c2.1 0.2 4.1 0.5 5.9 0.9 3.9 0.9 7.7 2.3 11.4 4.3 7.2 4.1 13.3 10.2 17 17.7 1.8 3.6 3.1 7.7 3.8 12 0.2 1.1 0.2 2 0.5 3.2v0.6 0.7q0 0.4 0 0.7 0 0.3 0 0.7v0.6 0.7c0 0.5 0 1.4 0 1.8 0 1.2-0.3 2.3-0.3 3.4-0.2 1.2-0.2 2.3-0.4 3.4q-0.4 1.7-0.7 3.4c-0.4 2.3-1.4 4.3-2 6.6-1.6 4.3-3.9 8.4-6.6 12-5.4 7.5-12.9 13.6-21.3 17.4-4.3 1.8-8.6 3.4-13.2 4.1q-3.4 0.7-6.8 0.7h-0.4-0.5-0.6-1.2-0.7c0.3 0 0 0 0 0h-0.2c-1.1 0-2.5 0-3.6-0.3-5-0.4-9.7-1.3-14.5-2.7q-7.1-2-13.6-5.4c-8.6-4.5-16.3-11.1-22.4-18.6-3-3.8-5.7-7.9-8-12.2-2.2-4.3-3.8-8.8-5.2-13.3-1.3-4.6-2-9.3-2.2-14.1v-0.9-0.2-0.2-0.5-0.7-0.2-0.2-0.5-1.1-0.2-0.5c0-0.7 0-1.1 0-1.8 0-2.3 0.2-4.8 0.6-7.2 0.3-2.5 0.7-4.8 1.2-7.3 0.4-2.5 1.1-4.7 1.8-7.2 1.3-4.8 2.9-9.3 5-13.6 4-8.6 9.3-16.3 15.4-22.4 1.6-1.6 3.1-3 5-4.3 0.6-0.7 2.2-2.1 4-3.2 1.9-1.1 3.7-2.3 5.7-3.2 0.9-0.4 1.8-0.9 2.9-1.3 0.5-0.3 1-0.5 1.6-0.7 0.5-0.2 0.9-0.5 1.6-0.7 2.1-0.9 4.1-1.6 6.1-2.2 0.5-0.3 1.2-0.3 1.6-0.5 0.5-0.2 1.2-0.2 1.6-0.5 1.1-0.2 2.1-0.4 3.2-0.9 0.4-0.2 1.1-0.2 1.6-0.4 0.4 0 1.1-0.2 1.6-0.2 0.4 0 1.1-0.3 1.5-0.3l1-0.2 0.9-0.2c0.4 0 1.1-0.2 1.5-0.2 0.7 0 1.2-0.3 1.9-0.3 0.4 0 1.3-0.2 1.8-0.2 0.4 0 0.6 0 1.1-0.2h0.7 0.4 0.5c0.7 0 1.1 0 1.8-0.2h0.9c0 0 0.2 0 0 0h0.2 0.5c0.4 0 1.1 0 1.6 0q3 0 6.1 0c4.1 0.2 8.2 0.6 12 1.3 7.7 1.4 15.2 3.9 21.8 7.3 6.5 3.1 12.6 7.2 17.6 11.5 0.3 0.2 0.7 0.5 0.9 0.9 0.3 0.2 0.7 0.5 0.9 0.9 0.7 0.5 1.2 1.1 1.9 1.6 0.6 0.4 1.1 1.1 1.8 1.6 0.4 0.7 1.1 1.1 1.6 1.8 2.2 2.3 4.3 4.7 6.1 7 3.6 4.8 6.5 9.5 8.8 14 0.2 0.3 0.2 0.5 0.5 1 0.2 0.2 0.2 0.4 0.4 0.9 0.2 0.4 0.5 1.1 0.9 1.5 0.3 0.5 0.5 1.2 0.7 1.6 0.2 0.5 0.5 1.2 0.7 1.6 0.9 2 1.6 4.1 2.3 6.1 1.1 3.2 1.8 5.9 2.4 8.2 0.3 0.9 1.2 1.6 2.1 1.6 1.1 0 1.8-0.9 1.8-2.1-0.2-2.7-0.2-5.6-0.5-9z"/>
</svg>