<svg version="1.2" xmlns="http://www.w3.org/2000/svg" viewBox="0 0 251 256" width="251" height="256">
	<title>grafana-svg</title>
	<defs>
		<linearGradient id="g1" x2="1" gradientUnits="userSpaceOnUse" gradientTransform="matrix(0,-180.344,166.114,0,125.061,242.167)">
			<stop offset="0" stop-color="#fcee1f"/>
			<stop offset="1" stop-color="#f15b2a"/>
		</linearGradient>
	</defs>
	<style>
		.s0 { fill: #565656 } 
		.s1 { fill: url(#g1) } 
	</style>
	<g id="Layer">
		<path id="Layer" class="s0" d="m50.4 230.6c-0.6 13.8-11.6 24.7-25.3 24.7-14.4 0-25.1-11.6-25.1-25.8 0-14.2 11.6-25.8 25.8-25.8 6.3 0 12.6 2.9 17.9 7.8l-4 5c-4.1-3.5-9-5.9-13.9-5.9-10.4 0-19 8.4-19 18.9 0 10.7 8.1 19 18.3 19 9.1 0 16.3-6.7 17.9-15.5h-20.9v-6.1h28.3z"/>
		<path id="Layer" class="s0" d="m74.2 227.1h-3.8c-4.2 0-7.7 3.5-7.7 7.7v20h-6.9v-34.4h5.6v2.8c2-1.9 4.8-2.8 8.1-2.8h7.4z"/>
		<path id="Layer" fill-rule="evenodd" class="s0" d="m111.8 254.8h-6v-4.4c-4.5 4.4-11.5 6.5-18.7 3.3-5.3-2.3-9.3-7.2-10.4-13-2.1-11 6.5-20.8 17.4-20.8 4.5 0 8.8 1.9 11.7 4.9v-4.4h6zm-7-14.5c1.6-7.1-3.7-13.4-10.5-13.4-6 0-10.8 4.9-10.8 10.7 0 6.7 5.8 11.8 12.7 10.7 4-0.7 7.5-4 8.6-8z"/>
		<path id="Layer" class="s0" d="m125.5 218.7v1.9h10.9v5.9h-10.9v28.3h-6.7v-36c0-7.5 5.5-11.9 12.3-11.9h8.3l-2.8 6.5h-5.5c-3.1-0.2-5.6 2.3-5.6 5.3z"/>
		<path id="Layer" fill-rule="evenodd" class="s0" d="m167.1 254.8v-4.4c-4.6 4.4-11.6 6.5-18.8 3.3-5.2-2.3-9.3-7.2-10.3-13-2.1-11 6.5-20.8 17.3-20.8 4.6 0 8.8 1.9 11.8 4.9v-4.4h6v34.4zm-1.3-14.6c1.6-7-3.6-13.3-10.5-13.3-6 0-10.7 4.9-10.7 10.7 0 6.7 5.8 11.7 12.6 10.7 4.3-0.7 7.6-4 8.6-8.1z"/>
		<path id="Layer" class="s0" d="m209.6 234.6v20.2h-6.9v-20.4c0-4.2-3.5-7.7-7.7-7.7-4.4 0-7.7 3.5-7.7 7.7v20.4h-6.9v-34.4h5.7v3c2.4-2.3 5.7-3.5 9.1-3.5 8.1 0.2 14.4 6.6 14.4 14.7z"/>
		<path id="Layer" fill-rule="evenodd" class="s0" d="m244.2 254.8v-4.4c-4.6 4.4-11.6 6.5-18.8 3.3-5.3-2.3-9.3-7.2-10.4-13-2.1-11 6.5-20.8 17.4-20.8 4.6 0 8.8 1.9 11.8 4.9v-4.4h5.9v34.4zm-1.2-14.6c1.6-7-3.7-13.3-10.5-13.3-6 0-10.7 4.9-10.7 10.7 0 6.7 5.7 11.7 12.6 10.7 4.2-0.7 7.5-4 8.6-8.1z"/>
	</g>
	<path id="Layer" class="s1" d="m215.7 87.5c-0.3-3.3-0.9-7.2-1.9-11.4-1.1-4.2-2.8-8.8-5.1-13.7-2.5-4.7-5.4-9.8-9.5-14.5-1.6-2-3.3-3.7-5.1-5.6 2.8-11.1-3.3-20.7-3.3-20.7-10.7-0.7-17.4 3.3-19.8 5.1-0.4-0.2-0.9-0.4-1.3-0.6-1.7-0.7-3.7-1.4-5.6-2.1-1.9-0.5-3.8-1.2-5.8-1.6-1.9-0.5-4-0.8-6.1-1.2-0.4 0-0.7-0.2-1.1-0.2-4.5-14.7-17.9-21-17.9-21-15.2 9.8-18.2 23-18.2 23 0 0 0 0.3-0.2 0.7-0.9 0.1-1.6 0.5-2.5 0.7-1 0.3-2.2 0.7-3.3 1.2-1.1 0.5-2.3 0.9-3.3 1.4-2.3 1.1-4.4 2.1-6.7 3.3-2.1 1.3-4.2 2.5-6.1 3.9-0.4-0.2-0.6-0.4-0.6-0.4-20.5-7.8-38.8 1.6-38.8 1.6-1.5 21.9 8.3 35.6 10.2 38.1-0.5 1.4-0.9 2.6-1.4 4-1.6 4.9-2.6 10-3.3 15.3-0.2 0.7-0.2 1.5-0.4 2.2-18.9 9.3-24.5 28.6-24.5 28.6 15.7 18.3 34.4 19.3 34.4 19.3 2.2 4.2 5 8.2 8 11.9 1.3 1.6 2.7 3 4.1 4.6-5.8 16.5 0.8 30.3 0.8 30.3 17.8 0.7 29.4-7.7 31.8-9.6q2.6 0.8 5.3 1.6c5.4 1.4 11 2.2 16.5 2.4q2.1 0 4.2 0h0.7 0.5 0.9 0.9c8.2 11.9 23 13.5 23 13.5 10.3-11 11-21.7 11-24.2 0 0 0 0 0-0.2 0-0.1 0-0.3 0-0.3q0-0.3 0-0.5c2.1-1.6 4.2-3.2 6.3-4.9 4.3-3.7 7.8-8.1 10.9-12.7 0.4-0.3 0.6-0.8 0.9-1.2 11.8 0.7 20-7.4 20-7.4-1.9-12.2-8.9-18.2-10.3-19.3 0 0 0 0-0.2-0.1l-0.2-0.2-0.2-0.2c0-0.7 0.2-1.4 0.2-2.3 0.2-1.4 0.2-2.6 0.2-4v-1-0.6-0.1c0-0.4 0-0.2 0-0.4v-0.9-1q0-0.5 0-1.1c0-0.3 0-0.7-0.2-1l-0.2-1.1-0.1-1c-0.2-1.4-0.6-2.7-0.7-4.1-1.3-5.2-3.4-10.3-6-14.7-2.8-4.6-6.2-8.4-10-11.9-3.9-3.3-8.1-6.2-12.7-8.1-4.5-2.1-9.1-3.3-13.8-3.8-2.3-0.4-4.8-0.4-7-0.4h-0.9-0.2-0.3-0.4-0.9c-0.3 0-0.7 0-0.9 0-1.2 0.2-2.4 0.4-3.5 0.5-4.7 0.9-9.1 2.7-13 4.9-3.8 2.3-7.1 5.3-10 8.6-2.8 3.4-4.9 6.9-6.3 10.7-1.4 3.7-2.3 7.7-2.4 11.4 0 0.9 0 2 0 2.8 0 0.2 0 0.6 0 0.7v0.7c0 0.6 0 0.9 0.1 1.4 0.2 2 0.6 3.7 1.1 5.5q1.6 5.2 4.7 9.4c2.1 2.9 4.4 5 7.1 6.7 2.6 1.8 5.2 3 8 3.9q4.2 1.3 7.9 1c0.4 0 0.7 0 0.9 0q0.3 0 0.5 0 0.3 0 0.6 0c0.3 0 0.5 0 0.8 0h0.2 0.2q0.3 0 0.5 0c0.4 0 0.7-0.2 0.9-0.2 0.3 0 0.5-0.1 0.9-0.1 0.5-0.2 1.2-0.4 1.7-0.6 1.1-0.3 2.1-0.8 3.2-1.2q1.6-0.8 2.6-1.6c0.2-0.1 0.5-0.3 0.7-0.5 0.9-0.7 1.1-1.9 0.4-2.8-0.7-0.7-1.8-0.9-2.7-0.5-0.1 0.2-0.3 0.2-0.7 0.3-0.7 0.4-1.5 0.7-2.2 0.9-0.9 0.2-1.8 0.5-2.7 0.7-0.5 0-0.9 0.2-1.4 0.2-0.2 0-0.5 0-0.7 0-0.2 0-0.5 0-0.7 0-0.2 0-0.5 0-0.7 0-0.3 0-0.5 0-0.9 0 0 0-0.1 0 0 0h-0.1-0.2c-0.2 0-0.2 0-0.4 0-0.1 0-0.5 0-0.7-0.2-1.9-0.3-4-0.9-5.9-1.7-2-0.9-3.9-2.2-5.5-3.7-1.7-1.6-3.1-3.4-4.4-5.5-1.2-2.1-1.9-4.3-2.3-6.6-0.1-1.3-0.3-2.5-0.1-3.7q0-0.5 0-1.1c0 0.2 0 0 0 0v-0.1-0.2q0-0.3 0-0.5c0-0.7 0.1-1.3 0.3-2 0.9-5.2 3.5-10.3 7.6-14.2 1-1 2.1-1.9 3.3-2.6q1.9-1.3 3.7-2.1c1.2-0.5 2.6-1.1 4-1.4 1.4-0.4 2.8-0.7 4.2-0.7 0.7 0 1.4-0.2 2.1-0.2q0.3 0 0.6 0h0.5 0.4c0.1 0 0 0 0 0h0.1 0.6c1.5 0.2 3.1 0.4 4.5 0.7 3 0.7 6 1.8 8.8 3.3 5.6 3.2 10.4 7.9 13.2 13.7 1.4 2.8 2.4 6 2.9 9.3 0.2 0.9 0.2 1.6 0.4 2.5v0.5 0.5q0 0.3 0 0.6 0 0.2 0 0.5v0.5 0.5c0 0.4 0 1.1 0 1.4 0 0.9-0.2 1.8-0.2 2.7-0.2 0.8-0.2 1.7-0.3 2.6q-0.3 1.3-0.6 2.6c-0.3 1.8-1 3.4-1.5 5.1-1.3 3.3-3 6.5-5.1 9.3-4.2 5.8-10 10.5-16.5 13.5-3.4 1.4-6.7 2.6-10.2 3.2q-2.6 0.5-5.3 0.5h-0.3-0.4-0.5-0.9-0.5c0.2 0 0 0 0 0h-0.2c-0.9 0-1.9 0-2.8-0.2-3.9-0.3-7.5-1-11.2-2.1q-5.6-1.6-10.6-4.2c-6.6-3.5-12.6-8.6-17.3-14.4-2.3-3-4.4-6.1-6.2-9.4-1.7-3.4-3-6.9-4-10.4-1.1-3.5-1.6-7.2-1.8-10.9v-0.7-0.1-0.2-0.4-0.5-0.2-0.1-0.4-0.9-0.1-0.4c0-0.5 0-0.9 0-1.4 0-1.8 0.2-3.7 0.6-5.6 0.1-1.9 0.5-3.7 0.8-5.6 0.4-2 0.9-3.7 1.4-5.6 1.1-3.7 2.3-7.2 3.9-10.6 3.2-6.6 7.2-12.6 11.9-17.3 1.3-1.2 2.5-2.3 3.9-3.3 0.5-0.6 1.8-1.6 3.2-2.5 1.4-0.9 2.8-1.8 4.3-2.5 0.7-0.3 1.5-0.7 2.3-1 0.4-0.2 0.7-0.4 1.3-0.5 0.3-0.2 0.7-0.4 1.2-0.6 1.6-0.7 3.1-1.2 4.7-1.7 0.4-0.2 0.9-0.2 1.3-0.4 0.3-0.1 0.8-0.1 1.2-0.3 0.9-0.2 1.6-0.4 2.4-0.7 0.4-0.2 0.9-0.2 1.3-0.4 0.3 0 0.8-0.1 1.2-0.1 0.3 0 0.9-0.2 1.2-0.2l0.7-0.2 0.7-0.2c0.4 0 0.9-0.1 1.3-0.1 0.5 0 0.8-0.2 1.4-0.2 0.3 0 1-0.2 1.4-0.2 0.3 0 0.5 0 0.8-0.2h0.6 0.3 0.4c0.5 0 0.9 0 1.4-0.1h0.7c0 0 0.2 0 0 0h0.2 0.3c0.4 0 0.9 0 1.2 0q2.4 0 4.8 0c3.1 0.1 6.3 0.5 9.3 1 5.9 1.1 11.7 3 16.8 5.6 5.1 2.5 9.9 5.6 13.7 9 0.2 0.1 0.5 0.3 0.7 0.7 0.2 0.1 0.5 0.3 0.7 0.7 0.5 0.3 0.9 0.8 1.4 1.2 0.6 0.3 0.9 0.9 1.4 1.2 0.4 0.5 0.9 0.9 1.3 1.4 1.7 1.8 3.3 3.7 4.7 5.5 2.8 3.6 5.1 7.3 6.8 10.8 0.2 0.2 0.2 0.4 0.4 0.7 0.2 0.2 0.2 0.4 0.3 0.7 0.2 0.4 0.4 0.9 0.7 1.3 0.2 0.3 0.4 0.8 0.6 1.2 0.1 0.3 0.3 0.9 0.5 1.2 0.7 1.6 1.2 3.2 1.8 4.7 0.8 2.5 1.4 4.6 1.9 6.4 0.2 0.7 0.9 1.2 1.6 1.2 0.8 0 1.4-0.7 1.4-1.6-0.2-2.1-0.2-4.4-0.4-7z"/>
</svg>