<svg version="1.2" xmlns="http://www.w3.org/2000/svg" viewBox="0 0 270 256" width="270" height="256">
	<title>graphviz-svg</title>
	<style>
		.s0 { fill: #e6e6e6 } 
		.s1 { fill: #4ed1f8 } 
		.s2 { fill: #656565 } 
		.s3 { fill: #2c2928 } 
		.s4 { fill: #282828 } 
		.s5 { fill: #00ff80 } 
	</style>
	<path id="Layer" class="s0" d="m205.4 255.3h-102.6-102.5v-127.3-127.3h102.5 102.6v127.3 127.3z"/>
	<path id="Layer" class="s1" d="m6.8 11.7h192.4v2.4h-192.4z"/>
	<path id="Layer" class="s1" d="m6.8 50h192.4v2.4h-192.4z"/>
	<path id="Layer" class="s1" d="m6.8 88.3h192.4v2.4h-192.4z"/>
	<path id="Layer" class="s1" d="m6.8 126.7h192.4v2.4h-192.4z"/>
	<path id="Layer" class="s1" d="m6.8 165h192.4v2.4h-192.4z"/>
	<path id="Layer" class="s1" d="m6.8 203.4h192.4v2.4h-192.4z"/>
	<path id="Layer" class="s1" d="m6.8 241.7h192.4v2.4h-192.4z"/>
	<path id="Layer" class="s1" d="m5.6 11.7h2.4v232.4h-2.4z"/>
	<path id="Layer" class="s1" d="m44 12.8h2.4v230.3h-2.4z"/>
	<path id="Layer" class="s1" d="m82.4 12.8h2.4v230.3h-2.4z"/>
	<path id="Layer" class="s1" d="m120.8 12.8h2.4v230.3h-2.4z"/>
	<path id="Layer" class="s1" d="m159.2 12.8h2.4v230.3h-2.4z"/>
	<path id="Layer" class="s1" d="m197.6 11.7h2.4v232.4h-2.4z"/>
	<g id="Layer" style="opacity: .5">
		<path id="Layer" class="s1" d="m6.8 232.1h192.4v2.4h-192.4z"/>
		<path id="Layer" class="s1" d="m6.8 222.6h192.4v2.4h-192.4z"/>
		<path id="Layer" class="s1" d="m6.8 213h192.4v2.4h-192.4z"/>
		<path id="Layer" class="s1" d="m6.8 193.8h192.4v2.4h-192.4z"/>
		<path id="Layer" class="s1" d="m6.8 184.2h192.4v2.4h-192.4z"/>
		<path id="Layer" class="s1" d="m6.8 174.6h192.4v2.4h-192.4z"/>
		<path id="Layer" class="s1" d="m6.8 155.5h192.4v2.4h-192.4z"/>
		<path id="Layer" class="s1" d="m6.8 145.9h192.4v2.4h-192.4z"/>
		<path id="Layer" class="s1" d="m6.8 136.3h192.4v2.4h-192.4z"/>
		<path id="Layer" class="s1" d="m6.8 117.1h192.4v2.4h-192.4z"/>
		<path id="Layer" class="s1" d="m6.8 107.5h192.4v2.4h-192.4z"/>
		<path id="Layer" class="s1" d="m6.8 97.9h192.4v2.4h-192.4z"/>
		<path id="Layer" class="s1" d="m6.8 78.8h192.4v2.4h-192.4z"/>
		<path id="Layer" class="s1" d="m6.8 69.2h192.4v2.4h-192.4z"/>
		<path id="Layer" class="s1" d="m6.8 59.6h192.4v2.4h-192.4z"/>
		<path id="Layer" class="s1" d="m6.8 40.4h192.4v2.4h-192.4z"/>
		<path id="Layer" class="s1" d="m6.8 30.8h192.4v2.4h-192.4z"/>
		<path id="Layer" class="s1" d="m6.8 21.2h192.4v2.4h-192.4z"/>
	</g>
	<g id="Layer" style="opacity: .5">
		<path id="Layer" class="s1" d="m188 12.8h2.4v230.3h-2.4z"/>
		<path id="Layer" class="s1" d="m178.4 12.8h2.4v230.3h-2.4z"/>
		<path id="Layer" class="s1" d="m168.8 12.8h2.4v230.3h-2.4z"/>
		<path id="Layer" class="s1" d="m149.6 12.8h2.4v230.3h-2.4z"/>
		<path id="Layer" class="s1" d="m140 12.8h2.4v230.3h-2.4z"/>
		<path id="Layer" class="s1" d="m130.4 12.8h2.4v230.3h-2.4z"/>
		<path id="Layer" class="s1" d="m111.2 12.8h2.4v230.3h-2.4z"/>
		<path id="Layer" class="s1" d="m101.6 12.8h2.4v230.3h-2.4z"/>
		<path id="Layer" class="s1" d="m92 12.8h2.4v230.3h-2.4z"/>
		<path id="Layer" class="s1" d="m72.8 12.8h2.4v230.3h-2.4z"/>
		<path id="Layer" class="s1" d="m63.2 12.8h2.4v230.3h-2.4z"/>
		<path id="Layer" class="s1" d="m53.6 12.8h2.4v230.3h-2.4z"/>
		<path id="Layer" class="s1" d="m34.4 12.8h2.4v230.3h-2.4z"/>
		<path id="Layer" class="s1" d="m24.8 12.8h2.4v230.3h-2.4z"/>
		<path id="Layer" class="s1" d="m15.2 12.8h2.4v230.3h-2.4z"/>
	</g>
	<path id="Layer" fill-rule="evenodd" class="s2" d="m105.7 64.1c-21 0-37.6-11.5-38.1-26.9q0-3.2 0.7-6.2 0.8-3.1 2.3-5.8 1.5-2.8 3.6-5.1 2.1-2.3 4.8-4 2.9-2.1 6.1-3.7 3.2-1.6 6.6-2.7 3.4-1.1 7-1.7 3.5-0.6 7.1-0.7 3.5-0.2 7.1 0.1 3.6 0.4 7.1 1.2 3.4 0.9 6.8 2.3 3.3 1.3 6.3 3.2 2.8 1.5 5.1 3.6 2.3 2.2 4 4.8 1.7 2.7 2.7 5.6 0.9 3 1.2 6.2c0.6 15.9-16.2 29-38.3 29.8q-1 0-2.1 0zm2.2-47.2q-0.9 0-1.8 0-2.8 0-5.7 0.5-2.8 0.4-5.5 1.3-2.7 0.9-5.3 2.2-2.6 1.2-4.9 2.8-1.7 1.1-3.1 2.5-1.3 1.4-2.3 3.1-1 1.7-1.5 3.6-0.6 1.9-0.6 3.9c0.3 10.2 14.2 18.3 30.4 17.7 16.1-0.5 29.3-9.7 28.9-19.9q-0.2-2-0.9-3.8-0.7-1.9-1.8-3.5-1.1-1.6-2.5-2.9-1.5-1.3-3.3-2.2-2.2-1.4-4.7-2.4-2.4-1-5-1.7-2.5-0.7-5.2-1-2.6-0.3-5.2-0.2z"/>
	<path id="Layer" fill-rule="evenodd" class="s2" d="m45.6 248.7q-3.3 0.1-6.6-0.3-3.4-0.5-6.6-1.3-3.2-0.9-6.3-2.2-3.1-1.4-5.9-3.1-2.8-1.5-5.1-3.7-2.2-2.2-3.9-4.8-1.7-2.7-2.7-5.6-1-3-1.2-6.2c-0.5-15.9 16.4-28.9 38.4-29.6 21.9-0.7 39.6 11.2 40.1 27.2q0 3.1-0.8 6.1-0.7 3.1-2.3 5.8-1.5 2.8-3.6 5.1-2.2 2.3-4.8 4-2.9 2-6.1 3.6-3.3 1.6-6.7 2.7-3.4 1.1-6.9 1.7-3.5 0.6-7.1 0.6-0.9 0-1.9 0zm1.7-47.2h-1.4c-16.1 0.5-29.4 9.5-29.1 19.7q0.3 2 0.9 3.8 0.7 1.9 1.8 3.5 1.1 1.7 2.6 3 1.4 1.3 3.2 2.2 2.4 1.5 5.1 2.6 2.6 1.1 5.4 1.7 2.8 0.7 5.6 1 2.9 0.3 5.7 0.1 2.9 0 5.7-0.5 2.8-0.4 5.5-1.3 2.8-0.8 5.3-2.1 2.6-1.2 5-2.9 1.7-1 3-2.4 1.4-1.4 2.4-3.1 1-1.7 1.5-3.6 0.6-1.9 0.7-3.9c-0.3-9.8-13.3-17.8-28.9-17.8z"/>
	<path id="Layer" fill-rule="evenodd" class="s2" d="m162.7 248.5q-3.3 0.1-6.6-0.3-3.4-0.4-6.6-1.3-3.3-0.9-6.4-2.2-3-1.3-5.9-3.1-2.7-1.5-5-3.7-2.3-2.1-4-4.8-1.7-2.6-2.7-5.6-0.9-3-1.1-6.1c-0.5-16 16.3-29 38.3-29.7q3.6-0.2 7.2 0.2 3.5 0.3 7 1.2 3.5 0.9 6.8 2.3 3.3 1.3 6.3 3.2c3.8 1.9 7 4.8 9.2 8.4 2.3 3.6 3.5 7.7 3.7 11.9 0.1 4.2-0.9 8.4-2.9 12.1-2.1 3.7-5 6.7-8.7 8.9q-2.9 2.1-6.1 3.6-3.2 1.6-6.6 2.7-3.5 1.1-7 1.7-3.5 0.6-7.1 0.6-0.9 0-1.8 0zm-28.7-27.4q0.2 1.9 0.8 3.8 0.7 1.8 1.8 3.4 1.1 1.7 2.6 3 1.4 1.3 3.2 2.2c3.3 1.9 6.8 3.3 10.5 4.2 3.7 1 7.5 1.4 11.3 1.2 3.8-0.1 7.6-0.7 11.2-1.9 3.7-1.1 7.1-2.7 10.3-4.8 2.3-1.3 4.3-3.1 5.6-5.4 1.4-2.3 2-5 2-7.6-0.1-2.7-1-5.2-2.4-7.4-1.5-2.2-3.6-4-6-5.1q-2.5-1.4-5.1-2.5-2.7-1.1-5.4-1.8-2.8-0.7-5.7-1-2.8-0.2-5.7-0.1c-16 0.5-29.4 9.6-29 19.8z"/>
	<path id="Layer" class="s2" d="m43.8 196c-0.4-11.5 0-22.9 1.2-34.3 1.2-11.4 3.2-22.7 5.9-33.8 2.8-11.2 6.3-22.1 10.5-32.7 4.3-10.7 9.2-21 14.9-31l6.3 3.6c-5.5 9.7-10.4 19.7-14.5 30-4.1 10.4-7.5 21-10.2 31.8-2.7 10.8-4.6 21.7-5.8 32.8-1.1 11.1-1.5 22.2-1.1 33.3z"/>
	<path id="Layer" class="s2" d="m86.2 54.9q-0.5 2.6-0.8 5.2-0.3 2.7-0.4 5.3-0.1 2.6 0 5.3 0.2 2.6 0.5 5.3l-6.9-8.5-10.7-2.1q2.5-0.9 4.9-2 2.4-1.2 4.7-2.5 2.3-1.3 4.5-2.8 2.1-1.5 4.2-3.2z"/>
	<path id="Layer" class="s2" d="m168.1 196l-7.1-0.3q0.3-9-0.1-18.1-0.4-9-1.4-18-1.1-9-2.8-17.9-1.7-8.9-4.1-17.6-2-7.4-4.4-14.6-2.5-7.3-5.4-14.3-2.9-7.1-6.3-13.9-3.3-6.9-7.1-13.5l6.2-3.6q3.9 6.9 7.4 13.9 3.4 7.1 6.4 14.4 3 7.2 5.6 14.7 2.5 7.4 4.6 15 2.4 9 4.2 18.1 1.8 9.2 2.8 18.5 1.1 9.2 1.5 18.5 0.4 9.4 0 18.7z"/>
	<path id="Layer" class="s2" d="m125.8 54.9q2 1.7 4.2 3.2 2.2 1.5 4.5 2.8 2.3 1.3 4.7 2.5 2.4 1.1 4.9 2l-10.7 2.1-6.9 8.5q0.3-2.7 0.4-5.3 0.2-2.7 0.1-5.3-0.1-2.7-0.4-5.3-0.3-2.6-0.8-5.2z"/>
	<path id="Layer" class="s2" d="m102.9 92.5l0.5-32 7.2 0.1-0.5 32z"/>
	<path id="Layer" class="s2" d="m106.2 105.5q-0.8-2.5-1.9-4.9-1.1-2.4-2.3-4.8-1.3-2.3-2.7-4.5-1.5-2.3-3.1-4.4l10.2 3.9 10.4-3.5q-1.7 2-3.2 4.2-1.5 2.2-2.8 4.5-1.4 2.3-2.5 4.7-1.1 2.4-2.1 4.8z"/>
	<path id="Layer" class="s2" d="m65.5 185l23.2-36.5 6.1 3.9-23.2 36.5z"/>
	<path id="Layer" class="s2" d="m61.6 197.9q0.5-2.5 0.9-5.2 0.4-2.6 0.5-5.2 0.2-2.7 0.1-5.3-0.1-2.7-0.3-5.3l6.6 8.6 10.7 2.4q-2.5 0.8-4.9 1.9-2.4 1.1-4.8 2.4-2.3 1.2-4.5 2.7-2.3 1.4-4.3 3z"/>
	<path id="Layer" class="s2" d="m116.8 151.6l6.2-3.7 22.9 38.5-6.2 3.7z"/>
	<path id="Layer" class="s2" d="m149.4 199.4q-2-1.7-4.2-3.2-2.2-1.5-4.5-2.8-2.2-1.4-4.6-2.5-2.4-1.2-4.9-2.1l10.7-2 7-8.5q-0.4 2.7-0.5 5.3-0.2 2.6-0.1 5.3 0.1 2.6 0.4 5.3 0.2 2.6 0.7 5.2z"/>
	<path id="Layer" class="s2" d="m106 156.4q-3.4 0.1-6.7-0.4-3.4-0.4-6.6-1.2-3.3-0.9-6.3-2.3-3.1-1.3-6-3-2.7-1.6-5-3.7-2.3-2.2-4-4.8-1.7-2.7-2.6-5.7-1-3-1.2-6.1 0-3.1 0.8-6.2 0.8-3 2.3-5.8 1.5-2.7 3.6-5 2.2-2.3 4.8-4 2.9-2.1 6.1-3.6 3.3-1.6 6.7-2.7 3.4-1.1 6.9-1.7 3.6-0.6 7.1-0.6 2.5-0.1 5 0.1 2.4 0.1 4.9 0.5 2.4 0.4 4.8 0.9 2.4 0.6 4.8 1.3l-3.1 9.1q-1.9-0.6-3.9-1.1-2-0.4-4-0.7-2-0.3-4.1-0.5-2-0.1-4.1-0.1-2.8 0.1-5.6 0.5-2.9 0.5-5.6 1.3-2.7 0.9-5.3 2.1-2.6 1.3-4.9 2.9-1.7 1-3.1 2.4-1.4 1.4-2.4 3.1-0.9 1.7-1.5 3.6-0.6 1.9-0.6 3.9 0.2 1.9 0.8 3.8 0.7 1.9 1.8 3.5 1.1 1.6 2.6 2.9 1.4 1.4 3.2 2.3 2.4 1.4 5.1 2.5 2.6 1.1 5.4 1.8 2.8 0.7 5.6 1 2.9 0.2 5.7 0.1 2-0.2 3.9-0.5 2-0.2 3.9-0.7 1.9-0.4 3.8-1 1.9-0.5 3.7-1.3l3.5 9q-2.3 0.8-4.5 1.5-2.3 0.7-4.6 1.2-2.3 0.5-4.6 0.9-2.4 0.3-4.8 0.5-0.9 0-1.7 0z"/>
	<path id="Layer" class="s2" d="m127.9 99.6q-1.5 1.6-2.8 3.3-1.4 1.7-2.5 3.6-1.1 1.8-2 3.8-1 2-1.6 4c1.5 1.8 2.8 3.8 3.6 6 0.9 2.2 1.3 4.5 1.3 6.8 0 2.4-0.5 4.7-1.3 6.9-0.9 2.1-2.2 4.1-3.8 5.9q0.7 2 1.6 3.9 1 2 2.1 3.8 1.1 1.8 2.4 3.5 1.4 1.7 2.8 3.3c4-3.3 7.3-7.4 9.5-12.1 2.2-4.7 3.4-9.8 3.5-14.9 0.1-5.2-1-10.3-3.1-15.1-2.1-4.7-5.2-8.9-9.1-12.3-0.2-0.2-0.4-0.2-0.6-0.4z"/>
	<path id="Layer" class="s2" d="m165.2 121.4q-1.2-4.3-2.5-8.6-1.3-4.3-2.7-8.6-1.4-4.2-3-8.4-1.6-4.2-3.3-8.4-2.2 0.2-4.3 0.5-2 0.4-4.1 1-2 0.6-4 1.4-2 0.8-3.8 1.8 1.7 4.1 3.3 8.2 1.6 4.2 3 8.4 1.4 4.1 2.7 8.4 1.3 4.2 2.4 8.5 1.3 5.1 2.3 10.2 1.1 5.1 1.9 10.3 0.9 5.1 1.5 10.3 0.6 5.2 1 10.4 2.1 0.1 4.2-0.1 2.2-0.2 4.2-0.6 2.1-0.4 4.2-1 2-0.6 4-1.5-0.4-5.3-1.1-10.6-0.7-5.3-1.5-10.6-0.9-5.3-2-10.5-1.1-5.3-2.4-10.5z"/>
	<path id="Layer" fill-rule="evenodd" class="s3" d="m149.1 87.8c5.2-1 10.5-1 15.7 0.1 5.2 1.1 10.2 3.2 14.6 6.2 4.3 2.9 8.1 6.7 11 11.2 9 13.6 8.9 31.3-0.3 44.8-9.2 13.5-25.6 20.1-41.6 16.8-16-3.3-28.5-15.9-31.5-31.9-3.1-16 3.8-32.3 17.5-41.3 4.4-2.9 9.4-4.9 14.6-5.9zm40.2 61.8c2.9-4.3 4.9-9.1 6-14.2 1.1-5.1 1.1-10.3 0.1-15.4-0.9-5.1-2.9-10-5.8-14.3-8.7-13.4-24.7-20.2-40.4-17.2-15.8 3-28.1 15.2-31.4 30.8-3.2 15.7 3.3 31.7 16.5 40.7 13.2 9 30.6 9.1 44 0.4 4.3-2.9 8.1-6.5 11-10.8z"/>
	<path id="Layer" class="s4" d="m187.8 157q-0.1-0.3-0.3-0.6-0.2-0.2-0.5-0.5-0.2-0.2-0.4-0.4-0.3-0.2-0.5-0.4-0.4 0.3-0.8 0.7-0.3 0.4-0.7 0.8-0.4 0.3-0.8 0.7-0.4 0.3-0.8 0.7-0.4 0.4-0.9 0.8-0.5 0.4-1 0.8-0.5 0.3-1.1 0.7-0.5 0.4-1 0.7-1 0.7-2.1 1.3-1 0.6-2.1 1.1-1 0.6-2.1 1.1-1.1 0.4-2.3 0.9 0.1 0.1 0.1 0.2 0 0.1 0 0.2 0.1 0.1 0.1 0.2 0.1 0.2 0.1 0.3 0.1 0.1 0.1 0.2 0.1 0.1 0.1 0.2 0.1 0.1 0.1 0.2 0.1 0.1 0.1 0.2l4.5 7.3 16.6-10.2z"/>
	<path id="Layer" class="s4" d="m177.1 176.9l16.7-10.2 2.1 3.4-16.7 10.2z"/>
	<path id="Layer" class="s4" d="m180.7 182.8l16.7-10.2 32.6 53.4-16.6 10.2z"/>
	<path id="Layer" class="s4" d="m233.7 232l-2.1-3.5-16.7 10.2 2.1 3.5q1 1.3 2.5 2.1 1.4 0.8 3 1 1.7 0.2 3.3-0.2 1.6-0.5 2.9-1.5l1-0.6q1.4-0.7 2.6-1.9 1.1-1.2 1.6-2.7 0.6-1.6 0.5-3.2 0-1.7-0.7-3.2z"/>
	<path id="Layer" fill-rule="evenodd" class="s5" d="m175.7 117.5q0.3-0.2 0.7-0.3 0.4-0.1 0.8 0 0.5 0 0.8 0.2 0.4 0.1 0.7 0.3 0.6 0.6 1 1.2 0.5 0.6 0.8 1.3 0.3 0.6 0.6 1.3 0.2 0.8 0.3 1.5 0.3 0.7 0.4 1.5 0.2 0.7 0.2 1.5 0 0.7 0 1.5-0.1 0.7-0.3 1.4-0.2 0.4-0.4 0.7-0.3 0.4-0.6 0.6-0.4 0.3-0.7 0.4-0.4 0.1-0.8 0.2-0.5 0-0.9 0-0.5 0-0.9-0.1-0.5-0.1-0.9-0.4-0.4-0.2-0.7-0.4-0.5-0.5-0.9-1-0.4-0.6-0.7-1.1-0.3-0.6-0.5-1.2-0.2-0.6-0.3-1.3-0.2-0.6-0.3-1.3-0.1-0.7-0.2-1.3 0-0.7 0.1-1.4 0.1-0.7 0.3-1.3 0.2-0.4 0.4-0.8 0.2-0.4 0.5-0.7 0.3-0.3 0.7-0.6 0.4-0.2 0.8-0.4zm0.5 2.1q-0.1 0-0.2 0.1-0.1 0-0.2 0.1-0.1 0.1-0.1 0.2-0.1 0-0.2 0.1 0 0.2-0.1 0.3 0 0.2-0.1 0.3 0 0.2 0 0.3 0 0.2 0 0.3 0 0.4 0.1 0.9 0 0.4 0.1 0.8 0.1 0.4 0.2 0.8 0.1 0.4 0.2 0.8 0.1 0.4 0.2 0.7 0.1 0.4 0.2 0.8 0.1 0.4 0.3 0.7 0.1 0.4 0.3 0.8 0.1 0.1 0.2 0.2 0 0.2 0.2 0.3 0.1 0.1 0.2 0.3 0.1 0.1 0.3 0.2 0.1 0 0.2 0 0.1 0.1 0.2 0.1 0.1 0 0.2 0 0.1 0 0.2 0 0.1 0 0.2-0.1 0.1 0 0.2-0.1 0.1 0 0.2-0.1 0.1-0.1 0.1-0.1 0.1-0.2 0.2-0.3 0-0.2 0-0.3 0.1-0.2 0.1-0.3 0-0.2 0-0.3-0.1-0.9-0.3-1.7-0.1-0.8-0.3-1.7-0.3-0.8-0.5-1.6-0.3-0.8-0.6-1.6-0.1-0.1-0.2-0.3-0.1-0.1-0.2-0.2-0.1-0.1-0.2-0.3-0.1-0.1-0.3-0.1-0.1-0.1-0.2-0.1-0.1 0-0.2 0-0.1 0-0.2 0-0.1 0-0.2 0.1z"/>
	<path id="Layer" fill-rule="evenodd" class="s5" d="m184.9 113.5q0.4-0.2 0.8-0.3 0.4-0.1 0.9 0 0.4 0.1 0.8 0.3 0.3 0.2 0.7 0.5 0.5 0.7 1 1.4 0.5 0.8 0.9 1.6 0.3 0.8 0.6 1.6 0.3 0.9 0.4 1.7 0.3 0.9 0.5 1.7 0.2 0.9 0.2 1.8 0.1 0.9 0.1 1.8-0.1 0.9-0.2 1.7-0.2 0.5-0.4 0.8-0.2 0.4-0.5 0.7-0.4 0.2-0.8 0.4-0.4 0.2-0.8 0.2-0.5 0.1-0.9 0-0.5 0-1-0.2-0.4-0.2-0.8-0.4-0.4-0.3-0.8-0.6-0.5-0.6-0.9-1.3-0.4-0.6-0.8-1.4-0.3-0.7-0.5-1.4-0.3-0.8-0.4-1.5-0.3-0.8-0.4-1.6-0.2-0.8-0.2-1.6-0.1-0.8 0-1.6 0.1-0.8 0.2-1.6 0.1-0.5 0.3-0.9 0.2-0.4 0.5-0.7 0.3-0.4 0.7-0.7 0.4-0.3 0.8-0.4zm0.7 2.4q-0.1 0.1-0.2 0.1-0.1 0.1-0.2 0.2-0.1 0.1-0.2 0.2 0 0.1-0.1 0.2-0.1 0.1-0.1 0.3-0.1 0.2-0.1 0.4 0 0.1 0 0.3 0 0.2 0 0.4 0.1 0.5 0.1 1 0.1 0.4 0.2 0.9 0.1 0.5 0.2 1 0.1 0.5 0.3 1 0.1 0.4 0.2 0.9 0.1 0.4 0.3 0.9 0.1 0.5 0.3 0.9 0.2 0.5 0.4 0.9 0 0.2 0.1 0.3 0.1 0.2 0.2 0.4 0.2 0.1 0.3 0.3 0.1 0.1 0.3 0.2 0.1 0.1 0.2 0.1 0.1 0.1 0.2 0.1 0.1 0 0.3 0 0.1 0 0.2 0 0.1 0 0.2-0.1 0.1 0 0.2-0.1 0.1 0 0.2-0.1 0-0.1 0.1-0.2 0.1-0.1 0.1-0.3 0.1-0.2 0.1-0.3 0-0.2 0-0.4 0-0.2 0-0.3-0.2-1.1-0.4-2-0.1-1-0.4-2-0.3-1-0.6-2-0.3-0.9-0.7-1.9 0-0.2-0.1-0.3-0.1-0.2-0.2-0.3-0.1-0.2-0.3-0.3-0.1-0.2-0.3-0.3-0.1 0-0.2-0.1-0.1 0-0.2 0-0.1 0-0.2 0-0.1 0-0.2 0z"/>
	<path id="Layer" class="s5" d="m201.1 127.4l-2.5 0.3-3.4-13q-0.2 0.5-0.4 1-0.3 0.4-0.6 0.9-0.3 0.4-0.6 0.9-0.4 0.4-0.7 0.7l-0.8-3q0.2-0.2 0.4-0.5 0.2-0.3 0.4-0.6 0.2-0.3 0.4-0.6 0.2-0.3 0.3-0.6 0.2-0.5 0.3-0.9 0.2-0.4 0.2-0.8 0.1-0.5 0.2-0.9 0-0.5 0-0.9l1.8-0.8z"/>
	<path id="Layer" class="s5" d="m210 126.1l-2.4 0.4-3.9-14.8q-0.2 0.5-0.4 1.1-0.2 0.5-0.5 1-0.3 0.5-0.6 0.9-0.4 0.5-0.8 0.9l-0.9-3.4q0.3-0.3 0.5-0.6 0.2-0.3 0.4-0.6 0.2-0.4 0.3-0.7 0.2-0.3 0.3-0.7 0.2-0.5 0.3-0.9 0.1-0.5 0.2-1 0.1-0.5 0.1-1 0-0.5 0-1l1.8-0.8z"/>
	<path id="Layer" fill-rule="evenodd" class="s5" d="m211.7 101.8q1.7-0.8 3.4 1.3 0.6 1.1 1.2 2.2 0.6 1.1 1.1 2.3 0.4 1.2 0.8 2.4 0.4 1.3 0.6 2.5 0.4 1.2 0.7 2.5 0.3 1.2 0.5 2.5 0.2 1.3 0.2 2.5 0.1 1.3 0 2.6-0.4 2.6-2.2 2.8c-1.3 0.2-2.5-0.5-3.7-2.1q-0.6-1-1.1-2-0.6-1-1-2.1-0.4-1.1-0.8-2.2-0.3-1.2-0.5-2.3-0.4-1.1-0.7-2.3-0.2-1.2-0.4-2.4-0.1-1.2-0.2-2.4 0-1.2 0.1-2.4 0-0.5 0.1-1 0.1-0.5 0.4-1 0.3-0.4 0.6-0.8 0.4-0.4 0.9-0.6zm1 3.6q-0.2 0.1-0.3 0.2-0.1 0.1-0.1 0.2-0.1 0.1-0.2 0.2 0 0.1 0 0.2-0.1 0.3-0.1 0.5 0 0.3 0 0.5 0 0.3 0 0.5 0 0.3 0.1 0.5 0.1 0.8 0.2 1.5 0.1 0.7 0.3 1.4 0.2 0.8 0.3 1.5 0.2 0.7 0.4 1.4 0.2 0.7 0.4 1.4 0.2 0.7 0.4 1.4 0.2 0.6 0.4 1.3 0.2 0.7 0.5 1.4 0.1 0.2 0.2 0.5 0.1 0.2 0.3 0.5 0.1 0.2 0.3 0.4 0.1 0.2 0.3 0.5 0.1 0.1 0.2 0.1 0.1 0.1 0.2 0.1 0.1 0.1 0.2 0.1 0.2 0 0.3 0 0.1 0 0.2-0.1 0.1 0 0.2-0.1 0.1-0.1 0.2-0.2 0-0.1 0-0.2 0.1-0.3 0.1-0.5 0-0.3 0-0.5 0-0.3 0-0.5 0-0.3-0.1-0.5-0.1-0.8-0.2-1.5-0.2-0.7-0.3-1.5-0.2-0.7-0.4-1.5-0.2-0.7-0.4-1.4-0.1-0.8-0.3-1.5-0.2-0.7-0.4-1.4-0.3-0.7-0.5-1.4-0.2-0.7-0.5-1.4-0.1-0.2-0.2-0.5-0.1-0.2-0.2-0.4-0.2-0.3-0.3-0.5-0.2-0.2-0.4-0.4-0.1-0.1-0.2-0.2-0.1 0-0.2 0-0.1-0.1-0.2-0.1-0.1 0-0.2 0z"/>
	<path id="Layer" class="s5" d="m229.9 123.3l-2.4 0.4-4.9-18.5q-0.2 0.6-0.3 1.2-0.2 0.6-0.5 1.2-0.3 0.6-0.6 1.2-0.3 0.5-0.7 1l-1.2-4.3q0.3-0.3 0.5-0.7 0.2-0.4 0.3-0.8 0.2-0.4 0.3-0.8 0.2-0.4 0.3-0.8 0.1-0.5 0.2-1.1 0.1-0.6 0.2-1.2 0-0.6 0-1.2 0-0.6-0.1-1.1l1.8-0.8z"/>
	<path id="Layer" fill-rule="evenodd" class="s5" d="m230.2 93.8q1.7-0.8 3.5 1.8 0.7 1.4 1.4 2.8 0.6 1.4 1.2 2.8 0.5 1.4 1 2.9 0.4 1.5 0.7 3 0.5 1.5 0.9 3 0.3 1.5 0.6 3.1 0.2 1.5 0.3 3 0.2 1.6 0.2 3.1c-0.2 2.1-0.9 3.2-2.1 3.4-1.2 0.2-2.6-0.7-3.9-2.7q-0.7-1.3-1.3-2.6-0.6-1.3-1.1-2.6-0.5-1.4-0.9-2.8-0.4-1.3-0.7-2.7-0.4-1.4-0.8-2.9-0.3-1.4-0.5-2.9-0.3-1.4-0.4-2.9-0.1-1.4-0.1-2.9c0.2-2.1 0.8-3.4 2-3.9zm1.2 4.5q-0.5 0.2-0.6 0.9-0.1 0.3-0.1 0.6 0 0.3 0 0.6 0 0.4 0.1 0.7 0 0.3 0.1 0.6 0.1 0.8 0.3 1.7 0.2 0.9 0.4 1.8 0.2 0.9 0.4 1.8 0.2 0.9 0.5 1.7 1.3 5 2 6.7 0.1 0.4 0.2 0.7 0.2 0.3 0.3 0.6 0.2 0.3 0.3 0.5 0.2 0.3 0.4 0.6 0.1 0.1 0.2 0.2 0.1 0.1 0.2 0.1 0.1 0.1 0.3 0.1 0.1 0.1 0.2 0.1 0.5-0.1 0.6-0.8 0.1-0.3 0.1-0.6 0-0.3 0-0.6 0-0.3 0-0.6-0.1-0.3-0.1-0.6-0.2-0.9-0.4-1.8-0.2-0.9-0.4-1.8-0.2-1-0.4-1.9-0.2-0.9-0.5-1.8-1.3-5-2-6.8-0.2-0.4-0.3-0.7-0.1-0.3-0.3-0.6-0.1-0.3-0.3-0.5-0.2-0.3-0.4-0.6-0.4-0.5-0.8-0.3z"/>
	<path id="Layer" fill-rule="evenodd" class="s5" d="m239.4 89.8q1.7-0.7 3.6 2.1 0.8 1.5 1.5 3.1 0.7 1.5 1.2 3.1 0.6 1.6 1.1 3.2 0.5 1.6 0.8 3.2 0.5 1.6 0.9 3.3 0.4 1.6 0.7 3.3 0.3 1.7 0.4 3.3 0.2 1.7 0.3 3.4-0.2 3.4-2.1 3.6c-1.2 0.2-2.5-0.8-3.9-2.9q-0.7-1.4-1.4-2.9-0.6-1.4-1.2-2.9-0.5-1.4-0.9-3-0.5-1.5-0.8-3-0.5-1.5-0.9-3.1-0.3-1.6-0.6-3.1-0.2-1.6-0.4-3.2-0.1-1.6-0.2-3.2 0.2-3.6 1.9-4.3zm1.3 4.9q-0.4 0.2-0.5 1-0.1 0.3-0.1 0.7 0 0.3 0 0.6 0 0.4 0.1 0.7 0 0.3 0.1 0.6 0.4 2.4 1.8 7.8 1.5 5.4 2.2 7.3 0.1 0.4 0.3 0.7 0.1 0.3 0.2 0.6 0.2 0.4 0.4 0.7 0.2 0.3 0.4 0.6 0.5 0.6 0.9 0.5 0.5 0 0.6-0.8 0.1-0.3 0.1-0.6 0-0.4 0-0.7 0-0.3-0.1-0.6 0-0.4-0.1-0.7-0.3-2.3-1.8-7.9-1.5-5.5-2.2-7.5-0.1-0.3-0.3-0.7-0.1-0.3-0.3-0.6-0.1-0.3-0.3-0.6-0.2-0.3-0.4-0.6-0.6-0.7-1-0.5z"/>
	<path id="Layer" class="s5" d="m259.8 119.2l-2.5 0.4-6.4-24.2q-0.1 0.7-0.2 1.5-0.2 0.7-0.4 1.5-0.2 0.7-0.5 1.4-0.3 0.7-0.7 1.3l-1.5-5.6q0.2-0.5 0.4-1 0.2-0.4 0.4-0.9 0.1-0.5 0.2-1 0.1-0.5 0.2-1 0.1-0.7 0.1-1.4 0.1-0.8 0.1-1.5 0-0.8-0.1-1.5 0-0.8-0.1-1.5l1.8-0.8z"/>
	<path id="Layer" fill-rule="evenodd" class="s5" d="m257.9 81.8q1.7-0.7 3.7 2.7 0.9 1.8 1.7 3.6 0.7 1.8 1.4 3.6 0.6 1.9 1.2 3.7 0.5 1.9 0.9 3.8 0.6 1.9 1.1 3.8 0.4 1.9 0.8 3.8 0.3 2 0.6 3.9 0.2 2 0.3 3.9c0 2.6-0.6 4-1.9 4.2q-1.8 0.2-4-3.6-0.8-1.7-1.6-3.4-0.7-1.7-1.3-3.4-0.6-1.7-1.1-3.5-0.5-1.8-0.9-3.6-0.6-1.7-1-3.6-0.4-1.8-0.8-3.6-0.3-1.9-0.5-3.8-0.2-1.8-0.3-3.7 0-4 1.7-4.8zm1.5 5.8q-0.4 0.1-0.5 1.1 0 0.3 0 0.7 0 0.4 0 0.8 0.1 0.4 0.1 0.7 0.1 0.4 0.1 0.8 0.5 2.7 2.2 9 1.7 6.3 2.5 8.6 0.1 0.4 0.3 0.8 0.1 0.4 0.3 0.8 0.2 0.4 0.4 0.7 0.2 0.4 0.4 0.8 0.6 0.7 1 0.6 0.4-0.1 0.6-0.9 0-0.4 0-0.7 0-0.4 0-0.8-0.1-0.4-0.1-0.7-0.1-0.4-0.2-0.8-0.4-2.7-2.1-9.2-1.7-6.4-2.6-8.8-0.1-0.4-0.3-0.7-0.1-0.4-0.3-0.8-0.2-0.4-0.4-0.8-0.2-0.3-0.4-0.7-0.5-0.7-1-0.5z"/>
	<path id="Layer" fill-rule="evenodd" class="s5" d="m180.1 131.3q0.4 0 0.9 0.2 0.4 0.1 0.7 0.3 0.4 0.2 0.7 0.5 0.4 0.3 0.6 0.7 0.4 1.2 0.4 2.5 0 1.3-0.3 2.5-0.3 1.3-1 2.4-0.7 1.1-1.6 1.9-0.4 0.2-0.8 0.3-0.5 0.1-0.9 0.1-0.4 0-0.8-0.1-0.5-0.1-0.9-0.3-0.4-0.1-0.8-0.4-0.4-0.2-0.8-0.5-0.3-0.3-0.6-0.7-0.4-0.3-0.6-0.7-0.4-1.1-0.4-2.2 0-1.2 0.3-2.3 0.3-1 0.9-2 0.6-0.9 1.5-1.7 0.4-0.2 0.8-0.3 0.5-0.2 0.9-0.2 0.5-0.1 0.9-0.1 0.5 0 0.9 0.1zm-0.5 1.7q-0.2 0-0.5 0-0.2 0-0.5 0.1-0.2 0.1-0.4 0.3-0.2 0.2-0.3 0.4-0.3 0.6-0.6 1.2-0.2 0.7-0.4 1.3-0.1 0.7-0.3 1.3-0.1 0.7-0.1 1.4 0 0.1 0 0.3 0 0.1 0.1 0.2 0 0.2 0.1 0.3 0 0.2 0.1 0.3 0.1 0.1 0.2 0.2 0.1 0 0.2 0.1 0.1 0.1 0.2 0.1 0.1 0.1 0.2 0.1 0.2 0.1 0.5 0.1 0.2 0 0.5-0.1 0.2-0.1 0.4-0.2 0.2-0.2 0.3-0.4 0.3-0.7 0.6-1.3 0.2-0.7 0.4-1.4 0.2-0.7 0.3-1.4 0.1-0.7 0.2-1.4 0-0.1 0-0.3 0-0.1-0.1-0.3 0-0.1-0.1-0.2-0.1-0.2-0.2-0.3 0-0.1-0.1-0.1-0.1-0.1-0.2-0.1-0.1-0.1-0.2-0.1-0.1-0.1-0.3-0.1z"/>
	<path id="Layer" fill-rule="evenodd" class="s5" d="m191.1 133q0.5 0 0.9 0.2 0.4 0.1 0.8 0.4 0.4 0.2 0.6 0.6 0.3 0.3 0.5 0.7 0.3 0.7 0.4 1.5 0.1 0.8 0.1 1.5-0.1 0.8-0.2 1.5-0.2 0.8-0.4 1.5-0.2 0.8-0.4 1.5-0.3 0.7-0.6 1.4-0.4 0.7-0.9 1.3-0.4 0.6-1 1.1-0.4 0.2-0.8 0.4-0.4 0.1-0.9 0.2-0.4 0-0.9-0.1-0.4-0.1-0.8-0.3-0.5-0.2-0.9-0.4-0.4-0.3-0.7-0.6-0.4-0.4-0.7-0.8-0.2-0.4-0.4-0.8-0.3-1.3-0.3-2.7 0-1.4 0.4-2.7 0.4-1.3 1.1-2.5 0.6-1.1 1.6-2.1 0.4-0.3 0.8-0.5 0.4-0.2 0.9-0.3 0.4-0.1 0.9-0.1 0.5 0 0.9 0.1zm-0.6 2.1q-0.1 0-0.2-0.1-0.1 0-0.2 0.1-0.1 0-0.2 0-0.2 0-0.3 0.1-0.1 0.1-0.2 0.2-0.2 0.1-0.3 0.2-0.1 0.1-0.2 0.2-0.1 0.2-0.2 0.3-0.3 0.7-0.6 1.5-0.3 0.8-0.5 1.6-0.2 0.8-0.4 1.6-0.1 0.8-0.2 1.6 0 0.2 0 0.4 0 0.1 0.1 0.3 0 0.2 0.1 0.3 0 0.2 0.1 0.3 0.1 0.1 0.2 0.2 0 0.1 0.1 0.2 0.1 0.1 0.2 0.1 0.1 0.1 0.3 0.1 0.1 0.1 0.2 0.1 0.1 0 0.2 0 0.1 0 0.2 0 0.2 0 0.3-0.1 0.1 0 0.2-0.1 0.2-0.1 0.3-0.3 0.1-0.1 0.2-0.2 0.1-0.1 0.1-0.3 0.4-0.8 0.7-1.6 0.3-0.8 0.5-1.6 0.2-0.8 0.4-1.7 0.2-0.8 0.2-1.7 0.1-0.2 0.1-0.3-0.1-0.2-0.1-0.4 0-0.1-0.1-0.3-0.1-0.2-0.2-0.3 0-0.1-0.1-0.2-0.1 0-0.2-0.1-0.1 0-0.2-0.1-0.1 0-0.3 0z"/>
	<path id="Layer" class="s5" d="m200.2 151.1l-2.6-1 3-11.1q-0.5 0.3-0.9 0.5-0.5 0.2-1 0.4-0.5 0.2-1.1 0.3-0.5 0.1-1 0.1l0.6-2.5q0.4-0.1 0.7-0.1 0.4-0.1 0.7-0.2 0.4-0.2 0.7-0.3 0.3-0.1 0.6-0.3 0.4-0.2 0.7-0.4 0.3-0.3 0.6-0.5 0.3-0.3 0.6-0.6 0.2-0.3 0.5-0.7l2.2 0.4z"/>
	<path id="Layer" fill-rule="evenodd" class="s5" d="m213.1 136.4q0.5 0 1 0.2 0.4 0.2 0.8 0.5 0.3 0.4 0.6 0.8 0.2 0.4 0.4 0.9 0.1 1 0.2 2 0 1-0.1 2-0.1 1-0.3 2-0.2 0.9-0.5 1.9-0.2 1-0.5 1.9-0.3 1-0.8 1.9-0.4 0.9-0.9 1.7-0.6 0.9-1.2 1.7-0.3 0.3-0.8 0.6-0.4 0.2-0.9 0.3-0.4 0.1-0.9 0-0.5 0-0.9-0.2-0.5-0.2-1-0.5-0.4-0.4-0.7-0.8-0.4-0.4-0.6-0.9-0.3-0.5-0.4-1-0.1-0.9-0.2-1.8 0-0.9 0.1-1.8 0.1-0.9 0.3-1.8 0.1-0.9 0.4-1.8 0.2-0.9 0.5-1.8 0.3-0.8 0.7-1.7 0.4-0.8 0.9-1.6 0.6-0.8 1.2-1.5 0.3-0.3 0.7-0.6 0.5-0.3 0.9-0.5 0.5-0.1 1-0.2 0.5 0 1 0.1zm-0.7 2.8q-0.2 0-0.3 0-0.1 0-0.3 0-0.1 0-0.2 0.1-0.1 0-0.2 0.1-0.2 0.1-0.3 0.3-0.2 0.1-0.3 0.3-0.1 0.2-0.2 0.3-0.1 0.2-0.2 0.4-0.4 1-0.8 2.1-0.3 1.1-0.6 2.1-0.3 1.1-0.5 2.2-0.3 1.1-0.4 2.2-0.1 0.2-0.1 0.5 0 0.2 0.1 0.4 0 0.2 0 0.4 0.1 0.3 0.2 0.5 0 0.1 0.1 0.2 0.1 0.1 0.2 0.2 0.1 0.1 0.2 0.1 0.1 0.1 0.2 0.1 0.1 0.1 0.2 0.1 0.1 0 0.3 0 0.1 0 0.2-0.1 0.1 0 0.2-0.1 0.2-0.1 0.3-0.2 0.1-0.2 0.3-0.3 0.1-0.2 0.2-0.3 0.1-0.2 0.2-0.4 0.4-1.1 0.8-2.2 0.3-1.1 0.6-2.2 0.3-1.1 0.6-2.2 0.2-1.2 0.4-2.3 0-0.2 0-0.5 0-0.2 0-0.4 0-0.2-0.1-0.4 0-0.2-0.1-0.4-0.1-0.1-0.1-0.2-0.1-0.1-0.2-0.2-0.1-0.1-0.2-0.1-0.1-0.1-0.2-0.1z"/>
	<path id="Layer" class="s5" d="m220.9 159.2l-2.5-1 3.9-14.6q-0.5 0.4-1 0.7-0.5 0.4-1 0.6-0.6 0.3-1.1 0.5-0.6 0.2-1.2 0.3l1-3.4q0.3-0.1 0.7-0.2 0.3-0.2 0.7-0.3 0.3-0.2 0.7-0.4 0.3-0.2 0.6-0.4 0.4-0.3 0.8-0.7 0.3-0.3 0.6-0.7 0.4-0.3 0.6-0.7 0.3-0.4 0.5-0.9l2.2 0.4z"/>
	<path id="Layer" fill-rule="evenodd" class="s5" d="m235.1 139.7q0.6 0.1 1 0.4 0.5 0.2 0.8 0.6 0.4 0.4 0.6 0.9 0.2 0.5 0.2 1 0.1 1.3 0.1 2.5 0 1.3-0.2 2.5-0.1 1.2-0.4 2.5-0.3 1.2-0.7 2.4-0.2 1.2-0.6 2.4-0.4 1.2-0.9 2.3-0.5 1.1-1.1 2.2-0.6 1.1-1.3 2.1-0.3 0.5-0.7 0.8-0.4 0.3-0.9 0.5-0.5 0.1-1 0.1-0.5 0-1-0.2-0.5-0.2-1-0.6-0.4-0.4-0.8-0.9-0.3-0.5-0.5-1-0.2-0.6-0.2-1.2-0.1-1.1-0.1-2.3 0-1.1 0.2-2.3 0.1-1.1 0.4-2.2 0.2-1.2 0.6-2.2 0.2-1.2 0.6-2.3 0.4-1.1 0.8-2.2 0.5-1.1 1.1-2.1 0.6-1 1.2-2 0.4-0.4 0.8-0.8 0.4-0.3 0.9-0.5 0.5-0.3 1-0.3 0.6-0.1 1.1-0.1zm-0.9 3.6q-0.2 0-0.3 0-0.1 0-0.3 0.1-0.1 0-0.2 0.1-0.1 0.1-0.2 0.1-0.2 0.2-0.4 0.4-0.1 0.2-0.3 0.4-0.1 0.2-0.2 0.4-0.1 0.3-0.2 0.5-0.5 1.3-0.9 2.7-0.5 1.3-0.8 2.7-0.4 1.4-0.7 2.7-0.3 1.4-0.6 2.8 0 0.3 0 0.5 0 0.3 0 0.6 0 0.3 0 0.5 0.1 0.3 0.1 0.6 0.1 0.1 0.1 0.2 0.1 0.1 0.2 0.2 0.1 0.1 0.2 0.2 0.1 0.1 0.2 0.1 0.2 0.1 0.3 0.1 0.1 0 0.2 0 0.2-0.1 0.3-0.1 0.1-0.1 0.2-0.2 0.2-0.1 0.3-0.3 0.2-0.2 0.3-0.4 0.2-0.2 0.3-0.4 0.1-0.3 0.2-0.5 0.2-0.7 0.5-1.4 0.2-0.7 0.5-1.4 0.2-0.7 0.4-1.4 0.2-0.7 0.4-1.4 0.2-0.7 0.4-1.4 0.1-0.7 0.3-1.4 0.1-0.7 0.3-1.4 0.1-0.7 0.2-1.4 0.1-0.3 0.1-0.5 0-0.3 0-0.6 0-0.2-0.1-0.5 0-0.3-0.1-0.5 0-0.2-0.1-0.3-0.1-0.1-0.2-0.2-0.1 0-0.2-0.1-0.1-0.1-0.2-0.1z"/>
	<path id="Layer" class="s5" d="m241.7 167.3l-2.6-1 4.8-17.9q-0.4 0.4-1 0.8-0.5 0.5-1 0.8-0.6 0.3-1.2 0.6-0.6 0.3-1.2 0.5l1.1-4.2q0.4-0.2 0.8-0.3 0.4-0.2 0.8-0.5 0.3-0.2 0.7-0.5 0.3-0.2 0.6-0.5 0.5-0.4 0.8-0.8 0.4-0.4 0.8-0.9 0.3-0.5 0.6-0.9 0.3-0.5 0.6-1.1l2.2 0.4z"/>
	<path id="Layer" class="s5" d="m251 170.9l-2.6-1 5.3-19.4q-0.5 0.5-1 0.9-0.5 0.5-1.1 0.9-0.6 0.4-1.2 0.7-0.6 0.3-1.2 0.5l1.2-4.5q0.4-0.2 0.8-0.4 0.4-0.2 0.8-0.5 0.3-0.2 0.7-0.5 0.3-0.3 0.6-0.6 0.5-0.4 0.9-0.9 0.4-0.5 0.8-1 0.3-0.5 0.6-1 0.3-0.6 0.6-1.1l2.2 0.3z"/>
	<path id="Layer" fill-rule="evenodd" class="s5" d="m267.1 144.6q2 0.3 2.3 3.7 0.1 1.6-0.1 3.2-0.1 1.6-0.3 3.1-0.3 1.6-0.6 3.2-0.4 1.5-0.9 3.1-0.3 1.5-0.8 3.1-0.5 1.5-1 3-0.6 1.5-1.3 2.9-0.7 1.5-1.5 2.8-1.9 2.7-3.9 1.9-1.9-0.7-2.2-4.4-0.1-1.5 0.1-3 0.1-1.5 0.3-3 0.2-1.5 0.6-2.9 0.3-1.5 0.8-2.9 0.3-1.5 0.7-3 0.5-1.4 1.1-2.9 0.5-1.4 1.2-2.7 0.7-1.4 1.5-2.7c1.3-1.8 2.6-2.7 4-2.5zm-1.3 4.7q-0.1 0-0.3 0-0.1 0-0.3 0.1-0.1 0.1-0.2 0.2-0.1 0.1-0.2 0.2-0.2 0.2-0.4 0.5-0.2 0.2-0.3 0.5-0.2 0.3-0.3 0.6-0.1 0.3-0.2 0.6-0.4 0.9-0.7 1.7-0.3 0.9-0.6 1.8-0.2 0.9-0.5 1.8-0.2 1-0.5 1.9-0.2 0.8-0.4 1.7-0.3 0.9-0.5 1.8-0.2 0.9-0.4 1.8-0.1 0.9-0.3 1.7-0.1 0.4-0.1 0.7 0 0.4-0.1 0.7 0 0.3 0 0.7 0.1 0.3 0.1 0.7 0 0.1 0.1 0.3 0 0.1 0.1 0.2 0.1 0.1 0.2 0.2 0.1 0.1 0.3 0.2 0.1 0 0.3 0 0.1 0 0.2 0 0.2-0.1 0.3-0.2 0.1-0.1 0.2-0.2 0.2-0.2 0.4-0.5 0.1-0.2 0.3-0.5 0.1-0.3 0.3-0.5 0.1-0.3 0.2-0.6 0.3-0.9 0.6-1.8 0.3-0.9 0.6-1.9 0.3-0.9 0.6-1.8 0.2-0.9 0.4-1.9 0.3-0.9 0.5-1.8 0.3-0.9 0.5-1.8 0.2-0.9 0.4-1.8 0.2-0.9 0.3-1.8 0.1-0.4 0.1-0.7 0.1-0.3 0.1-0.7 0-0.3 0-0.7 0-0.3-0.1-0.7-0.2-0.6-0.7-0.7z"/>
</svg>