<?xml version="1.0" encoding="UTF-8"?>
<svg xmlns="http://www.w3.org/2000/svg" xmlns:xlink="http://www.w3.org/1999/xlink" width="px" height="40px" viewBox="0 0 40 40" version="1.1">
<g id="surface1">
<path style=" stroke:none;fill-rule:evenodd;fill:rgb(0%,0%,0%);fill-opacity:1;" d="M 26.421875 39.984375 C 25.042969 39.152344 23.664062 38.316406 22.285156 37.484375 C 21.546875 37.03125 20.8125 36.578125 20.078125 36.125 L 20 36.078125 L 19.921875 36.125 C 19.074219 36.636719 18.226562 37.144531 17.378906 37.65625 C 16.121094 38.421875 14.835938 39.203125 13.546875 39.984375 C 12.230469 39.171875 10.882812 38.359375 9.578125 37.578125 C 8.550781 36.96875 7.480469 36.328125 6.4375 35.703125 C 6.4375 34.390625 6.4375 33.078125 6.4375 31.765625 C 6.4375 30.527344 6.4375 29.28125 6.4375 28.03125 L 6.4375 27.9375 L 6.359375 27.90625 C 4.734375 26.921875 3.082031 25.90625 1.472656 24.9375 L 0.09375 24.109375 C 0.078125 23.3125 0.078125 22.515625 0.0625 21.734375 C 0.0625 21.015625 0.0625 20.296875 0.046875 19.5625 C 0.03125 19.359375 0.03125 19.140625 0.03125 18.9375 C 0.03125 18.78125 0.03125 18.625 0.03125 18.46875 C 0.03125 18 0.015625 17.546875 0.015625 17.078125 C 0.015625 16.6875 0.015625 16.28125 0 15.890625 C 0.878906 15.347656 1.753906 14.8125 2.621094 14.28125 C 3.863281 13.515625 5.148438 12.734375 6.390625 11.953125 L 6.46875 11.90625 L 6.46875 11.828125 C 6.484375 11.359375 6.484375 10.890625 6.484375 10.4375 C 6.484375 10.140625 6.484375 9.828125 6.484375 9.53125 C 6.5 9.125 6.5 8.6875 6.511719 8.28125 C 6.511719 7.828125 6.511719 7.359375 6.527344 6.890625 C 6.511719 6.359375 6.527344 5.828125 6.527344 5.296875 C 6.542969 4.9375 6.542969 4.5625 6.542969 4.1875 C 7.207031 3.792969 7.867188 3.394531 8.519531 3 C 10.144531 2.015625 11.832031 1 13.488281 0 C 13.792969 0.203125 14.835938 0.859375 18.574219 3.140625 C 19.082031 3.4375 19.539062 3.71875 19.921875 3.953125 L 20 4 L 20.078125 3.953125 C 20.460938 3.71875 20.917969 3.4375 21.425781 3.125 C 25.148438 0.859375 26.207031 0.203125 26.5 0 C 28.246094 1.046875 30.007812 2.109375 31.707031 3.140625 C 32.292969 3.484375 32.867188 3.832031 33.441406 4.1875 C 33.441406 4.519531 33.445312 4.847656 33.457031 5.171875 C 33.457031 5.4375 33.472656 5.71875 33.472656 6 C 33.472656 6.453125 33.472656 6.921875 33.488281 7.375 C 33.488281 7.875 33.5 8.390625 33.488281 8.890625 C 33.5 9.40625 33.515625 9.921875 33.515625 10.40625 C 33.515625 10.875 33.515625 11.359375 33.53125 11.828125 L 33.53125 11.90625 L 33.59375 11.953125 C 34.988281 12.8125 36.398438 13.6875 37.777344 14.515625 C 38.511719 14.972656 39.25 15.433594 39.984375 15.890625 C 39.984375 16.296875 39.984375 16.703125 39.984375 17.09375 C 39.984375 17.40625 39.96875 17.734375 39.96875 18.046875 C 39.953125 18.390625 39.953125 18.734375 39.953125 19.0625 C 39.953125 19.363281 39.953125 19.660156 39.953125 19.953125 C 39.9375 20.296875 39.9375 20.625 39.9375 20.953125 C 39.9375 21.21875 39.9375 21.5 39.921875 21.78125 C 39.921875 22.15625 39.921875 22.53125 39.921875 22.890625 C 39.921875 23.296875 39.90625 23.703125 39.894531 24.109375 C 37.914062 25.296875 35.785156 26.59375 33.625 27.90625 L 33.5625 27.9375 L 33.5625 28.03125 C 33.5625 29.136719 33.558594 30.238281 33.546875 31.34375 C 33.546875 32.792969 33.546875 34.246094 33.546875 35.703125 C 32.246094 36.484375 30.925781 37.28125 29.65625 38.046875 C 28.613281 38.671875 27.539062 39.3125 26.484375 39.953125 C 26.472656 39.953125 26.460938 39.957031 26.453125 39.96875 C 26.441406 39.96875 26.433594 39.972656 26.421875 39.984375 Z M 7.417969 28.8125 C 7.402344 29.875 7.386719 30.953125 7.371094 32 C 7.355469 33.046875 7.339844 34.125 7.308594 35.1875 L 7.308594 35.265625 L 7.386719 35.3125 C 9.183594 36.40625 10.984375 37.496094 12.78125 38.578125 L 13.011719 38.703125 L 13.011719 38.453125 C 13.027344 37.453125 13.027344 36.453125 13.042969 35.484375 C 13.058594 34.34375 13.058594 33.15625 13.074219 31.984375 L 13.074219 31.90625 L 13.011719 31.859375 C 12.890625 31.777344 12.761719 31.699219 12.628906 31.625 C 12.558594 31.582031 12.484375 31.542969 12.414062 31.5 C 11.863281 31.175781 11.308594 30.847656 10.757812 30.515625 C 9.714844 29.921875 8.675781 29.296875 7.632812 28.6875 L 7.417969 28.5625 Z M 32.351562 28.6875 C 31.753906 29.046875 31.140625 29.390625 30.542969 29.75 C 29.378906 30.4375 28.167969 31.140625 26.988281 31.859375 L 26.910156 31.90625 L 26.910156 31.984375 C 26.925781 33.15625 26.941406 34.359375 26.941406 35.515625 C 26.957031 36.46875 26.972656 37.46875 26.972656 38.453125 L 26.988281 38.703125 L 27.203125 38.578125 C 28.796875 37.609375 30.699219 36.46875 32.597656 35.3125 L 32.675781 35.265625 L 32.675781 35.1875 C 32.644531 34.09375 32.628906 33 32.628906 31.9375 C 32.613281 30.90625 32.597656 29.859375 32.566406 28.8125 L 32.566406 28.5625 Z M 17.59375 29.59375 C 16.414062 30.296875 15.1875 31.03125 13.992188 31.734375 L 13.914062 31.78125 L 13.914062 31.875 C 13.929688 32.921875 13.929688 33.984375 13.929688 35.015625 L 13.929688 35.53125 C 13.929688 36.46875 13.945312 37.390625 13.945312 38.40625 L 13.945312 38.671875 L 14.160156 38.546875 C 15.152344 37.964844 16.136719 37.378906 17.117188 36.796875 C 18.070312 36.222656 19.023438 35.652344 19.984375 35.078125 C 20.902344 35.621094 21.824219 36.167969 22.742188 36.71875 C 23.765625 37.324219 24.792969 37.933594 25.824219 38.546875 L 26.039062 38.671875 L 26.039062 38.40625 C 26.039062 38.1875 26.039062 37.972656 26.039062 37.765625 C 26.039062 37.359375 26.039062 36.953125 26.054688 36.5625 C 26.054688 35.703125 26.054688 34.84375 26.054688 34 C 26.054688 33.3125 26.054688 32.578125 26.070312 31.875 L 26.070312 31.78125 L 25.992188 31.75 C 24.714844 30.988281 23.433594 30.222656 22.144531 29.453125 C 21.457031 29.046875 19.984375 28.171875 19.984375 28.171875 C 19.984375 28.171875 18.375 29.140625 17.59375 29.59375 Z M 12.875 16.90625 C 12.800781 16.949219 12.726562 16.996094 12.644531 17.046875 C 12.351562 17.21875 12.046875 17.390625 11.738281 17.578125 L 10.128906 18.5625 C 9.273438 19.09375 8.410156 19.625 7.539062 20.15625 L 7.480469 20.1875 L 7.480469 20.28125 C 7.480469 20.636719 7.480469 20.996094 7.480469 21.359375 L 7.480469 21.671875 C 7.464844 22.84375 7.449219 24.03125 7.449219 25.1875 C 7.449219 25.953125 7.449219 26.75 7.449219 27.53125 L 7.449219 27.625 L 7.523438 27.65625 C 8.363281 28.136719 9.199219 28.609375 10.039062 29.078125 C 11.1875 29.71875 12.367188 30.390625 13.53125 31.03125 L 13.609375 31.078125 L 13.6875 31.03125 C 14.566406 30.5 15.449219 29.964844 16.335938 29.421875 C 17.132812 28.9375 19.28125 27.71875 19.28125 27.71875 L 19.019531 27.5625 C 18.085938 27 17.132812 26.4375 16.214844 25.890625 C 15.15625 25.25 14.070312 24.59375 12.996094 23.96875 C 12.996094 22.796875 13.027344 21.625 13.042969 20.46875 C 13.074219 19.359375 13.089844 18.203125 13.089844 17.0625 L 13.101562 16.796875 Z M 23.28125 29.1875 C 24.277344 29.796875 25.289062 30.421875 26.300781 31.03125 L 26.375 31.078125 L 26.453125 31.03125 C 27.664062 30.359375 28.890625 29.65625 30.070312 28.984375 C 30.867188 28.546875 31.664062 28.105469 32.460938 27.65625 L 32.535156 27.609375 L 32.535156 27.515625 C 32.535156 27.265625 32.53125 27.011719 32.519531 26.75 C 32.519531 26.355469 32.519531 25.964844 32.519531 25.578125 C 32.519531 24.609375 32.519531 23.625 32.519531 22.671875 C 32.503906 21.875 32.503906 21.0625 32.503906 20.265625 L 32.503906 20.1875 L 32.429688 20.140625 C 31.695312 19.691406 30.957031 19.238281 30.222656 18.78125 C 29.753906 18.5 29.28125 18.214844 28.8125 17.921875 C 28.199219 17.546875 27.648438 17.21875 27.109375 16.90625 L 26.882812 16.78125 L 26.898438 17.046875 C 26.910156 18.15625 26.925781 19.28125 26.941406 20.375 C 26.957031 21.546875 26.988281 22.75 27.003906 23.953125 C 26.039062 24.515625 25.058594 25.109375 24.105469 25.671875 C 23.515625 26.027344 22.925781 26.378906 22.34375 26.734375 C 22.171875 26.839844 21.996094 26.941406 21.824219 27.046875 C 21.546875 27.203125 21.257812 27.375 20.964844 27.53125 L 20.675781 27.6875 C 20.691406 27.6875 22.667969 28.8125 23.28125 29.1875 Z M 20.675781 27.6875 Z M 18.269531 13.765625 C 16.84375 14.625 15.386719 15.5 13.945312 16.375 L 13.871094 16.421875 C 13.871094 17.640625 13.871094 18.9375 13.871094 20.140625 C 13.871094 21.253906 13.871094 22.371094 13.871094 23.484375 L 13.871094 23.5625 L 13.945312 23.609375 C 15.050781 24.253906 16.160156 24.894531 17.273438 25.53125 C 18.152344 26.050781 19.035156 26.566406 19.921875 27.078125 L 20 27.125 L 20.0625 27.078125 C 20.703125 26.703125 21.347656 26.332031 21.992188 25.96875 C 23.308594 25.203125 24.691406 24.40625 26.039062 23.609375 L 26.113281 23.5625 C 26.113281 22.5 26.113281 21.359375 26.113281 20.28125 C 26.113281 19.03125 26.113281 17.769531 26.113281 16.5 L 26.113281 16.421875 L 26.039062 16.375 C 24.398438 15.375 22.710938 14.375 21.089844 13.390625 L 20 12.734375 C 19.984375 12.734375 18.820312 13.4375 18.269531 13.765625 Z M 0.675781 17.03125 C 0.691406 19.203125 0.703125 21.40625 0.71875 23.53125 L 0.71875 23.65625 L 0.796875 23.6875 C 1.808594 24.28125 2.835938 24.890625 3.832031 25.46875 C 4.660156 25.957031 5.488281 26.441406 6.3125 26.921875 L 6.527344 27.046875 L 6.527344 26.796875 C 6.527344 26.1875 6.527344 25.578125 6.542969 24.984375 C 6.542969 24.3125 6.558594 23.59375 6.558594 22.90625 C 6.542969 22.5 6.558594 22.109375 6.558594 21.71875 C 6.558594 21.265625 6.574219 20.78125 6.574219 20.3125 L 6.574219 20.234375 L 6.5 20.1875 C 5.5 19.609375 4.503906 19.015625 3.523438 18.453125 C 2.789062 18.015625 0.675781 16.828125 0.675781 16.828125 Z M 36.476562 18.421875 C 35.496094 19 34.484375 19.59375 33.472656 20.171875 L 33.394531 20.21875 L 33.394531 20.296875 C 33.394531 20.84375 33.394531 21.375 33.410156 21.890625 C 33.410156 22.671875 33.410156 23.46875 33.410156 24.25 C 33.425781 24.984375 33.425781 25.78125 33.425781 26.78125 L 33.425781 27.03125 L 33.65625 26.90625 C 34.441406 26.449219 35.230469 25.984375 36.015625 25.515625 C 37.058594 24.921875 38.113281 24.296875 39.171875 23.671875 L 39.234375 23.640625 L 39.234375 23.546875 C 39.25 21.609375 39.265625 19.296875 39.296875 17.03125 L 39.296875 16.796875 C 39.296875 16.8125 37.101562 18.046875 36.476562 18.421875 Z M 39.296875 16.796875 Z M 7.355469 12.296875 C 6.40625 12.871094 5.460938 13.441406 4.519531 14.015625 C 3.429688 14.671875 2.339844 15.324219 1.257812 15.96875 L 1.011719 16.125 C 1.011719 16.125 3.785156 17.640625 4.71875 18.171875 C 5.476562 18.597656 6.234375 19.027344 6.988281 19.453125 L 7.066406 19.5 L 7.125 19.453125 C 9.300781 18.078125 11.125 16.9375 12.949219 15.765625 L 13.027344 15.71875 L 13.027344 15.640625 C 13.027344 14.90625 13.027344 14.140625 13.042969 13.40625 L 13.042969 13.234375 C 13.042969 12.3125 13.042969 11.375 13.042969 10.46875 C 13.042969 9.875 13.042969 9.25 13.042969 8.640625 L 13.042969 8.546875 L 12.980469 8.515625 C 12.09375 8 11.203125 7.46875 10.328125 6.953125 C 9.457031 6.453125 7.371094 5.28125 7.371094 5.28125 L 7.371094 5.5 C 7.363281 6.625 7.355469 7.746094 7.355469 8.859375 C 7.355469 9.984375 7.355469 11.15625 7.355469 12.296875 Z M 29.378906 7.109375 C 28.582031 7.578125 27.789062 8.042969 27.003906 8.5 L 26.925781 8.546875 L 26.925781 8.625 C 26.925781 9.828125 26.925781 11.03125 26.925781 12.15625 C 26.941406 13.28125 26.941406 14.46875 26.941406 15.640625 L 26.941406 15.71875 L 27.019531 15.765625 C 28.675781 16.8125 30.359375 17.890625 32 18.90625 L 32.917969 19.484375 L 32.996094 19.453125 C 33.476562 19.183594 33.957031 18.90625 34.4375 18.625 C 35.386719 18.09375 38.957031 16.109375 38.957031 16.109375 L 38.710938 15.96875 C 37.546875 15.265625 36.367188 14.5625 35.234375 13.875 C 34.367188 13.34375 33.496094 12.816406 32.628906 12.296875 C 32.613281 11.171875 32.613281 10.046875 32.613281 8.921875 C 32.613281 7.777344 32.613281 6.628906 32.613281 5.484375 L 32.613281 5.265625 C 32.613281 5.265625 30.175781 6.65625 29.378906 7.109375 Z M 19.984375 11.6875 C 21.042969 12.3125 22.113281 12.96875 23.140625 13.59375 C 24.015625 14.125 24.902344 14.671875 25.792969 15.203125 L 26.007812 15.328125 L 26.023438 15.078125 C 26.039062 13.921875 26.054688 12.734375 26.070312 11.59375 C 26.085938 10.609375 26.101562 9.578125 26.113281 8.5625 L 26.113281 8.484375 L 26.039062 8.4375 C 25.761719 8.25 25.472656 8.09375 25.179688 7.9375 C 25.007812 7.84375 24.832031 7.746094 24.660156 7.640625 L 23.097656 6.75 C 22.070312 6.171875 21.074219 5.609375 20.046875 5.03125 L 19.984375 5 L 19.90625 5.03125 C 18.820312 5.640625 17.730469 6.265625 16.660156 6.875 L 14.988281 7.8125 C 14.851562 7.90625 14.710938 7.96875 14.589844 8.046875 C 14.359375 8.171875 14.128906 8.296875 13.914062 8.4375 L 13.855469 8.484375 L 13.855469 8.5625 C 13.871094 9.5625 13.886719 10.59375 13.898438 11.578125 C 13.914062 12.71875 13.929688 13.90625 13.945312 15.078125 L 13.945312 15.328125 L 14.175781 15.203125 C 15.066406 14.671875 15.953125 14.125 16.84375 13.59375 C 17.871094 12.953125 18.925781 12.3125 19.984375 11.6875 Z M 26.375 1.015625 C 25.753906 1.390625 25.132812 1.765625 24.519531 2.140625 C 23.355469 2.84375 22.144531 3.578125 20.964844 4.296875 L 20.75 4.421875 L 20.964844 4.5625 C 21.957031 5.144531 22.941406 5.738281 23.921875 6.34375 C 24.742188 6.832031 25.558594 7.324219 26.375 7.8125 L 26.453125 7.84375 L 26.527344 7.796875 C 27.21875 7.375 32.167969 4.390625 32.167969 4.390625 L 31.953125 4.265625 C 30.882812 3.609375 29.792969 2.96875 28.75 2.328125 C 28.015625 1.90625 27.265625 1.453125 26.527344 1.015625 L 26.453125 0.96875 Z M 13.457031 1.015625 C 12.710938 1.453125 11.964844 1.894531 11.21875 2.34375 C 10.175781 2.96875 9.089844 3.625 8.015625 4.265625 L 7.800781 4.390625 C 7.800781 4.390625 10.328125 5.921875 11.449219 6.59375 C 12.121094 7 12.78125 7.40625 13.457031 7.8125 L 13.53125 7.859375 L 13.609375 7.8125 C 14.417969 7.324219 15.230469 6.832031 16.046875 6.34375 C 17.027344 5.75 18.011719 5.15625 19.003906 4.5625 L 19.21875 4.4375 L 19.003906 4.296875 C 17.839844 3.59375 16.644531 2.859375 15.496094 2.15625 C 14.859375 1.769531 14.234375 1.390625 13.609375 1.015625 L 13.53125 0.96875 Z M 13.457031 1.015625 "/>
</g>
</svg>
