<svg version="1.2" xmlns="http://www.w3.org/2000/svg" viewBox="0 0 261 256" width="261" height="256">
	<title>gym-svg</title>
	<style>
		.s0 { fill: #000000 } 
	</style>
	<path id="Layer" fill-rule="evenodd" class="s0" d="m172.4 255.9q-13.5-8-27-16c-4.8-2.9-9.6-5.8-14.4-8.7l-0.5-0.3-0.5 0.3q-8.3 4.9-16.6 9.8c-8.2 4.9-16.6 9.9-25 14.9-8.6-5.2-17.4-10.4-25.9-15.4-6.7-3.9-13.7-8-20.5-12q0-12.6 0-25.2 0-11.9 0-23.9v-0.6l-0.5-0.2c-10.6-6.3-21.4-12.8-31.9-19l-9-5.3c-0.1-5.1-0.1-10.2-0.2-15.2 0-4.6 0-9.2-0.1-13.9-0.1-1.3-0.1-2.7-0.1-4q0-1.5 0-3c0-3-0.1-5.9-0.1-8.9 0-2.5 0-5.1-0.1-7.6q8.6-5.2 17.1-10.3c8.1-4.9 16.5-9.9 24.6-14.9l0.5-0.3v-0.5c0.1-3 0.1-6 0.1-8.9 0-1.9 0-3.9 0-5.8 0.1-2.6 0.1-5.4 0.2-8 0-2.9 0-5.9 0.1-8.9-0.1-3.4 0-6.8 0-10.2 0.1-2.3 0.1-4.7 0.1-7.1q6.5-3.8 12.9-7.6c10.6-6.3 21.6-12.8 32.4-19.2 2 1.3 8.8 5.5 33.2 20.1 3.3 1.9 6.3 3.7 8.8 5.2l0.5 0.3 0.5-0.3c2.5-1.5 5.5-3.3 8.8-5.3 24.3-14.5 31.2-18.7 33.1-20 11.4 6.7 22.9 13.5 34 20.1q5.7 3.3 11.3 6.7 0 3.2 0.1 6.3c0 1.7 0.1 3.5 0.1 5.3 0 2.9 0 5.9 0.1 8.8 0 3.2 0.1 6.5 0 9.7 0.1 3.3 0.2 6.6 0.2 9.7 0 3 0 6.1 0.1 9.1v0.5l0.4 0.3c9.1 5.5 18.3 11.1 27.3 16.4q7.2 4.4 14.4 8.8c0 2.6 0 5.2 0 7.7 0 2-0.1 4.1-0.1 6.1-0.1 2.2-0.1 4.4-0.1 6.5q0 2.9 0 5.7c-0.1 2.2-0.1 4.3-0.1 6.4 0 1.7 0 3.5-0.1 5.3 0 2.4 0 4.8 0 7.1 0 2.6-0.1 5.2-0.2 7.8-12.9 7.6-26.8 15.9-40.9 24.3l-0.4 0.2v0.6q0 10.6-0.1 21.2 0 13.9 0 27.9c-8.5 5-17.1 10.1-25.4 15-6.8 4-13.8 8.1-20.7 12.2q-0.1 0-0.2 0.1-0.1 0-0.2 0.1zm-124-71.5c-0.1 6.8-0.2 13.7-0.3 20.4-0.1 6.7-0.2 13.6-0.4 20.4v0.5l0.5 0.3q17.6 10.5 35.2 20.9l1.5 0.8v-1.6c0.1-6.4 0.1-12.8 0.2-19 0.1-7.3 0.1-14.9 0.2-22.4v-0.5l-0.4-0.3q-1.2-0.8-2.5-1.5-0.7-0.4-1.4-0.8-5.4-3.1-10.8-6.3c-6.8-3.8-13.6-7.8-20.4-11.7l-1.4-0.8zm162.7-0.8c-3.9 2.3-7.9 4.5-11.8 6.8-7.6 4.4-15.5 8.9-23.2 13.5l-0.5 0.3v0.5c0.1 7.5 0.2 15.2 0.2 22.6 0.1 6.1 0.2 12.5 0.2 18.8l0.1 1.6 1.4-0.8c10.4-6.2 22.8-13.5 35.2-20.9l0.5-0.3v-0.5c-0.2-7-0.3-14-0.3-20.8-0.1-6.6-0.2-13.3-0.4-20v-1.6zm-96.3 5.8c-7.7 4.5-15.7 9.2-23.5 13.7l-0.5 0.3v0.6c0.1 6.7 0.1 13.5 0.1 20.1v3.3c0 6 0.1 11.9 0.1 18.4v1.7l1.4-0.8q9.7-5.6 19.3-11.2 9.3-5.5 18.7-11 9 5.2 18 10.5 10 5.8 20.1 11.7l1.4 0.8v-1.7q0-2.1 0-4.1c0-2.6 0-5.2 0.1-7.7 0-5.5 0-11 0-16.4 0-4.4 0-9.1 0.1-13.6v-0.6l-0.5-0.2q-12.5-7.3-25.1-14.7c-4.5-2.6-14.1-8.2-14.1-8.2 0 0-10.5 6.2-15.6 9.1zm-30.8-81.2q-0.7 0.4-1.5 0.9c-1.9 1.1-3.9 2.2-5.9 3.4l-10.5 6.3q-8.4 5.1-16.9 10.2l-0.4 0.2v0.6q0 3.4 0 6.9v2c-0.1 7.5-0.2 15.1-0.2 22.5 0 4.9 0 10 0 15v0.6l0.5 0.2q8.2 4.6 16.4 9.1c7.5 4.1 15.2 8.4 22.8 12.5l0.5 0.3 0.5-0.3q8.6-5.1 17.3-10.3c5.2-3.1 19.2-10.9 19.2-10.9l-1.7-1c-6.1-3.6-12.3-7.2-18.3-10.7-6.9-4.1-14-8.3-21-12.3 0-7.5 0.2-15 0.3-22.4 0.2-7.1 0.3-14.5 0.3-21.8l0.1-1.7zm67.9 78.6c6.5 3.9 13.1 7.9 19.7 11.8l0.5 0.3 0.5-0.3c7.9-4.3 15.9-8.8 23.6-13.1q7.8-4.2 15.6-8.5l0.5-0.3v-0.6q0-2.4-0.1-4.9 0-3.8 0-7.5c0-6.2 0-12.5 0-18.6-0.1-5.1-0.1-10.3-0.1-15.4v-0.5l-0.5-0.3q-7.2-4.3-14.4-8.7-4.6-2.7-9.2-5.5c-4-2.4-7.6-4.5-11.1-6.5l-1.5-0.8 0.1 1.7c0.1 7.1 0.2 14.3 0.3 21.3 0.1 7.5 0.3 15.2 0.4 22.9-6.3 3.6-12.7 7.4-18.9 11q-5.8 3.4-11.5 6.8-1.7 1-3.4 2c-1.8 1-3.7 2.1-5.6 3.1l-1.9 1c0.1 0 13 7.2 17 9.6zm-17-9.6q0 0 0 0zm-15.7-89.1c-9.3 5.5-18.8 11.1-28.2 16.7l-0.5 0.3c0 7.8 0 16.1 0 23.8q0 10.7 0 21.4v0.5l0.5 0.3q10.8 6.2 21.7 12.3 8.6 5 17.3 9.9l0.5 0.3 0.4-0.3q6.3-3.6 12.6-7.1c8.6-4.9 17.6-10 26.4-15.1l0.5-0.3c0-6.8 0-14.1 0-21q0-12 0-24.2v-0.5l-0.5-0.3c-10.7-6.4-21.7-12.8-32.3-19.1l-7.1-4.2c-0.1 0-7.7 4.5-11.3 6.6zm-114.8 20.9c0.1 13.9 0.2 28 0.3 41.6v0.8l0.5 0.2c6.6 3.8 13.3 7.7 19.8 11.4q8.1 4.7 16.2 9.3l1.4 0.8v-1.6c0-3.9 0-7.8 0.1-11.6 0-4.3 0.1-8.9 0.1-13.3-0.1-2.6 0-5.1 0-7.6 0-2.9 0.1-6 0.1-9v-0.5l-0.5-0.3c-6.5-3.7-13-7.5-19.4-11.1-4.8-2.8-18.6-10.4-18.6-10.4zm233.6 8.9c-6.4 3.7-13 7.5-19.6 11.2l-0.5 0.3v0.5c0 3.5 0 6.9 0.1 10.2 0 5 0 10.1 0 15.1 0.1 4.7 0.1 9.8 0.1 16.2v1.6l1.5-0.8q7.7-4.4 15.4-8.9c6.8-3.8 13.7-7.8 20.6-11.8l0.4-0.2v-0.6c0.1-12.4 0.2-27.2 0.4-41.7v-1.5c0 0.1-14.3 8-18.4 10.4zm18.4-10.4q0 0 0 0zm-208.4-28.8q-9.3 5.5-18.5 11-10.7 6.3-21.3 12.5l-1.6 1c0 0 18.1 9.7 24.2 13.1q7.4 4.1 14.8 8.2l0.5 0.3 0.4-0.3c14.2-8.8 26.1-16.1 38-23.6l0.5-0.3v-0.5c0-4.7 0-9.6 0.1-14.3v-1.1c0-5.9 0-11.9 0-17.7 0-3.8 0-7.8 0-11.7v-0.6l-0.4-0.2c-5.8-3.3-11.6-6.7-17.3-10-5.7-3.2-19.3-10.7-19.3-10.7v1.4q-0.1 10.8-0.1 21.5c0 7.2 0 14.7 0 22zm143.7-33.2q-7.8 4.5-15.5 8.9l-0.5 0.3v0.5c0 7.7 0 15.4 0 22.6 0.1 7.2 0.1 14.8 0.1 22.3v0.5l0.5 0.3c10.8 6.7 21.8 13.6 32.5 20.1l6 3.7 0.5-0.2q4.7-2.6 9.4-5.3c6.2-3.4 29.5-16.1 29.5-16.1l-1.6-0.9c-7.6-4.5-15.3-9-22.7-13.4q-8.5-5.1-17-10.1c-0.1-7.2-0.1-14.4-0.1-21.6q0-11 0-22v-1.4c0 0-15.9 8.9-21.1 11.8zm-61.3 29.3c6.9 4 13.9 8.2 20.6 12.2 5.7 3.4 11.5 6.9 17.3 10.3l1.4 0.8 0.1-1.6c0.1-7.4 0.2-15 0.3-22.3 0.1-6.3 0.2-12.9 0.3-19.4v-0.5l-0.5-0.3c-1.8-1.2-3.7-2.2-5.6-3.2q-1.7-0.9-3.4-1.9l-10.2-5.7c-6.7-3.7-13.2-7.3-19.9-11l-0.4-0.2-0.5 0.2c-7.1 3.9-14.2 7.9-21.2 11.8l-10.9 6c-0.9 0.6-1.8 1-2.6 1.5-1.5 0.8-3 1.6-4.4 2.5l-0.4 0.3v0.5c0.1 6.4 0.2 13 0.3 19.3 0.1 7.3 0.2 14.9 0.3 22.4v1.6l1.5-0.8c5.8-3.4 11.6-6.9 17.4-10.3 6.7-4.1 13.6-8.2 20.5-12.2zm41.7-68.3q-6.1 3.6-12.1 7.2c-7.6 4.5-15.5 9.2-23.2 13.8l-1.4 0.8 1.4 0.9q9.7 5.6 19.3 11.4 8 4.7 16 9.4l0.5 0.2 0.5-0.3c4.5-2.7 36.8-21.8 36.8-21.8l-1.4-0.8c-7-4.2-14.1-8.3-20.9-12.4-4.8-2.7-9.7-5.6-14.5-8.4l-0.5-0.3zm-84.3 0q-7.3 4.2-14.6 8.5c-6.8 4-13.9 8.2-20.9 12.3l-1.4 0.8c0 0 16.5 9.8 23.8 14.1 4.4 2.6 8.7 5.2 13.1 7.8l0.5 0.3 0.5-0.3q7.9-4.7 15.9-9.4 9.6-5.7 19.3-11.4l1.4-0.8-1.4-0.9c-7.6-4.5-15.4-9.2-22.9-13.7q-6.2-3.7-12.3-7.3l-0.5-0.3z"/>
</svg>