<svg version="1.2" xmlns="http://www.w3.org/2000/svg" viewBox="0 0 256 256" width="256" height="256">
	<title>h2o-svg</title>
	<style>
		.s0 { fill: #fec925 } 
		.s1 { fill: #161616 } 
		.s2 { fill: #54585a } 
	</style>
	<g id="Fill-1">
		<path id="Layer" class="s0" d="m0 10c0-5.5 4.5-10 10-10h235.7c5.5 0 10 4.5 10 10v235.7c0 5.5-4.5 10-10 10h-235.7c-5.5 0-10-4.5-10-10z"/>
	</g>
	<path id="Layer" class="s1" d="m74.3 104.8v39.5h-9.2v-16.2h-17.9v16.2h-9.2v-39.5h9.2v15.6h17.9v-15.6z"/>
	<path id="Layer" class="s1" d="m110.7 136.9v7.4h-29.9v-5.9l15.2-14.4c3.5-3.3 4.2-5.4 4.2-7.3 0-3.1-2.2-4.9-6.4-4.9-3.3 0-6.2 1.3-8.1 4l-6.7-4.3c3-4.5 8.6-7.4 15.7-7.4 8.8 0 14.7 4.5 14.7 11.7 0 3.9-1.1 7.4-6.6 12.5l-9.1 8.6z"/>
	<path id="Layer" fill-rule="evenodd" class="s1" d="m114.5 124.6c0-11.8 9.1-20.5 21.6-20.5 12.4 0 21.6 8.7 21.6 20.5 0 11.8-9.2 20.4-21.6 20.4-12.4 0-21.6-8.7-21.6-20.4zm33.9 0c0-7.5-5.3-12.7-12.3-12.7-7.1 0-12.4 5.2-12.4 12.7 0 7.5 5.3 12.6 12.4 12.6 7 0 12.3-5.1 12.3-12.6z"/>
	<path id="Layer" class="s2" d="m160.7 139.2c0-3.2 2.4-5.4 5.5-5.4 3 0 5.4 2.2 5.4 5.4 0.1 1.5-0.5 3-1.5 4-1 1.1-2.5 1.7-3.9 1.7-1.5 0-2.9-0.6-4-1.7-1-1-1.6-2.5-1.5-4z"/>
	<path id="Layer" fill-rule="evenodd" class="s2" d="m205.1 127v17.3h-8.3v-3.7c-1.6 2.7-4.8 4.2-9.2 4.2-7.2 0-11.4-4-11.4-9.2 0-5.4 3.8-9.1 13-9.1h7c0-3.8-2.2-6-7-6-3.2 0-6.5 1.1-8.7 2.9l-3.2-6.2c3.4-2.4 8.3-3.7 13.1-3.7 9.3 0 14.7 4.3 14.7 13.5zm-8.9 7.7v-3.1h-6c-4.1 0-5.4 1.5-5.4 3.6 0 2.2 1.8 3.6 5 3.6 2.9 0.1 5.4-1.3 6.4-4.1z"/>
	<path id="Layer" class="s2" d="m211.9 104.8c0-2.8 2.2-4.9 5.5-4.9 3.3 0 5.5 2 5.5 4.7 0 3-2.2 5.1-5.5 5.1-3.3 0-5.5-2.1-5.5-4.9zm1.1 9.2h8.8v30.3h-8.8z"/>
</svg>