<svg version="1.2" xmlns="http://www.w3.org/2000/svg" viewBox="0 0 330 256" width="330" height="256">
	<title>hadoop-svg</title>
	<style>
		.s0 { fill: #ffff00 } 
		.s1 { fill: #ffffcc } 
		.s2 { fill: #cccc00 } 
		.s3 { fill: #000000 } 
	</style>
	<path id="Layer" class="s0" d="m121.6 63l-22 3.5-20 8.8-17 10.7-16.1 19.7-9.2 9.7-8.8 3.3-2.3-5.7 4.1-5.9 0.9-8.3 2.7 0.1 3 2.7-0.8-8.5-3.3-2.2 0.1-3.2-7.9 4.4-7.1 8.4-1.5 7.5 3.1 6 2.8 10.2 5.8 2.7 6.1-0.3 5.7-3.3-3.8 19.4 3.8 21.7-4.2 10-13.9 14.9 2.5 8.9 6.6 10.3 12.3 8.7 6.6 0.9 7.3 0.3-4.6 18.6 16.7 6.9 20.9 2.7 7.1-4.6 0.5-12.6 8-13.2 0.5-10.4 19.2 1.4 17.8-1.7-17.8 10.7 3 12.9 11.3 17.5 10.9 4.7 8.8-3.6 3.6-7.1 18.3-13.9 3.6 3 28.8 1.1 5.7-4.7 0.6-8.2-2-3.6-1.3-22.2-9.6-19.2 1.6-8.5 5.8 3.1 16.2 15 7.9 0.6 8.8-3.6 8.7-6.6 4.4-14.2 25.8 1.6 15.6-6 12.6-11.8 9.1-17 2.1-20-1.9-23.3-4.9-20.8-4.9-6.6-6.9-2.2-12 13.2-11 3.8-9.6-15.9-9.6-8.8-5.2-3.2-20.8-17.3-16.7-9.1-16.8-1.3-19.4 3.2-17 6.3-11.8 9.6-9.3 11.3-9.6 2.7z"/>
	<path id="Layer" class="s1" d="m58 112.5c-18.8 21.9-14.6 48.4-9.4 74.5q-4.2-10.6-8.3-21.1l-3.1-19.3q0.4-9.9 0.9-19.7l7.9-18.9 11.8-17.5 18.4-15.4 20.2-8.3 23.7-3.1-21.9 25c-17.7 5.7-28 9.6-40.2 23.8z"/>
	<path id="Layer" class="s1" d="m146.4 45.7c-13.1 12.8-20.2 22.4-28.5 37.3-5.9 10.7-12.6 20.9-18.9 31.5-3.1 5.3-3.4 9.7-4.4 15.9l-9.2-11q2.2-6.6 4.4-13.1l14.9-26.8 31.6-31.2q5.1-1.3 10.1-2.6zm64.5-31.6c-10.5 4-27.8 5.2-29 17.2-0.9 8.6 0.6 12.9 5.7 21.9-12.6-13.2-15.8-11.1-40.3-7l10.5-15 18.4-11.4 23.7-5.2z"/>
	<path id="Layer" fill-rule="evenodd" class="s2" d="m237.2 176.3q-1.7-0.9-3.3-1.7-1.1-1.9-2.2-3.7-0.2-3.2-0.4-6.4 0.8-2.2 1.6-4.5l22.1-2.8 5.1 3.8-4 10.2-5.3 7.2q-4.1 1.6-8.2 3.3c0.5-1.5 0.6-3.1-2.9-5.2q-1.3-0.1-2.5-0.2zm-13.8-22.6c3.3-11 3.2-11.8 14.3-15.1-6.8 4.7-10 8.2-14.3 15.1zm84.1-89.5l-4.7 5-8 4.9h-6.5q-1.4-0.3-2.9-0.5c1.6-1.2 2.8-0.7 4.8-1.3 2.3-0.7 4.6-1.6 6.8-3 4.4-2.7 6.6-6 9.3-9.8 1.2-1.9 3.1-2.3 5.1-3.2zm-168.7 6.6l7.3-10.6 14.8-3.3 15.8-1.9c-18.6 7.9-26.6 16.4-29.5 36.7-0.2-4-1-8-1.3-12-5.2-1.7-5.6 3-7.5 7-4.8 10.3-10 18.1-18.4 27.2 6.6-10.8 10.4-21.1 14.8-33zm32 9.7c4 18.8 9.7 36.9 12.2 56.1 1.7 12.5 1.8 18.4-4.4 29.2-6.9-0.4-11.1 0.3-17.8 2.5-26.3 8.6-41.5 21.4-59.2-4.3l17 8.1q6.1-1.2 12.1-2.4 10.7-6.2 21.4-12.5l16.8-3.3 5.4-22.6-4-29.9q-0.3-7-0.5-14.1 0.5-3.4 1-6.8zm45.4 116.7c-2.2 15.4 5.1 23.6 2.1 27.8-0.9 1.2-2.1 3.3-3.4 3.9-4.6 2.1-11-0.4-11.4 0.8h-15.3l-6.1-2.6 9.4-11q4.6-10 9.2-20l5.8-20.3h3.1z"/>
	<path id="Layer" fill-rule="evenodd" class="s2" d="m198.5 159.6q5.3 2.3 10.6 4.7-0.3 4.8-0.7 9.6-4.2 12.7-8.4 25.4l-6.6 12.3-7.3 10.3q-5.8 5-11.6 9.9-4.7 3.5-9.4 7.1-2.2 4.2-4.5 8.5l-8.4 5.1-6.4-0.9q-3.8-3.5-7.5-7.1-5.5-8.5-10.9-17c5 4.1 10.8 11 17.2 7.8 4.1-2.1 4.8-4.4 7-8.5 5.3 0.8 8.4 2.4 12.7-0.9 6-4.6 11.3-9.3 16.6-14.6 3.2-3.2 4.6-5.4 6.4-9.5 4.2-9.7 7.7-22.8 9.9-33.8-3.3-6.7-5.5-8.4-6.7-15.4 2.6 2.5 5.4 4.5 8 7zm-92.5 42.1c11.9 0 24.5-0.7 35.3-5.7 3.1-4.6 6.2-8.4 9.9-12.4-3.4 6.4-4.5 10.1-5.4 17.4l-3.5 5.2q-13.5 0.3-26.9 0.7-4.3-0.5-8.7-1-0.4-0.5-0.9-0.9 0.1-1.7 0.2-3.3zm0.5 9.4l-1.2 7.5-6.6 12.3q-1.1 6.8-2.3 13.6l-7.1 2.8-31.3-8c6.5 0.3 22.3 3.8 23.4-4.1 0.3-2.2 0.1-4.1-0.4-7.1 5.9-2.4 11.1-6.8 15.3-11.7 5.6-10.9 5.1-19.1 7.2-31.3l0.9 8.3zm-5.7-66.6l-1.1 13.2c-3.7-6.6-7.8-12.8-11.1-19.5-2.6-5.3-2.2-7.7-1.9-13.7q7.1 10 14.1 20zm-52 47.6l11.1 17.1-7.8 7.8q-3.9 0.7-7.8 1.4-7.8-6.1-15.7-12.2c4.7 0 8.9 0.2 13.6 0.9 2.1-2.7 2.8-4.2 3.8-7.5-5.4-8.3-7.9-14.3-10.7-23.7q1.6-3.2 3.1-6.5 5.2 11.3 10.4 22.7zm269.5-134l5.2 22.1q1.4 11.2 2.9 22.4l-3.6 22.9-9.4 19.7q-6.2 5.2-12.5 10.4-8 2.3-16 4.7-11.8-0.6-23.5-1.2l-25.2-10.4c20.6 5.3 42.6 11.1 61.4-1.2 16.8-10.9 20.3-33.7 20.8-51.8 0.4-14.8-3.8-28.1-7-42.5q3.5 2.5 6.9 4.9zm-285.8 33.1q1 0.8 2 1.7l2 3.4 0.4 5.3q-1.5-1.2-3-2.4-1.2-0.3-2.4-0.7l-1.9 10.1-3.6 5.3q1.5 2.3 3 4.6h2.6l11.5-5.7q-2.1 6.5-4.2 12.9l-8 1.9-4.5-1.5-3.6-2.4-2.6-9.3c-0.9-10.3 2.5-12.7 11-18.2zm204-66.9l19 15.5q5.9 3.6 11.7 7.2h1q5.2 5 10.3 9.9l5.5 12.3q-1.9 3.1-3.8 6.3 0.6 4.9 1.2 9.7l-4.3 0.7c0.1-2.1 0.3-4.1-0.9-6.1-3.7-0.7-7.3-1.2-11-1.1-1.3-2-1.5-4.9-1.8-6.8-1.2-0.8-2-1.1-2.7-2.7 0-0.3 3.2 0.4 3.3 0.2 5.9-1.7 8-3.3 8.1-4-0.5-7.9-7.7-18.8-15.3-19.7-4.3-0.5-6.2-0.7-11.5 0.9 5-4.8 2.4-6.4 0.1-9.8-6.1-8.6-15.4-14.7-22.9-21.7zm-1.4 48.8c-0.4 0.7-1 1.8-1.8 2.6 3.2 3 4.7 5 5.9 9.2q-5.4 2.6-10.7 5.3l-9.1 8.7c-3.9-2.1-4.9-3.8-6.8-7.9-2.3 0.6-4.4 1.2-6.2 0.5 1.1 0 1.9-0.3 3-1l5.8-6q5.1-3.8 10.2-7.7l6.6-2.1c0.9-0.4 2.3-1.2 3.1-1.6z"/>
	<path id="Layer" class="s2" d="m245.1 83.7c-11.4 6.1-22.2 12.2-28 23.8 0-14.7 14.7-21.2 28-23.8zm-30.3-28.9c-8.4 5.7-14.4 17.3-13.6 28.6-2.7-9.8-1.8-19 6.6-25.8q2.2-1 4.3-2.1 1.4-0.4 2.7-0.7z"/>
	<path id="Layer" fill-rule="evenodd" class="s3" d="m329.4 111.6c-1.1 10.3-3.8 20.2-8.7 28.7-4.4 7.6-10.4 14-18.6 18.3-5.5 2.9-11.9 4.6-18.5 5.3-6.9 0.7-14 0.4-20.6-0.7l-1 3-1.1 3.9c-1.4 4.4-4.6 8.4-8.6 11.4-4.2 3.1-9.2 5.1-14 5.3-4.5 0.2-8-0.9-11.1-2.7-3-1.7-5.5-4.2-8.3-6.9l-3.7-3.5-2.5-2.4q-0.1 0.9-0.2 1.6c1.3 2.6 2.2 5.1 3.1 7.6l-1.3 0.5-0.2 0.1 1.5-0.6q0.9 2.5 1.9 4.9c1.1 2.6 1.9 4.8 2.5 7 0.6 2.3 0.9 4.5 0.9 7.4q0.1 3.5 0.2 7.1 0.1 3.4 0.2 6.8c1 1.8 1.6 3 1.9 4.4 0.3 1.5 0.3 2.9 0.1 5.2-0.3 5.2-2 8.1-4.9 9.8-2.7 1.5-6.3 1.7-10.8 1.7-0.7 0-1.8 0-3.1 0-4.3 0-11 0-13-0.1-2.8-0.2-5-0.4-7-0.9-1.4-0.4-2.7-0.9-3.7-1.6-1.4 1.2-2.7 2.3-4 3.3-3.9 3.2-7.8 6.4-9.3 7.4-0.6 1-1.2 1.9-1.7 2.8-1.6 2.8-2.8 4.9-6.6 6.9-7.4 4.1-13.2 3.7-18.2 0.6-4.8-2.9-8.8-8.4-13-14.8-2-3-5.1-8.1-6.6-13-1.8-5.4-1.5-10.7 3.9-13.5l0.8-0.4c0.6-0.3 1.1-0.6 1.6-0.8q-3.1 0.1-6.2 0.1-6.1 0-12.2-0.8 0.1 0.7 0.2 1.1c0.3 2.8 0.5 4.6 0.3 6.4-0.3 1.8-1.1 3.5-2.6 5.8-0.1 0.2-0.5 0.7-0.8 1.1-1.4 2.1-2.3 3.4-4.3 7.8 0.2 2.2 0.3 4 0.1 5.7-0.1 1.9-0.5 3.8-1.2 6.3-1.7 6.3-8.1 7.8-15.1 7.4-6.4-0.4-13.5-2.5-17.6-3.6-0.9-0.2-1.6-0.4-2.3-0.6-3.5-0.9-7.2-1.9-10.3-3.3-6.2-2.8-10.3-7.3-6.3-15.9q0.9-2 1.6-4.1 0.3-0.8 0.5-1.5c-3.2 0.5-6.6-0.1-9.9-1.4-5.7-2.1-11.2-6.3-14.6-9.7-2.7-2.7-4.8-5.6-6.4-8.6-1.6-3.1-2.7-6.4-3.3-9.9-0.9-5.4-0.3-6 2.9-9 0.5-0.5 1-1 1.2-1.1q2.3-2.4 4.7-4.7l5-5 2.3-6.3q0.8-2 1.5-4-0.3-1.9-0.6-3.8-0.3-2.2-0.5-4.1c-0.5-5.7-0.6-10.6-0.5-15q0.2-4.8 1-9.5c-2.6 0.6-5.3 0.5-7.7-0.3-3.1-0.9-5.7-3-7.3-6.4-0.6-1.3-1.1-2.5-1.6-4-0.3-1.2-0.7-2.6-1.1-4.2-2.2-2.2-3.4-4.6-3.8-7-0.5-2.7 0.1-5.4 1.3-8.1 1.2-2.5 3-4.9 5.1-7 5.6-5.9 13.6-10.3 17.3-10.9l2.8-0.5-1 2.7c-0.4 1.3-1 2.7-1.5 4.1q-0.3 0.6-0.5 1.2c1.7 1.4 2.7 3.3 3.2 5.5 0.7 3.3 0.3 7.1-0.4 9.9l-0.7 3.4-2.2-2.7c-0.5-0.7-0.9-1.3-1.4-2q-0.5-0.9-1.1-1.6c-0.3 4.4-0.8 8.9-4 12 0.1 0.3 0.1 0.5 0.2 0.5 0.1 0.1 0.6-0.2 1.9-0.7 2.2-0.9 4.2-2.3 6-4 2-1.7 3.7-3.7 5.5-5.6 2-3.9 4.3-7.6 6.9-11.1 2.8-3.6 6-7 9.5-10.1 8.8-7.8 17.3-13 27-16.7 9.5-3.7 20.1-6 33.2-8.1q2.4-2.6 5-5.1 2.7-2.7 5.7-5.2c2.7-2.5 5.1-4 7.4-4.9 2.1-0.8 4.1-1.2 6.4-1.3 4-5.3 7.6-9.9 11.9-13.8 4.5-4.2 9.6-7.6 16.5-10.5 14.3-6 26.4-9.2 37.9-8.4 11.5 0.7 22.3 5.3 33.9 14.9 2.2 1.8 4.4 3.7 6.6 5.7 4.9 4.2 9.6 8.4 15.2 11.9 2.1 1.3 3.9 2.4 5.6 3.8q2.8 2.1 5.1 4.8c2 2.4 3.8 4.8 5.5 7.4q2 3.3 3.5 7c2.4-1 4.9-2 6.9-3.8 1.8-1.4 3.2-3.5 4.6-5.7 1.3-1.8 2.6-3.7 4.2-5.3q0.7-0.8 1.7-1.2c2.3-1.3 5.3-1.1 8.1-0.1 2.7 0.9 5.3 2.5 7 4.3 0.8 0.8 1.5 1.6 1.9 2.4 3.5 6.7 6.1 16.1 7.6 25.7 1.7 10.8 2.2 22 1.3 30.2zm-30.1 41.1c14.1-7.9 21.9-25.3 23.6-41.3 1.6-14.3-1.1-36.6-7-50.7-1.3-3.3-6.7-8.2-10.1-4.9-3.5 3.4-6.1 8.1-9.9 11.1-5.1 4.1-13.9 2.7-12.3 11.3 1.1 6.2 1.5 13.2 0.1 19-1.2 5.6-2.6 13.6-5.5 17.3 0.9-3.1 2.3-11.4 2.7-17 0.3-3.1-0.1-6.8-0.7-10.5l-1.9 0.1c-2.3 0-6.2 3.4-7.2 5.5-2.9 5.9-3.1 11.3-6.3 16.9 2.6-6.3 1.1-11.9 3.5-18.6 0.8-2.4 2.9-4.4 5.4-5.6-1.4-0.2-2.7 0.4-4.7 0.8-8.7 2.1-8.3 8.9-13.6 15.3 5.1-9.4 2.5-15.6 13.6-18.1 3.6-0.8 6.3-1.1 8.7 0.8q0.1 0 0.2-0.1l1.8-0.1c-0.3-1.7-0.6-3.4-0.9-5-5.1-0.7-9.8-0.5-15 0.3q1.7-0.8 3.3-1.4c-0.3-0.3-0.6-0.7-0.8-1.2v-0.1c-0.7-1.3-1-2.8-0.8-4.3 0.1-1.1 0.4-2.2 1-3.2q-0.3 0.1-0.5 0.2c-1.2 0.5-3.9 0.3-5.1-0.1 2.4-0.4 5.8-1.6 8.1-2.7l0.2-0.1c2.1-1.3 4.9-1.5 7.3-0.4 1 0.3 2.2 0.7 3.6 1.2-2.2-4.4-4.6-8.5-7.5-12.5-2.7-3.8-5-5.1-9.1-7.5q-1.3-0.8-2.6-1.6c-3-0.6-6.3-1.1-9.2-0.6 2.4-0.9 4.2-1.3 6.3-1.4-5.8-4.2-10.7-8.8-16.4-13.5-21.8-18.4-39.5-17.1-67.3-5-11.3 4.9-15.4 9.8-22.3 18.7h0.2c7.1-0.2 14.1-0.4 21.4-1.1-7.6 1.8-14.7 3.2-22.1 4.3-8.2 1.2-10.6 1-16.8 7-11.3 11-20.8 23.4-31.1 34.6-6 6.5-9 12.9-12.5 20.3-3.5 7.3-3 10.1 1.7 16.4 4.8 6.5 7.6 9.5 9.7 15.2 5.3-8.1 11.6-14.9 18.3-23-5.4 8.8-10.4 17.1-15 26-2.8 5.6-4.2 8.4-4.1 14.6 5.3 6.1 8.6 9.3 13.6 10.7 5.3 1.4 10.3 1.2 15-1.3 12-6.2 23.3-14.2 36.5-15.2 6.8-12.2 4.9-27.5 2.5-41.4-2-11.5-1.5-21.6 1.2-33.2 0.7 11.3 1.6 21.7 3.8 32.7 3.3 16.1 3.9 30-2.8 46.6-14.7 0.4-26.7 8.9-39.6 15.6-5.9 3-11.3 3.2-17.8 1.7-6.7-1.6-11.8-6.7-18.6-14.2 0.7-5.7 1.4-9.2 3.4-13.4-2.4-7.3-5.4-10.7-11.1-18.2-6.4-8.7-6.5-12.5-1.6-22.5 3.5-7.1 6.8-13.8 12.4-20.4 5.5-6.4 10.6-12.5 15.7-18.2-21.3 3.2-34.9 8.3-49.4 21.1-10.8 9.4-17.5 21.2-22.3 34.8-3 8.5-3.9 17.1-2.4 31.1 1.8 18.1 11.4 38.4 21.7 53.3-1.3 9.2-2.9 16.2-5.5 22.8-2.9 7.5 8.7 9.8 14.3 11.3 4.6 1.2 21.9 6 23.6-0.1 1.1-3.7 1.1-6.3 0.8-10.2 3.1-6.1 4-7 6.2-10.6 2.4-3.9 2.6-5.5 2.6-10.1 0-5.9-0.1-16.4 0.1-20.2 0.8 3.4 1.8 8.1 2.6 12.7 12.3 2.2 24.5 2 36.8-0.5 0.2-0.9 0.5-1.8 0.8-2.9 0.8-2.9 2.5-5.8 3.3-8.7q-0.4 4.3-0.7 8.5c-0.2 2.9-0.2 5.3 0.1 8.2l0.6 4.8c-0.9-1.4-2.3-2.8-3.1-4.3-5.4 3.6-8.5 5.6-13.8 8.5-5.7 3 0.8 13.8 3.1 17.5 5.2 8.2 11.4 17.9 21 12.8 3.1-1.6 5-5.5 7.1-8.3 2.8-1.6 17.7-14.2 20.1-15.6 3.3-1.9 15.4-21.7 16.9-26.6 3.4-11 7.4-19.3 8.5-30.7-7.7-3.2-11.4-6.8-16.9-13.3 7.7 5.8 14.4 8.8 22.8 11.5 3 2.7 6.1 5.4 9.3 8.2 4.6 4.1 8.8 8.3 15.5 8.5 7.3 0.1 15.5-5.5 17.6-12.3l2.5-8q-2.2-0.5-4.2-1.1c-1.5 3.6-1.4 5-2.1 7.6-1.3 4.6-7.5 7.8-14.1 6.2-2.3-0.6-3.7-0.9-4.5-1.5 0.7 1.8 1.9 3.3 4.3 3.7 2.7 0.5 4.6 0.7 8.5-0.1-4.8 2.4-6.3 2.5-9.7 1.8-8.8-2-5.7-12.7-3.8-19.2 1.2-4.1 0.8-8.4-0.1-12.6 3.4 2.2 6 4 9.8 5.3 17.9 6 39.1 12.2 57.1 2.1zm-84.3 62.4l-0.4-15.2c-0.1-4.8-1-7.6-2.9-12-1.1-2.7-1.8-5.2-2.5-7.7-1.7 6-4 11.7-6.1 18.2-1.9 6.2-12 24.1-17.9 28.5 1.2 0.8 3.3 1.1 7.1 1.5 2.6 0.2 13.1 0.2 15.8 0.3 5.8 0.1 8-0.3 8.5-6.9 0.3-3.3 0.1-3.9-1.6-6.7zm-178.4-37.8l-9.5 9.6c-2.3 2.4-2.8 2.5-2.3 5.8 0.6 4.7 3.3 9.6 7.4 13.8 3.8 3.8 16.6 13.7 21.7 6.9 1.1-1.4 1.6-3.2 2-5v-0.2c-7-10.8-13.4-23.5-17.2-36.5zm-15.8-63.6c0.9 3.1 1.6 5.6 2.8 8.2 2.5 5.2 9 3.8 14 1.7q0.2-0.6 0.4-1.3 1.2-3.8 2.6-7.5c-2 1.8-4.2 3.3-6.8 4.4-7 2.8-6.8 0.4-9.8-5.7 6.3-5 3.4-11.2 5.4-18.2 0.5-1.6 1.2-3.2 2.1-5.3-6.6 4-18.8 15.2-10.7 23.7zm12.4-19.9q-0.2 0.6-0.3 1.2-0.3 1.1-0.5 2.4c1.3-0.1 2.1 0.6 3.1 1.6-0.2-2.4-0.6-4.2-2.3-5.2zm245.5-26.4q1.1 1.1 1.7 2.6 0.3-0.3 0.7-0.6-0.5-1-0.9-2-0.8 0-1.5 0zm-260.5 14.4c-10.5 11.1-13.3 17.4-14.6 32.1-1.8-18.7 1.5-22.9 14.6-32.1zm14.2 34.1l-0.1-0.1zm286.9 23.6h0.1z"/>
	<path id="Layer" class="s3" d="m0.2 101.9c1.5-6.6 2.8-9.1 6.9-14.6-6.6 4.7-7.5 6.6-6.9 14.6zm153.7-92.3c-7.8 1.9-9.3 3.4-11.7 11.1 3.8-5.7 5.9-7.5 11.7-11.1z"/>
	<path id="Layer" fill-rule="evenodd" class="s3" d="m141 33.1c5.1-18.1 9.7-20.8 25.3-24.6-13.8 6.5-18.8 11.4-25.3 24.6zm74.8 21.3c-11.4 5.5-14.3 12.5-16 19.9-1.9-9.8 0.9-16.1 16-19.9zm68.6 19.1c4.4 0.4 6.9 1.1 10.8-0.9 7.4-3.6 12.8-9.6 16.3-16.7-2.1 8.5-6.4 15.7-15.4 18.9-4.4 1.6-7.2-0.1-11.7-1.3zm-48.4 11.8c3.3-1.1 6.5-1.6 9.3-1.6-9.8 2.8-20.3 9.2-27.5 17.8q1.2-3.3 3.3-6.1c-3.3-1.7-5.4-5.1-5.5-8.9-2.4 1.9-5 3.8-7.8 4.9 3.8-3.4 8.9-11.4 12.7-13.9 4.2-2.9 9.9-2.3 14.9-4.6-1.7 1.5-3.9 2.7-6.1 3.9 2.5 0.9 4.6 2.8 5.8 5.2q0.7 1.6 0.9 3.3zm-5.3 54.6c1.8-0.3 5.1-0.9 6.8-1.2-1.7 0.9-4.9 2.2-6.6 3.2-2.5 1.3-3.1 1.6-4.3 4.1-1 2.4-2.2 5.3-3.1 7.8 0.3-2.2 0.8-5 1.2-7.2 0.7-4.7 1.3-5.8 6-6.7zm-78.1-82.8q9.2-0.8 18.4-1.9c-5.4 2.1-10.4 3.7-15.7 5.1-4.8 6.3-7.8 9.6-8.9 18.1-1.3-8.4-1.5-9.9 2.2-16.2-1.1 0.6-2.1 1.3-3.5 2.6-5.2 4.4-12 21.9-14.7 28.2 1.7-7.6 7.1-26.4 12.6-31.9 3.7-3.6 4.5-3.5 9.6-4z"/>
	<path id="Layer" class="s1" d="m218.6 93.2c-1-2.1-0.1-4.7 2-5.7 2.1-1 4.7-0.1 5.7 2q0.1 0.3 0.2 0.6c-2 1.5-3.9 3.3-5.4 5.3-1.1-0.4-2-1.1-2.5-2.2zm47.4-18.4c0.1-1.7 1.6-3 3.4-2.8 1.8 0.1 3 1.7 2.9 3.4q-0.1 0.6-0.3 1.1c-1.6 0.3-3.2 0.7-4.9 1.3-0.7-0.7-1.2-2-1.1-3z"/>
</svg>