<svg version="1.2" xmlns="http://www.w3.org/2000/svg" viewBox="0 0 342 256" width="342" height="256">
	<title>hadoop-svg</title>
	<style>
		.s0 { fill: #ffff00 } 
		.s1 { fill: #ffffcc } 
		.s2 { fill: #cccc00 } 
		.s3 { fill: #000000 } 
	</style>
	<path id="Layer" class="s0" d="m126.6 56.4l-22.7 3.7-20.7 9.1-17.6 11-16.7 20.4-9.4 10.1-9.2 3.3-2.4-5.9 4.2-6.1 1-8.6 2.8 0.1 3.1 2.9-0.8-8.8-3.5-2.3 0.2-3.4-8.2 4.6-7.3 8.7-1.6 7.8 3.2 6.2 2.9 10.5 6 2.8 6.3-0.3 5.9-3.4-4 20.1 4 22.4-4.4 10.4-14.3 15.4 2.6 9.2 6.8 10.7 12.7 9 6.8 0.9 7.6 0.3-4.7 19.3 17.3 7.1 21.5 2.8 7.4-4.8 0.6-13 8.2-13.6 0.5-10.8 19.9 1.4 18.4-1.7-18.4 11.1 3.1 13.3 11.6 18.2 11.4 4.8 9.1-3.7 3.6-7.4 19-14.4 3.7 3.1 29.8 1.1 6-4.8 0.5-8.5-2-3.7-1.4-23-9.9-19.8 1.7-8.8 6 3.1 16.7 15.6 8.2 0.6 9.1-3.7 9-6.8 4.6-14.8 26.6 1.7 16.2-6.2 13.1-12.2 9.3-17.6 2.3-20.7-2-24.1-5.1-21.6-5.1-6.8-7.1-2.2-12.5 13.6-11.3 3.9-10-16.4-9.9-9.1-5.4-3.4-21.5-17.8-17.3-9.4-17.3-1.4-20.1 3.3-17.6 6.6-12.2 9.9-9.7 11.6-9.9 2.9z"/>
	<path id="Layer" class="s1" d="m60.8 107.6c-19.4 22.7-15.1 50.2-9.7 77.1q-4.3-10.9-8.6-21.8l-3.2-20q0.4-10.2 0.9-20.4l8.2-19.5 12.2-18.2 19.1-15.9 20.9-8.6 24.5-3.2-22.7 25.9c-18.2 5.9-29 9.9-41.6 24.6z"/>
	<path id="Layer" class="s1" d="m152.3 38.5c-13.5 13.2-20.9 23.2-29.5 38.6-6.1 11-13 21.7-19.5 32.6-3.3 5.5-3.6 10.1-4.6 16.4l-9.5-11.3q2.3-6.8 4.5-13.6l15.5-27.7 32.7-32.2q5.2-1.4 10.4-2.8zm66.7-32.6c-10.8 4-28.8 5.4-30 17.8-0.9 8.8 0.7 13.2 6 22.6-13.1-13.6-16.4-11.5-41.8-7.3l10.9-15.4 19.1-11.8 24.5-5.5z"/>
	<path id="Layer" fill-rule="evenodd" class="s2" d="m246.2 173.6q-1.7-0.8-3.4-1.7-1.1-1.9-2.2-3.9-0.2-3.3-0.5-6.5 0.9-2.4 1.7-4.7l22.9-2.9 5.2 3.9-4.1 10.6-5.5 7.4q-4.2 1.7-8.5 3.4c0.6-1.5 0.7-3.1-2.9-5.3q-1.4-0.2-2.7-0.3zm-14.2-23.3c3.4-11.4 3.3-12.3 14.7-15.6-6.9 4.8-10.3 8.4-14.7 15.6zm87-92.6l-4.9 5.1-8.2 5.1h-6.7q-1.6-0.3-3.1-0.5c1.7-1.3 2.9-0.7 4.9-1.3 2.5-0.8 4.8-1.7 7.1-3.1 4.6-2.9 6.9-6.2 9.6-10.3 1.3-1.8 3.3-2.3 5.4-3.2zm-174.7 6.8l7.6-11 15.3-3.4 16.4-1.9c-19.3 8.1-27.6 16.9-30.5 38-0.2-4.2-1.1-8.3-1.3-12.5-5.5-1.8-5.9 3.1-7.8 7.3-5 10.6-10.3 18.7-19.1 28.1 6.8-11.2 10.8-21.8 15.3-34.1zm33.1 10c4.2 19.5 10.1 38.2 12.7 58.1 1.7 12.9 1.9 19-4.6 30.2-7.1-0.5-11.5 0.3-18.4 2.6-27.2 8.9-42.9 22.1-61.3-4.4l17.6 8.3q6.3-1.3 12.6-2.5 11.1-6.5 22.1-12.9l17.3-3.4 5.6-23.4-4.1-30.9q-0.2-7.4-0.5-14.7 0.5-3.5 1-7zm47 120.8c-2.3 15.9 5.3 24.4 2.1 28.8-0.8 1.2-2 3.4-3.4 4-4.8 2.1-11.4-0.4-11.8 0.8h-15.9l-6.3-2.7 9.7-11.4q4.8-10.4 9.5-20.7l6.1-21h3.2z"/>
	<path id="Layer" fill-rule="evenodd" class="s2" d="m206.3 156.3q5.4 2.5 10.9 4.9-0.3 5-0.7 10-4.4 13.2-8.8 26.3l-6.8 12.7-7.6 10.7q-5.9 5.1-11.9 10.2-4.9 3.7-9.7 7.3-2.3 4.4-4.7 8.8l-8.7 5.3-6.6-0.9q-3.9-3.7-7.8-7.3-5.6-8.8-11.3-17.7c5.2 4.3 11.2 11.4 17.8 8.1 4.3-2.2 5-4.5 7.3-8.8 5.5 0.8 8.6 2.5 13.1-0.9 6.2-4.8 11.8-9.6 17.2-15.1 3.3-3.3 4.7-5.6 6.6-9.9 4.3-10 8-23.6 10.2-34.9-3.4-7-5.6-8.7-6.9-15.9 2.7 2.5 5.7 4.6 8.4 7.1zm-95.8 43.6c12.3 0 25.3-0.7 36.6-5.8 3.1-4.8 6.3-8.7 10.2-12.9-3.6 6.7-4.7 10.5-5.6 18l-3.7 5.4q-13.9 0.3-27.7 0.7-4.5-0.5-9.1-1-0.4-0.5-0.9-1 0.1-1.7 0.2-3.4zm0.5 9.8l-1.2 7.8-6.8 12.6q-1.2 7.1-2.5 14.2l-7.3 2.9-32.4-8.4c6.8 0.4 23.1 4 24.2-4.2 0.3-2.3 0.2-4.2-0.4-7.3 6.2-2.5 11.5-7.1 15.9-12.1 5.8-11.3 5.3-19.8 7.4-32.5l0.9 8.7zm-5.8-68.9l-1.2 13.6c-3.8-6.8-8-13.3-11.4-20.2-2.8-5.4-2.4-8-2-14.1q7.3 10.3 14.6 20.7zm-53.8 49.2l11.4 17.7-8 8.1q-4 0.7-8.1 1.4-8.1-6.3-16.3-12.6c4.9 0 9.3 0.2 14.1 0.9 2.2-2.8 3-4.3 3.9-7.8-5.5-8.5-8.1-14.7-11-24.5q1.6-3.3 3.2-6.7 5.4 11.7 10.8 23.5zm278.8-138.6l5.4 22.9q1.5 11.5 2.9 23.1l-3.6 23.6-9.8 20.5q-6.4 5.3-12.9 10.7-8.3 2.4-16.5 4.9-12.2-0.6-24.4-1.2l-26.1-10.8c21.4 5.4 44.2 11.4 63.6-1.2 17.3-11.3 21-35 21.5-53.7 0.4-15.3-3.9-29-7.2-43.9q3.6 2.5 7.1 5.1zm-295.7 34.1q1 0.9 2 1.8l2.1 3.5 0.5 5.5q-1.6-1.2-3.1-2.4-1.3-0.4-2.5-0.8l-2 10.5-3.8 5.5q1.6 2.3 3.1 4.7h2.8l11.8-5.8q-2.1 6.6-4.3 13.3l-8.3 2-4.6-1.6-3.8-2.5-2.6-9.6c-1-10.6 2.5-13.1 11.3-18.9zm211.1-69.2l19.7 16.1q6 3.7 12.1 7.4l1 0.1q5.3 5.1 10.7 10.2l5.6 12.7q-1.9 3.3-3.9 6.5 0.6 5 1.2 10l-4.3 0.8c0.1-2.2 0.3-4.3-1-6.4-3.8-0.7-7.6-1.1-11.4-1.1-1.3-2.1-1.5-5.1-1.8-7-1.3-0.8-2.2-1.1-2.8-2.8-0.1-0.3 3.3 0.4 3.4 0.2 6.1-1.7 8.2-3.4 8.3-4.2-0.4-8.1-7.9-19.3-15.8-20.3-4.4-0.5-6.4-0.7-11.9 0.9 5.2-4.9 2.5-6.7 0.1-10.1-6.3-8.9-15.9-15.2-23.7-22.5zm-1.4 50.5c-0.4 0.8-1 1.9-1.8 2.7 3.2 3.1 4.8 5.2 6 9.5q-5.5 2.8-11.1 5.5l-9.3 9c-4.1-2.2-5.2-3.9-7.1-8.1-2.4 0.6-4.5 1.2-6.5 0.5 1.3 0 2-0.3 3.2-1.1l6-6.1q5.2-4 10.5-8l6.9-2.3c0.9-0.3 2.3-1.2 3.2-1.6z"/>
	<path id="Layer" class="s2" d="m254.4 77.8c-11.8 6.4-23 12.7-29 24.7 0-15.2 15.3-21.9 29-24.7zm-31.3-29.9c-8.7 5.9-14.9 17.9-14.1 29.6-2.8-10.1-1.8-19.7 6.9-26.7q2.2-1 4.4-2.1 1.4-0.4 2.8-0.8z"/>
	<path id="Layer" fill-rule="evenodd" class="s3" d="m341.6 106.7c-1 10.6-3.9 21-8.9 29.7-4.6 7.9-10.9 14.5-19.3 18.9-5.7 3.1-12.3 4.8-19.2 5.6-7 0.7-14.4 0.3-21.3-0.8l-0.9 3.1-1.2 4c-1.4 4.6-4.8 8.8-9 11.8-4.3 3.2-9.5 5.3-14.4 5.5-4.7 0.2-8.3-0.9-11.5-2.8-3.1-1.8-5.7-4.3-8.6-7.1l-3.8-3.6-2.6-2.5q-0.1 0.9-0.2 1.7c1.3 2.7 2.3 5.2 3.2 7.8l-1.3 0.5-0.3 0.1 1.6-0.6q1 2.6 2 5.1c1.1 2.7 2 4.9 2.6 7.2 0.5 2.4 0.9 4.7 0.9 7.6q0.1 3.8 0.2 7.5 0.1 3.5 0.2 7c1.1 1.8 1.7 3.1 2 4.5 0.3 1.5 0.3 3 0.1 5.4-0.4 5.4-2.1 8.4-5.1 10.1-2.8 1.6-6.6 1.8-11.2 1.8-0.7 0-1.8 0-3.2 0-4.4 0-11.3 0-13.5-0.1-2.8-0.2-5.2-0.5-7.1-0.9-1.6-0.4-2.8-0.9-3.9-1.7-1.5 1.2-2.8 2.3-4.2 3.4-3.9 3.3-8 6.7-9.6 7.7-0.6 1-1.2 2-1.7 2.8-1.7 3-2.9 5.1-6.8 7.3-7.7 4.1-13.7 3.8-18.9 0.5-5-3-9.1-8.6-13.4-15.3-2.1-3.1-5.3-8.3-6.9-13.4-1.8-5.6-1.5-11.1 4.1-14l0.8-0.4c0.6-0.3 1.1-0.6 1.6-0.9q-3.1 0.2-6.3 0.2-6.4-0.1-12.7-0.9 0.1 0.8 0.2 1.2c0.3 2.8 0.6 4.7 0.3 6.6-0.3 1.9-1.1 3.6-2.7 6-0.1 0.2-0.5 0.7-0.8 1.1-1.5 2.3-2.4 3.5-4.4 8.2 0.2 2.2 0.2 4 0.1 5.8-0.2 2-0.6 4-1.3 6.6-1.7 6.5-8.3 8-15.6 7.5-6.7-0.4-14-2.5-18.2-3.6-0.9-0.3-1.7-0.5-2.4-0.7-3.6-0.9-7.4-1.9-10.6-3.4-6.5-2.9-10.7-7.5-6.6-16.4q1-2.1 1.7-4.3 0.3-0.8 0.6-1.5c-3.4 0.5-6.9-0.1-10.3-1.4-6-2.3-11.7-6.6-15.1-10.1-2.8-2.8-5-5.8-6.6-8.9-1.7-3.2-2.9-6.7-3.5-10.2-0.9-5.6-0.3-6.2 3-9.4 0.5-0.5 1.1-1 1.2-1.2q2.5-2.4 4.9-4.8l5.2-5.2 2.4-6.4q0.8-2.1 1.6-4.2-0.4-1.9-0.7-3.9-0.3-2.3-0.5-4.3c-0.5-5.9-0.7-11-0.5-15.5q0.2-5 1-9.9c-2.7 0.6-5.5 0.6-8-0.2-3.1-1-5.8-3.2-7.5-6.7-0.7-1.3-1.2-2.6-1.6-4.1-0.4-1.2-0.8-2.7-1.2-4.3-2.3-2.3-3.5-4.8-3.9-7.3-0.5-2.8 0-5.6 1.3-8.3 1.2-2.6 3.1-5.1 5.2-7.4 5.9-6 14.1-10.5 18-11.2l2.9-0.5-1 2.8c-0.5 1.3-1.1 2.8-1.6 4.3q-0.3 0.5-0.5 1.2c1.8 1.4 2.8 3.4 3.3 5.6 0.8 3.4 0.3 7.4-0.4 10.3l-0.8 3.5-2.2-2.8c-0.6-0.7-1-1.4-1.4-2q-0.6-1-1.2-1.7c-0.3 4.6-0.8 9.2-4.1 12.4 0.1 0.3 0.1 0.5 0.2 0.6 0 0 0.6-0.3 1.9-0.8 2.3-0.9 4.4-2.4 6.3-4.1 2-1.8 3.8-3.8 5.6-5.8 2.1-4 4.4-7.9 7.2-11.5 2.9-3.8 6.2-7.3 9.8-10.5 9.1-8 17.9-13.4 28-17.3 9.8-3.8 20.8-6.2 34.2-8.3q2.6-2.7 5.2-5.3 2.9-2.8 5.9-5.4c2.9-2.5 5.3-4.1 7.7-5 2.1-0.9 4.3-1.3 6.7-1.4 4.1-5.5 7.8-10.2 12.2-14.3 4.7-4.3 10-7.8 17.1-10.8 14.8-6.3 27.3-9.5 39.2-8.8 11.9 0.8 23.1 5.6 35.1 15.4 2.2 1.9 4.5 3.9 6.8 5.9 5.1 4.4 10 8.8 15.8 12.4 2.1 1.3 4 2.5 5.8 3.9q2.9 2.2 5.2 4.9c2.1 2.6 4 5.1 5.7 7.7q2.1 3.5 3.7 7.2c2.4-0.9 5-2 7.1-3.8 1.8-1.5 3.3-3.7 4.8-5.9 1.3-1.9 2.7-3.9 4.3-5.5q0.8-0.8 1.7-1.3c2.5-1.3 5.6-1.1 8.5-0.1 2.7 1 5.4 2.7 7.2 4.4 0.8 0.9 1.5 1.7 1.9 2.6 3.7 6.9 6.3 16.6 7.9 26.6 1.8 11.1 2.2 22.7 1.3 31.2zm-31.1 42.6c14.6-8.2 22.6-26.3 24.4-42.8 1.6-14.8-1.1-37.9-7.2-52.5-1.4-3.4-7-8.4-10.5-5-3.6 3.5-6.3 8.4-10.2 11.5-5.3 4.2-14.4 2.7-12.8 11.6 1.2 6.5 1.6 13.7 0.2 19.7-1.3 5.8-2.7 14.1-5.7 17.9 0.9-3.2 2.4-11.8 2.8-17.6 0.2-3.2-0.1-7-0.7-10.8h-2c-2.4 0.1-6.4 3.6-7.5 5.7-3 6.1-3.2 11.8-6.5 17.5 2.7-6.4 1.2-12.3 3.6-19.2 0.9-2.4 3.1-4.6 5.6-5.8-1.4-0.2-2.8 0.4-4.9 0.9-8.9 2.1-8.5 9.1-14 15.8 5.3-9.7 2.6-16.2 14.1-18.8 3.7-0.8 6.5-1.2 9 0.8q0 0 0.1 0l2-0.2c-0.4-1.7-0.7-3.5-1.1-5.1-5.2-0.7-10-0.6-15.4 0.2q1.8-0.7 3.4-1.3c-0.3-0.4-0.6-0.8-0.8-1.3v-0.1c-0.8-1.3-1.1-2.9-0.9-4.4 0.1-1.2 0.5-2.3 1.1-3.3q-0.3 0-0.6 0.1c-1.2 0.5-3.9 0.4-5.2 0 2.4-0.4 6-1.7 8.3-2.8l0.2-0.1c2.3-1.4 5.1-1.6 7.6-0.5 1 0.3 2.3 0.8 3.7 1.3-2.2-4.6-4.7-8.8-7.7-13-2.8-3.9-5.2-5.3-9.4-7.8q-1.4-0.8-2.7-1.6c-3.1-0.6-6.5-1.1-9.5-0.6 2.4-0.9 4.3-1.3 6.4-1.5-5.9-4.3-11-9-16.9-14-22.6-19-40.9-17.6-69.7-5.1-11.6 5-15.8 10.2-23 19.4h0.2c7.3-0.2 14.6-0.5 22.1-1.2-7.8 1.8-15.2 3.3-22.8 4.4-8.5 1.3-11 1.1-17.4 7.3-11.7 11.4-21.5 24.2-32.2 35.8-6.2 6.7-9.3 13.4-12.9 21-3.6 7.6-3.1 10.5 1.7 17 5 6.7 8 9.8 10 15.7 5.5-8.4 12.1-15.4 19.1-23.8-5.7 9.1-10.9 17.7-15.6 26.9-2.9 5.8-4.3 8.7-4.2 15.1 5.4 6.3 8.9 9.7 14 11.1 5.5 1.5 10.6 1.2 15.6-1.3 12.3-6.4 24.1-14.8 37.7-15.8 7.1-12.6 5.1-28.4 2.6-42.8-2.1-11.9-1.6-22.4 1.2-34.3 0.8 11.6 1.7 22.4 4 33.7 3.3 16.7 4 31.1-3 48.3-15.1 0.4-27.5 9.2-40.9 16.1-6.1 3.1-11.7 3.4-18.4 1.8-6.9-1.7-12.2-7-19.3-14.7 0.7-5.9 1.5-9.5 3.6-13.8-2.6-7.6-5.7-11.1-11.5-18.9-6.7-9.1-6.8-13-1.7-23.2 3.6-7.5 7.1-14.4 12.8-21.2 5.7-6.7 11-12.9 16.3-18.9-22 3.4-36.1 8.7-51.1 21.9-11.2 9.8-18.1 21.9-23.1 36-3.1 8.8-4 17.8-2.5 32.2 1.9 18.7 11.8 39.8 22.5 55.1-1.4 9.6-3 16.8-5.7 23.6-3 7.8 9 10.1 14.8 11.7 4.7 1.3 22.7 6.2 24.4-0.1 1.1-3.8 1.1-6.5 0.8-10.5 3.2-6.4 4.2-7.2 6.5-11 2.4-4 2.6-5.6 2.6-10.4 0.1-6.1-0.1-17 0.2-21 0.8 3.6 1.8 8.5 2.6 13.2 12.7 2.3 25.4 2.1 38.1-0.5 0.2-0.9 0.5-1.9 0.8-3.1 0.9-2.9 2.6-5.9 3.4-8.9q-0.3 4.4-0.7 8.8c-0.2 3-0.2 5.5 0.1 8.5l0.7 5c-1-1.6-2.4-3-3.2-4.5-5.7 3.7-8.8 5.8-14.4 8.7-5.9 3.2 0.9 14.3 3.3 18.2 5.4 8.5 11.7 18.5 21.7 13.3 3.2-1.8 5.1-5.7 7.3-8.6 2.9-1.7 18.4-14.8 20.8-16.2 3.5-2 16-22.4 17.6-27.6 3.5-11.3 7.6-19.9 8.7-31.7-7.9-3.3-11.8-7-17.5-13.7 8 5.9 14.9 9.1 23.6 11.8 3.1 2.8 6.3 5.6 9.6 8.6 4.8 4.2 9.2 8.6 16.1 8.7 7.5 0.1 16-5.6 18.2-12.7l2.5-8.3q-2.2-0.5-4.3-1.2c-1.6 3.8-1.4 5.2-2.2 8-1.2 4.7-7.7 8-14.5 6.3-2.4-0.6-3.8-0.9-4.7-1.5 0.7 1.8 2 3.4 4.5 3.9 2.7 0.5 4.7 0.7 8.7-0.2-4.9 2.5-6.5 2.6-10 1.9-9.1-2.1-5.9-13.1-3.9-19.8 1.3-4.3 0.8-8.8-0.1-13.1 3.5 2.2 6.2 4.2 10.2 5.5 18.5 6.2 40.4 12.6 59 2.2zm-87.2 64.5l-0.4-15.7c-0.1-5-1.1-7.9-3.1-12.5-1.1-2.7-1.7-5.3-2.6-7.9-1.7 6.2-4.1 12.1-6.2 18.8-2 6.4-12.4 25-18.5 29.5 1.2 0.9 3.4 1.2 7.2 1.5 2.8 0.3 13.7 0.3 16.4 0.4 6 0.1 8.3-0.4 8.9-7.2 0.3-3.4 0-4-1.7-6.9zm-184.6-39.1l-9.8 9.9c-2.5 2.5-2.9 2.6-2.5 6.1 0.7 4.8 3.5 9.9 7.8 14.2 3.8 3.9 17.2 14.2 22.4 7.2 1.1-1.5 1.6-3.4 2.1-5.3v-0.1c-7.3-11.2-13.9-24.4-17.8-37.8zm-16.3-65.9c0.9 3.3 1.6 5.9 2.8 8.5 2.6 5.4 9.4 4 14.5 1.8q0.2-0.6 0.4-1.3 1.2-3.9 2.7-7.7c-2 1.8-4.3 3.3-7.1 4.5-7.1 2.8-7 0.4-10.1-5.9 6.6-5.2 3.5-11.7 5.6-18.9 0.5-1.6 1.2-3.3 2.2-5.4-6.9 4.1-19.5 15.7-11 24.4zm12.8-20.5q-0.2 0.6-0.4 1.2-0.3 1.2-0.5 2.6c1.4-0.2 2.2 0.5 3.3 1.6-0.2-2.5-0.7-4.4-2.4-5.4zm253.9-27.3q1.2 1.1 1.8 2.6 0.4-0.3 0.7-0.6-0.4-1-0.9-2-0.8 0-1.6 0zm-269.5 14.9c-10.8 11.4-13.8 18-15.1 33.2-1.8-19.3 1.5-23.7 15.1-33.2zm14.7 35.3l-0.1-0.1zm296.9 24.4z"/>
	<path id="Layer" class="s3" d="m1 96.7c1.5-6.9 2.9-9.5 7.2-15.1-6.9 4.8-7.8 6.8-7.2 15.1zm159.1-95.5c-8.1 2-9.7 3.5-12.1 11.4 3.9-5.8 6.1-7.7 12.1-11.4z"/>
	<path id="Layer" fill-rule="evenodd" class="s3" d="m146.7 25.5c5.3-18.7 10.1-21.5 26.2-25.5-14.3 6.8-19.4 11.8-26.2 25.5zm77.4 22c-11.8 5.7-14.8 13-16.5 20.6-2-10.1 0.9-16.7 16.5-20.6zm71 19.7c4.5 0.5 7.1 1.2 11.2-0.8 7.6-3.8 13.2-10 16.8-17.3-2.2 8.8-6.6 16.2-15.9 19.5-4.6 1.6-7.5 0-12.1-1.4zm-50.1 12.3c3.4-1.2 6.8-1.7 9.6-1.7-10.1 2.9-21 9.6-28.4 18.4q1.2-3.3 3.4-6.2c-3.4-1.8-5.6-5.4-5.7-9.3-2.5 2-5.2 4-8.1 5.1 4-3.5 9.3-11.8 13.1-14.4 4.4-3 10.4-2.4 15.5-4.8-1.8 1.6-4 2.9-6.3 4.1 2.6 1 4.7 2.9 5.9 5.4q0.8 1.6 1 3.4zm-5.4 56.5c1.8-0.3 5.2-0.9 7-1.3-1.8 1-5.1 2.4-6.9 3.3-2.5 1.4-3.2 1.7-4.4 4.3-1.1 2.5-2.3 5.5-3.2 8.1 0.3-2.3 0.8-5.2 1.2-7.4 0.8-4.9 1.3-6.1 6.3-7zm-80.8-85.6q9.5-0.9 19-2c-5.7 2.2-10.8 3.8-16.3 5.2-5 6.6-8 10-9.2 18.8-1.3-8.7-1.6-10.3 2.3-16.8-1.2 0.6-2.2 1.4-3.7 2.7-5.4 4.6-12.4 22.7-15.2 29.1 1.8-7.8 7.4-27.2 13.1-32.9 3.8-3.8 4.6-3.7 10-4.1z"/>
	<path id="Layer" class="s1" d="m227 87.6c-1-2.2-0.1-4.8 2.1-5.8 2.2-1.1 4.8-0.1 5.9 2.1q0.1 0.3 0.2 0.6c-2.1 1.6-4 3.4-5.6 5.5-1.1-0.5-2.1-1.2-2.6-2.4zm49-18.9c0.2-1.8 1.8-3.2 3.6-3 1.8 0.2 3.1 1.8 2.9 3.6q0 0.6-0.3 1.1c-1.6 0.3-3.3 0.8-5 1.4-0.7-0.8-1.3-2.1-1.2-3.1z"/>
</svg>