<svg version="1.2" xmlns="http://www.w3.org/2000/svg" viewBox="0 0 284 256" width="284" height="256">
	<title>hive-svg</title>
	<style>
		.s0 { fill: #000000;stroke: #fdee21;stroke-width: 1.5 } 
		.s1 { fill: #fdee21 } 
		.s2 { fill: #c8c037 } 
		.s3 { fill: #fcf6a0 } 
		.s4 { fill: #000000 } 
		.s5 { fill: #ffffff } 
		.s6 { fill: #000000;stroke: #000000;stroke-width: .1 } 
	</style>
	<g id="Layer">
		<path id="Layer" fill-rule="evenodd" class="s0" d="m169.5 200.4v54.9h13.4v-25.2h2.8v25.2h13.6v-54.9h-13.6v20.4h-2.8v-20.4z"/>
		<path id="Layer" fill-rule="evenodd" class="s0" d="m202.9 200.4h13.1v54.9h-13.1z"/>
		<path id="Layer" fill-rule="evenodd" class="s0" d="m218.2 200.4l10.3 54.9h15.6l10.4-54.9h-13.9l-3.4 23.5c-0.3 0.9-1.3 0.9-1.5 0l-3.4-23.5z"/>
		<path id="Layer" fill-rule="evenodd" class="s0" d="m283.3 200.4h-26v54.9h26v-14.4l-14.5-0.1v-6.2h6.9v-14.3h-6.9v-5.5h14.5z"/>
	</g>
	<g id="Layer">
		<path id="Layer" fill-rule="evenodd" class="s1" d="m142.9 34.1c-2.2-6-77.5-35.4-78.5-32.2-13.8 3.7-19.4 19.6-29 29.7l-21.1-1.2c-9.3 12-14.2 24.3-10.9 37 12 16.2 25.8 30 34.5 50.3 0.6 9.6 41.4 1 50.1-0.9-11.9 8.5-22.3 21.8-17.8 60 4 17.9 6.8 37.9 42.9 58.2 4.8 2.6 14.6 5.7 20.7 8 5.9 2.6 12.7 3.7 31.9-2.1 11.1-4.8 23.1-7.7 33.9-12.5l-13 0.6c-18 0.4-31.9 1.7-36.2-3.3l-16.6-28.6 9.7-18.8c13.4 1.4 17.8 12.2 29.6 16.3l13.9-10.3c40.3 23.9 56.3-15.1 60.9-45.4-0.5-12.4-26.7 3.9-25.1-1.9 0.6-13.3-10.2-30.6-17.1-44.2l8-31.3c3.7-3.2-16.9-38-33.8-42.4-14.7-3.8-37 15-37 15z"/>
	</g>
	<g id="Layer">
		<g id="Layer">
			<path id="Layer" fill-rule="evenodd" class="s2" d="m209.1 100.6c0.2 3.3 0.2 7.4 0.5 10-0.1 1.9-1.5 2-2.7 2.4l7.8 2.9c1.6 2.6 2.8 5.2 4.1 7.8 1.5 6.5 0.4 6.7-0.6 7.2-2.9 0-5.7 0-8.3-0.6 1.1 0.7 1.4 1.1 1.5 1.9 0.3 1.5-0.7 3.5-2.3 5.5 2.4 1.3 6.6 2.5 9.7 3.7l3.6-8c-1.6-11.7-6.5-22.5-13.3-32.8z"/>
			<path id="Layer" fill-rule="evenodd" class="s2" d="m223.8 139.9c4.3 1.9 10.3 1.3 18.7-3 1.2-0.9 2.4-0.3 0.2 1.1-11 9.8-16.2 4.9-18.9 1.9z"/>
			<path id="Layer" fill-rule="evenodd" class="s2" d="m243.3 135.6c1.3 2.5 0.5 4.5 0.1 6.6-1.4 10.7-4.7 19.1-11.2 27.9-21.1 34.1-42.5 12.7-59.5-1.1l-7.1 17.7c-0.3 1.5-1.9 2.7 9.1 7.6l11.2-8c42.8 32.6 73-45.6 57.4-50.7z"/>
			<path id="Layer" fill-rule="evenodd" class="s2" d="m177.8 166.1c-2.8 0.2-11.4 3.1-11.8 4.8l3.9-5.9z"/>
			<path id="Layer" fill-rule="evenodd" class="s2" d="m172.2 130c0.6 0 3.1 0.6 2.8 0.5-0.4-0.2 0 3.5 0.8 5.5l-3.1 6.8c5.9-6.9 15.3-6.4 24-7.3l-4.2-2.6c0.8-2.4-0.1-4.3-0.5-6.4z"/>
			<path id="Layer" fill-rule="evenodd" class="s2" d="m186.8 109.7c-6.4 1.9-12.4 5.1-16.5 11.9 3.1-11.2 3.7-10.8 4.7-11.3 4.4-2 8-0.8 11.8-0.6z"/>
		</g>
		<g id="Layer">
			<path id="Layer" fill-rule="evenodd" class="s3" d="m152.8 241c-7.6 8.5-24.8-0.6-39-5.3-36.2-23.1-43.3-44.8-43.8-66.1-1.9-30.5 7.5-48.2 19.3-52.4-7.8 15.1-11.5 42.3-7.8 62.4 2.9 11.3 3 30.2 21.7 40.3 9.2 5.2 6.7 9.2 12.9 14.1 6.8 5.3 25.8 10.3 36.7 7z"/>
			<path id="Layer" fill-rule="evenodd" class="s3" d="m164.3 100.1c-13-18.5-31.3-25.5-51.9-26.2 4.1-1.4 8.2-2.1 12.4-4.1 1-1.1 0.7-2.9 0.3-4.8-19.9-5.2-32.4-11.7-48.3-17.6l42.9 10.3c28.9 1.1 26.4 8.3 44.6 42.4z"/>
			<path id="Layer" fill-rule="evenodd" class="s3" d="m178.3 91.1c-9.7-13.7-19-30.4-31.6-41-30.6-13.8-60.9-24.1-96.3-33.4l11.3-14.6c37.6 8.6 72.9 23 104.6 46.7 5.3 13.5 8.9 27.1 12 42.3z"/>
			<path id="Layer" fill-rule="evenodd" class="s3" d="m197.7 66.8c0 0-5.4-12.1-8.1-16.7-6-6.8-9.1-19.4-21.6-25.3 3.9 1.1 6.6-0.2 14.7 7.1l12.7 24.1z"/>
			<path id="Layer" fill-rule="evenodd" class="s3" d="m204.4 87.8c1.2-10.5 3.6-27.3 0.9-34-7.6-10.1-15.2-20.6-22.8-30.3-1.2-1.2-2.1-2.8-3.1-4 10.7 2.8 21.8 10.2 36.8 39.6z"/>
		</g>
		<g id="Layer">
			<path id="Layer" fill-rule="evenodd" class="s4" d="m159.5 89.1c-4.3-3.4-8.1-15.2-14.5-17.7-6-0.5-8.2-2.4-16-0.8 2.8-1.4 5.5-3.3 8.5-4.2 2.1-0.5 4 0 6 0.3 0.4-0.2 0.8-0.5 0.6-0.9-7.9-4.9-24.1-5-35-7.8 12.7 0.4 26.7-0.3 36.3 2.8 7.6 6.8 10.1 19.6 14.1 28.3z"/>
			<path id="Layer" fill-rule="evenodd" class="s4" d="m182.7 31.9c1.8 0.1 11.3 15.1 11.7 17.6 0.8 5.5 2.7 11.6 3.3 17.3-1.6-5.4-3.3-10.9-5.4-16.4-0.6-1.5-2.2-4.9-6.6-9.8-2-3.4-2.5-6-3-8.7z"/>
			<path id="Layer" fill-rule="evenodd" class="s4" d="m214.8 113.6h-4l4.5 1.2z"/>
			<path id="Layer" fill-rule="evenodd" class="s4" d="m187.2 109.6c-4.1-0.5-8.3-0.6-12.4 0.3-1.6 2.3-1.7 4.5-2.5 6.6 5-5.4 7-5.8 14.9-6.9z"/>
			<path id="Layer" fill-rule="evenodd" class="s4" d="m242.8 137.8c-2.3 1.8-2.5 3.6-9.2 5.6-4.9 1.2-7.7-0.8-10-3.4 3.5 1 4.1 3.6 13.4 0.6z"/>
			<path id="Layer" fill-rule="evenodd" class="s4" d="m222.5 139c-1.7 4.5-3.4 9-5.2 13.2-4.2 5-2.4 2.2-8.8 9.9 2.1-3.2 4.7-6.2 6.1-9.4 0.9-2.2 2.1-4.4 2.7-6.3-1.7-0.9-5.1-1-5.6-0.7-5.6 3.4-6.6 6.9-10 10.3 2.4-3.8 4.5-8 7.3-11.5 0.3-0.5 2.4-0.5 3.6-0.8-1.9-0.3-5.6-1.1-5.9-1-3.6 0.9-5.7 4.1-8.4 6.2 2-2.9 3.8-5.9 6.3-8.3 0.3-0.3 7.1 0.3 10.6 1.7l0.1 1.4 2 0.8 1.5-3.8z"/>
			<path id="Layer" fill-rule="evenodd" class="s4" d="m177.9 166.1c-0.9-0.3-8.9-1.4-8.9-1.1-3 2.2-3.5 4.3-3.4 6.1 5.1-5.1 4.9-5.1 12.3-5z"/>
			<path id="Layer" fill-rule="evenodd" class="s4" d="m171.9 129.9c0 0 5.7-0.9 5.6-0.3-0.4 2 0.7 6.9 0.9 6.2l-3.3 2.6c6.8-3.4 14-2.7 21.2-3.2 0 0-6.1-1.7-5.7-1.8 1.3-0.2-0.4-6.3-0.9-6.5 1.2-0.4 2.3-0.7 3.5-1-8.7-2.2-13.8-0.9-21.3 4z"/>
			<path id="Layer" fill-rule="evenodd" class="s4" d="m221.8 134.2l-1.3 0.6c-0.2-3.7-4.2-3.4-7.6-3.5l-2.8-0.7c0.9 0.8 3.5 0.8 2.4 2.5-0.9 0.4-1.3 2.5-1.8 4.2l-1.5 0.1c2.7 1 5.1 1.9 8.1 3.2l1.7 0.2 4.2-2.2z"/>
		</g>
		<g id="Layer">
			<path id="Layer" fill-rule="evenodd" class="s5" d="m183.6 131.7c-0.7-1.3-4-1.1-4.7-0.3-0.5 0.7 0 5 0.7 4.3 1.1-1 2.5-1.4 4.1-1.3 0.3-0.8 0.2-1.6-0.1-2.7z"/>
			<path id="Layer" fill-rule="evenodd" class="s5" d="m214.9 138.1c0.3-0.2 1-2.4 0.7-3-0.4-1.6-3.4-1.2-3.4-1.2-0.8 0.4-1.4 2.8-1.1 3.6 0.1 0.7 3.3 0.9 3.8 0.6z"/>
		</g>
		<g id="Layer">
			<path id="Layer" fill-rule="evenodd" class="s4" d="m84.9 213.2l2 0.2c11.3 5.6 30.1 13.9 57.2 9.5l4.3 6.7c-12 5.8-24.8 4.4-36.9 4.8z"/>
			<path id="Layer" fill-rule="evenodd" class="s4" d="m68.6 169l5.7 24c15.3 9.5 41.3 20.5 63.1 19.6l-4.8-11.1c-45.4-9.6-49.2-21.8-64-32.5z"/>
			<path id="Layer" fill-rule="evenodd" class="s4" d="m82.8 119.9c2.8 18.6 6.5 32.6 22.6 44.4 9.9 7.2 19.7 14.3 31.7 20.1 0 0-1.1 5.5-2 5.4-35.5-4-61.5-33.5-64.6-47 3-10.3 7.4-16.7 12.3-22.9z"/>
			<path id="Layer" fill-rule="evenodd" class="s4" d="m99.9 109.4c4.7 20.6 16 41.4 27.2 60.3 4.1 5.2 5.2 7.6 11.5 10.7 8.6 2.7 14.6 2.1 20.9 1.6-1.7-3.1-3.3-6.4-5.2-9.4-13.9-11-7.5-21-3.8-27.4-7.7-2-18-6.1-19.4-11.6-2.3-17.7-1.1-23.3 1.1-32.4-10.4 2.2-21.1 4.4-32.3 8.2z"/>
			<path id="Layer" fill-rule="evenodd" class="s6" d="m61.4 0c20.6 1.6 43 9.7 46.6 13.1 7.5 3.4 14.5 7 20.4 10.2 0.9 0.5 5.6 4.2 15.4 9.1 4.4-2.8 8.2-7.6 13-10.7 3.1-2 6.9-2.9 11.4-3.8 3.7-0.7 14.3 0.5 17 1.6 9.7 4.4 15 11.4 21.2 20.3 2.7 4.2 4.8 8.1 6.5 11.6 1.7 3.5 4.1 7.1 4.1 9.7 0 1.5-1.1 2.6-1.9 4.6-2.9 7.8-5.3 14.2-6.8 23.1-0.1 1.2-0.6 2.9-0.8 4.9-0.1 0.3 0.1 1.1 0.1 1.1l-0.2 3c-0.3 1.6-0.1 2.9-0.1 5.2 0 0-3.8-8.5-2.9-15.3 0-1.7 4.4-14.1 5.2-15.9 0.9-2.7 1.5-5 2.3-9 0.8-4.1 0.1-6.3-1.6-9.7-7.2-13.7-19.1-26.8-23.6-30.3-0.5-0.4-4.5-1.2-5.7-1.9-1.2-0.5 1.5 2.6 1.5 2.6-1.7 1.6-8.8-6.2-21.3-0.6-2.8 1.1-4.7 2.8-6.7 4.4-2.2 1.6-4.5 4.2-6.5 6.1 0.1 0.6 1.4 1.4 3.6 2.8 6 3.4 15.8 10.9 18.2 13.9 0.8 0.9 3.9 17.6 7 28.4 1 3.4 8.3 7.2 8.3 7.2-1.6 0.1-5.6-1.1-7.3-1.7-0.2 1.3 1.4 8.8 1.4 8.8 0 0-1.7-3.6-3.6-12.6-2.6-8.7-5.6-17.8-9.5-26.2-4-5.5-17.3-15.6-21.8-17.1-5-2.9-10.3-5.3-16.2-8.5-14.3-7.7-32.5-19.2-61.3-23.7-3.2 0.3-4.6 1.1-8.3 2.7-8 7.6-10.2 16.1-22.4 23.3 0.3 0.9 1.1 1.5 2.3 1.6 8.1 1.7 20.9 9.9 32.4 16.2 0 0-15.3-7.1-26.9-11.4-4.5-1.7-9-2.3-11.1-2.6-4.7-0.9-10.6-1.1-16.7-1.2-5.8 6-9.2 11.9-11.3 19.1v0.1c-0.7 7.8 0.6 10.5 1.2 13.1 2.1 8.9 9.5 17.3 18.2 26 2.5 2.4 5 4.7 7.1 7.6v0.1h0.1c3.6 5.3 4.7 15.3 8.7 20.9 0.6 0.6 10.7-0.1 16.6 0.7q3.8 0.5 7.8 0c8.2-2.1 13.5-4 19.9-5.9 2.9-1.5 12.8-5.2 15.8-5.8l0.6 3.8q-8.9 2-16.5 7.1c-1 0.4-2.2 2.5-3.3 3.7-17.1 21.8-10.8 50.5-6.4 67.1 2.9 6.9 6.9 16.6 11.1 21.3 7 7.2 15.3 14.4 24.2 20q0.7 0.5 1.3 0.9c7.6 4.5 15.6 8 23.8 9.3 4.1 0.7 24.3 3.4 15.4-8.3-0.2-0.2-2.2-2.4-3.2-4.9-0.1-0.2-2.7-3.9-4.1-6-4.8-7.2-12.4-18.9-10.7-21.8-0.1-4 0.9-8.8 2-11.5 1.7-4 3-7.6 4.1-9.9l13.3-9.5c2.5 4 5.4 6.9 7.7 11.5 4.5 12.1 15.5 12.9 24.7 3.7l2.8-2.3c7.1 3.6 13.9 9.4 27.1 7.1 10.8-1.6 18.4-13.4 25.2-26.5 3.2-7.5 5.4-15.6 6-22.7 0-0.5-0.3-6.8-3.7-6.6-5 0.4-4.8 3-10.6 4.2-3.5-0.2-8.1 0.3-8.3-0.1-2.3-3.5 0.4-9.8-2.7-14.7-0.6-0.8-9.3-17.3-11-24.3-0.5-1.8-1.6-2-1.6-2l0.2-3c0 0 3 2.8 4.3 3.9 2.9 2.7 4.6 9.5 5.2 10.4 2.3 4.3 5.5 10.1 8 15.6 0.3 0.6 1 3.9 0.4 10.9 0 0.1-1.7 0.1-2.7 0.2 8.2 0.9 11.3-3.3 19.6-5.5 2.3-0.5 5 3.1 7 6.6 1.5 1.7-3.7 31.8-20.2 51-13 10.8-31.7 8.2-43.1-0.2-3.9 5.4-7.4 11.6-23.3 6.9-4.8-3.2-5.4-7.6-7.5-11.9-3.1 0.8-5.3 0.3-10.4-0.3-1.7 0.1-2.5 0.2-3.7 2.7l4.2 6.3c1.5 1.8 3 5.4 12.7 9.6 1.1 0.5 3.7 0.4 4.3 0.3l-0.9 0.3c-4.8 1.5-11.4-1.5-11.5-1.3-5.1-1.6-9-4.8-12-8.5 0.2 3.3 0.3 6.9 1.5 10.2 0.9 2.5 1.4 3.1 2.1 5 0.4 0.5 2.1 0.7 4.2 1.5 0.8 0.3 3.5 1.3 5 1.5 4.7 0.5 9.9-0.1 9.9-0.1-3 3.1-11.9 2.6-15.9 2.3 1.6 3.1 3.2 6.6 4.3 9.2 0.6 1.7 0.5 1.7 9.6 2.6-4.2 0.4-7 1.6-8 1.6-0.7 0 0.4 2.2 0.7 2.6 1.8 1.8 4.6 1.9 7.2 2.3 11.2 1.1 35.5-0.9 35.5-0.9 0 0-27.4 9.7-40.9 13.7-5 1.4-10.4 1.7-15.2 1.1-27.2-6.1-46.8-22-55.5-34.4-2.9-4.2-6-10.4-7.5-14.4-3.1-8.6-5.2-16.2-6.2-25.3-1.8-20.6 1-33.6 11.2-48.2 1.1-1.7 4-3 4.4-4.3-3 1.2-6.4 2.5-10.1 3.4-3.9 1.3-8.5 2-12.4 2.8-2.8 0.3-5.8 0.3-8 0.3-5-0.4-10.6-0.4-14.7-1.3-1.9-0.4-1.7-0.4-2.4-1.8-2-4.3-3.8-10.6-6.2-15.1-3.2-7-7.7-11.7-15.5-19.4-8.7-9.2-17.9-21.1-14.3-35.6 1.8-5.7 5.9-14.7 9.2-19.5 3-3.6 6.1-4.7 9.4-2.9 3.7 0.4 5 0.1 7 0 4.2-0.3 7.6-1.9 8.8-3 6-4.4 10-10.4 15.9-16.5 3.5-3.7 6.9-6.9 10.3-9.2zm101 201.3q0 0 0 0zm21.7-15.6l-2.4-3c-1 0.8-2.1 1.5-3.4 4.3-0.6 1.1-1.5 1.8-2.2 1.9-2.9 0.4-6.2-0.3-9.8-2.7 0.5 1.4 3.6 3 5.6 4.5-2 0.1-4.9-0.1-5.7-1.2-3-4.2-2.6-5.5-2-6.5 3.1-4.1 7.1-8.3 8.2-14.2 3.3 5 8.4 9.9 14.5 14.6z"/>
		</g>
	</g>
</svg>