<?xml version="1.0" encoding="UTF-8"?>
<svg xmlns="http://www.w3.org/2000/svg" xmlns:xlink="http://www.w3.org/1999/xlink" width="px" height="40px" viewBox="0 0 44 40" version="1.1">
<g id="surface1">
<path style="fill-rule:evenodd;fill:rgb(0%,0%,0%);fill-opacity:1;stroke-width:1.5;stroke-linecap:butt;stroke-linejoin:miter;stroke:rgb(99.215686%,93.333334%,12.941177%);stroke-opacity:1;stroke-miterlimit:4;" d="M 169.507457 200.4 L 169.507457 255.3 L 182.895597 255.3 L 182.895597 230.1 L 185.694247 230.1 L 185.694247 255.3 L 199.309304 255.3 L 199.309304 200.4 L 185.694247 200.4 L 185.694247 220.8 L 182.895597 220.8 L 182.895597 200.4 Z M 169.507457 200.4 " transform="matrix(0.15493,0,0,0.15625,0,0)"/>
<path style="fill-rule:evenodd;fill:rgb(0%,0%,0%);fill-opacity:1;stroke-width:1.5;stroke-linecap:butt;stroke-linejoin:miter;stroke:rgb(99.215686%,93.333334%,12.941177%);stroke-opacity:1;stroke-miterlimit:4;" d="M 202.88956 200.4 L 216.000355 200.4 L 216.000355 255.3 L 202.88956 255.3 Z M 202.88956 200.4 " transform="matrix(0.15493,0,0,0.15625,0,0)"/>
<path style="fill-rule:evenodd;fill:rgb(0%,0%,0%);fill-opacity:1;stroke-width:1.5;stroke-linecap:butt;stroke-linejoin:miter;stroke:rgb(99.215686%,93.333334%,12.941177%);stroke-opacity:1;stroke-miterlimit:4;" d="M 218.193892 200.4 L 228.506037 255.3 L 244.087713 255.3 L 254.50071 200.4 L 240.60831 200.4 L 237.204545 223.9 C 236.901989 224.8 235.893466 224.8 235.691761 223.9 L 232.287997 200.4 Z M 218.193892 200.4 " transform="matrix(0.15493,0,0,0.15625,0,0)"/>
<path style="fill-rule:evenodd;fill:rgb(0%,0%,0%);fill-opacity:1;stroke-width:1.5;stroke-linecap:butt;stroke-linejoin:miter;stroke:rgb(99.215686%,93.333334%,12.941177%);stroke-opacity:1;stroke-miterlimit:4;" d="M 283.294034 200.4 L 257.299361 200.4 L 257.299361 255.3 L 283.294034 255.3 L 283.294034 240.9 L 268.79652 240.8 L 268.79652 234.6 L 275.704901 234.6 L 275.704901 220.3 L 268.79652 220.3 L 268.79652 214.8 L 283.294034 214.8 Z M 283.294034 200.4 " transform="matrix(0.15493,0,0,0.15625,0,0)"/>
<path style=" stroke:none;fill-rule:evenodd;fill:rgb(99.215686%,93.333334%,12.941177%);fill-opacity:1;" d="M 22.140625 5.328125 C 21.796875 4.390625 10.132812 -0.203125 9.976562 0.296875 C 7.839844 0.875 6.972656 3.359375 5.484375 4.9375 L 2.214844 4.75 C 0.773438 6.625 0.015625 8.546875 0.527344 10.53125 C 2.386719 13.0625 4.523438 15.21875 5.871094 18.390625 C 5.964844 19.890625 12.285156 18.546875 13.632812 18.25 C 11.789062 19.578125 10.179688 21.65625 10.875 27.625 C 11.496094 30.421875 11.929688 33.546875 17.523438 36.71875 C 18.265625 37.125 19.785156 37.609375 20.730469 37.96875 C 21.644531 38.375 22.695312 38.546875 25.671875 37.640625 C 27.390625 36.890625 29.25 36.4375 30.925781 35.6875 L 28.910156 35.78125 C 26.121094 35.84375 23.96875 36.046875 23.300781 35.265625 L 20.730469 30.796875 L 22.230469 27.859375 C 24.308594 28.078125 24.988281 29.765625 26.816406 30.40625 L 28.972656 28.796875 C 35.214844 32.53125 37.695312 26.4375 38.40625 21.703125 C 38.328125 19.765625 34.269531 22.3125 34.519531 21.40625 C 34.609375 19.328125 32.9375 16.625 31.867188 14.5 L 33.109375 9.609375 C 33.683594 9.109375 30.488281 3.671875 27.871094 2.984375 C 25.59375 2.390625 22.140625 5.328125 22.140625 5.328125 Z M 22.140625 5.328125 "/>
<path style=" stroke:none;fill-rule:evenodd;fill:rgb(78.431374%,75.294119%,21.568628%);fill-opacity:1;" d="M 32.394531 15.71875 C 32.425781 16.234375 32.425781 16.875 32.472656 17.28125 C 32.457031 17.578125 32.242188 17.59375 32.054688 17.65625 L 33.261719 18.109375 C 33.511719 18.515625 33.695312 18.921875 33.898438 19.328125 C 34.132812 20.34375 33.960938 20.375 33.804688 20.453125 C 33.355469 20.453125 32.921875 20.453125 32.519531 20.359375 C 32.691406 20.46875 32.738281 20.53125 32.753906 20.65625 C 32.796875 20.890625 32.644531 21.203125 32.394531 21.515625 C 32.769531 21.71875 33.417969 21.90625 33.898438 22.09375 L 34.457031 20.84375 C 34.207031 19.015625 33.449219 17.328125 32.394531 15.71875 Z M 32.394531 15.71875 "/>
<path style=" stroke:none;fill-rule:evenodd;fill:rgb(78.431374%,75.294119%,21.568628%);fill-opacity:1;" d="M 34.671875 21.859375 C 35.339844 22.15625 36.269531 22.0625 37.570312 21.390625 C 37.757812 21.25 37.941406 21.34375 37.601562 21.5625 C 35.898438 23.09375 35.089844 22.328125 34.671875 21.859375 Z M 34.671875 21.859375 "/>
<path style=" stroke:none;fill-rule:evenodd;fill:rgb(78.431374%,75.294119%,21.568628%);fill-opacity:1;" d="M 37.695312 21.1875 C 37.894531 21.578125 37.773438 21.890625 37.710938 22.21875 C 37.492188 23.890625 36.980469 25.203125 35.976562 26.578125 C 32.707031 31.90625 29.390625 28.5625 26.757812 26.40625 L 25.65625 29.171875 C 25.609375 29.40625 25.363281 29.59375 27.066406 30.359375 L 28.800781 29.109375 C 35.433594 34.203125 40.109375 21.984375 37.695312 21.1875 Z M 37.695312 21.1875 "/>
<path style=" stroke:none;fill-rule:evenodd;fill:rgb(78.431374%,75.294119%,21.568628%);fill-opacity:1;" d="M 27.546875 25.953125 C 27.113281 25.984375 25.78125 26.4375 25.71875 26.703125 L 26.324219 25.78125 Z M 27.546875 25.953125 "/>
<path style=" stroke:none;fill-rule:evenodd;fill:rgb(78.431374%,75.294119%,21.568628%);fill-opacity:1;" d="M 26.679688 20.3125 C 26.773438 20.3125 27.160156 20.40625 27.113281 20.390625 C 27.050781 20.359375 27.113281 20.9375 27.238281 21.25 L 26.757812 22.3125 C 27.671875 21.234375 29.125 21.3125 30.476562 21.171875 L 29.824219 20.765625 C 29.949219 20.390625 29.808594 20.09375 29.746094 19.765625 Z M 26.679688 20.3125 "/>
<path style=" stroke:none;fill-rule:evenodd;fill:rgb(78.431374%,75.294119%,21.568628%);fill-opacity:1;" d="M 28.941406 17.140625 C 27.949219 17.4375 27.019531 17.9375 26.382812 19 C 26.863281 17.25 26.957031 17.3125 27.113281 17.234375 C 27.792969 16.921875 28.351562 17.109375 28.941406 17.140625 Z M 28.941406 17.140625 "/>
<path style=" stroke:none;fill-rule:evenodd;fill:rgb(98.823529%,96.470588%,62.7451%);fill-opacity:1;" d="M 23.671875 37.65625 C 22.496094 38.984375 19.832031 37.5625 17.632812 36.828125 C 12.023438 33.21875 10.921875 29.828125 10.84375 26.5 C 10.550781 21.734375 12.007812 18.96875 13.835938 18.3125 C 12.625 20.671875 12.054688 24.921875 12.625 28.0625 C 13.074219 29.828125 13.089844 32.78125 15.988281 34.359375 C 17.414062 35.171875 17.027344 35.796875 17.988281 36.5625 C 19.039062 37.390625 21.984375 38.171875 23.671875 37.65625 Z M 23.671875 37.65625 "/>
<path style=" stroke:none;fill-rule:evenodd;fill:rgb(98.823529%,96.470588%,62.7451%);fill-opacity:1;" d="M 25.453125 15.640625 C 23.441406 12.75 20.605469 11.65625 17.414062 11.546875 C 18.050781 11.328125 18.683594 11.21875 19.335938 10.90625 C 19.488281 10.734375 19.445312 10.453125 19.382812 10.15625 C 16.296875 9.34375 14.363281 8.328125 11.898438 7.40625 L 18.546875 9.015625 C 23.023438 9.1875 22.636719 10.3125 25.453125 15.640625 Z M 25.453125 15.640625 "/>
<path style=" stroke:none;fill-rule:evenodd;fill:rgb(98.823529%,96.470588%,62.7451%);fill-opacity:1;" d="M 27.625 14.234375 C 26.121094 12.09375 24.679688 9.484375 22.726562 7.828125 C 17.988281 5.671875 13.292969 4.0625 7.808594 2.609375 L 9.558594 0.328125 C 15.382812 1.671875 20.855469 3.921875 25.765625 7.625 C 26.585938 9.734375 27.144531 11.859375 27.625 14.234375 Z M 27.625 14.234375 "/>
<path style=" stroke:none;fill-rule:evenodd;fill:rgb(98.823529%,96.470588%,62.7451%);fill-opacity:1;" d="M 30.628906 10.4375 C 30.628906 10.4375 29.792969 8.546875 29.375 7.828125 C 28.445312 6.765625 27.964844 4.796875 26.027344 3.875 C 26.632812 4.046875 27.050781 3.84375 28.304688 4.984375 L 30.273438 8.75 Z M 30.628906 10.4375 "/>
<path style=" stroke:none;fill-rule:evenodd;fill:rgb(98.823529%,96.470588%,62.7451%);fill-opacity:1;" d="M 31.667969 13.71875 C 31.855469 12.078125 32.226562 9.453125 31.808594 8.40625 C 30.628906 6.828125 29.453125 5.1875 28.273438 3.671875 C 28.089844 3.484375 27.949219 3.234375 27.792969 3.046875 C 29.453125 3.484375 31.171875 4.640625 33.496094 9.234375 Z M 31.667969 13.71875 "/>
<path style=" stroke:none;fill-rule:evenodd;fill:rgb(0%,0%,0%);fill-opacity:1;" d="M 24.710938 13.921875 C 24.046875 13.390625 23.457031 11.546875 22.464844 11.15625 C 21.535156 11.078125 21.195312 10.78125 19.984375 11.03125 C 20.417969 10.8125 20.839844 10.515625 21.304688 10.375 C 21.628906 10.296875 21.921875 10.375 22.230469 10.421875 C 22.292969 10.390625 22.355469 10.34375 22.324219 10.28125 C 21.101562 9.515625 18.589844 9.5 16.902344 9.0625 C 18.871094 9.125 21.039062 9.015625 22.527344 9.5 C 23.703125 10.5625 24.089844 12.5625 24.710938 13.921875 Z M 24.710938 13.921875 "/>
<path style=" stroke:none;fill-rule:evenodd;fill:rgb(0%,0%,0%);fill-opacity:1;" d="M 28.304688 4.984375 C 28.585938 5 30.054688 7.34375 30.117188 7.734375 C 30.242188 8.59375 30.535156 9.546875 30.628906 10.4375 C 30.382812 9.59375 30.117188 8.734375 29.792969 7.875 C 29.699219 7.640625 29.453125 7.109375 28.769531 6.34375 C 28.460938 5.8125 28.382812 5.40625 28.304688 4.984375 Z M 28.304688 4.984375 "/>
<path style=" stroke:none;fill-rule:evenodd;fill:rgb(0%,0%,0%);fill-opacity:1;" d="M 33.277344 17.75 L 32.660156 17.75 L 33.355469 17.9375 Z M 33.277344 17.75 "/>
<path style=" stroke:none;fill-rule:evenodd;fill:rgb(0%,0%,0%);fill-opacity:1;" d="M 29.003906 17.125 C 28.367188 17.046875 27.71875 17.03125 27.082031 17.171875 C 26.832031 17.53125 26.816406 17.875 26.695312 18.203125 C 27.46875 17.359375 27.777344 17.296875 29.003906 17.125 Z M 29.003906 17.125 "/>
<path style=" stroke:none;fill-rule:evenodd;fill:rgb(0%,0%,0%);fill-opacity:1;" d="M 37.617188 21.53125 C 37.261719 21.8125 37.230469 22.09375 36.191406 22.40625 C 35.433594 22.59375 35 22.28125 34.640625 21.875 C 35.183594 22.03125 35.277344 22.4375 36.71875 21.96875 Z M 37.617188 21.53125 "/>
<path style=" stroke:none;fill-rule:evenodd;fill:rgb(0%,0%,0%);fill-opacity:1;" d="M 34.472656 21.71875 C 34.207031 22.421875 33.945312 23.125 33.667969 23.78125 C 33.015625 24.5625 33.292969 24.125 32.304688 25.328125 C 32.628906 24.828125 33.03125 24.359375 33.246094 23.859375 C 33.386719 23.515625 33.574219 23.171875 33.667969 22.875 C 33.402344 22.734375 32.875 22.71875 32.796875 22.765625 C 31.929688 23.296875 31.777344 23.84375 31.25 24.375 C 31.621094 23.78125 31.945312 23.125 32.378906 22.578125 C 32.425781 22.5 32.753906 22.5 32.9375 22.453125 C 32.644531 22.40625 32.070312 22.28125 32.023438 22.296875 C 31.464844 22.4375 31.140625 22.9375 30.722656 23.265625 C 31.03125 22.8125 31.3125 22.34375 31.699219 21.96875 C 31.746094 21.921875 32.796875 22.015625 33.339844 22.234375 L 33.355469 22.453125 L 33.667969 22.578125 L 33.898438 21.984375 Z M 34.472656 21.71875 "/>
<path style=" stroke:none;fill-rule:evenodd;fill:rgb(0%,0%,0%);fill-opacity:1;" d="M 27.5625 25.953125 C 27.421875 25.90625 26.183594 25.734375 26.183594 25.78125 C 25.71875 26.125 25.640625 26.453125 25.65625 26.734375 C 26.445312 25.9375 26.414062 25.9375 27.5625 25.953125 Z M 27.5625 25.953125 "/>
<path style=" stroke:none;fill-rule:evenodd;fill:rgb(0%,0%,0%);fill-opacity:1;" d="M 26.632812 20.296875 C 26.632812 20.296875 27.515625 20.15625 27.5 20.25 C 27.4375 20.5625 27.609375 21.328125 27.640625 21.21875 L 27.128906 21.625 C 28.183594 21.09375 29.296875 21.203125 30.414062 21.125 C 30.414062 21.125 29.46875 20.859375 29.53125 20.84375 C 29.730469 20.8125 29.46875 19.859375 29.390625 19.828125 C 29.574219 19.765625 29.746094 19.71875 29.933594 19.671875 C 28.585938 19.328125 27.792969 19.53125 26.632812 20.296875 Z M 26.632812 20.296875 "/>
<path style=" stroke:none;fill-rule:evenodd;fill:rgb(0%,0%,0%);fill-opacity:1;" d="M 34.363281 20.96875 L 34.160156 21.0625 C 34.132812 20.484375 33.511719 20.53125 32.984375 20.515625 L 32.550781 20.40625 C 32.691406 20.53125 33.09375 20.53125 32.921875 20.796875 C 32.78125 20.859375 32.722656 21.1875 32.644531 21.453125 L 32.410156 21.46875 C 32.828125 21.625 33.203125 21.765625 33.667969 21.96875 L 33.929688 22 L 34.582031 21.65625 Z M 34.363281 20.96875 "/>
<path style=" stroke:none;fill-rule:evenodd;fill:rgb(100%,100%,100%);fill-opacity:1;" d="M 28.445312 20.578125 C 28.335938 20.375 27.824219 20.40625 27.71875 20.53125 C 27.640625 20.640625 27.71875 21.3125 27.824219 21.203125 C 27.996094 21.046875 28.210938 20.984375 28.460938 21 C 28.507812 20.875 28.492188 20.75 28.445312 20.578125 Z M 28.445312 20.578125 "/>
<path style=" stroke:none;fill-rule:evenodd;fill:rgb(100%,100%,100%);fill-opacity:1;" d="M 33.292969 21.578125 C 33.339844 21.546875 33.449219 21.203125 33.402344 21.109375 C 33.339844 20.859375 32.875 20.921875 32.875 20.921875 C 32.753906 20.984375 32.660156 21.359375 32.707031 21.484375 C 32.722656 21.59375 33.21875 21.625 33.292969 21.578125 Z M 33.292969 21.578125 "/>
<path style=" stroke:none;fill-rule:evenodd;fill:rgb(0%,0%,0%);fill-opacity:1;" d="M 13.152344 33.3125 L 13.464844 33.34375 C 15.214844 34.21875 18.125 35.515625 22.324219 34.828125 L 22.992188 35.875 C 21.132812 36.78125 19.148438 36.5625 17.273438 36.625 Z M 13.152344 33.3125 "/>
<path style=" stroke:none;fill-rule:evenodd;fill:rgb(0%,0%,0%);fill-opacity:1;" d="M 10.628906 26.40625 L 11.511719 30.15625 C 13.882812 31.640625 17.910156 33.359375 21.289062 33.21875 L 20.542969 31.484375 C 13.511719 29.984375 12.921875 28.078125 10.628906 26.40625 Z M 10.628906 26.40625 "/>
<path style=" stroke:none;fill-rule:evenodd;fill:rgb(0%,0%,0%);fill-opacity:1;" d="M 12.828125 18.734375 C 13.261719 21.640625 13.835938 23.828125 16.328125 25.671875 C 17.863281 26.796875 19.382812 27.90625 21.242188 28.8125 C 21.242188 28.8125 21.070312 29.671875 20.929688 29.65625 C 15.429688 29.03125 11.402344 24.421875 10.921875 22.3125 C 11.386719 20.703125 12.070312 19.703125 12.828125 18.734375 Z M 12.828125 18.734375 "/>
<path style=" stroke:none;fill-rule:evenodd;fill:rgb(0%,0%,0%);fill-opacity:1;" d="M 15.476562 17.09375 C 16.207031 20.3125 17.957031 23.5625 19.691406 26.515625 C 20.328125 27.328125 20.496094 27.703125 21.472656 28.1875 C 22.804688 28.609375 23.734375 28.515625 24.710938 28.4375 C 24.449219 27.953125 24.199219 27.4375 23.90625 26.96875 C 21.753906 25.25 22.742188 23.6875 23.316406 22.6875 C 22.125 22.375 20.527344 21.734375 20.3125 20.875 C 19.953125 18.109375 20.140625 17.234375 20.480469 15.8125 C 18.871094 16.15625 17.210938 16.5 15.476562 17.09375 Z M 15.476562 17.09375 "/>
<path style="fill-rule:evenodd;fill:rgb(0%,0%,0%);fill-opacity:1;stroke-width:0.1;stroke-linecap:butt;stroke-linejoin:miter;stroke:rgb(0%,0%,0%);stroke-opacity:1;stroke-miterlimit:4;" d="M 61.393821 0 C 81.992898 1.6 104.407315 9.7 107.987571 13.1 C 115.501065 16.5 122.510298 20.1 128.410156 23.3 C 129.292614 23.8 134.007457 27.5 143.790128 32.4 C 148.202415 29.6 152.009588 24.8 156.800071 21.7 C 159.901278 19.7 163.708452 18.8 168.196378 17.9 C 171.902699 17.2 182.492188 18.4 185.189986 19.5 C 194.897017 23.9 200.191761 30.9 206.394176 39.8 C 209.091974 44 211.209872 47.9 212.899148 51.4 C 214.588423 54.9 217.008878 58.5 217.008878 61.1 C 217.008878 62.6 215.899503 63.7 215.092685 65.7 C 212.193182 73.5 209.79794 79.9 208.310369 88.8 C 208.209517 90 207.705256 91.7 207.503551 93.7 C 207.402699 94 207.604403 94.8 207.604403 94.8 L 207.402699 97.8 C 207.100142 99.4 207.301847 100.7 207.301847 103 C 207.301847 103 203.494673 94.5 204.402344 87.7 C 204.402344 86 208.789418 73.6 209.596236 71.8 C 210.503906 69.1 211.10902 66.8 211.890625 62.8 C 212.697443 58.7 211.991477 56.5 210.302202 53.1 C 203.091264 39.4 191.190696 26.3 186.70277 22.8 C 186.198509 22.4 182.189631 21.6 181.004616 20.9 C 179.794389 20.4 182.492188 23.5 182.492188 23.5 C 180.802912 25.1 173.692827 17.3 161.212358 22.9 C 158.388494 24 156.497514 25.7 154.505682 27.3 C 152.312145 28.9 149.992543 31.5 148.00071 33.4 C 148.101562 34 149.387429 34.8 151.606179 36.2 C 157.606889 39.6 167.38956 47.1 169.810014 50.1 C 170.591619 51 173.692827 67.7 176.794034 78.5 C 177.802557 81.9 185.089134 85.7 185.089134 85.7 C 183.50071 85.8 179.491832 84.6 177.802557 84 C 177.600852 85.3 179.189276 92.8 179.189276 92.8 C 179.189276 92.8 177.5 89.2 175.60902 80.2 C 173.012074 71.5 170.011719 62.4 166.103693 54 C 162.094815 48.5 148.807528 38.4 144.294389 36.9 C 139.302202 34 134.007457 31.6 128.107599 28.4 C 113.81179 20.7 95.607955 9.2 66.789418 4.7 C 63.612571 5 62.200639 5.8 58.494318 7.4 C 50.501776 15 48.308239 23.5 36.105114 30.7 C 36.40767 31.6 37.189276 32.2 38.399503 32.3 C 46.492898 34 59.301136 42.2 70.798295 48.5 C 70.798295 48.5 55.493963 41.4 43.895952 37.1 C 39.408026 35.4 34.894886 34.8 32.802202 34.5 C 28.112571 33.6 22.1875 33.4 16.111151 33.3 C 10.312145 39.3 6.908381 45.2 4.790483 52.4 L 4.790483 52.5 C 4.10973 60.3 5.395597 63 6.00071 65.6 C 8.093395 74.5 15.506037 82.9 24.204545 91.6 C 26.700639 94 29.196733 96.3 31.289418 99.2 L 31.289418 99.3 L 31.39027 99.3 C 34.995739 104.6 36.105114 114.6 40.088778 120.2 C 40.693892 120.8 50.804332 120.1 56.70419 120.9 C 59.225497 121.225 61.822443 121.225 64.495028 120.9 C 72.689276 118.8 78.009233 116.9 84.388139 115 C 87.287642 113.5 97.196378 109.8 100.196733 109.2 L 100.801847 113 C 94.876776 114.325 89.355114 116.7 84.3125 120.1 C 83.303977 120.5 82.09375 122.6 81.009588 123.8 C 63.889915 145.6 70.193182 174.3 74.605469 190.9 C 77.504972 197.8 81.488636 207.5 85.699219 212.2 C 92.708452 219.4 101.003551 226.6 109.903764 232.2 C 110.357599 232.525 110.811435 232.825 111.189631 233.1 C 118.803977 237.6 126.79652 241.1 134.990767 242.4 C 139.100497 243.1 159.296165 245.8 150.395952 234.1 C 150.194247 233.9 148.202415 231.7 147.193892 229.2 C 147.09304 229 144.496094 225.3 143.109375 223.2 C 138.293679 216 130.704545 204.3 132.393821 201.4 C 132.292969 197.4 133.301491 192.6 134.410866 189.9 C 136.100142 185.9 137.411222 182.3 138.495384 180 L 151.807884 170.5 C 154.303977 174.5 157.20348 177.4 159.497869 182 C 164.011009 194.1 175.003906 194.9 184.206676 185.7 L 187.005327 183.4 C 194.090199 187 200.897727 192.8 214.109375 190.5 C 224.900568 188.9 232.489702 177.1 239.29723 164 C 242.49929 156.5 244.692827 148.4 245.29794 141.3 C 245.29794 140.8 244.995384 134.5 241.591619 134.7 C 236.599432 135.1 236.801136 137.7 231.002131 138.9 C 227.497514 138.7 222.908736 139.2 222.707031 138.8 C 220.387429 135.3 223.11044 129 220.009233 124.1 C 219.404119 123.3 210.705611 106.8 208.991122 99.8 C 208.512074 98 207.402699 97.8 207.402699 97.8 L 207.604403 94.8 C 207.604403 94.8 210.604759 97.6 211.890625 98.7 C 214.790128 101.4 216.504616 108.2 217.10973 109.1 C 219.404119 113.4 222.606179 119.2 225.102273 124.7 C 225.40483 125.3 226.110795 128.6 225.505682 135.6 C 225.505682 135.7 223.791193 135.7 222.807884 135.8 C 231.002131 136.7 234.103338 132.5 242.398438 130.3 C 244.692827 129.8 247.390625 133.4 249.40767 136.9 C 250.895241 138.6 245.701349 168.7 229.212003 187.9 C 216.20206 198.7 197.493963 196.1 186.097656 187.7 C 182.189631 193.1 178.710227 199.3 162.800781 194.6 C 158.010298 191.4 157.405185 187 155.3125 182.7 C 152.211293 183.5 149.992543 183 144.899503 182.4 C 143.210227 182.5 142.403409 182.6 141.193182 185.1 L 145.403764 191.4 C 146.891335 193.2 148.404119 196.8 158.111151 201 C 159.195312 201.5 161.792259 201.4 162.397372 201.3 L 161.489702 201.6 C 156.699219 203.1 150.093395 200.1 149.992543 200.3 C 144.899503 198.7 140.991477 195.5 137.991122 191.8 C 138.192827 195.1 138.293679 198.7 139.503906 202 C 140.411577 204.5 140.890625 205.1 141.596591 207 C 142 207.5 143.689276 207.7 145.807173 208.5 C 146.588778 208.8 149.31179 209.8 150.799361 210 C 155.488991 210.5 160.708097 209.9 160.708097 209.9 C 157.707741 213 148.807528 212.5 144.798651 212.2 C 146.412287 215.3 148.00071 218.8 149.110085 221.4 C 149.689986 223.1 149.589134 223.1 158.691051 224 C 154.505682 224.4 151.707031 225.6 150.698509 225.6 C 149.992543 225.6 151.101918 227.8 151.404474 228.2 C 153.194602 230 155.993253 230.1 158.590199 230.5 C 169.810014 231.6 194.090199 229.6 194.090199 229.6 C 194.090199 229.6 166.708807 239.3 153.194602 243.3 C 148.202415 244.7 142.806818 245 137.991122 244.4 C 110.811435 238.3 91.195668 222.4 82.497159 210 C 79.597656 205.8 76.496449 199.6 75.008878 195.6 C 71.90767 187 69.789773 179.4 68.806463 170.3 C 66.991122 149.7 69.789773 136.7 80.001065 122.1 C 81.11044 120.4 84.009943 119.1 84.388139 117.8 C 81.387784 119 78.009233 120.3 74.302912 121.2 C 70.394886 122.5 65.806108 123.2 61.898082 124 C 59.099432 124.3 56.099077 124.3 53.90554 124.3 C 48.888139 123.9 43.290838 123.9 39.206321 123 C 37.290128 122.6 37.491832 122.6 36.81108 121.2 C 34.794034 116.9 33.003906 110.6 30.608665 106.1 C 27.406605 99.1 22.893466 94.4 15.102628 86.7 C 6.404119 77.5 -2.798651 65.6 0.806818 51.1 C 2.596946 45.4 6.706676 36.4 10.009588 31.6 C 13.009943 28 16.111151 26.9 19.388849 28.7 C 23.09517 29.1 24.40625 28.8 26.398082 28.7 C 30.608665 28.4 34.012429 26.8 35.197443 25.7 C 41.198153 21.3 45.207031 15.3 51.106889 9.2 C 54.611506 5.5 57.990057 2.3 61.393821 0 Z M 162.397372 201.3 Z M 184.105824 185.7 L 181.710582 182.7 C 180.70206 183.5 179.592685 184.2 178.306818 187 C 177.701705 188.1 176.794034 188.8 176.088068 188.9 C 173.188565 189.3 169.910866 188.6 166.305398 186.2 C 166.809659 187.6 169.910866 189.2 171.902699 190.7 C 169.910866 190.8 167.011364 190.6 166.204545 189.5 C 163.20419 185.3 163.607599 184 164.1875 183 C 167.288707 178.9 171.297585 174.7 172.40696 168.8 C 175.709872 173.8 180.802912 178.7 186.904474 183.4 Z M 184.105824 185.7 " transform="matrix(0.15493,0,0,0.15625,0,0)"/>
</g>
</svg>
