<svg version="1.2" xmlns="http://www.w3.org/2000/svg" viewBox="0 0 226 256" width="226" height="256">
	<title>html5-svg</title>
	<style>
		.s0 { fill: #e44d26 } 
		.s1 { fill: #f16529 } 
		.s2 { fill: #ebebeb } 
		.s3 { fill: #ffffff } 
	</style>
	<path id="Layer" class="s0" d="m20.6 230.6l-20.5-230.8h225.8l-20.5 230.7-92.5 25.7z"/>
	<path id="Layer" class="s1" d="m113 236.6l74.7-20.8 17.6-197.1h-92.3z"/>
	<path id="Layer" class="s2" d="m113 104.3h-37.4l-2.6-29h40v-28.3h-70.9l0.7 7.6 6.9 78h63.3zm0 73.5h-0.1l-31.5-8.5-2-22.6h-28.4l3.9 44.4 58 16.1h0.1z"/>
	<path id="Layer" class="s3" d="m112.9 103.7v28.3h34.8l-3.3 36.7-31.5 8.6v29.4l58-16.1 0.4-4.8 6.6-74.5 0.7-7.6h-7.6zm0-57.2v28.3h68.3l0.6-6.4 1.3-14.3 0.6-7.6z"/>
</svg>