<svg version="1.2" xmlns="http://www.w3.org/2000/svg" viewBox="0 0 225 256" width="225" height="256">
	<title>html5-svg</title>
	<style>
		.s0 { fill: #e44d26 } 
		.s1 { fill: #f16529 } 
		.s2 { fill: #ebebeb } 
		.s3 { fill: #ffffff } 
	</style>
	<path id="Layer" class="s0" d="m20.5 230.1l-20.4-229.8h224.8l-20.5 229.8-92 25.6z"/>
	<path id="Layer" class="s1" d="m112.5 236.1l74.4-20.6 17.5-196.4h-91.9z"/>
	<path id="Layer" class="s2" d="m112.5 104.4h-37.3l-2.5-28.9h39.8v-28.2h-70.6l0.7 7.6 6.9 77.6h63zm0 73.2l-0.1 0.1-31.4-8.5-2-22.5h-28.2l3.9 44.3 57.7 16h0.1z"/>
	<path id="Layer" class="s3" d="m112.4 104.4v28.1h34.7l-3.3 36.6-31.4 8.5v29.3l57.7-16 0.4-4.8 6.7-74.2 0.6-7.5h-7.5zm0-57.1v28.2h68l0.5-6.3 1.3-14.3 0.7-7.6z"/>
</svg>