<?xml version="1.0" encoding="UTF-8"?>
<svg xmlns="http://www.w3.org/2000/svg" xmlns:xlink="http://www.w3.org/1999/xlink" width="px" height="40px" viewBox="0 0 35 39" version="1.1">
<g id="surface1">
<path style=" stroke:none;fill-rule:nonzero;fill:rgb(89.411765%,30.19608%,14.901961%);fill-opacity:1;" d="M 3.1875 35.054688 L 0.015625 0.046875 L 34.984375 0.046875 L 31.796875 35.054688 L 17.484375 38.953125 Z M 3.1875 35.054688 "/>
<path style=" stroke:none;fill-rule:nonzero;fill:rgb(94.509804%,39.607844%,16.078432%);fill-opacity:1;" d="M 17.5 35.96875 L 29.074219 32.828125 L 31.796875 2.910156 L 17.5 2.910156 Z M 17.5 35.96875 "/>
<path style=" stroke:none;fill-rule:nonzero;fill:rgb(92.156863%,92.156863%,92.156863%);fill-opacity:1;" d="M 17.5 15.90625 L 11.699219 15.90625 L 11.308594 11.5 L 17.5 11.5 L 17.5 7.207031 L 6.519531 7.207031 L 6.625 8.363281 L 7.699219 20.1875 L 17.5 20.1875 Z M 17.5 27.054688 L 17.484375 27.070312 L 12.601562 25.777344 L 12.289062 22.347656 L 7.902344 22.347656 L 8.507812 29.097656 L 17.484375 31.535156 L 17.5 31.535156 Z M 17.5 27.054688 "/>
<path style=" stroke:none;fill-rule:nonzero;fill:rgb(100%,100%,100%);fill-opacity:1;" d="M 17.484375 15.90625 L 17.484375 20.1875 L 22.882812 20.1875 L 22.367188 25.761719 L 17.484375 27.054688 L 17.484375 31.519531 L 26.460938 29.082031 L 26.523438 28.351562 L 27.5625 17.046875 L 27.65625 15.90625 Z M 17.484375 7.207031 L 17.484375 11.5 L 28.0625 11.5 L 28.140625 10.542969 L 28.34375 8.363281 L 28.449219 7.207031 Z M 17.484375 7.207031 "/>
</g>
</svg>
