<svg version="1.2" xmlns="http://www.w3.org/2000/svg" viewBox="0 0 256 256" width="256" height="256">
	<title>intellij-svg</title>
	<defs>
		<linearGradient id="g1" x2="1" gradientUnits="userSpaceOnUse" gradientTransform="matrix(118.957,0,0,106.147,2.888,146.612)">
			<stop offset=".258" stop-color="#f97a12"/>
			<stop offset=".459" stop-color="#b07b58"/>
			<stop offset=".724" stop-color="#577bae"/>
			<stop offset=".91" stop-color="#1e7ce5"/>
			<stop offset="1" stop-color="#087cfa"/>
		</linearGradient>
		<linearGradient id="g2" x2="1" gradientUnits="userSpaceOnUse" gradientTransform="matrix(196.23,108.581,-141.086,254.974,94.235,90.99)">
			<stop offset="0" stop-color="#f97a12"/>
			<stop offset=".072" stop-color="#cb7a3e"/>
			<stop offset=".154" stop-color="#9e7b6a"/>
			<stop offset=".242" stop-color="#757b91"/>
			<stop offset=".334" stop-color="#537bb1"/>
			<stop offset=".432" stop-color="#387ccc"/>
			<stop offset=".538" stop-color="#237ce0"/>
			<stop offset=".655" stop-color="#147cef"/>
			<stop offset=".792" stop-color="#0b7cf7"/>
			<stop offset="1" stop-color="#087cfa"/>
		</linearGradient>
		<linearGradient id="g3" x2="1" gradientUnits="userSpaceOnUse" gradientTransform="matrix(-54.628,-163.234,112.958,-37.803,231.233,156.947)">
			<stop offset="0" stop-color="#fe315d"/>
			<stop offset=".078" stop-color="#cb417e"/>
			<stop offset=".16" stop-color="#9e4e9b"/>
			<stop offset=".247" stop-color="#755bb4"/>
			<stop offset=".339" stop-color="#5365ca"/>
			<stop offset=".437" stop-color="#386ddb"/>
			<stop offset=".542" stop-color="#2374e9"/>
			<stop offset=".658" stop-color="#1478f3"/>
			<stop offset=".794" stop-color="#0b7bf8"/>
			<stop offset="1" stop-color="#087cfa"/>
		</linearGradient>
		<linearGradient id="g4" x2="1" gradientUnits="userSpaceOnUse" gradientTransform="matrix(163.852,271.02,-272.739,164.892,39.206,60.244)">
			<stop offset="0" stop-color="#fe315d"/>
			<stop offset=".04" stop-color="#f63462"/>
			<stop offset=".104" stop-color="#df3a71"/>
			<stop offset=".167" stop-color="#c24383"/>
			<stop offset=".291" stop-color="#ad4a91"/>
			<stop offset=".55" stop-color="#755bb4"/>
			<stop offset=".917" stop-color="#1d76ed"/>
			<stop offset="1" stop-color="#087cfa"/>
		</linearGradient>
	</defs>
	<style>
		.s0 { fill: url(#g1) } 
		.s1 { fill: url(#g2) } 
		.s2 { fill: url(#g3) } 
		.s3 { fill: url(#g4) } 
		.s4 { fill: #000000 } 
		.s5 { fill: #ffffff } 
	</style>
	<g id="Layer">
		<g id="Layer">
			<path id="Layer" class="s0" d="m64.7 199.7l-61.8-49 30.7-57.1 88.2 34.4z"/>
			<path id="Layer" class="s1" d="m256 68.4l-4.8 148.1-98.3 39.5-59.3-38 86.7-90-38-83 34-41z"/>
			<path id="Layer" class="s2" d="m256 68.4l-77.9 92.1-35.8-115.5 34-41z"/>
			<path id="Layer" class="s3" d="m123.2 212.5l-102.7 37.3 16.4-57.8 21.6-70.9-58.5-19.8 36.9-101.3 80.5 9.9 79 90.3z"/>
		</g>
		<g id="Layer">
			<path id="Layer" class="s4" d="m50.1 49.4h158v158h-158z"/>
			<path id="Layer" class="s5" d="m64.7 177.7h59.3v9.9h-59.3z"/>
			<path id="Layer" class="s5" d="m107.5 81.9v-12h-32.9v12h9.5v41.3h-9.5v12.1h32.9v-12.1h-9.1v-41.3z"/>
			<path id="Layer" class="s5" d="m139 136.4c-5.1 0-9.5-1.1-12.8-2.9-3.3-1.8-6.2-4.4-8.4-7l9.1-10.2c1.8 2.2 3.7 3.7 5.5 4.8 1.8 1 4 1.8 6.2 1.8 2.6 0 4.8-0.8 6.6-2.6 1.5-1.8 2.2-4.4 2.2-8.4v-42h14.6v42.7c0 4.1-0.4 7.4-1.5 10.3-1 2.9-2.5 5.1-4.7 7.3-1.8 1.8-4.4 3.7-7.3 4.4-2.9 1.1-5.9 1.8-9.5 1.8z"/>
		</g>
	</g>
</svg>