<?xml version="1.0" encoding="UTF-8"?>
<svg xmlns="http://www.w3.org/2000/svg" xmlns:xlink="http://www.w3.org/1999/xlink" width="px" height="40px" viewBox="0 0 50 40" version="1.1">
<defs>
<clipPath id="clip1">
  <path d="M 0.125 11 L 13 11 L 13 40 L 0.125 40 Z M 0.125 11 "/>
</clipPath>
<clipPath id="clip2">
  <path d="M 37 34 L 49.875 34 L 49.875 40 L 37 40 Z M 37 34 "/>
</clipPath>
</defs>
<g id="surface1">
<path style=" stroke:none;fill-rule:evenodd;fill:rgb(0%,10.980392%,40.000001%);fill-opacity:1;" d="M 7.117188 0.484375 C 3.175781 2.375 4.664062 8.359375 9.003906 8.109375 C 12.53125 7.890625 13.988281 3.5625 11.363281 1.09375 C 10.335938 0.125 8.4375 -0.140625 7.117188 0.484375 Z M 7.117188 0.484375 "/>
<g clip-path="url(#clip1)" clip-rule="nonzero">
<path style=" stroke:none;fill-rule:nonzero;fill:rgb(0%,10.980392%,40.000001%);fill-opacity:1;" d="M 0.199219 11.671875 C 0.152344 11.71875 0.121094 16.796875 0.121094 16.796875 L 6.488281 16.796875 L 6.488281 39.859375 L 12.054688 29.953125 L 12.054688 11.59375 C 8.820312 11.59375 0.246094 11.640625 0.199219 11.671875 Z M 0.199219 11.671875 "/>
</g>
<path style=" stroke:none;fill-rule:nonzero;fill:rgb(0%,32.941177%,90.980393%);fill-opacity:1;" d="M 12.054688 39.859375 L 6.488281 39.859375 L 12.054688 29.953125 L 22.285156 11.59375 L 27.730469 11.59375 L 27.730469 30.03125 L 37.835938 11.59375 L 43.511719 11.59375 L 43.511719 34.71875 L 37.851562 34.71875 C 37.867188 29.59375 37.882812 22.484375 37.835938 22.53125 L 27.730469 39.859375 L 22.285156 39.859375 L 22.269531 22.296875 Z M 12.054688 39.859375 "/>
<g clip-path="url(#clip2)" clip-rule="nonzero">
<path style=" stroke:none;fill-rule:nonzero;fill:rgb(12.156863%,72.941178%,100%);fill-opacity:1;" d="M 37.835938 39.859375 L 49.878906 39.921875 L 49.878906 34.71875 L 37.851562 34.71875 C 37.851562 37.609375 37.835938 39.859375 37.835938 39.859375 Z M 37.835938 39.859375 "/>
</g>
</g>
</svg>
