<svg version="1.2" xmlns="http://www.w3.org/2000/svg" viewBox="0 0 256 256" width="256" height="256">
	<title>javascript-svg</title>
	<style>
		.s0 { fill: #f0db4f } 
		.s1 { fill: #323330 } 
	</style>
	<path id="Layer" class="s0" d="m-0.2-0.2h256.2v256.2h-256.2z"/>
	<path id="Layer" class="s1" d="m235 194.9c-1.8-11.7-9.5-21.5-32-30.7-7.9-3.6-16.6-6.1-19.2-12.1-1-3.4-1.1-5.4-0.5-7.5 1.7-6.8 9.8-8.9 16.2-6.9 4.2 1.3 8.1 4.5 10.5 9.6 11-7.1 11-7.1 18.7-12-2.8-4.4-4.3-6.4-6.2-8.3-6.6-7.4-15.7-11.2-30.2-10.9l-7.5 0.9c-7.3 1.9-14.2 5.7-18.2 10.7-12.1 13.8-8.7 37.9 6.1 47.8 14.5 10.9 35.9 13.4 38.6 23.6 2.7 12.5-9.2 16.5-20.9 15.1-8.7-1.8-13.5-6.2-18.7-14.2-9.6 5.5-9.6 5.5-19.5 11.2 2.4 5.1 4.8 7.4 8.7 11.9 18.6 18.8 65 17.9 73.4-10.6 0.3-1 2.5-7.5 0.7-17.6zm-95.9-77.3h-24l-0.1 61.9c0 13.2 0.7 25.3-1.4 29-3.5 7.2-12.6 6.3-16.8 4.9-4.2-2-6.3-5-8.8-9.1-0.7-1.2-1.2-2.2-1.4-2.2l-19.5 11.9c3.3 6.6 8.1 12.4 14.2 16.2 9.1 5.4 21.4 7.1 34.2 4.2 8.4-2.5 15.6-7.5 19.3-15.2 5.5-10 4.3-22.2 4.3-35.7 0.1-21.9 0-43.9 0-65.9z"/>
</svg>