<svg version="1.2" xmlns="http://www.w3.org/2000/svg" viewBox="0 0 189 256" width="189" height="256">
	<title>java-svg</title>
	<style>
		.s0 { fill: #0074bd } 
		.s1 { fill: #ea2d2e } 
	</style>
	<path id="Layer" class="s0" d="m60.7 197.9c0 0-9.8 5.7 6.9 7.6 20.3 2.3 30.7 2 53-2.3 0 0 5.9 3.7 14.1 6.9-50.1 21.4-113.3-1.2-74-12.2zm-6.1-28c0 0-11 8.1 5.7 9.8 21.7 2.3 38.8 2.4 68.4-3.2 0 0 4.1 4.1 10.5 6.4-60.5 17.7-127.9 1.4-84.6-13z"/>
	<path id="Layer" class="s1" d="m106.1 122.4c12.4 14.2-3.2 27-3.2 27 0 0 31.3-16.2 16.9-36.4-13.4-18.9-23.7-28.3 32.1-60.6 0 0-87.6 21.8-45.8 70z"/>
	<path id="Layer" fill-rule="evenodd" class="s0" d="m12.8 238c-37.5-6.1 18-27.3 28.1-20.1 0 0-3.2-0.3-8.8 1-5.4 1.1-22.5 6.6-13.4 10.6 25.4 11 116.8 8.4 145.7-0.4 15.2-4.6 7.9-10.5 7.9-10.5 26.5 11.9-57.5 35.9-159.5 19.4zm52.6-97.1c0 0-46.5 11-16.5 15 12.7 1.7 38 1.3 61.5-0.6 19.2-1.6 38.6-5.1 38.6-5.1 0 0-6.8 2.9-11.7 6.3-47.2 12.4-138.4 6.6-112.2-6.1 22.2-10.7 40.3-9.5 40.3-9.5zm83.4 46.6c47.9-24.9 25.8-48.9 10.3-45.7-3.8 0.8-5.5 1.5-5.5 1.5 0 0 1.4-2.2 4.1-3.1 30.6-10.8 54.2 31.7-9.9 48.5 0 0 0.7-0.6 1-1.2z"/>
	<path id="Layer" class="s1" d="m119.8 0.2c0 0 26.6 26.6-25.2 67.4-41.5 32.8-9.4 51.5 0 72.8-24.2-21.8-42-41.1-30.1-59 17.5-26.3 66.1-39 55.3-81.2z"/>
	<path id="Layer" class="s0" d="m70.1 255c46 3 116.8-1.6 118.5-23.4 0 0-3.3 8.3-38.1 14.8-39.3 7.4-87.8 6.5-116.6 1.8 0 0 5.9 4.9 36.2 6.8z"/>
</svg>