<svg version="1.2" xmlns="http://www.w3.org/2000/svg" viewBox="0 0 256 256" width="256" height="256">
	<title>javascript-svg</title>
	<style>
		.s0 { fill: #f0db4f } 
		.s1 { fill: #323330 } 
	</style>
	<path id="Layer" class="s0" d="m-0.2-0.2h256.4v256.4h-256.4z"/>
	<path id="Layer" class="s1" d="m235.2 195c-1.9-11.7-9.5-21.5-32.1-30.6-7.8-3.6-16.6-6.2-19.2-12.2-0.9-3.4-1-5.4-0.5-7.5 1.7-6.8 9.8-8.9 16.3-6.9 4.1 1.3 8 4.5 10.4 9.6 11.1-7.1 11-7.1 18.8-12-2.9-4.4-4.4-6.4-6.2-8.3-6.7-7.4-15.7-11.3-30.2-11l-7.6 1c-7.2 1.8-14.1 5.6-18.2 10.7-12.1 13.8-8.6 37.9 6.1 47.8 14.6 10.9 35.9 13.4 38.7 23.6 2.6 12.5-9.2 16.6-21 15.1-8.7-1.8-13.5-6.2-18.7-14.2-9.6 5.6-9.6 5.6-19.5 11.2 2.4 5.2 4.8 7.5 8.7 11.9 18.6 18.9 65.1 17.9 73.4-10.6 0.4-1 2.6-7.5 0.8-17.6zm-96-77.4h-24l-0.1 62c0 13.2 0.7 25.3-1.5 29-3.5 7.3-12.6 6.4-16.7 5-4.2-2.1-6.4-5-8.8-9.2-0.7-1.2-1.2-2.1-1.4-2.2l-19.5 11.9c3.2 6.7 8 12.5 14.1 16.2 9.2 5.5 21.5 7.2 34.3 4.2 8.4-2.4 15.6-7.4 19.3-15.1 5.5-10.1 4.3-22.3 4.3-35.7 0.1-22 0-44 0-66.1z"/>
</svg>