<?xml version="1.0" encoding="UTF-8"?>
<svg xmlns="http://www.w3.org/2000/svg" xmlns:xlink="http://www.w3.org/1999/xlink" width="px" height="40px" viewBox="0 0 40 40" version="1.1">
<g id="surface1">
<rect x="0" y="0" width="40" height="40" style="fill:rgb(94.117647%,85.882354%,30.980393%);fill-opacity:1;stroke:none;"/>
<path style=" stroke:none;fill-rule:nonzero;fill:rgb(19.607843%,20%,18.82353%);fill-opacity:1;" d="M 36.71875 30.453125 C 36.4375 28.625 35.234375 27.09375 31.71875 25.65625 C 30.484375 25.09375 29.125 24.703125 28.71875 23.765625 C 28.5625 23.234375 28.546875 22.921875 28.640625 22.59375 C 28.90625 21.53125 30.171875 21.203125 31.171875 21.515625 C 31.828125 21.71875 32.4375 22.21875 32.8125 23.015625 C 34.53125 21.90625 34.53125 21.90625 35.734375 21.140625 C 35.296875 20.453125 35.0625 20.140625 34.765625 19.84375 C 33.734375 18.6875 32.3125 18.09375 30.046875 18.140625 L 28.875 18.28125 C 27.734375 18.578125 26.65625 19.171875 26.03125 19.953125 C 24.140625 22.109375 24.671875 25.875 26.984375 27.421875 C 29.25 29.125 32.59375 29.515625 33.015625 31.109375 C 33.4375 33.0625 31.578125 33.6875 29.75 33.46875 C 28.390625 33.1875 27.640625 32.5 26.828125 31.25 C 25.328125 32.109375 25.328125 32.109375 23.78125 33 C 24.15625 33.796875 24.53125 34.15625 25.140625 34.859375 C 28.046875 37.796875 35.296875 37.65625 36.609375 33.203125 C 36.65625 33.046875 37 32.03125 36.71875 30.453125 Z M 21.734375 18.375 L 17.984375 18.375 L 17.96875 28.046875 C 17.96875 30.109375 18.078125 32 17.75 32.578125 C 17.203125 33.703125 15.78125 33.5625 15.125 33.34375 C 14.46875 33.03125 14.140625 32.5625 13.75 31.921875 C 13.640625 31.734375 13.5625 31.578125 13.53125 31.578125 L 10.484375 33.4375 C 11 34.46875 11.75 35.375 12.703125 35.96875 C 14.125 36.8125 16.046875 37.078125 18.046875 36.625 C 19.359375 36.234375 20.484375 35.453125 21.0625 34.25 C 21.921875 32.6875 21.734375 30.78125 21.734375 28.671875 C 21.75 25.25 21.734375 21.8125 21.734375 18.375 Z M 21.734375 18.375 "/>
</g>
</svg>
