<svg version="1.2" xmlns="http://www.w3.org/2000/svg" viewBox="0 0 188 256" width="188" height="256">
	<title>java-svg</title>
	<style>
		.s0 { fill: #0074bd } 
		.s1 { fill: #ea2d2e } 
	</style>
	<path id="Layer" class="s0" d="m60.2 197.3c0 0-9.7 5.7 6.9 7.6 20.1 2.3 30.4 1.9 52.5-2.3 0 0 5.8 3.7 14 6.8-49.7 21.3-112.4-1.2-73.4-12.1zm-6.1-27.7c0 0-10.9 8 5.7 9.7 21.5 2.2 38.5 2.4 67.8-3.2 0 0 4.1 4.1 10.4 6.3-60 17.6-126.8 1.4-83.9-12.8z"/>
	<path id="Layer" class="s1" d="m105.3 122.4c12.2 14.1-3.3 26.8-3.3 26.8 0 0 31.1-16 16.8-36.1-13.3-18.7-23.5-28 31.8-60.1 0 0-86.8 21.7-45.3 69.4z"/>
	<path id="Layer" fill-rule="evenodd" class="s0" d="m12.7 237.1c-37.2-6 17.8-27 27.9-19.9 0 0-3.2-0.3-8.8 0.9-5.3 1.2-22.3 6.7-13.2 10.6 25.1 10.9 115.8 8.3 144.4-0.4 15.1-4.5 7.9-10.4 7.9-10.4 26.3 11.8-57 35.6-158.2 19.2zm52.1-96.3c0 0-46.1 10.9-16.3 14.9 12.6 1.7 37.6 1.3 61-0.7 19.1-1.6 38.2-5 38.2-5 0 0-6.7 2.9-11.6 6.2-46.8 12.3-137.2 6.6-111.2-6 22-10.6 39.9-9.4 39.9-9.4zm82.7 46.2c47.6-24.7 25.6-48.5 10.3-45.3-3.8 0.8-5.5 1.5-5.5 1.5 0 0 1.4-2.2 4.1-3.2 30.4-10.6 53.7 31.5-9.8 48.3 0 0 0.7-0.7 0.9-1.3z"/>
	<path id="Layer" class="s1" d="m118.8 1.2c0 0 26.4 26.3-24.9 66.9-41.2 32.5-9.4 51-0.1 72.2-24-21.7-41.6-40.8-29.8-58.5 17.4-26.1 65.5-38.8 54.8-80.6z"/>
	<path id="Layer" class="s0" d="m69.5 254c45.7 2.9 115.8-1.6 117.5-23.2 0 0-3.2 8.2-37.7 14.7-39 7.3-87.1 6.5-115.6 1.7 0 0 5.8 4.9 35.8 6.8z"/>
</svg>