<?xml version="1.0" encoding="UTF-8"?>
<svg xmlns="http://www.w3.org/2000/svg" xmlns:xlink="http://www.w3.org/1999/xlink" width="px" height="40px" viewBox="0 0 29 39" version="1.1">
<g id="surface1">
<path style=" stroke:none;fill-rule:nonzero;fill:rgb(12.54902%,11.372549%,11.764706%);fill-opacity:1;" d="M 14.390625 38.953125 C 13.921875 38.894531 13.207031 38.773438 12.816406 38.664062 L 12.410156 38.542969 L 12.191406 37.964844 C 12.066406 37.628906 11.773438 36.730469 11.539062 35.953125 L 11.101562 34.550781 L 10.492188 34.492188 C 9.542969 34.429688 9.011719 34.261719 7.453125 33.5625 C 6.671875 33.210938 5.925781 32.890625 5.785156 32.828125 C 5.660156 32.785156 5.472656 32.664062 5.363281 32.554688 C 5.207031 32.371094 5.175781 32.28125 5.113281 31.125 L 5.050781 29.859375 L 4.613281 29.464844 C 2.214844 27.253906 0.609375 24.207031 0.109375 20.933594 C -0.046875 19.878906 -0.046875 17.824219 0.109375 16.757812 C 0.59375 13.527344 2.214844 10.464844 4.550781 8.316406 L 5.207031 7.722656 L 5.300781 7.082031 C 5.441406 6.003906 5.847656 5.226562 6.421875 4.859375 C 6.59375 4.738281 6.734375 4.554688 6.828125 4.339844 C 7.25 3.289062 7.921875 2.726562 10.132812 1.523438 C 11.585938 0.746094 12.972656 0.273438 14.3125 0.0742188 C 15.03125 -0.015625 16.558594 -0.015625 17.257812 0.0898438 C 19.238281 0.378906 20.363281 0.929688 21.78125 2.316406 C 22.746094 3.261719 23.308594 4.007812 23.636719 4.828125 C 23.902344 5.515625 24.199219 6.824219 24.292969 7.691406 L 24.339844 8.257812 L 25.070312 9.0625 C 27.582031 11.792969 28.921875 15.21875 28.921875 18.859375 C 28.921875 21.160156 28.390625 23.382812 27.347656 25.378906 L 26.957031 26.15625 L 27.191406 26.339844 C 27.566406 26.613281 27.800781 27.054688 28.1875 28.214844 C 28.46875 29.066406 28.53125 29.355469 28.53125 29.796875 C 28.53125 30.726562 28.1875 31.703125 27.691406 32.160156 C 27.269531 32.539062 26.179688 32.691406 24.882812 32.554688 C 24.449219 32.511719 24.371094 32.464844 24.214844 32.28125 L 24.058594 32.054688 L 23.386719 32.097656 C 22.578125 32.144531 22.140625 32.28125 22.140625 32.464844 C 22.140625 32.707031 22.03125 32.84375 21.734375 32.996094 C 21.453125 33.132812 21.4375 33.164062 21.4375 33.484375 C 21.4375 33.667969 21.53125 34.214844 21.640625 34.703125 C 22.015625 36.441406 21.859375 36.761719 20.472656 37.066406 C 20.253906 37.109375 20.253906 37.109375 20.300781 37.550781 C 20.410156 38.421875 19.941406 38.769531 18.492188 38.921875 C 17.757812 39 14.9375 39.015625 14.375 38.953125 Z M 14.390625 38.953125 "/>
<path style=" stroke:none;fill-rule:nonzero;fill:rgb(20%,31.37255%,38.039216%);fill-opacity:1;" d="M 10.570312 33.578125 C 9.761719 33.46875 8.652344 33.074219 7.296875 32.386719 C 6.316406 31.886719 5.972656 31.6875 5.957031 31.566406 C 5.957031 31.488281 5.925781 30.972656 5.894531 30.421875 C 5.769531 27.695312 5.144531 24.726562 4.242188 22.5 C 4.039062 22.027344 3.898438 21.601562 3.914062 21.585938 C 3.914062 21.585938 4.367188 21.265625 4.910156 20.871094 C 6.003906 20.078125 7.4375 19.226562 8.277344 18.875 L 8.824219 18.632812 L 9.496094 19.332031 C 10.210938 20.078125 10.601562 20.335938 11.925781 20.960938 L 12.753906 21.34375 L 12.894531 21.9375 C 12.972656 22.257812 13.160156 22.882812 13.300781 23.324219 C 13.503906 23.964844 13.609375 24.175781 13.796875 24.328125 C 14.0625 24.542969 14.21875 24.574219 14.53125 24.453125 C 14.796875 24.359375 14.78125 24.421875 14.453125 24.863281 C 14.140625 25.304688 14.109375 25.578125 14.359375 25.808594 C 14.546875 25.960938 16.574219 26.980469 17.199219 27.207031 L 17.507812 27.332031 L 16.761719 27.375 C 16.355469 27.40625 15.464844 27.453125 14.78125 27.5 C 13.6875 27.574219 12.332031 27.710938 11.289062 27.847656 C 10.945312 27.894531 10.929688 27.894531 10.867188 27.679688 C 10.789062 27.4375 10.789062 26.203125 10.835938 24.96875 C 10.867188 24.148438 10.820312 23.933594 10.601562 24.070312 C 10.429688 24.175781 10.382812 24.726562 10.460938 25.730469 C 10.554688 26.78125 10.492188 27.558594 10.320312 27.621094 C 10.273438 27.648438 10.039062 27.542969 9.808594 27.390625 C 9.574219 27.238281 9.371094 27.117188 9.339844 27.117188 C 9.214844 27.117188 9.277344 27.40625 9.433594 27.605469 C 9.511719 27.710938 9.589844 27.847656 9.589844 27.910156 C 9.589844 28.046875 9.355469 28.183594 9.136719 28.183594 C 8.964844 28.183594 8.667969 28.457031 8.761719 28.550781 C 8.777344 28.578125 9.167969 28.59375 9.605469 28.578125 C 10.039062 28.578125 10.445312 28.59375 10.492188 28.625 C 10.554688 28.65625 10.632812 29.050781 10.679688 29.523438 C 10.726562 29.996094 10.867188 31.09375 10.992188 31.960938 C 11.195312 33.46875 11.210938 33.683594 11.085938 33.667969 C 11.054688 33.652344 10.820312 33.621094 10.554688 33.578125 Z M 19.628906 32.265625 C 19.535156 31.519531 19.410156 28.398438 19.488281 28.320312 C 19.535156 28.289062 19.800781 28.246094 20.097656 28.230469 L 20.628906 28.214844 L 20.722656 28.625 C 20.785156 28.855469 20.875 29.707031 20.9375 30.53125 C 21.015625 31.351562 21.078125 32.097656 21.09375 32.175781 C 21.09375 32.328125 20.9375 32.386719 19.972656 32.554688 C 19.675781 32.585938 19.675781 32.585938 19.628906 32.265625 Z M 20.175781 27.070312 C 20.300781 26.859375 20.628906 26.339844 20.890625 25.898438 C 21.171875 25.457031 21.65625 24.664062 21.96875 24.160156 L 22.546875 23.21875 L 22.328125 22.941406 C 21.984375 22.53125 21.984375 22.5 22.125 22.195312 C 22.21875 21.984375 22.265625 21.679688 22.265625 21.023438 C 22.265625 19.988281 22.125 19.410156 21.75 18.996094 C 21.53125 18.769531 21.46875 18.738281 21.203125 18.753906 C 21.03125 18.769531 20.90625 18.769531 20.921875 18.738281 C 20.9375 18.707031 21.15625 18.511719 21.421875 18.296875 L 21.90625 17.902344 L 22.792969 18.722656 C 23.292969 19.179688 23.871094 19.699219 24.089844 19.894531 C 24.585938 20.339844 24.585938 20.414062 24.230469 21.890625 C 23.839844 23.476562 22.871094 26.140625 22.46875 26.796875 C 22.265625 27.117188 22.125 27.164062 21.15625 27.222656 C 20.707031 27.253906 20.285156 27.300781 20.207031 27.347656 C 19.957031 27.484375 19.957031 27.4375 20.175781 27.070312 Z M 20.175781 27.070312 "/>
<path style=" stroke:none;fill-rule:nonzero;fill:rgb(20%,31.37255%,38.039216%);fill-opacity:1;" d="M 19.769531 26.75 C 19.910156 26.292969 20.050781 25.394531 20.160156 24.222656 C 20.316406 22.746094 20.332031 22.699219 20.84375 22.699219 C 21.21875 22.699219 21.578125 22.867188 21.875 23.15625 L 22.09375 23.371094 L 21.59375 24.207031 C 20.9375 25.320312 19.863281 26.890625 19.769531 26.890625 C 19.753906 26.890625 19.722656 26.828125 19.769531 26.75 Z M 19.769531 26.75 "/>
<path style=" stroke:none;fill-rule:nonzero;fill:rgb(82.745099%,21.960784%,20%);fill-opacity:1;" d="M 4.492188 28.09375 C -0.015625 23.246094 -0.375 15.8125 3.632812 10.617188 C 4.117188 9.992188 5.191406 8.835938 5.300781 8.835938 C 5.347656 8.835938 5.394531 8.941406 5.425781 9.078125 C 5.457031 9.277344 5.410156 9.445312 5.207031 9.828125 C 4.957031 10.3125 4.941406 10.328125 4.957031 11.257812 C 4.957031 12.125 4.988281 12.292969 5.175781 12.796875 C 5.597656 13.894531 6.253906 14.578125 7.125 14.851562 L 7.515625 14.992188 L 7.65625 15.539062 C 7.734375 15.84375 7.953125 16.375 8.15625 16.710938 C 8.527344 17.398438 8.574219 17.65625 8.371094 17.855469 C 8.292969 17.914062 7.609375 18.3125 6.859375 18.738281 C 6.113281 19.164062 5.207031 19.699219 4.847656 19.925781 C 4.765625 19.976562 4.683594 20.027344 4.597656 20.078125 C 4.515625 20.128906 4.433594 20.179688 4.351562 20.230469 C 4.257812 20.28125 4.167969 20.332031 4.085938 20.382812 C 4 20.433594 3.917969 20.480469 3.835938 20.519531 C 3.320312 20.78125 3.039062 21.113281 3.039062 21.464844 C 3.039062 21.738281 3.710938 23.703125 4.195312 24.90625 C 4.320312 25.226562 4.507812 25.777344 4.582031 26.125 C 4.769531 26.890625 5.019531 28.367188 4.972656 28.503906 C 4.957031 28.550781 4.738281 28.367188 4.492188 28.09375 Z M 23.152344 26.917969 C 23.152344 26.890625 23.355469 26.265625 23.636719 25.53125 C 24.417969 23.324219 25.195312 20.796875 25.242188 20.339844 C 25.289062 19.804688 25.164062 19.621094 24.167969 18.753906 C 22.730469 17.503906 22.453125 17.214844 22.453125 17 C 22.453125 16.894531 22.625 16.515625 22.808594 16.164062 C 23.199219 15.464844 23.449219 14.808594 23.746094 13.695312 C 23.980469 12.84375 24.246094 11.105469 24.246094 10.496094 C 24.246094 10.269531 24.277344 9.964844 24.292969 9.828125 L 24.355469 9.582031 L 24.539062 9.765625 C 25.367188 10.511719 26.660156 12.628906 27.207031 14.121094 C 27.800781 15.769531 28.019531 17.03125 28.019531 18.84375 C 28.019531 20.261719 27.925781 21.039062 27.628906 22.167969 C 27.347656 23.261719 27.019531 24.148438 26.503906 25.152344 L 26.039062 26.035156 L 25.539062 26.128906 C 25.039062 26.203125 24.417969 26.417969 23.605469 26.75 C 23.355469 26.859375 23.152344 26.933594 23.152344 26.902344 Z M 13.921875 23.765625 C 13.875 23.660156 13.6875 23.261719 13.566406 22.867188 C 13.316406 22.195312 13.285156 22.074219 13.285156 21.191406 C 13.285156 20.140625 13.410156 19.789062 13.75 19.699219 C 14.0625 19.621094 15.15625 19.957031 16.121094 20.429688 C 16.621094 20.6875 17.089844 20.886719 17.136719 20.886719 C 17.257812 20.886719 17.257812 21.085938 17.152344 21.160156 C 17.105469 21.191406 16.902344 21.253906 16.699219 21.296875 C 16.324219 21.40625 16.324219 21.417969 16.949219 21.570312 C 17.289062 21.664062 17.304688 21.679688 17.304688 21.953125 C 17.304688 22.210938 17.257812 22.273438 16.667969 22.730469 C 15.792969 23.398438 15.574219 23.523438 14.859375 23.734375 C 14.109375 23.980469 14.0625 23.980469 13.921875 23.765625 Z M 19.910156 22.210938 C 19.066406 22.058594 19.097656 22.089844 19.097656 21.648438 C 19.097656 21.238281 19.207031 21.113281 19.597656 21.113281 C 19.722656 21.113281 19.785156 21.085938 19.753906 21.039062 C 19.738281 20.992188 19.566406 20.960938 19.378906 20.960938 C 19.082031 20.960938 19.050781 20.933594 18.976562 20.734375 C 18.882812 20.503906 18.882812 20.503906 19.503906 20.125 C 21.1875 19.058594 21.515625 19.179688 21.75 20.902344 C 21.8125 21.480469 21.78125 21.953125 21.65625 22.195312 C 21.5625 22.363281 20.84375 22.363281 19.910156 22.210938 Z M 17.804688 21.847656 C 17.695312 21.753906 17.664062 21.648438 17.648438 21.296875 C 17.648438 20.871094 17.664062 20.855469 17.898438 20.796875 C 18.570312 20.597656 18.898438 21.585938 18.273438 21.875 C 18.023438 21.984375 17.992188 21.984375 17.804688 21.847656 Z M 17.804688 21.847656 "/>
<path style=" stroke:none;fill-rule:evenodd;fill:rgb(43.529412%,42.352942%,43.137255%);fill-opacity:1;" d="M 14.703125 38.070312 C 14.4375 38.039062 13.921875 37.933594 13.535156 37.84375 L 12.832031 37.660156 L 12.503906 36.59375 C 11.878906 34.550781 11.414062 32.25 11.070312 29.78125 C 10.992188 29.171875 10.960938 28.640625 10.992188 28.609375 C 11.085938 28.503906 13.550781 28.199219 14.984375 28.109375 C 15.980469 28.046875 16.652344 28.046875 17.398438 28.09375 C 18.742188 28.199219 18.882812 28.246094 18.945312 28.519531 C 18.992188 28.640625 19.050781 29.507812 19.097656 30.453125 C 19.144531 31.398438 19.191406 32.207031 19.222656 32.21875 C 19.238281 32.25 19.285156 33.132812 19.332031 34.203125 C 19.410156 36 19.503906 37.324219 19.613281 37.644531 C 19.660156 37.796875 19.394531 37.886719 18.460938 38.039062 C 17.742188 38.164062 15.496094 38.191406 14.703125 38.070312 Z M 19.769531 35.753906 C 19.753906 35.421875 19.707031 34.75 19.675781 34.230469 C 19.628906 33.195312 19.597656 33.257812 20.253906 33.164062 L 20.628906 33.121094 L 20.84375 34.171875 C 20.953125 34.765625 21.046875 35.421875 21.046875 35.664062 L 21.046875 36.089844 L 20.597656 36.210938 C 19.832031 36.425781 19.832031 36.425781 19.769531 35.753906 Z M 24.789062 32.007812 C 24.601562 31.871094 24.773438 31.792969 25.601562 31.640625 C 26.660156 31.445312 26.300781 31.351562 24.742188 31.414062 L 23.480469 31.460938 L 23.433594 31.140625 C 23.417969 30.957031 23.339844 30.453125 23.308594 30.011719 C 23.289062 29.898438 23.273438 29.789062 23.261719 29.675781 C 23.253906 29.554688 23.238281 29.4375 23.214844 29.328125 C 23.207031 29.214844 23.191406 29.101562 23.167969 28.992188 C 23.148438 28.878906 23.128906 28.769531 23.105469 28.65625 C 22.996094 28.136719 22.996094 28.078125 23.121094 27.957031 C 23.292969 27.773438 23.808594 27.542969 24.601562 27.269531 C 24.945312 27.164062 25.367188 26.996094 25.554688 26.902344 C 26.347656 26.507812 26.957031 26.902344 27.316406 28.015625 C 27.925781 29.90625 27.941406 30.773438 27.363281 31.488281 C 27.050781 31.871094 26.644531 32.007812 25.726562 32.054688 C 25.226562 32.070312 24.867188 32.054688 24.789062 32.007812 Z M 26.195312 30.089844 C 25.914062 29.964844 24.929688 29.90625 24.585938 29.980469 L 24.277344 30.042969 L 24.554688 30.089844 C 24.695312 30.117188 25.179688 30.148438 25.601562 30.148438 C 26.210938 30.164062 26.332031 30.132812 26.195312 30.089844 Z M 25.773438 29.128906 C 26.132812 29.066406 26.148438 29.050781 25.914062 29.023438 C 25.523438 28.929688 24.757812 28.945312 24.507812 29.066406 C 24.292969 29.160156 24.308594 29.160156 24.835938 29.175781 C 25.132812 29.175781 25.570312 29.160156 25.773438 29.128906 Z M 25.023438 28.246094 C 25.554688 27.941406 25.632812 27.878906 25.414062 27.910156 C 24.835938 28.015625 24.417969 28.199219 24.121094 28.457031 L 23.808594 28.730469 L 24.089844 28.671875 C 24.230469 28.65625 24.664062 28.457031 25.023438 28.246094 Z M 21.953125 31.671875 C 21.9375 31.609375 21.859375 31.140625 21.796875 30.621094 C 21.734375 30.101562 21.625 29.328125 21.546875 28.914062 C 21.484375 28.472656 21.46875 28.136719 21.5 28.09375 C 21.546875 28.0625 21.75 28.03125 21.953125 28.046875 L 22.328125 28.0625 L 22.515625 28.519531 C 22.761719 29.144531 22.902344 29.980469 22.917969 30.835938 C 22.917969 31.535156 22.917969 31.550781 22.714844 31.625 C 22.328125 31.761719 22 31.792969 21.953125 31.671875 Z M 17.570312 26.554688 C 17.027344 26.324219 16.167969 25.960938 15.683594 25.714844 C 14.890625 25.320312 14.8125 25.257812 14.859375 25.121094 C 15.03125 24.574219 15.527344 24.023438 16.339844 23.476562 C 16.621094 23.292969 16.855469 23.15625 16.871094 23.15625 C 17.011719 23.15625 18.039062 25.074219 18.617188 26.417969 C 18.835938 26.890625 18.835938 26.964844 18.726562 26.964844 C 18.664062 26.964844 18.132812 26.78125 17.585938 26.554688 Z M 19.753906 26.75 C 19.894531 26.292969 20.035156 25.394531 20.144531 24.222656 C 20.253906 23.21875 20.316406 22.867188 20.394531 22.804688 C 20.691406 22.5625 21.46875 22.777344 21.875 23.1875 L 22.0625 23.355469 L 21.859375 23.6875 C 21.4375 24.453125 21.09375 25 20.472656 25.914062 C 19.867188 26.816406 19.628906 27.097656 19.753906 26.75 Z M 19.269531 26.554688 C 19.21875 26.453125 19.171875 26.355469 19.128906 26.265625 C 19.078125 26.171875 19.03125 26.078125 18.992188 25.976562 C 18.949219 25.882812 18.90625 25.785156 18.867188 25.683594 C 18.824219 25.59375 18.78125 25.503906 18.742188 25.410156 C 18.226562 24.253906 17.960938 23.734375 17.585938 23.203125 C 17.289062 22.773438 17.289062 22.746094 17.414062 22.609375 C 17.492188 22.53125 17.664062 22.46875 17.789062 22.46875 C 17.929688 22.457031 18.117188 22.425781 18.226562 22.363281 C 18.523438 22.195312 18.710938 22.210938 19.113281 22.46875 C 19.316406 22.59375 19.566406 22.730469 19.675781 22.746094 L 19.894531 22.804688 L 19.832031 24.007812 C 19.785156 25.199219 19.644531 26.28125 19.488281 26.660156 C 19.425781 26.859375 19.425781 26.859375 19.269531 26.554688 Z M 19.363281 24.726562 C 19.363281 24.527344 19.332031 24.496094 19.160156 24.496094 C 19.035156 24.496094 18.960938 24.542969 18.945312 24.632812 C 18.898438 24.863281 18.992188 25 19.175781 24.96875 C 19.316406 24.953125 19.363281 24.90625 19.363281 24.726562 Z M 19.113281 23.507812 C 19.191406 23.308594 19.066406 23.15625 18.882812 23.15625 C 18.773438 23.15625 18.664062 23.203125 18.648438 23.277344 C 18.570312 23.460938 18.679688 23.613281 18.882812 23.613281 C 18.976562 23.613281 19.082031 23.566406 19.113281 23.507812 Z M 12.035156 20.503906 C 11.476562 20.308594 11.039062 20.078125 10.867188 19.894531 C 10.695312 19.699219 10.742188 19.453125 10.960938 19.546875 C 11.199219 19.636719 11.625 19.714844 12.238281 19.773438 C 12.910156 19.820312 12.910156 19.835938 12.753906 20.367188 C 12.675781 20.6875 12.597656 20.6875 12.035156 20.503906 Z M 17.398438 20.277344 C 17.136719 20.199219 16.511719 19.882812 16.511719 19.804688 C 16.511719 19.773438 16.777344 19.773438 17.089844 19.789062 C 17.492188 19.820312 17.867188 19.773438 18.414062 19.652344 C 18.820312 19.5625 19.207031 19.5 19.238281 19.515625 C 19.285156 19.53125 19.082031 19.714844 18.804688 19.941406 C 18.257812 20.367188 18.023438 20.414062 17.398438 20.277344 Z M 12.269531 19.425781 C 11.523438 19.347656 10.695312 19.089844 10.257812 18.816406 C 9.855469 18.554688 9.464844 18.023438 9.105469 17.246094 C 8.746094 16.484375 8.402344 15.492188 8.355469 15.035156 C 8.308594 14.65625 8.324219 14.625 8.589844 14.289062 C 8.792969 14.078125 8.871094 13.894531 8.855469 13.773438 C 8.824219 13.542969 8.652344 13.574219 8.230469 13.878906 C 7.671875 14.257812 6.96875 14.136719 6.4375 13.574219 C 5.878906 12.964844 5.472656 11.914062 5.550781 11.273438 C 5.691406 10.101562 6.890625 9.292969 7.84375 9.71875 C 8.125 9.855469 8.496094 10.421875 8.636719 10.921875 C 8.714844 11.183594 8.746094 11.199219 9.042969 11.199219 C 9.214844 11.199219 9.464844 11.152344 9.621094 11.089844 C 9.949219 10.953125 9.964844 10.785156 9.714844 9.886719 C 9.496094 9.066406 9.511719 8.363281 9.761719 7.175781 C 9.976562 6.171875 10.023438 5.378906 9.886719 4.84375 C 9.792969 4.523438 9.808594 4.480469 10.039062 4.128906 C 10.742188 3.0625 12.832031 1.570312 14.328125 1.066406 C 14.984375 0.851562 16.386719 0.824219 17.320312 1.019531 C 18.648438 1.308594 20.082031 1.917969 20.769531 2.484375 C 21.09375 2.757812 22.359375 4.265625 22.359375 4.386719 C 22.359375 4.402344 22.234375 4.402344 22.0625 4.371094 C 21.421875 4.28125 20.800781 4.632812 20.800781 5.089844 C 20.800781 5.257812 20.816406 5.257812 20.96875 5.148438 C 21.265625 4.9375 21.921875 4.996094 22.453125 5.269531 C 23.261719 5.699219 23.558594 6.246094 23.683594 7.664062 C 23.824219 8.972656 23.730469 11.5625 23.542969 12.507812 C 23.214844 14.015625 22.714844 15.234375 21.921875 16.453125 C 21.28125 17.414062 20.984375 17.734375 20.410156 18.097656 C 19.269531 18.8125 18.101562 19.195312 17.011719 19.195312 C 16.246094 19.195312 15.761719 19.058594 14.84375 18.601562 C 14.015625 18.175781 13.019531 17.304688 12.238281 16.285156 C 11.957031 15.917969 11.726562 15.628906 11.695312 15.644531 C 11.617188 15.738281 11.894531 16.285156 12.300781 16.820312 C 12.832031 17.503906 13.9375 18.570312 14.40625 18.828125 C 14.578125 18.921875 14.71875 19.042969 14.71875 19.058594 C 14.71875 19.105469 14.53125 19.105469 14.3125 19.074219 C 13.8125 19.011719 13.332031 19.132812 13.128906 19.347656 C 13.050781 19.421875 12.941406 19.484375 12.894531 19.484375 C 12.847656 19.484375 12.566406 19.453125 12.269531 19.421875 Z M 19.660156 16.757812 C 19.816406 16.710938 20.019531 16.605469 20.113281 16.5 L 20.269531 16.347656 L 18.960938 16.300781 C 17.152344 16.238281 16.667969 16.085938 16.011719 15.386719 C 15.808594 15.171875 15.605469 15.007812 15.542969 15.019531 C 15.464844 15.035156 15.574219 15.234375 15.949219 15.691406 C 16.667969 16.542969 16.824219 16.683594 17.257812 16.804688 C 17.710938 16.925781 19.191406 16.894531 19.660156 16.757812 Z M 19.753906 15.113281 C 19.738281 14.945312 19.707031 14.761719 19.707031 14.703125 C 19.707031 14.59375 19.535156 14.5625 18.445312 14.535156 C 17.304688 14.503906 16.777344 14.425781 16.167969 14.199219 C 15.871094 14.105469 16.527344 14.703125 16.917969 14.898438 C 17.460938 15.171875 18.398438 15.355469 19.316406 15.386719 L 19.816406 15.386719 Z M 20.84375 15.203125 C 21.359375 15.050781 21.9375 14.609375 22.28125 14.09375 C 22.4375 13.863281 22.5625 13.679688 22.546875 13.664062 C 22.53125 13.648438 22.203125 13.789062 21.8125 13.984375 C 21.4375 14.167969 20.953125 14.367188 20.738281 14.410156 C 20.707031 14.421875 20.667969 14.433594 20.628906 14.441406 C 20.585938 14.453125 20.542969 14.460938 20.503906 14.472656 C 20.460938 14.472656 20.425781 14.476562 20.394531 14.488281 C 20.351562 14.5 20.308594 14.507812 20.269531 14.519531 C 20.207031 14.535156 20.160156 14.6875 20.160156 14.929688 C 20.160156 15.386719 20.191406 15.386719 20.859375 15.203125 Z M 19.785156 13.800781 C 20.410156 13.636719 20.753906 13.496094 21.515625 13.039062 C 21.953125 12.796875 22 12.75 22.125 12.339844 C 22.1875 12.097656 22.25 11.851562 22.25 11.808594 C 22.25 11.761719 21.953125 11.410156 21.578125 11.03125 C 20.457031 9.839844 19.753906 8.867188 19.316406 7.816406 C 19.269531 7.695312 19.253906 7.738281 19.222656 8.011719 C 19.175781 8.699219 19.675781 9.628906 20.800781 10.9375 C 21.59375 11.851562 21.703125 12.082031 21.546875 12.429688 C 21.46875 12.628906 21.3125 12.734375 20.675781 13.039062 C 19.738281 13.46875 19.394531 13.558594 18.867188 13.558594 C 18.398438 13.558594 18.148438 13.375 18.070312 12.917969 C 18.039062 12.691406 18.007812 12.660156 17.945312 12.765625 C 17.835938 12.964844 17.867188 13.453125 18.007812 13.710938 C 18.117188 13.941406 18.148438 13.941406 18.664062 13.941406 C 18.945312 13.941406 19.457031 13.878906 19.785156 13.800781 Z M 7.03125 11.988281 C 7.0625 11.335938 7.1875 11.046875 7.46875 11.046875 C 7.6875 11.046875 7.828125 11.199219 8.078125 11.65625 C 8.246094 12.003906 8.261719 12.003906 8.277344 11.777344 C 8.324219 11.441406 8.09375 10.9375 7.75 10.632812 C 7.5 10.40625 7.375 10.359375 7.09375 10.359375 C 6.8125 10.359375 6.71875 10.40625 6.546875 10.601562 C 6.300781 10.894531 6.300781 11.015625 6.53125 10.863281 C 6.75 10.710938 7.015625 10.785156 6.921875 10.96875 C 6.796875 11.199219 6.859375 12.570312 6.984375 12.570312 C 7 12.570312 7.015625 12.308594 7.03125 11.988281 Z M 16.933594 9.855469 C 17.167969 9.6875 17.242188 9.523438 17.199219 9.21875 C 17.183594 9.15625 17.042969 8.972656 16.886719 8.804688 C 16.714844 8.636719 16.449219 8.242188 16.292969 7.921875 L 16.011719 7.359375 L 16.042969 7.695312 C 16.074219 8.042969 16.261719 8.5 16.574219 8.972656 C 16.730469 9.21875 16.746094 9.246094 16.621094 9.355469 C 16.511719 9.460938 16.371094 9.476562 15.996094 9.476562 C 14.828125 9.414062 14.890625 9.414062 14.875 9.582031 C 14.796875 10.101562 16.339844 10.3125 16.933594 9.855469 Z M 22.761719 9.535156 C 22.933594 9.460938 23.136719 9.324219 23.214844 9.246094 C 23.339844 9.109375 23.324219 9.066406 22.886719 8.210938 C 22.46875 7.417969 22.421875 7.34375 22.421875 7.585938 C 22.421875 7.722656 22.515625 8.074219 22.625 8.347656 C 22.777344 8.714844 22.808594 8.867188 22.746094 8.925781 C 22.699219 8.972656 22.390625 9.035156 22.046875 9.078125 C 21.71875 9.109375 21.4375 9.140625 21.421875 9.140625 C 21.359375 9.15625 21.421875 9.371094 21.53125 9.507812 C 21.625 9.644531 21.71875 9.675781 22.046875 9.675781 C 22.28125 9.675781 22.59375 9.613281 22.761719 9.535156 Z M 13.050781 6.214844 C 13.519531 5.605469 13.984375 5.378906 14.71875 5.378906 C 15.234375 5.378906 15.25 5.378906 15.21875 5.195312 C 15.1875 4.890625 14.734375 4.632812 14.359375 4.691406 C 13.671875 4.785156 12.816406 5.453125 12.550781 6.09375 C 12.363281 6.519531 12.441406 7.144531 12.628906 6.808594 C 12.675781 6.75 12.863281 6.476562 13.050781 6.214844 Z M 13.050781 6.214844 "/>
<path style=" stroke:none;fill-rule:nonzero;fill:rgb(43.529412%,42.352942%,43.137255%);fill-opacity:1;" d="M 9.167969 10.542969 C 9.136719 10.511719 9.121094 10.40625 9.121094 10.3125 C 9.121094 9.828125 8.542969 9.1875 7.90625 8.972656 C 7.53125 8.867188 6.59375 8.925781 6.40625 9.09375 C 6.332031 9.171875 6.238281 9.1875 6.222656 9.171875 C 6.191406 9.140625 6.160156 8.667969 6.160156 8.121094 C 6.160156 6.824219 6.269531 6.445312 6.8125 5.894531 C 7.359375 5.332031 8.308594 4.859375 8.949219 4.84375 L 9.402344 4.84375 L 9.464844 5.363281 C 9.527344 5.773438 9.511719 6.140625 9.371094 7.113281 C 9.167969 8.636719 9.167969 8.789062 9.371094 9.644531 C 9.511719 10.238281 9.527344 10.359375 9.449219 10.464844 C 9.324219 10.585938 9.261719 10.617188 9.167969 10.542969 Z M 7.53125 4.328125 C 7.8125 3.871094 8.511719 3.183594 9.183594 2.757812 C 10.367188 1.980469 11.957031 1.402344 11.957031 1.753906 C 11.957031 1.8125 11.894531 1.890625 11.800781 1.933594 C 11.179688 2.253906 10.507812 2.863281 10.164062 3.441406 C 10.054688 3.640625 9.871094 3.898438 9.746094 4.039062 C 9.542969 4.25 9.480469 4.265625 9.027344 4.25 C 8.945312 4.25 8.859375 4.253906 8.777344 4.265625 C 8.707031 4.265625 8.628906 4.277344 8.542969 4.296875 C 8.460938 4.304688 8.382812 4.320312 8.308594 4.34375 C 8.226562 4.363281 8.148438 4.382812 8.078125 4.402344 C 7.421875 4.632812 7.375 4.617188 7.53125 4.328125 Z M 7.53125 4.328125 "/>
<path style=" stroke:none;fill-rule:nonzero;fill:rgb(29.019609%,45.09804%,55.29412%);fill-opacity:1;" d="M 6.160156 31.808594 C 6.050781 31.75 5.972656 31.671875 5.972656 31.640625 C 6.003906 31.503906 5.847656 29.386719 5.769531 28.671875 C 5.582031 27.195312 5.222656 25.367188 4.910156 24.328125 C 4.660156 23.539062 4.429688 22.867188 4.367188 22.699219 C 4.304688 22.59375 4.242188 22.441406 4.210938 22.347656 C 3.929688 21.679688 3.898438 21.585938 3.976562 21.570312 C 4.023438 21.558594 4.273438 21.375 4.523438 21.175781 C 5.519531 20.414062 7.0625 19.4375 7.953125 19.027344 C 8.230469 18.90625 8.542969 18.753906 8.652344 18.707031 C 8.808594 18.632812 8.871094 18.664062 9.324219 19.148438 C 9.589844 19.4375 9.824219 19.699219 9.824219 19.730469 C 9.824219 19.773438 9.871094 19.757812 7.203125 20.902344 C 6.191406 21.359375 5.332031 21.722656 5.316406 21.738281 C 5.300781 21.753906 5.378906 22.179688 5.503906 22.667969 C 5.941406 24.605469 6.285156 26.570312 6.46875 28.246094 C 6.609375 29.492188 6.5625 31.917969 6.390625 31.917969 C 6.375 31.917969 6.269531 31.871094 6.160156 31.808594 Z M 19.472656 29.433594 C 19.394531 29.355469 19.394531 28.898438 19.457031 28.578125 C 19.519531 28.304688 19.613281 28.261719 20.191406 28.230469 C 20.566406 28.199219 20.582031 28.199219 20.660156 28.425781 C 20.707031 28.550781 20.738281 28.777344 20.738281 28.914062 C 20.738281 29.144531 20.707031 29.1875 20.457031 29.296875 C 20.113281 29.433594 19.550781 29.507812 19.472656 29.433594 Z M 9.824219 29.175781 C 9.277344 29.082031 8.996094 28.992188 8.746094 28.824219 C 8.519531 28.679688 8.441406 28.589844 8.511719 28.550781 C 8.558594 28.519531 8.636719 28.519531 8.683594 28.550781 C 8.730469 28.578125 9.136719 28.59375 9.605469 28.59375 C 10.101562 28.59375 10.460938 28.625 10.523438 28.6875 C 10.570312 28.730469 10.601562 28.882812 10.585938 29.035156 L 10.554688 29.296875 Z M 10.882812 27.757812 C 10.820312 27.589844 10.820312 25.714844 10.882812 24.847656 L 10.945312 24.148438 L 11.242188 24.511719 L 11.539062 24.894531 L 11.539062 26.339844 C 11.539062 27.148438 11.523438 27.804688 11.492188 27.804688 C 11.445312 27.804688 11.320312 27.816406 11.179688 27.832031 C 11.007812 27.863281 10.914062 27.832031 10.882812 27.757812 Z M 17.789062 26.613281 C 16.949219 26.292969 15.125 25.441406 14.921875 25.273438 C 14.78125 25.152344 15.125 24.542969 15.605469 24.101562 C 16.152344 23.597656 16.746094 23.203125 16.886719 23.246094 C 17.074219 23.324219 17.773438 24.527344 18.289062 25.671875 C 18.789062 26.796875 18.851562 26.964844 18.742188 26.964844 C 18.710938 26.964844 18.289062 26.796875 17.789062 26.613281 Z M 19.769531 26.765625 C 19.972656 26.171875 20.175781 24.9375 20.253906 23.703125 C 20.300781 22.882812 20.316406 22.835938 20.488281 22.761719 C 20.9375 22.609375 21.515625 22.777344 21.90625 23.171875 L 22.078125 23.355469 L 21.890625 23.6875 C 20.9375 25.367188 19.582031 27.332031 19.769531 26.765625 Z M 23.214844 20.140625 C 22.59375 19.683594 21.953125 19.179688 21.8125 19.042969 C 21.65625 18.90625 21.4375 18.738281 21.296875 18.691406 L 21.046875 18.617188 L 21.46875 18.265625 L 21.890625 17.902344 L 22.625 18.601562 C 23.027344 18.996094 23.589844 19.5 23.871094 19.742188 C 24.417969 20.199219 24.570312 20.492188 24.433594 20.824219 C 24.371094 20.960938 24.261719 20.902344 23.214844 20.140625 Z M 23.214844 20.140625 "/>
<path style=" stroke:none;fill-rule:evenodd;fill:rgb(51.372552%,70.19608%,78.039217%);fill-opacity:1;" d="M 14.8125 38.054688 C 13.796875 37.902344 12.972656 37.703125 12.878906 37.613281 C 12.769531 37.476562 12.363281 36.105469 12.003906 34.65625 C 11.507812 32.679688 10.882812 28.777344 11.039062 28.640625 C 11.132812 28.550781 13.082031 28.273438 14.34375 28.167969 C 15.855469 28.046875 18.710938 28.152344 18.914062 28.351562 C 18.929688 28.367188 18.992188 29.28125 19.066406 30.390625 C 19.128906 31.503906 19.191406 32.539062 19.222656 32.707031 C 19.238281 32.875 19.300781 33.835938 19.332031 34.824219 C 19.378906 35.816406 19.457031 36.867188 19.503906 37.171875 C 19.566406 37.613281 19.566406 37.734375 19.488281 37.78125 C 19.023438 38.070312 16.042969 38.238281 14.8125 38.054688 Z M 19.847656 36.257812 C 19.832031 36.226562 19.785156 35.558594 19.753906 34.765625 L 19.691406 33.316406 L 20.097656 33.226562 C 20.566406 33.121094 20.660156 33.148438 20.660156 33.394531 C 20.660156 33.484375 20.722656 33.882812 20.816406 34.277344 C 20.90625 34.671875 21 35.222656 21.015625 35.511719 C 21.078125 36.015625 21.078125 36.015625 20.84375 36.105469 C 20.550781 36.226562 19.878906 36.320312 19.847656 36.257812 Z M 24.992188 32.007812 C 24.679688 31.945312 24.679688 31.929688 24.867188 31.855469 C 24.976562 31.808594 25.195312 31.765625 25.335938 31.734375 C 26.179688 31.566406 26.363281 31.519531 26.273438 31.429688 C 26.210938 31.382812 25.773438 31.351562 24.835938 31.367188 L 23.496094 31.382812 L 23.371094 30.179688 C 23.292969 29.523438 23.183594 28.777344 23.121094 28.519531 L 23.011719 28.0625 L 23.214844 27.894531 C 23.339844 27.800781 23.683594 27.636719 23.980469 27.527344 C 24.277344 27.421875 24.820312 27.207031 25.179688 27.054688 C 25.976562 26.734375 26.300781 26.722656 26.660156 26.964844 C 27.003906 27.207031 27.222656 27.710938 27.519531 28.867188 C 27.769531 29.890625 27.816406 30.390625 27.660156 30.878906 C 27.535156 31.304688 27.019531 31.808594 26.628906 31.902344 C 26.179688 32.023438 25.351562 32.066406 24.992188 32.007812 Z M 26.285156 30.085938 C 25.867188 29.921875 25.085938 29.859375 24.664062 29.9375 C 23.933594 30.085938 24.183594 30.164062 25.351562 30.164062 C 26.117188 30.164062 26.410156 30.132812 26.285156 30.085938 Z M 26.148438 29.097656 C 26.285156 29.050781 26.242188 29.023438 25.929688 28.976562 C 25.132812 28.855469 24.246094 28.960938 24.246094 29.1875 C 24.246094 29.28125 25.867188 29.203125 26.148438 29.097656 Z M 25.070312 28.257812 C 25.476562 28.03125 25.804688 27.863281 25.789062 27.847656 C 25.742188 27.789062 24.992188 27.96875 24.648438 28.109375 C 24.433594 28.199219 24.167969 28.382812 24.042969 28.503906 L 23.824219 28.746094 L 24.089844 28.6875 C 24.230469 28.671875 24.679688 28.472656 25.070312 28.257812 Z M 21.984375 31.6875 C 21.984375 31.597656 21.546875 28.671875 21.484375 28.320312 C 21.453125 28.109375 21.453125 28.109375 21.875 28.109375 L 22.3125 28.109375 L 22.46875 28.441406 C 22.699219 28.960938 22.839844 29.707031 22.902344 30.667969 L 22.949219 31.519531 L 22.578125 31.640625 C 22.140625 31.777344 21.984375 31.792969 21.984375 31.6875 Z M 18.523438 26.859375 C 17.429688 26.523438 14.890625 25.351562 14.890625 25.199219 C 14.890625 24.800781 15.574219 24.007812 16.339844 23.523438 L 16.855469 23.203125 L 17.042969 23.429688 C 17.382812 23.84375 18.882812 26.84375 18.773438 26.917969 C 18.757812 26.933594 18.648438 26.902344 18.523438 26.859375 Z M 19.832031 26.691406 C 19.972656 26.308594 20.253906 24.3125 20.269531 23.324219 L 20.285156 22.851562 L 20.566406 22.777344 C 20.96875 22.667969 21.40625 22.789062 21.71875 23.09375 C 21.859375 23.234375 21.984375 23.371094 21.984375 23.398438 C 21.984375 23.507812 20.9375 25.226562 20.363281 26.066406 C 19.894531 26.765625 19.722656 26.964844 19.832031 26.691406 Z M 19.222656 26.371094 C 19.128906 26.171875 18.835938 25.53125 18.554688 24.9375 C 18.289062 24.34375 17.914062 23.628906 17.726562 23.339844 C 17.414062 22.867188 17.382812 22.789062 17.476562 22.636719 C 17.539062 22.515625 17.625 22.472656 17.726562 22.5 C 17.804688 22.53125 18.054688 22.472656 18.257812 22.394531 L 18.648438 22.242188 L 19.128906 22.5 C 19.410156 22.652344 19.675781 22.777344 19.753906 22.777344 C 19.910156 22.777344 19.910156 22.714844 19.800781 24.269531 C 19.738281 25.367188 19.550781 26.613281 19.457031 26.722656 C 19.441406 26.738281 19.332031 26.585938 19.222656 26.371094 Z M 19.410156 24.863281 C 19.550781 24.695312 19.410156 24.496094 19.175781 24.496094 C 18.929688 24.496094 18.804688 24.710938 18.929688 24.863281 C 18.992188 24.921875 19.097656 24.984375 19.175781 24.984375 C 19.253906 24.984375 19.347656 24.9375 19.410156 24.863281 Z M 19.128906 23.523438 C 19.222656 23.355469 19.113281 23.125 18.929688 23.09375 C 18.804688 23.066406 18.554688 23.261719 18.554688 23.382812 C 18.554688 23.492188 18.804688 23.703125 18.929688 23.675781 C 18.992188 23.660156 19.082031 23.582031 19.128906 23.523438 Z M 12.050781 20.460938 C 11.539062 20.292969 10.929688 19.972656 10.835938 19.804688 C 10.710938 19.5625 10.804688 19.5 11.101562 19.605469 C 11.242188 19.667969 11.679688 19.742188 12.082031 19.773438 C 12.472656 19.804688 12.800781 19.851562 12.832031 19.878906 C 12.832031 19.894531 12.816406 20.0625 12.769531 20.246094 C 12.675781 20.597656 12.597656 20.628906 12.050781 20.460938 Z M 17.304688 20.199219 C 17.042969 20.125 16.527344 19.851562 16.527344 19.804688 C 16.527344 19.773438 16.714844 19.789062 16.933594 19.835938 C 17.257812 19.894531 17.476562 19.882812 18.289062 19.714844 C 18.820312 19.605469 19.253906 19.53125 19.253906 19.546875 C 19.253906 19.546875 19.050781 19.714844 18.804688 19.910156 C 18.351562 20.230469 18.304688 20.261719 17.882812 20.246094 C 17.632812 20.246094 17.367188 20.230469 17.304688 20.199219 Z M 12.113281 19.363281 C 11.726562 19.332031 10.804688 19.058594 10.429688 18.890625 C 10.039062 18.691406 9.667969 18.25 9.308594 17.550781 C 8.949219 16.878906 8.464844 15.539062 8.371094 14.992188 C 8.339844 14.671875 8.339844 14.625 8.652344 14.289062 C 8.980469 13.910156 9.011719 13.816406 8.886719 13.636719 C 8.824219 13.527344 8.761719 13.542969 8.527344 13.679688 C 7.8125 14.09375 7.75 14.105469 7.375 14.0625 C 6.8125 13.96875 6.421875 13.621094 6.019531 12.859375 C 5.707031 12.277344 5.660156 12.113281 5.628906 11.59375 C 5.597656 11.074219 5.628906 10.9375 5.769531 10.648438 C 6.160156 9.886719 6.671875 9.613281 7.59375 9.660156 C 7.921875 9.675781 8.355469 10.144531 8.542969 10.695312 C 8.621094 10.953125 8.714844 11.183594 8.746094 11.210938 C 8.839844 11.335938 9.605469 11.183594 9.808594 11 L 10.007812 10.832031 L 9.808594 9.964844 C 9.542969 8.867188 9.542969 8.5 9.824219 7.128906 C 10.085938 5.878906 10.101562 5.546875 9.949219 4.953125 L 9.839844 4.523438 L 10.085938 4.113281 C 10.742188 3.046875 13.207031 1.339844 14.578125 1.035156 C 16.433594 0.59375 19.582031 1.402344 20.921875 2.652344 C 21.28125 3 22.296875 4.234375 22.296875 4.355469 C 22.296875 4.371094 22.078125 4.371094 21.796875 4.371094 C 21.375 4.371094 21.265625 4.402344 21.078125 4.570312 C 20.859375 4.785156 20.707031 5.074219 20.769531 5.179688 C 20.800781 5.210938 20.9375 5.195312 21.078125 5.132812 C 21.609375 4.921875 22.28125 5.074219 22.824219 5.546875 C 23.496094 6.09375 23.667969 6.765625 23.746094 8.988281 C 23.839844 11.65625 23.449219 13.605469 22.484375 15.492188 C 22.265625 15.90625 21.453125 17.109375 21.140625 17.472656 C 20.503906 18.234375 18.664062 19.058594 17.351562 19.164062 C 16.621094 19.226562 16.027344 19.105469 15.15625 18.707031 C 13.953125 18.144531 13.160156 17.457031 12.128906 16.074219 C 11.863281 15.722656 11.648438 15.476562 11.632812 15.523438 C 11.585938 15.660156 11.972656 16.453125 12.300781 16.863281 C 12.769531 17.472656 13.875 18.539062 14.28125 18.800781 L 14.65625 19.027344 L 14.03125 19.058594 C 13.519531 19.074219 13.378906 19.121094 13.238281 19.257812 C 13.035156 19.425781 12.894531 19.4375 12.113281 19.378906 Z M 19.613281 16.773438 C 19.957031 16.683594 20.347656 16.40625 20.347656 16.285156 C 20.347656 16.253906 19.832031 16.238281 19.191406 16.238281 C 17.367188 16.238281 16.542969 15.996094 15.996094 15.296875 C 15.839844 15.097656 15.683594 14.945312 15.621094 14.929688 C 15.40625 14.867188 15.449219 15.082031 15.699219 15.386719 C 15.855469 15.570312 16.121094 15.890625 16.308594 16.117188 C 16.683594 16.574219 17.027344 16.789062 17.585938 16.894531 C 18.070312 16.972656 19.144531 16.910156 19.613281 16.773438 Z M 19.785156 14.976562 L 19.753906 14.5625 L 18.664062 14.519531 C 17.492188 14.472656 16.730469 14.367188 16.308594 14.183594 C 16.152344 14.121094 16.011719 14.078125 16.011719 14.105469 C 15.996094 14.105469 16.089844 14.257812 16.230469 14.410156 C 16.699219 14.945312 17.898438 15.355469 19.160156 15.371094 L 19.816406 15.371094 Z M 21.3125 15.035156 C 21.5 14.929688 21.78125 14.703125 21.9375 14.550781 C 22.265625 14.214844 22.683594 13.605469 22.640625 13.558594 C 22.625 13.542969 22.359375 13.664062 22.046875 13.816406 C 21.4375 14.136719 20.613281 14.457031 20.332031 14.457031 C 20.191406 14.457031 20.175781 14.503906 20.175781 14.882812 L 20.175781 15.3125 L 20.582031 15.265625 C 20.800781 15.234375 21.125 15.128906 21.3125 15.035156 Z M 19.863281 13.789062 C 20.394531 13.664062 20.96875 13.40625 21.59375 13.039062 C 22.015625 12.796875 22.0625 12.734375 22.171875 12.386719 C 22.359375 11.777344 22.328125 11.699219 21.828125 11.199219 C 20.769531 10.144531 19.597656 8.53125 19.441406 7.890625 C 19.425781 7.769531 19.347656 7.679688 19.285156 7.679688 C 18.992188 7.679688 19.300781 8.820312 19.785156 9.613281 C 19.941406 9.839844 20.316406 10.34375 20.613281 10.695312 C 21.65625 11.945312 21.703125 12.035156 21.5 12.492188 C 21.328125 12.875 19.253906 13.621094 18.679688 13.511719 C 18.335938 13.453125 18.226562 13.316406 18.164062 12.949219 C 18.101562 12.613281 17.992188 12.582031 17.882812 12.875 C 17.789062 13.148438 17.898438 13.605469 18.117188 13.816406 C 18.304688 14 18.351562 14.015625 18.882812 13.953125 C 19.191406 13.925781 19.628906 13.847656 19.863281 13.789062 Z M 7.265625 11.199219 C 7.359375 11.105469 7.46875 11.03125 7.515625 11.03125 C 7.640625 11.03125 7.890625 11.320312 8.109375 11.714844 L 8.292969 12.066406 L 8.324219 11.699219 C 8.355469 11.273438 8.15625 10.847656 7.78125 10.542969 C 7.3125 10.160156 6.78125 10.207031 6.484375 10.648438 C 6.253906 10.96875 6.253906 11.074219 6.484375 10.921875 C 6.5625 10.863281 6.71875 10.800781 6.796875 10.800781 C 6.921875 10.800781 6.921875 10.847656 6.875 11.058594 C 6.78125 11.410156 6.8125 12.1875 6.9375 12.445312 C 7.03125 12.660156 7.046875 12.644531 7.09375 12.003906 C 7.125 11.515625 7.171875 11.304688 7.265625 11.199219 Z M 17.042969 9.8125 C 17.398438 9.460938 17.382812 9.246094 16.949219 8.761719 C 16.746094 8.546875 16.464844 8.105469 16.292969 7.785156 C 16.042969 7.25 16.011719 7.207031 15.980469 7.402344 C 15.949219 7.632812 16.230469 8.46875 16.402344 8.667969 C 16.449219 8.730469 16.558594 8.898438 16.621094 9.019531 C 16.746094 9.261719 16.746094 9.261719 16.511719 9.355469 C 16.355469 9.429688 16.105469 9.429688 15.683594 9.382812 C 15.34375 9.355469 15.046875 9.324219 15 9.324219 C 14.859375 9.324219 14.859375 9.675781 15.015625 9.828125 C 15.21875 10.039062 15.558594 10.117188 16.183594 10.085938 C 16.714844 10.054688 16.792969 10.039062 17.042969 9.8125 Z M 22.964844 9.476562 C 23.152344 9.355469 23.339844 9.21875 23.355469 9.171875 C 23.386719 9.066406 22.46875 7.144531 22.390625 7.144531 C 22.28125 7.144531 22.453125 8 22.640625 8.394531 C 22.886719 8.925781 22.871094 8.941406 22.140625 9.019531 C 21.859375 9.050781 21.578125 9.078125 21.53125 9.09375 C 21.359375 9.140625 21.421875 9.414062 21.65625 9.582031 C 21.828125 9.71875 21.921875 9.75 22.25 9.703125 C 22.453125 9.6875 22.777344 9.582031 22.964844 9.476562 Z M 12.847656 6.582031 C 13.128906 6.125 13.609375 5.667969 14 5.5 C 14.140625 5.4375 14.484375 5.394531 14.765625 5.394531 C 15.046875 5.394531 15.296875 5.347656 15.3125 5.316406 C 15.464844 5.074219 14.953125 4.632812 14.484375 4.632812 C 14.125 4.632812 13.488281 4.953125 13.082031 5.332031 C 12.753906 5.652344 12.394531 6.292969 12.394531 6.550781 C 12.394531 6.6875 12.519531 6.992188 12.582031 6.992188 C 12.597656 6.992188 12.722656 6.808594 12.847656 6.582031 Z M 12.847656 6.582031 "/>
<path style=" stroke:none;fill-rule:nonzero;fill:rgb(51.372552%,70.19608%,78.039217%);fill-opacity:1;" d="M 6.191406 8.714844 C 6.128906 8.195312 6.191406 7.070312 6.316406 6.6875 C 6.578125 5.835938 7.75 5.027344 9.011719 4.828125 C 9.292969 4.800781 9.339844 4.800781 9.371094 4.964844 C 9.449219 5.226562 9.449219 5.257812 9.246094 5.257812 C 8.949219 5.257812 8.09375 5.5625 7.703125 5.804688 C 6.765625 6.382812 6.207031 7.570312 6.359375 8.683594 C 6.390625 8.914062 6.375 9.066406 6.332031 9.09375 C 6.269531 9.125 6.222656 8.988281 6.191406 8.714844 Z M 7.484375 4.496094 C 7.484375 4.464844 7.640625 4.21875 7.84375 3.960938 C 8.261719 3.414062 9.136719 2.757812 10.039062 2.300781 C 10.742188 1.933594 11.757812 1.570312 11.863281 1.644531 C 12.003906 1.722656 11.925781 1.875 11.710938 1.980469 C 10.039062 2.773438 9.480469 3.136719 8.746094 3.886719 C 8.402344 4.234375 8.214844 4.355469 7.90625 4.449219 C 7.671875 4.507812 7.484375 4.523438 7.484375 4.496094 Z M 7.484375 4.496094 "/>
<path style=" stroke:none;fill-rule:evenodd;fill:rgb(94.509804%,84.705883%,72.549021%);fill-opacity:1;" d="M 17.304688 20.199219 C 17.027344 20.109375 16.621094 19.894531 16.558594 19.804688 C 16.539062 19.753906 16.589844 19.753906 16.714844 19.804688 C 17.042969 19.925781 17.492188 19.894531 18.429688 19.699219 C 18.882812 19.605469 19.253906 19.53125 19.253906 19.546875 C 19.253906 19.546875 19.050781 19.714844 18.804688 19.910156 C 18.382812 20.230469 18.304688 20.261719 17.914062 20.246094 C 17.695312 20.246094 17.414062 20.230469 17.304688 20.199219 Z M 12.035156 19.347656 C 11.398438 19.273438 10.585938 18.996094 10.226562 18.738281 C 9.808594 18.449219 9.386719 17.808594 8.980469 16.863281 C 8.683594 16.148438 8.339844 15.050781 8.339844 14.777344 C 8.339844 14.703125 8.480469 14.472656 8.667969 14.273438 C 8.996094 13.910156 9.042969 13.621094 8.792969 13.574219 C 8.714844 13.558594 8.464844 13.679688 8.230469 13.832031 C 7.859375 14.078125 7.765625 14.105469 7.484375 14.078125 C 6.953125 14 6.46875 13.664062 6.144531 13.101562 C 5.347656 11.777344 5.457031 10.558594 6.421875 9.933594 C 6.75 9.703125 6.875 9.671875 7.296875 9.671875 C 7.671875 9.671875 7.828125 9.71875 8 9.839844 C 8.214844 10.007812 8.652344 10.832031 8.652344 11.074219 C 8.652344 11.152344 8.714844 11.226562 8.777344 11.242188 C 8.996094 11.335938 9.589844 11.195312 9.808594 11.015625 L 10.007812 10.847656 L 9.808594 9.964844 C 9.542969 8.835938 9.542969 8.515625 9.824219 7.175781 C 10.085938 5.941406 10.117188 5.453125 9.949219 4.90625 C 9.839844 4.554688 9.839844 4.523438 10.023438 4.21875 C 10.492188 3.425781 11.617188 2.484375 13.019531 1.707031 C 14.0625 1.140625 14.53125 0.988281 15.511719 0.945312 C 16.886719 0.867188 18.226562 1.171875 19.769531 1.902344 C 20.457031 2.222656 20.644531 2.359375 21.09375 2.847656 C 21.390625 3.152344 21.78125 3.625 21.96875 3.882812 L 22.3125 4.339844 L 21.859375 4.339844 C 21.359375 4.339844 21.046875 4.492188 20.859375 4.796875 C 20.691406 5.089844 20.691406 5.285156 20.875 5.226562 C 21.5 4.964844 21.984375 5.011719 22.625 5.40625 C 23.386719 5.878906 23.574219 6.429688 23.714844 8.453125 C 23.871094 11.046875 23.511719 13.269531 22.640625 15.144531 C 22.296875 15.890625 21.359375 17.261719 20.953125 17.640625 C 20.363281 18.207031 19.269531 18.738281 18.242188 19.011719 C 17.539062 19.195312 16.449219 19.195312 15.902344 19.011719 C 14.546875 18.570312 13.441406 17.75 12.363281 16.363281 C 11.972656 15.875 11.648438 15.476562 11.632812 15.492188 C 11.554688 15.570312 11.863281 16.285156 12.097656 16.621094 C 12.535156 17.246094 13.6875 18.402344 14.203125 18.738281 L 14.6875 19.058594 L 14.265625 19.027344 C 13.765625 18.980469 13.441406 19.058594 13.207031 19.273438 C 13.035156 19.4375 12.910156 19.4375 12.035156 19.347656 Z M 19.394531 16.863281 C 19.878906 16.757812 20.347656 16.484375 20.347656 16.285156 C 20.347656 16.253906 19.832031 16.226562 19.191406 16.226562 C 17.882812 16.238281 17.492188 16.195312 16.933594 15.980469 C 16.449219 15.8125 16.136719 15.570312 15.902344 15.203125 C 15.792969 15.050781 15.667969 14.929688 15.574219 14.929688 C 15.3125 14.929688 15.359375 15.007812 16.371094 16.253906 C 16.511719 16.40625 16.699219 16.589844 16.808594 16.652344 C 17.304688 16.988281 18.398438 17.0625 19.394531 16.863281 Z M 19.800781 15.035156 C 19.800781 14.777344 19.753906 14.609375 19.707031 14.59375 C 19.660156 14.578125 19.144531 14.546875 18.585938 14.519531 C 17.320312 14.457031 16.667969 14.351562 16.105469 14.136719 C 15.980469 14.078125 15.980469 14.09375 16.058594 14.230469 C 16.417969 14.914062 17.867188 15.417969 19.472656 15.433594 L 19.800781 15.433594 Z M 21.171875 15.128906 C 21.390625 15.035156 21.71875 14.824219 21.90625 14.640625 C 22.203125 14.351562 22.699219 13.632812 22.65625 13.574219 C 22.640625 13.574219 22.28125 13.726562 21.84375 13.9375 C 21.390625 14.136719 20.84375 14.351562 20.613281 14.398438 L 20.191406 14.488281 L 20.191406 15.402344 L 20.488281 15.355469 C 20.644531 15.324219 20.953125 15.21875 21.171875 15.128906 Z M 19.972656 13.832031 C 20.441406 13.679688 20.953125 13.453125 21.609375 13.070312 C 21.984375 12.84375 22.078125 12.75 22.171875 12.445312 C 22.375 11.898438 22.34375 11.625 22.0625 11.425781 C 21.359375 10.878906 19.769531 8.789062 19.535156 8.089844 C 19.457031 7.84375 19.363281 7.707031 19.285156 7.707031 C 19.175781 7.707031 19.160156 7.769531 19.207031 8.148438 C 19.285156 8.789062 19.832031 9.8125 20.550781 10.632812 C 21.46875 11.699219 21.59375 11.898438 21.59375 12.125 C 21.59375 12.554688 21.46875 12.675781 20.597656 13.054688 C 19.691406 13.4375 19.238281 13.542969 18.757812 13.511719 C 18.367188 13.480469 18.257812 13.375 18.195312 13.011719 C 18.132812 12.664062 18.050781 12.59375 17.945312 12.796875 C 17.773438 13.101562 17.851562 13.558594 18.164062 13.894531 C 18.273438 14.015625 18.367188 14.03125 18.929688 13.984375 C 19.269531 13.953125 19.753906 13.878906 19.972656 13.832031 Z M 7.3125 11.195312 C 7.46875 11.046875 7.484375 11.046875 7.671875 11.167969 C 7.78125 11.226562 7.96875 11.472656 8.09375 11.683594 L 8.308594 12.082031 L 8.324219 11.730469 C 8.386719 10.816406 7.375 9.976562 6.71875 10.421875 C 6.53125 10.542969 6.285156 10.96875 6.34375 11.03125 C 6.375 11.058594 6.4375 11.015625 6.515625 10.953125 C 6.578125 10.878906 6.703125 10.832031 6.796875 10.832031 C 6.9375 10.832031 6.953125 10.863281 6.890625 11.074219 C 6.796875 11.457031 6.828125 12.292969 6.953125 12.507812 C 7.046875 12.675781 7.0625 12.644531 7.109375 12.019531 C 7.140625 11.488281 7.1875 11.320312 7.3125 11.195312 Z M 16.808594 10.023438 C 17.414062 9.734375 17.460938 9.308594 16.949219 8.773438 C 16.777344 8.578125 16.480469 8.148438 16.324219 7.816406 C 16.058594 7.265625 16.011719 7.234375 15.996094 7.417969 C 15.949219 7.707031 16.167969 8.332031 16.449219 8.773438 C 16.574219 8.972656 16.683594 9.15625 16.683594 9.214844 C 16.683594 9.460938 16.011719 9.507812 15.1875 9.324219 C 14.9375 9.277344 14.84375 9.414062 14.921875 9.703125 C 15.015625 10.085938 16.214844 10.28125 16.808594 10.007812 Z M 22.933594 9.535156 C 23.464844 9.246094 23.464844 9.230469 22.917969 8.148438 C 22.65625 7.617188 22.421875 7.191406 22.40625 7.191406 C 22.296875 7.191406 22.46875 8.042969 22.65625 8.441406 C 22.871094 8.925781 22.839844 9.003906 22.421875 9.019531 C 22.109375 9.019531 21.65625 9.078125 21.546875 9.125 C 21.375 9.1875 21.4375 9.460938 21.65625 9.628906 C 21.828125 9.765625 21.9375 9.78125 22.25 9.75 C 22.453125 9.71875 22.761719 9.628906 22.933594 9.535156 Z M 12.816406 6.703125 C 12.910156 6.535156 13.160156 6.214844 13.363281 6.003906 C 13.828125 5.558594 14.28125 5.394531 14.890625 5.453125 C 15.21875 5.484375 15.296875 5.46875 15.328125 5.347656 C 15.417969 5.027344 14.984375 4.675781 14.484375 4.675781 C 13.84375 4.675781 12.925781 5.347656 12.582031 6.0625 C 12.378906 6.503906 12.363281 6.671875 12.472656 6.886719 C 12.597656 7.097656 12.660156 7.070312 12.816406 6.703125 Z M 12.816406 6.703125 "/>
<path style=" stroke:none;fill-rule:evenodd;fill:rgb(96.470588%,96.078432%,96.078432%);fill-opacity:1;" d="M 15.359375 38.117188 C 15.25 38.101562 14.90625 38.054688 14.578125 37.996094 C 13.859375 37.902344 13.003906 37.703125 12.910156 37.613281 C 12.738281 37.476562 12.050781 34.976562 11.695312 33.273438 C 11.445312 32.039062 11.085938 29.675781 11.054688 29.019531 L 11.023438 28.609375 L 11.382812 28.550781 C 13.410156 28.199219 16.402344 28.015625 17.898438 28.183594 C 18.367188 28.230469 18.804688 28.320312 18.835938 28.367188 C 18.929688 28.457031 19.066406 30.253906 19.253906 33.820312 C 19.347656 35.527344 19.472656 37.246094 19.535156 37.566406 C 19.582031 37.75 19.566406 37.765625 19.082031 37.886719 C 18.148438 38.117188 16.199219 38.238281 15.359375 38.117188 Z M 19.769531 35.296875 C 19.753906 34.75 19.722656 34.09375 19.722656 33.804688 L 19.722656 33.316406 L 20.144531 33.226562 C 20.363281 33.179688 20.550781 33.164062 20.582031 33.164062 C 20.628906 33.226562 21.046875 35.464844 21.046875 35.738281 C 21.046875 36.074219 20.90625 36.167969 20.222656 36.226562 L 19.832031 36.273438 Z M 25.070312 32.007812 C 24.914062 32.007812 24.773438 31.945312 24.773438 31.914062 C 24.773438 31.871094 24.789062 31.839844 24.804688 31.839844 C 24.835938 31.839844 25.898438 31.640625 26.164062 31.566406 C 26.316406 31.535156 26.332031 31.503906 26.257812 31.445312 C 26.195312 31.367188 25.789062 31.351562 24.835938 31.367188 L 23.480469 31.382812 L 23.355469 30.148438 C 23.277344 29.464844 23.167969 28.714844 23.105469 28.488281 L 22.980469 28.078125 L 23.199219 27.910156 C 23.308594 27.804688 23.824219 27.589844 24.308594 27.421875 C 24.804688 27.238281 25.382812 27.011719 25.585938 26.917969 C 26.164062 26.628906 26.738281 26.84375 27.035156 27.421875 C 27.253906 27.832031 27.738281 29.722656 27.738281 30.148438 C 27.738281 31 27.253906 31.75 26.613281 31.902344 C 26.226562 32.007812 25.445312 32.054688 25.070312 32.007812 Z M 26.472656 30.117188 C 26.457031 30.101562 26.164062 30.042969 25.820312 29.964844 C 25.085938 29.828125 24.230469 29.890625 24.230469 30.085938 C 24.230469 30.132812 24.742188 30.164062 25.382812 30.164062 C 26.007812 30.164062 26.503906 30.148438 26.472656 30.117188 Z M 26.179688 29.097656 C 26.316406 29.023438 25.695312 28.914062 25.132812 28.898438 C 24.726562 28.898438 24.230469 29.050781 24.230469 29.203125 C 24.230469 29.28125 25.992188 29.203125 26.179688 29.097656 Z M 24.632812 28.488281 C 24.695312 28.449219 24.765625 28.414062 24.835938 28.382812 C 24.898438 28.339844 24.96875 28.304688 25.039062 28.273438 C 25.113281 28.234375 25.179688 28.199219 25.242188 28.167969 C 25.316406 28.128906 25.386719 28.09375 25.460938 28.0625 C 25.695312 27.957031 25.867188 27.847656 25.851562 27.832031 C 25.835938 27.804688 25.554688 27.847656 25.226562 27.910156 C 24.679688 28.015625 23.839844 28.457031 23.839844 28.640625 C 23.839844 28.777344 24.214844 28.71875 24.632812 28.488281 Z M 21.9375 31.335938 C 21.90625 31.09375 21.796875 30.347656 21.6875 29.707031 C 21.578125 29.050781 21.5 28.441406 21.5 28.320312 C 21.5 28.121094 21.515625 28.109375 21.90625 28.109375 C 22.296875 28.109375 22.296875 28.109375 22.453125 28.441406 C 22.667969 28.960938 22.824219 29.691406 22.871094 30.667969 L 22.933594 31.503906 L 22.515625 31.640625 C 22.296875 31.703125 22.078125 31.765625 22.046875 31.765625 C 22.015625 31.765625 21.96875 31.566406 21.9375 31.320312 Z M 19.144531 26.21875 C 18.992188 25.898438 18.695312 25.242188 18.460938 24.757812 C 18.242188 24.269531 17.898438 23.644531 17.710938 23.355469 C 17.523438 23.078125 17.367188 22.835938 17.367188 22.804688 C 17.367188 22.699219 17.632812 22.5 17.726562 22.53125 C 17.773438 22.5625 17.945312 22.515625 18.117188 22.457031 C 18.523438 22.289062 18.757812 22.304688 19.160156 22.5625 C 19.363281 22.683594 19.597656 22.789062 19.691406 22.789062 C 19.863281 22.789062 19.863281 22.804688 19.832031 23.660156 C 19.769531 24.847656 19.628906 25.988281 19.519531 26.417969 L 19.410156 26.78125 Z M 19.410156 24.878906 C 19.535156 24.726562 19.410156 24.511719 19.160156 24.511719 C 18.914062 24.511719 18.789062 24.726562 18.914062 24.878906 C 18.976562 24.953125 19.082031 25 19.160156 25 C 19.238281 25 19.347656 24.953125 19.410156 24.878906 Z M 19.113281 23.535156 C 19.222656 23.382812 19.097656 23.15625 18.914062 23.109375 C 18.789062 23.09375 18.539062 23.292969 18.539062 23.398438 C 18.539062 23.523438 18.789062 23.71875 18.914062 23.6875 C 18.976562 23.675781 19.066406 23.613281 19.113281 23.535156 Z M 11.925781 20.429688 C 11.132812 20.15625 10.648438 19.804688 10.789062 19.589844 C 10.804688 19.5625 10.945312 19.574219 11.085938 19.636719 C 11.210938 19.683594 11.664062 19.757812 12.050781 19.804688 C 12.457031 19.851562 12.800781 19.894531 12.816406 19.910156 C 12.816406 19.925781 12.800781 20.09375 12.753906 20.261719 C 12.660156 20.640625 12.566406 20.65625 11.925781 20.429688 Z M 10.382812 18.828125 C 10.023438 18.632812 10.054688 18.570312 10.414062 18.769531 C 10.773438 18.980469 10.789062 18.980469 10.695312 18.980469 C 10.664062 18.980469 10.507812 18.921875 10.382812 18.828125 Z M 9.292969 17.535156 C 9.183594 17.320312 9.105469 17.125 9.121094 17.109375 C 9.136719 17.109375 9.246094 17.277344 9.371094 17.503906 C 9.480469 17.734375 9.558594 17.914062 9.542969 17.914062 C 9.511719 17.914062 9.417969 17.746094 9.292969 17.535156 Z M 8.402344 14.640625 C 8.402344 14.578125 8.511719 14.457031 8.621094 14.382812 L 8.839844 14.242188 L 8.636719 14.457031 C 8.527344 14.578125 8.433594 14.699219 8.433594 14.714844 C 8.417969 14.730469 8.402344 14.699219 8.402344 14.640625 Z M 5.628906 11.488281 C 5.628906 11.320312 5.644531 11.257812 5.660156 11.347656 C 5.675781 11.441406 5.675781 11.578125 5.660156 11.652344 C 5.628906 11.730469 5.613281 11.652344 5.628906 11.488281 Z M 6.144531 10.191406 C 6.300781 10.039062 6.421875 9.917969 6.453125 9.917969 C 6.46875 9.917969 6.375 10.039062 6.222656 10.191406 C 6.066406 10.328125 5.941406 10.449219 5.910156 10.449219 C 5.894531 10.449219 5.988281 10.328125 6.144531 10.191406 Z M 8.125 10.128906 C 8.09375 10.070312 7.96875 9.964844 7.859375 9.902344 C 7.75 9.824219 7.703125 9.765625 7.734375 9.765625 C 7.84375 9.765625 8.15625 10.007812 8.199219 10.117188 C 8.246094 10.253906 8.199219 10.253906 8.125 10.128906 Z M 7.140625 9.71875 C 7.234375 9.703125 7.375 9.703125 7.453125 9.71875 C 7.53125 9.734375 7.453125 9.75 7.28125 9.75 C 7.109375 9.75 7.046875 9.734375 7.140625 9.71875 Z M 6.191406 8.652344 C 6.113281 7.984375 6.191406 7.082031 6.34375 6.613281 C 6.609375 5.878906 7.59375 5.164062 8.714844 4.921875 C 9.027344 4.859375 9.292969 4.8125 9.308594 4.828125 C 9.324219 4.84375 9.355469 4.9375 9.355469 5.042969 C 9.386719 5.195312 9.324219 5.226562 8.808594 5.363281 C 8.046875 5.546875 7.53125 5.835938 7.078125 6.320312 C 6.546875 6.886719 6.34375 7.402344 6.34375 8.332031 C 6.332031 8.746094 6.300781 9.09375 6.285156 9.125 C 6.253906 9.15625 6.222656 8.941406 6.191406 8.652344 Z M 12.660156 5.699219 C 12.753906 5.574219 12.941406 5.363281 13.097656 5.242188 C 13.285156 5.074219 13.253906 5.101562 13.019531 5.394531 C 12.550781 5.894531 12.472656 5.957031 12.660156 5.699219 Z M 7.46875 4.554688 C 7.46875 4.433594 7.859375 3.945312 8.214844 3.578125 C 8.949219 2.863281 9.992188 2.238281 11.195312 1.8125 C 11.601562 1.675781 11.800781 1.628906 11.863281 1.691406 C 11.988281 1.828125 11.832031 1.933594 10.851562 2.40625 C 10.039062 2.789062 9.371094 3.246094 8.792969 3.824219 C 8.511719 4.113281 8.214844 4.355469 8.125 4.386719 C 8.046875 4.402344 7.859375 4.464844 7.71875 4.492188 C 7.578125 4.539062 7.46875 4.570312 7.46875 4.554688 Z M 22.046875 4.203125 C 22 4.128906 22 4.050781 22.015625 4.050781 C 22.0625 4.050781 22.125 4.128906 22.1875 4.203125 C 22.234375 4.296875 22.25 4.355469 22.203125 4.355469 C 22.15625 4.355469 22.09375 4.296875 22.046875 4.203125 Z M 10.773438 3.367188 C 11.085938 3.078125 11.335938 2.832031 11.351562 2.832031 C 11.382812 2.832031 11.164062 3.078125 10.851562 3.367188 C 10.554688 3.671875 10.304688 3.898438 10.273438 3.898438 C 10.257812 3.898438 10.476562 3.671875 10.773438 3.367188 Z M 11.476562 2.773438 C 11.539062 2.679688 11.988281 2.347656 11.988281 2.40625 C 11.988281 2.421875 11.863281 2.527344 11.710938 2.652344 C 11.554688 2.773438 11.445312 2.832031 11.476562 2.773438 Z M 19.316406 1.8125 C 19.207031 1.75 19.160156 1.707031 19.191406 1.707031 C 19.253906 1.707031 19.363281 1.75 19.472656 1.8125 C 19.582031 1.875 19.644531 1.917969 19.582031 1.917969 C 19.550781 1.917969 19.425781 1.875 19.316406 1.8125 Z M 13.238281 1.660156 C 13.238281 1.597656 13.859375 1.292969 13.90625 1.324219 C 13.921875 1.355469 13.78125 1.433594 13.582031 1.523438 C 13.394531 1.613281 13.238281 1.675781 13.238281 1.660156 Z M 15.636719 0.960938 C 15.730469 0.945312 15.886719 0.945312 15.996094 0.960938 C 16.074219 0.976562 15.996094 0.988281 15.808594 0.988281 C 15.605469 0.988281 15.527344 0.976562 15.636719 0.960938 Z M 15.636719 0.960938 "/>
</g>
</svg>
