<svg version="1.2" xmlns="http://www.w3.org/2000/svg" viewBox="0 0 186 256" width="186" height="256">
	<title>jenkins-svg</title>
	<style>
		.s0 { fill: #201d1e } 
		.s1 { fill: #335061 } 
		.s2 { fill: #d33833 } 
		.s3 { fill: #6f6c6e } 
		.s4 { fill: #4a738d } 
		.s5 { fill: #83b3c7 } 
		.s6 { fill: #f1d8b9 } 
		.s7 { fill: #f6f5f5 } 
	</style>
	<path id="Layer" class="s0" d="m92.5 255.7c-3-0.4-7.6-1.2-10.1-1.9l-2.6-0.8-1.4-3.8c-0.8-2.2-2.7-8.1-4.2-13.2l-2.8-9.2-4-0.4c-6-0.4-9.5-1.5-19.5-6.1-4.9-2.3-9.7-4.4-10.6-4.8-0.9-0.3-2.1-1.1-2.8-1.8-1-1.2-1.2-1.8-1.6-9.4l-0.4-8.3-2.8-2.6c-15.4-14.5-25.8-34.5-28.9-56-1.1-6.9-1.1-20.4 0-27.4 3.1-21.2 13.4-41.3 28.5-55.4l4.2-3.9 0.6-4.2c0.9-7.1 3.5-12.2 7.3-14.6 1.1-0.8 2-2 2.5-3.4 2.7-6.9 7-10.6 21.3-18.5 9.3-5.1 18.2-8.2 26.8-9.5 4.7-0.6 14.5-0.6 18.9 0.1 12.8 1.9 20 5.5 29.2 14.6 6.2 6.2 9.8 11.1 11.9 16.5 1.7 4.5 3.6 13.1 4.2 18.8l0.3 3.7 4.8 5.3c16.1 17.9 24.7 40.4 24.7 64.3 0 15.1-3.4 29.7-10.1 42.8l-2.5 5.1 1.5 1.2c2.3 1.8 3.8 4.7 6.3 12.3 1.9 5.6 2.3 7.5 2.3 10.4 0 6.1-2.2 12.5-5.4 15.5-2.7 2.5-9.7 3.5-18.1 2.6-2.7-0.3-3.3-0.6-4.2-1.8l-1.1-1.5-4.3 0.3c-5.2 0.3-8 1.2-8 2.4 0 1.6-0.7 2.5-2.6 3.5-1.8 0.9-1.9 1.1-1.9 3.2 0 1.2 0.5 4.8 1.2 8 2.5 11.4 1.5 13.5-7.4 15.5-1.4 0.3-1.4 0.3-1.1 3.2 0.6 5.7-2.4 8-11.7 9-4.7 0.5-22.8 0.6-26.4 0.2z"/>
	<g id="Layer">
		<path id="Layer" class="s1" d="m67.9 220.4c-5.1-0.7-12.2-3.3-21-7.8-6.3-3.3-8.5-4.6-8.6-5.4 0-0.5-0.2-3.9-0.4-7.5-0.9-17.9-4.8-37.4-10.6-52-1.3-3.1-2.2-5.9-2.1-6 0 0 2.9-2.1 6.4-4.7 7.1-5.2 16.2-10.8 21.6-13.1l3.6-1.6 4.3 4.6c4.6 4.9 7.1 6.6 15.6 10.7l5.4 2.5 0.9 3.9c0.5 2.1 1.6 6.2 2.5 9.1 1.4 4.2 2.1 5.6 3.3 6.6 1.6 1.4 2.6 1.6 4.7 0.8 1.7-0.6 1.6-0.2-0.5 2.7-2.1 2.9-2.2 4.7-0.6 6.2 1.1 1 14.2 7.7 18.1 9.2l2.1 0.8-4.8 0.3c-2.6 0.2-8.3 0.5-12.7 0.8-7.1 0.5-15.8 1.4-22.5 2.3-2.3 0.3-2.4 0.3-2.8-1.1-0.4-1.6-0.5-9.7-0.1-17.8 0.2-5.4-0.1-6.8-1.5-5.9-1.1 0.7-1.4 4.3-0.9 10.9 0.6 6.9 0.2 12-0.9 12.4-0.3 0.2-1.8-0.5-3.3-1.5-1.5-1-2.8-1.8-3-1.8-0.8 0-0.4 1.9 0.6 3.2 0.5 0.7 1 1.6 1 2 0 0.9-1.5 1.8-2.9 1.8-1.1 0-3 1.8-2.4 2.4 0.1 0.2 2.6 0.3 5.4 0.2 2.8 0 5.4 0.1 5.7 0.3 0.4 0.2 0.9 2.8 1.2 5.9 0.3 3.1 1.2 10.3 2 16 1.3 9.9 1.4 11.3 0.6 11.2-0.2-0.1-1.7-0.3-3.4-0.6zm58.2-8.6c-0.6-4.9-1.4-25.4-0.9-25.9 0.3-0.2 2-0.5 3.9-0.6l3.5-0.1 0.6 2.7c0.3 1.5 1 7.1 1.4 12.5 0.5 5.4 0.9 10.3 0.9 10.8 0.1 1-0.9 1.4-7.2 2.5-1.9 0.2-1.9 0.2-2.2-1.9zm3.6-34.1c0.8-1.4 2.8-4.8 4.6-7.7 1.8-2.9 4.9-8.1 6.9-11.4l3.7-6.2-1.4-1.8c-2.2-2.7-2.2-2.9-1.3-4.9 0.6-1.4 0.9-3.4 0.9-7.7 0-6.8-0.9-10.6-3.3-13.3-1.4-1.5-1.8-1.7-3.5-1.6-1.1 0.1-1.9 0.1-1.8-0.1 0.1-0.2 1.5-1.5 3.2-2.9l3.1-2.6 5.7 5.4c3.2 3 7 6.4 8.4 7.7 3.1 2.9 3.2 3.4 0.8 13.1-2.5 10.4-8.7 27.9-11.3 32.2-1.3 2.1-2.2 2.4-8.4 2.8-2.9 0.2-5.6 0.5-6.2 0.8-1.5 0.9-1.6 0.6-0.1-1.8z"/>
		<path id="Layer" class="s1" d="m127.1 175.6c0.9-3 1.8-8.9 2.5-16.6 1-9.7 1.1-10 4.4-10 2.4 0 4.8 1.1 6.6 3l1.4 1.4-3.1 5.5c-4.3 7.3-11.2 17.6-11.7 17.6-0.2 0-0.3-0.4-0.1-0.9z"/>
	</g>
	<g id="Layer">
		<path id="Layer" class="s2" d="m28.9 184.4c-29-31.8-31.3-80.6-5.5-114.7 3.1-4.1 10-11.7 10.7-11.7 0.2 0 0.6 0.7 0.7 1.6 0.3 1.3 0 2.4-1.3 4.9-1.6 3.2-1.7 3.3-1.6 9.4 0 5.7 0.1 6.8 1.4 10.1 2.7 7.2 6.9 11.7 12.5 13.5l2.5 0.9 0.9 3.6c0.5 2 1.9 5.5 3.2 7.7 2.4 4.5 2.7 6.2 1.4 7.5-0.5 0.4-4.9 3-9.7 5.8-4.8 2.8-10.6 6.3-12.9 7.8q-0.8 0.5-1.6 1-0.8 0.5-1.7 1-0.8 0.5-1.6 1-0.8 0.5-1.7 0.9c-3.2 1.7-5 3.9-5 6.2 0 1.8 4.2 14.7 7.3 22.6 0.9 2.1 2 5.7 2.6 8 1.2 5 2.7 14.7 2.5 15.6-0.1 0.3-1.5-0.9-3.1-2.7zm120-7.7c0-0.2 1.4-4.3 3.1-9.1 5-14.5 10-31.1 10.3-34.1 0.3-3.5-0.5-4.7-6.9-10.4-9.2-8.2-11-10.1-11-11.5 0-0.7 1-3.2 2.3-5.5 2.5-4.6 4.1-8.9 6-16.2 1.5-5.6 3.2-17 3.2-21 0-1.5 0.2-3.5 0.3-4.4l0.4-1.6 1.2 1.2c5.3 4.9 13.7 18.8 17.1 28.6 3.9 10.8 5.2 19.1 5.2 31 0 9.3-0.5 14.4-2.4 21.8-1.8 7.2-4 13-7.3 19.6l-3 5.8-3.2 0.6c-3.2 0.5-7.2 1.9-12.4 4.1-1.6 0.7-2.9 1.2-2.9 1zm-59.4-20.7c-0.3-0.7-1.4-3.3-2.3-5.9-1.6-4.4-1.7-5.2-1.7-11 0-6.9 0.7-9.2 2.9-9.8 2-0.5 9.1 1.7 15.3 4.8 3.2 1.7 6.1 3 6.5 3 0.7 0 0.8 1.3 0 1.8-0.3 0.2-1.6 0.6-2.9 0.9-2.4 0.7-2.3 0.8 1.6 1.8 2.3 0.6 2.4 0.7 2.4 2.5 0 1.7-0.3 2.1-4.1 5.1-5.6 4.4-7 5.2-11.6 6.6-4.8 1.6-5.2 1.6-6.1 0.2zm38.6-10.2c-5.5-1-5.3-0.8-5.3-3.7 0-2.7 0.8-3.5 3.3-3.5 0.7 0 1.2-0.2 1-0.5-0.2-0.3-1.3-0.5-2.4-0.5-1.9 0-2.2-0.2-2.7-1.5-0.6-1.5-0.6-1.5 3.4-4 10.9-7 13-6.2 14.5 5.1 0.4 3.8 0.2 6.9-0.6 8.5-0.6 1.1-5.2 1.1-11.2 0.1zm-13.5-2.4c-0.8-0.6-1-1.3-1-3.6 0-2.8 0-2.9 1.6-3.3 4.2-1.3 6.4 5.2 2.3 7.1-1.6 0.7-1.8 0.7-2.9-0.2z"/>
	</g>
	<g id="Layer">
		<path id="Layer" fill-rule="evenodd" class="s3" d="m94.5 249.9c-1.7-0.2-5-0.9-7.5-1.5l-4.5-1.2-2.1-7c-4-13.4-7.1-28.5-9.2-44.7-0.5-4-0.7-7.5-0.5-7.7 0.6-0.7 16.4-2.7 25.7-3.3 6.4-0.4 10.6-0.4 15.5-0.1 8.6 0.7 9.5 1 10 2.8 0.2 0.8 0.6 6.5 0.9 12.7 0.4 6.2 0.7 11.5 0.8 11.6 0.1 0.2 0.4 6 0.7 13 0.5 11.8 1.2 20.5 1.8 22.6 0.3 1-1.3 1.6-7.3 2.6-4.7 0.8-19.1 1-24.3 0.2zm32.6-15.2c-0.1-2.2-0.4-6.6-0.6-10-0.3-6.8-0.5-6.4 3.8-7l2.4-0.3 1.3 6.9c0.8 3.9 1.4 8.2 1.4 9.8v2.8l-2.9 0.8c-5 1.4-5 1.4-5.4-3zm32.3-24.6c-1.1-0.9 0-1.4 5.2-2.4 6.8-1.3 4.6-1.9-5.5-1.5l-8.1 0.3-0.3-2.1c-0.1-1.2-0.5-4.5-0.8-7.4q-0.2-1.1-0.3-2.2-0.1-1.2-0.3-2.3-0.1-1.1-0.3-2.2-0.2-1.1-0.4-2.2c-0.7-3.4-0.7-3.8 0-4.6 1.2-1.2 4.5-2.7 9.6-4.5 2.2-0.7 4.9-1.8 6.1-2.4 5.1-2.6 9 0 11.4 7.3 3.9 12.4 3.9 18.1 0.3 22.8-2 2.5-4.7 3.4-10.6 3.7-3.2 0.1-5.5 0-6-0.3zm9.1-12.6c-1.9-0.8-8.1-1.2-10.4-0.7l-1.9 0.4 1.7 0.3c1 0.2 4 0.4 6.8 0.4 3.9 0.1 4.7-0.1 3.8-0.4zm-2.8-6.3c2.4-0.4 2.4-0.5 1-0.7-2.6-0.6-7.5-0.5-9 0.3-1.5 0.6-1.4 0.6 2 0.7 2 0 4.7-0.1 6-0.3zm-4.8-5.8c3.5-2 3.9-2.4 2.5-2.2-3.7 0.7-6.4 1.9-8.3 3.6l-1.9 1.8 1.7-0.4c1-0.1 3.7-1.4 6-2.8zm-19.7 22.5c-0.1-0.4-0.6-3.5-1-6.9-0.5-3.4-1.2-8.5-1.6-11.2-0.5-2.9-0.6-5.1-0.3-5.4 0.2-0.2 1.5-0.4 2.9-0.3l2.4 0.1 1.2 3c1.6 4.1 2.5 9.6 2.6 15.2 0 4.6 0 4.7-1.4 5.2-2.5 0.9-4.6 1.1-4.8 0.3zm-28.1-33.6c-3.6-1.5-9.1-3.9-12.2-5.5-5.1-2.6-5.6-3-5.3-3.9 1.1-3.6 4.3-7.2 9.5-10.8 1.8-1.2 3.3-2.1 3.4-2.1 0.9 0 7.5 12.6 11.3 21.4 1.3 3.1 1.4 3.6 0.6 3.6-0.4 0-3.7-1.2-7.3-2.7zm14 1.3c0.9-3 1.8-8.9 2.5-16.6 0.7-6.6 1.1-8.9 1.7-9.3 1.9-1.6 6.9-0.2 9.5 2.5l1.1 1.1-1.2 2.2c-2.8 5-5 8.6-8.9 14.6q-5.8 8.9-4.7 5.5zm-3.1-1.3q-0.5-1-0.9-1.9-0.4-0.9-0.9-1.9-0.4-0.9-0.8-1.9-0.4-0.9-0.8-1.8c-3.3-7.6-5-11-7.4-14.5-1.9-2.8-2-3-1.1-3.9 0.5-0.5 1.6-0.9 2.4-0.9 0.9-0.1 2.1-0.3 2.8-0.7 1.9-1.1 3.1-1 5.7 0.7 1.3 0.8 2.9 1.7 3.6 1.8l1.4 0.4-0.4 7.9c-0.3 7.8-1.2 14.9-2.2 17.4-0.4 1.3-0.4 1.3-1.4-0.7zm0.6-12c0-1.3-0.2-1.5-1.3-1.5-0.8 0-1.3 0.3-1.4 0.9-0.3 1.5 0.3 2.4 1.5 2.2 0.9-0.1 1.2-0.4 1.2-1.6zm-1.6-8c0.5-1.3-0.2-2.3-1.5-2.3-0.7 0-1.3 0.3-1.5 0.8-0.5 1.2 0.2 2.2 1.5 2.2 0.7 0 1.3-0.3 1.5-0.7zm-45.5-19.7c-3.6-1.3-6.4-2.8-7.5-4-1.1-1.3-0.8-2.9 0.6-2.3q2.3 0.9 8.3 1.5c4.2 0.3 4.3 0.4 3.3 3.9-0.6 2.1-1 2.1-4.7 0.9zm34.5-1.5c-1.7-0.5-5.7-2.6-5.7-3.1 0-0.2 1.6-0.2 3.6-0.1 2.8 0.2 5.1-0.1 8.6-0.9 2.7-0.6 5.1-1 5.3-0.9 0.3 0.1-1 1.3-2.8 2.8-3.5 2.8-5 3.1-9 2.2zm-33-5.6c-4.8-0.5-10.2-2.2-12.9-4-2.6-1.7-5.2-5.2-7.5-10.3-2.2-5-4.5-11.5-4.8-14.5-0.3-2.5-0.2-2.7 1.5-4.9 1.3-1.4 1.9-2.6 1.8-3.4-0.2-1.5-1.4-1.3-4.1 0.7-3.6 2.5-8.1 1.7-11.5-2-3.6-4-6.3-10.9-5.8-15.1 0.9-7.7 8.7-13 14.8-10.2 1.8 0.9 4.2 4.6 5.1 7.9 0.6 1.7 0.7 1.8 2.6 1.8 1.1 0 2.8-0.3 3.7-0.7 2.2-0.9 2.3-2 0.7-7.9-1.4-5.4-1.4-10 0.3-17.8 1.4-6.6 1.6-11.8 0.7-15.3-0.5-2.1-0.4-2.4 1-4.7 4.5-7 18-16.8 27.6-20.1 4.2-1.4 13.3-1.6 19.2-0.3 8.6 1.9 17.8 5.9 22.3 9.6 2.1 1.8 10.2 11.7 10.2 12.5 0 0.1-0.9 0.1-1.9-0.1-4.1-0.6-8.1 1.7-8.1 4.7 0 1.1 0 1.1 1.1 0.4 1.9-1.4 6-1 9.5 0.8 5.2 2.8 7.1 6.4 8 15.7 0.8 8.6 0.3 25.6-1 31.8-2.1 9.9-5.3 17.9-10.5 25.9-4.1 6.3-5.9 8.4-9.7 10.8-7.3 4.7-14.8 7.2-21.8 7.2-4.9 0-8.1-0.9-13.9-3.9-5.4-2.8-11.8-8.5-16.8-15.2-1.8-2.4-3.3-4.3-3.5-4.2-0.5 0.6 1.3 4.2 3.9 7.7 3.4 4.5 10.5 11.5 13.5 13.2 1.1 0.6 2.1 1.4 2.1 1.5 0 0.3-1.2 0.3-2.7 0.1-3.2-0.4-6.3 0.4-7.6 1.8-0.5 0.5-1.2 0.9-1.5 0.9-0.3 0-2.1-0.2-4-0.4zm47.5-17.5c1-0.3 2.3-1 2.9-1.7l1-1-8.4-0.3c-11.7-0.4-14.8-1.4-18.9-6-1.3-1.4-2.6-2.5-3.1-2.4-0.5 0.1 0.3 1.4 2.7 4.4 4.6 5.6 5.6 6.5 8.4 7.3 2.9 0.8 12.4 0.6 15.4-0.3zm0.6-10.8c-0.1-1.1-0.3-2.3-0.3-2.7 0-0.7-1.1-0.9-8.1-1.1-7.4-0.2-10.7-0.7-14.7-2.2-1.8-0.6 2.4 3.3 4.8 4.6 3.6 1.8 9.6 3 15.5 3.2h3.2zm7.1 0.6c3.3-1 6.9-3.9 9.2-7.3 1-1.5 1.8-2.7 1.7-2.8-0.1-0.1-2.2 0.8-4.7 2.1-2.4 1.2-5.5 2.5-6.9 2.8q-0.4 0.1-0.8 0.2-0.3 0.1-0.7 0.2-0.4 0-0.8 0.1-0.4 0.1-0.7 0.2c-0.4 0.1-0.7 1.1-0.7 2.7 0 3 0.2 3 4.4 1.8zm-6.8-9.2c4.1-1.1 6.3-2 11.2-5 2.8-1.6 3.1-1.9 3.9-4.6 0.4-1.6 0.8-3.2 0.8-3.5 0-0.3-1.9-2.6-4.3-5.1-7.2-7.8-11.7-14.2-14.5-21.1-0.4-0.8-0.5-0.5-0.6 1.3-0.3 4.5 2.9 10.6 10.1 19.2 5 6 5.7 7.5 4.8 9.8-0.5 1.3-1.5 2-5.7 4-6 2.8-8.2 3.4-11.6 3.4-3 0-4.6-1.2-5.1-4.2-0.2-1.5-0.4-1.7-0.8-1-0.7 1.3-0.5 4.5 0.4 6.2 0.8 1.5 0.9 1.5 4.2 1.5 1.9 0 5.1-0.4 7.2-0.9zm-82-11.9c0.2-4.3 1-6.2 2.9-6.2 1.3 0 2.2 1 3.8 4 1.2 2.3 1.2 2.3 1.4 0.8 0.2-2.2-1.3-5.5-3.5-7.5-1.6-1.5-2.3-1.8-4.1-1.8-1.9 0-2.4 0.3-3.5 1.6-1.6 1.9-1.7 2.7-0.1 1.7 1.4-1 3-0.5 2.4 0.7-0.8 1.5-0.4 10.5 0.5 10.5 0.1 0 0.2-1.7 0.2-3.8zm63.7-14c1.5-1.1 1.9-2.2 1.6-4.2 0-0.4-0.9-1.6-2-2.7-1.1-1.1-2.7-3.7-3.7-5.8l-1.8-3.7 0.2 2.2c0.2 2.3 1.4 5.3 3.4 8.4 1 1.6 1 1.8 0.2 2.5-0.6 0.7-1.5 0.8-3.9 0.8-7.5-0.4-7.1-0.4-7.3 0.7-0.5 3.4 9.4 4.8 13.3 1.8zm37.5-2.1c1.1-0.5 2.4-1.4 2.9-1.9 0.8-0.9 0.7-1.2-2.2-6.8-2.6-5.2-3-5.7-3-4.1 0 0.9 0.6 3.2 1.4 5 1 2.4 1.2 3.4 0.8 3.8-0.4 0.3-2.4 0.7-4.5 1-2.2 0.2-4 0.4-4 0.4-0.4 0.1-0.1 1.5 0.6 2.4 0.6 0.9 1.3 1.1 3.4 1.1 1.4 0 3.5-0.4 4.6-0.9zm-62.4-21.8c3-4 5.9-5.5 10.7-5.5 3.3 0 3.4 0 3.2-1.2-0.2-2-3.1-3.7-5.6-3.3-4.4 0.6-9.9 5-11.6 9.2-1.2 2.8-0.7 6.9 0.5 4.7 0.3-0.4 1.5-2.2 2.8-3.9z"/>
		<path id="Layer" class="s3" d="m59 69.2c-0.2-0.2-0.3-0.9-0.3-1.5 0-3.2-3.8-7.4-7.9-8.8-2.4-0.7-8.4-0.3-9.6 0.8-0.5 0.5-1.1 0.6-1.2 0.5-0.2-0.2-0.4-3.3-0.4-6.9 0-8.5 0.7-11 4.2-14.6 3.5-3.7 9.6-6.8 13.7-6.9h2.9l0.5 3.4c0.4 2.7 0.2 5.1-0.6 11.5-1.4 10-1.4 11 0 16.6 0.9 3.9 0.9 4.7 0.4 5.4-0.7 0.8-1.2 1-1.7 0.5zm-10.5-40.8c1.7-3 6.3-7.5 10.6-10.3 7.6-5.1 17.9-8.9 17.9-6.6 0 0.4-0.5 0.9-1 1.2-4.1 2.1-8.4 6.1-10.6 9.9-0.7 1.3-1.9 3-2.7 3.9-1.3 1.4-1.7 1.5-4.6 1.4q-0.8 0-1.6 0.1-0.8 0-1.5 0.2-0.8 0.1-1.6 0.3-0.7 0.2-1.5 0.4c-4.1 1.5-4.5 1.4-3.4-0.5z"/>
	</g>
	<g id="Layer">
		<path id="Layer" class="s4" d="m39.6 208.8c-0.7-0.4-1.2-0.9-1.1-1.1 0.1-0.9-0.8-14.8-1.4-19.5-1.2-9.7-3.5-21.7-5.6-28.5-1.5-5.2-3-9.6-3.5-10.7-0.3-0.7-0.7-1.7-1-2.3-1.8-4.4-1.9-5-1.4-5.1 0.3-0.1 1.9-1.3 3.5-2.6 6.4-5 16.3-11.4 22-14.1 1.8-0.8 3.8-1.8 4.5-2.1 1.1-0.5 1.4-0.3 4.4 2.9 1.7 1.9 3.2 3.6 3.2 3.8 0 0.3 0.3 0.2-16.8 7.7-6.6 3-12.2 5.4-12.2 5.5-0.1 0.1 0.4 2.9 1.1 6.1 2.9 12.7 5.1 25.6 6.3 36.6 0.9 8.2 0.6 24.1-0.4 24.1-0.2 0-0.9-0.3-1.6-0.7zm85.6-15.6c-0.5-0.5-0.5-3.5-0.1-5.6 0.4-1.8 1-2.1 4.7-2.3 2.4-0.2 2.5-0.2 3 1.3 0.3 0.8 0.6 2.3 0.6 3.2 0 1.5-0.3 1.8-1.9 2.5-2.2 0.9-5.8 1.4-6.3 0.9zm-62-1.7c-3.5-0.6-5.3-1.2-6.9-2.3q-2.2-1.4-1.6-1.8c0.3-0.2 0.9-0.2 1.2 0 0.3 0.2 2.9 0.3 5.9 0.3 3.2 0 5.5 0.2 5.9 0.6 0.3 0.3 0.5 1.3 0.4 2.3l-0.2 1.7zm6.9-9.3c-0.5-1.1-0.5-13.4 0-19.1l0.3-4.6 1.9 2.4 2 2.5v9.5c0 5.3-0.2 9.6-0.4 9.6-0.2 0-1.1 0.1-2 0.2-1.1 0.2-1.6 0-1.8-0.5zm44.3-7.5c-5.4-2.1-17.1-7.7-18.4-8.8-1-0.8 1.3-4.8 4.4-7.7 3.5-3.3 7.4-5.9 8.2-5.6 1.2 0.5 5.7 8.4 9 15.9 3.2 7.4 3.6 8.5 2.9 8.5-0.2 0-2.9-1.1-6.1-2.3zm12.8 1c1.3-3.9 2.5-12 3-20.1 0.4-5.4 0.4-5.7 1.6-6.2 2.8-1 6.6 0.1 9 2.7l1.2 1.2-1.3 2.2c-6.1 11-14.8 23.9-13.5 20.2zm22.2-43.5c-4.1-3-8.2-6.3-9.1-7.2-1-0.9-2.4-2-3.3-2.3l-1.6-0.5 2.7-2.3 2.7-2.4 4.7 4.6c2.6 2.6 6.2 5.9 8.1 7.5 3.5 3 4.4 4.9 3.5 7.1-0.3 0.9-1.1 0.5-7.7-4.5z"/>
	</g>
	<g id="Layer">
		<path id="Layer" fill-rule="evenodd" class="s5" d="m95.3 249.8c-6.5-1-11.9-2.3-12.5-2.9-0.7-0.9-3.2-9.9-5.5-19.4-3.3-13-7.3-38.6-6.3-39.5 0.6-0.6 13.1-2.4 21.2-3.1 9.7-0.8 28.1-0.1 29.4 1.2 0.1 0.1 0.6 6.1 1 13.4 0.4 7.3 0.8 14.1 1 15.2 0.1 1.1 0.5 7.4 0.7 13.9 0.3 6.5 0.8 13.4 1.1 15.4 0.4 2.9 0.4 3.7-0.1 4-3 1.9-22.1 3-30 1.8zm32.3-11.8c-0.1-0.2-0.4-4.6-0.6-9.8l-0.3-9.5 2.6-0.6c3-0.7 3.6-0.5 3.6 1.1 0 0.6 0.4 3.2 1 5.8 0.5 2.6 1.1 6.2 1.3 8.1 0.3 3.3 0.3 3.3-1.1 3.9-2 0.8-6.3 1.4-6.5 1zm33.1-27.9c-2-0.4-2-0.5-0.8-1 0.7-0.3 2.1-0.6 3-0.8 5.5-1.1 6.6-1.4 6.1-2-0.4-0.3-3.3-0.5-9.3-0.4l-8.6 0.1-0.8-7.9c-0.5-4.3-1.2-9.2-1.7-10.9l-0.7-3 1.4-1.1c0.8-0.6 3-1.7 4.9-2.4 1.9-0.7 5.4-2.1 7.7-3.1 5.1-2.1 7.3-2.2 9.5-0.6 2.2 1.6 3.7 4.9 5.6 12.5 1.6 6.7 1.8 10 0.9 13.2-0.9 2.8-4.1 6.1-6.7 6.7-2.8 0.8-8.2 1.1-10.5 0.7zm8.4-12.6c-2.7-1.1-7.8-1.5-10.5-1-4.6 1-3 1.5 4.5 1.5 4.9 0 6.8-0.2 6-0.5zm-1-6.5c0.9-0.3 0.7-0.5-1.4-0.8-5.1-0.8-10.8-0.1-10.8 1.4 0 0.6 10.4 0.1 12.2-0.6zm-6.8-5.5c2.6-1.5 4.6-2.6 4.5-2.7-0.3-0.4-5 0.8-7.3 1.7-1.4 0.6-3.1 1.8-3.9 2.6l-1.4 1.6 1.7-0.4c0.9-0.1 3.8-1.4 6.4-2.8zm-19.9 22.5c0-0.6-2.8-19.8-3.3-22.1-0.2-1.4-0.2-1.4 2.6-1.4h2.7l1 2.2c1.5 3.4 2.4 8.3 2.8 14.6l0.3 5.6-2.4 0.8c-2.8 0.9-3.7 1-3.7 0.3zm-22.3-31.7c-6.9-2.2-23.3-9.9-23.3-10.9 0-2.6 4.4-7.8 9.3-11l3.3-2.1 1.1 1.5c2.3 2.7 11.9 22.4 11.2 22.9-0.1 0.1-0.8-0.1-1.6-0.4zm8.4-1.1c1-2.5 2.8-15.6 2.9-22.1l0.1-3.1 1.8-0.5c2.6-0.7 5.4 0.1 7.4 2.1 0.9 0.9 1.7 1.8 1.7 2 0 0.7-6.7 12-10.4 17.5-3.1 4.6-4.2 5.9-3.5 4.1zm-3.8-2.1c-0.7-1.3-2.6-5.5-4.3-9.4-1.7-3.9-4.1-8.6-5.4-10.5-2-3.1-2.2-3.6-1.6-4.6q0.6-1.2 1.6-0.9c0.5 0.2 2.1-0.2 3.4-0.7l2.5-1 3.1 1.7c1.8 1 3.5 1.8 4 1.8 1 0 1-0.4 0.3 9.8-0.4 7.2-1.5 15.4-2.2 16.1-0.1 0.1-0.8-0.9-1.4-2.3zm1.2-9.9c0.8-1.1 0-2.4-1.6-2.4-1.5 0-2.4 1.4-1.5 2.4 0.4 0.4 1 0.8 1.5 0.8 0.5 0 1.2-0.3 1.6-0.8zm-1.9-8.8c0.7-1.1-0.1-2.6-1.3-2.8-0.8-0.2-2.4 1.1-2.4 1.9 0 0.7 1.6 2.1 2.4 1.9 0.4-0.1 1-0.6 1.3-1zm-45.5-20.1c-3.3-1.1-7.2-3.2-7.8-4.3-0.9-1.6-0.2-2 1.7-1.3 0.9 0.4 3.7 0.9 6.3 1.1 2.5 0.2 4.6 0.5 4.8 0.7 0.1 0.1-0.1 1.2-0.4 2.4-0.6 2.3-1.1 2.5-4.6 1.4zm33.8-1.7c-1.7-0.5-5-2.3-5-2.6 0-0.2 1.1-0.1 2.5 0.2 2.2 0.4 3.6 0.3 8.8-0.8 3.4-0.7 6.2-1.2 6.2-1.1 0 0-1.3 1.1-2.9 2.4-2.8 2.1-3.2 2.3-5.9 2.2-1.6 0-3.3-0.1-3.7-0.3zm-33.3-5.5c-2.6-0.2-8.5-2-10.9-3.1-2.5-1.3-4.9-4.2-7.3-8.8-2.2-4.4-5.4-13.2-5.9-16.8-0.3-2.1-0.3-2.4 1.7-4.6 2.2-2.5 2.4-3.1 1.6-4.3-0.4-0.7-0.8-0.6-2.4 0.3-4.6 2.7-5 2.8-7.4 2.5-3.6-0.6-6.1-2.9-8.7-7.9-2-3.8-2.3-4.9-2.5-8.3-0.2-3.4-0.1-4.3 0.9-6.2 2.5-5 5.8-6.8 11.7-6.5 2.1 0.1 4.9 3.2 6.1 6.8 0.5 1.7 1.1 3.2 1.3 3.4 0.6 0.8 5.5-0.2 6.9-1.4l1.3-1.1-1.4-5.7c-1.7-7.2-1.7-9.6 0.2-18.6 1.7-8.2 1.8-10.4 0.8-14.3l-0.8-2.8 1.6-2.7c4.2-7 20.2-18.2 29-20.2 11.9-2.9 32.1 2.4 40.7 10.6 2.4 2.3 8.9 10.4 8.9 11.2 0 0.1-1.5 0.1-3.2 0.1-2.8 0-3.4 0.2-4.6 1.3-1.4 1.4-2.4 3.3-2 4 0.2 0.2 1.1 0.1 2-0.3 3.4-1.4 7.7-0.4 11.2 2.7 4.3 3.6 5.5 8 5.9 22.6 0.6 17.5-1.9 30.3-8.1 42.7-1.5 2.7-6.6 10.6-8.6 13-4.1 5-16 10.4-24.4 11.1-4.7 0.4-8.5-0.4-14.1-3-7.7-3.7-12.9-8.2-19.4-17.3-1.7-2.3-3.2-3.9-3.3-3.6-0.3 0.9 2.3 6.1 4.4 8.8 2.9 4 10 11 12.7 12.7l2.4 1.5-4 0.2c-3.3 0.1-4.2 0.4-5.2 1.3-1.2 1.1-2.2 1.2-7.1 0.8zm48.1-17c2.2-0.6 4.8-2.4 4.8-3.2 0-0.2-3.4-0.3-7.4-0.3-11.8 0-17.1-1.6-20.6-6.2-1-1.3-2-2.3-2.4-2.4-1.4-0.4-1.2 1 0.5 3 1 1.2 2.7 3.3 3.9 4.8 2.4 3 4.6 4.4 8.3 5.1 3 0.5 10 0.1 12.9-0.8zm1.1-11.8l-0.1-2.7-7-0.3c-7.6-0.3-12.5-1-15.3-2.2-0.9-0.4-1.8-0.7-1.8-0.5-0.1 0 0.5 1 1.3 2 3 3.5 10.8 6.2 18.9 6.3h4.2zm9.9 0.4c1.2-0.7 3-2.2 4-3.2 2-2.2 4.8-6.2 4.5-6.5-0.1-0.1-1.9 0.7-3.9 1.7-3.8 2.1-9.2 4.2-10.9 4.2-0.9 0-1 0.3-1 2.8v2.8l2.6-0.3c1.4-0.2 3.5-0.9 4.7-1.5zm-9.3-8.2c3.4-0.8 7.1-2.5 11.1-4.9 2.6-1.6 3-2 3.7-4.3 1.1-4 1-4.5-2.2-7.8-6.8-6.9-14.3-17.5-15.3-21.7-0.2-0.8-0.7-1.4-1.1-1.4-1.8 0 0.1 7.5 3.3 12.7 0.9 1.5 3.4 4.8 5.3 7.1 6.7 8.2 7 8.8 5.7 11.8-1.1 2.5-14.5 7.4-18.2 6.7-2.1-0.4-2.9-1.3-3.3-3.7-0.3-2.2-1.1-2.4-1.7-0.5-0.7 1.8 0.1 4.8 1.5 6.2 1.2 1.2 1.4 1.3 4.8 0.9 2-0.2 4.9-0.7 6.4-1.1zm-81-17c0.5-0.6 1.2-1.1 1.5-1.1 0.9 0 2.5 1.9 3.8 4.5l1.2 2.3 0.2-2.4c0.2-2.8-1.1-5.6-3.4-7.6-3.1-2.5-6.4-2.2-8.4 0.7-1.4 2.1-1.4 2.8 0 1.8 0.6-0.4 1.5-0.8 2-0.8 0.8 0 0.9 0.3 0.5 1.7-0.6 2.3-0.4 7.4 0.4 9.1 0.6 1.4 0.7 1.3 1-2.9 0.2-3.2 0.5-4.6 1.2-5.3zm62.7-9.1c2.4-2.3 2.3-3.7-0.5-6.9-1.3-1.4-3.1-4.3-4.2-6.4-1.6-3.5-1.8-3.8-2-2.5-0.2 1.5 1.6 7 2.7 8.3 0.3 0.4 1 1.5 1.4 2.3 0.8 1.6 0.8 1.6-0.7 2.2-1 0.5-2.6 0.5-5.3 0.2-2.2-0.2-4.1-0.4-4.4-0.4-0.9 0-0.9 2.3 0 3.3 1.3 1.4 3.5 1.9 7.6 1.7 3.4-0.2 3.8-0.3 5.4-1.8zm38.2-2.2c1.2-0.8 2.4-1.7 2.5-2 0.2-0.7-5.7-13.3-6.3-13.3-0.6 0 0.5 5.6 1.7 8.2 1.5 3.5 1.4 3.6-3.3 4.1-1.8 0.2-3.5 0.4-3.8 0.5-1.1 0.3-0.7 2.1 0.7 3.2 1.1 0.9 1.8 1.1 3.8 0.8 1.3-0.1 3.4-0.8 4.7-1.5zm-65.1-19c1.8-3 4.9-6 7.4-7.1 0.9-0.4 3.1-0.7 4.9-0.7 1.8 0 3.4-0.3 3.6-0.5 1-1.6-2.4-4.5-5.4-4.5-2.3 0-6.4 2.1-9 4.6-2.1 2.1-4.4 6.3-4.4 8 0 0.9 0.8 2.9 1.2 2.9 0.1 0 0.9-1.2 1.7-2.7z"/>
		<path id="Layer" class="s5" d="m39.8 57.2c-0.4-3.4 0-10.8 0.8-13.3 1.7-5.6 9.3-10.9 17.4-12.2 1.8-0.2 2.1-0.2 2.3 0.9 0.5 1.7 0.5 1.9-0.8 1.9-1.9 0-7.5 2-10 3.6-6 3.8-9.5 11.6-8.6 18.9 0.2 1.5 0.1 2.5-0.2 2.7-0.3 0.2-0.6-0.7-0.9-2.5zm8.3-27.7c0-0.2 1.1-1.8 2.3-3.5 2.7-3.6 8.4-7.9 14.2-10.9 4.5-2.4 11-4.8 11.7-4.3 0.9 0.5 0.4 1.5-1 2.2-10.7 5.2-14.4 7.6-19.1 12.5-2.2 2.3-3.4 3.1-5.4 3.7-1.5 0.4-2.7 0.5-2.7 0.3z"/>
	</g>
	<g id="Layer">
		<path id="Layer" fill-rule="evenodd" class="s6" d="m111.3 132.6c-1.8-0.6-4.4-2-4.8-2.6q-0.3-0.5 1 0c2.1 0.8 5.1 0.6 11-0.7 2.9-0.6 5.3-1.1 5.3-1 0 0-1.3 1.1-2.9 2.4-2.7 2.1-3.2 2.3-5.7 2.2-1.4 0-3.2-0.1-3.9-0.3zm-33.9-5.6c-4.1-0.5-9.3-2.3-11.7-4-2.7-1.9-5.3-6.1-7.9-12.3-2-4.7-4.2-11.9-4.2-13.7 0-0.5 0.9-2 2.1-3.3 2.1-2.4 2.5-4.3 0.9-4.6-0.5-0.1-2.2 0.7-3.7 1.7-2.4 1.6-3 1.8-4.8 1.6-3.4-0.5-6.5-2.7-8.6-6.4-5.1-8.7-4.4-16.7 1.8-20.8 2.1-1.5 2.9-1.7 5.6-1.7 2.4 0 3.4 0.3 4.5 1.1 1.4 1.1 4.2 6.5 4.2 8.1 0 0.5 0.4 1 0.8 1.1 1.4 0.6 5.3-0.3 6.6-1.5l1.3-1.1-1.3-5.8c-1.7-7.4-1.7-9.5 0.2-18.3 1.7-8.1 1.8-11.3 0.7-14.9-0.7-2.3-0.6-2.5 0.5-4.5 3.1-5.2 10.3-11.4 19.3-16.5 6.7-3.7 9.8-4.7 16.1-5 8.8-0.5 17.5 1.5 27.3 6.3 4.4 2.1 5.6 3 8.6 6.2 1.9 2 4.4 5.1 5.6 6.8l2.1 3h-2.8c-3.2 0-5.2 1-6.4 3-1.1 1.9-1.1 3.2 0.1 2.8 4-1.7 7.1-1.4 11.2 1.2 4.9 3.1 6.2 6.7 7 20 1.1 17-1.2 31.6-6.9 43.9-2.2 4.9-8.2 13.9-10.8 16.4-3.8 3.7-10.8 7.2-17.5 9-4.5 1.2-11.5 1.2-15 0-8.7-2.9-15.8-8.3-22.8-17.4-2.4-3.2-4.5-5.8-4.7-5.7-0.5 0.5 1.5 5.2 3.1 7.4 2.8 4.1 10.2 11.7 13.4 13.9l3.2 2.1-2.7-0.2c-3.2-0.3-5.3 0.2-6.8 1.6-1.2 1.1-2 1.1-7.6 0.5zm47.4-16.3c3-0.7 6.1-2.5 6.1-3.8 0-0.2-3.4-0.4-7.4-0.4-8.5 0.1-10.9-0.2-14.6-1.6-3.1-1.1-5.1-2.7-6.6-5.1-0.7-1-1.5-1.8-2.1-1.8-1.7 0-1.4 0.5 5.1 8.7 0.9 1 2.1 2.2 2.8 2.6 3.2 2.2 10.3 2.7 16.7 1.4zm2.5-12c0-1.7-0.2-2.8-0.6-2.9-0.3-0.1-3.5-0.3-7.1-0.5-8.3-0.4-12.4-1.1-16-2.5-0.8-0.4-0.9-0.3-0.4 0.6 2.4 4.5 11.8 7.8 22 7.9h2.1zm8.9 0.6c1.4-0.6 3.5-2 4.6-3.2 1.9-1.9 5.2-6.6 4.9-7-0.1 0-2.5 1-5.3 2.4-2.8 1.3-6.3 2.7-7.8 3l-2.8 0.6v6l2-0.3c1-0.2 3-0.9 4.4-1.5zm-7.8-8.5c3-1 6.3-2.5 10.6-5 2.4-1.5 2.9-2.1 3.6-4.1 1.2-3.6 1-5.4-0.7-6.7-4.6-3.6-14.8-17.3-16.3-21.9-0.5-1.6-1.1-2.5-1.6-2.5-0.7 0-0.8 0.4-0.5 2.9 0.5 4.2 4 10.9 8.6 16.3 5.9 7 6.8 8.3 6.8 9.8 0 2.8-0.8 3.6-6.5 6.1-5.8 2.5-8.7 3.2-11.8 3-2.5-0.2-3.2-0.9-3.6-3.3q-0.6-3.4-1.6-1.4c-1.1 2-0.6 5 1.4 7.2 0.7 0.8 1.3 0.9 4.9 0.6 2.2-0.2 5.3-0.7 6.7-1zm-81.4-17.3c1-1 1.1-1 2.3-0.2 0.7 0.4 1.9 2 2.7 3.4l1.4 2.6 0.1-2.3c0.4-6-6.1-11.5-10.3-8.6-1.2 0.8-2.8 3.6-2.4 4 0.2 0.2 0.6-0.1 1.1-0.5 0.4-0.5 1.2-0.8 1.8-0.8 0.9 0 1 0.2 0.6 1.6-0.6 2.5-0.4 8 0.4 9.4 0.6 1.1 0.7 0.9 1-3.2 0.2-3.5 0.5-4.6 1.3-5.4zm61.1-7.7c3.9-1.9 4.2-4.7 0.9-8.2-1.2-1.3-3-4.1-4.1-6.3-1.6-3.6-1.9-3.8-2-2.6-0.3 1.9 1.1 6 2.9 8.9 0.8 1.3 1.5 2.5 1.5 2.9 0 1.6-4.3 1.9-9.6 0.7-1.6-0.3-2.2 0.6-1.7 2.5 0.6 2.5 8.3 3.8 12.1 2zm39.4-3.2c3.4-1.9 3.4-2-0.1-9.1-1.7-3.5-3.2-6.3-3.4-6.3-0.7 0 0.4 5.6 1.6 8.2 1.5 3.2 1.3 3.7-1.5 3.8-1.9 0-4.8 0.4-5.6 0.7-1.1 0.4-0.7 2.2 0.8 3.3 1.1 0.9 1.7 1 3.7 0.8 1.4-0.2 3.4-0.8 4.5-1.4zm-65.1-18.6c0.6-1.1 2.2-3.2 3.5-4.6 3-2.9 5.9-4 9.9-3.6 2.1 0.2 2.5 0.1 2.7-0.7 0.7-2.1-2.2-4.4-5.3-4.4-4.2 0-10.1 4.4-12.3 9.1-1.3 2.9-1.4 4-0.7 5.4 0.8 1.4 1.2 1.2 2.2-1.2z"/>
	</g>
	<g id="Layer">
		<path id="Layer" fill-rule="evenodd" class="s7" d="m98.8 250.2c-0.7-0.1-3-0.4-5-0.8-4.7-0.6-10.2-1.9-10.8-2.5-1-0.9-5.5-17.3-7.7-28.5-1.7-8.1-4-23.6-4.2-27.9l-0.2-2.7 2.3-0.4c13.1-2.3 32.2-3.5 41.9-2.4 3 0.3 5.8 0.9 6.1 1.1 0.6 0.7 1.5 12.5 2.6 35.9 0.6 11.2 1.4 22.5 1.8 24.6 0.3 1.2 0.2 1.3-2.9 2-6 1.5-18.6 2.4-23.9 1.6zm28.4-18.5c-0.2-3.6-0.4-7.9-0.4-9.8v-3.2l2.7-0.6c1.4-0.3 2.7-0.4 2.8-0.3 0.4 0.3 3 15 3.1 16.8 0 2.2-1 2.8-5.4 3.2l-2.5 0.3zm34.1-21.6c-1-0.1-1.9-0.4-1.9-0.6 0-0.3 0.1-0.5 0.2-0.5 0.3 0 7-1.3 8.8-1.8 1-0.2 1.1-0.4 0.6-0.8-0.4-0.5-3.1-0.6-9.2-0.5l-8.7 0.1-0.8-8.1c-0.5-4.5-1.2-9.4-1.6-10.9l-0.8-2.7 1.4-1.1c0.7-0.7 4-2.1 7.1-3.2 3.2-1.2 6.9-2.7 8.2-3.3 3.7-1.9 7.4-0.5 9.4 3.3 1.4 2.7 4.5 15.1 4.5 17.9 0 5.6-3.1 10.5-7.3 11.5-2.5 0.7-7.5 1-9.9 0.7zm9.1-12.4c-0.2-0.1-2.1-0.6-4.3-1-4.7-0.9-10.2-0.5-10.2 0.8 0 0.3 3.3 0.5 7.4 0.5 4 0 7.2-0.1 7.1-0.3zm-1.9-6.7c0.8-0.5-3.1-1.2-6.8-1.3-2.6 0-5.8 1-5.8 1.9 0 0.6 11.4 0 12.6-0.6zm-10-4q0.6-0.4 1.3-0.7 0.7-0.4 1.3-0.7 0.7-0.4 1.4-0.7 0.7-0.4 1.3-0.7c1.5-0.7 2.6-1.4 2.5-1.5-0.1-0.2-1.9 0.1-3.9 0.5-3.6 0.7-9 3.7-9 4.8 0 0.9 2.4 0.5 5.1-1zm-17.4 18.6c-0.1-1.5-0.8-6.4-1.5-10.6-0.7-4.3-1.2-8.4-1.2-9.1 0-1.3 0.1-1.4 2.5-1.4 2.5 0 2.5 0 3.5 2.2 1.5 3.4 2.4 8.2 2.8 14.6l0.3 5.5-2.6 0.8c-1.5 0.5-2.8 0.9-3 0.9-0.2 0-0.6-1.3-0.8-2.9zm-17.9-33.6c-1-2.1-2.9-6.4-4.4-9.6-1.4-3.2-3.6-7.3-4.8-9.2-1.2-1.8-2.2-3.4-2.2-3.6 0-0.7 1.7-2 2.3-1.8 0.3 0.2 1.4-0.1 2.5-0.5 2.7-1.2 4.2-1 6.7 0.7 1.3 0.8 2.8 1.5 3.4 1.5 1.1 0 1.1 0.1 0.9 5.6-0.4 7.9-1.3 15.4-2 18.2l-0.7 2.4zm1.7-8.8c0.8-1 0-2.4-1.6-2.4-1.5 0-2.4 1.4-1.5 2.4 0.4 0.5 1 0.8 1.5 0.8 0.5 0 1.2-0.3 1.6-0.8zm-1.9-8.8c0.7-1-0.1-2.5-1.3-2.8-0.8-0.1-2.4 1.2-2.4 1.9 0 0.8 1.6 2.1 2.4 1.9 0.4-0.1 1-0.5 1.3-1zm-46.2-20.4c-5.1-1.8-8.2-4.1-7.4-5.5 0.2-0.2 1-0.1 1.9 0.3 0.9 0.3 3.8 0.8 6.3 1.1 2.6 0.3 4.8 0.6 4.9 0.7 0.1 0.1-0.1 1.2-0.4 2.3-0.6 2.5-1.2 2.6-5.3 1.1zm-10-10.5c-2.3-1.3-2-1.6 0.3-0.4 2.3 1.4 2.4 1.4 1.8 1.4-0.3 0-1.2-0.4-2.1-1zm-6.9-8.5c-0.7-1.4-1.2-2.6-1.1-2.8 0.1 0 0.8 1.1 1.5 2.6 0.8 1.5 1.3 2.7 1.1 2.7-0.1 0-0.8-1.1-1.5-2.5zm-5.7-19c0-0.4 0.6-1.1 1.4-1.6l1.3-1-1.2 1.5c-0.7 0.7-1.3 1.5-1.4 1.6-0.1 0.1-0.1-0.1-0.1-0.5zm-17.9-20.7c0-1.1 0.1-1.5 0.2-0.9 0.1 0.6 0.1 1.5 0 2-0.2 0.5-0.3 0-0.2-1.1zm3.3-8.5c1-0.9 1.8-1.8 2-1.8 0.1 0-0.5 0.9-1.5 1.8-0.9 0.9-1.8 1.7-1.9 1.7-0.2 0 0.5-0.8 1.4-1.7zm12.7-0.4c-0.2-0.4-1-1-1.7-1.5-0.6-0.5-1-0.9-0.8-0.9 0.7 0 2.7 1.6 3 2.4 0.4 0.8 0 0.8-0.5 0zm-6.3-2.7c0.6-0.1 1.5-0.1 2 0 0.5 0.2 0 0.2-1.1 0.2-1.1 0-1.5-0.1-0.9-0.2zm-6.1-7c-0.5-4.3 0-10.3 1-13.4 1.7-4.8 8.1-9.5 15.2-11.1 2-0.4 3.7-0.7 3.8-0.6 0.2 0.1 0.3 0.8 0.4 1.4 0.1 1-0.2 1.2-3.5 2.1-5 1.3-8.3 3.1-11.2 6.3-3.4 3.7-4.6 7.1-4.7 13.2-0.1 2.8-0.2 5-0.4 5.3-0.2 0.1-0.4-1.3-0.6-3.2zm41.7-19.4c0.6-0.8 1.8-2.2 2.7-3 1.2-1.1 1.1-0.9-0.5 1-3 3.3-3.4 3.7-2.2 2zm-33.5-7.5c0-0.8 2.5-4 4.9-6.4 4.7-4.7 11.4-8.8 19.1-11.6 2.6-0.9 3.9-1.2 4.3-0.8 0.9 0.9-0.2 1.6-6.5 4.7-5.2 2.5-9.5 5.5-13.2 9.3-1.8 1.9-3.8 3.5-4.3 3.7-0.6 0.1-1.8 0.5-2.6 0.7-0.9 0.3-1.7 0.5-1.7 0.4zm93.8-2.3c-0.3-0.5-0.4-1-0.2-1 0.3 0 0.7 0.5 1.1 1 0.3 0.6 0.4 1 0.1 1-0.3 0-0.7-0.4-1-1zm-72.5-5.5c1.9-1.9 3.7-3.5 3.8-3.5 0.1 0-1.4 1.6-3.3 3.5-1.9 2-3.6 3.5-3.7 3.5-0.1 0 1.3-1.5 3.2-3.5zm4.5-3.9c0.4-0.6 3.3-2.8 3.3-2.4 0 0.1-0.8 0.8-1.8 1.6-1 0.8-1.7 1.2-1.5 0.8zm50.4-6.3c-0.7-0.4-1-0.7-0.7-0.7 0.3 0 1 0.3 1.7 0.7 0.7 0.4 1.1 0.7 0.8 0.7-0.3 0-1.1-0.3-1.8-0.7zm-39.1-1c0-0.4 4.1-2.4 4.3-2.2 0.1 0.2-0.8 0.7-2 1.3-1.3 0.6-2.3 1-2.3 0.9zm15.5-4.6c0.6-0.1 1.6-0.1 2.2 0 0.6 0.1 0.1 0.2-1.1 0.2-1.3 0-1.8-0.1-1.1-0.2z"/>
	</g>
</svg>