<?xml version="1.0" encoding="UTF-8"?>
<svg xmlns="http://www.w3.org/2000/svg" xmlns:xlink="http://www.w3.org/1999/xlink" width="px" height="40px" viewBox="0 0 34 39" version="1.1">
<g id="surface1">
<path style=" stroke:none;fill-rule:nonzero;fill:rgb(30.588236%,30.588236%,30.588236%);fill-opacity:1;" d="M 1.492188 20.382812 C 1.492188 21.585938 1.398438 21.984375 1.132812 22.273438 C 0.855469 22.53125 0.496094 22.667969 0.109375 22.667969 L 0.21875 23.355469 C 0.792969 23.371094 1.367188 23.15625 1.816406 22.773438 C 2.050781 22.5 2.234375 22.164062 2.34375 21.800781 C 2.453125 21.449219 2.484375 21.070312 2.4375 20.703125 L 2.4375 16.132812 L 1.492188 16.132812 Z M 1.492188 20.382812 "/>
<path style=" stroke:none;fill-rule:nonzero;fill:rgb(30.588236%,30.588236%,30.588236%);fill-opacity:1;" d="M 8.523438 19.835938 C 8.523438 20.351562 8.523438 20.824219 8.570312 21.222656 L 7.730469 21.222656 L 7.667969 20.398438 C 7.5 20.6875 7.25 20.933594 6.957031 21.097656 C 6.644531 21.25 6.304688 21.34375 5.960938 21.34375 C 5.15625 21.34375 4.175781 20.902344 4.175781 19.117188 L 4.175781 16.179688 L 5.125 16.179688 L 5.125 18.9375 C 5.125 19.894531 5.417969 20.535156 6.273438 20.535156 C 6.441406 20.550781 6.628906 20.503906 6.785156 20.445312 C 6.941406 20.382812 7.09375 20.292969 7.21875 20.171875 C 7.34375 20.046875 7.4375 19.894531 7.5 19.742188 C 7.578125 19.574219 7.605469 19.410156 7.605469 19.242188 L 7.605469 16.132812 L 8.554688 16.132812 L 8.554688 19.804688 Z M 8.523438 19.835938 "/>
<path style=" stroke:none;fill-rule:evenodd;fill:rgb(30.588236%,30.588236%,30.588236%);fill-opacity:1;" d="M 10.308594 17.824219 C 10.308594 17.167969 10.308594 16.652344 10.277344 16.164062 L 11.117188 16.164062 L 11.164062 17.03125 C 11.347656 16.726562 11.613281 16.46875 11.9375 16.300781 C 12.265625 16.117188 12.636719 16.042969 13.011719 16.058594 C 14.253906 16.058594 15.199219 17.078125 15.199219 18.617188 C 15.199219 20.429688 14.066406 21.328125 12.839844 21.328125 C 12.527344 21.34375 12.21875 21.28125 11.9375 21.144531 C 11.660156 20.992188 11.410156 20.796875 11.238281 20.535156 L 11.238281 23.308594 L 10.308594 23.308594 Z M 11.238281 19.164062 C 11.238281 19.285156 11.253906 19.414062 11.285156 19.546875 C 11.363281 19.851562 11.550781 20.125 11.800781 20.308594 C 12.0625 20.503906 12.375 20.613281 12.699219 20.613281 C 13.675781 20.613281 14.269531 19.820312 14.269531 18.664062 C 14.269531 17.65625 13.722656 16.789062 12.730469 16.789062 C 12.34375 16.820312 11.96875 16.988281 11.691406 17.277344 C 11.425781 17.550781 11.253906 17.914062 11.238281 18.296875 Z M 11.238281 19.164062 "/>
<path style=" stroke:none;fill-rule:nonzero;fill:rgb(30.588236%,30.588236%,30.588236%);fill-opacity:1;" d="M 16.875 16.164062 L 18.007812 19.148438 C 18.132812 19.484375 18.257812 19.882812 18.351562 20.171875 C 18.445312 19.878906 18.550781 19.484375 18.675781 19.117188 L 19.703125 16.164062 L 20.695312 16.164062 L 19.28125 19.757812 C 18.582031 21.496094 18.148438 22.378906 17.511719 22.925781 C 17.1875 23.21875 16.78125 23.414062 16.347656 23.523438 L 16.113281 22.746094 C 16.425781 22.652344 16.703125 22.5 16.9375 22.289062 C 17.28125 22.011719 17.558594 21.664062 17.746094 21.265625 C 17.777344 21.195312 17.800781 21.125 17.824219 21.054688 C 17.8125 20.960938 17.785156 20.882812 17.746094 20.808594 L 15.835938 16.148438 L 16.859375 16.148438 Z M 16.875 16.164062 "/>
<path style=" stroke:none;fill-rule:nonzero;fill:rgb(30.588236%,30.588236%,30.588236%);fill-opacity:1;" d="M 23.195312 14.714844 L 23.195312 16.164062 L 24.546875 16.164062 L 24.546875 16.863281 L 23.195312 16.863281 L 23.195312 19.589844 C 23.195312 20.199219 23.378906 20.566406 23.910156 20.566406 C 24.09375 20.566406 24.277344 20.546875 24.453125 20.503906 L 24.5 21.191406 C 24.21875 21.28125 23.941406 21.328125 23.660156 21.3125 C 23.472656 21.328125 23.273438 21.296875 23.101562 21.238281 C 22.929688 21.175781 22.761719 21.070312 22.636719 20.933594 C 22.339844 20.550781 22.214844 20.09375 22.261719 19.621094 L 22.261719 16.847656 L 21.472656 16.847656 L 21.472656 16.164062 L 22.277344 16.164062 L 22.277344 14.929688 Z M 23.195312 14.714844 "/>
<path style=" stroke:none;fill-rule:evenodd;fill:rgb(30.588236%,30.588236%,30.588236%);fill-opacity:1;" d="M 26.269531 18.875 L 26.285156 18.875 C 26.285156 18.875 26.285156 18.871094 26.285156 18.859375 Z M 26.394531 19.53125 C 26.46875 19.757812 26.609375 19.957031 26.765625 20.125 C 26.9375 20.292969 27.136719 20.414062 27.371094 20.492188 C 27.589844 20.582031 27.835938 20.613281 28.070312 20.597656 C 28.550781 20.597656 29.03125 20.519531 29.480469 20.324219 L 29.636719 21.023438 C 29.09375 21.238281 28.503906 21.34375 27.914062 21.328125 C 27.574219 21.359375 27.230469 21.3125 26.90625 21.191406 C 26.578125 21.070312 26.285156 20.871094 26.050781 20.640625 C 25.804688 20.398438 25.617188 20.109375 25.507812 19.789062 C 25.382812 19.46875 25.335938 19.117188 25.367188 18.785156 C 25.367188 17.261719 26.300781 16.058594 27.804688 16.058594 C 29.480469 16.058594 29.917969 17.519531 29.917969 18.449219 C 29.917969 18.589844 29.917969 18.734375 29.917969 18.875 L 26.285156 18.875 C 26.285156 19.089844 26.316406 19.316406 26.394531 19.53125 Z M 29.046875 18.144531 C 29.078125 17.960938 29.0625 17.777344 29.015625 17.597656 C 28.953125 17.414062 28.859375 17.246094 28.738281 17.109375 C 28.613281 16.972656 28.472656 16.847656 28.285156 16.773438 C 28.117188 16.695312 27.929688 16.652344 27.742188 16.652344 C 27.355469 16.683594 27 16.847656 26.734375 17.125 C 26.453125 17.414062 26.316406 17.761719 26.300781 18.144531 Z M 29.046875 18.144531 "/>
<path style=" stroke:none;fill-rule:nonzero;fill:rgb(30.588236%,30.588236%,30.588236%);fill-opacity:1;" d="M 31.328125 17.734375 C 31.328125 17.140625 31.328125 16.636719 31.296875 16.164062 L 32.136719 16.164062 L 32.136719 17.152344 L 32.183594 17.152344 C 32.277344 16.847656 32.449219 16.574219 32.710938 16.378906 C 32.960938 16.179688 33.269531 16.058594 33.597656 16.042969 C 33.679688 16.03125 33.765625 16.03125 33.859375 16.042969 L 33.859375 16.910156 C 33.746094 16.898438 33.636719 16.898438 33.535156 16.910156 C 33.207031 16.925781 32.914062 17.046875 32.679688 17.261719 C 32.449219 17.472656 32.308594 17.777344 32.277344 18.082031 C 32.246094 18.226562 32.230469 18.367188 32.230469 18.511719 L 32.230469 21.207031 L 31.296875 21.207031 L 31.296875 17.75 Z M 31.328125 17.734375 "/>
<path style=" stroke:none;fill-rule:nonzero;fill:rgb(46.27451%,46.27451%,46.666667%);fill-opacity:1;" d="M 30.925781 2.269531 C 30.957031 2.742188 30.832031 3.199219 30.601562 3.609375 C 30.367188 4.007812 30.011719 4.328125 29.574219 4.523438 C 29.15625 4.738281 28.675781 4.800781 28.210938 4.738281 C 27.726562 4.675781 27.292969 4.464844 26.953125 4.160156 C 26.59375 3.855469 26.347656 3.441406 26.222656 2.984375 C 26.113281 2.542969 26.128906 2.058594 26.300781 1.628906 C 26.453125 1.1875 26.75 0.808594 27.121094 0.535156 C 27.511719 0.257812 27.960938 0.0898438 28.441406 0.078125 C 28.753906 0.0625 29.0625 0.105469 29.359375 0.199219 C 29.652344 0.304688 29.917969 0.457031 30.148438 0.671875 C 30.382812 0.867188 30.570312 1.113281 30.691406 1.402344 C 30.832031 1.675781 30.910156 1.964844 30.925781 2.269531 Z M 30.925781 2.269531 "/>
<path style=" stroke:none;fill-rule:nonzero;fill:rgb(95.294118%,46.666667%,14.901961%);fill-opacity:1;" d="M 17 29.355469 C 10.664062 29.355469 5.109375 27.132812 2.21875 23.828125 C 3.339844 26.796875 5.355469 29.355469 7.996094 31.167969 C 10.632812 32.96875 13.785156 33.941406 17 33.941406 C 20.230469 33.941406 23.367188 32.96875 26.003906 31.167969 C 28.660156 29.355469 30.660156 26.796875 31.78125 23.828125 C 28.90625 27.132812 23.367188 29.355469 17 29.355469 Z M 17 29.355469 "/>
<path style=" stroke:none;fill-rule:nonzero;fill:rgb(95.294118%,46.666667%,14.901961%);fill-opacity:1;" d="M 17 7.90625 C 23.335938 7.90625 28.90625 10.144531 31.78125 13.4375 C 30.660156 10.464844 28.660156 7.90625 26.003906 6.109375 C 23.367188 4.296875 20.230469 3.320312 17 3.320312 C 13.785156 3.320312 10.632812 4.296875 7.996094 6.109375 C 5.355469 7.90625 3.339844 10.464844 2.21875 13.4375 C 5.109375 10.128906 10.632812 7.90625 17 7.90625 Z M 17 7.90625 "/>
<path style=" stroke:none;fill-rule:nonzero;fill:rgb(61.960787%,61.960787%,61.960787%);fill-opacity:1;" d="M 8.289062 35.785156 C 8.320312 36.363281 8.183594 36.945312 7.871094 37.460938 C 7.578125 37.964844 7.125 38.375 6.597656 38.617188 C 6.054688 38.878906 5.449219 38.96875 4.859375 38.894531 C 4.269531 38.800781 3.726562 38.558594 3.277344 38.164062 C 2.824219 37.765625 2.515625 37.261719 2.375 36.683594 C 2.21875 36.121094 2.25 35.527344 2.453125 34.960938 C 2.65625 34.414062 3.027344 33.941406 3.492188 33.59375 C 3.972656 33.242188 4.550781 33.042969 5.15625 33.011719 C 5.542969 32.996094 5.929688 33.042969 6.304688 33.179688 C 6.675781 33.300781 7.015625 33.5 7.296875 33.757812 C 7.589844 34.019531 7.824219 34.324219 7.996094 34.671875 C 8.167969 35.023438 8.257812 35.390625 8.289062 35.785156 Z M 8.289062 35.785156 "/>
<path style=" stroke:none;fill-rule:nonzero;fill:rgb(38.039216%,38.431373%,38.431373%);fill-opacity:1;" d="M 2.949219 7.160156 C 2.609375 7.160156 2.265625 7.070312 1.972656 6.902344 C 1.691406 6.71875 1.460938 6.460938 1.320312 6.15625 C 1.179688 5.851562 1.132812 5.515625 1.179688 5.179688 C 1.242188 4.84375 1.398438 4.539062 1.628906 4.296875 C 1.863281 4.050781 2.15625 3.871094 2.5 3.792969 C 2.824219 3.71875 3.183594 3.746094 3.492188 3.855469 C 3.820312 3.976562 4.097656 4.1875 4.300781 4.449219 C 4.503906 4.722656 4.609375 5.058594 4.625 5.394531 C 4.640625 5.835938 4.472656 6.277344 4.160156 6.613281 C 3.835938 6.945312 3.398438 7.144531 2.949219 7.160156 Z M 2.949219 7.160156 "/>
</g>
</svg>
