<svg version="1.2" xmlns="http://www.w3.org/2000/svg" viewBox="0 0 219 256" width="219" height="256">
	<title>jupyter-svg</title>
	<style>
		.s0 { fill: #4e4e4e } 
		.s1 { fill: #767677 } 
		.s2 { fill: #f37726 } 
		.s3 { fill: #9e9e9e } 
		.s4 { fill: #616262 } 
	</style>
	<g id="Canvas">
		<g id="Group">
			<g id="Group">
				<g id="Group">
					<g id="g">
						<g id="path">
							<g id="path9 fill">
								<path id="path0_fill" class="s0" d="m9.6 133.8c0 7.9-0.6 10.5-2.3 12.4-1.8 1.7-4.1 2.6-6.6 2.6l0.7 4.5c3.7 0.1 7.4-1.3 10.3-3.8 1.5-1.8 2.7-4 3.4-6.4 0.7-2.3 0.9-4.8 0.6-7.2v-30h-6.1v27.7z"/>
							</g>
						</g>
						<g id="path">
							<g id="path10 fill">
								<path id="path1_fill" class="s0" d="m54.9 130.2c0 3.4 0 6.5 0.3 9.1h-5.4l-0.4-5.4c-1.1 1.9-2.7 3.5-4.6 4.6-2 1-4.2 1.6-6.4 1.6-5.2 0-11.5-2.9-11.5-14.6v-19.3h6.1v18.1c0 6.3 1.9 10.5 7.4 10.5 1.1 0.1 2.3-0.2 3.3-0.6 1-0.4 2-1 2.8-1.8 0.8-0.8 1.4-1.8 1.8-2.8 0.5-1.1 0.7-2.2 0.7-3.3v-20.4h6.1v24.1z"/>
							</g>
						</g>
						<g id="path">
							<g id="path11 fill">
								<path id="path2_fill" fill-rule="evenodd" class="s0" d="m66.4 117c0-4.3 0-7.7-0.2-10.9h5.4l0.3 5.7c1.2-2 2.9-3.7 5-4.8 2.1-1.2 4.5-1.7 6.9-1.6 8 0 14.1 6.7 14.1 16.8 0 11.9-7.3 17.8-15.2 17.8-2 0.1-4-0.3-5.8-1.2-1.8-1-3.4-2.3-4.5-4v18.2h-6zm6 8.8q0 1.2 0.3 2.5c0.5 2 1.7 3.8 3.3 5 1.7 1.3 3.7 2 5.8 2 6.3 0 10.1-5.2 10.1-12.8 0-6.6-3.5-12.3-9.9-12.3-2.5 0.2-4.9 1.3-6.7 3.2-1.7 1.8-2.8 4.2-2.9 6.7z"/>
							</g>
						</g>
						<g id="path">
							<g id="path12 fill">
								<path id="path3_fill" class="s0" d="m108.7 106.1l7.3 19.6c0.8 2.2 1.6 4.8 2.2 6.7 0.6-1.9 1.3-4.5 2.1-6.9l6.6-19.4h6.4l-9.1 23.6c-4.5 11.4-7.3 17.2-11.4 20.8-2.1 1.9-4.7 3.2-7.5 3.9l-1.5-5.1c2-0.6 3.8-1.6 5.3-3 2.2-1.8 4-4.1 5.2-6.7q0.3-0.7 0.5-1.4-0.1-0.9-0.5-1.6l-12.3-30.6h6.6z"/>
							</g>
						</g>
						<g id="path">
							<g id="path13 fill">
								<path id="path4_fill" class="s0" d="m149.4 96.6v9.5h8.7v4.6h-8.7v17.9c0 4 1.2 6.4 4.6 6.4q1.8 0 3.5-0.4l0.3 4.5c-1.8 0.6-3.6 0.9-5.4 0.8-1.2 0.1-2.5-0.1-3.6-0.5-1.1-0.4-2.2-1.1-3-2-1.9-2.5-2.7-5.5-2.4-8.6v-18.2h-5.1v-4.5h5.2v-8.1z"/>
							</g>
						</g>
						<g id="path">
							<g id="path14 fill">
								<path id="path5_fill" fill-rule="evenodd" class="s0" d="m169.2 123.9h0.1q0 0 0-0.1zm0.8 4.3c0.5 1.5 1.4 2.8 2.4 3.9 1.1 1.1 2.4 1.9 3.9 2.4 1.4 0.6 3 0.8 4.5 0.7 3.1 0 6.2-0.5 9.1-1.8l1 4.6c-3.5 1.4-7.3 2.1-11.1 2-2.2 0.2-4.4-0.1-6.5-0.9-2.1-0.8-4-2.1-5.5-3.6-1.6-1.6-2.8-3.5-3.5-5.6-0.8-2.1-1.1-4.4-0.9-6.6 0-10 6-17.9 15.7-17.9 10.8 0 13.6 9.6 13.6 15.7q0 1.4 0 2.8h-23.4c0 1.4 0.2 2.9 0.7 4.3zm17.1-9.1c0.2-1.2 0.1-2.4-0.2-3.6-0.4-1.2-1-2.3-1.8-3.2-0.8-0.9-1.7-1.7-2.9-2.2-1.1-0.5-2.3-0.8-3.5-0.8-2.5 0.2-4.8 1.3-6.5 3.1-1.8 1.9-2.7 4.2-2.8 6.7z"/>
							</g>
						</g>
						<g id="path">
							<g id="path15 fill">
								<path id="path6_fill" class="s0" d="m201.8 116.4c0-3.9 0-7.2-0.2-10.3h5.4v6.5h0.3c0.6-2 1.7-3.8 3.4-5.1 1.6-1.3 3.6-2.1 5.7-2.2q0.8-0.1 1.7 0v5.7q-1.1-0.1-2.1 0c-2.1 0.1-4 0.9-5.5 2.3-1.5 1.4-2.4 3.4-2.6 5.4q-0.3 1.4-0.3 2.8v17.7h-6v-22.7z"/>
							</g>
						</g>
					</g>
				</g>
				<g id="g">
					<g id="path">
						<g id="path16 fill">
							<path id="path7_fill" class="s1" d="m199.2 14.9c0.2 3.1-0.6 6.1-2.1 8.8-1.5 2.6-3.8 4.7-6.6 6-2.7 1.4-5.8 1.8-8.8 1.4-3.1-0.4-5.9-1.8-8.1-3.8-2.3-2-3.9-4.7-4.7-7.7-0.7-2.9-0.6-6.1 0.5-8.9 1-2.9 2.9-5.4 5.3-7.2 2.5-1.8 5.4-2.9 8.5-3 2-0.1 4 0.2 5.9 0.8 1.9 0.7 3.6 1.7 5.1 3.1 1.5 1.3 2.7 2.9 3.5 4.8 0.9 1.8 1.4 3.7 1.5 5.7z"/>
						</g>
					</g>
					<g id="path">
						<g id="path17 fill">
							<path id="path8_fill" class="s2" d="m109.5 192.7c-40.8 0-76.6-14.6-95.2-36.3 7.2 19.5 20.2 36.3 37.2 48.2 17 11.8 37.3 18.2 58 18.2 20.8 0 41-6.4 58-18.2 17.1-11.9 30-28.7 37.2-48.2-18.5 21.7-54.2 36.3-95.2 36.3z"/>
						</g>
					</g>
					<g id="path">
						<g id="path18 fill">
							<path id="path9_fill" class="s2" d="m109.5 51.9c40.8 0 76.7 14.7 95.2 36.3-7.2-19.5-20.1-36.3-37.2-48.1-17-11.9-37.2-18.3-58-18.3-20.7 0-41 6.4-58 18.3-17 11.8-30 28.6-37.2 48.1 18.6-21.7 54.2-36.3 95.2-36.3z"/>
						</g>
					</g>
					<g id="path">
						<g id="path19 fill">
							<path id="path10_fill" class="s3" d="m53.4 234.9c0.2 3.8-0.7 7.6-2.7 11-1.9 3.3-4.8 6-8.2 7.6-3.5 1.7-7.4 2.3-11.2 1.8-3.8-0.6-7.3-2.2-10.2-4.8-2.9-2.6-4.9-5.9-5.8-9.7-1-3.7-0.8-7.6 0.5-11.3 1.3-3.6 3.7-6.7 6.7-9 3.1-2.3 6.8-3.6 10.7-3.8 2.5-0.1 5 0.2 7.4 1.1 2.4 0.8 4.6 2.1 6.4 3.8 1.9 1.7 3.4 3.7 4.5 6 1.1 2.3 1.7 4.7 1.9 7.3z"/>
						</g>
					</g>
					<g id="path">
						<g id="path20 fill">
							<path id="path11_fill" class="s4" d="m19 47c-2.2 0-4.4-0.6-6.3-1.7-1.8-1.2-3.3-2.9-4.2-4.9-0.9-2-1.2-4.2-0.9-6.4 0.4-2.2 1.4-4.2 2.9-5.8 1.5-1.6 3.4-2.8 5.6-3.3 2.1-0.5 4.4-0.3 6.4 0.4 2.1 0.8 3.9 2.2 5.2 3.9 1.3 1.8 2 4 2.1 6.2 0.1 2.9-1 5.8-3 8-2.1 2.2-4.9 3.5-7.8 3.6z"/>
						</g>
					</g>
				</g>
			</g>
		</g>
	</g>
</svg>