<svg version="1.2" xmlns="http://www.w3.org/2000/svg" viewBox="0 0 256 256" width="256" height="256">
	<title>keras-svg</title>
	<style>
		.s0 { fill: #ffffff } 
		.s1 { fill: #d00000 } 
	</style>
	<g id="Layer">
		<path id="Layer" class="s0" d="m256 256q0 0 0 0h-256q0 0 0 0v-256q0 0 0 0h256q0 0 0 0c0 0 0 256 0 256z"/>
	</g>
	<g id="Layer">
		<path id="Layer" class="s1" d="m251.7 251.7q0 0 0 0h-247.4q0 0 0 0v-247.4q0 0 0 0h247.4q0 0 0 0c0 0 0 247.4 0 247.4z"/>
	</g>
	<g id="Layer">
		<path id="Layer" class="s0" d="m71.8 195.2c0 0.2 0.1 0.5 0.3 0.6l4.2 4.3c0.1 0.1 0.4 0.2 0.6 0.2h14.5c0.2 0 0.4-0.1 0.5-0.2l4.3-4.3c0.1-0.1 0.2-0.4 0.2-0.6v-46c0-0.1 0.1-0.4 0.3-0.5l18.4-17.6c0.1-0.1 0.3-0.1 0.4 0l46.6 68.9c0.1 0.2 0.3 0.3 0.5 0.3h20.5c0.2 0 0.4-0.1 0.5-0.3l3.7-7.2c0.1-0.2 0.1-0.4 0-0.6l-54.4-78.9c-0.1-0.1-0.1-0.4 0-0.5l50.1-49.8c0.1-0.2 0.2-0.4 0.2-0.6v-0.9c0-0.2 0-0.5-0.1-0.7l-2.9-6.6c-0.1-0.2-0.3-0.3-0.5-0.3h-20.3c-0.2 0-0.4 0.1-0.6 0.2l-62.1 62.4c-0.2 0.2-0.3 0.1-0.3-0.1v-57.2c0-0.2-0.1-0.5-0.2-0.6l-4.2-4.5c-0.1-0.1-0.3-0.2-0.5-0.2h-14.6c-0.2 0-0.5 0.1-0.6 0.2l-4.3 4.6c-0.1 0.2-0.2 0.4-0.2 0.6v135.9z"/>
	</g>
</svg>