<svg version="1.2" xmlns="http://www.w3.org/2000/svg" viewBox="0 0 256 256" width="256" height="256">
	<title>keras-svg</title>
	<style>
		.s0 { fill: #ffffff } 
		.s1 { fill: #d00000 } 
	</style>
	<g id="Layer">
		<path id="Layer" class="s0" d="m260.4 260.4q0 0 0 0h-264.8q0 0 0 0v-264.8q0 0 0 0h264.8q0 0 0 0c0 0 0 264.8 0 264.8z"/>
	</g>
	<g id="Layer">
		<path id="Layer" class="s1" d="m256 256q0 0 0 0h-256q0 0 0 0v-256q0 0 0 0h256q0 0 0 0c0 0 0 256 0 256z"/>
	</g>
	<g id="Layer">
		<path id="Layer" class="s0" d="m69.9 197.6c0 0.2 0.1 0.4 0.2 0.6l4.4 4.3c0.2 0.2 0.4 0.3 0.6 0.3h15c0.2 0 0.5-0.1 0.6-0.3l4.4-4.3c0.1-0.2 0.2-0.4 0.2-0.6v-47.6c0-0.2 0.2-0.5 0.3-0.6l19-18.2c0.2-0.1 0.4-0.1 0.5 0l48.1 71.3c0.1 0.2 0.4 0.3 0.6 0.3h21.2c0.2 0 0.4-0.1 0.5-0.3l3.9-7.5c0.1-0.2 0.1-0.4-0.1-0.6l-56.3-81.6c-0.1-0.2 0-0.4 0.1-0.5l51.8-51.6c0.1-0.1 0.2-0.4 0.2-0.6v-0.9c0-0.2 0-0.5-0.1-0.7l-3-6.9c-0.1-0.1-0.3-0.3-0.5-0.3h-21c-0.2 0-0.5 0.1-0.6 0.3l-64.3 64.5c-0.1 0.2-0.3 0.1-0.3-0.1v-59.2c0-0.2-0.1-0.5-0.2-0.6l-4.3-4.6c-0.1-0.2-0.4-0.3-0.6-0.3h-15.1c-0.2 0-0.4 0.1-0.6 0.3l-4.4 4.7c-0.1 0.2-0.2 0.4-0.2 0.6v140.7z"/>
	</g>
</svg>