<?xml version="1.0" encoding="UTF-8"?>
<svg xmlns="http://www.w3.org/2000/svg" xmlns:xlink="http://www.w3.org/1999/xlink" width="px" height="40px" viewBox="0 0 40 40" version="1.1">
<g id="surface1">
<path style=" stroke:none;fill-rule:nonzero;fill:rgb(100%,100%,100%);fill-opacity:1;" d="M 40 40 L 0 40 L 0 0 L 40 0 C 40 0 40 40 40 40 Z M 40 40 "/>
<path style=" stroke:none;fill-rule:nonzero;fill:rgb(81.568629%,0%,0%);fill-opacity:1;" d="M 39.328125 39.328125 L 0.671875 39.328125 L 0.671875 0.671875 L 39.328125 0.671875 C 39.328125 0.671875 39.328125 39.328125 39.328125 39.328125 Z M 39.328125 39.328125 "/>
<path style=" stroke:none;fill-rule:nonzero;fill:rgb(100%,100%,100%);fill-opacity:1;" d="M 11.21875 30.5 C 11.21875 30.53125 11.234375 30.578125 11.265625 30.59375 L 11.921875 31.265625 C 11.9375 31.28125 11.984375 31.296875 12.015625 31.296875 L 14.28125 31.296875 C 14.3125 31.296875 14.34375 31.28125 14.359375 31.265625 L 15.03125 30.59375 C 15.046875 30.578125 15.0625 30.53125 15.0625 30.5 L 15.0625 23.3125 C 15.0625 23.296875 15.078125 23.25 15.109375 23.234375 L 17.984375 20.484375 C 18 20.46875 18.03125 20.46875 18.046875 20.484375 L 25.328125 31.25 C 25.34375 31.28125 25.375 31.296875 25.40625 31.296875 L 28.609375 31.296875 C 28.640625 31.296875 28.671875 31.28125 28.6875 31.25 L 29.265625 30.125 C 29.28125 30.09375 29.28125 30.0625 29.265625 30.03125 L 20.765625 17.703125 C 20.75 17.6875 20.75 17.640625 20.765625 17.625 L 28.59375 9.84375 C 28.609375 9.8125 28.625 9.78125 28.625 9.75 L 28.625 9.609375 C 28.625 9.578125 28.625 9.53125 28.609375 9.5 L 28.15625 8.46875 C 28.140625 8.4375 28.109375 8.421875 28.078125 8.421875 L 24.90625 8.421875 C 24.875 8.421875 24.84375 8.4375 24.8125 8.453125 L 15.109375 18.203125 C 15.078125 18.234375 15.0625 18.21875 15.0625 18.1875 L 15.0625 9.25 C 15.0625 9.21875 15.046875 9.171875 15.03125 9.15625 L 14.375 8.453125 C 14.359375 8.4375 14.328125 8.421875 14.296875 8.421875 L 12.015625 8.421875 C 11.984375 8.421875 11.9375 8.4375 11.921875 8.453125 L 11.25 9.171875 C 11.234375 9.203125 11.21875 9.234375 11.21875 9.265625 Z M 11.21875 30.5 "/>
</g>
</svg>
