<svg version="1.2" xmlns="http://www.w3.org/2000/svg" viewBox="0 0 264 256" width="264" height="256">
	<title>kubernetes-svg</title>
	<style>
		.s0 { fill: #326ce5;stroke: #ffffff;stroke-width: .1 } 
		.s1 { fill: #ffffff;stroke: #ffffff;stroke-width: .1 } 
	</style>
	<g id="layer1">
		<g id="g3052">
			<path id="path3055" class="s0" d="m130.9 0q-0.9 0.1-1.8 0.2-0.8 0.1-1.7 0.3-0.8 0.3-1.6 0.5-0.9 0.3-1.6 0.7l-91.7 43.8q-1.8 0.8-3.3 2-1.5 1.3-2.8 2.8-1.2 1.5-2.1 3.3-0.8 1.8-1.3 3.7l-22.6 98.3q-0.4 1.7-0.4 3.4 0 1.7 0.3 3.5 0.3 1.7 0.9 3.3 0.7 1.6 1.6 3.1 0.1 0.2 0.3 0.3 0.1 0.2 0.2 0.4 0.1 0.2 0.3 0.3 0.1 0.2 0.2 0.4l63.4 78.8q1.3 1.5 2.8 2.7 1.6 1.2 3.3 2.1 1.8 0.8 3.7 1.3 2 0.4 3.9 0.4h101.7q2 0 3.9-0.4 2-0.5 3.7-1.3 1.8-0.9 3.4-2.1 1.5-1.2 2.7-2.7l63.4-78.9q1.3-1.5 2.1-3.3 0.9-1.7 1.3-3.6 0.5-1.9 0.5-3.9 0-2-0.5-3.9l-22.6-98.3q-0.5-1.9-1.3-3.6-0.9-1.8-2.1-3.3-1.2-1.6-2.8-2.8-1.5-1.2-3.3-2l-91.6-43.8q-1-0.5-2.1-0.8-1-0.3-2.1-0.6-1-0.2-2.1-0.3-1.1 0-2.2 0z"/>
			<path id="path3059" fill-rule="evenodd" class="s1" d="m137.3 39.6c0 0.4 0 1.1 0 1.5-0.1 2-0.5 3.4-0.8 5.2-0.4 3.9-0.8 7-0.6 10 0.2 1.5 1.1 2 1.8 2.7 0 0.4 0.1 1.7 0.1 2.5 17.5 1.5 33.7 9.5 45.6 22l2-1.5c0.7 0 2.3 0.2 3.4-0.4 2.4-1.6 4.7-3.9 7.4-6.7 1.2-1.3 2.1-2.5 3.6-3.8 0.3-0.3 0.8-0.7 1.2-1 2.6-2.1 6.3-1.9 8.2 0.5 1.9 2.4 1.3 6-1.4 8.1-0.3 0.3-0.8 0.7-1.2 1-1.5 1.1-3 1.7-4.5 2.6-3.3 2-6 3.7-8.2 5.7-1 1.1-0.9 2.2-1 3.1-0.3 0.3-1.4 1.3-2 1.8 4.8 7 8.3 15 10.3 23.7 2 8.7 2.3 17.3 1.2 25.6l2.2 0.7c0.4 0.5 1.2 1.9 2.3 2.4 2.9 0.8 6 1.2 9.9 1.6 1.8 0.1 3.3 0 5.2 0.4 0.5 0.1 1.2 0.3 1.6 0.4 3.3 0.7 5.3 3.7 4.7 6.6-0.7 3-3.9 4.7-7.1 4q0 0-0.1 0 0 0-0.1 0c-0.4-0.1-1-0.2-1.4-0.3-1.9-0.5-3.2-1.3-4.9-1.9-3.7-1.3-6.7-2.4-9.6-2.8-1.5-0.1-2.2 0.6-3.1 1.1-0.4-0.1-1.6-0.3-2.3-0.4-5.3 16.5-16.5 30.8-31.6 39.8 0.2 0.6 0.7 1.9 0.9 2.2-0.4 0.9-0.9 1.8-0.4 3.2 1 2.8 2.7 5.5 4.8 8.7 1 1.5 2.1 2.7 3 4.4 0.2 0.4 0.5 1 0.7 1.5 1.4 3 0.4 6.4-2.3 7.8-2.8 1.3-6.2-0.1-7.6-3.2-0.2-0.4-0.5-1-0.7-1.4-0.8-1.7-1.1-3.3-1.6-5-1.3-3.6-2.3-6.7-3.8-9.2-0.8-1.2-1.8-1.4-2.8-1.7-0.1-0.3-0.8-1.5-1.1-2.1q-4.6 1.7-9.4 2.8c-14.3 3.3-28.5 1.9-41.3-2.9l-1.2 2.2c-0.9 0.3-1.8 0.5-2.4 1.2-2 2.3-2.8 6.2-4.2 9.8-0.6 1.7-0.8 3.3-1.6 5-0.2 0.4-0.5 1-0.7 1.4q0 0 0 0 0 0 0 0.1c-1.4 3-4.8 4.4-7.5 3-2.8-1.3-3.8-4.7-2.4-7.7 0.2-0.5 0.5-1.1 0.7-1.5 0.9-1.7 2-2.9 3-4.4 2-3.2 3.9-6.2 4.9-8.9 0.3-0.9-0.1-2.2-0.5-3.1l1-2.4c-14.6-8.7-26.1-22.4-31.6-39.5l-2.4 0.4c-0.6-0.3-1.9-1.2-3.1-1.1-3 0.4-6 1.5-9.6 2.8-1.7 0.7-3 1.4-4.9 1.9-0.4 0.1-1 0.2-1.4 0.3q-0.1 0-0.1 0.1-0.1 0-0.1 0c-3.3 0.7-6.4-1.1-7.1-4-0.7-3 1.4-5.9 4.6-6.7q0.1 0 0.1 0 0 0 0.1 0c0.4-0.1 1-0.3 1.4-0.4 1.9-0.3 3.5-0.3 5.3-0.4 3.8-0.4 7-0.7 9.8-1.6 0.9-0.4 1.8-1.6 2.4-2.4l2.3-0.7c-2.6-17.8 1.8-35.3 11.2-49.4l-1.8-1.6c-0.1-0.7-0.2-2.3-1.1-3.1-2.1-2.1-4.9-3.8-8.1-5.8-1.6-0.9-3-1.5-4.6-2.6-0.3-0.3-0.8-0.7-1.1-0.9q-0.1-0.1-0.1-0.1c-2.6-2.1-3.2-5.7-1.4-8.1 1.1-1.3 2.7-2 4.4-1.9 1.3 0 2.7 0.5 3.8 1.4 0.4 0.3 0.9 0.7 1.3 1 1.4 1.3 2.3 2.5 3.6 3.8 2.7 2.8 4.9 5 7.4 6.7 1.2 0.7 2.2 0.4 3.2 0.3 0.3 0.2 1.4 1 2 1.4 9.3-9.9 21.6-17.2 35.8-20.4q5-1.2 9.9-1.6l0.2-2.3c0.7-0.7 1.5-1.7 1.8-2.8 0.2-3-0.2-6.1-0.7-10-0.2-1.8-0.6-3.2-0.7-5.2 0-0.4 0-0.9 0-1.4q0-0.1 0-0.1c0-3.4 2.4-6.1 5.5-6.1 3 0 5.5 2.7 5.5 6.1zm-18.2 37.4c-10.7 2.4-20 7.7-27.2 14.8l23.5 16.7h0.1c0.8 0.6 1.8 0.9 2.8 0.9 2.6 0 4.8-2 4.9-4.6l0.1-0.1 1.6-28.7q-2.9 0.3-5.8 1zm21.2 27.7c0.1 1 0.4 2 1.1 2.8 1.6 2 4.5 2.4 6.6 0.9h0.1l23.4-16.6c-8.8-8.6-20.4-14.3-32.8-15.8zm-65 33.6l27.6-8v-0.1c0.9-0.2 1.8-0.8 2.5-1.6 1.6-2.1 1.3-5-0.6-6.7v-0.1l-21.5-19.3c-6.4 10.5-9.5 22.9-8 35.8zm83.4-16.6v0.1c-0.8 0.6-1.3 1.5-1.6 2.5-0.5 2.6 1 5.1 3.5 5.8v0.1l27.7 8c0.6-6 0.3-12.2-1.2-18.4-1.4-6.3-3.8-12.1-7-17.2 0 0-21.4 19.1-21.4 19.1zm-36.9 8.4l2 8.6 7.9 3.8 8-3.8 1.9-8.6-5.4-6.8h-8.9zm32 17.1c-2.4 1.1-3.4 3.9-2.4 6.2v0.1l11.1 26.8c10.7-6.8 18.7-17 22.8-28.7l-28.5-4.9-0.1 0.1q-0.5-0.1-1.1-0.1-0.9 0-1.8 0.5zm-47.1-0.3v-0.1l-28.4 4.8c4.4 12.1 12.6 22 22.8 28.6l11-26.5-0.1-0.1c0.4-1 0.5-2 0.3-3-0.5-2.2-2.5-3.8-4.6-3.8q-0.5 0-1 0.1zm20.8 14.1l-14 25.1c9.7 3.3 20.3 4.1 31 1.6q2.8-0.6 5.6-1.5l-14-25.2h-0.1c-0.5-0.9-1.2-1.6-2.2-2.1q-1.1-0.5-2.2-0.5c-1.7 0.1-3.3 1-4.1 2.6z"/>
		</g>
	</g>
</svg>