<svg version="1.2" xmlns="http://www.w3.org/2000/svg" viewBox="0 0 264 256" width="264" height="256">
	<title>kubernetes-svg</title>
	<style>
		.s0 { fill: #326ce5;stroke: #ffffff;stroke-width: .1 } 
		.s1 { fill: #ffffff;stroke: #ffffff;stroke-width: .1 } 
	</style>
	<g id="layer1">
		<g id="g3052">
			<path id="path3055" class="s0" d="m131.1 0.4q-0.9 0-1.8 0.2-0.8 0.1-1.7 0.3-0.8 0.2-1.6 0.5-0.9 0.3-1.6 0.7l-91.5 43.8q-1.8 0.8-3.4 2-1.5 1.2-2.7 2.8-1.3 1.5-2.1 3.3-0.9 1.7-1.3 3.6l-22.6 98.3q-0.4 1.7-0.4 3.5-0.1 1.7 0.2 3.4 0.3 1.7 1 3.4 0.6 1.6 1.6 3.1 0.1 0.1 0.2 0.3 0.1 0.2 0.3 0.4 0.1 0.1 0.2 0.3 0.2 0.2 0.3 0.3l63.3 78.9q1.2 1.5 2.8 2.7 1.5 1.2 3.3 2.1 1.8 0.8 3.7 1.3 1.9 0.4 3.9 0.4h101.6q1.9 0 3.9-0.5 1.9-0.4 3.6-1.2 1.8-0.9 3.4-2.1 1.5-1.2 2.7-2.8l63.3-78.8q1.3-1.5 2.1-3.3 0.9-1.7 1.3-3.7 0.5-1.9 0.5-3.8 0-2-0.5-3.9l-22.6-98.3q-0.4-1.9-1.3-3.7-0.8-1.7-2.1-3.2-1.2-1.6-2.7-2.8-1.6-1.2-3.3-2.1l-91.6-43.7q-0.9-0.5-2-0.8-1-0.4-2.1-0.6-1.1-0.2-2.2-0.3-1-0.1-2.1 0z"/>
			<path id="path3059" fill-rule="evenodd" class="s1" d="m140.8 43.3c0 0.5 0 1.1 0 1.6 0 1.9-0.5 3.4-0.7 5.2-0.5 3.8-0.9 7-0.6 9.9 0.2 1.5 1 2.1 1.7 2.8 0.1 0.4 0.1 1.7 0.2 2.4 17.4 1.6 33.6 9.5 45.4 22l2.1-1.5c0.7 0.1 2.3 0.3 3.3-0.3 2.5-1.7 4.7-4 7.4-6.7 1.3-1.4 2.2-2.6 3.6-3.9 0.4-0.3 0.9-0.6 1.3-0.9 2.6-2.1 6.2-1.9 8.1 0.5 1.9 2.3 1.3 5.9-1.3 8-0.4 0.3-0.9 0.7-1.2 1-1.6 1.2-3 1.7-4.6 2.7-3.3 2-6 3.7-8.1 5.7-1 1.1-1 2.1-1 3.1-0.4 0.3-1.4 1.2-2 1.7 4.7 7.1 8.3 15.1 10.3 23.8 2 8.6 2.3 17.3 1.1 25.6l2.2 0.6c0.4 0.6 1.2 2 2.4 2.4 2.8 0.9 6 1.2 9.8 1.6 1.8 0.2 3.4 0.1 5.3 0.4 0.4 0.1 1.1 0.3 1.6 0.4 3.2 0.8 5.3 3.8 4.6 6.7-0.7 2.9-3.8 4.7-7.1 4q0 0-0.1 0 0 0-0.1-0.1c-0.4-0.1-1-0.2-1.4-0.3-1.9-0.5-3.2-1.2-4.9-1.9-3.6-1.3-6.6-2.3-9.5-2.8-1.5-0.1-2.3 0.6-3.1 1.2-0.4-0.1-1.6-0.3-2.4-0.4-5.2 16.5-16.4 30.8-31.5 39.7 0.2 0.6 0.7 2 0.9 2.2-0.4 1-0.9 1.8-0.4 3.3 1 2.7 2.8 5.4 4.8 8.7 1 1.5 2.1 2.6 3 4.3 0.2 0.4 0.5 1.1 0.7 1.5 1.4 3 0.4 6.5-2.4 7.8-2.7 1.3-6.1-0.1-7.5-3.1-0.2-0.4-0.5-1-0.7-1.4-0.8-1.8-1-3.3-1.6-5-1.2-3.7-2.3-6.7-3.8-9.3-0.8-1.2-1.8-1.3-2.7-1.7-0.2-0.3-0.9-1.4-1.2-2.1q-4.6 1.8-9.4 2.9c-14.2 3.2-28.5 1.9-41.2-3l-1.2 2.3c-0.9 0.2-1.8 0.5-2.4 1.1-2 2.4-2.8 6.2-4.2 9.9-0.5 1.7-0.8 3.2-1.6 5-0.2 0.4-0.4 0.9-0.7 1.4q0 0 0 0 0 0 0 0c-1.4 3-4.8 4.4-7.5 3.1-2.7-1.3-3.8-4.8-2.4-7.8 0.3-0.4 0.5-1.1 0.7-1.5 1-1.7 2-2.9 3-4.4 2.1-3.2 3.9-6.1 4.9-8.9 0.3-0.9-0.1-2.1-0.4-3.1l0.9-2.4c-14.5-8.6-26-22.4-31.5-39.4l-2.4 0.4c-0.7-0.4-2-1.2-3.2-1.1-2.9 0.4-5.9 1.5-9.5 2.8-1.7 0.6-3.1 1.4-4.9 1.9-0.4 0.1-1 0.2-1.5 0.3q0 0-0.1 0 0 0 0 0c-3.3 0.7-6.4-1.1-7.1-4-0.7-2.9 1.4-5.9 4.6-6.7q0.1 0 0.1 0 0 0 0.1 0c0.4-0.1 1-0.3 1.4-0.3 1.9-0.4 3.5-0.3 5.3-0.5 3.8-0.4 7-0.7 9.8-1.6 0.9-0.3 1.7-1.6 2.3-2.3l2.3-0.7c-2.5-17.8 1.8-35.3 11.2-49.5l-1.7-1.5c-0.2-0.7-0.3-2.3-1.1-3.2-2.2-2-4.9-3.7-8.2-5.7-1.5-0.9-3-1.5-4.5-2.7-0.4-0.2-0.8-0.6-1.2-0.9q0 0 0-0.1c-2.7-2.1-3.3-5.7-1.4-8 1.1-1.4 2.7-2 4.4-2 1.3 0.1 2.6 0.5 3.8 1.5 0.4 0.3 0.9 0.7 1.2 0.9 1.5 1.3 2.4 2.6 3.6 3.9 2.7 2.7 4.9 5 7.4 6.6 1.3 0.8 2.3 0.5 3.2 0.4 0.4 0.2 1.4 1 2 1.4 9.3-9.9 21.6-17.3 35.8-20.5q5-1.1 9.9-1.5l0.1-2.3c0.8-0.7 1.6-1.8 1.8-2.9 0.3-2.9-0.1-6.1-0.6-9.9-0.2-1.8-0.7-3.3-0.7-5.2-0.1-0.4 0-1 0-1.4q0-0.1 0-0.2c0-3.4 2.4-6.1 5.4-6.1 3.1 0 5.5 2.7 5.5 6.1zm-18.2 37.4c-10.6 2.5-19.9 7.7-27.1 14.9l23.5 16.7h0.1c0.8 0.5 1.7 0.9 2.8 0.9 2.6 0 4.7-2.1 4.8-4.6l0.2-0.1 1.6-28.8q-2.9 0.4-5.9 1zm21.2 27.7l0.1 0.1c0 0.9 0.3 1.9 1 2.8 1.6 2 4.6 2.4 6.6 0.9h0.1l23.4-16.6c-8.8-8.7-20.3-14.3-32.8-15.9zm-64.9 33.6l27.6-7.9v-0.1c0.9-0.3 1.8-0.8 2.5-1.7 1.6-2 1.3-4.9-0.6-6.6v-0.1l-21.5-19.3c-6.4 10.4-9.4 22.9-8 35.7zm83.3-16.5c-0.8 0.7-1.3 1.6-1.5 2.6-0.6 2.5 0.9 5.1 3.4 5.7v0.2l27.7 7.9c0.6-5.9 0.2-12.1-1.2-18.3-1.4-6.3-3.8-12.1-7-17.3 0 0-21.4 19.2-21.4 19.2zm-36.8 8.4l2 8.5 7.9 3.8 7.9-3.8 2-8.5-5.5-6.9h-8.8zm31.9 17.1c-2.4 1.2-3.4 3.9-2.4 6.3l11.1 26.8c10.7-6.8 18.6-17 22.8-28.7l-28.5-4.8h-0.1q-0.5-0.1-1.1-0.1-0.9 0.1-1.8 0.5zm-47-0.3h-0.1l-28.2 4.8c4.3 12.1 12.5 21.9 22.7 28.5l11-26.5-0.1-0.1c0.4-0.9 0.5-1.9 0.3-3-0.5-2.2-2.5-3.7-4.7-3.7q-0.4 0-0.9 0zm20.7 14.1l-13.9 25.2c9.6 3.3 20.3 4 30.9 1.6q2.9-0.7 5.6-1.6l-13.9-25.2h-0.2c-0.4-0.9-1.2-1.6-2.1-2q-1.1-0.6-2.3-0.5c-1.6 0-3.2 1-4.1 2.5z"/>
		</g>
	</g>
</svg>