<svg version="1.2" xmlns="http://www.w3.org/2000/svg" viewBox="0 0 405 256" width="405" height="256">
	<title>markdown-svg</title>
	<style>
		.s0 { fill: #ffffff } 
		.s1 { fill: #000000 } 
	</style>
	<path id="Layer 1" class="s0" d="m0 35c0-19.3 15.7-35 35-35h335c19.3 0 35 15.7 35 35v186c0 19.3-15.7 35-35 35h-335c-19.3 0-35-15.7-35-35z"/>
	<path id="Layer" fill-rule="evenodd" class="s1" d="m2 36.5c0-19.1 15.4-34.5 34.5-34.5h332c19.1 0 34.5 15.4 34.5 34.5v183c0 19.1-15.4 34.5-34.5 34.5h-332c-19.1 0-34.5-15.4-34.5-34.5zm30.5 183.2c0 2.2 1.8 4 4 4h332c2.2 0 4-1.8 4-4v-183.4c0-2.2-1.8-4-4-4h-332c-2.2 0-4 1.8-4 4z"/>
	<path id="Layer" class="s1" d="m63.7 192.9v-129h37.5l37.5 47.4 37.6-47.4h37.5v129h-37.5v-73.9l-37.6 47.4-37.5-47.4v73.9zm234.5 0l-56.2-62.6h37.6v-66.4h37.4v66.4h37.6z"/>
</svg>