<svg version="1.2" xmlns="http://www.w3.org/2000/svg" viewBox="0 0 404 256" width="404" height="256">
	<title>markdown-svg</title>
	<style>
		.s0 { fill: #ffffff;stroke: #ffffff;paint-order:stroke fill markers;stroke-linejoin: round;stroke-width: 6 } 
		.s1 { fill: #000000;stroke: #ffffff;paint-order:stroke fill markers;stroke-linejoin: round;stroke-width: 6 } 
	</style>
	<path id="Shape 1" class="s0" d="m23 21h357v215h-357z"/>
	<path id="Layer" fill-rule="evenodd" class="s1" d="m368.7 1.4c18.7 0 34 15.6 34 34.2v185.6c0 18.6-15.3 34.2-34 34.2h-333.4c-18.7 0-34-15.6-34-34.2v-185.6c0-18.6 15.3-34.2 34-34.2zm-336.9 221.4c0 1.1 0.9 2 2 2h336.4c1.1 0 2-0.9 2-2v-188.8c0-1.1-0.9-2-2-2h-336.4c-1.1 0-2 0.9-2 2z"/>
	<path id="Layer" class="s1" d="m63.4 192.8v-128.8h37.5l37.4 47.4 37.5-47.4h37.4v128.8h-37.4v-73.9l-37.5 47.4-37.5-47.4v73.9zm234.1 0l-56.2-62.5h37.5v-66.3h37.5v66.3h37.4z"/>
</svg>