<svg version="1.2" xmlns="http://www.w3.org/2000/svg" viewBox="0 0 191 256" width="191" height="256">
	<title>maven-svg</title>
	<defs>
		<linearGradient id="g1" x2="1" gradientUnits="userSpaceOnUse" gradientTransform="matrix(31.709,-40.227,36.437,28.722,-0.653,3.782)">
			<stop offset="0" stop-color="#f69923"/>
			<stop offset=".312" stop-color="#f79a23"/>
			<stop offset=".838" stop-color="#e97826"/>
		</linearGradient>
		<linearGradient id="g2" x2="1" gradientUnits="userSpaceOnUse" gradientTransform="matrix(-46.194,-232.978,78.421,-15.549,42.946,246.312)">
			<stop offset=".323" stop-color="#9e2064"/>
			<stop offset=".63" stop-color="#c92037"/>
			<stop offset=".751" stop-color="#cd2335"/>
			<stop offset="1" stop-color="#e97826"/>
		</linearGradient>
		<linearGradient id="g3" x2="1" gradientUnits="userSpaceOnUse" gradientTransform="matrix(-27.527,-138.832,72.823,-14.439,60.762,213.545)">
			<stop offset="0" stop-color="#282662"/>
			<stop offset=".095" stop-color="#662e8d"/>
			<stop offset=".788" stop-color="#9f2064"/>
			<stop offset=".949" stop-color="#cd2032"/>
		</linearGradient>
		<linearGradient id="g4" x2="1" gradientUnits="userSpaceOnUse" gradientTransform="matrix(2006.892,0,0,5150.299,-68185.145,18994.135)">
			<stop offset=".323" stop-color="#9e2064"/>
			<stop offset=".63" stop-color="#c92037"/>
			<stop offset=".751" stop-color="#cd2335"/>
			<stop offset="1" stop-color="#e97826"/>
		</linearGradient>
		<linearGradient id="g5" x2="1" gradientUnits="userSpaceOnUse" gradientTransform="matrix(1054.675,0,0,2028.177,-68038.775,18966.619)">
			<stop offset="0" stop-color="#282662"/>
			<stop offset=".095" stop-color="#662e8d"/>
			<stop offset=".788" stop-color="#9f2064"/>
			<stop offset=".949" stop-color="#cd2032"/>
		</linearGradient>
		<linearGradient id="g6" x2="1" gradientUnits="userSpaceOnUse" gradientTransform="matrix(2006.892,0,0,5799.734,-68185.145,18786.295)">
			<stop offset=".323" stop-color="#9e2064"/>
			<stop offset=".63" stop-color="#c92037"/>
			<stop offset=".751" stop-color="#cd2335"/>
			<stop offset="1" stop-color="#e97826"/>
		</linearGradient>
		<linearGradient id="g7" x2="1" gradientUnits="userSpaceOnUse" gradientTransform="matrix(2006.892,0,0,5121.034,-68309.64,18796.362)">
			<stop offset=".323" stop-color="#9e2064"/>
			<stop offset=".63" stop-color="#c92037"/>
			<stop offset=".751" stop-color="#cd2335"/>
			<stop offset="1" stop-color="#e97826"/>
		</linearGradient>
		<linearGradient id="g8" x2="1" gradientUnits="userSpaceOnUse" gradientTransform="matrix(2006.892,0,0,2027.203,-68185.145,18724.036)">
			<stop offset=".323" stop-color="#9e2064"/>
			<stop offset=".63" stop-color="#c92037"/>
			<stop offset=".751" stop-color="#cd2335"/>
			<stop offset="1" stop-color="#e97826"/>
		</linearGradient>
		<linearGradient id="g9" x2="1" gradientUnits="userSpaceOnUse" gradientTransform="matrix(2006.892,0,0,1841.063,-68185.145,18731.345)">
			<stop offset=".323" stop-color="#9e2064"/>
			<stop offset=".63" stop-color="#c92037"/>
			<stop offset=".751" stop-color="#cd2335"/>
			<stop offset="1" stop-color="#e97826"/>
		</linearGradient>
		<linearGradient id="g10" x2="1" gradientUnits="userSpaceOnUse" gradientTransform="matrix(57.655,-7.165,6.508,52.365,139.497,19.196)">
			<stop offset="0" stop-color="#f69923"/>
			<stop offset=".312" stop-color="#f79a23"/>
			<stop offset=".838" stop-color="#e97826"/>
		</linearGradient>
		<linearGradient id="g11" x2="1" gradientUnits="userSpaceOnUse" gradientTransform="matrix(148.624,-224.944,75.437,49.842,-18.778,249.785)">
			<stop offset=".323" stop-color="#9e2064"/>
			<stop offset=".63" stop-color="#c92037"/>
			<stop offset=".751" stop-color="#cd2335"/>
			<stop offset="1" stop-color="#e97826"/>
		</linearGradient>
		<linearGradient id="g12" x2="1" gradientUnits="userSpaceOnUse" gradientTransform="matrix(88.566,-134.045,70.238,46.407,21.761,237.568)">
			<stop offset="0" stop-color="#282662"/>
			<stop offset=".095" stop-color="#662e8d"/>
			<stop offset=".788" stop-color="#9f2064"/>
			<stop offset=".949" stop-color="#cd2032"/>
		</linearGradient>
		<linearGradient id="g13" x2="1" gradientUnits="userSpaceOnUse" gradientTransform="matrix(148.51,-224.772,45.749,30.227,-12.456,235.692)">
			<stop offset=".323" stop-color="#9e2064"/>
			<stop offset=".63" stop-color="#c92037"/>
			<stop offset=".751" stop-color="#cd2335"/>
			<stop offset="1" stop-color="#e97826"/>
		</linearGradient>
		<linearGradient id="g14" x2="1" gradientUnits="userSpaceOnUse" gradientTransform="matrix(78.046,-118.124,39.462,26.073,1.455,221.364)">
			<stop offset="0" stop-color="#282662"/>
			<stop offset=".095" stop-color="#662e8d"/>
			<stop offset=".788" stop-color="#9f2064"/>
			<stop offset=".949" stop-color="#cd2032"/>
		</linearGradient>
		<linearGradient id="g15" x2="1" gradientUnits="userSpaceOnUse" gradientTransform="matrix(148.624,-224.944,62.226,41.114,10.747,251.159)">
			<stop offset=".323" stop-color="#9e2064"/>
			<stop offset=".63" stop-color="#c92037"/>
			<stop offset=".751" stop-color="#cd2335"/>
			<stop offset="1" stop-color="#e97826"/>
		</linearGradient>
		<linearGradient id="g16" x2="1" gradientUnits="userSpaceOnUse" gradientTransform="matrix(148.624,-224.944,96.181,63.548,.407,264.367)">
			<stop offset=".323" stop-color="#9e2064"/>
			<stop offset=".63" stop-color="#c92037"/>
			<stop offset=".751" stop-color="#cd2335"/>
			<stop offset="1" stop-color="#e97826"/>
		</linearGradient>
		<linearGradient id="g17" x2="1" gradientUnits="userSpaceOnUse" gradientTransform="matrix(148.624,-224.944,340.456,224.944,17.715,255.766)">
			<stop offset=".323" stop-color="#9e2064"/>
			<stop offset=".63" stop-color="#c92037"/>
			<stop offset=".751" stop-color="#cd2335"/>
			<stop offset="1" stop-color="#e97826"/>
		</linearGradient>
		<linearGradient id="g18" x2="1" gradientUnits="userSpaceOnUse" gradientTransform="matrix(174.169,-263.607,398.972,263.607,4.125,279.633)">
			<stop offset=".323" stop-color="#9e2064"/>
			<stop offset=".63" stop-color="#c92037"/>
			<stop offset=".751" stop-color="#cd2335"/>
			<stop offset="1" stop-color="#e97826"/>
		</linearGradient>
	</defs>
	<style>
		.s0 { fill: url(#g1) } 
		.s1 { fill: none } 
		.s2 { fill: #be202e } 
		.s3 { opacity: .3;fill: #be202e } 
		.s4 { fill: url(#g2) } 
		.s5 { fill: url(#g3) } 
		.s6 { fill: url(#g4) } 
		.s7 { fill: url(#g5) } 
		.s8 { fill: url(#g6) } 
		.s9 { fill: url(#g7) } 
		.s10 { fill: url(#g8) } 
		.s11 { fill: url(#g9) } 
		.s12 { fill: url(#g10) } 
		.s13 { fill: url(#g11) } 
		.s14 { fill: url(#g12) } 
		.s15 { fill: url(#g13) } 
		.s16 { fill: url(#g14) } 
		.s17 { fill: url(#g15) } 
		.s18 { fill: url(#g16) } 
		.s19 { fill: url(#g17) } 
		.s20 { fill: url(#g18) } 
	</style>
	<path id="Layer" class="s0" d="m4.3 6q-0.8 2.9-1.5 5.9-0.7 3-1.1 6-0.5 3.1-0.7 6.1-0.3 3.1-0.3 6.2l13 6.2q-0.1-2.8-0.1-5.7 0-2.9 0.1-5.8 0.1-2.9 0.3-5.8 0.3-2.9 0.6-5.8c0-0.5 0.1-0.8 0.1-0.8 0 0.3-0.1 0.5-0.1 0.8q-0.2 2.9-0.4 5.7-0.1 2.9-0.1 5.7 0 2.9 0.1 5.7 0.1 2.9 0.4 5.7 2.5-2.1 4.9-4.3 2.5-2.2 4.9-4.5 2.4-2.3 4.8-4.6 2.3-2.4 4.6-4.8-1-2.5-2.4-4.8-1.5-2.4-3.3-4.4-1.9-1.9-4.1-3.5-2.2-1.6-4.7-2.8c-1.7-0.7-11.5-4.6-15 3.6z"/>
	<path id="Layer" fill-rule="evenodd" class="s1" d="m38.1 71.4q0 0 0 0 0 0 0.1 0 0 0 0-0.1 0 0 0 0l-0.7 0.7c0 0-0.1 0.1-0.1 0.1z"/>
	<path id="Layer" fill-rule="evenodd" class="s1" d="m46 93.9c-0.3 0.4-0.7 0.8-1.1 1.2 0.4-0.4 0.8-0.8 1.1-1.2z"/>
	<path id="Layer" fill-rule="evenodd" class="s1" d="m38.6 162.9c0-0.2-0.2-0.4-0.2-0.6-1.1-4-2.2-7.9-3.2-11.8q-1.7-6.5-3.3-12.6c-1.1-4.4-2.1-8.6-3-12.6-1.1-4.3-2-8.5-2.9-12.5q-1-4.9-2-9.5-0.3-1.6-0.6-3.1c-0.4-2-0.8-3.9-1.1-5.9-0.4-1.9-0.7-3.5-1-5.2q-0.2-0.9-0.3-1.7l-0.1-0.3-0.6 0.6-1.3-0.7q0 0.2 0.1 0.5c0.4 2.5 0.9 5.2 1.4 7.8 0.2 1.5 0.5 3 0.8 4.6 0.8 4.2 1.7 8.4 2.6 12.6 0.9 4.3 1.8 8.6 2.8 12.8 1 4.2 1.9 8.3 2.9 12.4 1 4.2 2.1 8.2 3.1 12.3q1.6 6.4 3.3 12.5c0.3 0.9 0.5 1.9 0.8 2.7 0.9 3.4 1.8 6.6 2.7 9.8l2.1 1 0.7-0.6q0 0 0-0.1 0 0 0 0 0-0.1 0-0.1-0.1 0-0.1 0c-1.3-4.1-2.5-8.3-3.6-12.3z"/>
	<path id="Layer" class="s2" d="m49.3 105.8q-0.9 1-1.8 1.9c0.3-0.3 0.6-0.7 0.9-1q0.2-0.1 0.3-0.2 0.1-0.1 0.2-0.3 0.1-0.1 0.2-0.2 0.1-0.1 0.2-0.2z"/>
	<path id="Layer" class="s3" d="m49.3 105.8q-0.9 1-1.8 1.9c0.3-0.3 0.6-0.7 0.9-1q0.2-0.1 0.3-0.2 0.1-0.1 0.2-0.3 0.1-0.1 0.2-0.2 0.1-0.1 0.2-0.2z"/>
	<path id="Layer" class="s2" d="m44.6 95.4c0.1-0.1 0.2-0.2 0.3-0.3 0.4-0.4 0.8-0.8 1.1-1.2-0.4 0.5-1 1-1.4 1.5z"/>
	<path id="Layer" class="s3" d="m44.6 95.4c0.1-0.1 0.2-0.2 0.3-0.3 0.4-0.4 0.8-0.8 1.1-1.2-0.4 0.5-1 1-1.4 1.5z"/>
	<path id="Layer" class="s4" d="m17.1 74.8q-0.9-6.5-1.6-12.8-0.8-6.5-1.2-12.8c0-0.2-0.1-0.5 0-0.7q-0.5-6.2-0.7-12.1l-12.9-6.2c0 0.8-0.1 1.6-0.1 2.4-0.2 3.1-0.3 6.4-0.3 9.9 0 3.9 0 8 0.1 12.3 0.1 3.9 0.2 8 0.4 12.2q0.4 5.3 0.8 10.8c0 0.2 0 0.3 0 0.4l17.3 8.8c-0.6-4.1-1.2-8.2-1.8-12.2z"/>
	<path id="Layer" class="s5" d="m42.7 177.4c1 3.2 2 6.6 3 9.9 0 0 0 0.1 0 0.2 0.2 0.5 0.3 0.9 0.5 1.4 0.7 2.3 1.3 4.3 2.8 9q1.3-0.1 2.6 0 1.3 0.1 2.5 0.4 1.3 0.3 2.5 0.8 1.2 0.5 2.3 1.1-0.9-1-1.9-1.9-1.1-0.9-2.3-1.6-1.2-0.6-2.5-1-1.4-0.5-2.7-0.6c2.4-1.3 4.7-2.9 6.8-4.8 2-1.9 3.8-4 5.3-6.4 1.4-2.4 2.6-5 3.3-7.6 0.8-2.7 1.2-5.5 1.2-8.3q-0.2-1.5-0.5-3 0 1.7-0.6 3.3-0.5 1.6-1.4 2.9-0.9 1.4-2.2 2.5-1.2 1.1-2.7 1.8 1.5-2.4 2.7-5 1.1-2.6 1.9-5.3 0.7-2.8 0.9-5.6 0.2-2.8 0-5.7-0.2-2.6-0.7-5.6-0.3 3.6-1.6 7-1.3 3.4-3.4 6.3-2.2 3-5 5.3-2.8 2.3-6.1 3.8l-5.2 4.8c0.2 0.6 0.3 1.2 0.5 1.9z"/>
	<path id="Layer" class="s6" d="m36 162.6q-1.7-6.2-3.4-12.5-1.5-6.1-3-12.3-1.5-6.2-3-12.4c-1-4.2-1.9-8.5-2.8-12.8q-1.3-6.4-2.6-12.7c-0.3-1.5-0.5-3-0.8-4.5-0.5-2.6-0.9-5.2-1.4-7.9q0-0.2-0.1-0.4l-17.2-8.8q0 0.1 0 0.2 0 0.1 0 0.2 0 0.1 0 0.2 0.1 0.1 0.1 0.2c0.3 3.9 0.6 7.9 1.1 11.9 0.5 3.9 1 8.1 1.6 12.2 0.5 3.4 1 6.9 1.6 10.3 0.1 0.7 0.2 1.4 0.4 2.1 0.8 4.3 1.6 8.4 2.5 12.3 1.1 4.4 2.2 8.5 3.3 12.3q1.1 3.8 2.2 7.3c0.7 1.9 1.4 3.8 2.1 5.7q2.4 6.8 5.4 13.1l17.4 8.9q-1.3-4.8-2.7-9.8c-0.2-1-0.5-1.9-0.7-2.8z"/>
	<path id="Layer" class="s7" d="m22.3 166.9q0.8 1.9 1.8 3.8 0.9 1.8 1.9 3.7 1 1.9 2.1 3.7 1.1 1.8 2.2 3.6c0.1 0.1 0.2 0.3 0.3 0.5q-1.6-0.5-3.3-0.8-1.7-0.2-3.3-0.4-1.7-0.1-3.4-0.1-1.6 0.1-3.3 0.2 3 0.9 5.9 2.1 2.9 1.2 5.6 2.8 2.7 1.6 5.2 3.5 2.5 1.9 4.7 4.1-1.1 1-2.3 1.8-1.2 0.8-2.4 1.4-1.3 0.7-2.7 1.1-1.3 0.5-2.7 0.8 1.4 0.2 2.8 0.3 1.4 0 2.8-0.1 1.4-0.1 2.8-0.4 1.3-0.3 2.7-0.8-1.3 1.4-2.4 2.9-1.1 1.6-1.9 3.2-0.9 1.7-1.5 3.5-0.6 1.8-1 3.6 0.9-1.8 2.1-3.5 1.2-1.6 2.6-3.1 1.4-1.5 2.9-2.7 1.6-1.3 3.4-2.3c5.2 17.3 11.5 36.1 18.5 55.9q0.4-0.6 0.6-1.2 0.3-0.6 0.4-1.2 0.1-0.6 0.1-1.3-0.1-0.6-0.3-1.3c-1.3-3.5-9.6-27-19.1-58.8-0.2-0.9-0.5-1.9-0.8-2.8 0-0.2-0.1-0.5-0.2-0.7q-1.4-5-3-10.3c-0.2-0.9-0.4-1.6-0.6-2.4l-17.4-8.9q0 0.1 0 0.2 0 0 0 0.1 0.1 0.1 0.1 0.1 0 0.1 0.1 0.2z"/>
	<path id="Layer" class="s8" d="m21 87.4c0.1 0.6 0.2 1.1 0.3 1.7 0.3 1.7 0.6 3.5 1 5.2q0.5 2.9 1.1 5.9 0.3 1.5 0.6 3.1 1 4.6 2 9.5c0.9 4 1.8 8.1 2.9 12.4 0.9 4.1 1.9 8.3 3 12.6 1.1 4.1 2.1 8.3 3.3 12.7 1 3.8 2.1 7.8 3.2 11.8 0 0.2 0.1 0.4 0.2 0.6q1.7 6 3.5 12.3 0 0.1 0 0.1 0 0 0 0.1 0 0 0 0 0 0.1 0.1 0.1l5.2-4.9c-0.1 0-0.2 0.2-0.4 0.2q2.7-2.9 4.8-6.2 2.2-3.3 3.9-6.9 1.6-3.6 2.6-7.4 1.1-3.9 1.5-7.8 0.2-2 0.3-4 0.1-1.9 0.1-3.9 0-2-0.2-4-0.1-1.9-0.3-3.9-0.3-1.7-0.5-3.4-0.3-1.7-0.6-3.4-0.3-1.7-0.7-3.4-0.3-1.7-0.8-3.3-1.5-6.3-3.8-13.3-0.4 0.8-0.9 1.6-0.4 0.7-0.9 1.4-0.6 0.8-1.1 1.5-0.6 0.7-1.1 1.3l-1 1c-0.3 0.3-0.6 0.6-0.9 1q1.5-2.5 2.6-5.3 1-2.8 1.5-5.8 0.5-2.9 0.4-5.9-0.1-2.9-0.7-5.8-0.5 1.2-1 2.4-0.6 1.2-1.2 2.3-0.7 1.2-1.4 2.2-0.8 1.1-1.7 2.1c-0.3 0.4-0.7 0.8-1.1 1.2-0.1 0.1-0.2 0.2-0.3 0.3q0.5-0.8 1-1.7 0.5-0.9 0.9-1.9 0.4-0.9 0.8-1.9 0.3-0.9 0.6-1.9 0.1-0.2 0.1-0.4 0.1-0.2 0.1-0.3 0.1-0.2 0.1-0.4 0.1-0.2 0.1-0.4 0.3-1.2 0.5-2.4c0-0.6 0.1-1 0.1-1.6q0.1-0.4 0.1-0.9 0-0.5 0-1 0-0.4 0-0.9 0-0.5-0.1-0.9c0-0.5 0-0.8-0.1-1.2-0.1-0.6-0.1-1.2-0.3-1.7-0.4-2.4-0.9-4.5-1.3-6.3q-0.4-1.4-0.7-2.6c-0.1-0.3-0.2-0.5-0.3-0.9-0.3-0.8-0.5-1.6-0.7-2.2q-0.1-0.3-0.3-0.6-0.1-0.2-0.2-0.5-0.1-0.3-0.2-0.6-0.2-0.2-0.3-0.5 0 0.1-0.1 0.3 0 0.1-0.1 0.2 0 0.2-0.1 0.3 0 0.1-0.1 0.3-0.6 1.1-1.2 2.2-0.7 1.2-1.4 2.2-0.8 1.1-1.6 2.1-0.8 1-1.7 2l4.9-4.5-4.9 4.4q0 0 0 0-0.1 0.1-0.1 0.1 0 0 0 0 0 0 0 0-0.1 0.1-0.2 0.2-0.1 0.1-0.2 0.2-0.1 0.1-0.1 0.2-0.1 0.1-0.2 0.2c0 0 0.1-0.1 0.1-0.1l-16.6 15.1c0.2 0.1 0.2 0.2 0.2 0.3z"/>
	<path id="Layer" class="s9" d="m14.6 36.1q0.3 5.5 0.9 12.3 0 0.1 0 0.1 0 0.1 0 0.2 0 0.1 0 0.2 0 0.1 0 0.2c0.4 3.9 0.9 8.2 1.5 12.8 0.5 4 1.1 8.2 1.8 12.7 0.6 4 1.4 8.1 2.1 12.5l16.6-15.2q1-1.7 1.8-3.5 0.8-1.8 1.3-3.7 0.6-1.9 0.8-3.8 0.2-2 0.2-4c0-1.3-0.1-2.6-0.2-4q-0.1-1.7-0.2-3.3-0.2-1.6-0.3-3.3-0.2-1.6-0.4-3.2-0.3-1.7-0.5-3.3-0.3-1.5-0.5-2.9-0.3-1.5-0.6-3-0.3-1.4-0.7-2.9-0.3-1.4-0.7-2.9-0.2-0.7-0.4-1.5-0.2-0.7-0.5-1.5-0.2-0.7-0.5-1.5-0.2-0.7-0.5-1.4c-0.6-1.5-1.2-2.9-1.8-4.2q-2.3 2.4-4.6 4.7-2.4 2.4-4.8 4.6-2.4 2.3-4.9 4.5-2.4 2.2-4.9 4.3z"/>
	<path id="Layer" class="s2" d="m48.5 106.7c-0.3 0.4-0.7 0.7-1 1q0.1-0.1 0.2-0.2 0.1-0.2 0.3-0.3 0.1-0.1 0.2-0.2 0.1-0.2 0.3-0.3z"/>
	<path id="Layer" class="s3" d="m48.5 106.7c-0.3 0.4-0.7 0.7-1 1q0.1-0.1 0.2-0.2 0.1-0.2 0.3-0.3 0.1-0.1 0.2-0.2 0.1-0.2 0.3-0.3z"/>
	<path id="Layer" class="s10" d="m48.5 106.7c-0.3 0.4-0.7 0.7-1 1q0.1-0.1 0.2-0.2 0.1-0.2 0.3-0.3 0.1-0.1 0.2-0.2 0.1-0.2 0.3-0.3z"/>
	<path id="Layer" class="s2" d="m44.6 95.4c0.1-0.1 0.2-0.2 0.3-0.3-0.1 0.1-0.2 0.2-0.3 0.3z"/>
	<path id="Layer" class="s3" d="m44.6 95.4c0.1-0.1 0.2-0.2 0.3-0.3-0.1 0.1-0.2 0.2-0.3 0.3z"/>
	<path id="Layer" class="s11" d="m44.6 95.4c0.1-0.1 0.2-0.2 0.3-0.3-0.1 0.1-0.2 0.2-0.3 0.3z"/>
	<path id="Layer" class="s12" d="m174 9.2q-3.1 1.7-6 3.6-2.9 1.9-5.7 4-2.7 2-5.3 4.3-2.7 2.3-5.1 4.7l5.4 15.4q2.3-2.4 4.6-4.7 2.3-2.3 4.7-4.6 2.4-2.2 4.8-4.4 2.5-2.1 5-4.2c0.5-0.4 0.8-0.6 0.8-0.6-0.2 0.2-0.5 0.4-0.8 0.6q-2.4 2.1-4.8 4.3-2.3 2.2-4.6 4.5-2.3 2.3-4.5 4.7-2.2 2.4-4.2 4.9 3.7 0.2 7.4 0.4 3.8 0.2 7.5 0.3 3.7 0.1 7.5 0 3.7 0 7.5-0.1 1.2-2.8 1.9-5.8 0.7-3 0.8-6.1 0.1-3.1-0.5-6.2-0.5-3-1.6-5.9c-0.7-1.9-5.6-12.9-14.8-9.1z"/>
	<path id="Layer" fill-rule="evenodd" class="s1" d="m149.2 88.8q0 0 0 0 0 0 0 0 0.1 0 0.1 0 0 0 0 0l-1.1-0.1c0 0-0.1 0-0.2 0.1z"/>
	<path id="Layer" fill-rule="evenodd" class="s1" d="m137.7 113.2c-0.6 0-1.2 0-1.9 0 0.7 0 1.3 0 1.9 0z"/>
	<path id="Layer" fill-rule="evenodd" class="s1" d="m76.9 162.8c0.2-0.2 0.2-0.4 0.4-0.6 2.3-4.1 4.5-8.2 6.8-12.1 2.5-4.4 5-8.7 7.4-12.7 2.6-4.4 5.1-8.6 7.5-12.6 2.6-4.3 5.1-8.3 7.6-12.3q3.1-4.7 6-9.2 1-1.5 1.9-3 2-2.9 3.8-5.6c1.1-1.7 2.2-3.4 3.3-5 0.4-0.6 0.8-1.1 1.1-1.6l0.2-0.3h-0.9l-0.5-1.5c-0.1 0.1-0.2 0.2-0.3 0.4q-2.6 3.6-5.1 7.4c-1 1.4-1.9 2.9-2.9 4.3-2.8 4.1-5.4 8.1-8 12.3-2.7 4.2-5.4 8.4-7.9 12.5-2.6 4.2-5.1 8.3-7.5 12.4-2.5 4.1-4.9 8.2-7.3 12.3q-3.8 6.4-7.3 12.7c-0.5 0.9-1.1 1.9-1.6 2.9-1.9 3.4-3.7 6.7-5.5 10l0.8 2.5h1.1q0 0 0 0 0-0.1 0.1-0.1 0 0 0-0.1 0 0 0 0c2.2-4.6 4.6-8.9 6.8-13z"/>
	<path id="Layer" class="s2" d="m131 125.3q-1.6 0.1-3.1 0.1c0.5 0 1.1 0 1.6 0q0.2 0 0.4 0 0.2 0 0.3 0 0.2 0 0.4 0 0.2 0 0.4-0.1z"/>
	<path id="Layer" class="s3" d="m131 125.3q-1.6 0.1-3.1 0.1c0.5 0 1.1 0 1.6 0q0.2 0 0.4 0 0.2 0 0.3 0 0.2 0 0.4 0 0.2 0 0.4-0.1z"/>
	<path id="Layer" class="s2" d="m135.4 113.2q0.2 0 0.4 0c0.7 0 1.3 0 2-0.1-0.8 0-1.6 0-2.4 0.1z"/>
	<path id="Layer" class="s3" d="m135.4 113.2q0.2 0 0.4 0c0.7 0 1.3 0 2-0.1-0.8 0-1.6 0-2.4 0.1z"/>
	<path id="Layer" class="s13" d="m129.6 74.8q4.4-6 8.8-11.6c3.1-3.9 6.1-7.6 9.2-11.3q0.3-0.3 0.6-0.6 4.5-5.3 9.1-10.1l-5.5-15.4q-1 0.9-2 1.9-3.9 3.6-8.1 7.7-4.7 4.7-9.6 10c-3.1 3.2-6.2 6.6-9.3 10.1-2.7 3.1-5.4 6.2-8.1 9.4l-0.3 0.3 7 20.9c2.8-3.8 5.5-7.6 8.2-11.3z"/>
	<path id="Layer" class="s14" d="m68.8 177.7q-2.7 5.1-5.5 10.4c0 0.1-0.1 0.1-0.1 0.2-0.3 0.5-0.5 0.9-0.8 1.5-1.2 2.3-2.3 4.5-4.8 9.4q1.1 1 2 2.1 1 1.1 1.8 2.3 0.8 1.3 1.3 2.6 0.6 1.4 1 2.8 0.2-1.5 0-3.1-0.2-1.6-0.6-3.1-0.5-1.5-1.2-2.9-0.7-1.3-1.7-2.6c14.1 2.8 27 1 34.9-8.6q1-1.2 2-2.7-1.4 1.3-3.1 2.1-1.7 0.9-3.5 1.3-1.8 0.4-3.7 0.2-1.9-0.1-3.7-0.7 3.2-0.7 6.2-1.8 3-1.2 5.7-2.9 2.8-1.6 5.2-3.7 2.5-2.1 4.5-4.6 2-2.3 4-5.1c-2.1 1.8-4.5 3.2-6.9 4.3-2.5 1.2-5.1 2-7.8 2.4-2.7 0.5-5.4 0.6-8.2 0.3-2.7-0.2-5.3-0.8-7.9-1.8l-8.1-0.2c-0.3 0.7-0.7 1.3-1 1.9z"/>
	<path id="Layer" class="s15" d="m75.1 160.4q3.6-6.3 7.3-12.7 3.5-6.2 7.3-12.3 3.7-6.2 7.5-12.4c2.5-4.1 5.2-8.4 7.9-12.5 2.6-4.2 5.3-8.2 8-12.3 0.9-1.4 1.9-2.9 2.9-4.3 1.7-2.5 3.4-5 5.1-7.4 0.1-0.2 0.2-0.3 0.3-0.5l-6.9-20.7q-0.1 0-0.1 0.1-0.1 0.1-0.2 0.2-0.1 0.1-0.1 0.2-0.1 0.1-0.2 0.2c-2.8 3.4-5.7 6.9-8.5 10.4-2.8 3.6-5.7 7.3-8.4 11.1-2.4 3.2-4.6 6.4-6.9 9.6-0.5 0.7-0.9 1.4-1.4 2-2.7 4.1-5.4 8.1-7.7 12-2.6 4.3-5 8.5-7.2 12.5-1.4 2.6-2.7 5.1-3.9 7.6-1 2-2 4.2-2.9 6.3-2.3 4.9-4.3 9.8-6.1 14.8l7.1 21c1.8-3.4 3.7-6.7 5.5-10.1 0.5-0.9 1.1-1.8 1.6-2.8z"/>
	<path id="Layer" class="s16" d="m60.7 153q-0.8 2.3-1.6 4.5-0.7 2.3-1.4 4.6-0.6 2.3-1.2 4.6-0.6 2.3-1.1 4.6c0 0.2-0.2 0.4-0.2 0.7q-0.9-1.7-2-3.2-1.1-1.6-2.4-3-1.2-1.4-2.6-2.8-1.4-1.3-2.9-2.4 1.8 3 3.2 6.3 1.3 3.3 2.2 6.7 1 3.4 1.5 7 0.4 3.5 0.5 7-1.7-0.1-3.2-0.4-1.6-0.3-3.2-0.8-1.5-0.5-3-1.2-1.5-0.7-2.8-1.5 0.9 1.3 2 2.4 1.1 1.2 2.3 2.2 1.3 1 2.6 1.9 1.4 0.8 2.8 1.5-2.1 0.1-4.2 0.5-2.1 0.4-4.1 1-2 0.7-3.9 1.6-1.9 1-3.7 2.1 2.2-0.7 4.4-1.1 2.3-0.4 4.6-0.5 2.3-0.1 4.6 0.2 2.2 0.2 4.5 0.8c-9.7 18.1-19.5 38.3-29.5 59.7q0.7-0.1 1.4-0.4 0.7-0.2 1.3-0.7 0.6-0.4 1-1 0.5-0.5 0.8-1.2c1.8-3.9 13.8-29.4 31.4-62.6 0.5-0.9 1.1-1.8 1.6-2.8 0.1-0.3 0.2-0.5 0.4-0.8q2.8-5.2 5.8-10.7c0.4-0.8 0.9-1.6 1.3-2.4v-0.1l-7-20.9q0 0.1 0 0.1-0.1 0.1-0.1 0.2-0.1 0.1-0.1 0.2 0 0 0 0.1z"/>
	<path id="Layer" class="s17" d="m122.7 88c-0.4 0.6-0.7 1.1-1.1 1.6-1.1 1.7-2.2 3.3-3.3 5-1.1 1.7-2.5 3.7-3.8 5.7q-0.9 1.4-1.9 2.9-2.9 4.5-6 9.3c-2.5 3.9-5 8-7.6 12.2-2.4 4.1-5 8.3-7.5 12.6q-3.6 6.2-7.4 12.7c-2.3 4-4.5 8-6.8 12.2-0.2 0.1-0.3 0.4-0.4 0.6q-3.4 6.1-6.9 12.7-0.1 0-0.1 0.1 0 0 0 0 0 0.1-0.1 0.1 0 0.1 0 0.1l8.1 0.3c-0.1-0.1-0.3-0.1-0.5-0.2q4.5-0.2 8.9-1.2 4.3-0.9 8.5-2.5 4.2-1.6 8.1-3.9 3.8-2.2 7.3-5 1.8-1.5 3.4-3 1.7-1.5 3.2-3.1 1.6-1.6 3-3.3 1.5-1.7 2.9-3.5 1.1-1.5 2.3-3.1 1.1-1.6 2.2-3.2 1.1-1.6 2.1-3.3 1.1-1.6 2.1-3.3c2.4-4.2 4.9-8.7 7.4-13.7q-1 0.3-2 0.5-0.9 0.3-1.9 0.5-1 0.2-2 0.3-1 0.1-2 0.1l-1.5 0.1c-0.5 0-1 0-1.6 0q3.3-0.8 6.4-2.2 3-1.4 5.7-3.4 2.7-2 5-4.4 2.3-2.5 4.1-5.3-1.3 0.6-2.7 1.1-1.4 0.6-2.8 0.9-1.5 0.4-2.9 0.7-1.5 0.3-3 0.4c-0.6 0.1-1.2 0.1-1.9 0.1q-0.2 0-0.5 0 1.1-0.3 2.2-0.6 1.1-0.4 2.2-0.8 1.1-0.4 2.1-0.9 1.1-0.5 2.1-1 0.2-0.1 0.4-0.2 0.2-0.1 0.4-0.2 0.2-0.2 0.4-0.3 0.2-0.1 0.4-0.2c0.7-0.5 1.5-1.1 2.2-1.6 0.5-0.4 0.9-0.7 1.4-1.1q0.4-0.4 0.8-0.7 0.4-0.4 0.7-0.8 0.4-0.4 0.8-0.8 0.3-0.4 0.6-0.8c0.4-0.3 0.6-0.6 0.9-1 0.4-0.5 0.8-1 1.1-1.6q2.4-3.4 4-6.2 0.8-1.3 1.4-2.5c0.2-0.4 0.3-0.7 0.5-1 0.4-0.9 0.9-1.7 1.2-2.4q0.1-0.3 0.2-0.6 0.2-0.3 0.3-0.6 0.1-0.3 0.2-0.7 0.1-0.3 0.2-0.6-0.1 0.1-0.2 0.2-0.2 0-0.3 0.1-0.2 0.1-0.3 0.1-0.2 0.1-0.3 0.1-1.4 0.5-2.8 0.9-1.4 0.4-2.9 0.7-1.4 0.2-2.9 0.4-1.4 0.1-2.9 0.2l7.4 0.3-7.4-0.3q0 0 0 0-0.1 0-0.1 0 0 0 0 0 0 0-0.1 0-0.1 0-0.3 0-0.1 0-0.2 0-0.2 0-0.3 0-0.2 0-0.3 0c0 0 0.1 0 0.2-0.1l-25.4-0.9c0 0.2 0 0.3-0.1 0.3z"/>
	<path id="Layer" class="s18" d="m158.3 41.7q-4.1 4.6-9 10.6-0.1 0-0.1 0.1-0.1 0.1-0.2 0.2 0 0-0.1 0.1-0.1 0.1-0.1 0.2c-2.8 3.5-5.8 7.3-9 11.5-2.7 3.6-5.6 7.5-8.7 11.7-2.6 3.7-5.3 7.6-8.2 11.7l25.4 0.9q2.2-0.5 4.3-1.3 2-0.9 4-2 1.9-1.1 3.7-2.5 1.7-1.3 3.3-3 1.5-1.6 3-3.4 1.3-1.4 2.4-2.8 1.2-1.4 2.4-2.9 1.1-1.5 2.2-2.9 1.1-1.5 2.2-3 1-1.4 1.9-2.8 1-1.4 1.9-2.8 0.9-1.5 1.8-2.9 0.8-1.5 1.7-2.9 0.4-0.8 0.8-1.6 0.4-0.8 0.8-1.5 0.4-0.8 0.8-1.6 0.4-0.8 0.8-1.6c0.7-1.7 1.2-3.3 1.8-4.8q-3.7 0.1-7.5 0.1-3.7 0-7.4-0.1-3.8-0.1-7.5-0.3-3.7-0.2-7.4-0.4z"/>
	<path id="Layer" class="s2" d="m129.5 125.4c-0.5 0-1 0-1.6 0q0.2 0 0.4 0 0.2 0 0.4 0 0.2 0 0.4 0 0.2 0 0.4 0z"/>
	<path id="Layer" class="s3" d="m129.5 125.4c-0.5 0-1 0-1.6 0q0.2 0 0.4 0 0.2 0 0.4 0 0.2 0 0.4 0 0.2 0 0.4 0z"/>
	<path id="Layer" class="s19" d="m129.5 125.4c-0.5 0-1 0-1.6 0q0.2 0 0.4 0 0.2 0 0.4 0 0.2 0 0.4 0 0.2 0 0.4 0z"/>
	<path id="Layer" class="s2" d="m135.3 113.2q0.2 0 0.5 0-0.2 0-0.5 0z"/>
	<path id="Layer" class="s3" d="m135.3 113.2q0.2 0 0.5 0-0.2 0-0.5 0z"/>
	<path id="Layer" class="s20" d="m135.3 113.2q0.2 0 0.5 0-0.2 0-0.5 0z"/>
</svg>