<svg version="1.2" xmlns="http://www.w3.org/2000/svg" viewBox="0 0 192 256" width="192" height="256">
	<title>maven-svg</title>
	<defs>
		<linearGradient id="g1" x2="1" gradientUnits="userSpaceOnUse" gradientTransform="matrix(31.817,-40.363,36.569,28.826,-1.143,2.67)">
			<stop offset="0" stop-color="#f69923"/>
			<stop offset=".312" stop-color="#f79a23"/>
			<stop offset=".838" stop-color="#e97826"/>
		</linearGradient>
		<linearGradient id="g2" x2="1" gradientUnits="userSpaceOnUse" gradientTransform="matrix(-46.351,-233.771,78.72,-15.608,42.607,246.026)">
			<stop offset=".323" stop-color="#9e2064"/>
			<stop offset=".63" stop-color="#c92037"/>
			<stop offset=".751" stop-color="#cd2335"/>
			<stop offset="1" stop-color="#e97826"/>
		</linearGradient>
		<linearGradient id="g3" x2="1" gradientUnits="userSpaceOnUse" gradientTransform="matrix(-27.621,-139.304,73.117,-14.497,60.505,213.148)">
			<stop offset="0" stop-color="#282662"/>
			<stop offset=".095" stop-color="#662e8d"/>
			<stop offset=".788" stop-color="#9f2064"/>
			<stop offset=".949" stop-color="#cd2032"/>
		</linearGradient>
		<linearGradient id="g4" x2="1" gradientUnits="userSpaceOnUse" gradientTransform="matrix(2015.269,0,0,5167.83,-68470.278,19057.666)">
			<stop offset=".323" stop-color="#9e2064"/>
			<stop offset=".63" stop-color="#c92037"/>
			<stop offset=".751" stop-color="#cd2335"/>
			<stop offset="1" stop-color="#e97826"/>
		</linearGradient>
		<linearGradient id="g5" x2="1" gradientUnits="userSpaceOnUse" gradientTransform="matrix(1059.077,0,0,2035.08,-68323.298,19030.056)">
			<stop offset="0" stop-color="#282662"/>
			<stop offset=".095" stop-color="#662e8d"/>
			<stop offset=".788" stop-color="#9f2064"/>
			<stop offset=".949" stop-color="#cd2032"/>
		</linearGradient>
		<linearGradient id="g6" x2="1" gradientUnits="userSpaceOnUse" gradientTransform="matrix(2015.269,0,0,5819.476,-68470.278,18849.118)">
			<stop offset=".323" stop-color="#9e2064"/>
			<stop offset=".63" stop-color="#c92037"/>
			<stop offset=".751" stop-color="#cd2335"/>
			<stop offset="1" stop-color="#e97826"/>
		</linearGradient>
		<linearGradient id="g7" x2="1" gradientUnits="userSpaceOnUse" gradientTransform="matrix(2015.269,0,0,5138.466,-68595.294,18859.219)">
			<stop offset=".323" stop-color="#9e2064"/>
			<stop offset=".63" stop-color="#c92037"/>
			<stop offset=".751" stop-color="#cd2335"/>
			<stop offset="1" stop-color="#e97826"/>
		</linearGradient>
		<linearGradient id="g8" x2="1" gradientUnits="userSpaceOnUse" gradientTransform="matrix(2015.269,0,0,2034.103,-68470.278,18786.647)">
			<stop offset=".323" stop-color="#9e2064"/>
			<stop offset=".63" stop-color="#c92037"/>
			<stop offset=".751" stop-color="#cd2335"/>
			<stop offset="1" stop-color="#e97826"/>
		</linearGradient>
		<linearGradient id="g9" x2="1" gradientUnits="userSpaceOnUse" gradientTransform="matrix(2015.269,0,0,1847.33,-68470.278,18793.981)">
			<stop offset=".323" stop-color="#9e2064"/>
			<stop offset=".63" stop-color="#c92037"/>
			<stop offset=".751" stop-color="#cd2335"/>
			<stop offset="1" stop-color="#e97826"/>
		</linearGradient>
		<linearGradient id="g10" x2="1" gradientUnits="userSpaceOnUse" gradientTransform="matrix(57.896,-7.195,6.53,52.545,139.579,18.14)">
			<stop offset="0" stop-color="#f69923"/>
			<stop offset=".312" stop-color="#f79a23"/>
			<stop offset=".838" stop-color="#e97826"/>
		</linearGradient>
		<linearGradient id="g11" x2="1" gradientUnits="userSpaceOnUse" gradientTransform="matrix(149.13,-225.71,75.772,50.063,-19.299,249.512)">
			<stop offset=".323" stop-color="#9e2064"/>
			<stop offset=".63" stop-color="#c92037"/>
			<stop offset=".751" stop-color="#cd2335"/>
			<stop offset="1" stop-color="#e97826"/>
		</linearGradient>
		<linearGradient id="g12" x2="1" gradientUnits="userSpaceOnUse" gradientTransform="matrix(88.867,-134.502,70.512,46.588,21.386,237.252)">
			<stop offset="0" stop-color="#282662"/>
			<stop offset=".095" stop-color="#662e8d"/>
			<stop offset=".788" stop-color="#9f2064"/>
			<stop offset=".949" stop-color="#cd2032"/>
		</linearGradient>
		<linearGradient id="g13" x2="1" gradientUnits="userSpaceOnUse" gradientTransform="matrix(149.13,-225.71,45.91,30.333,-13.008,235.457)">
			<stop offset=".323" stop-color="#9e2064"/>
			<stop offset=".63" stop-color="#c92037"/>
			<stop offset=".751" stop-color="#cd2335"/>
			<stop offset="1" stop-color="#e97826"/>
		</linearGradient>
		<linearGradient id="g14" x2="1" gradientUnits="userSpaceOnUse" gradientTransform="matrix(78.372,-118.617,39.608,26.169,.961,221.039)">
			<stop offset="0" stop-color="#282662"/>
			<stop offset=".095" stop-color="#662e8d"/>
			<stop offset=".788" stop-color="#9f2064"/>
			<stop offset=".949" stop-color="#cd2032"/>
		</linearGradient>
		<linearGradient id="g15" x2="1" gradientUnits="userSpaceOnUse" gradientTransform="matrix(149.13,-225.71,62.424,41.245,10.35,250.89)">
			<stop offset=".323" stop-color="#9e2064"/>
			<stop offset=".63" stop-color="#c92037"/>
			<stop offset=".751" stop-color="#cd2335"/>
			<stop offset="1" stop-color="#e97826"/>
		</linearGradient>
		<linearGradient id="g16" x2="1" gradientUnits="userSpaceOnUse" gradientTransform="matrix(149.13,-225.71,96.581,63.813,-0.034,264.143)">
			<stop offset=".323" stop-color="#9e2064"/>
			<stop offset=".63" stop-color="#c92037"/>
			<stop offset=".751" stop-color="#cd2335"/>
			<stop offset="1" stop-color="#e97826"/>
		</linearGradient>
		<linearGradient id="g17" x2="1" gradientUnits="userSpaceOnUse" gradientTransform="matrix(149.13,-225.71,341.615,225.71,17.346,255.513)">
			<stop offset=".323" stop-color="#9e2064"/>
			<stop offset=".63" stop-color="#c92037"/>
			<stop offset=".751" stop-color="#cd2335"/>
			<stop offset="1" stop-color="#e97826"/>
		</linearGradient>
		<linearGradient id="g18" x2="1" gradientUnits="userSpaceOnUse" gradientTransform="matrix(217.711,-329.508,498.716,329.508,-17.766,320.5)">
			<stop offset=".323" stop-color="#9e2064"/>
			<stop offset=".63" stop-color="#c92037"/>
			<stop offset=".751" stop-color="#cd2335"/>
			<stop offset="1" stop-color="#e97826"/>
		</linearGradient>
	</defs>
	<style>
		.s0 { fill: url(#g1) } 
		.s1 { fill: none } 
		.s2 { fill: #be202e } 
		.s3 { opacity: .3;fill: #be202e } 
		.s4 { fill: url(#g2) } 
		.s5 { fill: url(#g3) } 
		.s6 { fill: url(#g4) } 
		.s7 { fill: url(#g5) } 
		.s8 { fill: url(#g6) } 
		.s9 { fill: url(#g7) } 
		.s10 { fill: url(#g8) } 
		.s11 { fill: url(#g9) } 
		.s12 { fill: url(#g10) } 
		.s13 { fill: url(#g11) } 
		.s14 { fill: url(#g12) } 
		.s15 { fill: url(#g13) } 
		.s16 { fill: url(#g14) } 
		.s17 { fill: url(#g15) } 
		.s18 { fill: url(#g16) } 
		.s19 { fill: url(#g17) } 
		.s20 { fill: url(#g18) } 
	</style>
	<path id="Layer" class="s0" d="m3.8 4.9q-0.8 2.9-1.5 5.9-0.7 3-1.1 6.1-0.5 3-0.7 6.1-0.3 3.1-0.3 6.1l13 6.3q-0.1-2.9-0.1-5.8 0.1-2.9 0.2-5.8 0.1-2.9 0.3-5.8 0.2-2.9 0.5-5.8c0.1-0.5 0.1-0.8 0.1-0.8 0 0.3 0 0.6-0.1 0.8q-0.2 2.9-0.3 5.8-0.1 2.8-0.1 5.7 0 2.9 0.1 5.7 0.1 2.9 0.3 5.7 2.5-2.1 5-4.3 2.5-2.3 4.9-4.5 2.4-2.3 4.8-4.7 2.3-2.3 4.6-4.7-0.9-2.6-2.4-4.9-1.4-2.3-3.3-4.3-1.9-2-4.1-3.6-2.2-1.6-4.7-2.8c-1.7-0.7-11.6-4.6-15.1 3.6z"/>
	<path id="Layer" fill-rule="evenodd" class="s1" d="m37.7 70.5q0.1 0 0.1 0 0 0 0 0 0 0 0 0 0.1-0.1 0.1-0.1l-0.8 0.7c0 0-0.1 0.1-0.1 0.1z"/>
	<path id="Layer" fill-rule="evenodd" class="s1" d="m45.7 93.1c-0.3 0.4-0.7 0.8-1.1 1.2 0.4-0.4 0.8-0.8 1.1-1.2z"/>
	<path id="Layer" fill-rule="evenodd" class="s1" d="m38.2 162.4c0-0.2-0.1-0.4-0.1-0.6-1.1-4.1-2.2-8-3.3-11.9q-1.7-6.5-3.3-12.7c-1-4.3-2.1-8.6-3-12.6-1-4.4-2-8.5-2.9-12.5q-1-4.9-2-9.6-0.3-1.5-0.6-3c-0.4-2.1-0.8-4-1.1-6-0.4-1.9-0.7-3.5-1-5.2q-0.2-0.9-0.3-1.7l-0.1-0.3-0.6 0.5-1.3-0.6q0 0.2 0.1 0.4c0.4 2.6 0.9 5.3 1.4 7.9 0.2 1.5 0.5 3 0.8 4.6 0.8 4.2 1.7 8.4 2.6 12.7 0.9 4.3 1.8 8.6 2.8 12.8 1 4.2 2 8.3 3 12.5 1 4.1 2 8.2 3 12.3q1.7 6.4 3.4 12.5c0.2 0.9 0.5 1.9 0.8 2.8 0.9 3.3 1.8 6.5 2.7 9.8l2.1 1 0.7-0.6q0 0 0-0.1 0 0 0 0-0.1-0.1-0.1-0.1 0 0 0-0.1c-1.4-4.1-2.5-8.2-3.7-12.2z"/>
	<path id="Layer" class="s2" d="m49 105q-0.9 1-1.8 1.9c0.3-0.3 0.6-0.6 0.9-1q0.2-0.1 0.3-0.2 0.1-0.1 0.2-0.2 0.1-0.1 0.2-0.3 0.1-0.1 0.2-0.2z"/>
	<path id="Layer" class="s3" d="m49 105q-0.9 1-1.8 1.9c0.3-0.3 0.6-0.6 0.9-1q0.2-0.1 0.3-0.2 0.1-0.1 0.2-0.2 0.1-0.1 0.2-0.3 0.1-0.1 0.2-0.2z"/>
	<path id="Layer" class="s2" d="m44.3 94.6c0.1-0.1 0.1-0.2 0.2-0.3 0.5-0.4 0.9-0.8 1.2-1.2-0.4 0.5-1 1-1.4 1.5z"/>
	<path id="Layer" class="s3" d="m44.3 94.6c0.1-0.1 0.1-0.2 0.2-0.3 0.5-0.4 0.9-0.8 1.2-1.2-0.4 0.5-1 1-1.4 1.5z"/>
	<path id="Layer" class="s4" d="m16.7 73.9q-0.9-6.5-1.7-12.8-0.7-6.5-1.2-12.8c0-0.3 0-0.5 0-0.8q-0.5-6.2-0.6-12.1l-13-6.2c0 0.7-0.1 1.6-0.1 2.4-0.2 3.1-0.3 6.4-0.3 9.9 0 4 0 8 0.1 12.3 0.1 4 0.2 8.1 0.4 12.3q0.4 5.3 0.8 10.9c0 0.1 0 0.2 0 0.4l17.4 8.8c-0.6-4.1-1.2-8.2-1.8-12.3z"/>
	<path id="Layer" class="s5" d="m42.4 176.9c0.9 3.2 2 6.6 3 10 0 0 0 0.1 0 0.1 0.2 0.5 0.3 1 0.5 1.4 0.7 2.3 1.3 4.4 2.8 9q1.3-0.1 2.6 0 1.3 0.2 2.5 0.5 1.3 0.3 2.5 0.8 1.2 0.4 2.4 1.1-0.9-1.1-2-2-1.1-0.8-2.3-1.5-1.2-0.7-2.5-1.1-1.4-0.4-2.7-0.6c2.5-1.2 4.8-2.8 6.8-4.7 2.1-1.9 3.9-4.1 5.3-6.5 1.5-2.4 2.6-5 3.4-7.7 0.7-2.7 1.1-5.5 1.1-8.3q-0.1-1.4-0.4-2.9-0.1 1.6-0.6 3.2-0.5 1.6-1.4 3-1 1.4-2.2 2.5-1.3 1.1-2.8 1.8 1.6-2.4 2.7-5 1.2-2.6 1.9-5.4 0.7-2.7 1-5.6 0.2-2.8 0-5.7-0.2-2.6-0.7-5.6-0.4 3.6-1.7 7-1.3 3.4-3.4 6.4-2.1 2.9-4.9 5.2-2.9 2.3-6.2 3.9l-5.3 4.8c0.2 0.6 0.4 1.2 0.6 1.9z"/>
	<path id="Layer" class="s6" d="m35.6 162q-1.6-6.2-3.3-12.6-1.6-6-3.1-12.2-1.5-6.3-3-12.5c-0.9-4.2-1.9-8.6-2.8-12.8q-1.3-6.4-2.6-12.8c-0.3-1.5-0.5-3-0.8-4.5-0.5-2.6-0.9-5.3-1.4-7.9q0-0.2-0.1-0.4l-17.3-8.9q0 0.1 0 0.2 0 0.2 0 0.3 0.1 0.1 0.1 0.2 0 0.1 0 0.2c0.3 3.9 0.6 7.9 1.1 11.8 0.5 4 1 8.2 1.6 12.3 0.5 3.5 1 6.9 1.6 10.4 0.1 0.7 0.3 1.4 0.4 2.1 0.8 4.3 1.6 8.4 2.6 12.3 1 4.4 2.1 8.5 3.2 12.4q1.1 3.8 2.3 7.2c0.6 2 1.3 3.9 2 5.8q2.5 6.8 5.5 13.2l17.5 8.8q-1.4-4.8-2.7-9.8c-0.3-0.9-0.5-1.8-0.8-2.8z"/>
	<path id="Layer" class="s7" d="m21.8 166.3q0.9 1.9 1.9 3.8 0.9 1.9 1.9 3.8 1 1.8 2.1 3.7 1.1 1.8 2.2 3.6c0.1 0.1 0.2 0.3 0.3 0.5q-1.6-0.5-3.3-0.8-1.6-0.3-3.3-0.4-1.7-0.1-3.4-0.1-1.7 0-3.3 0.2 3 0.9 5.9 2.1 2.9 1.2 5.6 2.8 2.7 1.6 5.2 3.5 2.5 1.9 4.8 4.2-1.1 0.9-2.3 1.7-1.2 0.8-2.5 1.5-1.3 0.6-2.6 1.1-1.4 0.5-2.8 0.8 1.4 0.2 2.8 0.2 1.4 0.1 2.8 0 1.4-0.2 2.8-0.5 1.4-0.3 2.7-0.7-1.2 1.3-2.3 2.9-1.1 1.5-2 3.2-0.8 1.7-1.4 3.5-0.7 1.7-1 3.6 0.9-1.8 2.1-3.5 1.1-1.7 2.5-3.1 1.4-1.5 3-2.8 1.6-1.2 3.4-2.3c5.2 17.4 11.5 36.3 18.5 56.1q0.4-0.5 0.7-1.1 0.3-0.6 0.4-1.3 0.1-0.6 0-1.3 0-0.6-0.2-1.2c-1.3-3.6-9.7-27.1-19.2-59.1-0.2-0.9-0.5-1.8-0.8-2.7-0.1-0.3-0.1-0.5-0.2-0.8q-1.5-5-3-10.4c-0.2-0.8-0.4-1.5-0.7-2.4l-17.5-8.8q0.1 0 0.1 0.1 0 0.1 0 0.1 0.1 0.1 0.1 0.2 0 0 0 0.1z"/>
	<path id="Layer" class="s8" d="m20.6 86.6c0.1 0.5 0.2 1.1 0.3 1.7 0.3 1.7 0.6 3.5 1 5.2q0.5 2.9 1.1 5.9 0.3 1.5 0.6 3.1 1 4.6 2 9.6c1 4 1.9 8.1 2.9 12.4 0.9 4.1 2 8.4 3 12.7 1.1 4.1 2.2 8.3 3.3 12.7 1.1 3.8 2.2 7.8 3.3 11.8 0 0.2 0.1 0.5 0.1 0.6q1.7 6.1 3.6 12.4 0 0 0 0.1 0 0 0 0 0 0.1 0 0.1 0 0 0 0.1l5.3-4.9c-0.1 0-0.2 0.1-0.4 0.2q2.7-2.9 4.9-6.3 2.1-3.3 3.8-6.9 1.6-3.6 2.7-7.5 1-3.8 1.5-7.7 0.2-2 0.3-4 0.1-2 0-4 0-2-0.1-4-0.1-1.9-0.4-3.9-0.2-1.7-0.5-3.4-0.2-1.7-0.5-3.4-0.4-1.7-0.7-3.4-0.4-1.7-0.8-3.4-1.6-6.3-3.9-13.3-0.4 0.8-0.9 1.6-0.4 0.7-0.9 1.5-0.5 0.7-1.1 1.4-0.5 0.7-1.1 1.3l-1 1c-0.3 0.4-0.6 0.7-0.9 1q1.5-2.5 2.6-5.3 1-2.8 1.5-5.7 0.5-3 0.4-6-0.1-3-0.7-5.9-0.5 1.3-1 2.5-0.6 1.2-1.2 2.3-0.7 1.1-1.5 2.2-0.7 1.1-1.6 2.1c-0.3 0.4-0.7 0.8-1.1 1.2-0.1 0.1-0.2 0.2-0.4 0.3q0.6-0.8 1.1-1.7 0.4-0.9 0.9-1.9 0.4-0.9 0.8-1.9 0.3-0.9 0.6-1.9 0.1-0.2 0.1-0.4 0.1-0.2 0.2-0.4 0-0.2 0-0.4 0.1-0.2 0.1-0.4 0.3-1.2 0.5-2.4c0-0.5 0.1-1 0.1-1.5q0.1-0.5 0.1-1 0-0.4 0-0.9 0-0.5 0-1 0-0.4-0.1-0.9c0-0.4 0-0.8-0.1-1.2-0.1-0.6-0.1-1.1-0.3-1.6-0.4-2.5-0.9-4.6-1.3-6.4q-0.4-1.4-0.7-2.5c-0.1-0.4-0.2-0.6-0.3-1-0.3-0.8-0.5-1.6-0.8-2.2q-0.1-0.3-0.2-0.6-0.1-0.2-0.2-0.5-0.1-0.3-0.2-0.6-0.2-0.2-0.3-0.5 0 0.1-0.1 0.3 0 0.1-0.1 0.2 0 0.2-0.1 0.3 0 0.1-0.1 0.2-0.6 1.2-1.2 2.3-0.7 1.2-1.4 2.2-0.8 1.1-1.6 2.1-0.8 1-1.7 2l4.8-4.5-4.9 4.4q0 0.1 0 0.1 0 0 0 0 0 0 0 0 0 0 0 0.1-0.1 0.1-0.2 0.2-0.1 0.1-0.2 0.1-0.1 0.1-0.2 0.3-0.1 0.1-0.2 0.2c0-0.1 0.1-0.2 0.1-0.2l-16.6 15.2c0.2 0.1 0.2 0.2 0.2 0.3z"/>
	<path id="Layer" class="s9" d="m14.1 35.1q0.3 5.5 0.9 12.3 0 0.1 0 0.2 0 0.1 0.1 0.2 0 0.1 0 0.1 0 0.1 0 0.2c0.4 4 0.9 8.2 1.5 12.9 0.5 4 1.1 8.2 1.8 12.8 0.6 3.9 1.3 8.1 2.1 12.5l16.6-15.3q1.1-1.6 1.9-3.5 0.8-1.8 1.3-3.7 0.5-1.9 0.8-3.9 0.2-1.9 0.2-3.9c0-1.3-0.1-2.7-0.2-4.1q-0.1-1.6-0.3-3.3-0.1-1.6-0.3-3.2-0.2-1.7-0.4-3.3-0.2-1.6-0.5-3.3-0.2-1.5-0.5-2.9-0.2-1.5-0.5-3-0.4-1.4-0.7-2.9-0.3-1.5-0.7-2.9-0.2-0.8-0.5-1.5-0.2-0.8-0.4-1.5-0.3-0.8-0.5-1.5-0.3-0.8-0.5-1.5c-0.6-1.5-1.3-2.8-1.9-4.1q-2.3 2.4-4.6 4.7-2.4 2.3-4.8 4.6-2.4 2.3-4.9 4.5-2.5 2.2-5 4.3z"/>
	<path id="Layer" class="s2" d="m48.2 106c-0.3 0.3-0.7 0.6-1 0.9q0.1-0.1 0.2-0.2 0.1-0.1 0.3-0.3 0.1-0.1 0.2-0.2 0.1-0.1 0.3-0.2z"/>
	<path id="Layer" class="s3" d="m48.2 106c-0.3 0.3-0.7 0.6-1 0.9q0.1-0.1 0.2-0.2 0.1-0.1 0.3-0.3 0.1-0.1 0.2-0.2 0.1-0.1 0.3-0.2z"/>
	<path id="Layer" class="s10" d="m48.2 106c-0.3 0.3-0.7 0.6-1 0.9q0.1-0.1 0.2-0.2 0.1-0.1 0.3-0.3 0.1-0.1 0.2-0.2 0.1-0.1 0.3-0.2z"/>
	<path id="Layer" class="s2" d="m44.3 94.6c0.1-0.1 0.1-0.2 0.3-0.3-0.1 0.1-0.2 0.2-0.3 0.3z"/>
	<path id="Layer" class="s3" d="m44.3 94.6c0.1-0.1 0.1-0.2 0.3-0.3-0.1 0.1-0.2 0.2-0.3 0.3z"/>
	<path id="Layer" class="s11" d="m44.3 94.6c0.1-0.1 0.1-0.2 0.3-0.3-0.1 0.1-0.2 0.2-0.3 0.3z"/>
	<path id="Layer" class="s12" d="m174.2 8.2q-3.1 1.6-6 3.5-2.9 1.9-5.7 4-2.8 2.1-5.4 4.4-2.6 2.2-5.1 4.7l5.5 15.4q2.2-2.4 4.6-4.7 2.3-2.3 4.7-4.6 2.4-2.2 4.9-4.4 2.4-2.1 5-4.2c0.5-0.4 0.7-0.6 0.7-0.6-0.2 0.2-0.5 0.4-0.7 0.6q-2.5 2.1-4.9 4.3-2.3 2.2-4.6 4.5-2.3 2.3-4.5 4.7-2.2 2.4-4.3 4.9 3.8 0.2 7.5 0.4 3.8 0.2 7.5 0.3 3.8 0.1 7.5 0.1 3.8-0.1 7.5-0.2 1.3-2.8 2-5.8 0.7-3.1 0.8-6.2 0.1-3.1-0.5-6.1-0.5-3.1-1.6-6c-0.7-1.9-5.6-12.9-14.9-9z"/>
	<path id="Layer" fill-rule="evenodd" class="s1" d="m149.3 87.9q0 0.1 0 0.1 0 0 0.1 0 0 0 0 0 0 0 0-0.1h-1.1c0 0-0.1 0-0.2 0.1z"/>
	<path id="Layer" fill-rule="evenodd" class="s1" d="m137.8 112.4c-0.6 0.1-1.3 0.1-1.9 0.1 0.7 0 1.3 0 1.9-0.1z"/>
	<path id="Layer" fill-rule="evenodd" class="s1" d="m76.7 162.3c0.2-0.2 0.3-0.5 0.4-0.7 2.3-4.1 4.6-8.2 6.8-12.1 2.6-4.4 5.1-8.7 7.5-12.8 2.5-4.3 5.1-8.6 7.6-12.6 2.6-4.3 5.1-8.4 7.6-12.3q3-4.8 6-9.3 0.9-1.5 1.9-3 1.9-2.9 3.8-5.6c1.1-1.7 2.3-3.4 3.4-5.1 0.3-0.5 0.7-1.1 1.1-1.6l0.1-0.2h-0.9l-0.5-1.6c-0.1 0.2-0.2 0.3-0.3 0.4q-2.6 3.7-5.1 7.5c-1 1.4-2 2.9-3 4.4-2.7 4-5.4 8.1-8 12.3-2.6 4.1-5.3 8.3-7.9 12.5-2.6 4.2-5.1 8.3-7.6 12.4-2.4 4.2-4.9 8.2-7.3 12.4q-3.7 6.4-7.3 12.8c-0.5 0.9-1.1 1.9-1.6 2.8-1.9 3.4-3.7 6.8-5.5 10.1l0.8 2.5h1.1q0 0 0 0 0-0.1 0.1-0.1 0 0 0-0.1 0 0 0-0.1c2.2-4.6 4.6-8.8 6.8-12.9z"/>
	<path id="Layer" class="s2" d="m131 124.6q-1.5 0.1-3 0.1c0.5 0 1 0 1.5 0q0.2 0 0.4 0 0.2 0 0.4 0 0.2 0 0.3 0 0.2 0 0.4-0.1z"/>
	<path id="Layer" class="s3" d="m131 124.6q-1.5 0.1-3 0.1c0.5 0 1 0 1.5 0q0.2 0 0.4 0 0.2 0 0.4 0 0.2 0 0.3 0 0.2 0 0.4-0.1z"/>
	<path id="Layer" class="s2" d="m135.4 112.5q0.3 0 0.5 0c0.7 0 1.3 0 1.9-0.1-0.7 0-1.5 0-2.4 0.1z"/>
	<path id="Layer" class="s3" d="m135.4 112.5q0.3 0 0.5 0c0.7 0 1.3 0 1.9-0.1-0.7 0-1.5 0-2.4 0.1z"/>
	<path id="Layer" class="s13" d="m129.7 73.9q4.4-5.9 8.8-11.6c3-3.9 6.1-7.7 9.3-11.3q0.2-0.4 0.5-0.6 4.6-5.4 9.1-10.2l-5.4-15.4q-1 0.9-2.1 1.9-3.9 3.6-8.1 7.7-4.7 4.7-9.7 10c-3 3.2-6.2 6.7-9.3 10.2-2.7 3.1-5.4 6.2-8.1 9.4l-0.3 0.3 7 20.9c2.8-3.7 5.5-7.6 8.3-11.3z"/>
	<path id="Layer" class="s14" d="m68.6 177.2q-2.8 5.1-5.6 10.4c0 0.1 0 0.1 0 0.2-0.3 0.5-0.6 1-0.8 1.5-1.3 2.4-2.3 4.5-4.9 9.4q1.1 1 2.1 2.1 1 1.2 1.7 2.4 0.8 1.3 1.4 2.6 0.6 1.4 1 2.8 0.1-1.6 0-3.1-0.2-1.6-0.7-3.1-0.4-1.5-1.1-2.9-0.8-1.4-1.8-2.6c14.3 2.7 27.2 0.9 35.1-8.6q1-1.3 2-2.8-1.4 1.3-3.1 2.2-1.7 0.8-3.5 1.2-1.9 0.4-3.7 0.3-1.9-0.2-3.7-0.8 3.1-0.6 6.2-1.8 3-1.2 5.7-2.9 2.8-1.7 5.3-3.7 2.4-2.1 4.5-4.6 1.9-2.3 3.9-5.1c-2.1 1.7-4.4 3.2-6.9 4.3-2.5 1.1-5.1 1.9-7.8 2.4-2.7 0.5-5.5 0.6-8.2 0.3-2.7-0.2-5.4-0.8-8-1.8l-8.1-0.3c-0.3 0.7-0.7 1.3-1 2z"/>
	<path id="Layer" class="s15" d="m74.9 159.8q3.6-6.3 7.3-12.7 3.6-6.2 7.3-12.4 3.8-6.2 7.6-12.4c2.5-4.1 5.2-8.4 7.9-12.6 2.7-4.1 5.4-8.2 8-12.2 1-1.5 2-3 3-4.4 1.7-2.5 3.4-5 5.1-7.5 0.1-0.1 0.2-0.2 0.3-0.4l-6.9-20.8q-0.1 0-0.2 0.1 0 0.1-0.1 0.2-0.1 0.1-0.2 0.2 0 0.1-0.1 0.2c-2.9 3.4-5.7 6.9-8.6 10.5-2.8 3.6-5.6 7.3-8.4 11.1-2.4 3.2-4.7 6.4-7 9.6-0.4 0.7-0.9 1.4-1.3 2-2.8 4.1-5.4 8.1-7.8 12-2.6 4.4-5 8.6-7.2 12.6-1.4 2.6-2.7 5.1-3.9 7.6-1 2.1-2 4.2-3 6.3-2.2 4.9-4.2 9.9-6 14.9l7 21c1.9-3.3 3.8-6.6 5.6-10 0.5-0.9 1.1-1.9 1.6-2.9z"/>
	<path id="Layer" class="s16" d="m60.4 152.4q-0.8 2.3-1.5 4.5-0.8 2.3-1.4 4.6-0.7 2.3-1.3 4.6-0.6 2.3-1.1 4.7c0 0.2-0.1 0.4-0.2 0.6q-0.9-1.6-2-3.2-1.1-1.5-2.4-3-1.2-1.4-2.6-2.7-1.4-1.3-2.9-2.5 1.8 3.1 3.2 6.4 1.3 3.3 2.3 6.7 0.9 3.4 1.4 7 0.5 3.5 0.5 7-1.6-0.1-3.2-0.4-1.6-0.3-3.2-0.8-1.5-0.5-3-1.2-1.5-0.7-2.8-1.5 0.9 1.3 2 2.4 1.1 1.2 2.3 2.2 1.3 1 2.6 1.9 1.4 0.8 2.8 1.5-2.1 0.1-4.2 0.5-2.1 0.4-4.1 1.1-2.1 0.6-4 1.6-1.9 0.9-3.6 2.1 2.1-0.7 4.4-1.2 2.3-0.4 4.6-0.4 2.3-0.1 4.6 0.1 2.2 0.3 4.5 0.9c-9.7 18.1-19.5 38.3-29.6 59.8q0.7-0.1 1.4-0.3 0.7-0.3 1.3-0.7 0.6-0.5 1-1 0.5-0.6 0.8-1.3c1.9-3.9 13.8-29.4 31.6-62.7 0.5-1 1-1.9 1.5-2.9 0.2-0.3 0.3-0.5 0.4-0.8q2.8-5.2 5.8-10.7c0.5-0.8 1-1.6 1.4-2.5l-7-21q-0.1 0.1-0.1 0.1 0 0.1-0.1 0.2 0 0.1 0 0.1-0.1 0.1-0.1 0.2z"/>
	<path id="Layer" class="s17" d="m122.7 87.2c-0.3 0.5-0.7 1-1.1 1.6-1.1 1.7-2.2 3.3-3.3 5-1.1 1.7-2.5 3.8-3.8 5.7q-1 1.4-1.9 2.9-3 4.5-6 9.3c-2.5 4-5 8.1-7.6 12.3-2.5 4.1-5.1 8.3-7.6 12.6q-3.7 6.2-7.5 12.8c-2.2 4-4.5 8-6.8 12.2-0.2 0.2-0.2 0.4-0.4 0.6q-3.4 6.2-6.9 12.8-0.1 0-0.1 0 0 0.1 0 0.1-0.1 0.1-0.1 0.1 0 0 0 0.1l8.1 0.2c-0.1 0-0.3 0-0.5-0.1q4.5-0.3 8.9-1.2 4.4-1 8.6-2.6 4.2-1.6 8.1-3.8 3.9-2.3 7.4-5.1 1.7-1.4 3.4-3 1.6-1.5 3.2-3.1 1.6-1.6 3-3.3 1.5-1.7 2.9-3.5 1.2-1.5 2.3-3.1 1.1-1.6 2.2-3.2 1.1-1.6 2.2-3.3 1-1.7 2-3.3c2.5-4.2 5-8.8 7.4-13.8q-0.9 0.3-1.9 0.5-1 0.3-1.9 0.5-1 0.2-2 0.3-1 0.1-2 0.1l-1.6 0.1c-0.5 0-1 0-1.5 0q3.3-0.8 6.3-2.2 3.1-1.4 5.8-3.4 2.7-2 5-4.5 2.3-2.4 4.1-5.3-1.3 0.7-2.7 1.2-1.4 0.5-2.8 0.9-1.5 0.4-2.9 0.7-1.5 0.2-3 0.4c-0.6 0-1.3 0-1.9 0q-0.2 0-0.5 0 1.1-0.2 2.2-0.6 1.1-0.3 2.2-0.7 1.1-0.5 2.1-0.9 1.1-0.5 2.1-1.1 0.2-0.1 0.4-0.2 0.2-0.1 0.4-0.2 0.2-0.1 0.4-0.2 0.2-0.1 0.4-0.3c0.8-0.5 1.5-1 2.2-1.6 0.5-0.3 0.9-0.7 1.4-1.1q0.4-0.3 0.8-0.7 0.4-0.4 0.8-0.7 0.3-0.4 0.7-0.8 0.3-0.4 0.7-0.8c0.3-0.4 0.6-0.7 0.8-1.1 0.4-0.5 0.8-1 1.1-1.5q2.4-3.5 4-6.3 0.8-1.4 1.5-2.6c0.1-0.3 0.3-0.6 0.5-0.9 0.4-0.9 0.8-1.7 1.1-2.4q0.2-0.3 0.3-0.6 0.1-0.3 0.3-0.6 0.1-0.4 0.2-0.7 0.1-0.3 0.2-0.6-0.1 0.1-0.3 0.1-0.1 0.1-0.2 0.2-0.2 0-0.3 0.1-0.2 0.1-0.3 0.1-1.4 0.5-2.9 0.9-1.4 0.4-2.8 0.6-1.5 0.3-2.9 0.5-1.5 0.1-3 0.2l7.5 0.3-7.5-0.3q0 0 0 0 0 0-0.1 0 0 0 0 0 0 0 0 0-0.2 0-0.3 0-0.2 0-0.3 0-0.2 0-0.3 0-0.2 0-0.3 0c0 0 0.1 0 0.2-0.1l-25.5-0.9c0.1 0.1 0 0.2-0.1 0.3z"/>
	<path id="Layer" class="s18" d="m158.4 40.7q-4.1 4.6-9 10.6-0.1 0.1-0.1 0.2-0.1 0-0.2 0.1 0 0.1-0.1 0.2 0 0.1-0.1 0.1c-2.8 3.5-5.8 7.4-9 11.6-2.8 3.6-5.7 7.5-8.7 11.8-2.7 3.6-5.4 7.5-8.3 11.7l25.5 0.9q2.2-0.5 4.3-1.4 2.1-0.8 4-1.9 2-1.1 3.7-2.5 1.8-1.4 3.3-3 1.6-1.6 3.1-3.5 1.3-1.4 2.4-2.8 1.2-1.4 2.4-2.9 1.1-1.4 2.2-2.9 1.2-1.5 2.2-3 1-1.4 2-2.8 0.9-1.4 1.8-2.9 0.9-1.4 1.8-2.8 0.9-1.5 1.7-3 0.5-0.7 0.9-1.5 0.4-0.8 0.8-1.6 0.4-0.8 0.8-1.6 0.4-0.8 0.7-1.6c0.7-1.7 1.3-3.2 1.9-4.8q-3.8 0.1-7.5 0.1-3.8 0-7.5-0.1-3.8-0.1-7.5-0.3-3.7-0.1-7.5-0.4z"/>
	<path id="Layer" class="s2" d="m129.5 124.7c-0.5 0-1 0-1.5 0q0.2 0 0.4 0 0.2 0 0.4 0 0.1 0 0.3 0 0.2 0 0.4 0z"/>
	<path id="Layer" class="s3" d="m129.5 124.7c-0.5 0-1 0-1.5 0q0.2 0 0.4 0 0.2 0 0.4 0 0.1 0 0.3 0 0.2 0 0.4 0z"/>
	<path id="Layer" class="s19" d="m129.5 124.7c-0.5 0-1 0-1.5 0q0.2 0 0.4 0 0.2 0 0.4 0 0.1 0 0.3 0 0.2 0 0.4 0z"/>
	<path id="Layer" class="s2" d="m135.4 112.5q0.2 0 0.5 0-0.2 0-0.5 0z"/>
	<path id="Layer" class="s3" d="m135.4 112.5q0.2 0 0.5 0-0.2 0-0.5 0z"/>
	<path id="Layer" class="s20" d="m135.4 112.5q0.2 0 0.5 0-0.2 0-0.5 0z"/>
</svg>