<svg version="1.2" xmlns="http://www.w3.org/2000/svg" viewBox="0 0 256 256" width="256" height="256">
	<title>mint-svg</title>
	<style>
		.s0 { fill: #ffffff } 
		.s1 { fill: #69b53f } 
		.s2 { fill: #f8f8f8 } 
	</style>
	<g id="Layer">
		<path id="Layer" class="s0" d="m128 256c-70.8 0-128-57.2-128-128 0-70.8 57.2-128 128-128 70.8 0 128 57.2 128 128 0 70.8-57.2 128-128 128z"/>
		<path id="Layer" class="s1" d="m128 236c-59.7 0-108-48.3-108-108 0-59.7 48.3-108 108-108 59.7 0 108 48.3 108 108 0 59.7-48.3 108-108 108z"/>
		<path id="_x3C_Path_x3E_" class="s2" d="m58 63v90c0.1 22.1 17.9 39.9 40 40h60c22.1-0.1 39.9-17.9 40-40v-50c-0.1-16.5-13.5-29.9-30-30-7.4 0-14.5 2.8-20 7.9-5.5-5-12.6-7.8-20-7.9-16.5 0.1-29.9 13.5-30 30v50h20v-50c0-5.5 4.5-10 10-10 5.5 0 10 4.5 10 10v50h20v-50c0-5.5 4.5-10 10-10 5.5 0 10 4.5 10 10v50c0.1 11-8.8 19.9-19.7 20q-0.1 0-0.3 0h-60c-11 0.1-19.9-8.8-20-19.7q0-0.1 0-0.3v-90z"/>
	</g>
</svg>