<svg version="1.2" xmlns="http://www.w3.org/2000/svg" viewBox="0 0 256 256" width="256" height="256">
	<title>mongodb-svg</title>
	<style>
		.s0 { fill: #13aa52 } 
		.s1 { fill: #ffffff } 
	</style>
	<path id="Layer" class="s0" d="m128 256c-70.8 0-128-57.2-128-128 0-70.8 57.2-128 128-128 70.8 0 128 57.2 128 128 0 70.8-57.2 128-128 128z"/>
	<path id="Layer" fill-rule="evenodd" class="s1" d="m162.7 115.9q0.3 1.8 0.4 3.5 0.2 1.8 0.3 3.6 0.1 1.8 0.1 3.6c0.1 28.5-14.9 46.4-23.3 54.1l-0.2 0.1q-0.6 0.6-1.2 1.1-0.6 0.6-1.2 1.1-0.6 0.5-1.3 1-0.6 0.5-1.3 1l-0.3 0.1q-0.5 2.4-1 4.9-0.4 2.4-0.8 4.9-0.5 2.4-0.8 4.9-0.3 2.5-0.6 5h-3.1c-0.8-9.4-2.1-18.2-2.1-18.4l-0.4-0.3c-4-2.8-33.1-25.4-31.3-63.2 1.9-40.5 25.7-60.5 30.3-64.1 3-3.2 3.1-4.4 3.4-7.6 0 0.2 0.1 0.4 0.1 0.5 0 0 2.3 5.6 4.6 8.8 2 4.4 21.1 16.2 29.2 51.9q0.3 1.7 0.5 3.5zm-29.7 64.3c0 0-1.8-68.4-3.2-68.4-1.7-0.1-1.7 53-1.7 53 0 4.1 2.4 15.1 4.9 15.4z"/>
</svg>