<svg version="1.2" xmlns="http://www.w3.org/2000/svg" viewBox="0 0 256 256" width="256" height="256">
	<title>mysql-svg</title>
	<style>
		.s0 { fill: #00618a } 
	</style>
	<path id="Layer" fill-rule="evenodd" class="s0" d="m222.2 185.9c-5.5-3.9-11.3-8.2-17.2-11.8-3.1-1.8-8.4-3.3-11.7-4.6-4.6-2-14.9-3.9-17.5-7.4-5.1-6.8-8.6-15-12.1-23.1-3.6-8.1-8.2-16.6-11.8-25-1.7-4.1-2.6-7.8-4.6-11.7-12.6-24.1-31-44.3-53.5-58.5-7.4-4.7-15.5-8.9-24.6-11.7-5.1-1.6-11.3-0.7-16.8-2h-3.5c-3.1-0.9-5.6-4.1-8.2-5.8-5.3-3.5-10.5-6-16.8-8.6-2.3-1-8.6-3.3-10.9-1.6-1.3 0.5-1.9 1-2.3 2.4-1.3 2-0.1 5.1 0.8 7 2.5 5.5 6.1 8.8 9.3 13.3 2.9 4 6.5 8.7 8.6 13.2 4.4 9.6 6.4 20.2 10.5 29.7 1.7 3.6 4 7.8 6.3 10.9 1.9 2.6 5.2 4.5 6.2 7.8 2.2 3.4-3.1 14.8-4.3 18.4-4.5 14-3.5 33.5 1.6 45.6 2 4.8 3.9 10.4 9.4 11.7 0.4-0.3 0.1-0.1 0.8-0.3 1.1-9.4 1.5-18.4 4.6-25.8 2-4.6 5.7-7.8 8.2-11.7 1.9 1.1 1.9 4.2 2.8 6.2 2.3 5.4 4.6 11.2 7.4 16.4 5.7 11 12 21.6 19.1 31.2 2.5 3.5 5.9 7.2 9 10.2 1.3 1.3 2.9 1.9 3.9 3.5h0.4v0.4c-5.3-1.8-8.5-7.1-12.5-10.1-7.8-6-17.1-14.7-22.3-23.1l-7-14v-0.4c-1 1.3-0.7 2.7-1.2 4.7-2.2 8.6-0.4 18.3-8.2 21.4-8.8 3.6-15.2-5.7-17.9-10.1-8.9-14.2-11.2-38.2-5.1-57.4 1.4-4.3 1.5-9.5 3.9-12.9-0.4-3-2.8-3.9-4.3-5.8-2.3-3.2-4.4-7-6.2-10.6-3.7-7-6.2-15.3-9-23-1.1-3.1-1.4-6-2.7-9-2.1-4.4-5.7-8.9-8.6-12.8-4.1-5.7-15.5-16.6-10.9-27.7 7.2-17.7 32.3-4.3 42.1 1.9 2.5 1.6 5.2 4.8 7.8 5.9q6.5 0.4 12.9 0.7c8 1.9 15.6 3.4 21.8 7.1 29.6 17.3 48.7 34.8 66.4 64 3.7 6 5.6 12.7 8.6 19.5 4.3 9.9 9.1 20.2 14 29.6 2.4 4.6 4 9.5 7 13.3 1.3 1.6 4.7 2.2 6.7 3.1 5.8 3 12.5 5.2 17.9 8.6 9.8 6.2 19.4 13.7 28.1 21.1 3.4 2.8 5.5 7 8.6 10.1v1.6l-8.2 2.3c-6 1.6-11.3 1.2-17.2 2.8-3.4 0.9-7.9 2.3-11.7 2.7l0.4 0.4c2.3 6.2 14.2 11.4 19.5 15.2 6.7 4.8 13 10.6 18 17.2l5.1 5.1c1.1 1.6 1.4 3.8 2.7 5.4v0.4c-2.4-0.8-3.6-2.9-5.5-4.3-3.7-2.7-7.5-5.8-11.3-8.2-6.5-4.1-13.9-6.4-20.7-10.5-3.7-2.3-7.4-5.2-10.9-7.8-3.2-2.4-6.8-7.1-9-10.5-1.1-1.9-1.3-4-2.7-5.5 0.4-3.2 4.5-3.2 7-4.3 9-3.8 19.5-5.1 33.2-4.7-0.4-3.5-8.9-7.8-11.7-9.7zm-158.1-135.1c0.9 1.3 1 2.5 2 3.5 0 4.2-1.1 6.9-3.5 8.6l-0.4 0.4q-2-4.1-3.9-8.2c-1.7-2.4-4.1-4.2-5.5-7h-0.4v-0.4c2.2-0.5 4.2-0.8 7.1-0.8 1.4 1.4 3.5 2.3 4.6 3.9z"/>
</svg>