<svg version="1.2" xmlns="http://www.w3.org/2000/svg" viewBox="0 0 261 256" width="261" height="256">
	<title>mysql-svg</title>
	<style>
		.s0 { fill: #00618a } 
	</style>
	<path id="Layer" fill-rule="evenodd" class="s0" d="m228.2 187.3c-5.7-4-11.6-8.4-17.7-12.1-3.2-1.9-8.7-3.4-12.1-4.8-4.8-2.1-15.4-4-18.2-7.7-5.2-7-8.8-15.4-12.5-23.8-3.7-8.4-8.3-17.2-12.1-25.8-1.8-4.3-2.7-8.1-4.8-12.1-13-24.9-32-45.8-55.2-60.5-7.7-4.8-16.1-9.2-25.4-12.1-5.3-1.6-11.7-0.7-17.4-2h-3.6c-3.2-0.9-5.8-4.3-8.5-6-5.4-3.7-10.8-6.2-17.3-8.9-2.4-1-9-3.4-11.3-1.6-1.4 0.4-2 1-2.4 2.4-1.4 2.1-0.1 5.3 0.8 7.3 2.6 5.6 6.3 9 9.7 13.7 3 4.2 6.7 9 8.8 13.7 4.6 9.9 6.6 20.8 10.9 30.6 1.7 3.8 4.1 8.1 6.5 11.3 1.9 2.6 5.4 4.6 6.4 8.1 2.2 3.4-3.2 15.2-4.4 18.9-4.6 14.5-3.7 34.7 1.6 47.2 2.1 5 4.1 10.7 9.7 12.1 0.4-0.3 0.1-0.2 0.8-0.4 1.2-9.7 1.6-19 4.8-26.6 2.1-4.8 5.9-8.1 8.5-12.1 1.9 1.1 1.9 4.3 2.8 6.4 2.4 5.6 4.9 11.5 7.7 17 5.9 11.3 12.4 22.2 19.7 32.2 2.6 3.6 6.2 7.4 9.3 10.5 1.4 1.3 3 2 4 3.6h0.4v0.4c-5.4-1.8-8.7-7.3-12.9-10.4-8-6.1-17.6-15.2-22.9-23.8l-7.3-14.6v-0.4c-1 1.4-0.7 2.9-1.2 4.9-2.3 8.9-0.5 18.9-8.5 22.2-9.1 3.7-15.7-6-18.5-10.5-9.2-14.7-11.6-39.4-5.3-59.3 1.4-4.4 1.6-9.8 4.1-13.3-0.4-3.1-3-4-4.5-6-2.4-3.3-4.5-7.2-6.4-10.9-3.8-7.3-6.4-15.9-9.3-23.8-1.2-3.2-1.4-6.3-2.8-9.3-2.1-4.6-5.9-9.2-8.9-13.3-4.2-5.8-16-17.1-11.3-28.6 7.5-18.3 33.5-4.4 43.6 2 2.5 1.6 5.3 4.9 8 6q6.7 0.5 13.3 0.9c8.3 1.9 16.1 3.4 22.6 7.2 30.5 17.9 50.3 36 68.6 66.1 3.8 6.3 5.8 13.2 8.8 20.2 4.5 10.2 9.5 20.9 14.5 30.6 2.5 4.7 4.2 9.7 7.3 13.7 1.3 1.7 4.8 2.3 6.9 3.3 5.9 3 12.9 5.3 18.5 8.8 10.1 6.4 20 14.1 29 21.8 3.5 2.9 5.7 7.2 8.9 10.5v1.6l-8.5 2.4c-6.2 1.6-11.6 1.2-17.7 2.8-3.6 1-8.2 2.4-12.1 2.9l0.4 0.4c2.3 6.4 14.6 11.7 20.2 15.7 6.9 4.9 13.4 10.9 18.5 17.7l5.2 5.3c1.2 1.7 1.6 4 2.9 5.6v0.4c-2.5-0.9-3.8-3-5.7-4.4-3.8-2.8-7.7-6-11.7-8.5-6.6-4.2-14.4-6.6-21.3-10.9-3.9-2.3-7.7-5.3-11.3-8-3.4-2.5-7.1-7.3-9.3-10.9-1.1-1.9-1.4-4.1-2.8-5.7 0.4-3.3 4.6-3.3 7.2-4.4 9.3-3.9 20.1-5.2 34.3-4.8-0.4-3.7-9.2-8.1-12.1-10.1zm-163.3-139.5c0.9 1.3 1 2.6 2 3.6 0 4.3-1.1 7.1-3.6 8.9l-0.4 0.4q-2-4.2-4-8.5c-1.8-2.5-4.3-4.3-5.7-7.2h-0.4v-0.4c2.2-0.5 4.3-0.9 7.3-0.8 1.4 1.4 3.7 2.3 4.8 4z"/>
</svg>