<svg version="1.2" xmlns="http://www.w3.org/2000/svg" viewBox="0 0 222 256" width="222" height="256">
	<title>netbeans-svg</title>
	<style>
		.s0 { fill: #a1c535 } 
		.s1 { fill: #add439 } 
		.s2 { fill: #1b6ac6 } 
		.s3 { fill: #2e90e8 } 
		.s4 { fill: #ea205e } 
		.s5 { fill: #a5073e } 
		.s6 { fill: #f1f6e2 } 
		.s7 { fill: #cedbe6 } 
		.s8 { fill: #ffffff } 
	</style>
	<g id="logo">
		<path id="Layer" fill-rule="evenodd" class="s0" d="m111 0v49.5l-68 39.5-43-25z"/>
		<path id="Layer" fill-rule="evenodd" class="s1" d="m222 64l-43 25-68-39.5v-49.5z"/>
		<path id="Layer" fill-rule="evenodd" class="s2" d="m222 192l-43-25v-78l43-25z"/>
		<path id="Layer" fill-rule="evenodd" class="s3" d="m111 256v-49.5l68-39.5 43 25z"/>
		<path id="Layer" fill-rule="evenodd" class="s4" d="m0 192l43-25 68 39.5v49.5z"/>
		<path id="Layer" fill-rule="evenodd" class="s5" d="m0 64l43 25v78l-43 25z"/>
		<path id="Layer" fill-rule="evenodd" class="s6" d="m43 89l68-39.5 68 39.5-68 39z"/>
		<path id="Layer" fill-rule="evenodd" class="s7" d="m111 128l68-39v78l-68 39.5z"/>
		<path id="Layer" fill-rule="evenodd" class="s8" d="m43 89l68 39v78.5l-68-39.5z"/>
	</g>
</svg>