<svg version="1.2" xmlns="http://www.w3.org/2000/svg" viewBox="0 0 256 256" width="256" height="256">
	<title>python-svg</title>
	<style>
		.s0 { fill: #00505d } 
	</style>
	<path id="Layer" fill-rule="evenodd" class="s0" d="m158.6 2.5c16.8 2.8 30.9 15.2 30.9 31.7v58.2c0 17-13.7 31-30.9 31h-61.6c-21 0-38.6 17.8-38.6 38v27.9h-21.2c-18 0-28.5-12.9-32.9-31-5.9-24.3-5.6-38.8 0-62.1 5-20.3 20.7-30.9 38.6-30.9h84.9v-7.8h-61.7v-23.3c0-17.6 4.7-27.1 30.9-31.7 8.8-1.6 18.9-2.4 29.5-2.5 10.5 0 21.5 0.7 32.1 2.5zm-53.9 27.9c0-6.5-5.2-11.7-11.6-11.7-6.4 0-11.6 5.2-11.6 11.7 0 6.4 5.2 11.6 11.6 11.6 6.4 0 11.6-5.2 11.6-11.6z"/>
	<path id="Layer" fill-rule="evenodd" class="s0" d="m220.4 65.3c18 0 26.4 13.3 30.9 30.9 6.1 24.6 6.4 43 0 62.1-6.3 18.6-13 31-30.9 31h-92.6v7.7h61.7v23.3c0 17.6-15.3 26.6-30.9 31-23.3 6.8-42.1 5.7-61.6 0-16.4-4.7-30.9-14.4-30.9-31v-58.1c0-16.8 14-31.1 30.9-31.1h61.6c20.6 0 38.6-17.7 38.6-38.7v-27.1zm-46.3 158.9c0-6.4-5.2-11.6-11.6-11.6-6.4 0-11.6 5.2-11.6 11.6 0 6.4 5.2 11.6 11.6 11.6 6.4 0 11.6-5.2 11.6-11.6z"/>
</svg>