<svg version="1.2" xmlns="http://www.w3.org/2000/svg" viewBox="0 0 444 271" width="444" height="271">
	<title>nodejs-svg</title>
	<defs>
		<clipPath clipPathUnits="userSpaceOnUse" id="cp1">
			<path d="m161.72 62.59l-42.13 24.32c-1.57 0.91-2.54 2.59-2.54 4.4v48.67c0 1.82 0.97 3.5 2.54 4.41l42.14 24.33c1.57 0.91 3.51 0.91 5.09 0l42.12-24.33c1.57-0.91 2.54-2.59 2.54-4.41v-48.67c0-1.81-0.97-3.49-2.55-4.4l-42.12-24.32c-0.79-0.45-1.67-0.68-2.55-0.68-0.88 0-1.76 0.23-2.55 0.68"/>
		</clipPath>
		<linearGradient id="g1" x2="1" gradientUnits="userSpaceOnUse" gradientTransform="matrix(-60.866,124.166,-118.702,-58.188,194.664,53.59)">
			<stop offset=".3" stop-color="#3e863d"/>
			<stop offset=".5" stop-color="#55934f"/>
			<stop offset=".8" stop-color="#5aad45"/>
		</linearGradient>
		<clipPath clipPathUnits="userSpaceOnUse" id="cp2">
			<path d="m118.09 143.07q0.61 0.8 1.5 1.32l36.14 20.87 6.02 3.46c0.9 0.52 1.93 0.74 2.94 0.67q0.5-0.05 1-0.19l44.43-81.36q-0.51-0.55-1.18-0.94l-27.59-15.93-14.58-8.39q-0.63-0.35-1.32-0.53z"/>
		</clipPath>
		<linearGradient id="g2" x2="1" gradientUnits="userSpaceOnUse" gradientTransform="matrix(110.864,-81.916,83.836,113.463,109.179,157.365)">
			<stop offset=".57" stop-color="#3e863d"/>
			<stop offset=".72" stop-color="#619857"/>
			<stop offset="1" stop-color="#76ac64"/>
		</linearGradient>
		<clipPath clipPathUnits="userSpaceOnUse" id="cp3">
			<path d="m163.76 61.94q-1.07 0.1-2.03 0.65l-42.01 24.25 45.3 82.51q0.95-0.14 1.81-0.63l42.13-24.33c1.3-0.76 2.19-2.03 2.46-3.48l-46.18-78.89q-0.51-0.1-1.04-0.1-0.2 0-0.41 0.02"/>
		</clipPath>
		<linearGradient id="g3" x2="1" gradientUnits="userSpaceOnUse" gradientTransform="matrix(91.669,0,0,107.414,119.745,115.636)">
			<stop offset=".16" stop-color="#6bbf47"/>
			<stop offset=".38" stop-color="#79b461"/>
			<stop offset=".47" stop-color="#75ac64"/>
			<stop offset=".7" stop-color="#659e5a"/>
			<stop offset=".9" stop-color="#3e863d"/>
		</linearGradient>
	</defs>
	<style>
		.s0 { fill: #689f63;stroke: #ffffff;paint-order:stroke fill markers;stroke-linejoin: round;stroke-width: 2 } 
		.s1 { fill: #689f63 } 
		.s2 { fill: #333333 } 
		.s3 { fill: url(#g1) } 
		.s4 { fill: url(#g2) } 
		.s5 { fill: url(#g3) } 
	</style>
	<path id="Layer" class="s0" d="m219.6 270.9c-1.4 0-2.9-0.4-4.1-1.1l-13.4-7.9c-2-1.1-1-1.5-0.3-1.7 2.6-1 3.2-1.2 6-2.8 0.3-0.1 0.7-0.1 1 0.1l10.2 6.1c0.4 0.2 0.9 0.2 1.3 0l39.9-23.1c0.4-0.2 0.6-0.6 0.6-1.1v-46.1c0-0.4-0.2-0.8-0.6-1.1l-39.9-23c-0.4-0.2-0.9-0.2-1.3 0l-39.9 23c-0.4 0.3-0.6 0.7-0.6 1.1v46.1c0 0.5 0.2 0.9 0.6 1.1l10.9 6.3c6 3 9.6-0.5 9.6-4v-45.5c0-0.7 0.5-1.2 1.2-1.2h5c0.7 0 1.2 0.5 1.2 1.2v45.5c0 7.9-4.3 12.5-11.8 12.5-2.4 0-4.2 0-9.3-2.5l-10.4-6.1c-2.6-1.5-4.2-4.3-4.2-7.3v-46.1c0-3 1.6-5.8 4.2-7.3l40-23c2.5-1.5 5.8-1.5 8.4 0l39.9 23.1c2.6 1.4 4.2 4.2 4.2 7.2v46.1c0 3-1.6 5.8-4.2 7.3l-39.9 23.1c-1.3 0.7-2.8 1.1-4.3 1.1"/>
	<path id="Layer" fill-rule="evenodd" class="s1" d="m232 239.2c-17.5 0-21.2-8.1-21.2-14.8 0-0.6 0.6-1.1 1.2-1.1h5.2c0.5 0 1 0.4 1.1 0.9 0.8 5.3 3.1 7.9 13.7 7.9 8.4 0 12-1.9 12-6.3 0-2.6-1.1-4.5-14.1-5.8-11-1.1-17.7-3.5-17.7-12.2 0-8.1 6.8-12.9 18.2-12.9 12.7 0 19.1 4.5 19.9 14 0 0.3-0.1 0.7-0.3 0.9-0.2 0.2-0.6 0.4-0.9 0.4h-5.2c-0.5 0-1-0.4-1.1-0.9-1.2-5.6-4.3-7.3-12.5-7.3-9.2 0-10.2 3.2-10.2 5.6 0 2.9 1.2 3.7 13.6 5.4 12.3 1.6 18.1 3.9 18.1 12.5 0 8.7-7.2 13.7-19.9 13.7m57.6-48.3c0 4.2-3.4 7.7-7.7 7.7-4.2 0-7.7-3.5-7.7-7.7 0-4.4 3.6-7.7 7.7-7.7 4.2 0 7.7 3.3 7.7 7.7zm-14.1-0.1c0 3.6 2.9 6.5 6.4 6.5 3.6 0 6.5-2.9 6.5-6.5 0-3.5-2.9-6.4-6.5-6.4-3.5 0-6.4 2.8-6.4 6.4zm3.5-4.3h3c1 0 3 0 3 2.3 0 1.6-1 1.9-1.6 2.1 1.2 0.1 1.3 0.9 1.4 2 0.1 0.7 0.2 1.9 0.5 2.3h-1.8c-0.1-0.4-0.4-2.6-0.4-2.7-0.1-0.5-0.3-0.8-0.9-0.8h-1.5v3.5h-1.7zm1.7 3.8h1.3c1.1 0 1.3-0.8 1.3-1.3 0-1.1-0.8-1.1-1.2-1.1h-1.4z"/>
	<path id="Layer" fill-rule="evenodd" class="s2" d="m95.9 156.2c0 0.9-0.5 1.7-1.3 2.2-0.8 0.5-1.8 0.5-2.6 0l-25.1-14.4c-1.6-1-2.6-2.6-2.6-4.5v-30.6c0-1.9-1-3.5-2.6-4.5l-10.7-6.1c-0.8-0.5-1.6-0.7-2.5-0.7q-1.4 0-2.6 0.7l-10.7 6.2c-1.6 0.9-2.6 2.6-2.6 4.4v30.6c0 1.9-0.9 3.5-2.5 4.5l-25.2 14.4c-0.8 0.5-1.8 0.5-2.5 0-0.8-0.4-1.3-1.3-1.3-2.2l-0.1-65.6c0-1.9 1-3.6 2.6-4.5l42.3-24.4c0.7-0.4 1.5-0.6 2.4-0.6h0.4c0.8 0 1.6 0.2 2.3 0.6l42.4 24.4c1.6 0.9 2.5 2.6 2.5 4.5zm229.1-141.8c1.6 0.9 2.7 2.6 2.7 4.4v122c0 1.8-1 3.5-2.6 4.4l-42.4 24.5c-1.6 0.9-3.5 0.9-5.1 0l-42.4-24.5c-1.5-0.9-2.5-2.6-2.5-4.4v-49c0-1.8 1-3.5 2.5-4.4l42.4-24.4c1.6-0.9 3.5-0.9 5.1 0l10.6 6.1c0.6 0.3 1.3 0.3 1.8 0 0.6-0.3 0.9-0.9 0.9-1.6v-65c0-0.9 0.5-1.7 1.3-2.2 0.8-0.4 1.7-0.4 2.5 0zm-29.1 93.5c0-0.4-0.3-0.8-0.7-1.1l-14.5-8.4c-0.4-0.2-0.9-0.2-1.3 0l-14.5 8.4c-0.4 0.3-0.7 0.7-0.7 1.1v16.8c0 0.5 0.3 0.9 0.7 1.1l14.5 8.4c0.4 0.2 0.9 0.2 1.3 0l14.5-8.4c0.4-0.2 0.7-0.6 0.7-1.1zm119.6 14.3c-0.8 0.5-1.8 0.5-2.6 0.1-0.8-0.5-1.2-1.4-1.2-2.3v-12c0-0.9-0.5-1.8-1.3-2.2l-13.3-7.7c-0.8-0.4-1.8-0.4-2.5 0l-13.3 7.7c-0.8 0.4-1.3 1.3-1.3 2.2v15.3c0 0.9 0.5 1.8 1.3 2.2l42.6 24.5c0.8 0.4 1.3 1.3 1.3 2.2 0 0.9-0.5 1.8-1.3 2.2l-25.5 14.2c-1.5 0.9-3.4 0.9-5 0l-42.1-24c-1.6-0.9-2.5-2.6-2.5-4.5v-48.9c0-1.8 0.9-3.5 2.5-4.4l42.4-24.5c1.6-0.9 3.5-0.9 5.1 0l42.1 24.5c1.6 0.9 2.6 2.6 2.6 4.4v11.9c0 1.8-1 3.5-2.6 4.4z"/>
	<path id="Layer" fill-rule="evenodd" class="s1" d="m395.5 105.2c0.3-0.2 0.7-0.2 1 0l8.1 4.7c0.4 0.2 0.5 0.5 0.5 0.8v9.4c0 0.4-0.1 0.7-0.5 0.9l-8.1 4.7c-0.3 0.1-0.7 0.1-1 0l-8.1-4.7c-0.3-0.2-0.5-0.5-0.5-0.9v-9.4c0-0.3 0.2-0.6 0.5-0.8z"/>
	<g id="Clip-Path" clip-path="url(#cp1)">
		<g id="Layer">
			<path id="Layer" class="s3" d="m254.1 82.8l-118.8-58.2-60.8 124.2 118.7 58.2z"/>
		</g>
	</g>
	<g id="Clip-Path" clip-path="url(#cp2)">
		<g id="Layer">
			<path id="Layer" class="s4" d="m66.8 100l83.8 113.4 110.8-81.9-83.8-113.4z"/>
		</g>
	</g>
	<g id="Clip-Path" clip-path="url(#cp3)">
		<g id="Layer">
			<path id="Layer" class="s5" d="m119.7 61.9v107.4h91.7v-107.4z"/>
		</g>
	</g>
</svg>