<svg version="1.2" xmlns="http://www.w3.org/2000/svg" viewBox="0 0 419 256" width="419" height="256">
	<title>nodejs-svg</title>
	<defs>
		<clipPath clipPathUnits="userSpaceOnUse" id="cp1">
			<path d="m152.62 59.12l-39.76 22.98c-1.49 0.86-2.4 2.44-2.4 4.16v45.97c0 1.72 0.91 3.3 2.4 4.16l39.76 22.99c1.49 0.86 3.32 0.86 4.8 0l39.76-22.99c1.48-0.86 2.4-2.44 2.4-4.16v-45.97c0-1.72-0.92-3.3-2.41-4.16l-39.75-22.98c-0.75-0.42-1.58-0.64-2.41-0.64-0.83 0-1.66 0.22-2.4 0.64"/>
		</clipPath>
		<linearGradient id="g1" x2="1" gradientUnits="userSpaceOnUse" gradientTransform="matrix(-57.497,117.293,-112.068,-54.935,183.732,50.624)">
			<stop offset=".3" stop-color="#3e863d"/>
			<stop offset=".5" stop-color="#55934f"/>
			<stop offset=".8" stop-color="#5aad45"/>
		</linearGradient>
		<clipPath clipPathUnits="userSpaceOnUse" id="cp2">
			<path d="m111.44 135.15q0.58 0.75 1.42 1.24l34.1 19.72 5.68 3.27c0.85 0.49 1.82 0.7 2.77 0.63q0.48-0.04 0.95-0.17l41.93-76.86q-0.48-0.52-1.12-0.89l-26.03-15.05-13.76-7.92q-0.59-0.34-1.25-0.5z"/>
		</clipPath>
		<linearGradient id="g2" x2="1" gradientUnits="userSpaceOnUse" gradientTransform="matrix(104.622,-77.303,79.133,107.099,103.031,148.615)">
			<stop offset=".57" stop-color="#3e863d"/>
			<stop offset=".72" stop-color="#619857"/>
			<stop offset="1" stop-color="#76ac64"/>
		</linearGradient>
		<clipPath clipPathUnits="userSpaceOnUse" id="cp3">
			<path d="m154.54 58.51q-1.01 0.1-1.92 0.61l-39.65 22.91 42.75 77.94q0.91-0.13 1.71-0.59l39.76-22.99c1.23-0.71 2.07-1.91 2.32-3.28l-43.58-74.52q-0.48-0.1-0.97-0.1-0.2 0-0.4 0.02"/>
		</clipPath>
		<linearGradient id="g3" x2="1" gradientUnits="userSpaceOnUse" gradientTransform="matrix(86.508,0,0,101.469,113.003,109.235)">
			<stop offset=".16" stop-color="#6bbf47"/>
			<stop offset=".38" stop-color="#79b461"/>
			<stop offset=".47" stop-color="#75ac64"/>
			<stop offset=".7" stop-color="#659e5a"/>
			<stop offset=".9" stop-color="#3e863d"/>
		</linearGradient>
	</defs>
	<style>
		.s0 { fill: #689f63 } 
		.s1 { fill: #333333 } 
		.s2 { fill: url(#g1) } 
		.s3 { fill: url(#g2) } 
		.s4 { fill: url(#g3) } 
	</style>
	<path id="Layer" class="s0" d="m207.3 255.9c-1.4 0-2.8-0.3-4-1l-12.6-7.5c-1.8-1-0.9-1.4-0.3-1.6 2.5-0.9 3-1.1 5.7-2.6 0.3-0.2 0.6-0.1 0.9 0l9.7 5.8c0.3 0.2 0.8 0.2 1.2 0l37.7-21.8c0.3-0.2 0.5-0.6 0.5-1v-43.6c0-0.4-0.2-0.8-0.5-1l-37.7-21.8c-0.4-0.2-0.8-0.2-1.2 0l-37.7 21.8c-0.3 0.2-0.6 0.6-0.6 1v43.6c0 0.4 0.3 0.8 0.6 1l10.3 6c5.6 2.8 9.1-0.5 9.1-3.9v-42.9c0-0.7 0.5-1.1 1.1-1.1h4.7c0.6 0 1.1 0.4 1.1 1.1v43c0 7.4-4 11.7-11.1 11.7-2.2 0-3.9 0-8.7-2.3l-9.9-5.7c-2.5-1.5-4-4.1-4-6.9v-43.6c0-2.8 1.5-5.5 4-6.8l37.7-21.8c2.4-1.4 5.6-1.4 7.9 0l37.7 21.8c2.5 1.4 4 4 4 6.8v43.6c0 2.8-1.5 5.4-4 6.9l-37.7 21.8c-1.2 0.7-2.5 1-3.9 1"/>
	<path id="Layer" fill-rule="evenodd" class="s0" d="m218.9 225.9c-16.5 0-19.9-7.6-19.9-13.9 0-0.6 0.5-1.1 1.1-1.1h4.8c0.6 0 1 0.4 1.1 0.9 0.7 5 2.9 7.5 12.9 7.5 8 0 11.3-1.8 11.3-6 0-2.4-0.9-4.2-13.3-5.5-10.3-1-16.7-3.3-16.7-11.5 0-7.6 6.4-12.2 17.2-12.2 12.1 0 18 4.2 18.8 13.2 0 0.3-0.1 0.7-0.3 0.9-0.2 0.2-0.5 0.3-0.8 0.3h-4.9c-0.5 0-0.9-0.3-1.1-0.8-1.1-5.2-4-6.9-11.7-6.9-8.7 0-9.7 3-9.7 5.3 0 2.7 1.2 3.5 12.9 5.1 11.6 1.5 17.1 3.7 17.1 11.8 0 8.3-6.9 13-18.8 13m47.1-38.4c-4 0-7.3-3.3-7.3-7.3 0-4 3.3-7.3 7.3-7.3 4 0 7.2 3.3 7.2 7.3 0 4-3.2 7.3-7.2 7.3zm-6.1-7.3c0 3.4 2.7 6.1 6.1 6.1 3.3 0 6.1-2.8 6.1-6.1 0-3.4-2.8-6.1-6.1-6.1-3.4 0-6.1 2.6-6.1 6.1zm3.3-4.1h2.8c1 0 2.9 0 2.9 2.2 0 1.5-1 1.8-1.5 2 1.1 0 1.2 0.8 1.3 1.8 0.1 0.7 0.2 1.8 0.4 2.2h-1.7c0-0.4-0.3-2.5-0.3-2.6-0.1-0.5-0.3-0.7-0.9-0.7h-1.4v3.3h-1.6zm1.6 3.5h1.2c1.1 0 1.3-0.7 1.3-1.1 0-1.1-0.8-1.1-1.2-1.1h-1.3z"/>
	<path id="Layer" fill-rule="evenodd" class="s1" d="m90.5 147.5c0 0.9-0.5 1.7-1.2 2.1-0.8 0.5-1.7 0.5-2.5 0l-23.7-13.6c-1.5-0.9-2.4-2.5-2.4-4.2v-28.9c0-1.8-0.9-3.4-2.4-4.2l-10.2-5.9c-0.7-0.4-1.5-0.6-2.4-0.6q-1.2 0-2.4 0.6l-10.1 5.9c-1.5 0.8-2.4 2.4-2.4 4.2v28.9c0 1.7-0.9 3.3-2.4 4.2l-23.8 13.6c-0.7 0.5-1.6 0.5-2.4 0-0.7-0.4-1.2-1.2-1.2-2.1l-0.1-62c0-1.7 1-3.3 2.5-4.2l39.9-23q1.1-0.6 2.2-0.6h0.5c0.7 0 1.5 0.2 2.1 0.6l40 23c1.5 0.9 2.4 2.5 2.4 4.2zm216.2-133.9c1.5 0.9 2.5 2.5 2.5 4.2v115.2c0 1.7-0.9 3.3-2.4 4.2l-40 23.1c-1.5 0.9-3.3 0.9-4.8 0l-40-23.1c-1.5-0.9-2.4-2.5-2.4-4.2v-46.2c0-1.7 0.9-3.3 2.4-4.2l40-23.1c1.5-0.8 3.3-0.8 4.8 0l10 5.8c0.5 0.3 1.2 0.3 1.7 0 0.5-0.3 0.8-0.9 0.8-1.5v-61.4c0-0.8 0.5-1.6 1.2-2.1 0.8-0.4 1.7-0.4 2.4 0zm-27.5 88.4c0-0.5-0.2-0.9-0.6-1.1l-13.7-7.9c-0.4-0.2-0.8-0.2-1.2 0l-13.7 7.9c-0.4 0.2-0.6 0.6-0.6 1.1v15.8c0 0.5 0.2 0.9 0.6 1.1l13.7 7.9c0.4 0.2 0.8 0.2 1.2 0l13.7-7.9c0.4-0.2 0.6-0.6 0.6-1.1zm112.9 13.6c-0.7 0.4-1.7 0.4-2.4 0-0.7-0.5-1.2-1.3-1.2-2.1v-11.4c0-0.9-0.5-1.7-1.2-2.1l-12.5-7.2c-0.8-0.5-1.7-0.5-2.4 0l-12.6 7.2c-0.7 0.4-1.2 1.2-1.2 2.1v14.5c0 0.8 0.5 1.6 1.3 2.1l40.2 23.1c0.7 0.4 1.2 1.2 1.2 2.1 0 0.8-0.5 1.7-1.2 2.1l-24.1 13.3c-1.5 0.9-3.2 0.9-4.7 0l-39.7-22.6c-1.5-0.9-2.5-2.5-2.5-4.3v-46.1c0-1.8 1-3.4 2.5-4.2l39.9-23.1c1.5-0.9 3.4-0.9 4.9 0l39.7 23.1c1.5 0.8 2.4 2.4 2.4 4.1v11.2c0 1.8-0.9 3.4-2.4 4.2z"/>
	<path id="Layer" fill-rule="evenodd" class="s0" d="m373.3 99.4c0.2-0.2 0.6-0.2 0.9 0l7.7 4.4c0.3 0.2 0.4 0.5 0.4 0.8v8.9c0 0.3-0.1 0.6-0.4 0.8l-7.7 4.4c-0.3 0.2-0.7 0.2-0.9 0l-7.7-4.4c-0.3-0.2-0.5-0.5-0.5-0.8v-8.9c0-0.3 0.2-0.6 0.5-0.8z"/>
	<g id="Clip-Path" clip-path="url(#cp1)">
		<g id="Layer">
			<path id="Layer" class="s2" d="m239.8 78.2l-112.1-55-57.4 117.3 112 55z"/>
		</g>
	</g>
	<g id="Clip-Path" clip-path="url(#cp2)">
		<g id="Layer">
			<path id="Layer" class="s3" d="m63 94.5l79.1 107.1 104.6-77.3-79.1-107.2z"/>
		</g>
	</g>
	<g id="Clip-Path" clip-path="url(#cp3)">
		<g id="Layer">
			<path id="Layer" class="s4" d="m113 58.5v101.5h86.5v-101.5z"/>
		</g>
	</g>
</svg>