<?xml version="1.0" encoding="UTF-8"?>
<svg xmlns="http://www.w3.org/2000/svg" xmlns:xlink="http://www.w3.org/1999/xlink" width="px" height="40px" viewBox="0 0 65 40" version="1.1">
<defs>
<clipPath id="clip1">
  <path d="M 17 9 L 31 9 L 31 26 L 17 26 Z M 17 9 "/>
</clipPath>
<clipPath id="clip2">
  <path d="M 23.675781 9.238281 L 17.507812 12.828125 C 17.277344 12.960938 17.136719 13.210938 17.136719 13.476562 L 17.136719 20.660156 C 17.136719 20.929688 17.277344 21.179688 17.507812 21.3125 L 23.675781 24.902344 C 23.90625 25.039062 24.191406 25.039062 24.421875 24.902344 L 30.589844 21.3125 C 30.816406 21.179688 30.960938 20.929688 30.960938 20.660156 L 30.960938 13.476562 C 30.960938 13.210938 30.816406 12.960938 30.585938 12.828125 L 24.421875 9.238281 C 24.304688 9.171875 24.175781 9.136719 24.046875 9.136719 C 23.917969 9.136719 23.789062 9.171875 23.671875 9.238281 "/>
</clipPath>
<linearGradient id="linear0" gradientUnits="userSpaceOnUse" x1="0" y1="0" x2="1" y2="0" gradientTransform="matrix(-8.910563,18.327085,-17.377546,-8.588635,28.498108,7.909963)">
<stop offset="0.3" style="stop-color:rgb(24.313725%,52.54902%,23.921569%);stop-opacity:1;"/>
<stop offset="0.5" style="stop-color:rgb(33.333333%,57.647059%,30.980392%);stop-opacity:1;"/>
<stop offset="0.8" style="stop-color:rgb(35.294118%,67.843137%,27.058824%);stop-opacity:1;"/>
</linearGradient>
<clipPath id="clip3">
  <path d="M 17 9 L 31 9 L 31 26 L 17 26 Z M 17 9 "/>
</clipPath>
<clipPath id="clip4">
  <path d="M 17.289062 21.117188 C 17.347656 21.195312 17.421875 21.261719 17.507812 21.3125 L 22.796875 24.394531 L 23.679688 24.902344 C 23.8125 24.980469 23.960938 25.011719 24.109375 25.003906 C 24.160156 24.996094 24.207031 24.988281 24.257812 24.972656 L 30.761719 12.964844 C 30.710938 12.910156 30.652344 12.863281 30.589844 12.828125 L 26.550781 10.476562 L 24.414062 9.238281 C 24.351562 9.203125 24.289062 9.175781 24.222656 9.160156 Z M 17.289062 21.117188 "/>
</clipPath>
<linearGradient id="linear1" gradientUnits="userSpaceOnUse" x1="0" y1="0" x2="1" y2="0" gradientTransform="matrix(16.23009,-12.090923,12.273288,16.747306,15.983412,23.227307)">
<stop offset="0.57" style="stop-color:rgb(24.313725%,52.54902%,23.921569%);stop-opacity:1;"/>
<stop offset="0.72" style="stop-color:rgb(38.039216%,59.607843%,34.117647%);stop-opacity:1;"/>
<stop offset="1" style="stop-color:rgb(46.27451%,67.45098%,39.215686%);stop-opacity:1;"/>
</linearGradient>
<clipPath id="clip5">
  <path d="M 17 9 L 31 9 L 31 25 L 17 25 Z M 17 9 "/>
</clipPath>
<clipPath id="clip6">
  <path d="M 23.972656 9.140625 C 23.871094 9.152344 23.769531 9.183594 23.675781 9.238281 L 17.527344 12.816406 L 24.160156 24.996094 C 24.25 24.984375 24.339844 24.953125 24.421875 24.902344 L 30.589844 21.3125 C 30.78125 21.199219 30.910156 21.011719 30.949219 20.796875 L 24.191406 9.152344 C 24.140625 9.144531 24.089844 9.140625 24.039062 9.140625 C 24.019531 9.140625 24 9.140625 23.976562 9.140625 "/>
</clipPath>
<linearGradient id="linear2" gradientUnits="userSpaceOnUse" x1="0" y1="0" x2="1" y2="0" gradientTransform="matrix(13.420011,0,0,15.854465,17.530237,17.068045)">
<stop offset="0.16" style="stop-color:rgb(41.960784%,74.901961%,27.843137%);stop-opacity:1;"/>
<stop offset="0.38" style="stop-color:rgb(47.45098%,70.588235%,38.039216%);stop-opacity:1;"/>
<stop offset="0.47" style="stop-color:rgb(45.882353%,67.45098%,39.215686%);stop-opacity:1;"/>
<stop offset="0.7" style="stop-color:rgb(39.607843%,61.960784%,35.294118%);stop-opacity:1;"/>
<stop offset="0.9" style="stop-color:rgb(24.313725%,52.54902%,23.921569%);stop-opacity:1;"/>
</linearGradient>
</defs>
<g id="surface1">
<path style="fill-rule:nonzero;fill:rgb(40.784314%,62.352943%,38.82353%);fill-opacity:1;stroke-width:2;stroke-linecap:butt;stroke-linejoin:round;stroke:rgb(100%,100%,100%);stroke-opacity:1;stroke-miterlimit:4;" d="M 219.598558 270.894141 C 218.211058 270.894141 216.690144 270.497168 215.489423 269.809082 L 202.094712 261.896094 C 200.09351 260.811035 201.107452 260.387598 201.801202 260.202344 C 204.389423 259.19668 205.003125 259.011426 207.804808 257.39707 C 208.098317 257.291211 208.498558 257.291211 208.792067 257.50293 L 219.011538 263.589844 C 219.411779 263.801562 219.892067 263.801562 220.292308 263.589844 L 260.209615 240.5125 C 260.609856 240.300781 260.796635 239.903809 260.796635 239.400977 L 260.796635 193.299219 C 260.796635 192.902246 260.609856 192.505273 260.209615 192.187695 L 220.292308 169.189746 C 219.892067 169.004492 219.411779 169.004492 219.011538 169.189746 L 179.094231 192.187695 C 178.69399 192.505273 178.507212 192.902246 178.507212 193.299219 L 178.507212 239.400977 C 178.507212 239.903809 178.69399 240.300781 179.094231 240.5125 L 190.007452 246.811133 C 196.011058 249.80166 199.613221 246.308301 199.613221 242.788477 L 199.613221 197.29541 C 199.613221 196.607324 200.09351 196.104492 200.78726 196.104492 L 205.803606 196.104492 C 206.497356 196.104492 207.004327 196.607324 207.004327 197.29541 L 207.004327 242.788477 C 207.004327 250.701465 202.708413 255.306348 195.210577 255.306348 C 192.809135 255.306348 190.994712 255.306348 185.898317 252.792188 L 175.492067 246.705273 C 172.903846 245.196777 171.302885 242.391504 171.302885 239.400977 L 171.302885 193.299219 C 171.302885 190.308691 172.903846 187.503418 175.492067 185.994922 L 215.489423 162.996973 C 217.997596 161.488477 221.30625 161.488477 223.894471 162.996973 L 263.811779 186.100781 C 266.4 187.503418 268.000962 190.308691 268.000962 193.299219 L 268.000962 239.400977 C 268.000962 242.391504 266.4 245.196777 263.811779 246.705273 L 223.894471 269.809082 C 222.587019 270.497168 221.092788 270.894141 219.598558 270.894141 " transform="matrix(0.146396,0,0,0.147601,0,0)"/>
<path style=" stroke:none;fill-rule:evenodd;fill:rgb(40.784314%,62.352943%,38.82353%);fill-opacity:1;" d="M 33.964844 35.304688 C 31.402344 35.304688 30.859375 34.109375 30.859375 33.121094 C 30.859375 33.035156 30.949219 32.960938 31.035156 32.960938 L 31.796875 32.960938 C 31.871094 32.960938 31.945312 33.019531 31.957031 33.09375 C 32.074219 33.875 32.414062 34.257812 33.964844 34.257812 C 35.195312 34.257812 35.722656 33.976562 35.722656 33.328125 C 35.722656 32.945312 35.558594 32.664062 33.65625 32.472656 C 32.046875 32.308594 31.066406 31.957031 31.066406 30.671875 C 31.066406 29.476562 32.0625 28.765625 33.730469 28.765625 C 35.589844 28.765625 36.527344 29.433594 36.644531 30.832031 C 36.644531 30.878906 36.628906 30.9375 36.597656 30.964844 C 36.570312 30.996094 36.511719 31.027344 36.46875 31.027344 L 35.707031 31.027344 C 35.632812 31.027344 35.558594 30.964844 35.546875 30.894531 C 35.371094 30.066406 34.914062 29.816406 33.714844 29.816406 C 32.367188 29.816406 32.222656 30.289062 32.222656 30.640625 C 32.222656 31.070312 32.398438 31.1875 34.210938 31.4375 C 36.011719 31.675781 36.863281 32.015625 36.863281 33.285156 C 36.863281 34.566406 35.808594 35.304688 33.949219 35.304688 M 42.382812 28.175781 C 42.382812 28.796875 41.882812 29.3125 41.253906 29.3125 C 40.640625 29.3125 40.128906 28.796875 40.128906 28.175781 C 40.128906 27.527344 40.652344 27.039062 41.253906 27.039062 C 41.871094 27.039062 42.382812 27.527344 42.382812 28.175781 Z M 40.316406 28.164062 C 40.316406 28.695312 40.742188 29.121094 41.253906 29.121094 C 41.78125 29.121094 42.207031 28.695312 42.207031 28.164062 C 42.207031 27.644531 41.78125 27.21875 41.253906 27.21875 C 40.742188 27.21875 40.316406 27.632812 40.316406 28.164062 Z M 40.828125 27.527344 L 41.269531 27.527344 C 41.414062 27.527344 41.707031 27.527344 41.707031 27.867188 C 41.707031 28.101562 41.5625 28.148438 41.472656 28.175781 C 41.648438 28.191406 41.664062 28.308594 41.679688 28.472656 C 41.695312 28.574219 41.707031 28.753906 41.753906 28.8125 L 41.488281 28.8125 C 41.472656 28.753906 41.429688 28.429688 41.429688 28.414062 C 41.414062 28.339844 41.386719 28.296875 41.296875 28.296875 L 41.078125 28.296875 L 41.078125 28.8125 L 40.828125 28.8125 Z M 41.078125 28.089844 L 41.269531 28.089844 C 41.429688 28.089844 41.460938 27.96875 41.460938 27.898438 C 41.460938 27.734375 41.34375 27.734375 41.285156 27.734375 L 41.078125 27.734375 Z M 41.078125 28.089844 "/>
<path style=" stroke:none;fill-rule:evenodd;fill:rgb(20%,20%,20%);fill-opacity:1;" d="M 14.039062 23.054688 C 14.039062 23.1875 13.964844 23.304688 13.847656 23.378906 C 13.730469 23.453125 13.585938 23.453125 13.46875 23.378906 L 9.792969 21.253906 C 9.558594 21.105469 9.414062 20.871094 9.414062 20.589844 L 9.414062 16.074219 C 9.414062 15.792969 9.265625 15.558594 9.03125 15.410156 L 7.464844 14.507812 C 7.347656 14.433594 7.230469 14.40625 7.101562 14.40625 C 6.964844 14.40625 6.835938 14.441406 6.71875 14.507812 L 5.152344 15.425781 C 4.917969 15.558594 4.773438 15.808594 4.773438 16.074219 L 4.773438 20.589844 C 4.773438 20.871094 4.640625 21.105469 4.40625 21.253906 L 0.71875 23.378906 C 0.601562 23.453125 0.453125 23.453125 0.351562 23.378906 C 0.234375 23.320312 0.160156 23.1875 0.160156 23.054688 L 0.144531 13.371094 C 0.144531 13.09375 0.292969 12.839844 0.527344 12.707031 L 6.71875 9.105469 C 6.820312 9.046875 6.9375 9.019531 7.070312 9.019531 L 7.128906 9.019531 C 7.246094 9.019531 7.363281 9.046875 7.464844 9.105469 L 13.671875 12.707031 C 13.90625 12.839844 14.039062 13.09375 14.039062 13.371094 Z M 47.578125 2.125 C 47.8125 2.257812 47.972656 2.507812 47.972656 2.773438 L 47.972656 20.78125 C 47.972656 21.046875 47.828125 21.300781 47.59375 21.433594 L 41.386719 25.046875 C 41.152344 25.179688 40.875 25.179688 40.640625 25.046875 L 34.433594 21.433594 C 34.210938 21.300781 34.066406 21.046875 34.066406 20.78125 L 34.066406 13.550781 C 34.066406 13.285156 34.210938 13.035156 34.433594 12.898438 L 40.640625 9.300781 C 40.875 9.167969 41.152344 9.167969 41.386719 9.300781 L 42.9375 10.199219 C 43.027344 10.242188 43.128906 10.242188 43.203125 10.199219 C 43.289062 10.15625 43.332031 10.066406 43.332031 9.964844 L 43.332031 0.367188 C 43.332031 0.234375 43.40625 0.117188 43.523438 0.0429688 C 43.640625 -0.015625 43.773438 -0.015625 43.890625 0.0429688 Z M 43.320312 15.925781 C 43.320312 15.867188 43.273438 15.808594 43.214844 15.765625 L 41.09375 14.523438 C 41.035156 14.496094 40.960938 14.496094 40.902344 14.523438 L 38.78125 15.765625 C 38.722656 15.808594 38.679688 15.867188 38.679688 15.925781 L 38.679688 18.40625 C 38.679688 18.480469 38.722656 18.539062 38.78125 18.566406 L 40.902344 19.808594 C 40.960938 19.835938 41.035156 19.835938 41.09375 19.808594 L 43.214844 18.566406 C 43.273438 18.539062 43.320312 18.480469 43.320312 18.40625 Z M 60.828125 18.035156 C 60.710938 18.109375 60.5625 18.109375 60.445312 18.050781 C 60.328125 17.976562 60.269531 17.84375 60.269531 17.710938 L 60.269531 15.941406 C 60.269531 15.808594 60.199219 15.675781 60.082031 15.617188 L 58.132812 14.480469 C 58.015625 14.421875 57.871094 14.421875 57.769531 14.480469 L 55.820312 15.617188 C 55.703125 15.675781 55.628906 15.808594 55.628906 15.941406 L 55.628906 18.199219 C 55.628906 18.332031 55.703125 18.464844 55.820312 18.523438 L 62.058594 22.140625 C 62.175781 22.199219 62.246094 22.332031 62.246094 22.464844 C 62.246094 22.597656 62.175781 22.730469 62.058594 22.789062 L 58.324219 24.886719 C 58.105469 25.019531 57.828125 25.019531 57.59375 24.886719 L 51.429688 21.34375 C 51.195312 21.210938 51.0625 20.960938 51.0625 20.679688 L 51.0625 13.460938 C 51.0625 13.195312 51.195312 12.945312 51.429688 12.8125 L 57.636719 9.195312 C 57.871094 9.0625 58.148438 9.0625 58.382812 9.195312 L 64.546875 12.8125 C 64.78125 12.945312 64.925781 13.195312 64.925781 13.460938 L 64.925781 15.21875 C 64.925781 15.484375 64.78125 15.734375 64.546875 15.867188 Z M 60.828125 18.035156 "/>
<path style=" stroke:none;fill-rule:evenodd;fill:rgb(40.784314%,62.352943%,38.82353%);fill-opacity:1;" d="M 57.898438 15.527344 C 57.945312 15.5 58.003906 15.5 58.046875 15.527344 L 59.230469 16.222656 C 59.289062 16.25 59.304688 16.296875 59.304688 16.339844 L 59.304688 17.726562 C 59.304688 17.785156 59.289062 17.832031 59.230469 17.859375 L 58.046875 18.554688 C 58.003906 18.566406 57.945312 18.566406 57.898438 18.554688 L 56.714844 17.859375 C 56.671875 17.832031 56.640625 17.785156 56.640625 17.726562 L 56.640625 16.339844 C 56.640625 16.296875 56.671875 16.25 56.714844 16.222656 Z M 57.898438 15.527344 "/>
<g clip-path="url(#clip1)" clip-rule="nonzero">
<g clip-path="url(#clip2)" clip-rule="nonzero">
<path style=" stroke:none;fill-rule:nonzero;fill:url(#linear0);" d="M 37.199219 12.222656 L 19.808594 3.632812 L 10.90625 21.964844 L 28.285156 30.554688 Z M 37.199219 12.222656 "/>
</g>
</g>
<g clip-path="url(#clip3)" clip-rule="nonzero">
<g clip-path="url(#clip4)" clip-rule="nonzero">
<path style=" stroke:none;fill-rule:nonzero;fill:url(#linear1);" d="M 9.777344 14.761719 L 22.046875 31.5 L 38.269531 19.410156 L 26 2.671875 Z M 9.777344 14.761719 "/>
</g>
</g>
<g clip-path="url(#clip5)" clip-rule="nonzero">
<g clip-path="url(#clip6)" clip-rule="nonzero">
<path style=" stroke:none;fill-rule:nonzero;fill:url(#linear2);" d="M 17.523438 9.136719 L 17.523438 24.988281 L 30.949219 24.988281 L 30.949219 9.136719 Z M 17.523438 9.136719 "/>
</g>
</g>
</g>
</svg>
