<svg version="1.2" xmlns="http://www.w3.org/2000/svg" viewBox="0 0 238 256" width="238" height="256">
	<title>numpy-svg</title>
	<style>
		.s0 { fill: #4dabcf } 
		.s1 { fill: #4d77cf } 
	</style>
	<path id="Layer" class="s0" d="m178.1 174.4v56.3l-49.9 24.9v-56.3zm59.9-30.1v56.5l-42.6 21.3v-56.2zm-60-45.3l0.1 55.7-49.9 24.8v-55.8zm60-29.8v55.4l-42.6 21.7-0.1-55.9zm-117.3-6.5l44.5 22.5-46.2 23.2-43.7-22zm-62-31.3l42.5 21.5-45.5 23.8-43.7-22zm121.5 0.4l45.8 22.9-40.9 20.6-44.7-22.5zm-60.9-30.6l41.2 20.7-39.5 21.1-42.5-21.4z"/>
	<path id="Layer" class="s1" d="m110.6 123.7l-33.6-16.9v73.2c0 0-41.2-87.6-45-95.5-0.5-1-2.5-2.1-3-2.4-7.4-3.9-29-14.9-29-14.9v129.3l29.9 16v-67.6c0 0 40.7 78.3 41.1 79.2 0.4 0.9 4.5 9.1 8.9 12 5.8 3.9 30.7 18.9 30.7 18.9z"/>
</svg>