<svg version="1.2" xmlns="http://www.w3.org/2000/svg" viewBox="0 0 274 256" width="274" height="256">
	<title>OpenCV_Logo_with_text_svg_version-svg</title>
	<style>
		.s0 { fill: #ff0101 } 
		.s1 { fill: #0101ff } 
		.s2 { fill: #01ff01 } 
	</style>
	<path id="cv_element" class="s0" d="m104.2 120.2c-25.1-14.5-37.4-44.2-29.9-72.3 7.6-28 33-47.6 62-47.6 29 0 54.5 19.6 62 47.6 7.5 28.1-4.8 57.8-29.9 72.3l-19.3-33.5c10-5.8 14.8-17.6 11.9-28.7-3-11.2-13.1-19-24.7-19-11.5 0-21.7 7.8-24.6 19-3 11.1 1.8 22.9 11.8 28.7z"/>
	<path id="cv_element" class="s1" d="m241.6 135.8c25.1 14.5 37.4 44.2 29.9 72.3-7.5 28-32.9 47.6-62 47.6-29 0-54.4-19.6-61.9-47.6-7.5-28.1 4.7-57.8 29.9-72.3l19.3 33.5c-10 5.8-14.9 17.6-11.9 28.7 3 11.2 13.1 19 24.6 19 11.6 0 21.7-7.8 24.7-19 3-11.1-1.9-22.9-11.9-28.7z"/>
	<path id="cv_element" class="s2" d="m128.6 191.4c0 29.1-19.5 54.6-47.5 62.1-28.1 7.5-57.7-4.8-72.2-29.9-14.5-25.2-10.3-57 10.2-77.6 20.5-20.6 52.3-24.8 77.4-10.2l-19.3 33.5c-10-5.8-22.6-4.1-30.8 4-8.1 8.2-9.8 20.9-4 30.9 5.7 10 17.5 14.9 28.7 11.9 11.1-3 18.9-13.1 18.9-24.7z"/>
</svg>