<svg version="1.2" xmlns="http://www.w3.org/2000/svg" viewBox="0 0 256 256" width="256" height="256">
	<title>pascal-svg</title>
	<style>
		.s0 { fill: #3d75af } 
		.s1 { fill: #fafbfc } 
	</style>
	<g id="pascal-programming">
		<path id="Layer" class="s0" d="m0 0h256v256h-256z"/>
		<path id="Layer" fill-rule="evenodd" class="s1" d="m25.6 151.9v-47.3c0 0 1.8-0.4 2.8-0.5q1.7-0.3 3.4-0.4 1.7-0.1 3.4-0.2 1.7 0 3.4 0.1 1.7 0.1 3.4 0.2c1.8 0.1 3.6 0.6 5.2 1.4 1.7 0.8 3.1 1.9 4.3 3.2 1.2 1.4 2.1 3 2.7 4.7 0.5 1.7 0.8 3.5 0.6 5.3q0.1 2.1-0.3 4.2-0.5 2.1-1.5 3.9-1.1 1.8-2.6 3.3-1.5 1.4-3.4 2.4-1 0.5-2.1 0.9-1 0.4-2.1 0.6-1.1 0.3-2.2 0.4-1.1 0.1-2.2 0.1c-1.6 0.1-4.9 0-4.9 0v17.7zm7.9-41.2v16.3q0.9 0.2 1.8 0.3 0.8 0.1 1.7 0.1 0.9 0 1.8-0.1 0.8-0.1 1.7-0.3 1.2-0.3 2.3-0.9 1.1-0.6 2-1.6 0.8-0.9 1.3-2.1 0.5-1.1 0.6-2.4 0-0.3 0-0.7 0-0.4 0-0.7 0-0.4 0-0.7 0-0.4 0-0.7-0.1-1.2-0.5-2.3-0.5-1.1-1.2-2-0.8-0.8-1.8-1.4-1-0.6-2.1-0.8-1-0.2-1.9-0.3-1-0.1-1.9-0.1-1 0-1.9 0.1-0.9 0.1-1.9 0.3z"/>
		<path id="Layer" class="s1" d="m120.2 105.9l-1.9 6.7q-0.7-0.3-1.4-0.5-0.8-0.3-1.5-0.5-0.7-0.2-1.5-0.4-0.7-0.2-1.4-0.3-0.7-0.1-1.4-0.1-0.8-0.1-1.5-0.1-0.7 0-1.4 0.1-0.7 0.1-1.4 0.2-0.8 0.1-1.5 0.5-0.8 0.4-1.4 1-0.6 0.6-0.9 1.3-0.4 0.8-0.5 1.6-0.2 0.8-0.1 1.6 0.1 0.8 0.4 1.6 0.3 0.7 0.8 1.4 0.6 0.6 1.3 1c1.9 1.2 4 2.2 6.1 3.2 1.4 0.8 2.9 1.4 4.2 2.3 2.3 1.4 4.2 3.4 5.4 5.9 1.1 2.4 1.6 5.1 1.2 7.8-0.3 2.7-1.5 5.2-3.2 7.3-1.8 2-4.1 3.5-6.7 4.3q-2.2 0.6-4.4 0.8-2.2 0.3-4.4 0.1-2.3-0.2-4.4-0.8-2.2-0.6-4.2-1.6-0.1-0.1-0.2-0.2-0.1 0-0.2-0.1-0.1-0.1-0.3-0.2-0.1 0-0.2-0.1l1.7-7.2c0.9 0.4 1.6 0.8 2.4 1.1q1.2 0.6 2.5 1 1.3 0.4 2.6 0.6 1.4 0.2 2.7 0.2 1.4 0 2.8-0.2c1-0.1 1.9-0.4 2.7-1 0.9-0.6 1.6-1.3 2.1-2.2 0.4-0.9 0.7-1.8 0.7-2.8 0-1.1-0.2-2-0.6-2.9q-0.3-0.5-0.6-0.9-0.3-0.5-0.7-0.9-0.3-0.3-0.7-0.7-0.4-0.3-0.9-0.6-0.5-0.3-1.1-0.6-0.5-0.3-1.1-0.6-0.5-0.3-1.1-0.6-0.6-0.2-1.1-0.5-0.7-0.3-1.4-0.6-0.7-0.4-1.4-0.7-0.7-0.4-1.4-0.8-0.7-0.4-1.3-0.8-1.7-1-3-2.4-1.3-1.4-2.1-3.2-0.7-1.8-1-3.7-0.2-1.9 0.2-3.8 0.2-1.9 1-3.7 0.8-1.7 2.1-3.2 1.3-1.4 2.9-2.4 1.6-1 3.5-1.5 1.8-0.5 3.7-0.7 1.9-0.3 3.9-0.1 1.9 0.1 3.7 0.5 1.9 0.5 3.7 1.3 0 0 0.1 0.1 0.1 0 0.2 0 0.1 0.1 0.1 0.1 0.1 0.1 0.2 0.1c0.1 0.1 0.3 0.2 0.6 0.5z"/>
		<path id="Layer" class="s1" d="m157.8 143.7l1.4 6.9q-0.4 0.2-0.8 0.4-0.4 0.1-0.8 0.2-0.4 0.2-0.9 0.3-0.4 0.1-0.8 0.3-1.6 0.4-3.3 0.6-1.7 0.3-3.4 0.3-1.8 0.1-3.5-0.1-1.7-0.1-3.4-0.5-2.4-0.4-4.6-1.4-2.3-1-4.2-2.6-1.9-1.6-3.3-3.6-1.5-2-2.4-4.3-1.2-2.9-1.8-6.1-0.7-3.2-0.6-6.4 0.1-3.2 0.9-6.4 0.8-3.1 2.3-6 1.3-2.7 3.3-4.9 2-2.3 4.5-3.9 2.6-1.6 5.5-2.4 2.9-0.8 5.9-0.8 1.5-0.1 3 0 1.5 0.1 3 0.3 1.5 0.3 2.9 0.8 1.4 0.5 2.8 1.1l-1.7 6.7q-0.7-0.2-1.4-0.4-0.8-0.2-1.5-0.3-0.8-0.2-1.5-0.4-0.8-0.1-1.5-0.2-0.8-0.1-1.7-0.1-0.8 0-1.7 0-0.8 0-1.7 0.1-0.8 0.1-1.6 0.3-1.7 0.3-3.2 1-1.4 0.7-2.7 1.8-1.3 1.1-2.2 2.5-0.9 1.4-1.5 2.9-0.9 2.1-1.3 4.3-0.4 2.2-0.4 4.4 0 2.3 0.4 4.5 0.5 2.1 1.3 4.2 0.7 1.8 1.9 3.4 1.2 1.5 2.8 2.7 1.6 1.1 3.5 1.7 1.8 0.6 3.8 0.7 1.2 0.1 2.3 0.1 1.2-0.1 2.4-0.2 1.2-0.2 2.3-0.5 1.2-0.3 2.3-0.7c0.2-0.1 0.5-0.1 0.9-0.3z"/>
		<path id="Layer" class="s1" d="m230.4 144.6v7.4h-25.6v-47.9h7.7v40.5h17.9z"/>
		<path id="Layer" fill-rule="evenodd" class="s1" d="m90.5 152h-8.5l-4-13.5h-13.7l-3.7 13.4h-8.3l13.9-47.9h10.3zm-14-20.3l-5.5-20-5.3 20z"/>
		<path id="Layer" fill-rule="evenodd" class="s1" d="m199.9 152h-8.6l-3.9-13.5h-13.8l-3.7 13.4h-8.3l14-47.9h10.2zm-14-20.3l-5.5-20-5.3 20z"/>
	</g>
</svg>