<svg id="icons" xmlns="http://www.w3.org/2000/svg" viewBox="0 0 100 100"><defs><style>.cls-1{fill:#3d75af;}.cls-2{fill:#fafbfc;}</style></defs><title>pascal-programming</title><g id="pascal-programming"><rect class="cls-1" width="100" height="100"/><path class="cls-2" d="M10,59.344v-18.5s.718-.142,1.076-.185a22,22,0,0,1,5.342-.1,5.3,5.3,0,0,1,4.993,5.708,5.623,5.623,0,0,1-3.057,5.377A7.432,7.432,0,0,1,15,52.437c-.62.009-1.924,0-1.924,0v6.905Zm3.107-16.095v6.366a6.086,6.086,0,0,0,2.726-.009,3,3,0,0,0,2.4-2.726,5.859,5.859,0,0,0,.007-1.108,2.725,2.725,0,0,0-2.194-2.546A6.643,6.643,0,0,0,13.107,43.249Z"/><path class="cls-2" d="M46.934,41.352l-.723,2.62a16.407,16.407,0,0,0-2.282-.655,6.947,6.947,0,0,0-2.2.051,2,2,0,0,0-1.693,1.72,2.028,2.028,0,0,0,.923,2.174c.753.489,1.589.852,2.389,1.268.556.288,1.133.541,1.665.866a5.461,5.461,0,0,1-1.307,9.9,9.332,9.332,0,0,1-6.776-.6,3.97,3.97,0,0,1-.361-.229l.667-2.8c.339.155.624.291.914.418a7.138,7.138,0,0,0,4.136.635,2.426,2.426,0,0,0,1.921-3.495,3.411,3.411,0,0,0-1.116-1.2,14.28,14.28,0,0,0-1.734-.875,21.2,21.2,0,0,1-2.147-1.135,4.878,4.878,0,0,1-2.294-5.146,4.977,4.977,0,0,1,3.7-4.188,8.391,8.391,0,0,1,5.851.369,1.939,1.939,0,0,1,.247.13C46.774,41.223,46.826,41.269,46.934,41.352Z"/><path class="cls-2" d="M61.659,56.151l.509,2.692a13.069,13.069,0,0,1-1.258.44,11.862,11.862,0,0,1-5.311.145,7.419,7.419,0,0,1-5.666-4.657,11.491,11.491,0,0,1,.293-9.714,8.255,8.255,0,0,1,7.514-4.694,8.915,8.915,0,0,1,4.56.849l-.645,2.629a16.136,16.136,0,0,0-2.323-.524,9.393,9.393,0,0,0-2.622.113,4.967,4.967,0,0,0-3.742,3.223,8.9,8.9,0,0,0,.012,6.79,5.13,5.13,0,0,0,4.672,3.305,8.268,8.268,0,0,0,3.628-.492C61.383,56.217,61.493,56.2,61.659,56.151Z"/><polygon class="cls-2" points="90 56.467 90 59.358 79.984 59.358 79.984 40.66 83.021 40.66 83.021 56.467 90 56.467"/><path class="cls-2" d="M29.871,40.642h-4L20.429,59.354h3.228l1.459-5.246h5.372l1.539,5.252h3.335Zm-4.189,10.78,2.073-7.809,2.155,7.809Z"/><path class="cls-2" d="M72.576,40.642h-4L63.134,59.354h3.228l1.459-5.246h5.372l1.539,5.252h3.335Zm-4.189,10.78,2.073-7.809,2.154,7.809Z"/></g></svg>