<svg version="1.2" xmlns="http://www.w3.org/2000/svg" viewBox="0 0 504 256" width="504" height="256">
	<title>php-svg</title>
	<style>
		.s0 { fill: #6181b6 } 
		.s1 { fill: #ffffff } 
		.s2 { fill: #000004 } 
	</style>
	<path id="Layer" class="s0" d="m252 255.4c-139.4 0-252-57.1-252-127.7 0-70.6 112.6-127.7 252-127.7 139.4 0 252 57.1 252 127.7 0 70.6-112.6 127.7-252 127.7z"/>
	<path id="Layer" fill-rule="evenodd" class="s1" d="m302.5 170.3q-0.3 0.6-0.9 1.1-0.5 0.4-1.2 0.7-0.7 0.2-1.4 0.2h-30.3q-0.9 0-1.8-0.4-0.8-0.4-1.4-1.1-0.6-0.7-0.8-1.6-0.2-0.9 0-1.8l11.8-61.2c1.5-7.5 0.2-9.9-0.4-10.6-0.7-0.8-3.3-2.5-12-2.5h-20.5l-14.8 75.9q-0.1 0.7-0.5 1.3-0.3 0.6-0.9 1.1-0.5 0.4-1.2 0.7-0.7 0.2-1.4 0.2h-29.9q-0.9 0-1.7-0.4-0.9-0.4-1.4-1.1-0.6-0.7-0.8-1.6-0.3-0.9-0.1-1.8l5.4-27.6q-1.3 2.2-2.7 4.3-1.5 2.1-3.1 4.1-1.6 2-3.3 3.8-1.8 1.9-3.7 3.6c-6.4 6-13.6 10.3-21.5 12.9-7.7 2.5-17.6 3.8-29.4 3.8h-22.4l-6.5 33.4q-0.1 0.7-0.5 1.4-0.4 0.6-0.9 1-0.6 0.5-1.2 0.7-0.7 0.3-1.4 0.3h-30.1q-0.9 0-1.8-0.4-0.8-0.4-1.4-1.1-0.6-0.7-0.8-1.6-0.2-0.9-0.1-1.8l26.9-138.3q0.2-0.7 0.5-1.3 0.4-0.6 0.9-1 0.6-0.5 1.3-0.7 0.6-0.3 1.3-0.3h58c18.5 0 32.4 5.1 41.2 15.1 4.7 5.5 7.7 12.1 8.9 19.8l13.3-68.3q0.1-0.7 0.5-1.3 0.3-0.6 0.9-1.1 0.5-0.5 1.2-0.7 0.7-0.2 1.4-0.2h29.9q0.9 0 1.7 0.4 0.8 0.4 1.4 1.1 0.6 0.7 0.8 1.6 0.3 0.8 0.1 1.7l-6.2 31.9h21.6c18 0 30.3 3.2 37.5 9.9 7.4 6.8 9.8 17.6 6.9 32.2l-12.5 64.3q-0.1 0.7-0.5 1.3zm-139.7-72.7c-2.1-2.3-7.2-5-19.9-5h-17.2l-9.7 49.7h13.4c11.1 0 19.4-2 24.6-6 5.1-3.9 8.6-10.8 10.5-20.5 1.7-8.7 1.1-15-1.7-18.2zm276.2 21.9q-0.5 2.6-1.2 5.1-0.7 2.6-1.6 5.1-0.9 2.4-2 4.8-1.1 2.4-2.3 4.7c-3.4 6-7.8 11.5-13.1 16.4-6.4 6-13.7 10.3-21.6 12.9-7.7 2.5-17.5 3.8-29.3 3.8h-22.4l-6.5 33.4q-0.2 0.7-0.5 1.4-0.4 0.6-0.9 1-0.6 0.5-1.3 0.7-0.6 0.3-1.4 0.3h-30.1q-0.9 0-1.7-0.4-0.8-0.4-1.4-1.1-0.6-0.7-0.8-1.6-0.3-0.9-0.1-1.8l26.9-138.3q0.1-0.7 0.5-1.3 0.3-0.6 0.9-1.1 0.5-0.4 1.2-0.6 0.7-0.3 1.4-0.3h57.9c18.6 0 32.5 5.1 41.2 15.1 8.8 10.1 11.6 24.2 8.2 41.8zm-41.2-21.9c-2-2.3-7.1-5-19.8-5h-17.3l-9.6 49.7h13.3c11.2 0 19.5-2 24.7-6 5.1-3.9 8.6-10.8 10.5-20.5 1.7-8.7 1.1-15-1.8-18.2z"/>
	<path id="Layer" fill-rule="evenodd" class="s2" d="m96.4 66.7h58q26.1 0 38.1 13.7 12 13.7 7.2 38.3-2 10.2-6.7 18.5-1.2 2.2-2.6 4.2-1.4 2.1-2.9 4-1.5 1.9-3.2 3.7-1.7 1.8-3.5 3.5-9.1 8.4-20.1 12-11 3.6-28.1 3.6h-25.8l-7.1 36.8h-30.1zm46.5 21.8h-20.7l-11.2 57.8h18.3q18.2 0 27.1-6.8 9-6.9 12.1-22.9 3-15.5-2.7-21.8-5.8-6.3-22.9-6.3zm78.8-58.6h29.9l-7.1 36.8h26.6q25.1 0 34.6 8.7 9.6 8.8 5.8 28.4l-12.5 64.3h-30.4l11.9-61.1q2-10.5-1.5-14.3-3.5-3.8-15-3.8h-23.9l-15.4 79.2h-29.8zm109.7 36.8h57.9q26.1 0 38.1 13.7 12 13.7 7.2 38.3-2 10.1-6.7 18.5-1.2 2.2-2.5 4.2-1.4 2.1-3 4-1.5 1.9-3.2 3.7-1.7 1.8-3.5 3.5-9 8.4-20.1 12-11 3.6-28.1 3.6h-25.7l-7.2 36.8h-30.1zm46.5 21.8h-20.6l-11.3 57.8h18.3q18.3 0 27.2-6.8 8.9-6.9 12-22.9 3-15.5-2.7-21.8-5.7-6.3-22.9-6.3z"/>
</svg>