<svg version="1.2" xmlns="http://www.w3.org/2000/svg" viewBox="0 0 502 256" width="502" height="256">
	<title>php-svg</title>
	<defs>
		<clipPath clipPathUnits="userSpaceOnUse" id="cp1">
			<path d="m251.65 265.97c-144.37 0-261.06-61.43-261.06-137.43 0-76 116.69-137.43 261.06-137.43 144.37 0 261.06 61.43 261.06 137.43 0 76-116.69 137.43-261.06 137.43z"/>
		</clipPath>
	</defs>
	<style>
		.s0 { fill: #6181b6 } 
		.s1 { fill: #ffffff } 
		.s2 { fill: #000004 } 
	</style>
	<g id="Clip-Path: php-original-d" clip-path="url(#cp1)">
	</g>
	<path id="Layer" class="s0" d="m251.6 255.8c-138.7 0-250.8-56.9-250.8-127.3 0-70.3 112.1-127.2 250.8-127.2 138.8 0 250.9 56.9 250.9 127.2 0 70.4-112.1 127.3-250.9 127.3z"/>
	<path id="Layer" fill-rule="evenodd" class="s1" d="m302 171q-0.4 0.6-0.9 1-0.6 0.5-1.3 0.7-0.6 0.3-1.3 0.3h-30.3q-0.9 0-1.7-0.4-0.8-0.4-1.4-1.1-0.6-0.7-0.8-1.6-0.2-0.9-0.1-1.8l11.9-60.9c1.4-7.6 0.1-10-0.5-10.7-0.7-0.7-3.2-2.4-11.9-2.4h-20.4l-14.7 75.6q-0.2 0.7-0.5 1.3-0.4 0.6-0.9 1-0.6 0.5-1.2 0.7-0.7 0.3-1.4 0.3h-29.8q-0.9 0-1.7-0.4-0.8-0.4-1.4-1.1-0.6-0.7-0.8-1.6-0.2-0.9-0.1-1.8l5.4-27.5q-1.3 2.2-2.7 4.3-1.5 2.1-3.1 4-1.5 2-3.3 3.9-1.7 1.8-3.6 3.5c-6.4 6-13.6 10.3-21.5 12.9-7.6 2.5-17.5 3.8-29.2 3.8h-22.3l-6.5 33.3q-0.1 0.7-0.5 1.3-0.3 0.6-0.9 1-0.5 0.5-1.2 0.7-0.7 0.3-1.4 0.3h-30q-0.9 0-1.7-0.4-0.8-0.4-1.4-1.1-0.6-0.7-0.8-1.6-0.2-0.9-0.1-1.8l26.8-137.7q0.1-0.7 0.5-1.3 0.3-0.6 0.9-1.1 0.5-0.4 1.2-0.7 0.7-0.2 1.4-0.2h57.6c18.5 0 32.3 5.1 41.1 15 4.7 5.5 7.7 12.1 8.9 19.7l13.2-68q0.1-0.7 0.5-1.3 0.3-0.6 0.9-1.1 0.5-0.4 1.2-0.7 0.7-0.2 1.4-0.2h29.7q0.9 0 1.8 0.4 0.8 0.4 1.4 1.1 0.5 0.7 0.8 1.6 0.2 0.8 0 1.7l-6.1 31.8h21.5c17.9 0 30.1 3.2 37.3 9.8 7.4 6.8 9.7 17.6 6.9 32.1l-12.4 64.1q-0.2 0.7-0.5 1.3zm-139.2-72.5c-2-2.2-7.1-4.9-19.7-4.9h-17.2l-9.6 49.5h13.3c11.1 0 19.3-2.1 24.5-6 5.1-3.9 8.6-10.8 10.5-20.4 1.7-8.7 1.1-15-1.8-18.2zm275 21.9q-0.5 2.5-1.2 5.1-0.7 2.5-1.6 5-0.9 2.4-2 4.8-1 2.4-2.3 4.7c-3.3 6-7.7 11.4-13 16.3-6.4 6-13.6 10.3-21.5 12.9-7.6 2.5-17.5 3.8-29.2 3.8h-22.3l-6.5 33.3q-0.1 0.7-0.5 1.3-0.3 0.6-0.9 1-0.5 0.5-1.2 0.7-0.7 0.3-1.4 0.3h-30q-0.9 0-1.7-0.4-0.8-0.4-1.4-1.1-0.6-0.7-0.8-1.6-0.2-0.9-0.1-1.8l26.8-137.7q0.1-0.7 0.5-1.3 0.3-0.6 0.9-1.1 0.5-0.4 1.2-0.7 0.7-0.2 1.4-0.2h57.6c18.5 0 32.3 5.1 41.1 15 8.8 10.1 11.5 24.1 8.1 41.7zm-41-21.9c-2-2.2-7.1-4.9-19.7-4.9h-17.2l-9.6 49.5h13.3c11.1 0 19.4-2.1 24.5-6 5.1-3.9 8.6-10.8 10.5-20.4 1.7-8.7 1.1-15-1.8-18.2z"/>
	<path id="Layer" fill-rule="evenodd" class="s2" d="m96.8 67.8h57.6q26.1 0 38 13.6 11.9 13.7 7.2 38.2-2 10.1-6.7 18.4-1.2 2.2-2.5 4.2-1.4 2-3 4-1.5 1.9-3.2 3.7-1.6 1.8-3.5 3.4-8.9 8.4-19.9 12-11 3.6-28 3.6h-25.7l-7.1 36.6h-30zm46.3 21.7h-20.5l-11.2 57.7h18.2q18.2 0 27-6.9 8.9-6.8 12-22.8 3-15.3-2.7-21.7-5.7-6.3-22.8-6.3zm78.5-58.3h29.8l-7.1 36.6h26.5q25 0 34.5 8.7 9.5 8.8 5.7 28.3l-12.5 64.1h-30.2l11.8-60.9q2-10.4-1.5-14.2-3.5-3.8-14.9-3.8h-23.8l-15.3 78.9h-29.7zm109.2 36.6h57.6q26.1 0 38 13.7 11.9 13.6 7.2 38.1-2 10.1-6.7 18.5-1.2 2.1-2.5 4.2-1.4 2-2.9 3.9-1.6 1.9-3.3 3.7-1.6 1.8-3.5 3.5-8.9 8.4-19.9 11.9-11 3.6-28 3.6h-25.7l-7.1 36.6h-29.9zm46.2 21.8h-20.5l-11.2 57.6h18.2q18.2 0 27-6.8 8.9-6.9 12-22.8 3-15.4-2.7-21.7-5.7-6.3-22.8-6.3z"/>
</svg>