<svg version="1.2" xmlns="http://www.w3.org/2000/svg" viewBox="0 0 247 256" width="247" height="256">
	<title>postgresql-svg</title>
	<style>
		.s0 { fill: #000000 } 
		.s1 { fill: #336791 } 
		.s2 { fill: #ffffff } 
	</style>
	<path id="Layer" class="s0" d="m184.4 186.3c1.6-13.6 1.1-15.5 11.2-13.4l2.6 0.3c7.7 0.3 17.9-1.3 23.8-4 12.9-6 20.5-15.9 7.8-13.3-28.9 5.9-30.8-3.9-30.8-3.9 30.4-45.2 43.2-102.6 32.2-116.7-30-38.3-81.9-20.2-82.8-19.7l-0.3 0.1c-5.7-1.2-12.1-1.9-19.2-2.1-13.1-0.2-23 3.5-30.5 9.2 0 0-92.6-38.2-88.3 48 0.9 18.3 26.2 138.7 56.5 102.3 11-13.3 21.7-24.5 21.7-24.5 5.3 3.5 11.7 5.3 18.3 4.7l0.5-0.5c-0.1 1.7-0.1 3.3 0.2 5.2-7.8 8.7-5.5 10.2-21 13.4-15.8 3.3-6.5 9.1-0.5 10.6 7.3 1.8 24.3 4.4 35.7-11.6l-0.4 1.8c3 2.4 2.8 17.6 3.3 28.4 0.4 10.8 1.1 20.9 3.3 26.8 2.2 6 4.8 21.3 25.3 16.9 17.1-3.6 30.2-8.9 31.4-58z"/>
	<path id="Layer" fill-rule="evenodd" class="s0" d="m146.3 255c-9 0-14.9-3.5-18.5-6.9-5.4-5.1-7.5-11.6-8.8-15.6l-0.6-1.6c-2.6-7-3.4-17-4-29.9 0-1.9-0.1-3.9-0.1-6.1-0.1-1.5-0.1-3.5-0.2-5.5q-1.2 0.6-2.5 1.1-1.3 0.5-2.5 0.9-1.3 0.4-2.7 0.7-1.3 0.3-2.6 0.6c-6.4 1.1-13.2 0.7-20.4-1.1-5-1.2-10.3-3.9-13.3-7.9-8.7 7.6-17 6.6-21.5 5.1-8-2.7-15.2-10.2-21.9-22.9-4.8-9.1-9.4-20.9-13.7-35.1-7.6-24.8-12.4-50.9-12.8-59.5-1.4-26.9 5.8-46.1 21.4-57.1 24.6-17.3 61.9-7.1 75.4-2.5 9.2-5.5 19.9-8.2 32-8 6.5 0.1 12.7 0.7 18.5 1.7 6-1.9 17.9-4.6 31.5-4.4 25 0.3 45.8 10.1 60 28.2 10.1 13 5.1 40.2 1.2 55.3-5.4 21.2-15 43.7-26.8 63.4 3.2 0 7.8-0.4 14.4-1.8 13-2.6 16.8 4.3 17.8 7.5 4.2 12.5-13.8 22-19.4 24.6-7.2 3.3-18.9 5.3-28.5 4.9h-0.4l-2.5-0.3-0.3 2.1-0.2 2.1c-0.7 24.9-4.2 40.6-11.5 51-7.7 11-18.3 14-27.7 16-3.2 0.7-6.1 1-8.8 1zm-19-90.5c5.8 4.6 6.3 13.4 6.8 29.9q0.1 3.1 0.2 5.8c0.2 5.5 0.7 18.4 2.7 23.8q0.4 1.1 0.8 2.4c2.3 6.8 3.4 10.3 13.1 8.2 8.2-1.7 12.4-3.3 15.6-8 4.8-6.8 7.5-20.4 8-40.6l9.9 0.3-9.9-1.2 0.3-2.5c1-8.1 1.6-13.9 7-17.8 4.4-3.1 9.3-2.8 13.3-2.1-4.3-3.3-5.5-7.1-5.9-8.7l-0.8-4.1 2.3-3.4c13.4-19.9 24.5-44.3 30.3-67 6-23.3 4.2-35.7 2.4-38-24.3-31.1-66.5-18.3-70.9-16.8l-0.7 0.4-3.8 0.7-1.9-0.4c-5.3-1.1-11.1-1.7-17.4-1.8-9.8-0.2-17.8 2.1-24.3 7.1l-4.5 3.4-5.3-2.1c-11.2-4.6-44.2-13.9-61.6-1.5-9.6 6.8-14 20.2-13 39.8 0.3 6.5 4.7 30.9 11.9 54.7 10.1 32.8 19.2 43.7 23 45 0.6 0.2 2.3-1.2 4.1-3.2q2.6-3.2 5.4-6.4 2.7-3.2 5.4-6.3 2.8-3.1 5.6-6.2 2.9-3.1 5.7-6.1l5.8-6.1 6.9 4.6c2.8 1.9 5.9 2.9 9.1 3.1l16.5-14.1-2.4 24.5c0 0.5-0.1 1.3 0.1 2.7l0.8 4.6-3.2 3.5-0.3 0.4 9.1 4.2z"/>
	<path id="Layer" class="s1" d="m229.8 155.9c-28.9 5.9-30.8-3.9-30.8-3.9 30.4-45.2 43.2-102.6 32.2-116.7-30-38.3-81.9-20.2-82.8-19.7l-0.3 0.1c-5.7-1.2-12.1-1.9-19.2-2-13.1-0.3-23 3.4-30.5 9.1 0 0-92.6-38.2-88.3 48 0.9 18.3 26.2 138.7 56.5 102.3 11-13.3 21.7-24.5 21.7-24.5 5.3 3.5 11.6 5.3 18.3 4.7l0.5-0.5c-0.1 1.7-0.1 3.3 0.2 5.2-7.8 8.7-5.5 10.2-21 13.4-15.8 3.3-6.5 9.1-0.5 10.6 7.3 1.8 24.3 4.4 35.7-11.6l-0.4 1.8c3 2.5 5.2 15.9 4.8 28.1-0.4 12.2-0.6 20.6 1.8 27.1 2.4 6.6 4.8 21.3 25.3 16.9 17.1-3.6 26-13.1 27.2-29 0.9-11.3 2.8-9.6 3-19.7l1.6-4.7c1.8-15.3 0.3-20.2 10.8-18l2.6 0.3c7.7 0.3 17.9-1.3 23.8-4 12.8-6 20.5-15.9 7.8-13.3z"/>
	<path id="Layer" fill-rule="evenodd" class="s2" d="m147.4 248.9c-17.1 0-22.5-13.5-24.7-19.1-2.7-6.7-3.7-29.9-3.5-52.4-6.2 5.9-14 8.9-23 8.9-3.7 0-7.5-0.5-11.4-1.5-4-1-10.9-4-10.8-9 0.2-5.6 8.3-7.3 11.4-7.9 11.1-2.3 11.8-3.3 15.3-7.7 0.7-0.9 1.5-1.9 2.5-3.1q0-0.2 0-0.3 0-0.3 0-0.5c-5.1-0.1-10-1.4-14.5-3.8-2.8 3-11 11.8-19.8 22.4-5.1 6.2-10 8-14.1 8q-0.5 0-1.1-0.1-0.5 0-1.1-0.1-0.5-0.1-1.1-0.2-0.5-0.2-1-0.4c-11.1-3.7-21.7-21.7-31.4-53.6-7.4-24.3-12.1-49.7-12.5-57.9-1.3-24.4 5-41.7 18.7-51.4 24.5-17.4 64.3-3.9 72.7-0.7 8.5-5.9 18.8-8.7 30.7-8.5 6.5 0.1 12.5 0.9 18 2.3q0.2-0.1 0.6-0.2c3.4-1.3 15.9-5 31.3-4.8 23 0.2 42 9.1 55 25.6 6.1 7.9 6.1 25.9 0 49.6-6 23.4-17.2 48.5-30.9 69.2 2 1.5 8.2 4.3 26.2 0.6 5.8-1.2 9.2-0.2 10.3 3 2 6.2-9.6 13.5-16 16.5-5.7 2.7-14.9 4.4-22.9 4.4-3.9 0-7.6-0.5-10.3-1.4-1.3 11.9-4.1 34.6-5.8 44-3 17.4-10.7 25.3-28.5 29.2-3.1 0.6-5.8 0.9-8.3 0.9zm-34.5-97.8c2.1 0 3.8 0.7 4.9 1.2 3.5 1.5 6.5 5 7.7 9.3q0.3 1 0.4 2 0.2 0.6 0.2 1.1c-0.9 29.7 0.3 56.7 2.7 62.7 3.8 9.3 9.4 17.5 25.5 14.1 15.2-3.3 20.9-9.1 23.4-23.8 2-11.2 5.8-42.8 6.3-49.6-0.7-13.7 6.9-16.1 10.8-17.2-0.5-0.8-1.3-1.8-2.1-2.8-2.3-2.8-5.4-6.7-7.8-12.6-0.4-0.9-1.6-3-3-5.5-7.4-13.3-22.8-41-12.9-55.1 4.6-6.6 13.7-9.2 27.2-7.7-4-12.1-22.8-49.9-67.6-50.6-13.5-0.2-24.5 3.9-32.8 12.3-13.3 13.5-16.8 34.8-17.6 45.9q1.1-0.6 2.4-1.3c3.3-1.7 9.9-4.6 17.2-5.4 11.9-1.2 19.8 4.1 22.2 15.1 6.4 29.5 0.5 42.5-3.8 52-0.8 1.8-1.6 3.5-2.2 5.1l-0.5 1.4c-1.3 3.6-2.6 6.9-3.2 9.9q1.3-0.5 2.6-0.5zm-21.8-126.9q0.4-0.4 0.8-0.8c-12.2-4-43.7-12.4-62.8 1.2-11.7 8.3-17 23.6-15.9 45.7 0.3 6.9 4.7 31.6 12.2 56.2 8.7 28.5 18.6 46.5 27.1 49.4 1.4 0.4 5.5 1.8 11.3-5.2q2.6-3.1 5.2-6.1 2.6-3.1 5.2-6.1 2.7-2.9 5.4-5.9 1.8-2 3.6-3.9-1.4-1.2-2.7-2.6c-7.8-8.1-11.4-19.4-9.8-30.9 1.8-12.5 1.1-23.6 0.8-29.5-0.1-1.7-0.2-2.9-0.2-3.7q0 0 0 0c-0.1-2.8-0.3-37.4 19.8-57.8zm137.3 12.8c-11.7-14.9-28.1-22.7-49-23.1-8.6-0.2-16.2 1-21.6 2.1 12.8 5.5 22.1 13.8 28.4 21.1 11.4 13.3 16.9 27.9 17.4 32.7q0.1 1.1-0.1 1.9 0-0.4-0.1-0.8c0-0.9-0.4-1.7-1.1-2.3-0.6-0.6-1.5-0.9-2.3-0.9-0.9 0.1-1.7 0.5-2.3 1.1-0.6 0.7-0.9 1.5-0.9 2.4q0.1 1.4 0.1 2.7c-11.7-1.5-19.2 0.1-22.5 4.8-7.5 10.7 7.1 36.9 13.3 48.1 1.6 2.9 2.7 4.9 3.3 6.2q1 2.4 2.1 4.4-0.9 1.9-2.1 3.7c-0.4 0.5-0.6 1.1-0.6 1.7 0 0.6 0.1 1.2 0.4 1.7 0.3 0.6 0.7 1 1.2 1.3 0.5 0.3 1.1 0.5 1.7 0.5q0.4 0 0.8-0.1 0.4-0.1 0.8-0.3 0.3-0.2 0.6-0.5 0.3-0.2 0.6-0.6 0.4-0.7 0.9-1.4 0.2 0.3 0.4 0.6 0.6 0.7 1.1 1.4c28.6-44.8 38.4-96.9 29.5-108.4zm-27.6 37.3h-1.2q-1.4-0.2-2.7-0.4c-0.1 3.7-0.6 7-1.1 10.4-0.5 3.6-1.1 7.3-1.3 11.8-0.1 4.4 0.4 9 1 13.4 1.1 9.2 2.2 18.6-2.4 27.9 1.4 2.4 2.9 4.3 4.3 6 7.4-12.1 5.9-24.1 4.6-34.7-0.5-4.3-1-8.5-0.9-12.4 0.2-4.1 0.7-7.6 1.2-11 0.7-4.2 1.4-8.5 1.2-13.6-0.5 2-2.3 2.5-2.7 2.6zm-10.2 93.5c0.7 0.8 4.4 2 11.9 1.7 6.6-0.3 13.7-1.7 17.9-3.7 5.4-2.5 9-5.3 10.9-7.2l-1 0.1c-14.6 3.1-25 2.7-30.8-1.1q-0.1-0.1-0.2-0.2-0.2-0.1-0.3-0.2-0.2-0.2-0.3-0.3-0.1-0.1-0.3-0.2c-0.6 0.3-1.2 0.4-1.6 0.5-3.3 1-6.7 1.9-6.2 10.6zm-109.4 8.3c1 0.7 3 1.8 5.2 2.3 3.4 0.9 6.7 1.3 9.8 1.3 9.4 0 16.9-3.9 22.4-11.6 1.2-1.6 0.8-3.6 0.5-4.7-0.6-2.3-2.2-4.3-3.8-5-0.9-0.4-1.7-0.6-2.4-0.6-0.3 0-1.4 0-3.3 2.1q-0.5 0.5-1 1.1-0.4 0.5-0.9 1.1-0.5 0.5-0.9 1.1-0.5 0.6-0.9 1.1c-4.3 5.5-6.3 7.4-19.2 10-3.1 0.7-4.7 1.3-5.5 1.8zm-3.3-93.2l0.2 2.4c0.3 6.2 1 17.6-0.8 30.8-1.4 9.5 1.5 18.8 7.9 25.4 5.1 5.3 11.7 8.2 18.6 8.2h0.1c0.8-3.2 2-6.6 3.4-10.3l0.5-1.4c0.7-1.8 1.5-3.6 2.4-5.5 4.1-9.1 9.2-20.6 3.3-47.9-1.2-5.5-4-8.6-8.7-9.6-9.6-2.2-23.9 5.1-26.9 7.9zm25.8 4.5l-0.8-0.1c-1.9-0.2-3.8-1.4-5-3.1-0.5-0.6-1.2-1.8-1.1-2.8 0.2-1.6 2.1-2.5 5-2.5q1 0 2 0.2c1.6 0.2 3 0.6 4.1 1.3 1.9 1 2.1 2.2 2 2.8-0.3 1.7-2.9 4.2-6.2 4.2zm-5.8-5.9c-0.2 1.2 2.1 4.3 5.2 4.7 3 0.4 5.5-2 5.7-3.2 0.2-1.1-2.2-2.4-5.2-2.8-3-0.5-5.5 0.2-5.7 1.3zm3.9-0.4q0.2 0 0.4 0 0.2 0 0.4 0.1 0.2 0 0.5 0 0.2 0 0.4 0.1c2.6 0.3 4 1.3 4.2 1.6-0.2 0.6-1.8 2.3-4 2.3l-0.5-0.1c-2.3-0.3-4.1-2.7-4.2-3.4 0.2-0.2 1.1-0.6 2.8-0.6zm81.7 3.3c-2.9 0-5.4-2.2-5.6-3.7-0.2-1.7 2.7-3.1 5.7-3.5q0.9-0.1 1.9-0.1c2.6 0 4.3 0.7 4.4 2 0.1 0.7-0.5 2-1.5 3.1-0.7 0.7-2.1 1.9-4.1 2.2zm0.1-6.7c-3 0.4-5.3 1.7-5.1 2.9 0.1 1.2 2.7 3.6 5.7 3.2 3-0.4 5.3-3.5 5.1-4.7-0.1-1.2-2.7-1.8-5.7-1.4zm5.2 1.5c0 0.3-0.3 1.2-1.2 2.1-0.6 0.7-1.8 1.7-3.5 1.9l-0.6 0.1c-2.5 0-4.4-2.1-4.5-2.8-0.1-0.6 1.7-1.8 4.7-2.2q0.9-0.2 1.8-0.2c2.1 0 3.2 0.6 3.3 1.1z"/>
</svg>