<svg version="1.2" xmlns="http://www.w3.org/2000/svg" viewBox="0 0 256 256" width="256" height="256">
	<title>postgresql-svg</title>
	<style>
		.s0 { fill: #000000 } 
		.s1 { fill: #336791 } 
		.s2 { fill: #ffffff } 
	</style>
	<path id="Layer" class="s0" d="m191.7 186.7c1.7-13.6 1.1-15.6 11.6-13.4l2.7 0.2c8.1 0.4 18.6-1.2 24.8-4 13.3-6 21.3-16 8.1-13.4-30 6-32.1-3.9-32.1-3.9 31.7-45.5 45-103.4 33.5-117.6-31.2-38.6-85.1-20.3-86-19.9l-0.3 0.1c-5.9-1.2-12.6-1.9-20-2-13.6-0.3-23.9 3.4-31.7 9.2 0 0-96.3-38.5-91.8 48.3 0.9 18.5 27.3 139.8 58.7 103.2 11.5-13.4 22.6-24.8 22.6-24.8 5.5 3.6 12.1 5.4 19 4.8l0.6-0.5c-0.2 1.7-0.1 3.3 0.2 5.2-8.1 8.8-5.7 10.3-21.9 13.6-16.4 3.3-6.8 9.1-0.5 10.6 7.6 1.8 25.2 4.5 37.1-11.7l-0.4 1.8c3.1 2.5 2.9 17.8 3.4 28.7 0.4 10.8 1.2 21 3.5 27 2.3 6 5 21.4 26.2 17 17.8-3.7 31.4-9 32.7-58.5z"/>
	<path id="Layer" fill-rule="evenodd" class="s0" d="m152.1 256c-9.4 0-15.5-3.5-19.2-6.9-5.7-5.2-7.9-11.8-9.2-15.8l-0.6-1.6c-2.7-7-3.6-17.1-4.1-30.1-0.1-2-0.2-4-0.2-6.1-0.1-1.6-0.1-3.6-0.2-5.6q-1.3 0.6-2.6 1.1-1.3 0.5-2.6 0.9-1.4 0.4-2.7 0.7-1.4 0.3-2.8 0.6c-6.6 1.1-13.8 0.7-21.2-1.1-5.2-1.3-10.7-3.9-13.8-8-9.1 7.7-17.7 6.7-22.4 5.2-8.3-2.7-15.7-10.3-22.7-23.1-5-9.1-9.8-21.1-14.3-35.4-7.9-25-12.9-51.3-13.3-60-1.4-27 6.1-46.4 22.3-57.5 25.5-17.5 64.3-7.2 78.4-2.5 9.5-5.5 20.6-8.2 33.2-8 6.8 0.1 13.3 0.6 19.2 1.7 6.3-1.9 18.6-4.7 32.8-4.5 26 0.3 47.6 10.1 62.4 28.5 10.5 13 5.3 40.5 1.2 55.6-5.7 21.4-15.6 44.1-27.9 63.9 3.3 0 8.2-0.3 15-1.7 13.5-2.7 17.5 4.3 18.6 7.5 4.3 12.6-14.4 22.1-20.3 24.8-7.4 3.3-19.6 5.4-29.6 4.9h-0.4l-2.6-0.2-0.3 2.1-0.2 2.1c-0.7 25-4.4 40.9-12 51.4-8 11-19 14.1-28.8 16.1-3.3 0.7-6.3 1-9.1 1zm-19.8-91.3c6.1 4.8 6.6 13.6 7.1 30.2q0.1 3.1 0.2 5.9c0.2 5.5 0.8 18.5 2.9 23.9q0.4 1.2 0.8 2.4c2.3 7 3.5 10.4 13.6 8.4 8.5-1.8 12.8-3.4 16.2-8.1 5-6.8 7.7-20.6 8.3-40.9l10.3 0.2-10.3-1.1 0.3-2.5c1-8.2 1.7-14.1 7.3-18 4.6-3.1 9.7-2.8 13.8-2.1-4.5-3.3-5.7-7.2-6.1-8.8l-0.8-4.1 2.4-3.5c13.9-20 25.4-44.6 31.5-67.5 6.2-23.5 4.3-36 2.4-38.3-25.3-31.3-69.1-18.4-73.7-16.9l-0.7 0.4-3.9 0.7-2-0.4c-5.5-1.1-11.6-1.7-18.1-1.8-10.2-0.2-18.5 2.1-25.3 7.1l-4.7 3.5-5.5-2.2c-11.6-4.6-45.9-13.9-63.9-1.5-10.1 6.9-14.6 20.4-13.6 40.1 0.3 6.6 4.9 31.2 12.4 55.2 10.4 33 19.9 44 23.8 45.3 0.7 0.2 2.5-1.1 4.3-3.2q2.8-3.2 5.6-6.4 2.8-3.2 5.7-6.4 2.9-3.1 5.8-6.3 3-3.1 5.9-6.1l6-6.1 7.2 4.6c2.9 1.9 6.1 3 9.4 3.2l17.2-14.3-2.5 24.7c0 0.6 0 1.3 0.2 2.7l0.7 4.7-3.2 3.5-0.4 0.4 9.5 4.3z"/>
	<path id="Layer" class="s1" d="m238.9 156.1c-30 6-32.1-3.9-32.1-3.9 31.7-45.6 45-103.4 33.5-117.6-31.2-38.6-85.1-20.3-86-19.9l-0.3 0.1c-5.9-1.2-12.6-1.9-20-2-13.6-0.3-23.9 3.4-31.7 9.2 0 0-96.3-38.5-91.8 48.3 0.9 18.5 27.3 139.8 58.7 103.2 11.5-13.4 22.6-24.7 22.6-24.7 5.5 3.5 12.1 5.3 19 4.7l0.6-0.5c-0.2 1.7-0.1 3.3 0.2 5.2-8.1 8.8-5.7 10.4-21.9 13.6-16.4 3.3-6.8 9.1-0.5 10.6 7.6 1.9 25.2 4.5 37.1-11.7l-0.4 1.9c3.1 2.4 5.4 16 5 28.3-0.4 12.3-0.6 20.7 1.9 27.3 2.5 6.6 5 21.4 26.2 17 17.8-3.7 27-13.2 28.3-29.2 0.9-11.4 3-9.7 3.1-19.8l1.7-4.9c1.9-15.3 0.3-20.3 11.2-18l2.7 0.2c8.1 0.4 18.6-1.2 24.8-4 13.3-6 21.3-16 8.1-13.4z"/>
	<path id="Layer" fill-rule="evenodd" class="s2" d="m153.2 249.8c-17.7 0-23.4-13.6-25.7-19.2-2.8-6.8-3.7-30.1-3.5-52.8-6.5 5.9-14.7 9-24 9-3.8 0-7.8-0.5-11.8-1.5-4.3-1-11.3-4.1-11.2-9.1 0.1-5.7 8.6-7.4 11.8-8 11.5-2.3 12.3-3.3 15.9-7.7 0.7-0.9 1.6-2 2.6-3.2q0-0.2 0-0.3 0-0.2 0-0.4c-5.3-0.1-10.4-1.5-15.1-3.9-2.9 3-11.5 11.9-20.6 22.6-5.3 6.2-10.4 8-14.6 8q-0.6 0-1.1 0-0.6-0.1-1.2-0.2-0.6-0.1-1.1-0.2-0.6-0.1-1.1-0.3c-11.6-3.8-22.5-22-32.7-54.1-7.7-24.5-12.6-50.1-13-58.4-1.3-24.6 5.3-42 19.5-51.7 25.5-17.6 66.8-3.9 75.5-0.8 8.9-5.9 19.6-8.7 32-8.5 6.8 0.1 13 0.9 18.7 2.3q0.3-0.1 0.7-0.2h-0.1 0.1c3.5-1.3 16.4-5.1 32.4-4.9 24 0.3 43.8 9.2 57.2 25.9 6.4 7.9 6.4 26.1 0.1 49.9-6.3 23.6-18 48.9-32.1 69.8 2 1.5 8.5 4.3 27.2 0.6 6-1.2 9.5-0.2 10.6 3 2.2 6.3-9.9 13.6-16.6 16.6-5.9 2.7-15.5 4.4-23.7 4.4-4.1 0-7.9-0.4-10.8-1.3-1.3 12-4.3 34.8-6 44.4-3.1 17.5-11.1 25.4-29.7 29.3-3.1 0.6-6 0.9-8.6 0.9zm-35.8-98.5c2.1 0 3.9 0.7 5 1.2 3.7 1.5 6.8 5.1 8.1 9.3q0.3 1.1 0.4 2.1 0.2 0.5 0.2 1.1c-0.9 30 0.3 57.1 2.8 63.2 3.9 9.4 9.8 17.6 26.5 14.2 15.8-3.3 21.7-9.1 24.4-24 2-11.3 5.9-43.1 6.5-50-0.7-13.8 7.2-16.2 11.2-17.3-0.6-0.8-1.4-1.8-2.2-2.8-2.4-2.9-5.6-6.8-8.1-12.7-0.4-0.9-1.6-3.1-3.1-5.5-7.7-13.4-23.7-41.4-13.4-55.6 4.8-6.7 14.3-9.3 28.2-7.8-4.1-12.2-23.7-50.2-70.2-51-14-0.2-25.5 4-34.1 12.4-13.9 13.6-17.4 35.1-18.3 46.3q1.1-0.7 2.5-1.3c3.4-1.7 10.3-4.7 17.8-5.4 12.5-1.3 20.7 4.1 23.1 15.1 6.7 29.7 0.6 42.9-3.9 52.5-0.8 1.8-1.6 3.5-2.2 5.1l-0.6 1.5c-1.4 3.6-2.7 6.9-3.4 9.8q1.4-0.4 2.8-0.4zm-22.7-127.9q0.4-0.4 0.9-0.8c-12.7-4.1-45.5-12.5-65.4 1.2-12.1 8.3-17.7 23.8-16.5 46 0.3 7 4.9 31.9 12.7 56.7 9 28.8 19.3 46.9 28.2 49.7 1.4 0.5 5.7 1.9 11.7-5.2q2.7-3.1 5.4-6.2 2.7-3 5.5-6 2.7-3 5.5-6 1.9-2 3.8-3.9-1.5-1.3-2.9-2.6c-8.1-8.2-11.8-19.6-10.1-31.2 1.8-12.6 1.2-23.8 0.8-29.8-0.1-1.6-0.2-2.8-0.2-3.7q0 0 0 0c0-2.8-0.3-37.7 20.6-58.2zm142.7 12.9c-12.1-15-29.2-22.9-50.9-23.3-8.9-0.2-16.9 1-22.5 2.1 13.3 5.6 23 13.9 29.6 21.3 11.8 13.4 17.6 28.1 18 33q0.1 1.1-0.1 1.8 0-0.4 0-0.8c-0.1-0.9-0.5-1.7-1.2-2.3-0.6-0.6-1.5-0.9-2.4-0.8-0.9 0-1.8 0.4-2.4 1.1-0.6 0.6-0.9 1.5-0.9 2.4q0.1 1.4 0.1 2.7c-12.1-1.5-20 0.1-23.4 4.8-7.8 10.8 7.4 37.2 13.8 48.5 1.7 2.9 2.9 5 3.4 6.3q1.1 2.4 2.3 4.4-1 1.9-2.3 3.7c-0.3 0.5-0.5 1.1-0.6 1.7 0 0.6 0.2 1.2 0.4 1.8 0.3 0.5 0.8 0.9 1.3 1.3 0.5 0.3 1.2 0.4 1.8 0.4q0.4 0 0.8-0.1 0.4-0.1 0.8-0.3 0.4-0.2 0.7-0.4 0.3-0.3 0.5-0.6 0.5-0.8 1-1.5 0.2 0.3 0.5 0.6 0.6 0.7 1.1 1.4c29.7-45.1 39.9-97.6 30.6-109.2zm-28.7 37.6h-1.2q-1.4-0.2-2.8-0.4c-0.1 3.7-0.6 7-1.1 10.5-0.6 3.6-1.2 7.3-1.4 11.9-0.1 4.4 0.5 9 1 13.5 1.2 9.2 2.3 18.7-2.4 28.1 1.4 2.4 3 4.3 4.4 6 7.7-12.1 6.2-24.2 4.8-34.9-0.5-4.4-1-8.6-0.9-12.5 0.1-4.2 0.7-7.7 1.3-11.1 0.6-4.3 1.3-8.6 1.1-13.8-0.5 2.1-2.3 2.6-2.8 2.7zm-10.6 94.2c0.8 0.8 4.6 2.1 12.4 1.7 6.9-0.3 14.3-1.7 18.6-3.7 5.7-2.5 9.4-5.4 11.4-7.3l-1.1 0.2c-15.2 3-26 2.6-32-1.2q-0.1-0.1-0.3-0.2-0.1-0.1-0.3-0.2-0.1-0.1-0.2-0.2-0.2-0.1-0.3-0.3c-0.7 0.3-1.3 0.5-1.7 0.6-3.4 0.9-6.9 1.9-6.5 10.6zm-113.7 8.3c1 0.8 3.1 1.9 5.4 2.4 3.5 0.9 6.9 1.3 10.2 1.3 9.8 0 17.6-3.9 23.3-11.7 1.2-1.6 0.9-3.7 0.5-4.7-0.6-2.3-2.3-4.4-4-5-0.9-0.4-1.7-0.7-2.4-0.7-0.4 0-1.5 0-3.5 2.1q-0.5 0.6-1 1.1-0.5 0.6-0.9 1.1-0.5 0.6-1 1.2-0.5 0.5-0.9 1.1c-4.5 5.6-6.6 7.4-19.9 10.1-3.3 0.6-5 1.3-5.8 1.7zm-3.4-93.8l0.2 2.4c0.3 6.2 1 17.7-0.9 31-1.4 9.6 1.7 18.9 8.3 25.7 5.3 5.3 12.2 8.2 19.3 8.2h0.1c0.8-3.3 2.1-6.7 3.6-10.4l0.5-1.4c0.7-1.9 1.5-3.6 2.4-5.5 4.3-9.3 9.7-20.8 3.5-48.4-1.2-5.4-4.2-8.6-9-9.6-10-2.2-24.9 5.1-28 8zm26.8 4.5l-0.8-0.1c-2-0.3-3.9-1.4-5.3-3.2-0.4-0.6-1.2-1.7-1.1-2.8 0.3-1.5 2.2-2.5 5.2-2.5q1 0 2.1 0.2c1.6 0.2 3.2 0.7 4.3 1.3 2 1 2.1 2.2 2 2.8-0.2 1.7-3 4.3-6.4 4.3zm-6-5.9c-0.2 1.1 2.2 4.3 5.3 4.7 3.2 0.4 5.8-2 6-3.2 0.2-1.2-2.2-2.5-5.4-2.9-3.1-0.4-5.8 0.2-5.9 1.4zm4-0.4q0.2 0 0.5 0 0.2 0 0.4 0 0.2 0 0.4 0 0.3 0.1 0.5 0.1c2.7 0.4 4.1 1.3 4.3 1.7-0.2 0.5-1.8 2.2-4.1 2.2h-0.5c-2.4-0.3-4.3-2.7-4.4-3.4 0.2-0.3 1.2-0.6 2.9-0.6zm85 3.3c-3 0-5.6-2.3-5.8-3.7-0.3-1.8 2.7-3.2 5.8-3.6q1.1-0.1 2-0.1c2.7 0 4.5 0.8 4.6 2 0.2 0.8-0.5 2-1.6 3.1-0.7 0.7-2.2 2-4.2 2.2zm0.1-6.7c-3.1 0.5-5.5 1.8-5.4 2.9 0.2 1.2 2.9 3.7 6 3.2 3.1-0.4 5.5-3.5 5.4-4.7-0.2-1.2-2.9-1.8-6-1.4zm5.4 1.5c0.1 0.3-0.3 1.2-1.3 2.2-0.6 0.6-1.9 1.7-3.6 1.9h-0.6c-2.6 0-4.6-2-4.7-2.7-0.1-0.7 1.8-1.9 4.9-2.3q0.9-0.1 1.8-0.1c2.3 0 3.4 0.6 3.5 1z"/>
</svg>