<svg version="1.2" xmlns="http://www.w3.org/2000/svg" viewBox="0 0 256 256" width="256" height="256">
	<title>prometheus-svg</title>
	<style>
		.s0 { fill: #e6522c } 
	</style>
	<g id="Layer_2">
	</g>
	<path id="path4486" fill-rule="evenodd" class="s0" d="m127.5 256c-70.5 0-127.5-57.1-127.5-127.8 0-70.6 57-127.7 127.5-127.7 70.5 0 127.5 57.1 127.5 127.7 0 70.7-57 127.8-127.5 127.8zm36.3-46.4h-72.6c0 16.6 16.3 30 36.3 30 20 0 36.3-13.4 36.3-30zm23.6-31.6h-119.8v21.7h119.8c0 0 0-21.7 0-21.7zm18.8-43.4l-27.3 5.4c0 0-5.8 1.4-14.2 3 7.4-8.8 11.8-20 11.8-31.9 0-17.8-4.4-27.2-11.5-39.6-4.4-7.7-10.9-23.7-5.2-36.4-12.8 10.1-16.2 39.5-17 59.6-2.2-9.7-1.8-25-4.7-34-7.7-24.2-16.4-34-9.5-45.3-7.8 0.4-15.5 14.1-15.5 25.8 0 11.4-3 29.9-10.4 40-0.5-21.9-7.8-35.9-14.7-36.4 7.1 18-12.5 40.4-12.5 66 0 11.7 4.5 23.1 12.1 32.1-7.9-1.5-13.4-2.7-13.4-2.7-10.5-2.4-25.5-5.7-25.4-5.5 2.8 8 5.7 15.8 17.9 30.7q0.6 0.7 1.2 1.3h119.1c15.3-15.7 19.2-32.1 19.2-32.1z"/>
</svg>