<svg version="1.2" xmlns="http://www.w3.org/2000/svg" viewBox="0 0 256 256" width="256" height="256">
	<title>prometheus-svg</title>
	<style>
		.s0 { fill: #e6522c } 
	</style>
	<g id="Layer_2">
	</g>
	<path id="path4486" fill-rule="evenodd" class="s0" d="m128 256c-70.8 0-128-57.6-128-128.7 0-71.2 57.2-128.8 128-128.8 70.8 0 128 57.6 128 128.8 0 71.1-57.2 128.7-128 128.7zm36.4-46.7h-72.8c0 16.7 16.3 30.2 36.4 30.2 20.1 0 36.4-13.5 36.4-30.2zm23.8-32h-120.4v22h120.4c0 0 0-22 0-22zm18.8-43.6l-27.4 5.4c0 0-5.9 1.4-14.3 3 7.4-8.8 11.8-20.2 11.8-32.2 0-17.9-4.3-27.3-11.5-39.8-4.4-7.8-10.9-23.9-5.2-36.8-12.8 10.3-16.3 39.9-17 60.2-2.3-9.8-1.9-25.2-4.8-34.4-7.7-24.3-16.5-34.2-9.5-45.6-7.8 0.4-15.6 14.2-15.6 26 0 11.5-3 30.1-10.4 40.3-0.5-22-7.9-36.1-14.8-36.7 7.1 18.2-12.6 40.8-12.6 66.6 0 11.7 4.6 23.2 12.3 32.3-8-1.5-13.5-2.7-13.5-2.7-10.6-2.4-25.6-5.8-25.5-5.5 2.8 8 5.7 15.8 18 30.9q0.6 0.7 1.2 1.4h119.5c15.3-15.9 19.3-32.4 19.3-32.4z"/>
</svg>