<svg version="1.2" xmlns="http://www.w3.org/2000/svg" viewBox="0 0 256 256" width="256" height="256">
	<title>pycharm-svg</title>
	<defs>
		<linearGradient id="g1" x2="1" gradientUnits="userSpaceOnUse" gradientTransform="matrix(152.349,0,0,160.897,91.423,98.911)">
			<stop offset="0" stop-color="#21d789"/>
			<stop offset="1" stop-color="#07c3f2"/>
		</linearGradient>
		<linearGradient id="g2" x2="1" gradientUnits="userSpaceOnUse" gradientTransform="matrix(313.706,-231.577,157.911,213.914,-89.817,216.066)">
			<stop offset=".011" stop-color="#fcf84a"/>
			<stop offset=".112" stop-color="#a7eb62"/>
			<stop offset=".206" stop-color="#5fe077"/>
			<stop offset=".273" stop-color="#32da84"/>
			<stop offset=".306" stop-color="#21d789"/>
			<stop offset=".577" stop-color="#21d789"/>
			<stop offset=".597" stop-color="#21d789"/>
			<stop offset=".686" stop-color="#20d68c"/>
			<stop offset=".763" stop-color="#1ed497"/>
			<stop offset=".835" stop-color="#19d1a9"/>
			<stop offset=".904" stop-color="#13ccc2"/>
			<stop offset=".971" stop-color="#0bc6e1"/>
			<stop offset="1" stop-color="#07c3f2"/>
		</linearGradient>
		<linearGradient id="g3" x2="1" gradientUnits="userSpaceOnUse" gradientTransform="matrix(52.322,-164.183,108.064,34.438,34.122,283.99)">
			<stop offset="0" stop-color="#21d789"/>
			<stop offset=".164" stop-color="#24d788"/>
			<stop offset=".305" stop-color="#2fd886"/>
			<stop offset=".437" stop-color="#41da82"/>
			<stop offset=".564" stop-color="#5adc7d"/>
			<stop offset=".688" stop-color="#7ae077"/>
			<stop offset=".809" stop-color="#a1e36e"/>
			<stop offset=".925" stop-color="#cfe865"/>
			<stop offset="1" stop-color="#f1eb5e"/>
		</linearGradient>
		<linearGradient id="g4" x2="1" gradientUnits="userSpaceOnUse" gradientTransform="matrix(113.86,-153.084,106.008,78.846,103.407,141.25)">
			<stop offset="0" stop-color="#21d789"/>
			<stop offset=".061" stop-color="#24d788"/>
			<stop offset=".113" stop-color="#2fd886"/>
			<stop offset=".162" stop-color="#41da82"/>
			<stop offset=".209" stop-color="#5add7d"/>
			<stop offset=".255" stop-color="#79e077"/>
			<stop offset=".258" stop-color="#7ce076"/>
			<stop offset=".499" stop-color="#8ce173"/>
			<stop offset=".925" stop-color="#b2e56b"/>
		</linearGradient>
		<linearGradient id="g5" x2="1" gradientUnits="userSpaceOnUse" gradientTransform="matrix(-229.418,-2.124,2.235,-241.385,277.538,160.73)">
			<stop offset=".387" stop-color="#fcf84a"/>
			<stop offset=".536" stop-color="#ecf451"/>
			<stop offset=".826" stop-color="#c2e964"/>
			<stop offset=".925" stop-color="#b2e56b"/>
		</linearGradient>
	</defs>
	<style>
		.s0 { fill: url(#g1) } 
		.s1 { fill: url(#g2) } 
		.s2 { fill: url(#g3) } 
		.s3 { fill: url(#g4) } 
		.s4 { fill: url(#g5) } 
		.s5 { fill: #000000 } 
		.s6 { fill: #ffffff } 
	</style>
	<g id="Layer">
		<g id="Layer">
			<path id="Layer" class="s0" d="m179.6 40.2l74.6 62.6-26.7 54.5-45.4-12.5h-38.7z"/>
			<path id="Layer" class="s1" d="m104.2 80.8l-14.6 76.5-1.5 26.3-36.2 15.7-51.9 5.5 15.7-165.7 93.6-39.1 57.8 38z"/>
			<path id="Layer" class="s2" d="m104.2 80.8l7 147.8-23.4 27.4-87.8-51.2 72-107.5z"/>
			<path id="Layer" class="s3" d="m200.8 69.9h-88.9l78.6-69.9z"/>
			<path id="Layer" class="s4" d="m256 228.9l-78.3 26.7-103.8-29.2 30.3-145.6 12.1-10.9 63.3-5.9-5.9 63.6 50.5-19.3z"/>
		</g>
		<g id="Layer">
			<path id="Layer" class="s5" d="m49 49h158v158h-158z"/>
			<path id="Layer" class="s6" d="m64 177.4h59.2v9.8h-59.2z"/>
			<path id="Layer" fill-rule="evenodd" class="s6" d="m90 69.9c15.7 0 25.2 9.1 25.2 22.6v0.4c0 15-11.7 23-26.3 23h-11v19.4h-14.3v-65.4zm-0.7 32.9c7.3 0 11.3-4.4 11.3-9.9v-0.4c0-6.6-4.3-9.8-11.7-9.8h-10.9v20.1z"/>
			<path id="Layer" class="s6" d="m121.1 102.8c0-18.7 13.8-34 34-34 12.4 0 19.7 4 25.9 10.2l-9.1 10.6c-5.1-4.8-10.3-7.3-16.8-7.3-11 0-19.1 9.1-19.1 20.5v-0.4c0 11.3 7.7 20.5 19.1 20.5 7.3 0 12-2.9 17.2-7.7l9.1 9.1c-6.6 7.4-14.3 11.7-26.7 11.7-19.4 0.4-33.6-14.6-33.6-33.2z"/>
		</g>
	</g>
</svg>