<svg version="1.2" xmlns="http://www.w3.org/2000/svg" viewBox="0 0 252 256" width="256" height="256">
	<title>python-svg</title>
	<defs>
		<linearGradient id="g1" x2="1" gradientUnits="userSpaceOnUse" gradientTransform="matrix(138.594,120.301,-188.953,217.685,-6.07,8.216)">
			<stop offset="0" stop-color="#5a9fd4"/>
			<stop offset="1" stop-color="#306998"/>
		</linearGradient>
		<linearGradient id="g2" x2="1" gradientUnits="userSpaceOnUse" gradientTransform="matrix(-49.49,-70.64,114.265,-80.053,186.101,201.318)">
			<stop offset="0" stop-color="#ffd43b"/>
			<stop offset="1" stop-color="#ffe873"/>
		</linearGradient>
	</defs>
	<style>
		.s0 { fill: url(#g1) } 
		.s1 { fill: url(#g2) } 
	</style>
	<path id="Layer" fill-rule="evenodd" class="s0" d="m155.5 3.5c16.5 2.7 30.3 15 30.3 31.4v57.7c0 16.9-13.4 30.8-30.3 30.8h-60.4c-20.6 0-37.8 17.6-37.8 37.6v27.6h-20.9c-17.6 0-27.8-12.7-32.1-30.7-5.8-24-5.6-38.4 0-61.5 4.8-20.1 20.2-30.7 37.8-30.7h83.2v-7.7h-60.5v-23.1c0-17.4 4.7-26.9 30.3-31.4 8.7-1.6 18.6-2.4 28.9-2.5 10.4 0 21.1 0.7 31.5 2.5zm-52.9 27.6c0-6.4-5.1-11.5-11.3-11.5-6.3 0-11.4 5.1-11.4 11.5 0 6.4 5.1 11.5 11.4 11.5 6.2 0 11.3-5.1 11.3-11.5z"/>
	<path id="Layer" fill-rule="evenodd" class="s1" d="m216.1 65.7c17.6 0 25.9 13.2 30.3 30.7 6 24.3 6.3 42.6 0 61.5-6.2 18.5-12.7 30.7-30.3 30.7h-90.8v7.7h60.5v23.1c0 17.5-15 26.3-30.3 30.8-22.9 6.6-41.3 5.6-60.4 0-16-4.7-30.3-14.4-30.3-30.8v-57.7c0-16.5 13.7-30.7 30.3-30.7h60.4c20.2 0 37.9-17.6 37.9-38.4v-26.9c0 0 22.7 0 22.7 0zm-45.4 157.5c0-6.3-5.1-11.5-11.3-11.5-6.3 0-11.4 5.2-11.4 11.5 0 6.4 5.1 11.6 11.4 11.6 6.2 0 11.3-5.2 11.3-11.6z"/>
</svg>