<?xml version="1.0" encoding="UTF-8"?>
<svg xmlns="http://www.w3.org/2000/svg" xmlns:xlink="http://www.w3.org/1999/xlink" width="px" height="40px" viewBox="0 0 33 39" version="1.1">
<g id="surface1">
<path style=" stroke:none;fill-rule:nonzero;fill:rgb(93.333334%,29.803923%,17.254902%);fill-opacity:1;" d="M 28.144531 11.5625 L 25.203125 14.425781 C 30.027344 19.148438 30.027344 26.734375 25.203125 31.382812 C 20.375 36.089844 12.625 36.089844 7.875 31.382812 C 3.050781 26.660156 3.050781 19.074219 7.875 14.425781 L 15.519531 6.945312 L 16.609375 5.878906 L 16.609375 0.242188 L 5.074219 11.515625 C -1.339844 17.792969 -1.339844 27.941406 5.074219 34.214844 C 11.503906 40.492188 21.871094 40.492188 28.175781 34.214844 C 34.554688 27.941406 34.554688 17.871094 28.144531 11.5625 Z M 28.144531 11.5625 "/>
<path style=" stroke:none;fill-rule:nonzero;fill:rgb(93.333334%,29.803923%,17.254902%);fill-opacity:1;" d="M 22.367188 10.878906 C 21.183594 10.878906 20.234375 9.949219 20.234375 8.789062 C 20.234375 7.632812 21.183594 6.703125 22.367188 6.703125 C 23.550781 6.703125 24.515625 7.632812 24.515625 8.789062 C 24.515625 9.949219 23.550781 10.878906 22.367188 10.878906 Z M 22.367188 10.878906 "/>
</g>
</svg>
