<svg version="1.2" xmlns="http://www.w3.org/2000/svg" viewBox="0 0 212 256" width="212" height="256">
	<title>pytorch-svg</title>
	<style>
		.s0 { fill: #ee4c2c } 
	</style>
	<g id="Layer">
		<path id="Layer" class="s0" d="m180.8 75.9l-18.9 18.8c31 31 31 80.8 0 111.3-31 30.9-80.8 30.9-111.3 0-31-31-31-80.8 0-111.3l49.1-49.1 7-7v-37l-74.1 74c-41.2 41.2-41.2 107.8 0 149 41.3 41.2 107.9 41.2 148.4 0 41-41.2 41-107.3-0.2-148.7z"/>
		<path id="Layer" class="s0" d="m143.7 71.4c-7.6 0-13.7-6.1-13.7-13.7 0-7.6 6.1-13.7 13.7-13.7 7.6 0 13.8 6.1 13.8 13.7 0 7.6-6.2 13.7-13.8 13.7z"/>
	</g>
</svg>