<?xml version="1.0" encoding="UTF-8"?>
<svg xmlns="http://www.w3.org/2000/svg" xmlns:xlink="http://www.w3.org/1999/xlink" width="px" height="40px" viewBox="0 0 51 40" version="1.1">
<defs>
<linearGradient id="linear0" gradientUnits="userSpaceOnUse" x1="0" y1="0" x2="1" y2="0" gradientTransform="matrix(50.795225,34.394219,-29.404282,44.389062,0.0638273,0.23375)">
<stop offset="0" style="stop-color:rgb(79.607843%,80.784314%,81.568627%);stop-opacity:1;"/>
<stop offset="1" style="stop-color:rgb(51.764706%,51.372549%,54.509804%);stop-opacity:1;"/>
</linearGradient>
<linearGradient id="linear1" gradientUnits="userSpaceOnUse" x1="0" y1="0" x2="1" y2="0" gradientTransform="matrix(28.035936,28.92375,-25.002363,24.772501,20.991754,10.921407)">
<stop offset="0" style="stop-color:rgb(15.294118%,42.745098%,76.470588%);stop-opacity:1;"/>
<stop offset="1" style="stop-color:rgb(8.627451%,36.078431%,66.666667%);stop-opacity:1;"/>
</linearGradient>
</defs>
<g id="surface1">
<path style=" stroke:none;fill-rule:evenodd;fill:url(#linear0);" d="M 25.46875 34.640625 C 11.421875 34.640625 0.0625 26.953125 0.0625 17.4375 C 0.0625 7.90625 11.421875 0.21875 25.46875 0.21875 C 39.5 0.21875 50.859375 7.90625 50.859375 17.4375 C 50.859375 26.953125 39.5 34.640625 25.46875 34.640625 Z M 29.347656 6.9375 C 18.683594 6.9375 10.046875 12.21875 10.046875 18.71875 C 10.046875 25.21875 18.683594 30.484375 29.347656 30.484375 C 40.011719 30.484375 47.878906 26.890625 47.878906 18.71875 C 47.878906 10.546875 40.011719 6.9375 29.347656 6.9375 Z M 29.347656 6.9375 "/>
<path style=" stroke:none;fill-rule:evenodd;fill:url(#linear1);" d="M 38.746094 26.875 C 38.746094 26.875 40.273438 27.34375 41.171875 27.8125 C 41.480469 27.96875 42.019531 28.28125 42.40625 28.703125 C 42.777344 29.109375 42.964844 29.515625 42.964844 29.515625 L 49.023438 39.859375 L 39.238281 39.859375 L 34.664062 31.15625 C 34.664062 31.15625 33.722656 29.53125 33.148438 29.0625 C 32.65625 28.65625 32.453125 28.515625 31.976562 28.515625 C 31.652344 28.515625 29.65625 28.515625 29.65625 28.515625 L 29.65625 39.859375 L 20.988281 39.859375 L 20.988281 10.90625 L 38.390625 10.90625 C 38.390625 10.90625 46.316406 11.046875 46.316406 18.6875 C 46.316406 26.3125 38.746094 26.875 38.746094 26.875 Z M 34.972656 17.1875 L 29.734375 17.1875 L 29.71875 22.109375 L 34.972656 22.109375 C 34.972656 22.109375 37.398438 22.09375 37.398438 19.59375 C 37.398438 17.046875 34.972656 17.1875 34.972656 17.1875 Z M 34.972656 17.1875 "/>
</g>
</svg>
