<svg version="1.2" xmlns="http://www.w3.org/2000/svg" viewBox="0 0 330 256" width="330" height="256">
	<title>r-svg</title>
	<defs>
		<linearGradient id="g1" x2="1" gradientUnits="userSpaceOnUse" gradientTransform="matrix(328.675,220.123,-190.263,284.09,.413,1.496)">
			<stop offset="0" stop-color="#cbced0"/>
			<stop offset="1" stop-color="#84838b"/>
		</linearGradient>
		<linearGradient id="g2" x2="1" gradientUnits="userSpaceOnUse" gradientTransform="matrix(181.409,185.112,-161.78,158.544,135.829,69.897)">
			<stop offset="0" stop-color="#276dc3"/>
			<stop offset="1" stop-color="#165caa"/>
		</linearGradient>
	</defs>
	<style>
		.s0 { fill: url(#g1) } 
		.s1 { fill: url(#g2) } 
	</style>
	<path id="Layer" fill-rule="evenodd" class="s0" d="m164.8 221.7c-90.9 0-164.4-49.2-164.4-110.1 0-61 73.5-110.2 164.4-110.2 90.8 0 164.3 49.2 164.3 110.2 0 60.9-73.5 110.1-164.3 110.1zm25.1-177.3c-69 0-124.9 33.8-124.9 75.4 0 41.6 55.9 75.3 124.9 75.3 69 0 119.9-23 119.9-75.3 0-52.3-50.9-75.4-119.9-75.4z"/>
	<path id="Layer" fill-rule="evenodd" class="s1" d="m250.7 172c0 0 9.9 3 15.7 6 2 1 5.5 3 8 5.7 2.4 2.6 3.6 5.2 3.6 5.2l39.2 66.2h-63.3l-29.6-55.7c0 0-6.1-10.4-9.8-13.4-3.2-2.6-4.5-3.5-7.6-3.5-2.1 0-15 0-15 0v72.6h-56.1v-185.3h112.6c0 0 51.3 0.9 51.3 49.8 0 48.8-49 52.4-49 52.4zm-24.4-62h-33.9l-0.1 31.5h34c0 0 15.7-0.1 15.7-16.1 0-16.3-15.7-15.4-15.7-15.4z"/>
</svg>