<svg version="1.2" xmlns="http://www.w3.org/2000/svg" viewBox="0 0 287 256" width="287" height="256">
	<title>react-svg</title>
	<style>
		.s0 { fill: #61dafb } 
	</style>
	<g id="Layer">
		<path id="Layer" class="s0" d="m143.5 154.2c-14.4 0-26.1-11.6-26.1-26.1 0-14.4 11.7-26.1 26.1-26.1 14.4 0 26.1 11.7 26.1 26.1 0 14.5-11.7 26.1-26.1 26.1z"/>
		<path id="Layer" fill-rule="evenodd" class="s0" d="m286.8 128.1c0 17-15.5 32.1-44.2 43.1-5 2.1-10.3 3.7-15.8 5.3 1.4 5.5 2.6 10.9 3.5 16.2 4.8 30-0.5 51.3-15.1 59.8-4.4 2.5-9.2 3.6-14.7 3.6-16 0-36.4-11.9-57-31.8-20.4 19.9-40.8 31.8-57 31.8-5.5 0-10.3-1.1-14.7-3.6-14.6-8.3-19.9-29.6-15.1-59.8 0.9-5.3 2.1-10.7 3.5-16.2-5.5-1.6-10.8-3.5-15.8-5.3-28.4-11-44.2-26.1-44.2-43.1 0-16.9 15.5-32 44.2-43 5-2.1 10.3-3.7 15.8-5.3-1.4-5.5-2.6-11-3.5-16.2-4.8-30 0.5-51.3 15.1-59.8 4.4-2.5 9.2-3.7 14.7-3.7 16 0 36.4 11.9 57 31.9 20.6-20 41-31.9 57-31.9 5.5 0 10.3 1.2 14.7 3.7 14.6 8.2 19.9 29.5 15.1 59.8-0.9 5.2-2.1 10.7-3.5 16.2 5.5 1.6 10.8 3.5 15.8 5.3 28.7 11 44.2 26.1 44.2 43zm-86.1-114.9c-13.9 0-31.1 11.4-48 28.2 8 8.9 16 18.7 23.8 29.7 13.3 1.2 25.8 3 37.8 5.7 1.3-5.2 2.5-10.3 3.2-15.1 3.9-24 0.6-41-8.7-46.4-2.3-1.4-5.1-2.1-8.1-2.1zm-5.4 114.9c-3.7-7.5-7.8-15.3-12.2-22.9q-6.2-10.9-13.7-21.9c-8.3-0.7-16.7-1-25.7-1-8.7 0-17.1 0.3-25.6 1-5.1 7.3-9.9 14.6-14 21.9-4.3 7.6-8.5 15.4-12.1 22.9 3.6 7.6 7.8 15.4 12.1 22.9q6.2 11 13.8 22c8.2 0.7 16.7 0.9 25.6 0.9 8.7 0 17.2-0.2 25.6-0.9 5.1-7.3 9.9-14.6 14-22 4.4-7.7 8.3-15.3 12.2-22.9zm-1 29.6c-2.5 4.8-5.5 9.4-8.2 13.7 8.7-1.1 16.9-2.5 24.7-4.3-2.5-7.8-5.2-15.6-8.7-23.6-2.5 4.6-5 9.4-7.8 14.2zm-35 28.8c-5.3 0.3-10.5 0.5-15.8 0.5-5.3 0-10.5-0.2-15.8-0.5 5 6.7 10.3 13.1 15.8 19 5.5-5.9 10.8-12.3 15.8-19zm-66.6-29.3c-2.8-4.6-5.3-9.4-7.8-13.9-3.5 8-6.2 16-8.7 23.5 7.8 1.9 16 3.2 24.7 4.4-2.7-4.6-5.5-8.9-8.2-14zm0-58.6c2.5-4.8 5.5-9.4 8.2-13.7-8.7 1.1-16.9 2.5-24.7 4.3 2.5 7.8 5.2 15.6 8.7 23.6 2.5-4.6 5-9.4 7.8-14.2zm35-28.8c5.3-0.3 10.5-0.5 15.8-0.5 5.3 0 10.5 0.2 15.8 0.5-5-6.7-10.3-13.1-15.8-19.1-5.5 6-10.8 12.4-15.8 19.1zm74.4 43.2c3.5-8 6.2-16 8.7-23.6-7.8-1.8-16-3.2-24.7-4.3l8.2 13.7c2.8 4.6 5.3 9.4 7.8 14.2zm-129.4-36.2c12-2.5 24.5-4.5 37.8-5.7 7.8-11 15.8-21 23.8-29.7-17.1-17-34.3-28.2-48-28.2-3 0-5.8 0.7-8.1 2.1-9.3 5.4-12.6 22.4-8.7 46.4 1 4.8 1.9 9.9 3.2 15.1zm-9.1 87.1c3.4-11.5 8.2-23.4 13.7-35.5-5.5-12.2-10-24.3-13.7-35.8-5.1 1.4-10.1 3-14.7 4.9-22.9 8.4-35.9 19.9-35.9 30.6 0 12.9 19 26.6 50.6 35.8zm22.7 79.2c13.9 0 31.1-11.5 48-28.2-8-8.9-16-18.8-23.8-29.7-13.3-1.2-25.8-3-37.8-5.8-1.3 5.3-2.5 10.3-3.2 15.1-3.9 24.1-0.6 41 8.7 46.5 2.3 1.4 5.1 2.1 8.1 2.1zm128-63.7c-12 2.6-24.5 4.6-37.8 5.8-7.8 10.9-15.8 21-23.8 29.7 17.1 17 34.3 28.2 48 28.2 3 0 5.8-0.7 8.1-2.1 9.3-5.5 12.6-22.4 8.7-46.5-1-4.8-1.9-9.8-3.2-15.1zm59.7-51.3c0-12.8-19-26.5-50.6-35.7-3.4 11.5-8.2 23.4-13.7 35.5 5.5 12.1 10.1 24.3 13.7 35.7 5.1-1.3 10.1-2.9 14.7-4.8 22.6-8.4 35.9-19.9 35.9-30.7z"/>
	</g>
</svg>