<?xml version="1.0" encoding="UTF-8"?>
<svg xmlns="http://www.w3.org/2000/svg" xmlns:xlink="http://www.w3.org/1999/xlink" width="px" height="40px" viewBox="0 0 44 40" version="1.1">
<g id="surface1">
<path style=" stroke:none;fill-rule:nonzero;fill:rgb(38.039216%,85.490197%,98.431373%);fill-opacity:1;" d="M 22 24.09375 C 19.792969 24.09375 18 22.28125 18 20.015625 C 18 17.765625 19.792969 15.9375 22 15.9375 C 24.207031 15.9375 26 17.765625 26 20.015625 C 26 22.28125 24.207031 24.09375 22 24.09375 Z M 22 24.09375 "/>
<path style=" stroke:none;fill-rule:evenodd;fill:rgb(38.039216%,85.490197%,98.431373%);fill-opacity:1;" d="M 43.96875 20.015625 C 43.96875 22.671875 41.59375 25.03125 37.191406 26.75 C 36.425781 27.078125 35.613281 27.328125 34.769531 27.578125 C 34.984375 28.4375 35.167969 29.28125 35.308594 30.109375 C 36.042969 34.796875 35.230469 38.125 32.992188 39.453125 C 32.316406 39.84375 31.582031 40.015625 30.738281 40.015625 C 28.285156 40.015625 25.15625 38.15625 22 35.046875 C 18.871094 38.15625 15.746094 40.015625 13.261719 40.015625 C 12.417969 40.015625 11.683594 39.84375 11.007812 39.453125 C 8.769531 38.15625 7.957031 34.828125 8.691406 30.109375 C 8.832031 29.28125 9.015625 28.4375 9.230469 27.578125 C 8.386719 27.328125 7.574219 27.03125 6.808594 26.75 C 2.453125 25.03125 0.03125 22.671875 0.03125 20.015625 C 0.03125 17.375 2.40625 15.015625 6.808594 13.296875 C 7.574219 12.96875 8.386719 12.71875 9.230469 12.46875 C 9.015625 11.609375 8.832031 10.75 8.691406 9.9375 C 7.957031 5.25 8.769531 1.921875 11.007812 0.59375 C 11.683594 0.203125 12.417969 0.015625 13.261719 0.015625 C 15.714844 0.015625 18.84375 1.875 22 5 C 25.15625 1.875 28.285156 0.015625 30.738281 0.015625 C 31.582031 0.015625 32.316406 0.203125 32.992188 0.59375 C 35.230469 1.875 36.042969 5.203125 35.308594 9.9375 C 35.167969 10.75 34.984375 11.609375 34.769531 12.46875 C 35.613281 12.71875 36.425781 13.015625 37.191406 13.296875 C 41.59375 15.015625 43.96875 17.375 43.96875 20.015625 Z M 30.769531 2.0625 C 28.636719 2.0625 26 3.84375 23.410156 6.46875 C 24.636719 7.859375 25.863281 9.390625 27.058594 11.109375 C 29.097656 11.296875 31.015625 11.578125 32.855469 12 C 33.054688 11.1875 33.238281 10.390625 33.34375 9.640625 C 33.941406 5.890625 33.4375 3.234375 32.011719 2.390625 C 31.660156 2.171875 31.230469 2.0625 30.769531 2.0625 Z M 29.941406 20.015625 C 29.375 18.84375 28.746094 17.625 28.070312 16.4375 C 27.4375 15.300781 26.738281 14.160156 25.972656 13.015625 C 24.699219 12.90625 23.410156 12.859375 22.03125 12.859375 C 20.695312 12.859375 19.410156 12.90625 18.105469 13.015625 C 17.324219 14.15625 16.589844 15.296875 15.960938 16.4375 C 15.300781 17.625 14.65625 18.84375 14.105469 20.015625 C 14.65625 21.203125 15.300781 22.421875 15.960938 23.59375 C 16.59375 24.738281 17.296875 25.886719 18.074219 27.03125 C 19.332031 27.140625 20.636719 27.171875 22 27.171875 C 23.332031 27.171875 24.636719 27.140625 25.925781 27.03125 C 26.707031 25.890625 27.441406 24.75 28.070312 23.59375 C 28.746094 22.390625 29.34375 21.203125 29.941406 20.015625 Z M 29.789062 24.640625 C 29.40625 25.390625 28.945312 26.109375 28.53125 26.78125 C 29.863281 26.609375 31.121094 26.390625 32.316406 26.109375 C 31.933594 24.890625 31.519531 23.671875 30.984375 22.421875 C 30.601562 23.140625 30.21875 23.890625 29.789062 24.640625 Z M 24.421875 29.140625 C 23.609375 29.1875 22.8125 29.21875 22 29.21875 C 21.1875 29.21875 20.390625 29.1875 19.578125 29.140625 C 20.34375 30.1875 21.15625 31.1875 22 32.109375 C 22.84375 31.1875 23.65625 30.1875 24.421875 29.140625 Z M 14.210938 24.5625 C 13.78125 23.84375 13.398438 23.09375 13.015625 22.390625 C 12.480469 23.640625 12.066406 24.890625 11.683594 26.0625 C 12.878906 26.359375 14.136719 26.5625 15.46875 26.75 C 15.054688 26.03125 14.625 25.359375 14.210938 24.5625 Z M 14.210938 15.40625 C 14.59375 14.65625 15.054688 13.9375 15.46875 13.265625 C 14.136719 13.4375 12.878906 13.65625 11.683594 13.9375 C 12.066406 15.15625 12.480469 16.375 13.015625 17.625 C 13.398438 16.90625 13.78125 16.15625 14.210938 15.40625 Z M 19.578125 10.90625 C 20.390625 10.859375 21.1875 10.828125 22 10.828125 C 22.8125 10.828125 23.609375 10.859375 24.421875 10.90625 C 23.65625 9.859375 22.84375 8.859375 22 7.921875 C 21.15625 8.859375 20.34375 9.859375 19.578125 10.90625 Z M 30.984375 17.65625 C 31.519531 16.40625 31.933594 15.15625 32.316406 13.96875 C 31.121094 13.6875 29.863281 13.46875 28.53125 13.296875 L 29.789062 15.4375 C 30.21875 16.15625 30.601562 16.90625 30.984375 17.65625 Z M 11.144531 12 C 12.984375 11.609375 14.902344 11.296875 16.941406 11.109375 C 18.136719 9.390625 19.363281 7.828125 20.589844 6.46875 C 17.96875 3.8125 15.332031 2.0625 13.230469 2.0625 C 12.769531 2.0625 12.339844 2.171875 11.988281 2.390625 C 10.5625 3.234375 10.058594 5.890625 10.65625 9.640625 C 10.808594 10.390625 10.945312 11.1875 11.144531 12 Z M 9.75 25.609375 C 10.273438 23.8125 11.007812 21.953125 11.851562 20.0625 C 11.007812 18.15625 10.316406 16.265625 9.75 14.46875 C 8.96875 14.6875 8.203125 14.9375 7.496094 15.234375 C 3.984375 16.546875 1.992188 18.34375 1.992188 20.015625 C 1.992188 22.03125 4.90625 24.171875 9.75 25.609375 Z M 13.230469 37.984375 C 15.363281 37.984375 18 36.1875 20.589844 33.578125 C 19.363281 32.1875 18.136719 30.640625 16.941406 28.9375 C 14.902344 28.75 12.984375 28.46875 11.144531 28.03125 C 10.945312 28.859375 10.761719 29.640625 10.65625 30.390625 C 10.058594 34.15625 10.5625 36.796875 11.988281 37.65625 C 12.339844 37.875 12.769531 37.984375 13.230469 37.984375 Z M 32.855469 28.03125 C 31.015625 28.4375 29.097656 28.75 27.058594 28.9375 C 25.863281 30.640625 24.636719 32.21875 23.410156 33.578125 C 26.03125 36.234375 28.667969 37.984375 30.769531 37.984375 C 31.230469 37.984375 31.660156 37.875 32.011719 37.65625 C 33.4375 36.796875 33.941406 34.15625 33.34375 30.390625 C 33.191406 29.640625 33.054688 28.859375 32.855469 28.03125 Z M 42.007812 20.015625 C 42.007812 18.015625 39.09375 15.875 34.25 14.4375 C 33.726562 16.234375 32.992188 18.09375 32.148438 19.984375 C 32.992188 21.875 33.699219 23.78125 34.25 25.5625 C 35.03125 25.359375 35.796875 25.109375 36.503906 24.8125 C 39.96875 23.5 42.007812 21.703125 42.007812 20.015625 Z M 42.007812 20.015625 "/>
</g>
</svg>
