<svg version="1.2" xmlns="http://www.w3.org/2000/svg" viewBox="0 0 285 256" width="285" height="256">
	<title>react-svg</title>
	<style>
		.s0 { fill: #61dafb;stroke: #ffffff;paint-order:stroke fill markers;stroke-linejoin: round;stroke-width: 4 } 
	</style>
	<g id="Layer">
		<path id="Layer" class="s0" d="m142.5 155c-14.3 0-25.8-11.6-25.8-25.9 0-14.2 11.5-25.8 25.8-25.8 14.3 0 25.8 11.6 25.8 25.8 0 14.3-11.5 25.9-25.8 25.9z"/>
		<path id="Layer" fill-rule="evenodd" class="s0" d="m284.1 129.1c0 16.8-15.4 31.7-43.7 42.6-4.9 2.1-10.1 3.6-15.6 5.2 1.4 5.5 2.5 10.9 3.4 16.1 4.8 29.7-0.4 50.8-14.9 59.1-4.3 2.5-9 3.7-14.5 3.7-15.8 0-35.9-11.8-56.3-31.5-20.1 19.7-40.3 31.5-56.3 31.5-5.5 0-10.2-1.2-14.5-3.7-14.5-8.1-19.7-29.2-14.9-59.1 0.9-5.2 2-10.6 3.4-16.1-5.5-1.6-10.7-3.4-15.6-5.2-28.1-10.9-43.7-25.8-43.7-42.6 0-16.7 15.4-31.7 43.7-42.6 4.9-2 10.1-3.6 15.6-5.2-1.4-5.4-2.5-10.8-3.4-16.1-4.8-29.6 0.4-50.7 14.9-59.1 4.3-2.5 9-3.6 14.5-3.6 15.8 0 35.9 11.8 56.3 31.5 20.4-19.7 40.5-31.5 56.3-31.5 5.5 0 10.2 1.1 14.5 3.6 14.5 8.2 19.7 29.2 14.9 59.1-0.9 5.3-2 10.7-3.4 16.1 5.5 1.6 10.7 3.4 15.6 5.2 28.3 10.9 43.7 25.9 43.7 42.6zm-85.1-113.7c-13.8 0-30.7 11.3-47.5 27.9 8 8.8 15.9 18.5 23.6 29.4 13.1 1.2 25.5 3 37.3 5.7 1.3-5.2 2.5-10.2 3.2-15 3.8-23.8 0.6-40.5-8.6-46-2.3-1.3-5-2-8-2zm-5.4 113.7c-3.6-7.4-7.7-15.1-12-22.6q-6.1-10.9-13.5-21.8c-8.2-0.7-16.6-0.9-25.4-0.9-8.6 0-16.9 0.2-25.3 0.9-5 7.3-9.7 14.5-13.8 21.8-4.3 7.5-8.4 15.2-12 22.6 3.6 7.5 7.7 15.2 12 22.7q6.1 10.9 13.6 21.7c8.1 0.7 16.5 0.9 25.3 0.9 8.6 0 17-0.2 25.3-0.9 5-7.2 9.8-14.5 13.8-21.7 4.3-7.7 8.2-15.2 12-22.7zm-0.9 29.3c-2.5 4.7-5.4 9.2-8.1 13.6 8.6-1.2 16.7-2.5 24.4-4.4-2.5-7.7-5.2-15.4-8.6-23.3-2.5 4.5-5 9.3-7.7 14.1zm-34.6 28.5c-5.2 0.2-10.4 0.5-15.6 0.5-5.2 0-10.4-0.3-15.6-0.5 5 6.6 10.2 12.9 15.6 18.8 5.4-5.9 10.6-12.2 15.6-18.8zm-65.8-29c-2.7-4.5-5.2-9.3-7.7-13.8-3.4 7.9-6.1 15.8-8.6 23.3 7.7 1.8 15.8 3.2 24.4 4.3-2.7-4.5-5.4-8.8-8.1-13.8zm0-58c2.5-4.7 5.4-9.3 8.1-13.6-8.6 1.1-16.7 2.5-24.4 4.3 2.5 7.7 5.2 15.4 8.6 23.4 2.5-4.6 5-9.3 7.7-14.1zm34.6-28.5c5.2-0.3 10.4-0.5 15.6-0.5 5.2 0 10.4 0.2 15.6 0.5-5-6.6-10.2-13-15.6-18.8-5.4 5.8-10.6 12.2-15.6 18.8zm73.5 42.8c3.4-7.9 6.1-15.9 8.6-23.4-7.7-1.8-15.8-3.1-24.4-4.3l8.1 13.6c2.7 4.6 5.2 9.3 7.7 14.1zm-127.8-35.8c11.8-2.5 24.2-4.5 37.3-5.7 7.7-10.9 15.6-20.8 23.6-29.4-17-16.8-34-27.9-47.5-27.9-3 0-5.7 0.7-8 2-9.2 5.5-12.4 22.2-8.6 46 0.9 4.8 1.8 9.8 3.2 15zm-9 86.1c3.4-11.4 8.1-23.1 13.5-35.1-5.4-12-9.9-24.1-13.5-35.4-5 1.4-10 3-14.5 4.8-22.6 8.4-35.5 19.7-35.5 30.3 0 12.7 18.7 26.3 50 35.4zm22.4 78.4c13.7 0 30.7-11.4 47.5-27.9-8-8.8-15.9-18.6-23.6-29.5-13.1-1.1-25.5-2.9-37.3-5.6-1.4 5.2-2.5 10.2-3.2 14.9-3.8 23.8-0.6 40.6 8.6 46 2.3 1.4 5 2.1 8 2.1zm126.4-63c-11.8 2.5-24.2 4.5-37.3 5.6-7.7 10.9-15.6 20.9-23.6 29.5 17 16.8 34 27.9 47.5 27.9 3 0 5.7-0.7 8-2.1 9.2-5.4 12.4-22.2 8.6-46-0.9-4.7-1.9-9.7-3.2-14.9zm59-50.8c0-12.7-18.7-26.2-50-35.3-3.4 11.3-8.1 23.1-13.5 35.1 5.4 12 9.9 24 13.5 35.3 5-1.3 10-2.9 14.5-4.7 22.4-8.4 35.5-19.7 35.5-30.4z"/>
	</g>
</svg>