<?xml version="1.0" encoding="UTF-8"?>
<svg width="719.59" height="719.59" version="1.1" viewBox="0 0 719.59 719.59" xml:space="preserve" xmlns="http://www.w3.org/2000/svg" xmlns:cc="http://creativecommons.org/ns#" xmlns:dc="http://purl.org/dc/elements/1.1/" xmlns:rdf="http://www.w3.org/1999/02/22-rdf-syntax-ns#"><metadata><rdf:RDF><cc:Work rdf:about=""><dc:format>image/svg+xml</dc:format><dc:type rdf:resource="http://purl.org/dc/dcmitype/StillImage"/><dc:title/></cc:Work></rdf:RDF></metadata>
<style type="text/css">
	.st0{fill:#75AADB;}
	.st1{fill:#4D4D4D;}
	.st2{fill:#FFFFFF;}
	.st3{fill:url(#SVGID_1_);}
	.st4{fill:url(#SVGID_2_);}
	.st5{fill:url(#SVGID_3_);}
	.st6{fill:url(#SVGID_4_);}
	.st7{fill:url(#SVGID_5_);}
	.st8{fill:url(#SVGID_6_);}
	.st9{fill:url(#SVGID_7_);}
	.st10{fill:url(#SVGID_8_);}
	.st11{fill:url(#SVGID_9_);}
	.st12{fill:url(#SVGID_10_);}
	.st13{opacity:0.18;fill:url(#SVGID_11_);}
	.st14{opacity:0.3;}
</style>


<circle class="st0" transform="rotate(-45)" cx="2.8422e-14" cy="508.83" r="309.8" stroke-width=".99999"/><g transform="translate(41.119 46.867)">
			<path class="st2" d="m424.7 411.8h33.6v26.1h-51.3l-85-127.4h-45.3v101.3h44.3v26.1h-111.5v-26.1h38.3v-224.5l-38.3-4.7v-24.7c14.5 3.3 27.1 5.6 42.9 5.6 23.8 0 48.1-5.6 71.9-5.6 46.2 0 89.1 21 89.1 72.3 0 39.7-23.8 64.9-60.7 75.6zm-148-126.5 24.3 0.5c59.3 0.9 82.1-21.9 82.1-52.3 0-35.5-25.7-49.5-58.3-49.5-15.4 0-31.3 1.4-48.1 3.3z"/>
		</g>


</svg>