<svg version="1.2" xmlns="http://www.w3.org/2000/svg" viewBox="0 0 256 256" width="256" height="256">
	<title>rstudio-svg</title>
	<style>
		.s0 { fill: #75aadb } 
		.s1 { fill: #ffffff } 
	</style>
	<path id="Layer" class="s0" d="m218.2 218.2c-49.7 49.7-130 49.7-179.7 0-49.7-49.7-49.7-130 0-179.7 49.7-49.7 130-49.7 179.7 0 49.7 49.7 49.7 130 0 179.7z"/>
	<g id="Layer">
		<path id="Layer" fill-rule="evenodd" class="s1" d="m171.8 168.9h13.8v10.7h-21l-34.9-52.3h-18.6v41.6h18.2v10.7h-45.8v-10.7h15.7v-92.1l-15.7-1.9v-10.2c6 1.4 11.2 2.3 17.6 2.3 9.8 0 19.8-2.3 29.5-2.3 19 0 36.6 8.6 36.6 29.7 0 16.3-9.8 26.6-24.9 31zm-60.7-51.9l9.9 0.2c24.4 0.4 33.7-9 33.7-21.4 0-14.6-10.5-20.4-23.9-20.4-6.3 0-12.8 0.6-19.7 1.4z"/>
	</g>
</svg>