<svg version="1.2" xmlns="http://www.w3.org/2000/svg" viewBox="0 0 256 256" width="256" height="256">
	<title>rstudio-svg</title>
	<style>
		.s0 { fill: #75aadb } 
		.s1 { fill: #ffffff } 
	</style>
	<path id="Layer" class="s0" d="m218.4 218.4c-49.9 50-130.6 50-180.6 0-49.9-49.9-49.9-130.6 0-180.6 50-49.9 130.7-49.9 180.6 0 50 50 50 130.7 0 180.6z"/>
	<g id="Layer">
		<path id="Layer" fill-rule="evenodd" class="s1" d="m171.8 168.9h13.9v10.7h-21.2l-35-52.5h-18.7v41.8h18.3v10.7h-46v-10.7h15.8v-92.6l-15.8-1.9v-10.2c6 1.4 11.2 2.3 17.7 2.3 9.8 0 19.8-2.3 29.6-2.3 19.1 0 36.8 8.7 36.8 29.8 0 16.4-9.8 26.8-25.1 31.2zm-61-52.2l10.1 0.2c24.4 0.4 33.8-9 33.8-21.5 0-14.7-10.6-20.4-24-20.4-6.4 0-12.9 0.6-19.9 1.3z"/>
	</g>
</svg>