<svg version="1.2" xmlns="http://www.w3.org/2000/svg" viewBox="0 0 257 256" width="257" height="256">
	<title>ruby-svg</title>
	<defs>
		<linearGradient id="g1" x2="1" gradientUnits="userSpaceOnUse" gradientTransform="matrix(-54.041,-95.412,166.675,-94.404,224.84,278.689)">
			<stop offset="0" stop-color="#fb7655"/>
			<stop offset=".41" stop-color="#e42b1e"/>
			<stop offset=".99" stop-color="#990000"/>
			<stop offset="1" stop-color="#990000"/>
		</linearGradient>
		<linearGradient id="g2" x2="1" gradientUnits="userSpaceOnUse" gradientTransform="matrix(-69.567,-46.684,48.996,-73.013,251.699,198.513)">
			<stop offset="0" stop-color="#871101"/>
			<stop offset=".99" stop-color="#911209"/>
			<stop offset="1" stop-color="#911209"/>
		</linearGradient>
		<linearGradient id="g3" x2="1" gradientUnits="userSpaceOnUse" gradientTransform="matrix(-69.645,-46.736,36.145,-53.863,196.077,281.581)">
			<stop offset="0" stop-color="#871101"/>
			<stop offset=".99" stop-color="#911209"/>
			<stop offset="1" stop-color="#911209"/>
		</linearGradient>
		<linearGradient id="g4" x2="1" gradientUnits="userSpaceOnUse" gradientTransform="matrix(10.797,70.168,-51.023,7.851,49.968,164.707)">
			<stop offset="0" stop-color="#ffffff"/>
			<stop offset=".23" stop-color="#e57252"/>
			<stop offset=".46" stop-color="#de3b20"/>
			<stop offset=".99" stop-color="#a60003"/>
			<stop offset="1" stop-color="#a60003"/>
		</linearGradient>
		<linearGradient id="g5" x2="1" gradientUnits="userSpaceOnUse" gradientTransform="matrix(3.978,71.611,-68.301,3.794,124.149,99.187)">
			<stop offset="0" stop-color="#ffffff"/>
			<stop offset=".23" stop-color="#e4714e"/>
			<stop offset=".56" stop-color="#be1a0d"/>
			<stop offset=".99" stop-color="#a80d00"/>
			<stop offset="1" stop-color="#a80d00"/>
		</linearGradient>
		<linearGradient id="g6" x2="1" gradientUnits="userSpaceOnUse" gradientTransform="matrix(11.909,51.323,-63.456,14.725,189.97,32.997)">
			<stop offset="0" stop-color="#ffffff"/>
			<stop offset=".18" stop-color="#e46342"/>
			<stop offset=".4" stop-color="#c82410"/>
			<stop offset=".99" stop-color="#a80d00"/>
			<stop offset="1" stop-color="#a80d00"/>
		</linearGradient>
		<linearGradient id="g7" x2="1" gradientUnits="userSpaceOnUse" gradientTransform="matrix(51.32,-25.66,13.816,27.632,153.623,14.922)">
			<stop offset="0" stop-color="#ffffff"/>
			<stop offset=".54" stop-color="#c81f11"/>
			<stop offset=".99" stop-color="#bf0905"/>
			<stop offset="1" stop-color="#bf0905"/>
		</linearGradient>
		<linearGradient id="g8" x2="1" gradientUnits="userSpaceOnUse" gradientTransform="matrix(4.224,42.289,-12.557,1.254,5.039,146.818)">
			<stop offset="0" stop-color="#ffffff"/>
			<stop offset=".31" stop-color="#de4024"/>
			<stop offset=".99" stop-color="#bf190b"/>
			<stop offset="1" stop-color="#bf190b"/>
		</linearGradient>
		<linearGradient id="g9" x2="1" gradientUnits="userSpaceOnUse" gradientTransform="matrix(198.556,-204.171,90.763,88.267,-24.077,200.539)">
			<stop offset="0" stop-color="#bd0012"/>
			<stop offset=".07" stop-color="#ffffff"/>
			<stop offset=".17" stop-color="#ffffff"/>
			<stop offset=".27" stop-color="#c82f1c"/>
			<stop offset=".33" stop-color="#820c01"/>
			<stop offset=".46" stop-color="#a31601"/>
			<stop offset=".72" stop-color="#b31301"/>
			<stop offset=".99" stop-color="#e82609"/>
			<stop offset="1" stop-color="#e82609"/>
		</linearGradient>
		<linearGradient id="g10" x2="1" gradientUnits="userSpaceOnUse" gradientTransform="matrix(-59.739,-14.744,13.948,-56.514,127.951,221.125)">
			<stop offset="0" stop-color="#8c0c01"/>
			<stop offset=".54" stop-color="#990c00"/>
			<stop offset=".99" stop-color="#a80d0e"/>
			<stop offset="1" stop-color="#a80d0e"/>
		</linearGradient>
		<linearGradient id="g11" x2="1" gradientUnits="userSpaceOnUse" gradientTransform="matrix(-53.07,-47.565,69.562,-77.612,230.559,149.325)">
			<stop offset="0" stop-color="#7e110b"/>
			<stop offset=".99" stop-color="#9e0c00"/>
			<stop offset="1" stop-color="#9e0c00"/>
		</linearGradient>
		<linearGradient id="g12" x2="1" gradientUnits="userSpaceOnUse" gradientTransform="matrix(-26.465,-28.293,16.342,-15.286,250.072,61.979)">
			<stop offset="0" stop-color="#79130d"/>
			<stop offset=".99" stop-color="#9e120b"/>
			<stop offset="1" stop-color="#9e120b"/>
		</linearGradient>
		<radialGradient id="g13" cx="0" cy="0" r="1" gradientUnits="userSpaceOnUse" gradientTransform="matrix(65.035,0,0,65.035,185.752,102.643)">
			<stop offset="0" stop-color="#a80d00"/>
			<stop offset=".99" stop-color="#7e0e08"/>
			<stop offset="1" stop-color="#7e0e08"/>
		</radialGradient>
		<radialGradient id="g14" cx="0" cy="0" r="1" gradientUnits="userSpaceOnUse" gradientTransform="matrix(86.455,0,0,86.455,95.687,188.446)">
			<stop offset="0" stop-color="#a30c00"/>
			<stop offset=".99" stop-color="#800e08"/>
			<stop offset="1" stop-color="#800e08"/>
		</radialGradient>
		<linearGradient id="g15" x2="1" gradientUnits="userSpaceOnUse" gradientTransform="matrix(-21.568,-73.172,28.807,-8.491,34.455,255.141)">
			<stop offset="0" stop-color="#8b2114"/>
			<stop offset=".43" stop-color="#9e100a"/>
			<stop offset=".99" stop-color="#b3100c"/>
			<stop offset="1" stop-color="#b3100c"/>
		</linearGradient>
		<linearGradient id="g16" x2="1" gradientUnits="userSpaceOnUse" gradientTransform="matrix(48.353,21.344,-10.654,24.137,199.685,12.668)">
			<stop offset="0" stop-color="#b31000"/>
			<stop offset=".44" stop-color="#910f08"/>
			<stop offset=".99" stop-color="#791c12"/>
			<stop offset="1" stop-color="#791c12"/>
		</linearGradient>
	</defs>
	<style>
		.s0 { fill: url(#g1) } 
		.s1 { fill: url(#g2) } 
		.s2 { fill: url(#g3) } 
		.s3 { fill: url(#g4) } 
		.s4 { fill: url(#g5) } 
		.s5 { fill: url(#g6) } 
		.s6 { fill: url(#g7) } 
		.s7 { fill: url(#g8) } 
		.s8 { fill: #ffffff } 
		.s9 { fill: url(#g9) } 
		.s10 { fill: url(#g10) } 
		.s11 { fill: url(#g11) } 
		.s12 { fill: url(#g12) } 
		.s13 { fill: #9e1209 } 
		.s14 { fill: url(#g13) } 
		.s15 { fill: url(#g14) } 
		.s16 { fill: url(#g15) } 
		.s17 { fill: url(#g16) } 
	</style>
	<path id="polygon3282" class="s0" d="m198.2 168.6l-146.1 86.9 189.2-12.9 14.6-190.9z"/>
	<path id="polygon3293" class="s1" d="m241.6 242.5l-16.2-112.4-44.3 58.6z"/>
	<path id="polygon3304" class="s2" d="m241.8 242.5l-119.1-9.4-69.9 22.1z"/>
	<path id="polygon3319" class="s3" d="m52.9 255.2l29.8-97.6-65.5 14.1z"/>
	<path id="polygon3334" class="s4" d="m181.1 189l-27.4-107.4-78.4 73.6z"/>
	<path id="polygon3349" class="s5" d="m249.7 83.1l-74.1-60.5-20.6 66.7z"/>
	<path id="polygon3362" class="s6" d="m215 1l-43.5 24.1-27.5-24.4z"/>
	<path id="polygon3375" class="s7" d="m0 204.4l18.2-33.3-14.7-39.7z"/>
	<path id="path3377" fill-rule="evenodd" class="s8" d="m2.5 130.1l14.9 42.2 64.5-14.5 73.7-68.5 20.8-66.2-32.8-23.1-55.6 20.9c-17.6 16.3-51.6 48.6-52.8 49.2-1.2 0.6-22.5 40.8-32.7 60z"/>
	<path id="path3400" fill-rule="evenodd" class="s9" d="m54.7 54.4c38-37.8 87-60.1 105.8-41.1 18.8 19-1.2 65.2-39.2 102.9-38 37.7-86.4 61.2-105.2 42.2-18.8-18.9 0.5-66.3 38.6-104z"/>
	<path id="path3413" fill-rule="evenodd" class="s10" d="m52.9 255.2l29.6-97.9 98 31.5c-35.4 33.3-74.9 61.4-127.6 66.4z"/>
	<path id="path3424" fill-rule="evenodd" class="s11" d="m155.7 89.1l25.2 99.8c29.6-31.2 56.2-64.7 69.2-106.2z"/>
	<path id="path3435" fill-rule="evenodd" class="s12" d="m249.8 83.3c10.1-30.5 12.4-74.1-35.1-82.3l-39 21.6z"/>
	<path id="path3437" fill-rule="evenodd" class="s13" d="m0 204c1.4 50.2 37.6 50.9 53 51.4l-35.6-83.3z"/>
	<path id="path3448" fill-rule="evenodd" class="s14" d="m155.8 89.2c22.8 14 68.7 42.1 69.6 42.7 1.4 0.8 19.8-31 23.9-48.9z"/>
	<path id="path3459" fill-rule="evenodd" class="s15" d="m82.4 157.3l39.5 76.2c23.3-12.6 41.6-28.1 58.3-44.6z"/>
	<path id="path3472" fill-rule="evenodd" class="s16" d="m17.2 172.2l-5.6 66.7c10.6 14.4 25.1 15.7 40.3 14.5-11-27.4-33-82.3-34.7-81.2z"/>
	<path id="path3485" fill-rule="evenodd" class="s17" d="m175.5 22.8l78.4 11c-4.2-17.8-17-29.2-38.9-32.8z"/>
</svg>