<svg version="1.2" xmlns="http://www.w3.org/2000/svg" viewBox="0 0 476 256" width="476" height="256">
	<title>scikitlearn-svg</title>
	<style>
		tspan { white-space:pre } 
		.s0 { fill: #f89939 } 
		.s1 { fill: #3499cd } 
		.s2 { fill: #010101;stroke: #ffffff;paint-order:stroke fill markers;stroke-linejoin: round;stroke-width: 2 } 
		.t3 { font-size: 23px;fill: #ffffff;font-family: "Helvetica" } 
	</style>
	<g id="g3">
		<path id="path5" class="s0" d="m364.6 216.9c57.8-57.8 67.4-141.9 21.5-187.9-46-45.9-130-36.3-187.8 21.5-57.8 57.8-41.1 168.2-21.5 187.9 15.9 15.8 130 36.3 187.8-21.5z"/>
		<path id="path7" class="s1" d="m127.5 133.4c-33.5-33.6-82.3-39.1-108.9-12.5-26.7 26.7-21.1 75.5 12.4 109 33.5 33.6 97.6 23.9 109 12.5 9.2-9.2 21-75.5-12.5-109z"/>
	</g>
	<g id="g9">
		<g id="g11">
			<path id="path13" fill-rule="evenodd" class="s2" d="m243.2 202.7q-8.9 8.2-15.6 12.1-6.7 3.9-12.8 3.9-7 0-11.3-5.4-4.2-5.5-4.2-14.6 0-13.7 5.9-33 6-19.2 14.5-35.4l16.6-6.1q0.7-0.3 1.1-0.3 1.9 0 3.1 2.8 1.2 2.8 1.2 7.5 0 13.3-6.1 25.8-6.1 12.5-19.2 26.7-0.5 6.7-0.5 9.3 0 5.7 2.1 9 2 3.4 5.5 3.4 3.5 0 7.5-2.6 4-2.5 12.2-10.6c0 0 0 7.5 0 7.5zm-25-25.5q8.3-9.3 13.4-20.7 5.2-11.5 5.2-19.7 0-2.4-0.7-3.9-0.8-1.5-1.9-1.5-2.4 0-7 12.1-4.6 12-9 33.7z"/>
			<path id="path15" fill-rule="evenodd" class="s2" d="m292.1 202.7q-8.3 8.2-14.9 12.1-6.6 3.9-14.6 3.9-8.9 0-14.4-5.7-5.4-5.7-5.4-15 0-13.8 9.6-25 9.6-11.3 21.3-11.3 6.1 0 9.7 3.2 3.7 3.1 3.7 8.2 0 13.6-28.8 22 2.7 12.7 13.7 12.7 4.3 0 8.2-2.3 4-2.3 11.9-10.3c0 0 0 7.5 0 7.5zm-34.3-12.1q16.7-4.7 16.7-17.3 0-6.3-4.5-6.3-4.3 0-8.3 6.5-3.9 6.6-3.9 17.1z"/>
			<path id="path17" fill-rule="evenodd" class="s2" d="m361.8 202.7q-10.4 10-14.9 13-4.5 3-8.6 3-10.4 0-9.8-18.3-6.5 9.4-12 13.8-5.6 4.5-11.4 4.5-5.8 0-9.8-5.4-4-5.4-4-13.2 0-9.8 5.4-18.7 5.4-8.9 13.8-14.4 8.4-5.5 14.9-5.5 8.2 0 11.4 7.5l13.4-7.4h3.6l-5.7 19.2q-4.5 14.4-4.5 19.8 0 5.6 4 5.6 2.6 0 5.6-2.7 3.1-2.7 8.6-8.3c0 0 0 7.5 0 7.5zm-47.8 3.6q6.5 0 12.3-11.1 5.8-11.2 5.8-20.6 0-3.6-1.6-5.7-1.7-2.1-4.4-2.1-6.5 0-12.4 11.2-5.8 11.1-5.8 20.4 0 3.5 1.7 5.7 1.7 2.2 4.4 2.2z"/>
			<path id="path19" class="s2" d="m410.7 202.7q-16.4 16.1-25.3 16.1-4 0-6.8-3.3-2.7-3.4-2.7-8.4 0-9.2 9.9-24.7-4.9 2.5-10.6 3.5-4.3 7.8-13.3 16.8h-1.5v-5.8q5-5.3 9.2-11.4-5.7-2.5-5.7-7.4 0-5 3.5-10.8 3.4-5.7 9.4-5.7 5.1 0 5.1 5.2 0 4.2-2.9 11.8 10.8-1.2 18.9-16.6l6-0.3-6.1 16.8q-3.8 10.6-4.9 14.4-1.1 3.8-1.1 6.8 0 2.7 1.3 4.3 1.2 1.7 3.4 1.7 2.3 0 4.5-1.6 2.1-1.6 9.7-8.9c0 0 0 7.5 0 7.5z"/>
			<path id="path21" class="s2" d="m474.8 202.7q-15.1 16-25.8 16-4.4 0-7.1-3.1-2.7-3.1-2.7-8.2 0-7 5.8-21.4 3-7.7 3-9.8 0-2.1-1.6-2.1-0.9 0-2.4 0.9-1.4 0.9-3.2 2.6-1.6 1.5-3.7 3.6-1.7 1.9-3.8 4.2l-3.6 4.3q-2.4 2.9-3 6.2-1 5.5-1.3 10.2-0.2 3.4-0.2 9.3l-14.5 3.4q-0.7-8.8-0.7-13.1 0-10.5 2.5-20 2.4-9.4 7.8-21.1l16-3.1q-5.1 13.5-6.6 21.3 10.7-12 17-16.6 6.3-4.6 11.2-4.6 3.3 0 5.5 2.5 2.2 2.5 2.2 6.3 0 6.3-5.6 20.7-3.8 9.8-3.8 12.8 0 3.9 3.2 3.9 4.8 0 15.4-12.6z"/>
		</g>
	</g>
	<text id="text25" style="transform: matrix(1.706,0,0,1.707,263.306,139.854)" >
		<tspan x="0" y="0" class="t3">scikit
</tspan>
	</text>
</svg>