<svg version="1.2" xmlns="http://www.w3.org/2000/svg" viewBox="0 0 269 256" width="269" height="256">
	<title>scipy-svg</title>
	<defs>
		<clipPath clipPathUnits="userSpaceOnUse" id="cp1">
			<path d="m127.93 255.73c-70.62 0-127.71-57.12-127.71-127.79 0-70.67 57.09-127.79 127.71-127.79 70.63 0 127.72 57.12 127.72 127.79 0 70.67-57.09 127.79-127.72 127.79z"/>
		</clipPath>
	</defs>
	<style>
		.s0 { fill: #0054a6 } 
		.s1 { fill: #ffffff } 
	</style>
	<path id="circle" class="s0" d="m127.9 0.2c-16.7 0-33.3 3.3-48.8 9.7-15.5 6.4-29.6 15.8-41.5 27.7-11.8 11.8-21.2 25.9-27.7 41.4-6.4 15.5-9.7 32.2-9.7 48.9q0 8 1 15.8 1 7.8 2.9 15.5 2 7.7 4.8 15.1 2.9 7.3 6.6 14.3c0.8 0.2 1.5 0.4 2.2 0.8 2.4 1.1 4.8 2.7 6.2 5.1 0.7 1.2 1.1 2.5 1.2 3.9 0 1.3-0.3 2.7-1.1 3.8 5.9 8.3 12.8 15.8 20.4 22.4 7.7 6.6 16.1 12.3 25.1 17 9 4.6 18.5 8.1 28.4 10.5 9.8 2.4 19.9 3.6 30 3.6 16.8 0 33.4-3.3 48.9-9.7 15.5-6.4 29.6-15.8 41.4-27.7 11.9-11.9 21.3-26 27.7-41.5 6.4-15.5 9.7-32.1 9.7-48.9 0-16.7-3.3-33.4-9.7-48.9-6.4-15.5-15.8-29.6-27.7-41.4-11.8-11.9-25.9-21.3-41.4-27.7-15.5-6.4-32.1-9.7-48.9-9.7z"/>
	<path id="tongue" fill-rule="evenodd" class="s0" d="m246 79.9l6.5-3 4.5-12.1 4.6 1.6-4 10.8 11 3.8-1.7 4.5-12.2-4.3-6.8 3.1"/>
	<g id="switch8080">
	</g>
	<g id="Clip-Path: snake" clip-path="url(#cp1)">
		<path id="snake" fill-rule="evenodd" class="s1" d="m175.4 144.7c-8.8-12-26.2-19-41.1-22.3-14.9-3.3-24-5.8-31.2-9.8-8.3-4.4-14.8-17.7-12.3-29.1 4-18 20.1-30.9 38.4-28.4 9.1 1.3 16.9 6.2 22 13l20.3 26.7c11.6 14.9 24.6 19.4 38.8 12.3l6.9-3.3c0.6-0.2 1.3-0.8 2.4-0.4 1.1 0.4 1.7 1.3 2.3 2.5 0.6 1.1 1.3 2.1 2.5 2.4 1.2 0.3 2.8 0.1 3.6-0.6 5.3-5 15.9-15.2 15.9-15.2 2.9-2.5 2.1-4.8 2.1-4.8l-4-9c0 0-1.1-2.2-4.8-1.7l-22.1 2c-1.3 0.2-2.5 1.1-3 2.4-0.2 0.7-0.3 1.5 0 2.3l0.7 2.5c0.2 0.5 0.2 1.1 0 1.7-0.3 0.6-0.8 1.1-1.4 1.4l-6.2 2.6c-7.2 2.4-14 1.4-19-4.7l-5.6-7.5-16.2-21.4c-7.6-10.2-19.2-17.5-32.8-19.4-27.4-3.8-52.7 15.1-56.7 42.3-2 13.7-0.1 25.3 10.2 37.1 10.4 11.9 30.5 16.4 47.9 20.4 1.9 0.4 7.1 1.7 10.2 2.9 2.9 1 9.5 3.4 14.9 7.8 6.4 6.6 9.8 15.9 8.4 25.7-2.5 16.6-18 28.3-34.8 25.9-8.4-1.1-15.5-5.6-20.2-11.8l-19.4-25.8c-3.9-5.2-9.9-9-16.9-10-7.1-1-13.9 1-19.2 5l-40.5 30.2c1.7 4.9 3.9 9.7 8.5 13.7l41.8-31.3c1.9-1.3 4.2-1.9 6.7-1.6 2.6 0.4 4.8 1.7 6.3 3.7l20.5 27.6c7.2 8.8 17.7 15.1 30 16.8 25.8 3.6 49.8-14.3 53.6-40 1.7-11.9-1.2-23.5-7.5-32.8z"/>
	</g>
</svg>