<?xml version="1.0" encoding="UTF-8"?>
<svg xmlns="http://www.w3.org/2000/svg" xmlns:xlink="http://www.w3.org/1999/xlink" width="px" height="40px" viewBox="0 0 38 39" version="1.1">
<g id="surface1">
<path style=" stroke:none;fill-rule:evenodd;fill:rgb(17.254902%,69.411767%,20.392157%);fill-opacity:1;" d="M 34.808594 -0.046875 C 34.902344 -0.0625 34.996094 -0.015625 35.039062 0.078125 C 35.085938 0.152344 35.085938 0.257812 35.027344 0.335938 L 25.167969 13.4375 C 25.089844 13.511719 24.980469 13.558594 24.871094 13.558594 C 24.761719 13.558594 24.667969 13.511719 24.589844 13.4375 L 21.117188 9.644531 C 21.023438 9.550781 20.898438 9.507812 20.777344 9.523438 C 20.667969 9.535156 20.558594 9.597656 20.480469 9.703125 L 18.378906 12.308594 C 18.300781 12.460938 18.332031 12.628906 18.421875 12.765625 L 24.699219 19.121094 C 24.777344 19.195312 24.886719 19.242188 24.996094 19.242188 C 25.105469 19.242188 25.199219 19.195312 25.277344 19.121094 L 37.59375 5.574219 C 37.671875 5.5 37.78125 5.46875 37.875 5.515625 C 37.984375 5.546875 38.046875 5.636719 38.046875 5.742188 L 38.046875 38.664062 C 38.0625 38.742188 38.03125 38.816406 37.96875 38.863281 C 37.921875 38.925781 37.84375 38.953125 37.765625 38.9375 L 0.234375 38.9375 C 0.15625 38.953125 0.078125 38.925781 0.03125 38.863281 C -0.03125 38.816406 -0.0625 38.742188 -0.046875 38.664062 L -0.046875 0.226562 C -0.0625 0.152344 -0.03125 0.078125 0.03125 0.03125 C 0.078125 -0.03125 0.15625 -0.0625 0.234375 -0.046875 Z M 25.105469 22.179688 C 23.40625 22.152344 21.773438 22.789062 20.574219 23.980469 C 19.390625 25.152344 18.734375 26.75 18.78125 28.414062 C 18.78125 32.265625 21.632812 34.71875 25.339844 34.71875 C 27.050781 34.75 28.734375 34.246094 30.136719 33.257812 C 30.261719 33.148438 30.289062 32.953125 30.183594 32.816406 L 29.152344 31.304688 C 29.046875 31.183594 28.84375 31.15625 28.703125 31.261719 C 27.816406 31.855469 26.753906 32.175781 25.679688 32.207031 C 23.6875 32.207031 22.425781 30.972656 22.207031 29.523438 C 22.207031 29.464844 22.253906 29.417969 22.316406 29.417969 L 30.929688 29.417969 C 31.117188 29.402344 31.257812 29.265625 31.273438 29.082031 L 31.273438 28.746094 C 31.273438 24.847656 28.765625 22.179688 25.105469 22.179688 Z M 16.617188 20.0625 C 14.871094 18.675781 12.691406 17.960938 10.449219 18.050781 C 6.570312 18.050781 4.171875 20.277344 4.171875 22.957031 C 4.171875 29.023438 13.644531 27.085938 13.644531 29.921875 C 13.644531 30.820312 12.738281 31.703125 10.792969 31.703125 C 8.953125 31.71875 7.179688 31.03125 5.824219 29.8125 C 5.746094 29.738281 5.636719 29.707031 5.527344 29.707031 C 5.417969 29.722656 5.328125 29.78125 5.265625 29.859375 L 3.785156 31.871094 C 3.675781 32.007812 3.707031 32.207031 3.832031 32.3125 C 5.371094 33.714844 7.539062 34.65625 10.558594 34.65625 C 15.011719 34.65625 17.179688 32.433594 17.300781 29.523438 C 17.300781 23.507812 7.832031 25.242188 7.832031 22.683594 C 7.832031 21.722656 8.691406 21.070312 10.167969 21.070312 C 11.804688 21.039062 13.394531 21.570312 14.671875 22.5625 C 14.75 22.621094 14.84375 22.652344 14.933594 22.636719 C 15.042969 22.636719 15.121094 22.59375 15.183594 22.515625 L 16.664062 20.566406 C 16.726562 20.488281 16.757812 20.398438 16.742188 20.292969 C 16.742188 20.199219 16.695312 20.125 16.617188 20.0625 Z M 25.167969 24.632812 C 26.722656 24.542969 28.0625 25.683594 28.1875 27.195312 C 28.1875 27.253906 28.140625 27.300781 28.078125 27.300781 L 22.253906 27.300781 C 22.191406 27.300781 22.144531 27.253906 22.144531 27.195312 C 22.332031 25.714844 23.640625 24.601562 25.167969 24.632812 Z M 25.167969 24.632812 "/>
</g>
</svg>
