<svg version="1.2" xmlns="http://www.w3.org/2000/svg" viewBox="0 0 245 256" width="245" height="256">
	<title>selenium-svg</title>
	<style>
		.s0 { fill: #2cb134 } 
	</style>
	<g id="Layer">
		<path id="Layer" fill-rule="evenodd" class="s0" d="m224.1 0c0.6 0 1.2 0.3 1.5 0.8 0.3 0.6 0.3 1.2 0 1.8l-63.5 86c-0.5 0.5-1.1 0.8-1.8 0.8-0.7 0-1.4-0.3-1.9-0.8l-22.3-24.9c-0.6-0.6-1.4-0.9-2.1-0.8-0.8 0.1-1.5 0.5-2 1.2l-13.5 17.2c-0.5 0.9-0.3 2.1 0.3 2.9l40.4 41.7c0.4 0.6 1.1 0.9 1.8 0.9 0.7 0 1.4-0.3 1.8-0.9l79.3-88.9c0.4-0.5 1.2-0.7 1.8-0.5 0.6 0.3 1.1 0.9 1.1 1.6v216.3c0 0.5-0.2 1-0.5 1.3-0.4 0.4-0.8 0.6-1.3 0.5h-241.4c-0.5 0.1-0.9-0.1-1.3-0.5-0.3-0.3-0.5-0.8-0.5-1.3v-252.6c0-0.5 0.2-0.9 0.5-1.3 0.4-0.3 0.8-0.5 1.3-0.5zm-62.3 146.1c-10.9-0.2-21.5 4-29.1 11.8-7.7 7.7-11.9 18.3-11.6 29.2 0 25.2 18.3 41.3 42.2 41.3 11 0.3 21.8-3 30.8-9.5 0.8-0.7 0.9-2 0.3-2.9l-6.6-9.9c-0.7-0.9-2-1-2.9-0.4-5.7 3.9-12.5 6.1-19.4 6.3-12.9 0-20.9-8.1-22.4-17.6 0-0.4 0.3-0.7 0.7-0.7h55.4c1.2-0.1 2.1-1.1 2.2-2.2v-2.2c0-25.7-16.1-43.2-39.6-43.2zm-54.7-13.9c-11.1-9.1-25.2-13.8-39.6-13.2-24.9 0-40.3 14.6-40.3 32.2 0 39.9 60.9 27.1 60.9 45.7 0 5.9-5.9 11.8-18.4 11.8-11.8 0.1-23.2-4.4-31.9-12.5-0.5-0.5-1.2-0.7-1.9-0.6-0.7 0-1.3 0.4-1.7 1l-9.6 13.2c-0.6 0.9-0.4 2.1 0.4 2.9 9.9 9.1 23.8 15.4 43.3 15.4 28.6 0 42.5-14.7 43.2-33.7 0-39.6-60.8-28.2-60.8-45 0-6.3 5.5-10.7 15-10.7 10.5-0.1 20.7 3.4 29 9.9 0.5 0.4 1.1 0.6 1.7 0.5 0.6 0 1.2-0.3 1.6-0.8l9.5-12.9c0.4-0.4 0.6-1.1 0.5-1.7 0-0.6-0.4-1.2-0.9-1.5zm55.1 30c9.9-0.6 18.5 6.9 19.4 16.8 0 0.4-0.3 0.7-0.7 0.7h-37.4c-0.4 0-0.8-0.3-0.8-0.7 1.2-9.7 9.6-17 19.5-16.8z"/>
	</g>
</svg>