<svg version="1.2" xmlns="http://www.w3.org/2000/svg" viewBox="0 0 244 256" width="244" height="256">
	<title>selenium-svg</title>
	<style>
		.s0 { fill: #2cb134 } 
	</style>
	<g id="Layer">
		<path id="Layer" fill-rule="evenodd" class="s0" d="m223.5-0.3c0.6-0.1 1.2 0.2 1.5 0.8 0.3 0.5 0.3 1.2-0.1 1.7l-63.3 86c-0.5 0.5-1.2 0.8-1.9 0.8-0.7 0-1.3-0.3-1.8-0.8l-22.3-24.9c-0.6-0.6-1.4-0.9-2.2-0.8-0.7 0.1-1.4 0.5-1.9 1.2l-13.5 17.1c-0.5 1-0.3 2.1 0.3 3l40.3 41.7c0.5 0.5 1.2 0.8 1.9 0.8 0.7 0 1.3-0.3 1.8-0.8l79.1-88.9c0.5-0.5 1.2-0.7 1.8-0.4 0.7 0.2 1.1 0.8 1.1 1.5v216.1c0.1 0.5-0.1 1-0.5 1.3-0.3 0.4-0.8 0.6-1.3 0.5h-241c-0.5 0.1-1-0.1-1.3-0.5-0.4-0.3-0.6-0.8-0.5-1.3v-252.3c-0.1-0.5 0.1-1 0.5-1.3 0.3-0.4 0.8-0.6 1.3-0.5zm-62.3 145.9c-10.9-0.2-21.4 4-29.1 11.8-7.6 7.7-11.8 18.2-11.5 29.1 0 25.3 18.3 41.4 42.1 41.4 11 0.2 21.8-3.1 30.8-9.6 0.8-0.7 1-2 0.3-2.9l-6.6-9.9c-0.7-0.8-2-1-2.9-0.3-5.7 3.9-12.5 6-19.4 6.2-12.8 0-20.9-8.1-22.3-17.6 0-0.4 0.3-0.7 0.7-0.7h55.3c1.2-0.1 2.1-1 2.2-2.2v-2.2c0-25.6-16.1-43.1-39.6-43.1zm-54.5-13.9c-11.2-9.1-25.2-13.8-39.6-13.2-24.9 0-40.3 14.6-40.3 32.2 0 39.8 60.8 27.1 60.8 45.7 0 5.9-5.8 11.7-18.3 11.7-11.8 0.1-23.2-4.4-31.9-12.4-0.5-0.5-1.2-0.7-1.9-0.7-0.7 0.1-1.3 0.5-1.7 1l-9.5 13.2c-0.7 0.9-0.5 2.2 0.3 2.9 9.9 9.2 23.8 15.4 43.2 15.4 28.6 0 42.5-14.6 43.3-33.7 0-39.5-60.8-28.1-60.8-44.9 0-6.3 5.5-10.6 15-10.6 10.5-0.2 20.7 3.3 28.9 9.8 0.5 0.4 1.1 0.6 1.7 0.5 0.7 0 1.2-0.3 1.6-0.8l9.5-12.8c0.4-0.5 0.6-1.1 0.5-1.8 0-0.6-0.3-1.1-0.8-1.5zm54.9 30c10-0.6 18.6 6.9 19.4 16.8 0 0.4-0.3 0.7-0.7 0.7h-37.4c-0.4 0-0.7-0.3-0.7-0.7 1.2-9.7 9.6-17 19.4-16.8z"/>
	</g>
</svg>