<?xml version="1.0" encoding="UTF-8"?>
<svg xmlns="http://www.w3.org/2000/svg" xmlns:xlink="http://www.w3.org/1999/xlink" width="px" height="40px" viewBox="0 0 77 40" version="1.1">
<g id="surface1">
<path style="fill-rule:evenodd;fill:rgb(88.627452%,35.294119%,10.980392%);fill-opacity:1;stroke-width:2;stroke-linecap:butt;stroke-linejoin:round;stroke:rgb(100%,100%,100%);stroke-opacity:1;stroke-miterlimit:4;" d="M 448.606991 129.1 C 448.206828 128.2 448.006747 127.7 447.806666 127.3 C 441.70419 115.6 435.601715 104 429.399198 92.3 C 428.698914 91.1 428.798955 90.5 429.69932 89.4 C 439.403257 78.1 449.007153 66.6 458.81113 55.3 C 459.111252 54.9 459.511414 54.5 459.611455 53.7 C 456.735288 54.425 453.909142 55.2 451.108005 56 C 439.303216 59.1 427.398387 62.2 415.793679 65.3 C 414.693233 65.6 414.19303 65.3 413.592786 64.4 C 406.990108 53.2 400.212358 42 393.509639 31 C 393.109476 30.4 392.809355 29.9 392.00903 29.4 C 391.458807 32.4 390.933594 35.375 390.408381 38.3 C 388.50761 48.8 386.706879 59.3 384.806108 69.8 C 384.606027 70.9 384.305905 72.1 384.205864 73.2 C 384.105824 74.3 383.605621 74.7 382.605215 75 C 368.724584 79.4 354.868963 83.8 340.988332 88.2 C 340.388088 88.3 339.787845 88.6 339.187601 89.2 C 350.492187 93.7 361.796774 98.2 373.301441 102.8 C 372.901278 103.1 372.601157 103.4 372.301035 103.6 C 365.223164 108.125 358.170302 112.7 351.092431 117.3 C 350.192066 117.9 349.591822 118 348.591416 117.5 C 340.087967 113.7 331.609527 110 323.106078 106.2 C 319.304535 104.5 315.903155 102.2 313.20206 99 C 307.199625 91.6 308.400112 83.2 316.403358 78 C 319.004414 76.3 322.005631 75.1 325.006849 74.1 C 338.612368 69.7 352.192877 65.4 365.798397 61.1 C 366.898843 60.8 367.399046 60.3 367.699168 59 C 369.499899 48.5 371.40067 37.9 373.301441 27.5 C 374.301847 21.9 374.80205 16.2 377.603186 11 C 378.603592 9 379.904119 7.1 381.404728 5.4 C 386.80692 -0.6 394.309963 -0.8 400.112317 4.9 C 401.988078 6.9 403.688768 9.1 405.089336 11.5 C 411.391893 21.7 417.594409 32.1 423.896966 42.5 C 424.59725 43.7 425.297534 44 426.598062 43.6 C 441.804231 39.5 457.0104 35.5 472.291599 31.5 C 475.392857 30.7 478.594156 30.4 481.795455 31 C 488.798295 32.3 491.899554 37.6 489.49858 44.4 C 488.398133 47.5 486.597403 50.1 484.49655 52.5 C 473.892248 65 463.187906 77.6 452.708655 90 C 451.808289 91 451.808289 91.8 452.408533 92.9 C 458.81113 104.9 464.988636 116.9 471.391234 129 C 472.991883 131.8 474.09233 134.8 474.19237 138.1 C 474.19237 145.6 468.690138 151.8 461.312145 152.9 C 457.11044 153.5 453.208858 152.6 449.307275 151.4 C 439.803419 148.4 430.299564 145.5 420.695668 142.7 C 419.795302 142.4 419.39514 142 419.295099 141.1 C 418.194653 134.4 416.994166 127.7 415.793679 120.9 C 415.793679 120.7 415.793679 120.6 415.89372 120.1 C 426.698103 123.1 437.602526 126.1 448.807072 129.2 " transform="matrix(0.156187,0,0,0.15625,0,0)"/>
<path style=" stroke:none;fill-rule:evenodd;fill:rgb(23.529412%,22.745098%,24.313726%);fill-opacity:1;" d="M 67.113281 35.546875 C 65.769531 35.546875 64.441406 35.53125 63.082031 35.546875 C 62.910156 35.546875 62.800781 35.484375 62.707031 35.34375 C 61.117188 32.921875 59.507812 30.484375 57.929688 28.078125 C 57.882812 28 57.835938 27.921875 57.742188 27.796875 C 57.398438 30.40625 57.070312 32.96875 56.726562 35.53125 L 53.210938 35.53125 C 53.242188 35.1875 53.289062 34.84375 53.335938 34.515625 C 53.664062 31.890625 54.023438 29.28125 54.367188 26.640625 C 54.691406 24.140625 55.019531 21.636719 55.351562 19.125 C 55.367188 19.046875 55.414062 18.953125 55.476562 18.90625 C 56.683594 18.125 57.898438 17.34375 59.117188 16.5625 C 59.132812 16.546875 59.164062 16.546875 59.226562 16.53125 C 58.851562 19.328125 58.492188 22.109375 58.117188 24.890625 C 58.136719 24.902344 58.152344 24.910156 58.164062 24.921875 C 60.070312 22.8125 61.976562 20.6875 63.925781 18.546875 C 63.972656 18.875 64.019531 19.15625 64.066406 19.421875 C 64.207031 20.21875 64.347656 21.015625 64.488281 21.8125 C 64.519531 21.984375 64.472656 22.078125 64.363281 22.1875 C 63.136719 23.480469 61.90625 24.777344 60.679688 26.078125 C 60.632812 26.140625 60.570312 26.1875 60.507812 26.265625 C 60.554688 26.328125 60.585938 26.375 60.632812 26.4375 C 62.746094 29.417969 64.859375 32.394531 66.972656 35.375 C 67.003906 35.421875 67.066406 35.46875 67.113281 35.515625 L 67.113281 35.5625 "/>
<path style=" stroke:none;fill-rule:evenodd;fill:rgb(23.529412%,22.745098%,24.313726%);fill-opacity:1;" d="M 16.257812 34.4375 C 16.148438 35.21875 16.054688 35.953125 15.960938 36.6875 C 15.820312 37.671875 15.695312 38.65625 15.570312 39.640625 C 15.554688 39.765625 15.523438 39.8125 15.398438 39.8125 C 14.433594 39.800781 13.464844 39.796875 12.496094 39.796875 C 12.480469 39.796875 12.464844 39.796875 12.402344 39.78125 C 12.464844 39.3125 12.519531 38.847656 12.574219 38.390625 C 12.792969 36.765625 13.011719 35.140625 13.230469 33.515625 C 13.464844 31.65625 13.667969 29.796875 13.980469 27.953125 C 14.539062 24.6875 17.320312 21.875 20.570312 21.171875 C 22.460938 20.75 24.253906 20.9375 25.910156 22.015625 C 27.550781 23.0625 28.488281 24.609375 28.707031 26.53125 C 29.019531 29.265625 28.019531 31.53125 26.082031 33.421875 C 24.800781 34.65625 23.273438 35.4375 21.539062 35.703125 C 19.726562 35.984375 18.007812 35.671875 16.492188 34.609375 C 16.429688 34.5625 16.367188 34.53125 16.273438 34.46875 M 25.550781 27.671875 C 25.503906 27.390625 25.457031 27 25.332031 26.609375 C 24.753906 24.796875 22.882812 23.8125 20.960938 24.25 C 18.835938 24.75 17.320312 26.40625 17.117188 28.578125 C 16.960938 30.1875 17.820312 31.734375 19.414062 32.296875 C 20.710938 32.765625 21.960938 32.5625 23.117188 31.875 C 24.628906 30.96875 25.457031 29.59375 25.566406 27.671875 Z M 25.550781 27.671875 "/>
<path style=" stroke:none;fill-rule:evenodd;fill:rgb(23.529412%,22.745098%,24.313726%);fill-opacity:1;" d="M 14.632812 18.9375 C 13.558594 19.75 12.511719 20.515625 11.464844 21.296875 C 11.292969 21.03125 11.136719 20.765625 10.964844 20.515625 C 10.511719 19.875 9.949219 19.40625 9.121094 19.34375 C 8.433594 19.296875 7.855469 19.53125 7.386719 20.03125 C 6.964844 20.484375 6.917969 21.125 7.308594 21.640625 C 7.730469 22.1875 8.199219 22.734375 8.683594 23.25 C 9.480469 24.109375 10.308594 24.9375 11.089844 25.796875 C 11.808594 26.59375 12.386719 27.46875 12.558594 28.5625 C 12.761719 29.84375 12.511719 31.046875 11.902344 32.171875 C 10.792969 34.25 9.027344 35.46875 6.699219 35.84375 C 5.667969 36.015625 4.640625 35.96875 3.640625 35.6875 C 2.3125 35.296875 1.390625 34.421875 0.796875 33.203125 C 0.578125 32.765625 0.421875 32.296875 0.234375 31.828125 C 1.390625 31.203125 2.53125 30.609375 3.671875 29.984375 C 3.71875 30.078125 3.734375 30.171875 3.78125 30.234375 C 3.96875 30.625 4.140625 31.046875 4.375 31.40625 C 5.089844 32.484375 6.261719 32.796875 7.417969 32.28125 C 7.730469 32.140625 8.011719 31.953125 8.261719 31.734375 C 9.027344 31.046875 9.167969 30.109375 8.605469 29.265625 C 8.277344 28.78125 7.886719 28.34375 7.480469 27.90625 C 6.542969 26.859375 5.574219 25.859375 4.65625 24.78125 C 4.03125 24.046875 3.59375 23.203125 3.46875 22.21875 C 3.3125 21.15625 3.53125 20.140625 4.078125 19.25 C 5.464844 17 7.480469 15.84375 10.136719 15.921875 C 11.652344 15.984375 12.871094 16.6875 13.792969 17.875 C 14.074219 18.21875 14.339844 18.578125 14.617188 18.953125 "/>
<path style=" stroke:none;fill-rule:evenodd;fill:rgb(23.529412%,22.745098%,24.313726%);fill-opacity:1;" d="M 40.3125 30.875 C 40.140625 32.21875 39.96875 33.5 39.796875 34.78125 C 39.78125 34.84375 39.734375 34.9375 39.671875 34.953125 C 37.046875 36.171875 33.597656 36 31.457031 33.5625 C 30.300781 32.25 29.816406 30.6875 29.894531 28.953125 C 30.066406 24.953125 33.394531 21.421875 37.375 20.9375 C 39.703125 20.65625 41.71875 21.28125 43.296875 23.09375 C 44.371094 24.3125 44.871094 25.796875 44.792969 27.421875 C 44.746094 28.484375 44.574219 29.5625 44.449219 30.609375 C 44.246094 32.125 44.042969 33.640625 43.855469 35.140625 C 43.839844 35.203125 43.824219 35.25 43.824219 35.3125 L 40.703125 35.3125 C 40.734375 34.96875 40.78125 34.625 40.8125 34.296875 C 41.046875 32.546875 41.296875 30.796875 41.5 29.046875 C 41.625 27.96875 41.546875 26.890625 41.046875 25.875 C 40.515625 24.8125 39.625 24.234375 38.453125 24.109375 C 36.046875 23.859375 33.734375 25.53125 33.253906 27.90625 C 32.910156 29.46875 33.441406 30.984375 34.6875 31.8125 C 35.90625 32.625 37.203125 32.625 38.53125 32.109375 C 39.203125 31.84375 39.78125 31.421875 40.328125 30.84375 "/>
<path style=" stroke:none;fill-rule:evenodd;fill:rgb(23.529412%,22.745098%,24.313726%);fill-opacity:1;" d="M 53.585938 21.34375 C 53.445312 22.4375 53.304688 23.5 53.164062 24.59375 C 52.496094 24.59375 51.855469 24.59375 51.199219 24.59375 C 50.667969 24.59375 50.199219 24.9375 50.042969 25.4375 C 49.980469 25.625 49.949219 25.828125 49.917969 26.03125 C 49.589844 28.546875 49.261719 31.03125 48.933594 33.515625 C 48.855469 34.140625 48.777344 34.765625 48.699219 35.40625 L 45.417969 35.40625 C 45.480469 34.9375 45.542969 34.46875 45.605469 34 C 45.808594 32.375 46.027344 30.75 46.246094 29.15625 C 46.433594 27.75 46.589844 26.34375 46.808594 24.953125 C 47.105469 23.078125 48.964844 21.40625 50.839844 21.328125 C 51.746094 21.296875 52.652344 21.328125 53.570312 21.328125 "/>
<path style=" stroke:none;fill-rule:nonzero;fill:rgb(23.529412%,22.745098%,24.313726%);fill-opacity:1;" d="M 71.050781 35.546875 L 71.050781 34.171875 L 70.503906 35.546875 L 70.332031 35.546875 L 69.800781 34.171875 L 69.785156 34.171875 L 69.785156 35.546875 L 69.519531 35.546875 L 69.519531 33.890625 L 69.941406 33.890625 L 70.425781 35.140625 L 70.910156 33.890625 L 71.332031 33.890625 L 71.332031 35.546875 Z M 68.644531 34.109375 L 68.644531 35.546875 L 68.378906 35.546875 L 68.378906 34.109375 L 67.863281 34.109375 L 67.863281 33.890625 L 69.175781 33.890625 L 69.175781 34.109375 C 69.175781 34.109375 68.660156 34.109375 68.644531 34.109375 Z M 68.644531 34.109375 "/>
<path style=" stroke:none;fill-rule:evenodd;fill:rgb(23.529412%,22.745098%,24.313726%);fill-opacity:1;" d="M 19.929688 17.421875 L 18.570312 17.421875 L 18.148438 18.25 L 17.195312 18.25 L 19.304688 14.3125 L 20.210938 14.3125 L 20.929688 18.25 L 20.054688 18.25 C 20.054688 18.25 19.929688 17.421875 19.929688 17.421875 Z M 18.992188 16.625 L 19.789062 16.625 L 19.601562 15.390625 Z M 18.992188 16.625 "/>
<path style=" stroke:none;fill-rule:evenodd;fill:rgb(23.529412%,22.745098%,24.313726%);fill-opacity:1;" d="M 23.585938 14.328125 L 24.832031 14.328125 C 25.503906 14.328125 25.957031 14.71875 25.957031 15.390625 C 25.957031 16.25 25.363281 16.8125 24.503906 16.8125 L 23.960938 16.8125 L 23.710938 18.265625 L 22.882812 18.265625 L 23.570312 14.328125 M 24.738281 15.125 L 24.253906 15.125 L 24.097656 16.03125 L 24.582031 16.03125 C 24.863281 16.03125 25.097656 15.84375 25.097656 15.484375 C 25.097656 15.25 24.957031 15.125 24.738281 15.125 Z M 24.738281 15.125 "/>
<path style=" stroke:none;fill-rule:evenodd;fill:rgb(23.529412%,22.745098%,24.313726%);fill-opacity:1;" d="M 29.691406 17.421875 L 28.332031 17.421875 L 27.910156 18.25 L 26.957031 18.25 L 29.066406 14.3125 L 29.972656 14.3125 L 30.691406 18.25 L 29.816406 18.25 C 29.816406 18.25 29.691406 17.421875 29.691406 17.421875 Z M 28.753906 16.625 L 29.566406 16.625 L 29.363281 15.390625 Z M 28.753906 16.625 "/>
<path style=" stroke:none;fill-rule:nonzero;fill:rgb(23.529412%,22.745098%,24.313726%);fill-opacity:1;" d="M 34.890625 18.125 C 34.625 18.25 34.3125 18.328125 34 18.328125 C 32.972656 18.328125 32.316406 17.546875 32.316406 16.5625 C 32.316406 15.3125 33.363281 14.265625 34.609375 14.265625 C 34.921875 14.265625 35.203125 14.34375 35.4375 14.46875 L 35.328125 15.40625 C 35.15625 15.21875 34.875 15.09375 34.53125 15.09375 C 33.8125 15.09375 33.175781 15.734375 33.175781 16.484375 C 33.175781 17.0625 33.535156 17.5 34.09375 17.5 C 34.453125 17.5 34.78125 17.375 35.015625 17.1875 C 35.015625 17.1875 34.90625 18.125 34.890625 18.125 Z M 34.890625 18.125 "/>
<path style=" stroke:none;fill-rule:nonzero;fill:rgb(23.529412%,22.745098%,24.313726%);fill-opacity:1;" d="M 40.0625 16.671875 L 38.359375 16.671875 L 38.078125 18.25 L 37.25 18.25 L 37.953125 14.3125 L 38.765625 14.3125 L 38.5 15.875 L 40.203125 15.875 L 40.484375 14.3125 L 41.3125 14.3125 L 40.609375 18.25 L 39.796875 18.25 C 39.796875 18.25 40.0625 16.671875 40.0625 16.671875 Z M 40.0625 16.671875 "/>
<path style=" stroke:none;fill-rule:nonzero;fill:rgb(23.529412%,22.745098%,24.313726%);fill-opacity:1;" d="M 43.015625 18.25 L 43.714844 14.3125 L 45.886719 14.3125 L 45.746094 15.109375 L 44.386719 15.109375 L 44.246094 15.859375 L 45.496094 15.859375 L 45.355469 16.65625 L 44.121094 16.65625 L 43.980469 17.453125 L 45.339844 17.453125 L 45.199219 18.234375 L 43.015625 18.234375 "/>
</g>
</svg>
