<svg version="1.2" xmlns="http://www.w3.org/2000/svg" viewBox="0 0 493 256" width="493" height="256">
	<title>spark-svg</title>
	<style>
		.s0 { fill: #e25a1c;stroke: #ffffff;paint-order:stroke fill markers;stroke-linejoin: round;stroke-width: 2 } 
		.s1 { fill: #3c3a3e } 
	</style>
	<g id="Layer">
		<path id="Layer" fill-rule="evenodd" class="s0" d="m448.6 129.1c-0.4-0.9-0.6-1.4-0.8-1.8-6.1-11.7-12.2-23.3-18.4-35-0.7-1.2-0.6-1.8 0.3-2.9 9.7-11.3 19.3-22.8 29.1-34.1 0.3-0.4 0.7-0.8 0.8-1.6q-4.3 1.1-8.5 2.3c-11.8 3.1-23.7 6.2-35.3 9.3-1.1 0.3-1.6 0-2.2-0.9-6.6-11.2-13.4-22.4-20.1-33.4-0.4-0.6-0.7-1.1-1.5-1.6q-0.8 4.5-1.6 8.9c-1.9 10.5-3.7 21-5.6 31.5-0.2 1.1-0.5 2.3-0.6 3.4-0.1 1.1-0.6 1.5-1.6 1.8q-20.8 6.6-41.6 13.2c-0.6 0.1-1.2 0.4-1.8 1 11.3 4.5 22.6 9 34.1 13.6-0.4 0.3-0.7 0.6-1 0.8q-10.6 6.8-21.2 13.7c-0.9 0.6-1.5 0.7-2.5 0.2-8.5-3.8-17-7.5-25.5-11.3-3.8-1.7-7.2-4-9.9-7.2-6-7.4-4.8-15.8 3.2-21 2.6-1.7 5.6-2.9 8.6-3.9 13.6-4.4 27.2-8.7 40.8-13 1.1-0.3 1.6-0.8 1.9-2.1 1.8-10.5 3.7-21.1 5.6-31.5 1-5.6 1.5-11.3 4.3-16.5 1-2 2.3-3.9 3.8-5.6 5.4-6 12.9-6.2 18.7-0.5 1.9 2 3.6 4.2 5 6.6 6.3 10.2 12.5 20.6 18.8 31 0.7 1.2 1.4 1.5 2.7 1.1 15.2-4.1 30.4-8.1 45.7-12.1 3.1-0.8 6.3-1.1 9.5-0.5 7 1.3 10.1 6.6 7.7 13.4-1.1 3.1-2.9 5.7-5 8.1-10.6 12.5-21.3 25.1-31.8 37.5-0.9 1-0.9 1.8-0.3 2.9 6.4 12 12.6 24 19 36.1 1.6 2.8 2.7 5.8 2.8 9.1 0 7.5-5.5 13.7-12.9 14.8-4.2 0.6-8.1-0.3-12-1.5-9.5-3-19-5.9-28.6-8.7-0.9-0.3-1.3-0.7-1.4-1.6-1.1-6.7-2.3-13.4-3.5-20.2 0-0.2 0-0.3 0.1-0.8 10.8 3 21.7 6 32.9 9.1"/>
		<path id="Layer" fill-rule="evenodd" class="s1" d="m429.7 227.5c-8.6 0-17.1-0.1-25.8 0-1.1 0-1.8-0.4-2.4-1.3-10.2-15.5-20.5-31.1-30.6-46.5-0.3-0.5-0.6-1-1.2-1.8-2.2 16.7-4.3 33.1-6.5 49.5h-22.5c0.2-2.2 0.5-4.4 0.8-6.5 2.1-16.8 4.4-33.5 6.6-50.4q3.1-24 6.3-48.1c0.1-0.5 0.4-1.1 0.8-1.4q11.6-7.5 23.3-15c0.1-0.1 0.3-0.1 0.7-0.2-2.4 17.9-4.7 35.7-7.1 53.5q0.2 0.1 0.3 0.2c12.2-13.5 24.4-27.1 36.9-40.8 0.3 2.1 0.6 3.9 0.9 5.6 0.9 5.1 1.8 10.2 2.7 15.3 0.2 1.1-0.1 1.7-0.8 2.4q-11.8 12.4-23.6 24.9c-0.3 0.4-0.7 0.7-1.1 1.2 0.3 0.4 0.5 0.7 0.8 1.1q20.3 28.6 40.6 57.2c0.2 0.3 0.6 0.6 0.9 0.9v0.3"/>
		<path id="Layer" fill-rule="evenodd" class="s1" d="m104.1 220.4c-0.7 5-1.3 9.7-1.9 14.4-0.9 6.3-1.7 12.6-2.5 18.9-0.1 0.8-0.3 1.1-1.1 1.1q-9.3-0.1-18.6-0.1c-0.1 0-0.2 0-0.6-0.1q0.6-4.5 1.1-8.9 2.1-15.6 4.2-31.2c1.5-11.9 2.8-23.8 4.8-35.6 3.6-20.9 21.4-38.9 42.2-43.4 12.1-2.7 23.6-1.5 34.2 5.4 10.5 6.7 16.5 16.6 17.9 28.9 2 17.5-4.4 32-16.8 44.1-8.2 7.9-18 12.9-29.1 14.6-11.6 1.8-22.6-0.2-32.3-7-0.4-0.3-0.8-0.5-1.4-0.9m59.4-43.5c-0.3-1.8-0.6-4.3-1.4-6.8-3.7-11.6-15.7-17.9-28-15.1-13.6 3.2-23.3 13.8-24.6 27.7-1 10.3 4.5 20.2 14.7 23.8 8.3 3 16.3 1.7 23.7-2.7 9.7-5.8 15-14.6 15.7-26.9z"/>
		<path id="Layer" fill-rule="evenodd" class="s1" d="m93.7 121.2c-6.9 5.2-13.6 10.1-20.3 15.1-1.1-1.7-2.1-3.4-3.2-5-2.9-4.1-6.5-7.1-11.8-7.5-4.4-0.3-8.1 1.2-11.1 4.4-2.7 2.9-3 7-0.5 10.3 2.7 3.5 5.7 7 8.8 10.3 5.1 5.5 10.4 10.8 15.4 16.3 4.6 5.1 8.3 10.7 9.4 17.7 1.3 8.2-0.3 15.9-4.2 23.1-7.1 13.3-18.4 21.1-33.3 23.5-6.6 1.1-13.2 0.8-19.6-1-8.5-2.5-14.4-8.1-18.2-15.9-1.4-2.8-2.4-5.8-3.6-8.8 7.4-4 14.7-7.8 22-11.8 0.3 0.6 0.4 1.2 0.7 1.6 1.2 2.5 2.3 5.2 3.8 7.5 4.6 6.9 12.1 8.9 19.5 5.6 2-0.9 3.8-2.1 5.4-3.5 4.9-4.4 5.8-10.4 2.2-15.8-2.1-3.1-4.6-5.9-7.2-8.7-6-6.7-12.2-13.1-18.1-20-4-4.7-6.8-10.1-7.6-16.4-1-6.8 0.4-13.3 3.9-19 8.9-14.4 21.8-21.8 38.8-21.3 9.7 0.4 17.5 4.9 23.4 12.5 1.8 2.2 3.5 4.5 5.3 6.9"/>
		<path id="Layer" fill-rule="evenodd" class="s1" d="m258.1 197.6c-1.1 8.6-2.2 16.8-3.3 25-0.1 0.4-0.4 1-0.8 1.1-16.8 7.8-38.9 6.7-52.6-8.9-7.4-8.4-10.5-18.4-10-29.5 1.1-25.6 22.4-48.2 47.9-51.3 14.9-1.8 27.8 2.2 37.9 13.8 6.9 7.8 10.1 17.3 9.6 27.7-0.3 6.8-1.4 13.7-2.2 20.4-1.3 9.7-2.6 19.4-3.8 29-0.1 0.4-0.2 0.7-0.2 1.1h-20c0.2-2.2 0.5-4.4 0.7-6.5 1.5-11.2 3.1-22.4 4.4-33.6 0.8-6.9 0.3-13.8-2.9-20.3-3.4-6.8-9.1-10.5-16.6-11.3-15.4-1.6-30.2 9.1-33.3 24.3-2.2 10 1.2 19.7 9.2 25 7.8 5.2 16.1 5.2 24.6 1.9 4.3-1.7 8-4.4 11.5-8.1"/>
		<path id="Layer" fill-rule="evenodd" class="s1" d="m343.1 136.6c-0.9 7-1.8 13.8-2.7 20.8-4.3 0-8.4 0-12.6 0-3.4 0-6.4 2.2-7.4 5.4-0.4 1.2-0.6 2.5-0.8 3.8-2.1 16.1-4.2 32-6.3 47.9-0.5 4-1 8-1.5 12.1h-21c0.4-3 0.8-6 1.2-9 1.3-10.4 2.7-20.8 4.1-31 1.2-9 2.2-18 3.6-26.9 1.9-12 13.8-22.7 25.8-23.2 5.8-0.2 11.6 0 17.5 0"/>
		<path id="Layer" class="s1" d="m454.9 227.5v-8.8l-3.5 8.8h-1.1l-3.4-8.8h-0.1v8.8h-1.7v-10.6h2.7l3.1 8 3.1-8h2.7v10.6zm-15.4-9.2v9.2h-1.7v-9.2h-3.3v-1.4h8.4v1.4c0 0-3.3 0-3.4 0z"/>
		<path id="Layer" fill-rule="evenodd" class="s1" d="m127.6 111.5h-8.7l-2.7 5.3h-6.1l13.5-25.2h5.8l4.6 25.2h-5.6c0 0-0.8-5.3-0.8-5.3zm-6-5.1h5.1l-1.2-7.9z"/>
		<path id="Layer" fill-rule="evenodd" class="s1" d="m151 91.7h8c4.3 0 7.2 2.5 7.2 6.8 0 5.5-3.8 9.1-9.3 9.1h-3.5l-1.6 9.3h-5.3l4.4-25.2m7.5 5.1h-3.1l-1 5.8h3.1c1.8 0 3.3-1.2 3.3-3.5 0-1.5-0.9-2.3-2.3-2.3z"/>
		<path id="Layer" fill-rule="evenodd" class="s1" d="m190.1 111.5h-8.7l-2.7 5.3h-6.1l13.5-25.2h5.8l4.6 25.2h-5.6c0 0-0.8-5.3-0.8-5.3zm-6-5.1h5.2l-1.3-7.9z"/>
		<path id="Layer" class="s1" d="m223.4 116c-1.7 0.8-3.7 1.3-5.7 1.3-6.6 0-10.8-5-10.8-11.3 0-8 6.7-14.7 14.7-14.7 2 0 3.8 0.5 5.3 1.3l-0.7 6c-1.1-1.2-2.9-2-5.1-2-4.6 0-8.7 4.1-8.7 8.9 0 3.7 2.3 6.5 5.9 6.5 2.3 0 4.4-0.8 5.9-2 0 0-0.7 6-0.8 6z"/>
		<path id="Layer" class="s1" d="m256.5 106.7h-10.9l-1.8 10.1h-5.3l4.5-25.2h5.2l-1.7 10h10.9l1.8-10h5.3l-4.5 25.2h-5.2c0 0 1.7-10.1 1.7-10.1z"/>
		<path id="Layer" class="s1" d="m275.4 116.8l4.5-25.2h13.9l-0.9 5.1h-8.7l-0.9 4.8h8l-0.9 5.1h-7.9l-0.9 5.1h8.7l-0.9 5h-14"/>
	</g>
</svg>