<svg version="1.2" xmlns="http://www.w3.org/2000/svg" viewBox="0 0 488 256" width="488" height="256">
	<title>spark-svg</title>
	<style>
		.s0 { fill: #e25a1c;stroke: #ffffff;paint-order:stroke fill markers;stroke-linejoin: round;stroke-width: 6 } 
		.s1 { fill: #3c3a3e;stroke: #ffffff;paint-order:stroke fill markers;stroke-linejoin: round;stroke-width: 6 } 
	</style>
	<g id="Layer">
		<path id="Layer" fill-rule="evenodd" class="s0" d="m443.7 129.1c-0.4-0.9-0.6-1.4-0.9-1.8-5.9-11.6-12-23-18.1-34.5-0.6-1.2-0.5-1.8 0.3-2.8 9.6-11.2 19.1-22.5 28.7-33.6 0.4-0.4 0.7-0.9 0.8-1.6q-4.2 1.1-8.4 2.1c-11.6 3.2-23.3 6.2-34.7 9.4-1.1 0.3-1.6 0-2.2-1-6.5-11-13.2-22-19.9-32.9-0.3-0.5-0.7-1.1-1.3-1.6q-0.8 4.4-1.7 8.8c-1.8 10.4-3.6 20.7-5.5 31.1-0.2 1-0.5 2.2-0.6 3.3-0.1 1.1-0.6 1.5-1.5 1.8q-20.5 6.4-41 12.9c-0.6 0.2-1.2 0.5-1.9 1.1 11.2 4.4 22.4 8.8 33.7 13.3-0.5 0.4-0.6 0.6-0.9 0.8q-10.5 6.8-21 13.6c-0.9 0.5-1.6 0.6-2.5 0.2-8.3-3.8-16.7-7.4-25.2-11.2-3.7-1.6-7-3.9-9.7-7.1-5.9-7.3-4.8-15.5 3.2-20.7 2.5-1.7 5.6-2.8 8.4-3.8 13.4-4.3 26.9-8.5 40.3-12.8 1.1-0.3 1.6-0.8 1.9-2.1 1.7-10.3 3.6-20.8 5.4-31 1-5.6 1.6-11.3 4.3-16.3 1-2 2.2-3.9 3.7-5.5 5.4-5.9 12.8-6.1 18.5-0.5 1.9 1.9 3.5 4.1 4.9 6.4 6.3 10.1 12.3 20.3 18.5 30.6 0.7 1.2 1.4 1.5 2.7 1.1 15-4 30-7.9 45-12 3.1-0.7 6.2-1 9.5-0.4 6.8 1.2 9.9 6.5 7.5 13.2-1.1 3-2.8 5.6-4.9 8-10.5 12.4-21 24.7-31.4 37-0.8 0.9-0.8 1.7-0.3 2.8 6.3 11.9 12.5 23.6 18.8 35.6 1.5 2.8 2.6 5.8 2.7 9 0 7.3-5.4 13.4-12.7 14.5-4.1 0.6-8-0.3-11.8-1.5-9.4-2.8-18.8-5.8-28.2-8.6-0.9-0.2-1.3-0.6-1.4-1.5-1.1-6.6-2.2-13.2-3.4-19.9 0-0.2 0-0.4 0-0.7 10.8 2.9 21.4 5.8 32.4 8.9"/>
		<path id="Layer" fill-rule="evenodd" class="s1" d="m93.9 121.2c-6.9 5.1-13.5 10-20 15-1.1-1.6-2.1-3.4-3.2-5-2.8-4-6.4-6.9-11.6-7.3-4.3-0.3-8.1 1.2-10.9 4.3-2.7 2.8-3 6.9-0.6 10.1 2.8 3.5 5.7 6.9 8.7 10.2 5 5.4 10.2 10.7 15.2 16.2 4.5 4.9 8.2 10.4 9.2 17.3 1.4 8-0.2 15.7-4 22.8-7 13.2-18.2 20.8-32.9 23.2-6.5 0.9-13 0.7-19.3-1.1-8.4-2.5-14.2-8-18-15.7-1.3-2.7-2.3-5.6-3.5-8.5 7.4-3.9 14.5-7.9 21.7-11.7 0.3 0.6 0.5 1.1 0.7 1.6 1.2 2.4 2.2 5.1 3.8 7.3 4.5 6.8 11.8 8.9 19.2 5.5 1.9-0.9 3.7-2 5.3-3.4 4.8-4.3 5.7-10.2 2.1-15.6-2-3-4.6-5.8-7-8.5-5.9-6.6-12.1-13-17.9-19.7-4-4.6-6.6-10-7.5-16.2-1-6.7 0.4-13.1 3.9-18.8 8.7-14.1 21.4-21.4 38.1-20.9 9.6 0.3 17.3 4.8 23.2 12.3 1.7 2.1 3.4 4.5 5.2 6.8"/>
		<path id="Layer" fill-rule="evenodd" class="s1" d="m104.2 219c-0.7 5-1.3 9.6-2 14.3-0.8 6.1-1.6 12.4-2.4 18.6-0.1 0.8-0.3 1-1 1q-9.2 0-18.4 0c-0.2 0-0.3 0-0.6-0.1q0.5-4.5 1.1-8.9 2-15.3 4-30.6c1.6-11.8 2.9-23.5 4.8-35.1 3.6-20.7 21.2-38.3 41.7-42.9 11.9-2.5 23.2-1.3 33.6 5.3 10.4 6.7 16.4 16.5 17.7 28.7 2 17.1-4.4 31.4-16.6 43.4-8 7.7-17.7 12.7-28.7 14.4-11.4 1.6-22.2-0.2-31.8-7-0.4-0.2-0.8-0.5-1.3-0.8m58.5-42.9c-0.3-1.8-0.6-4.3-1.3-6.7-3.7-11.4-15.5-17.7-27.7-14.8-13.4 3-23 13.6-24.2 27.2-1 10.1 4.5 19.9 14.4 23.5 8.2 2.9 16.1 1.7 23.4-2.7 9.6-5.7 14.9-14.3 15.5-26.5z"/>
		<path id="Layer" fill-rule="evenodd" class="s1" d="m256 196.6c-1.2 8.4-2.3 16.6-3.4 24.6 0 0.5-0.4 1-0.7 1.2-16.6 7.6-38.3 6.5-51.8-8.8-7.4-8.4-10.4-18.3-9.9-29.1 1.1-25.3 22-47.5 47.1-50.6 14.7-1.8 27.6 2.1 37.5 13.6 6.7 7.7 9.9 17.1 9.4 27.2-0.3 6.9-1.4 13.6-2.2 20.2-1.2 9.6-2.5 19.1-3.7 28.6-0.1 0.3-0.2 0.7-0.2 1.1h-19.8c0.3-2.1 0.6-4.3 0.8-6.4 1.5-11 3-22.1 4.3-33.1 0.8-6.8 0.3-13.7-2.8-20.1-3.4-6.7-9-10.2-16.4-11-15.2-1.7-29.8 8.9-32.8 23.9-2.2 9.9 1.1 19.4 9.1 24.7 7.6 5.1 15.8 5.1 24.2 1.7 4.2-1.6 7.8-4.3 11.3-7.9"/>
		<path id="Layer" fill-rule="evenodd" class="s1" d="m339.7 136.5c-0.8 6.9-1.8 13.6-2.7 20.5-4.1 0-8.2-0.1-12.3 0-3.4 0-6.4 2.2-7.4 5.3-0.4 1.2-0.6 2.4-0.7 3.7-2.1 15.9-4.2 31.6-6.3 47.3-0.4 3.9-0.9 7.9-1.4 11.9h-20.7c0.4-3 0.7-6 1.1-8.9 1.3-10.2 2.7-20.5 4.1-30.6 1.1-8.8 2.1-17.6 3.5-26.5 1.9-11.8 13.6-22.4 25.5-22.8 5.7-0.3 11.4-0.1 17.2-0.1"/>
		<path id="Layer" fill-rule="evenodd" class="s1" d="m425.1 226c-8.5 0-17 0-25.5 0-1.1 0-1.7-0.3-2.3-1.3-10-15.3-20.2-30.6-30.1-45.7-0.4-0.5-0.7-1-1.3-1.8-2.1 16.5-4.3 32.6-6.4 48.7h-22.2c0.3-2.2 0.5-4.2 0.8-6.3 2.1-16.6 4.3-33.1 6.5-49.7 2.1-15.8 4.2-31.6 6.2-47.5 0.1-0.4 0.4-1.1 0.8-1.3q11.5-7.4 23-14.9c0.1 0 0.2 0 0.6-0.2-2.2 17.8-4.6 35.3-6.8 52.9q0.1 0.1 0.2 0.2c12-13.4 24.1-26.8 36.3-40.2 0.4 1.9 0.7 3.7 1 5.5 0.9 5 1.7 10.1 2.5 15.1 0.2 0.9 0 1.6-0.6 2.3q-11.7 12.2-23.4 24.5c-0.3 0.4-0.7 0.8-1 1.2 0.2 0.4 0.4 0.8 0.7 1.1q20 28.2 40 56.3c0.3 0.4 0.6 0.6 0.9 1v0.3"/>
		<path id="Layer" class="s1" d="m449.9 226v-8.6l-3.4 8.6h-1.1l-3.4-8.6v8.6h-1.8v-10.4h2.6l3.2 7.9 3-7.9h2.7v10.4zm-15.1-9v9h-1.8v-9h-3.2v-1.4h8.2v1.4z"/>
		<path id="Layer" fill-rule="evenodd" class="s1" d="m127.3 111.7h-8.5l-2.7 5.3h-6.1l13.4-24.9h5.7l4.6 24.9h-5.6zm-6-5h5.2l-1.3-7.7z"/>
		<path id="Layer" fill-rule="evenodd" class="s1" d="m150.3 92.2h7.9c4.3 0 7.1 2.5 7.1 6.8 0 5.4-3.7 8.9-9.1 8.9h-3.4l-1.7 9.1h-5.2zm7.4 5h-3.1l-1 5.7h3.1c1.7 0 3.2-1.2 3.2-3.4 0-1.5-0.9-2.3-2.2-2.3z"/>
		<path id="Layer" fill-rule="evenodd" class="s1" d="m188.8 111.7h-8.4l-2.7 5.3h-6l13.2-24.9h5.8l4.5 24.9h-5.5zm-5.9-5h5.1l-1.2-7.7z"/>
		<path id="Layer" class="s1" d="m221.8 116.1c-1.8 0.8-3.7 1.3-5.6 1.3-6.6 0-10.7-4.9-10.7-11.1 0-7.8 6.6-14.5 14.5-14.5 1.9 0 3.7 0.5 5.2 1.3l-0.7 6c-1.1-1.3-2.8-2.1-5.1-2.1-4.5 0-8.5 4.1-8.5 8.9 0 3.6 2.2 6.3 5.9 6.3 2.1 0 4.3-0.8 5.6-1.9z"/>
		<path id="Layer" class="s1" d="m254.4 107h-10.8l-1.8 10h-5.2l4.5-24.9h5.2l-1.8 9.8h10.8l1.7-9.8h5.2l-4.4 24.9h-5.2z"/>
		<path id="Layer" class="s1" d="m273 116.9l4.3-24.8h13.8l-0.8 5h-8.7l-0.8 4.8h7.9l-0.9 5h-7.8l-0.9 5h8.5l-0.9 5z"/>
	</g>
</svg>