<svg version="1.2" xmlns="http://www.w3.org/2000/svg" viewBox="0 0 228 256" width="228" height="256">
	<title>sqlite-svg</title>
	<defs>
		<linearGradient id="g1" x2="1" gradientUnits="userSpaceOnUse" gradientTransform="matrix(0,163.665,-155.132,0,102.548,20.662)">
			<stop offset="0" stop-color="#97d9f6"/>
			<stop offset=".92" stop-color="#0f80cc"/>
			<stop offset="1" stop-color="#0f80cc"/>
		</linearGradient>
	</defs>
	<style>
		.s0 { fill: #0f80cc } 
		.s1 { fill: url(#g1) } 
		.s2 { fill: #003b57 } 
	</style>
	<path id="Layer" class="s0" d="m179.4 11.3h-159.9c-10.7 0-19.4 8.8-19.4 19.5v176.1c0 10.7 8.8 19.4 19.4 19.4h105.4c-1.2-52.3 16.7-153.9 54.5-215z"/>
	<path id="Layer" class="s1" d="m173.6 17h-154.1c-7.6 0-13.8 6.3-13.8 13.8v163.4c34.9-13.4 87.3-25 123.5-24.4q4.2-19.5 9.1-38.8 4.9-19.3 10.4-38.4 5.6-19.1 11.8-38 6.2-18.9 13.1-37.6z"/>
	<path id="Layer" class="s2" d="m216.7 5.6c-10.9-9.7-24.2-5.8-37.3 5.7l-5.8 5.7c-22.4 23.7-42.8 67.7-49.6 101.3q0.9 2 1.7 4 0.8 2 1.5 4.1 0.8 2.1 1.4 4.2 0.6 2.1 1.1 4.2l0.9 3.9 0.8 4c0 0-0.2-0.8-1-3.2l-0.5-1.5q-0.1-0.1-0.1-0.2 0-0.1-0.1-0.2 0-0.1-0.1-0.3 0-0.1-0.1-0.2c-1.4-3.3-5.4-10.5-7.2-13.6q-0.6 1.5-1.1 3.1-0.5 1.5-1 3.1-0.5 1.5-1 3.1-0.5 1.6-0.9 3.1c5.1 9.4 8.2 25.5 8.2 25.5 0 0-0.3-1-1.6-4.6-1.1-3.3-6.8-13.3-8.1-15.6-2.4 8.6-3.2 14.3-2.4 15.7 1.5 2.7 3.1 7.8 4.4 12.6q0.8 3.2 1.5 6.4 0.8 3.2 1.4 6.5 0.6 3.2 1.2 6.4 0.6 3.3 1.1 6.6l0.2 2.4q-0.2 3.6-0.2 7.2-0.1 3.7 0 7.3 0.1 3.7 0.3 7.3 0.1 3.7 0.4 7.3c1.1 12.1 3 22.6 5.4 28.2l1.6-0.9c-3.5-11-5-25.4-4.3-42.1 0.9-25.4 6.8-56.1 17.6-88.1 18.4-48.7 43.7-87.4 67-105.9-21.2 19.1-49.9 80.9-58.4 103.8-9.6 25.6-16.4 49.7-20.5 72.8 7-21.6 29.9-31 29.9-31 0 0 11.3-13.8 24.3-33.6l-25 6.7-8.1 3.6c0 0 20.6-12.5 38.3-18.3 24.4-38.3 51-92.8 24.2-116.5z"/>
</svg>