<svg version="1.2" xmlns="http://www.w3.org/2000/svg" viewBox="0 0 230 256" width="230" height="256">
	<title>sqlite-svg</title>
	<defs>
		<linearGradient id="g1" x2="1" gradientUnits="userSpaceOnUse" gradientTransform="matrix(0,163.686,-155.226,0,104.541,20.587)">
			<stop offset="0" stop-color="#97d9f6"/>
			<stop offset=".92" stop-color="#0f80cc"/>
			<stop offset="1" stop-color="#0f80cc"/>
		</linearGradient>
	</defs>
	<style>
		.s0 { fill: #0f80cc } 
		.s1 { fill: url(#g1) } 
		.s2 { fill: #003b57 } 
	</style>
	<path id="Layer" class="s0" d="m181.4 11.3h-159.9c-10.8 0-19.5 8.7-19.5 19.4v176.2c0 10.7 8.8 19.4 19.5 19.4h105.4c-1.2-52.4 16.7-154 54.5-215z"/>
	<path id="Layer" class="s1" d="m175.6 17h-154.1c-7.7 0-13.9 6.2-13.9 13.8v163.3c35-13.4 87.4-24.9 123.6-24.4q4.2-19.4 9.1-38.7 4.9-19.3 10.4-38.4 5.6-19.2 11.8-38.1 6.3-18.9 13.1-37.5z"/>
	<path id="Layer" class="s2" d="m218.8 5.5c-11-9.7-24.2-5.8-37.4 5.8l-5.8 5.6c-22.4 23.7-42.8 67.7-49.6 101.3q0.9 2 1.7 4 0.8 2.1 1.5 4.1 0.8 2.1 1.4 4.2 0.6 2.1 1.1 4.2l0.9 3.9 0.8 4c0 0-0.2-0.8-1-3.1l-0.5-1.6q-0.1-0.1-0.1-0.2 0-0.1-0.1-0.2 0-0.1-0.1-0.2 0-0.1-0.1-0.2c-1.4-3.4-5.4-10.6-7.2-13.7q-0.6 1.6-1.1 3.1-0.5 1.6-1 3.1-0.5 1.6-1 3.1-0.5 1.6-0.9 3.2c5.1 9.4 8.2 25.5 8.2 25.5 0 0-0.3-1.1-1.6-4.7-1.1-3.2-6.8-13.2-8.1-15.5-2.4 8.5-3.3 14.3-2.4 15.6 1.5 2.8 3.1 7.8 4.4 12.6q0.8 3.2 1.5 6.5 0.8 3.2 1.4 6.4 0.6 3.2 1.2 6.5 0.6 3.2 1.1 6.5l0.2 2.4q-0.2 3.7-0.2 7.3-0.1 3.6 0 7.3 0.1 3.6 0.3 7.3 0.2 3.6 0.5 7.2c1 12.2 2.9 22.7 5.3 28.2l1.6-0.8c-3.5-11.1-5-25.5-4.3-42.2 0.9-25.4 6.8-56.1 17.6-88.1 18.4-48.6 43.8-87.4 67-105.9-21.2 19.1-49.8 81-58.4 103.9-9.6 25.6-16.4 49.7-20.5 72.7 7.1-21.6 29.9-30.9 29.9-30.9 0 0 11.3-13.8 24.4-33.6l-25.1 6.7-8.1 3.5c0 0 20.6-12.5 38.4-18.2 24.4-38.4 51-92.9 24.2-116.6z"/>
</svg>