<svg version="1.2" xmlns="http://www.w3.org/2000/svg" viewBox="0 0 73 40" width="73" height="40">
	<title>streamlit</title>
	<style>
		.s0 { fill: #ff4b4b } 
		.s1 { fill: #7d353b } 
		.s2 { fill: #bd4043 } 
	</style>
	<g>
		<path class="s0" d="m35.3 0.6c0.6-0.8 1.8-0.8 2.4 0l11.6 17.4 12.4 18.4q-0.3 0.4-0.5 0.8-0.2 0.2-0.5 0.4 0 0-0.1 0.1-0.2 0.2-0.4 0.3c-0.2 0.1-0.3 0.2-0.4 0.2-0.1 0.1-0.4 0.2-0.5 0.2-0.1 0.1-0.2 0.1-0.3 0.1q-0.1 0-0.1 0-0.1 0-0.1 0.1-0.1 0-0.1 0h-0.1q-0.3 0-0.5 0c-14.4 1.6-28.8 1.6-43.2 0q0 0 0 0h-0.1q0 0 0 0h-0.1q0 0 0 0c-0.2 0-0.3-0.1-0.4-0.1-0.1 0-0.2 0-0.3 0-1.1-0.3-2.1-1-2.6-2q0-0.1 0-0.1l-11.3-29c-0.3-0.8 0.5-1.6 1.3-1.2q0 0 0.1 0l22.2 11.8zm36.2 5.6c0.8-0.5 1.7 0.3 1.4 1.2l-11.3 29-12.3-18.5 22.2-11.7z"/>
		<path class="s1" d="m71.5 6.2l-22.2 11.8 12.4 18.4 11.2-29c0.3-0.9-0.5-1.6-1.4-1.2z"/>
		<path class="s2" d="m37.7 0.6c-0.6-0.8-1.8-0.8-2.4 0l-11.6 17.4 12.8 6.8 24.2 12.8q0.3-0.2 0.5-0.4 0.2-0.4 0.5-0.8l-12.4-18.4z"/>
	</g>
</svg>