<svg version="1.2" xmlns="http://www.w3.org/2000/svg" viewBox="0 0 239 256" width="239" height="256">
	<title>tensorflow-svg</title>
	<style>
		.s0 { fill: #e55b2d } 
		.s1 { fill: #ed8e24 } 
		.s2 { fill: #f8bf3c } 
	</style>
	<g id="layer1">
		<g id="g4550">
			<path id="path4508" class="s0" d="m136.4 39v39.4l68.2 39.4v-39.4zm-136.3 39.4v39.4l34.1 19.7v-39.4zm102.2 19.7l-34.1 19.7v118.1l34.1 19.7v-78.8l34.1 19.7v-39.4l-34.1-19.6z"/>
			<path id="path4491" class="s1" d="m136.4 39l-102.2 59.1v39.4l68.2-39.4v39.4l34-19.7zm102.3 19.7l-34.1 19.7v39.4l34.1-19.7zm-68.2 78.7l-34.1 19.7v39.4l34.1-19.7zm-34.1 59.1l-34-19.7v78.8l34-19.7z"/>
			<path id="path4506" class="s2" d="m136.4-0.4l-136.3 78.8 34.1 19.7 102.2-59.1 68.2 39.4 34.1-19.7zm0 118.2l-34.1 19.6 34.1 19.7 34-19.7z"/>
		</g>
	</g>
</svg>