<svg version="1.2" xmlns="http://www.w3.org/2000/svg" viewBox="0 0 238 256" width="238" height="256">
	<title>tensorflow-svg</title>
	<style>
		.s0 { fill: #e55b2d } 
		.s1 { fill: #ed8e24 } 
		.s2 { fill: #f8bf3c } 
	</style>
	<g id="layer1">
		<g id="g4550">
			<path id="path4508" class="s0" d="m136 39.9v39.3l68 39.3v-39.3zm-136 39.3v39.3l34 19.6v-39.3zm102 19.7l-34 19.6v117.9l34 19.6v-78.5l34 19.6v-39.3l-34-19.6z"/>
			<path id="path4491" class="s1" d="m136 39.9l-102 58.9v39.3l68-39.3v39.3l34-19.6zm102 19.6l-34 19.7v39.3l34-19.7zm-68 78.6l-34 19.7v39.3l34-19.7zm-34 59l-34-19.7v78.6l34-19.7z"/>
			<path id="path4506" class="s2" d="m136 0.6l-136 78.6 34 19.6 102-58.9 68 39.3 34-19.7zm0 117.9l-34 19.7 34 19.6 34-19.6z"/>
		</g>
	</g>
</svg>