<svg version="1.2" xmlns="http://www.w3.org/2000/svg" viewBox="0 0 368 256" width="368" height="256">
	<title>tomcat-svg</title>
	<style>
		.s0 { fill: #d1a41a } 
		.s1 { fill: #ffdc76 } 
		.s2 { fill: #000000 } 
	</style>
	<path id="Layer" class="s0" d="m63.7 173.5q1.6 2 3.3 4 1.7 2 3.5 4 1.7 1.9 3.5 3.8 1.8 2 3.6 3.8c-14.9 4.5-24.6 12.9-30.7 20.2-9.7 11.7-14.8 27-13.6 40.2h-25.7c5.2-11.1 25.7-43.4 56.1-76zm297.4 83.1h-31.2c-71.6-37.4-134.5-63.8-201.3-69.6q0.2-13.9 5-31.5l-6.2-1.7q-4.9 18.1-5.2 32.8-10.4-0.7-21-0.7c-6 0-11.4 0.5-16.4 1.5-6.5-6.5-12-12.7-16.7-18.6 30.8-32.1 81.5-61.1 125.7-72 12.4 41.3 39.1 69.6 71.5 88.7q0.9-0.5 1.8-1 0.8-0.5 1.7-1.1 0.9-0.5 1.8-1.1 0.8-0.5 1.7-1.1l56.5 60.9 2.5-0.2c15.4-1.3 24.2 7 26.5 9.6 1.7 1.9 2.7 3.7 3.3 5.1z"/>
	<path id="Layer" class="s1" d="m333.5 53c1.2 56.1-27.5 100.8-67.6 123.8-68-34-80.9-119.9-69.3-166 3.3 17.6 9.1 28.7 21.8 34.1 27.7-7.9 65.7-8.6 93.7-0.8 11.7-8.5 16.2-21.5 18.7-32.8 3.1 13.2 2.7 41.7 2.7 41.7z"/>
	<path id="Layer" fill-rule="evenodd" class="s2" d="m141.2 115.8l21.1-9.7 10.4 30.8zm-21.5 11.2l12.3-7.3 11.1 19.2zm-23.8 15.8l10.7-8.1 5.4 19.3zm172.7 58.8l10-15.4 7.7 7.4zm9.6 14.6l16.2-12.3 6.2 6.5zm-11.2-153.2l-11.9-26.1 19.6-0.4zm-70.4 23.1l-1.9-11.2 18.8 10zm4.7 16.6l-2-7.3 11.6 4.6zm117.3-13.9l15.4-6.5-2.7 8.5zm-2.7 15.7l11.9-3.4-2.3 6.9z"/>
	<g id="Layer">
		<path id="Layer" fill-rule="evenodd" class="s2" d="m188.4 130h37.1v4.6h-37.1zm0-11h37.1v4.6h-37.1zm113.4 11h37.1v4.6h-37.1zm0-11h37.1v4.6h-37.1zm-13.1-27.2h-60.5v-4.2h18.8c2.3-9.9 2.8-19.4 0-24.2-1.2-2-2.8-3-5.2-3-10.7 0-15.2 11.3-15.4 11.9l-3.8-1.5c0.2-0.6 5.6-14.5 19.2-14.5 3.8 0 6.8 1.7 8.8 5 3.4 5.9 3 16 0.7 26.3h33c4.4-12.9 13.6-18.9 28.9-18.9v4.1c-16.6 0-21.3 7-24.6 14.8h18v4.1c0 0-17.9 0.1-17.9 0.1zm-62.3-19.5q0 0 0 0zm65 39.9v-0.1m0 0.1v-0.1"/>
		<path id="Layer" fill-rule="evenodd" class="s2" d="m291.4 112.2c-1.1 0.7-23.3 15.2-23.3 15.2l14.9 9.1-2.2 3.5-16-10.4-14.8 9.8-2.3-3.5 13.3-8.7-23.6-14.9 1-1.7c3-5.3 5.7-12 7.6-18.8h4.2c-1.7 6.4-4.1 12.7-6.6 17.8h42c-3.6-6.1-4.2-13.1-2.8-17.8h4.2c-2 7-0.5 13.2 4.4 20.4q0 0 0 0zm-10 1.5h-34.1l17.4 11z"/>
	</g>
	<g id="Layer">
		<path id="Layer" fill-rule="evenodd" class="s2" d="m340.4 48q0 0 0 0 0 0 0 0zm0 0c0 0 0 0 0 0 1.2 62.3-30.6 111.9-75.1 137.4-43.3-25.5-76.4-67.5-79-135l0.1-0.1c-0.6-16 1.9-38.7 7.7-48.5 13.8 6.5 31.9 18.1 35.6 33.2 21.7-3.8 46.4-4.2 68.4-0.9 4.6-14 24.8-27.7 36-32 4.1 8.4 6.3 38.7 6.3 45.9zm-9.6-36.8c-2.5 11.3-7 24.3-18.7 32.8-28-7.8-66.1-7.1-93.7 0.8-12.7-5.4-18.5-16.5-21.8-34.1-11.6 46.1 1.3 132 69.3 166 40.1-23 68.8-67.7 67.6-123.8 0 0 0.4-28.5-2.7-41.7zm-29 23.5q-0.6-0.1-1.2-0.2zm2.1 0.4l-0.5-0.1c0 0 0.5 0.1 0.5 0.1z"/>
		<path id="Layer" fill-rule="evenodd" class="s2" d="m367.8 260.2l-0.5 2.6h-39c-71-37.1-133.8-63.6-199.6-69.5 0.8 12 4.4 21.6 10.9 28.8 6.8-2.3 14.2-1.8 19 1.3 3.2 2.1 5 5.2 5 8.8v3.2h-30.3c-19.4-13.7-36.8-27.8-50.5-41.2-15.3 3.8-25.1 11.9-31.1 19.1-9.4 11.3-14 26.6-11.7 38.7l0.8 3.8h-40.8v-3.2c0-6.1 22.6-43.2 53.5-77.8q2.9-3.3 6.1-6.7c-12.7-16.9-20.3-33.1-22.4-48.4-2.3-16.1 1.6-31 11.2-42.9 9.8-12.2 22.9-18.2 40.1-18.3 4.8-0.1 11.5 0.8 18.2 2 1.2-2.3 2.9-4.4 5.1-5.5 6.9-3.3 31.5 5 43.7 22.1-16.5 7.3-44.1 4.6-49.3-2.9-1.2-1.9-1.6-4.8-1.2-7.9-19.4-3.2-38.3-2.1-51.6 14.5-8.5 10.5-11.9 23.7-9.9 38 1.6 11.4 7 26.4 20.5 44.6 29.1-30.3 81.5-61.7 129.3-73.2l1.4 6.2c-44.4 10.8-95.6 40-126.6 72.3 4.7 5.9 10.2 12.1 16.7 18.6 5-1 10.4-1.6 16.4-1.6q10.6 0.1 21 0.8 0.3-14.7 5.2-32.8l6.2 1.7q-4.8 17.6-5 31.5c66.8 5.8 129.7 32.1 201.3 69.5h31.2c-0.6-1.3-1.6-3.1-3.3-5-2.3-2.6-11.1-10.9-26.5-9.6l-2.5 0.2-56.8-61.2 3.3-4.1c0 0 47 49.6 55.1 59.2 11.5-0.2 25.2 3.5 32.1 11.3 4.1 4.5 6.1 9.4 5.3 13zm-290.2-71.2q-1.8-1.9-3.6-3.8-1.8-1.9-3.5-3.9-1.8-1.9-3.5-3.9-1.7-2-3.3-4.1c-30.4 32.7-50.9 65-56.1 76.1h25.7c-1.2-13.2 3.9-28.6 13.6-40.2 6.1-7.4 15.8-15.7 30.7-20.2z"/>
	</g>
</svg>