<svg version="1.2" xmlns="http://www.w3.org/2000/svg" viewBox="0 0 361 256" width="361" height="256">
	<title>tomcat-svg</title>
	<style>
		.s0 { fill: #d1a41a } 
		.s1 { fill: #ffdc76 } 
		.s2 { fill: #000000 } 
	</style>
	<path id="Layer" class="s0" d="m62.7 167.9q1.7 2 3.3 3.9 1.7 2 3.4 3.9 1.7 1.9 3.5 3.8 1.7 1.8 3.5 3.7c-14.6 4.4-24.1 12.5-30.1 19.7-9.5 11.4-14.4 26.4-13.3 39.3h-25.1c5-10.9 25.1-42.5 54.8-74.3zm291.1 81.1h-30.5c-70.1-36.5-131.7-62.2-197-67.9q0.2-13.6 4.9-30.8l-6.1-1.6q-4.8 17.6-5 32-10.2-0.7-20.6-0.7c-5.9 0-11.2 0.5-16.1 1.5-6.3-6.4-11.8-12.4-16.4-18.2 30.2-31.3 79.8-59.7 123.1-70.4 12.1 40.4 38.3 68.1 70 86.7q0.8-0.5 1.7-1 0.9-0.5 1.7-1 0.9-0.5 1.7-1.1 0.9-0.5 1.7-1l55.3 59.4 2.4-0.2c15.1-1.3 23.7 6.9 26 9.5 1.7 1.8 2.7 3.5 3.2 4.8z"/>
	<path id="Layer" class="s1" d="m326.8 50.1c1.2 54.9-26.9 98.6-66.1 121-66.6-33.2-79.2-117.1-67.8-162.2 3.1 17.2 8.9 28 21.3 33.3 27-7.7 64.3-8.3 91.7-0.8 11.4-8.3 15.8-20.9 18.3-32 3 12.9 2.6 40.7 2.6 40.7z"/>
	<path id="Layer" fill-rule="evenodd" class="s2" d="m138.6 111.5l20.7-9.4 10.1 30.1zm-21 10.9l12-7.2 10.9 18.8zm-23.3 15.4l10.5-7.9 5.3 18.8zm169 57.6l9.8-15.1 7.5 7.2zm9.5 14.3l15.8-12.1 6 6.4zm-10.9-149.6l-11.7-25.6 19.2-0.4zm-68.9 22.6l-1.9-10.9 18.5 9.8zm4.5 16.1l-1.9-7.1 11.3 4.5zm114.8-13.5l15.1-6.4-2.6 8.2zm-2.7 15.5l11.7-3.4-2.3 6.7z"/>
	<g id="Layer">
		<path id="Layer" fill-rule="evenodd" class="s2" d="m184.8 125.4h36.4v4.5h-36.4zm0-10.8h36.4v4.5h-36.4zm111 10.8h36.3v4.5h-36.3zm0-10.8h36.3v4.5h-36.3zm-12.8-26.6h-59.2v-4h18.4c2.3-9.7 2.7-19 0-23.7-1.2-2-2.8-2.9-5.1-2.9-10.5 0-14.9 11-15.1 11.6l-3.8-1.4c0.3-0.6 5.5-14.3 18.9-14.3 3.7 0 6.7 1.7 8.6 5 3.3 5.7 2.9 15.6 0.6 25.7h32.4c4.3-12.6 13.2-18.6 28.2-18.6v4.1c-16.2 0-20.8 6.8-24 14.5h17.6v4c0 0-17.5 0-17.5 0zm-61-19q0 0 0 0zm63.6 38.9h0.1m-0.1 0h0.1"/>
		<path id="Layer" fill-rule="evenodd" class="s2" d="m285.6 108c-1 0.7-22.7 14.8-22.7 14.8l14.5 9-2.2 3.4-15.6-10.2-14.5 9.5-2.3-3.3 13-8.6-23-14.5 0.9-1.6c3-5.2 5.6-11.8 7.5-18.4h4.1c-1.7 6.2-4 12.3-6.5 17.3h41.1c-3.5-5.9-4.1-12.7-2.7-17.3h4.2c-2.1 6.8-0.5 12.9 4.3 19.9h-0.1q0 0 0 0zm-9.8 1.5h-33.3l17 10.7z"/>
	</g>
	<g id="Layer">
		<path id="Layer" fill-rule="evenodd" class="s2" d="m333.6 45.3q0 0 0 0 0 0 0 0zm0 0c0 0 0-0.1 0-0.1 1.2 61-30 109.4-73.6 134.3-42.3-24.9-74.7-65.9-77.2-131.9h0.1c-0.7-15.8 1.9-37.9 7.5-47.4 13.4 6.3 31.3 17.6 34.8 32.3 21.2-3.6 45.5-4 67-0.8 4.5-13.7 24.3-27.1 35.2-31.2 4 8.1 6.2 37.7 6.2 44.8zm-9.5-36c-2.4 11.1-6.8 23.7-18.2 32-27.5-7.5-64.7-6.9-91.7 0.8-12.4-5.3-18.2-16.1-21.3-33.3-11.4 45.1 1.2 129 67.8 162.2 39.2-22.4 67.3-66.1 66.1-121 0 0 0.4-27.8-2.7-40.7zm-28.3 23q-0.6-0.1-1.2-0.2zm2.1 0.3l-0.5-0.1c0 0 0.5 0.1 0.5 0.1z"/>
		<path id="Layer" fill-rule="evenodd" class="s2" d="m360.4 252.7l-0.5 2.5h-38.2c-69.4-36.3-130.9-62.2-195.3-67.9 0.8 11.7 4.3 21.1 10.7 28.1 6.6-2.2 13.8-1.8 18.5 1.2 3.2 2.1 4.9 5.2 4.9 8.7v3.1h-29.6c-19-13.4-36-27.2-49.4-40.2-15.1 3.6-24.6 11.6-30.4 18.6-9.2 11.1-13.7 25.9-11.5 37.8l0.7 3.7h-39.9v-3.1c0-6 22.1-42.2 52.4-76q2.8-3.3 5.9-6.6c-12.4-16.4-19.8-32.3-21.9-47.3-2.2-15.7 1.6-30.2 11-41.9 9.6-11.9 22.4-17.8 39.2-17.9 4.8 0 11.3 0.8 17.9 2 1.1-2.3 2.8-4.3 5-5.4 6.7-3.2 30.8 4.9 42.7 21.6-16.2 7.1-43.2 4.5-48.2-2.9-1.2-1.7-1.6-4.6-1.2-7.6-19-3.2-37.5-2.1-50.5 14.1-8.3 10.3-11.7 23.2-9.7 37.2 1.6 11.1 6.8 25.7 20.1 43.6 28.5-29.7 79.7-60.3 126.5-71.6l1.4 6.1c-43.5 10.5-93.6 39-124 70.6 4.6 5.8 10 11.8 16.4 18.2 4.9-1 10.2-1.5 16.1-1.5q10.4 0 20.6 0.7 0.2-14.4 5-32l6 1.6q-4.6 17.2-4.8 30.8c65.3 5.6 126.9 31.4 197 67.9h30.5c-0.5-1.3-1.5-3-3.2-4.9-2.3-2.5-10.9-10.7-26-9.4l-2.4 0.2-55.6-59.8 3.2-4c0 0 46.1 48.5 54 57.9 11.2-0.3 24.6 3.4 31.4 11 4 4.4 5.9 9.2 5.2 12.8zm-284-69.6q-1.8-1.9-3.5-3.8-1.8-1.8-3.5-3.7-1.7-2-3.4-3.9-1.6-2-3.3-4c-29.7 31.9-49.8 63.5-54.8 74.4h25.1c-1.1-12.9 3.9-27.9 13.3-39.3 6-7.2 15.5-15.4 30.1-19.7z"/>
	</g>
</svg>