<svg version="1.2" xmlns="http://www.w3.org/2000/svg" viewBox="0 0 258 256" width="258" height="256">
	<title>travisci-svg</title>
	<style>
		.s0 { fill: #0e0f0d } 
		.s1 { fill: #e1c5a2 } 
		.s2 { fill: #a89983 } 
		.s3 { fill: #ffffff } 
		.s4 { fill: #e0d896 } 
		.s5 { fill: #d7c184 } 
		.s6 { fill: #9f8f78 } 
		.s7 { fill: #6e6a67 } 
		.s8 { fill: #93232c } 
		.s9 { fill: #731b2a } 
	</style>
	<path id="Layer" class="s0" d="m256.6 90.1q-0.1-1.4-0.4-2.8-0.1-0.3-0.2-0.7 0-0.4-0.1-0.7-0.1-0.4-0.2-0.7-0.1-0.4-0.2-0.7l-0.7-1.2c-3-2.3-6.1-4-9.4-5.6-2.6-1.2-5.4-2.3-8.1-3.4-7.6-21.2-20.8-40-38.1-53.1-17.8-13.5-38.8-20.7-60.7-20.7-21.9 0-42.9 7.2-60.7 20.7-17.3 13.1-30.5 31.9-38.1 53.2-2.7 1-5.5 2.1-8.1 3.3-3.3 1.6-6.4 3.3-9.4 5.6l-0.7 1.2q-0.1 0.3-0.2 0.7-0.1 0.3-0.2 0.7-0.1 0.4-0.1 0.7-0.1 0.4-0.2 0.7-0.2 1.4-0.4 2.8-0.1 0.7-0.2 1.4-0.1 0.7-0.2 1.4 0 0.7-0.1 1.4 0 0.7-0.1 1.4 0 1.4-0.1 2.8 0 1.4 0.1 2.8 0 1.4 0.1 2.8 0.1 1.5 0.3 2.9 0.1 1.4 0.3 2.7 0.2 1.4 0.5 2.8 0.2 1.4 0.6 2.8 0.3 1.4 0.6 2.7 0.2 0.7 0.4 1.4 0.3 0.7 0.5 1.3 0.2 0.7 0.4 1.4 0.3 0.7 0.5 1.3 0.6 1.4 1.2 2.7 0.3 0.6 0.7 1.3c0.5 0.9 0.6 1.1 0.8 1.4l0.9 0.9c0.7 0.3 1.2 0.6 1.8 0.8l1.6 0.8q0.5 0.2 1 0.4c-7.6 7-15.9 16.1-23 27.3l-9 14.3 12.6-11.1c0.3-0.2 10.9-9.4 28.5-19.8l0.3 2c-1.2 0.6-6.7 3.5-8.4 4.9-2.7 2.3-2.8 5.8-2.1 12.4 0.4 3.4 1.6 9.9 3.3 16 3 10.3 5.1 12.1 7 12.5 0.9 0.3 2 0.3 3.2 0.3 3.4 0 7.7-0.6 10.6-1.5 3.3 10.4 8 19.7 13.7 27.9q-0.4 0.1-0.8 0.2c-3.4-1.6-15.5-7.2-19.6-9l-8.4-3.8 5 7.8c0.3 0.6 9 14.1 16.1 23.1 6.6 8.5 15.6 17.2 32.7 17.2q3.1 0 6.4-0.4c5.1-0.6 8.9-1 11.8-1.4 17.9 6.6 37.7 7 56.4-0.1q1.8-0.7 3.6-1.5 1.9-0.8 3.6-1.7 1.8-0.8 3.5-1.8 1.7-0.9 3.4-2c7.2-1.7 15.1-3.6 19-4.7 0.7-0.2 1.4-0.3 2.3-0.5 5.4-1.3 14.5-3.4 19.3-13.1 4.9-9.8 12.9-24.8 13-24.9l3.7-7-7.3 3.1c-0.3 0.2-9.5 4.2-14.3 6.7 3.3-7.6 5.3-14 5.9-16.4 2.7 0.7 6.7 0.6 9.6 0.6 1.4 0 2.9-0.3 3.9-0.5 1.9-0.5 3.3-1.8 6.1-12.4 1.6-6.2 2.7-13 3-16.4 0.7-6.8 0.5-10.4-2.3-12.7-1.4-1.1-5.4-3.3-7.5-4.4 1.2-0.5 1.8-0.3 1.8-0.3l1.9-7.1q0.9-0.4 2.1-0.8 1.7-0.7 3.4-1.4l1.6-0.8c0.6-0.2 1.1-0.5 1.8-0.8l0.9-0.9c0.2-0.3 0.4-0.5 0.5-0.7 0.6-1.1 0.8-1.6 1-2q0.6-1.3 1.2-2.7 0.2-0.6 0.5-1.3 0.2-0.7 0.4-1.4 0.3-0.6 0.5-1.3 0.2-0.7 0.4-1.4 0.3-1.3 0.7-2.7 0.3-1.4 0.5-2.8 0.3-1.4 0.5-2.8 0.2-1.3 0.4-2.7 0.6-5.7 0.3-11.3-0.1-0.7-0.1-1.4-0.1-0.7-0.1-1.4-0.1-0.7-0.2-1.4-0.1-0.7-0.2-1.4z"/>
	<path id="Layer" class="s1" d="m150.2 235.5q-2 0.3-4.1 0.5c-0.8 0-1.8 0.1-2.6 0.1h-0.3c1-2.4 1.8-4.2 2.4-5.6 1.3 1.4 2.9 3.1 4.6 5z"/>
	<path id="Layer" fill-rule="evenodd" class="s2" d="m148.6 130c-2.2 1.8-4.4 3.4-6.8 4.8l-7.8 4.7c-4.9 0.6-9.2 1.8-9.5 1.9q-0.2 0.1-0.4 0.2-0.1 0.1-0.2 0.2-0.2 0.1-0.3 0.2-0.1 0.2-0.1 0.3-0.1 0.2-0.2 0.3l-8 26.3-42.6 9.5-13.5-9.4-3.9-31.7c7.6-1.4 17.8-3 30.1-4.4q-0.5 0.6-1 1.2-0.5 0.6-0.9 1.3-0.5 0.6-1 1.2-0.4 0.6-0.9 1.3l-7.3 10.5 10.6-7.1c0.2-0.1 7-4.6 18-10q4.6-0.3 9.1-0.6 4.5-0.3 9.1-0.4 4.5-0.2 9-0.3 4.6-0.1 9.1-0.1 4.8 0 9.4 0.1zm-66.5 35.7c3.1-1.6 6.5-1.4 11.8-1.4q0.9 0 1.8 0 0.8 0 1.7 0c5.5-0.1 10.1 0.5 10-8.2-0.1-8.7-3.9-15.7-9.5-15.6-5.5 0-10.8 7.1-10.5 15.8 0.1 2.2 0.4 3.9 0.9 5-4.8 1.3-6.1 4.2-6.2 4.4zm140.5-28.5l-3.9 27-13.5 9.5-42.7-4.9-7.9-26.2q-0.1-0.2-0.2-0.4-0.1-0.2-0.3-0.3-0.1-0.2-0.3-0.3-0.2-0.1-0.5-0.2c-0.2-0.1-5.5-1.6-11.1-2.1h1c0.9-0.1 15.6-1.9 33.2-7.9 19.4 1.5 35.3 3.8 46.2 5.8zm-27.3 25c0-0.2-1.2-3.7-6.3-3.1 0.5-1.3 0.8-3.1 0.6-5.4-0.6-8.7-5.7-15.6-11.2-15.4-5.5 0.2-9.1 7.4-8.8 16.1 0.3 8.6 5 8.6 10.5 8.4 7.4-0.2 11.5-2.4 15.2-0.6z"/>
	<path id="Layer" class="s3" d="m180.7 146.6q0 0.5-0.2 1.1-0.2 0.5-0.6 0.9-0.3 0.4-0.9 0.6-0.5 0.2-1 0.2-0.6 0.1-1.1-0.1-0.5-0.3-0.9-0.6-0.5-0.4-0.7-0.9-0.2-0.6-0.2-1.1 0-0.6 0.2-1.1 0.2-0.5 0.6-0.9 0.4-0.4 0.9-0.7 0.5-0.2 1.1-0.2 0.5 0 1 0.2 0.6 0.2 1 0.6 0.4 0.4 0.6 0.9 0.2 0.5 0.2 1.1zm-79.1 2.1q0 0.5-0.2 1-0.2 0.6-0.6 1-0.4 0.4-0.9 0.6-0.5 0.2-1 0.2-0.6 0.1-1.1-0.1-0.6-0.2-1-0.6-0.4-0.4-0.6-0.9-0.2-0.5-0.2-1.1-0.1-0.6 0.1-1.1 0.2-0.5 0.6-0.9 0.4-0.4 0.9-0.7 0.5-0.2 1.1-0.2 0.6 0 1.1 0.2 0.5 0.2 0.9 0.6 0.4 0.4 0.7 0.9 0.2 0.5 0.2 1.1z"/>
	<path id="Layer" class="s1" d="m241.2 149.1c-0.7-0.6-2.9-1.8-5.1-3l-3.6 25q0 0.2-0.1 0.4 0 0.1-0.1 0.3-0.1 0.2-0.2 0.3-0.2 0.1-0.3 0.2l-5.1 3.6c-0.2 0.6-0.2 1.1-0.3 1.6 5 1.2 9.9-2.4 12.6-5 1.3-4.9 2.4-10.8 2.8-15 0.5-6.5 0-7.9-0.6-8.4zm-79 95.1c-3.3-1.2-6.3-3.1-9-5.7q-0.3-0.3-0.6-0.7-0.8 0.2-1.6 0.3-0.8 0.2-1.6 0.3-0.8 0.1-1.5 0.2-0.8 0.1-1.6 0.1c-0.9 0.1-1.8 0.2-2.7 0.2h-1.4-0.5c-3.2 4.7-8.5 7.3-12.7 8.6 12.4 2.2 26-1.1 33.2-3.3zm-109.2-61.3q-0.2-0.6-0.3-1.1l-6.7-4.7q-0.1-0.1-0.3-0.2-0.1-0.2-0.2-0.3-0.1-0.2-0.1-0.4-0.1-0.2-0.1-0.3l-3.3-26.3c-2.4 1.2-5.1 2.8-5.9 3.4-0.6 0.6-1.1 1.9-0.4 8.2 0.5 4.7 2.2 11.9 3.9 17.4 3.3 2.5 8.3 5.2 13.4 4.3zm99.3-1.2q-0.3 0-0.5-0.1-0.3-0.1-0.5-0.3-0.2-0.2-0.3-0.4-0.2-0.2-0.2-0.5l-8.2-27q-2.1-0.3-3.6-0.3-1.6 0-3.7 0.3l-7.9 26.2q-0.1 0.3-0.2 0.5-0.2 0.2-0.3 0.3-0.2 0.2-0.4 0.3-0.2 0.1-0.5 0.2l-3.8 0.8c-0.3 1.4-1.4 3.3-4.9 4.4-5.7 1.8-41.8 12.5-45.9 11.9-2.4-0.3-7-2.8-10.4-4.9-1.3-3.2-2.1-5.3-2.2-5.8h-0.1c0.5 1.4 5.2 14.9 14.8 28.2 10.3-3 19.1-5.9 21.9-6.8 5.8-8.9 14-17.7 19.9-18q0.4 0 0.7 0 0.4 0 0.8 0 0.4-0.1 0.8-0.1 0.4 0 0.8 0c2.8 0 5.5 0.2 8.1 0.5-2.2-1.9-2.6-4.2-2.9-5.2 0 0 7.4 5.8 16.9 4.6 9.5-1.2 15.4-6.7 15.4-6.7l0.2-1.7c0 0-3.8-0.4-3.8-0.4z"/>
	<path id="Layer" class="s1" d="m160 185.1c-2-0.5-3.2-1.3-4-2.2l-0.1 0.9c0 0 0 4-4.2 7.1 8-2.4 11.3-3.2 13.5-3.2 2.5 0 3.7 1 4.8 1.9q0.3 0.2 0.7 0.5 1.9 1.6 3.9 3.1 1.9 1.6 3.9 3.1 1.9 1.6 3.9 3.1 1.9 1.6 3.9 3.1c2.5 0.3 10.4 1.2 15.3 1.7 2.9 0.2 5.5 0.4 8 0.4q1.3 0 2.4 0c2.6-5.1 5-10.6 7.1-16.7-2.9 2-9.6 6.5-12.7 7.1-4.1 0.8-40.7-8.4-46.4-9.9z"/>
	<path id="Layer" class="s4" d="m251.9 90.6q0-0.3 0-0.6-0.1-0.3-0.1-0.6 0-0.4-0.1-0.7 0-0.3-0.1-0.6 0-0.3 0-0.5-0.1-0.2-0.1-0.5 0-0.2-0.1-0.4 0-0.2 0-0.5c-2.3-1.9-5-3.6-7.7-5.2-3-1.7-6-3.3-9.2-4.7-3.1-1.5-6.4-2.8-9.6-4.1q-0.6-0.3-1.2-0.5-0.6-0.3-1.2-0.5-0.6-0.2-1.3-0.5-0.6-0.2-1.2-0.4-2.4-1-4.9-1.9c3.4 0.6 6.9 1.4 10.3 2.3q3.3 0.8 6.6 1.9c-15.6-40.8-52.8-67.3-93.5-67.3-40.7 0-77.9 26.5-93.5 67.3q3.3-1.1 6.6-1.9c3.4-0.9 6.9-1.7 10.3-2.3q-2.5 0.9-4.9 1.9-0.6 0.2-1.2 0.4-0.7 0.3-1.3 0.5-0.6 0.2-1.2 0.5-0.6 0.2-1.2 0.5c-3.2 1.3-6.5 2.6-9.6 4.1-3.2 1.4-6.2 3-9.2 4.7-2.7 1.6-5.4 3.3-7.7 5.2q0 0.3 0 0.5-0.1 0.2-0.1 0.4 0 0.3-0.1 0.5 0 0.2 0 0.5-0.1 0.3-0.1 0.6 0 0.3-0.1 0.7 0 0.3 0 0.6-0.1 0.3-0.1 0.6-0.1 0.7-0.1 1.4 0 0.6-0.1 1.3 0 0.6 0 1.3 0 0.6 0 1.3c-0.1 3.5 0.2 7 0.6 10.4 0.5 3.5 1.1 6.9 2.1 10.2q0.1 0.7 0.3 1.3 0.2 0.6 0.4 1.2 0.2 0.6 0.4 1.2 0.2 0.6 0.5 1.2 0.4 1.2 0.9 2.4 0.3 0.5 0.6 1.1l0.2 0.4q0.4 0.2 0.8 0.4l1.5 0.7c0.9 0.4 2.1 1 3.1 1.4q0.1 0 0.1-0.1l-2.8-11c0.6-0.1 6-1.5 15.4-3.3q-0.3-0.1-0.5-0.1-0.3-0.1-0.6-0.2-0.3 0-0.6-0.1-0.3-0.1-0.5-0.1c-2.2-0.6-4.3-1.2-6.4-2q-1.5-0.7-2.9-1.5c-1-0.5-1.9-1.1-2.6-2 10.3 3.4 31.7 1.9 50.6-0.1 17.4-1.8 34.8-2.9 52.3-3 17.5 0.1 34.9 1.2 52.3 3 19 2 40.3 3.5 50.6 0.1-0.7 0.9-1.6 1.5-2.6 2q-1.4 0.8-2.9 1.5c-2.1 0.8-4.2 1.4-6.3 2q-0.5 0.1-1 0.2c10.3 1.9 16.3 3.5 17 3.6l-2.8 10.5q0.9-0.4 1.7-0.8l1.5-0.7q0.4-0.2 0.8-0.4l0.2-0.4q0.3-0.6 0.6-1.1 0.5-1.2 0.9-2.4 0.3-0.6 0.5-1.2 0.2-0.6 0.4-1.2 0.2-0.6 0.4-1.2 0.2-0.6 0.3-1.3c1-3.3 1.6-6.7 2.1-10.2 0.4-3.4 0.7-6.9 0.6-10.4q0-0.7 0-1.3 0-0.7 0-1.3-0.1-0.7-0.1-1.3 0-0.7-0.1-1.4z"/>
	<path id="Layer" fill-rule="evenodd" class="s5" d="m181.3 70.4c0.2 4.7 0 13.1-2.1 21q-0.2 0.5 0 0.9-1.1-0.1-2.1-0.2-1-0.1-2.1-0.2-1-0.1-2.1-0.2-1-0.1-2-0.1c3.1-6.5 3.8-13.5 3.9-15.9 2.4-1.7 4.8-3.7 6.5-5.3zm-79.1 5.3c0.2 2.4 0.8 9.3 3.9 15.8q-4.1 0.4-8.3 0.8 0.2-0.4 0-0.9c-2.1-7.9-2.2-16.3-2.1-21 1.8 1.6 4.1 3.6 6.5 5.3zm113.3 10.3c1.5 5.8 4.1 13.5 8.1 16.1-2.4-1.1-5-2-7.5-2.8q-0.5-0.2-0.9-0.3 0 0 0 0 0-0.1 0-0.1 0 0 0-0.1 0 0 0 0c0.1-0.3 0.7-5.2 0.3-12.8zm-121.8 2.9c-1.1-2.2-2.2-5.2-3-8.9-1.3-5.9-8-3.9-12.2-2.9-4.3 1-9.8 2.4-10.7 4.6-1.7 4.3-2.6 15.5-2.6 15.5l-0.1 0.1c-0.3-2.8-0.8-10.6 0.8-20.9l26.4-7.5c-0.2 3.9-0.3 11.9 1.4 20zm117.4-12.5c1.4 9.4 1.1 16.8 0.9 20-0.2-2.5-1.1-11.1-2.6-14.7-0.9-2.2-6.4-3.6-10.6-4.6-4.2-1-10.9-3-12.2 2.9-1 4.2-2.3 7.6-3.5 9.9 1.9-8.5 1.8-16.9 1.6-21zm-105.5-50.2l0.7-2c0 0 1.1 58.4 14.8 58.4h35.5c12.9 0 14.3-51.8 14.4-57.9 2.4 8.9 6 26.8 4 46.2l-0.1 0.4q-0.3 0.2-0.7 0.5-0.3 0.3-0.7 0.5-0.3 0.3-0.6 0.5-0.4 0.3-0.8 0.5-0.1 0.1-0.3 0.3-0.1 0.2-0.2 0.3-0.1 0.2-0.2 0.4 0 0.2 0 0.4c0 0.1-0.2 8.8-4.1 16.2q0 0.2-0.1 0.4c-9.5-0.7-19.1-0.9-28.7-1-9.6 0.1-19.1 0.3-28.7 1q0-0.2-0.1-0.4c-3.9-7.4-4.1-16.1-4.1-16.2 0-0.5-0.3-1.1-0.7-1.4q-0.4-0.2-0.8-0.5-0.3-0.2-0.7-0.5-0.3-0.3-0.7-0.5-0.3-0.3-0.7-0.6c-1.9-18.5 1.3-35.6 3.6-45zm-44.7 73.1c-2.5 0.8-5.1 1.7-7.6 2.8 4.1-2.6 6.7-10.3 8.2-16.1-0.4 7.6 0.2 12.5 0.3 12.8q0 0.1 0 0.2-0.4 0.1-0.9 0.3z"/>
	<path id="Layer" class="s6" d="m226.4 177.5q-0.1 0.4-0.2 0.9-0.1 0.4-0.2 0.8-0.1 0.4-0.2 0.9-0.1 0.4-0.2 0.8c2.9 0.7 7.7 1.2 10 0.8 1-1.1 2.3-4.8 3.4-9.2-2.7 2.6-7.6 6.2-12.6 5zm-105.1 71.7c7 1.9 14.2 2.8 21.2 2.3 7.1-0.5 16.3-2 26-6q-0.8 0-1.6-0.1-0.8-0.1-1.6-0.3-0.8-0.2-1.6-0.4-0.7-0.2-1.5-0.5c-7.2 2.2-20.8 5.5-33.2 3.3-3.3 1.1-5.9 1.5-6.1 1.5-0.5 0-1 0.1-1.6 0.2zm-67.8-64.7q-0.3-0.8-0.5-1.6c-5.1 0.9-10.1-1.8-13.4-4.3 1.1 3.4 2.1 6.2 3 7 2.5 0.4 8.1-0.3 10.9-1.1zm7.5 8.6c3.4 2.1 8 4.6 10.4 4.9 4.1 0.6 40.2-10.1 45.9-11.9 3.5-1.1 4.6-3 4.9-4.4l-52 11.6q-0.1 0-0.1 0-0.1 0-0.1 0-0.1 0-0.1 0-0.1 0-0.1 0-0.6 0-1-0.3l-2.1-1.4-6.1-4.2v-0.1l-2.4-1.7q0.1 0.2 0.1 0.4 0.2 0.7 0.5 1.3c0.1 0.5 0.9 2.6 2.2 5.8zm159.7-10q0.5-1.8 1-3.7l-1.8 1.3-4.9 3.4-5.3 3.7q-0.4 0.2-0.9 0.3 0 0 0 0-0.1 0-0.1 0-0.1 0-0.1 0 0 0-0.1 0l-52.4-6-0.1 0.8c0.8 0.9 2 1.7 4 2.2 5.8 1.5 42.3 10.7 46.4 9.9 3.1-0.6 9.8-5.1 12.7-7.1q0.1-0.2 0.1-0.3 0.2-0.5 0.4-1.1 0.2-0.5 0.4-1.1 0.2-0.6 0.4-1.1 0.1-0.6 0.3-1.2z"/>
	<path id="Layer" fill-rule="evenodd" class="s7" d="m165.3 112.5q-0.7 0.8-1.4 1.7c-2.5 3.2-5.9 7.2-10 11.1q-1.9 0-3.7-0.1-1.8 0-3.7 0-1.8-0.1-3.6-0.1-1.9 0-3.7 0c-8.3 0-16.3 0.2-23.8 0.6 10.7-4.5 23.5-8.8 37.4-11.4q1.6-0.3 3.1-0.5 1.6-0.3 3.1-0.5 1.6-0.3 3.1-0.5 1.6-0.1 3.2-0.3zm-62.6 4.8c-3.8 2.7-8.1 6.1-12.3 10.2q-3.5 0.4-7 0.8-3.5 0.4-6.9 0.8-3.5 0.5-7 1-3.4 0.5-6.9 1.1c11.9-5.5 25.4-10.5 40.1-13.9zm130.7 22.1l-4.3 30.4-20.9 14.7-54.4-6.2-8.1-27q-0.1-0.2-0.2-0.5-0.2-0.2-0.4-0.3-0.2-0.2-0.4-0.3-0.2-0.1-0.5-0.1-3-0.5-5.2-0.5-2.3 0-5.3 0.5-0.3 0-0.5 0.1-0.2 0.1-0.4 0.3-0.2 0.1-0.4 0.4-0.1 0.2-0.2 0.4l-8 26.3-54 12-21.5-15-4.2-34.1q0.4-0.2 0.7-0.4 0.4-0.2 0.7-0.4 0.4-0.2 0.7-0.4 0.4-0.2 0.7-0.4 2-0.4 4.5-0.9l4 32.2c0 0.5 0.3 1 0.7 1.3l14.8 10.3c0.3 0.2 0.6 0.3 1 0.3q0.2 0 0.4 0l44.4-9.9q0.1 0 0.2 0 0 0 0.1-0.1 0 0 0.1 0 0 0 0.1-0.1c0.4-0.2 0.7-0.6 0.9-1l8-26.4c2.1-0.5 7.6-1.8 12.5-1.8 4.8 0 10.3 1.3 12.4 1.8l8 26.4c0.2 0.7 0.8 1.2 1.5 1.2l44.5 5.1c0.4 0 0.9-0.1 1.2-0.3l14.8-10.3c0.4-0.3 0.7-0.8 0.7-1.3l4-27.5c2.9 0.5 5.4 1.1 7.3 1.5zm5.5-19.1l-3.8 14.5c-7.8-1.7-25-5.1-48.4-7.4 7.6-3.3 15.4-7.3 22.5-12.5 14 2 24.2 4.1 29.7 5.4zm-190.3-1.9q-1.1 0.7-2.1 1.4-1 0.7-2 1.5-1 0.7-2 1.5-1 0.7-2 1.5l-1-4c2.2-0.5 5.3-1.2 9.1-1.9z"/>
	<path id="Layer" class="s8" d="m189.7 112.2q-8.8-0.5-17.6-0.9-0.3 0.4-0.5 0.7-0.3 0.4-0.5 0.8-0.3 0.3-0.5 0.7-0.3 0.3-0.6 0.7c-3.1 4.2-9.3 12-17.2 18.6 5.9-1.9 29.6-9.8 41.6-20.3q-0.5-0.1-1.1-0.1-0.6 0-1.2-0.1-0.6 0-1.2 0-0.6-0.1-1.2-0.1zm-43-1.6q-4.4 0-8.9-0.1-6.5 0.1-13.1 0.2l-8.1 3.8q0 0 0 0 0 0 0 0 0 0-0.1 0.1 0 0 0 0c-1.2 0.6-11.8 5.9-21.7 15.4q1.3-0.7 2.7-1.4c5.5-3.6 20-12.3 42.6-18q3.3 0 6.6 0zm-49.5 1q-5.6 0.3-11.2 0.6-6.5 0.3-13 0.8-3.2 0.3-6.4 0.6-0.9 0.1-1.8 0.2c-5.7 3.4-27.2 16.9-42 34.6q0.4-0.4 0.8-0.9c27.4-23.4 57.4-32.5 73.6-35.9zm123.9 96.2l-0.5 0.2c-2.7 1.5-6.3 2.2-11 2.2-2.7 0-5.4-0.3-8.5-0.5-6-0.6-16.1-1.8-16.2-1.8l-0.8-0.1-0.6-0.5c-0.1 0-9-7.2-16.3-12.8q-0.4-0.4-0.8-0.7c-0.7-0.6-0.7-0.6-1.2-0.6-2.3 0-9 2.1-23.7 6.6l-0.9 0.3-0.9-0.3c-0.1-0.1-9.8-3.6-21.3-3.6q-1.5 0-2.8 0c-1.2 0.1-7.7 3.2-16 16.3l-0.6 0.9-0.9 0.3c-0.2 0-14.5 4.7-29.7 9l-0.9 0.3-1-0.4c-0.1-0.1-6-2.8-11.7-5.4q0.7 0.3 1.3 0.5c5.6 4.9 16.3 14.1 17.4 15.4q0.3 0.3 0.7 0.7-0.1-0.1-0.2-0.3-0.1-0.1-0.2-0.2-0.1-0.1-0.2-0.2-0.1-0.2-0.2-0.3c2.5 2.3 5.2 4.4 8.2 5.8 1.5 0.7 3.1 1.2 4.7 1.5q1.2 0.2 2.4 0.2 1.2 0 2.5-0.1 5-0.2 10-0.7 5.1-0.5 10.1-1.1 5-0.5 10-1.3 2.5-0.3 5-0.8c0.8-0.2 1.6-0.4 2.2-0.7 0.6-0.3 1.3-0.8 1.9-1.4 1.2-1 2.4-2.2 3.6-3.4q0.5-0.5 0.9-0.9 0.5-0.5 0.9-0.9 0.5-0.5 0.9-1 0.4-0.4 0.9-0.9c1.9-2 3.6-4.2 5.5-6.3q0.4-0.5 0.8-0.9 0 0 0 0v0.1q0.6 0.4 1.2 0.8c2.3 1.8 4.6 3.6 6.9 5.2 3 2.1 5.9 4.1 9 5.9 0.8 0.4 1.6 0.8 2.3 1q0.2 0.1 0.3 0.1c0.1 0 0.3 0.1 0.3 0.1q0.2 0 0.5 0 0.6 0 1.3 0c1.7-0.1 3.5-0.4 5.3-0.7q5.3-0.8 10.5-1.9 5.3-1 10.6-2.1 1.3-0.3 2.6-0.6 1.3-0.3 2.6-0.6 1.3-0.3 2.6-0.6 1.3-0.3 2.6-0.7c1.8-0.4 3.5-0.9 5-1.6 1.6-0.7 3.1-1.7 4.4-2.9 2.7-2.3 5-5.2 6.9-8.3q0.3-0.6 0.6-1.3 0.4-0.6 0.7-1.3 0.3-0.7 0.5-1.4 0.3-0.6 0.5-1.3zm-65.7-165.7h6.2v-12.5h-45.3v12.5h6.2v-6.3h12.8v38.8h-5.2v7.2h17.8v-7.2h-5.3v-38.8h12.8z"/>
	<path id="Layer" class="s9" d="m202.3 113q0 0 0 0 0 0 0 0 0 0 0 0 0 0 0 0-1-0.1-1.9-0.1-1-0.1-2-0.2-0.9 0-1.9-0.1-0.9-0.1-1.9-0.1h-0.2c-12 10.5-35.7 18.4-41.6 20.3q-0.2 0.2-0.4 0.3c7.7-1.3 19.2-4.1 31.1-9.4 5.9-2.6 11.9-5.8 17.5-9.7q0.7-0.5 1.3-1zm-62.2-2.4c-22.6 5.7-37.1 14.4-42.6 18q1.9-0.9 3.8-1.9 1.9-0.9 3.8-1.8 1.9-0.9 3.9-1.7 1.9-0.9 3.9-1.7 0.2-0.1 0.4-0.2 0.3-0.1 0.5-0.2 0.2-0.1 0.5-0.2 0.2-0.1 0.5-0.2 0.3-0.1 0.5-0.2 0.8-0.3 1.6-0.7 0.5-0.1 0.9-0.3 0.7-0.3 1.5-0.6 0.5-0.2 1.1-0.4 0.6-0.2 1.3-0.5 0.6-0.2 1.3-0.4 0.6-0.3 1.2-0.5 0.8-0.2 1.5-0.5 0.6-0.2 1.1-0.4 0.9-0.3 1.8-0.6 0.4-0.1 0.9-0.3 1.4-0.4 2.8-0.8 3-1 6.1-1.8 1-0.3 2.1-0.6 1-0.2 2-0.5 1.1-0.2 2.1-0.5 1.1-0.2 2.1-0.5-3.3 0-6.6 0zm-42.9 1c-16.2 3.4-46.2 12.5-73.6 35.9q-0.4 0.4-0.8 0.9c13.9-9.7 37.9-24.1 67.5-32.8q1.4-0.5 2.8-0.9 1.9-0.5 3.8-1 1.9-0.5 3.8-0.9 1.9-0.5 3.8-0.9 1.9-0.4 3.8-0.7-5.6 0.2-11.1 0.4zm129.3 93.6q-0.1 0-0.2 0.1-0.1 0-0.2 0.1-0.2 0-0.3 0.1-0.1 0-0.2 0.1-0.2 0.1-0.4 0.2l-0.4 0.2-0.6 0.2q-0.1 0.1-0.2 0.1-0.3 0.2-0.6 0.3l-0.2 0.1q-0.3 0.2-0.6 0.3l-0.1 0.1q-0.7 0.3-1.4 0.7-0.2 0.7-0.5 1.3-0.2 0.7-0.5 1.4-0.3 0.7-0.7 1.3-0.3 0.7-0.6 1.3 0 0 0 0c-1.9 3.2-4.2 6-6.9 8.3-1.4 1.2-2.8 2.2-4.4 2.9-1.5 0.7-3.2 1.2-5 1.6q-5.2 1.3-10.4 2.5-1.4 0.3-2.7 0.5-1.3 0.3-2.6 0.6-1.3 0.3-2.6 0.5-1.4 0.3-2.7 0.5-5.2 1.1-10.5 1.9c-1.8 0.3-3.6 0.6-5.3 0.7q-0.2 0-0.3 0-0.2 0-0.3 0-0.2 0-0.4 0-0.1 0-0.3 0 0 0-0.1 0-0.1 0-0.2 0 0 0-0.1 0-0.1 0-0.1 0-0.1 0-0.1 0 0-0.1-0.1-0.1 0 0 0 0-0.1 0-0.1 0 0 0-0.1 0 0 0 0 0-0.1 0-0.1 0 0-0.1-0.1-0.1c-0.7-0.2-1.5-0.6-2.3-1-3.1-1.8-6-3.8-9-5.9-2.3-1.6-4.6-3.5-6.9-5.2l-0.2 0.3q0.2 0.2 0.4 0.4-0.1-0.1-0.3-0.2l1.9 2.3q0 0 0.2 0.2c1 1.2 5.1 5.9 10 10.8 3.7 3.6 8.2 5.5 13.3 5.5 1.7 0 3.6-0.2 5.4-0.7 1.8-0.4 3.6-0.8 5.6-1.3 5.6-1.4 11.9-2.9 16.1-4q0.4-0.1 0.8-0.2 0.9-0.2 1.6-0.4 0.3-0.1 0.6-0.2 0.4 0 0.7-0.1 0.3-0.1 0.6-0.2 0.3 0 0.6-0.1c5.1-1.2 12-2.8 15.7-10.2q0.4-0.8 0.8-1.6 0.4-0.8 0.8-1.6 0.5-0.9 0.9-1.7 0.4-0.8 0.8-1.6 0.7-1.4 1.4-2.7 0.7-1.3 1.4-2.7 0.7-1.3 1.4-2.7 0.7-1.3 1.4-2.6 0 0 0 0l0.3-0.7zm-83 15.9l-0.3-0.4c-1.9 2.2-3.6 4.4-5.6 6.4q-0.4 0.5-0.8 0.9-0.5 0.5-0.9 1-0.5 0.4-0.9 0.9-0.4 0.4-0.9 0.9c-1.2 1.2-2.4 2.4-3.6 3.4-0.7 0.5-1.4 1.1-1.9 1.4-0.7 0.3-1.5 0.5-2.3 0.6-1.6 0.4-3.2 0.7-4.9 0.9q-5 0.8-10 1.3-5.1 0.6-10.1 1.1-5 0.5-10.1 0.7-1.2 0.1-2.5 0.1-1.2 0-2.4-0.2c-1.6-0.3-3.1-0.8-4.6-1.5-3-1.4-5.8-3.5-8.2-5.8q0.5 0.6 1 1.2-0.1-0.1-0.2-0.2-0.4-0.4-0.7-0.7c-1.2-1.3-11.9-10.5-17.4-15.4q-0.7-0.2-1.3-0.5 0.4 0.6 0.8 1.1 0.4 0.6 0.8 1.2 0.4 0.6 0.8 1.2 0.4 0.6 0.8 1.1 0.6 0.9 1.2 1.8 0.7 0.9 1.3 1.8 0.6 0.9 1.3 1.7 0.6 0.9 1.2 1.8 0.3 0.4 0.6 0.7 0.3 0.4 0.6 0.8 0.2 0.3 0.5 0.7 0.3 0.4 0.6 0.7c6 7.9 13.7 15.1 28.3 15.1 1.9 0 3.8-0.1 5.8-0.4q0.7-0.1 1.4-0.1 0.6-0.1 1.2-0.2c12.8-1.4 16.3-2.1 18.2-2.4 0.5-0.1 0.9-0.2 1.4-0.2q0.3-0.1 0.6-0.1c0 0 4.3-0.6 8.6-2.6 2.9-1.4 5.7-3.5 7.1-6.7 3.5-7.9 4.3-9.8 4.3-9.8z"/>
	<path id="Layer" fill-rule="evenodd" class="s0" d="m195.3 162.2c-3.7-1.8-7.8 0.4-15.2 0.6-5.5 0.2-10.2 0.2-10.5-8.4-0.3-8.7 3.3-15.9 8.8-16.1 5.5-0.2 10.5 6.7 11.2 15.4 0.2 2.3 0 4.1-0.6 5.4 5.1-0.6 6.3 2.9 6.3 3.1zm-17.3-12.8q0.5 0 1-0.2 0.5-0.2 0.9-0.6 0.4-0.4 0.6-0.9 0.2-0.6 0.2-1.1 0-0.6-0.2-1.1-0.2-0.5-0.6-0.9-0.4-0.4-1-0.6-0.5-0.2-1-0.2-0.6 0-1.1 0.2-0.5 0.3-0.9 0.7-0.4 0.4-0.6 0.9-0.2 0.5-0.2 1.1 0 0.5 0.2 1.1 0.2 0.5 0.7 0.9 0.4 0.3 0.9 0.6 0.5 0.2 1.1 0.1zm-70.6 6.7c0.1 8.7-4.5 8.1-10.1 8.2q-0.8 0-1.6 0-0.9 0-1.8 0c-5.3 0-8.7-0.2-11.8 1.4 0.1-0.2 1.4-3.1 6.2-4.4-0.5-1.1-0.8-2.8-0.9-5-0.3-8.7 5-15.8 10.5-15.9 5.5 0 9.4 7 9.5 15.7zm-8.5-4.6q0.5 0 1-0.2 0.5-0.2 0.9-0.6 0.4-0.4 0.6-1 0.2-0.5 0.2-1 0-0.6-0.2-1.1-0.3-0.5-0.7-0.9-0.4-0.4-0.9-0.6-0.5-0.2-1.1-0.2c-0.7 0-1.5 0.3-2 0.9-0.5 0.5-0.8 1.3-0.7 2 0 0.7 0.3 1.5 0.8 2 0.6 0.5 1.3 0.8 2.1 0.7zm127.5-47.9c-1.7-0.7-3.5-1.2-5.3-1.7q-0.7-0.1-1.3-0.3-0.7-0.1-1.4-0.3-0.6-0.1-1.3-0.3-0.7-0.1-1.4-0.2-5.4-1.1-10.9-1.7-5.5-0.8-11-1.2c-3.7-0.3-7.4-0.7-11-0.9-14.8-0.9-29.5-1.1-44.3-1.1-14.8 0-29.5 0.3-44.3 1.1-3.6 0.2-7.3 0.6-11 0.9q-5.5 0.4-11 1.2-5.5 0.6-10.9 1.7-0.7 0.1-1.4 0.2-0.7 0.2-1.3 0.3-0.7 0.2-1.4 0.3-0.7 0.2-1.3 0.3c-1.8 0.5-3.6 1-5.3 1.7q0.1-0.1 0.3-0.2l0.6-0.3q0.5-0.3 1.1-0.6h0.1q0 0 0.1-0.1 0.1 0 0.2-0.1 0.1 0 0.2-0.1 0.1 0 0.1-0.1c2.5-1.1 5.1-2 7.6-2.8q0.5-0.2 0.9-0.3 0-0.1 0-0.2c-0.1-0.3-0.7-5.2-0.3-12.8q0-1.4 0.1-2.8 0.2-1.4 0.3-2.8 0.2-1.4 0.4-2.8 0.1-1.4 0.4-2.8 0-0.3 0.1-0.5 0.1-0.2 0.3-0.4 0.2-0.2 0.4-0.3 0.2-0.1 0.4-0.2l3.8-1.1c0.8-29.1 12.8-42.8 13.1-43.2-10.7 17.3-10.6 37.7-10.4 42.5l23.3-6.7q0.1 0 0.1 0 0.1 0 0.3 0 0 0 0.1 0 0 0 0.1 0 0 0 0.1 0 0 0 0.1 0 0 0 0.1 0 0 0 0 0 0.1 0 0.1 0 0 0 0.1 0.1 0 0 0 0 0.1 0 0.1 0 0.1 0 0.1 0.1 0.1 0 0.1 0 0 0 0 0 0.1 0.1 0.1 0.1 0 0 0.1 0 0 0 0 0.1h0.1q0 0 0 0.1c0 0 0.7 0.6 1.7 1.5-0.3-7.7 0.1-29.7 10.6-48-0.1 0.2-1 2.9-2.1 7.3-2.3 9.4-5.5 26.5-3.6 45q0.3 0.3 0.7 0.6 0.4 0.2 0.7 0.5 0.4 0.3 0.7 0.5 0.4 0.3 0.8 0.5 0.1 0.2 0.3 0.3 0.1 0.2 0.2 0.3 0.1 0.2 0.2 0.4 0 0.2 0 0.4c0 0.1 0.2 8.8 4.1 16.2q0 0.2 0.1 0.4c9.6-0.7 19.1-0.9 28.7-0.9 9.6 0 19.1 0.2 28.7 0.9q0-0.2 0.1-0.4c3.9-7.4 4.1-16.1 4.1-16.2q0-0.2 0-0.4 0.1-0.2 0.2-0.4 0.1-0.1 0.2-0.3 0.2-0.1 0.3-0.3 0.4-0.2 0.7-0.5 0.4-0.2 0.7-0.5 0.4-0.2 0.7-0.5 0.4-0.3 0.7-0.5 0.1-0.1 0.1-0.1 0-0.1 0-0.3c2-19.4-1.6-37.3-4-46.2-0.9-3.5-1.6-5.6-1.7-5.8 7.3 12.6 9.7 27 10.4 37.2l0.1 1.2c0.2 4.1 0.2 7.4 0.2 9.6 0.9-0.9 1.6-1.5 1.6-1.5q0-0.1 0-0.1 0.1 0 0.1 0 0-0.1 0-0.1 0.2-0.1 0.3-0.1 0 0 0.1-0.1 0 0 0.1 0 0 0 0 0 0.1-0.1 0.1-0.1 0 0 0.1 0 0 0 0 0 0.1 0 0.1 0 0.1 0 0.1 0 0.1 0 0.1 0 0.1 0 0.1 0 0.1 0 0.1 0 0 0 0.1 0 0 0 0.1 0 0 0 0 0 0.1 0 0.1 0 0 0 0.1 0l23.3 6.7c0.2-4.8 0.3-25.2-10.4-42.5 0.3 0.4 12.3 14.1 13.1 43.2l3.8 1.1q0.2 0.1 0.4 0.2 0.2 0.1 0.4 0.3 0.2 0.2 0.3 0.4 0.1 0.2 0.1 0.5c0.7 4.1 1.1 7.9 1.2 11.2 0.4 7.6-0.2 12.5-0.3 12.8q0 0 0 0 0 0.1 0 0.1 0 0 0 0.1 0 0 0 0 0.4 0.1 0.9 0.3c2.5 0.8 5.1 1.7 7.5 2.8q0.1 0.1 0.2 0.1 0.1 0.1 0.2 0.1 0.1 0.1 0.2 0.1 0.1 0.1 0.2 0.1 0.6 0.3 1.1 0.6 0.3 0.1 0.6 0.3 0.2 0.1 0.3 0.2zm-45.1-33.2c-1.7 1.6-4.1 3.6-6.5 5.3-0.1 2.4-0.8 9.4-3.9 15.9q1 0 2 0.1 1.1 0.1 2.1 0.2 1.1 0.1 2.1 0.2 1 0.1 2.1 0.2-0.2-0.4 0-0.9c2.1-7.9 2.3-16.3 2.1-21zm-75.2 21.1c-3.1-6.5-3.7-13.4-3.9-15.8-2.4-1.7-4.7-3.7-6.5-5.3-0.1 4.7 0 13.1 2.1 21q0.2 0.5 0 0.9 4.2-0.4 8.3-0.8zm-11.5 1.2q0-0.2-0.1-0.4-0.5-1.7-0.8-3.4c-1.7-8.1-1.6-16.1-1.4-20l-26.4 7.5c-1.6 10.3-1.1 18.1-0.8 20.8q0 0.6 0.1 0.8 3.2-0.9 6.6-1.6c3.6-0.8 7.3-1.5 11-2.1 3.6-0.6 7.4-1.1 11.1-1.6q0.3 0 0.7 0zm116.5-16.3l-26.4-7.5c0.2 4.1 0.3 12.5-1.6 21q-0.3 1.2-0.6 2.4-0.1 0.2-0.1 0.4 0.4 0 0.7 0c7.5 0.9 14.9 2.1 22.2 3.7q0.8 0.2 1.6 0.4 0.8 0.2 1.7 0.4 0.8 0.2 1.6 0.4 0.8 0.2 1.6 0.4 0.1-0.2 0.1-0.4 0-0.2 0-0.4 0-0.2 0.1-0.4 0-0.2 0-0.4c0.2-3.2 0.5-10.6-0.9-20z"/>
	<path id="Layer" fill-rule="evenodd" class="s0" d="m150.8 46.8v-6.4h-3.5v29.6h5.3v16.5h-27.2v-16.5h5.3v-29.6h-3.5v6.4h-15.5v-21.9h54.6v21.9c0 0-15.5 0-15.5 0zm4.6-11v6.3h6.2v-12.5h-45.3v12.5h6.2v-6.3h12.8v38.8h-5.2v7.2h17.8v-7.2h-5.3v-38.8c0 0 12.8 0 12.8 0z"/>
</svg>