<svg version="1.2" xmlns="http://www.w3.org/2000/svg" viewBox="0 0 256 256" width="256" height="256">
	<title>travisci-svg</title>
	<style>
		.s0 { fill: #0e0f0d } 
		.s1 { fill: #e1c5a2 } 
		.s2 { fill: #a89983 } 
		.s3 { fill: #ffffff } 
		.s4 { fill: #e0d896 } 
		.s5 { fill: #d7c184 } 
		.s6 { fill: #9f8f78 } 
		.s7 { fill: #6e6a67 } 
		.s8 { fill: #93232c } 
		.s9 { fill: #731b2a } 
		.s10 { fill: #2a2d2e } 
	</style>
	<path id="Layer" class="s0" d="m254.6 90.4q-0.1-1.4-0.4-2.8-0.1-0.3-0.1-0.7-0.1-0.3-0.2-0.7-0.1-0.3-0.2-0.7-0.1-0.3-0.2-0.7l-0.7-1.1c-2.9-2.3-6.1-4.1-9.3-5.6-2.6-1.2-5.3-2.3-8-3.3-7.6-21.1-20.7-39.8-37.8-52.8-17.7-13.4-38.6-20.5-60.3-20.5-21.7 0-42.5 7.1-60.2 20.5-17.2 13-30.2 31.7-37.8 52.8-2.7 1-5.4 2.1-8.1 3.3-3.2 1.5-6.3 3.3-9.3 5.6l-0.7 1.1q-0.1 0.4-0.2 0.7-0.1 0.4-0.1 0.7-0.1 0.4-0.2 0.7-0.1 0.4-0.1 0.7-0.3 1.4-0.5 2.8-0.1 0.7-0.2 1.4-0.1 0.7-0.1 1.4-0.1 0.7-0.1 1.4-0.1 0.7-0.1 1.4-0.1 1.4-0.1 2.8 0 1.4 0 2.7 0.1 1.4 0.2 2.8 0 1.4 0.2 2.8 0.1 1.4 0.4 2.8 0.2 1.4 0.4 2.7 0.3 1.4 0.6 2.8 0.3 1.4 0.7 2.7 0.2 0.7 0.4 1.4 0.2 0.6 0.4 1.3 0.2 0.7 0.5 1.3 0.2 0.7 0.5 1.4 0.5 1.3 1.1 2.6 0.3 0.6 0.7 1.3c0.5 0.9 0.6 1.1 0.8 1.4l0.9 0.9c0.7 0.3 1.2 0.5 1.7 0.8l1.7 0.8q0.5 0.1 0.9 0.3c-7.5 7-15.7 16-22.8 27.2l-8.9 14.1 12.5-11c0.3-0.2 10.8-9.3 28.3-19.6l0.3 2c-1.2 0.6-6.7 3.5-8.3 4.9-2.7 2.2-2.9 5.7-2.2 12.3 0.4 3.3 1.7 9.8 3.4 15.8 2.9 10.2 5 12 6.9 12.5 0.9 0.2 1.9 0.3 3.2 0.3 3.3 0 7.6-0.7 10.4-1.5 3.3 10.2 8 19.5 13.7 27.6q-0.4 0.1-0.8 0.2c-3.4-1.6-15.4-7.1-19.4-8.9l-8.4-3.8 4.9 7.8c0.4 0.5 9 13.9 16 22.9 6.5 8.4 15.5 17 32.4 17q3.1 0 6.4-0.3c5.1-0.6 8.8-1.1 11.7-1.5 17.8 6.6 37.4 7 56-0.1q1.8-0.7 3.6-1.4 1.8-0.8 3.6-1.7 1.7-0.8 3.4-1.8 1.7-0.9 3.4-2c7.2-1.7 15-3.6 18.9-4.7 0.6-0.1 1.4-0.3 2.2-0.5 5.4-1.2 14.4-3.3 19.2-13 4.9-9.7 12.8-24.5 12.8-24.7l3.7-6.9-7.2 3.1c-0.3 0.2-9.5 4.1-14.2 6.6 3.3-7.6 5.2-13.8 5.9-16.2 2.7 0.6 6.6 0.5 9.5 0.5 1.4 0 2.9-0.2 3.8-0.5 1.9-0.4 3.4-1.7 6.1-12.3 1.6-6.1 2.7-12.8 3-16.3 0.6-6.7 0.4-10.3-2.3-12.5-1.4-1.2-5.4-3.3-7.4-4.4 1.1-0.5 1.7-0.3 1.7-0.3l1.9-7q1-0.4 2.1-0.9 1.7-0.6 3.4-1.3l1.6-0.8c0.6-0.3 1.1-0.5 1.7-0.8l1-0.9c0.2-0.3 0.3-0.5 0.4-0.7 0.6-1.1 0.9-1.6 1.1-2q0.6-1.3 1.1-2.6 0.3-0.7 0.5-1.4 0.2-0.6 0.5-1.3 0.2-0.7 0.4-1.3 0.2-0.7 0.4-1.4 0.4-1.3 0.7-2.7 0.3-1.4 0.5-2.8 0.3-1.3 0.5-2.7 0.2-1.4 0.4-2.8 0.6-5.5 0.3-11.1-0.1-0.7-0.1-1.4-0.1-0.7-0.1-1.4-0.1-0.7-0.2-1.4-0.1-0.7-0.2-1.4z"/>
	<path id="Layer" class="s1" d="m149.1 234.6q-2.1 0.3-4.1 0.5c-0.9 0.1-1.8 0.1-2.6 0.1h-0.3c1-2.3 1.8-4.1 2.4-5.5 1.2 1.4 2.8 3.1 4.6 4.9z"/>
	<path id="Layer" fill-rule="evenodd" class="s2" d="m147.4 130c-2.1 1.7-4.3 3.3-6.7 4.7l-7.8 4.7c-4.8 0.6-9.1 1.8-9.3 1.9q-0.2 0.1-0.4 0.2-0.2 0.1-0.3 0.2-0.1 0.1-0.2 0.2-0.1 0.2-0.2 0.3-0.1 0.1-0.1 0.3l-8 26.1-42.3 9.4-13.4-9.3-3.8-31.4c7.5-1.4 17.7-3 29.8-4.4q-0.5 0.6-0.9 1.2-0.5 0.6-1 1.2-0.5 0.6-0.9 1.2-0.5 0.7-0.9 1.3l-7.3 10.4 10.6-7c0.1-0.1 6.9-4.6 17.8-9.9q4.5-0.4 9-0.6 4.5-0.3 9-0.4 4.5-0.2 9-0.3 4.5-0.1 9-0.1 4.8 0 9.3 0.1zm-65.9 35.4c3-1.6 6.4-1.4 11.7-1.4q0.9 0.1 1.8 0 0.8 0 1.6 0c5.5 0 10 0.5 10-8.1-0.1-8.6-4-15.6-9.4-15.5-5.5 0-10.8 7.1-10.5 15.7 0.1 2.2 0.4 3.8 1 5-4.8 1.2-6.1 4.1-6.2 4.3zm139.3-28.2l-3.8 26.7-13.4 9.4-42.3-4.8-7.9-26q-0.1-0.2-0.2-0.4-0.1-0.2-0.3-0.3-0.1-0.2-0.3-0.3-0.2-0.1-0.4-0.2c-0.3-0.1-5.5-1.6-11.1-2l1-0.1c0.9-0.1 15.5-1.9 32.9-7.9 19.3 1.5 35.1 3.9 45.8 5.9zm-27 24.7c-0.1-0.2-1.2-3.7-6.3-3.1 0.6-1.2 0.8-3 0.7-5.3-0.7-8.6-5.7-15.5-11.2-15.3-5.5 0.2-9 7.3-8.7 16 0.3 8.6 4.9 8.5 10.4 8.3 7.4-0.1 11.4-2.4 15.1-0.6z"/>
	<path id="Layer" class="s3" d="m179.3 146.4q0 0.6-0.2 1.1-0.2 0.5-0.6 0.9-0.3 0.4-0.9 0.6-0.5 0.3-1 0.3-0.6 0-1.1-0.2-0.5-0.2-0.9-0.6-0.4-0.4-0.6-0.9-0.3-0.5-0.3-1.1 0-0.5 0.2-1 0.2-0.6 0.6-1 0.4-0.4 0.9-0.6 0.5-0.2 1.1-0.2 0.5 0 1.1 0.2 0.5 0.2 0.9 0.6 0.4 0.4 0.6 0.9 0.2 0.5 0.2 1zm-78.5 2.1q0 0.5-0.2 1.1-0.2 0.5-0.6 0.9-0.3 0.4-0.8 0.6-0.6 0.2-1.1 0.3-0.6 0-1.1-0.2-0.5-0.2-0.9-0.6-0.4-0.4-0.7-0.9-0.2-0.5-0.2-1.1 0-0.5 0.2-1 0.2-0.6 0.6-1 0.4-0.4 0.9-0.6 0.5-0.2 1-0.2 0.6-0.1 1.1 0.1 0.5 0.2 0.9 0.6 0.4 0.4 0.7 0.9 0.2 0.5 0.2 1.1z"/>
	<path id="Layer" class="s1" d="m239.3 148.9c-0.7-0.5-2.9-1.8-5-3l-3.6 24.9q0 0.2-0.1 0.3 0 0.2-0.1 0.4-0.1 0.1-0.2 0.3-0.2 0.1-0.3 0.2l-5.1 3.5c-0.1 0.6-0.2 1.1-0.3 1.6 5 1.2 9.8-2.4 12.5-5 1.3-4.9 2.4-10.7 2.8-14.8 0.6-6.5 0-7.9-0.6-8.4zm-78.3 94.4c-3.3-1.2-6.4-3.1-9-5.7q-0.3-0.3-0.6-0.6-0.8 0.1-1.6 0.3-0.7 0.1-1.5 0.2-0.8 0.1-1.6 0.2-0.8 0.1-1.6 0.2c-0.8 0-1.7 0.1-2.6 0.1h-1.4-0.5c-3.2 4.7-8.5 7.2-12.6 8.6 12.3 2.1 25.8-1.1 33-3.3zm-108.4-60.8q-0.2-0.6-0.3-1.2l-6.6-4.6q-0.2-0.1-0.3-0.2-0.1-0.2-0.2-0.3-0.1-0.2-0.2-0.4-0.1-0.1-0.1-0.3l-3.2-26.1c-2.4 1.3-5.1 2.8-5.9 3.4-0.6 0.6-1.1 1.9-0.4 8.1 0.5 4.7 2.2 11.9 3.9 17.3 3.3 2.5 8.2 5.2 13.3 4.3zm98.5-1.2q-0.3-0.1-0.5-0.2-0.2-0.1-0.4-0.2-0.2-0.2-0.4-0.4-0.1-0.2-0.2-0.5l-8.1-26.8q-2.1-0.3-3.6-0.3-1.6 0-3.6 0.3l-7.9 26q-0.1 0.3-0.2 0.5-0.1 0.2-0.3 0.3-0.2 0.2-0.4 0.3-0.2 0.1-0.4 0.2l-3.8 0.8c-0.3 1.3-1.4 3.3-4.9 4.4-5.7 1.7-41.5 12.4-45.6 11.8-2.4-0.4-6.9-2.9-10.2-4.9-1.4-3.1-2.1-5.3-2.3-5.8 0.5 1.4 5.1 14.8 14.6 28 10.2-3 19-5.8 21.8-6.7 5.7-8.8 13.9-17.6 19.7-17.9q0.4 0 0.7 0 0.4 0 0.8 0 0.4 0 0.8-0.1 0.4 0 0.7 0c2.9 0 5.6 0.2 8.1 0.5-2.1-1.9-2.6-4.2-2.9-5.2 0 0 7.4 5.8 16.8 4.6 9.4-1.2 15.3-6.6 15.3-6.6l0.2-1.7c0 0-3.8-0.4-3.8-0.4z"/>
	<path id="Layer" class="s1" d="m158.8 184.7c-2-0.5-3.2-1.3-4-2.2l-0.1 0.9c0 0 0 3.9-4.1 7 7.9-2.4 11.1-3.2 13.4-3.2 2.4 0 3.6 1 4.7 1.9q0.3 0.3 0.6 0.5 2 1.6 3.9 3.1 2 1.5 3.9 3.1 1.9 1.5 3.9 3 1.9 1.6 3.8 3.1c2.5 0.3 10.3 1.2 15.3 1.7 2.8 0.2 5.4 0.4 7.9 0.4q1.2 0 2.3 0c2.6-5 5-10.5 7.1-16.6-2.9 2-9.5 6.5-12.6 7.1-4.1 0.8-40.3-8.4-46.1-9.8z"/>
	<path id="Layer" class="s4" d="m250 90.9q-0.1-0.3-0.1-0.6 0-0.3-0.1-0.6 0-0.4 0-0.7-0.1-0.3-0.1-0.6 0-0.3-0.1-0.5 0-0.2 0-0.4-0.1-0.3-0.1-0.5 0-0.2-0.1-0.4c-2.3-2-4.9-3.7-7.6-5.2-2.9-1.8-6-3.3-9.1-4.7-3.1-1.5-6.3-2.8-9.5-4.1q-0.6-0.3-1.2-0.5-0.7-0.2-1.3-0.5-0.6-0.2-1.2-0.4-0.6-0.3-1.2-0.5-2.4-0.9-4.9-1.8c3.5 0.6 6.9 1.3 10.2 2.2q3.3 0.9 6.6 1.9c-15.5-40.4-52.4-66.7-92.8-66.7-40.3 0-77.3 26.3-92.7 66.7q3.2-1 6.5-1.9c3.4-0.9 6.8-1.6 10.2-2.2q-2.4 0.9-4.9 1.8-0.6 0.2-1.2 0.5-0.6 0.2-1.2 0.4-0.6 0.3-1.2 0.5-0.6 0.3-1.2 0.5c-3.2 1.3-6.4 2.6-9.5 4.1-3.2 1.4-6.2 2.9-9.2 4.7-2.7 1.5-5.3 3.2-7.6 5.2q0 0.2 0 0.4-0.1 0.2-0.1 0.5 0 0.2-0.1 0.4 0 0.3 0 0.5-0.1 0.3-0.1 0.6 0 0.3-0.1 0.7 0 0.3 0 0.6-0.1 0.3-0.1 0.6-0.1 0.7-0.1 1.3 0 0.7-0.1 1.3 0 0.7 0 1.3 0 0.7 0 1.3c-0.1 3.5 0.2 7 0.6 10.4 0.5 3.4 1.1 6.8 2 10.1q0.2 0.6 0.4 1.3 0.2 0.6 0.4 1.2 0.2 0.6 0.4 1.2 0.2 0.6 0.4 1.2 0.5 1.2 1 2.3 0.3 0.6 0.5 1.1l0.3 0.4q0.3 0.2 0.7 0.4l1.6 0.7c0.8 0.4 2 1 3 1.4q0.1 0 0.1-0.1l-2.8-10.9c0.6-0.1 6-1.5 15.3-3.3q-0.2-0.1-0.5-0.1-0.3-0.1-0.6-0.1-0.3-0.1-0.5-0.2-0.3 0-0.6-0.1c-2.1-0.5-4.2-1.2-6.3-2q-1.5-0.6-2.9-1.4c-1-0.6-1.9-1.2-2.6-2 10.2 3.3 31.4 1.8 50.3-0.1 17.2-1.8 34.5-2.9 51.8-3 17.4 0.1 34.7 1.2 51.9 3 18.8 1.9 40 3.4 50.3 0.1-0.7 0.8-1.7 1.4-2.6 2q-1.4 0.8-3 1.4c-2 0.8-4.1 1.5-6.2 2q-0.5 0.1-1 0.2c10.3 1.9 16.2 3.5 16.9 3.6l-2.8 10.4q0.9-0.4 1.7-0.8l1.5-0.7q0.4-0.2 0.8-0.4l0.2-0.4q0.3-0.5 0.5-1.1 0.6-1.1 1-2.3 0.2-0.6 0.5-1.2 0.2-0.6 0.4-1.2 0.2-0.6 0.4-1.2 0.1-0.7 0.3-1.3c0.9-3.3 1.6-6.7 2-10.1 0.5-3.5 0.7-6.9 0.7-10.4q0-0.6 0-1.3 0-0.6-0.1-1.3 0-0.6 0-1.3-0.1-0.6-0.1-1.3z"/>
	<path id="Layer" fill-rule="evenodd" class="s5" d="m179.9 70.8c0.1 4.7 0 13.1-2.1 20.9q-0.1 0.5 0 0.9-1.1-0.1-2.1-0.2-1-0.1-2-0.2-1.1-0.1-2.1-0.2-1-0.1-2.1-0.2c3.1-6.4 3.8-13.3 3.9-15.7 2.4-1.7 4.8-3.7 6.5-5.3zm-78.5 5.3c0.2 2.4 0.8 9.3 3.9 15.7q-4.1 0.4-8.2 0.8 0.1-0.4 0-0.9c-2.2-7.8-2.3-16.2-2.1-20.9 1.7 1.6 4 3.6 6.4 5.3zm112.5 10.2c1.4 5.8 4 13.4 8 16-2.4-1.1-4.9-2-7.5-2.8q-0.4-0.1-0.9-0.3 0 0 0 0 0 0 0-0.1 0.1 0 0.1 0 0-0.1 0-0.1c0-0.3 0.7-5.1 0.3-12.7zm-120.9 3c-1.1-2.3-2.2-5.3-3-8.9-1.3-5.9-8-3.9-12.2-2.9-4.1 1-9.6 2.4-10.5 4.6-1.7 4.2-2.6 15.3-2.6 15.3l-0.1 0.1c-0.3-2.7-0.8-10.5 0.8-20.7l26.2-7.4c-0.2 3.9-0.3 11.8 1.4 19.9zm116.4-12.5c1.5 9.3 1.2 16.6 1 19.9-0.3-2.5-1.1-11-2.6-14.6-0.9-2.2-6.3-3.6-10.5-4.6-4.2-1-10.9-3-12.2 2.9-0.9 4.2-2.2 7.5-3.4 9.8 1.9-8.4 1.8-16.8 1.6-20.8zm-104.7-49.8l0.7-2.1c0 0 1.1 58.1 14.6 58.1h35.3c12.8 0 14.2-51.5 14.3-57.5 2.3 8.8 6 26.5 4 45.8l-0.1 0.4q-0.4 0.2-0.7 0.5-0.3 0.3-0.7 0.5-0.3 0.3-0.7 0.5-0.3 0.3-0.7 0.5-0.2 0.1-0.3 0.3-0.1 0.1-0.2 0.3-0.1 0.2-0.2 0.4 0 0.2 0 0.4c0 0.1-0.2 8.7-4 16.1q-0.1 0.1-0.2 0.3c-9.5-0.6-19-0.9-28.5-0.9-9.4 0-19 0.3-28.4 0.9q-0.1-0.2-0.2-0.3c-3.8-7.4-4-16-4-16.1 0-0.5-0.3-1.1-0.7-1.4q-0.4-0.2-0.8-0.5-0.3-0.2-0.7-0.5-0.3-0.3-0.7-0.5-0.3-0.3-0.7-0.6c-1.9-18.4 1.3-35.4 3.6-44.6zm-44.3 72.5c-2.6 0.8-5.1 1.7-7.6 2.8 4.1-2.6 6.7-10.2 8.1-16-0.4 7.6 0.3 12.4 0.3 12.7q0 0.1 0 0.2-0.4 0.1-0.8 0.3z"/>
	<path id="Layer" class="s6" d="m224.6 177.1q-0.1 0.4-0.2 0.9 0 0.4-0.1 0.8-0.1 0.4-0.2 0.9-0.1 0.4-0.2 0.8c2.9 0.7 7.6 1.2 9.9 0.8 1-1.1 2.2-4.8 3.4-9.2-2.8 2.6-7.6 6.2-12.6 5zm-104.2 71.2c6.9 1.9 14 2.7 21 2.2 7-0.4 16.1-1.9 25.8-5.9q-0.8 0-1.6-0.1-0.8-0.2-1.6-0.3-0.7-0.2-1.5-0.4-0.8-0.2-1.5-0.5c-7.2 2.2-20.7 5.4-33 3.3-3.3 1.1-5.8 1.4-6.1 1.4-0.5 0.1-0.9 0.2-1.5 0.3zm-67.4-64.3q-0.2-0.8-0.4-1.5c-5.1 0.9-10-1.8-13.3-4.3 1 3.4 2.1 6.1 2.9 7 2.6 0.4 8.1-0.4 10.8-1.2zm7.6 8.6c3.3 2 7.8 4.5 10.2 4.9 4.1 0.6 39.9-10.1 45.6-11.8 3.5-1.1 4.6-3.1 4.9-4.4l-51.7 11.5q0 0-0.1 0 0 0-0.1 0 0 0-0.1 0 0 0-0.1 0-0.5 0-1-0.3l-2-1.4-6-4.2-2.5-1.7q0.1 0.2 0.2 0.4 0.2 0.6 0.4 1.2c0.2 0.5 0.9 2.7 2.3 5.8zm158.4-9.9q0.5-1.8 1-3.7l-1.8 1.3-4.9 3.3-5.2 3.7q-0.4 0.3-0.9 0.3 0 0-0.1 0 0 0 0 0-0.1 0-0.1 0-0.1 0-0.1 0l-52-5.9-0.1 0.8c0.8 0.8 2 1.7 4 2.2 5.7 1.4 41.9 10.5 46 9.8 3.1-0.6 9.7-5.1 12.6-7.1q0.1-0.1 0.1-0.2 0.2-0.6 0.4-1.1 0.2-0.6 0.4-1.2 0.2-0.5 0.3-1.1 0.2-0.5 0.4-1.1z"/>
	<path id="Layer" fill-rule="evenodd" class="s7" d="m164 112.6q-0.6 0.8-1.4 1.7c-2.4 3.2-5.9 7.1-9.9 11q-1.8 0-3.7-0.1-1.8 0-3.6 0-1.8-0.1-3.6-0.1-1.9 0-3.7 0c-8.2 0-16.1 0.2-23.6 0.6 10.6-4.4 23.3-8.7 37.1-11.3q1.6-0.3 3.1-0.5 1.5-0.3 3.1-0.5 1.5-0.2 3.1-0.4 1.5-0.2 3.1-0.4zm-62.1 4.8c-3.8 2.6-8.1 6-12.2 10.1q-3.5 0.4-6.9 0.8-3.5 0.4-6.9 0.8-3.5 0.5-6.9 1-3.4 0.5-6.9 1c11.8-5.4 25.2-10.3 39.8-13.7zm129.7 21.9l-4.3 30.2-20.7 14.5-53.9-6.1-8.2-26.8q0-0.2-0.2-0.4-0.1-0.2-0.3-0.4-0.2-0.2-0.4-0.3-0.2-0.1-0.5-0.1-3-0.5-5.2-0.5-2.3 0-5.3 0.5-0.2 0-0.5 0.1-0.2 0.1-0.4 0.3-0.1 0.2-0.3 0.4-0.1 0.2-0.2 0.4l-7.9 26.1-53.7 12-21.2-14.9-4.2-33.9q0.3-0.2 0.7-0.4 0.3-0.2 0.6-0.4 0.4-0.2 0.7-0.4 0.4-0.2 0.7-0.4 2-0.4 4.5-0.9l3.9 32c0.1 0.5 0.4 1 0.8 1.2l14.6 10.3c0.3 0.2 0.7 0.3 1 0.3q0.2 0 0.4 0l44.1-9.8q0.1-0.1 0.1-0.1 0.1 0 0.2 0 0 0 0.1-0.1 0 0 0.1 0c0.4-0.2 0.7-0.6 0.8-1.1l8-26.1c2.1-0.6 7.6-1.8 12.4-1.8 4.8 0 10.2 1.2 12.4 1.8l7.9 26.1c0.2 0.7 0.8 1.2 1.5 1.3l44.1 5c0.5 0.1 0.9-0.1 1.2-0.3l14.7-10.2c0.4-0.3 0.6-0.8 0.7-1.3l3.9-27.3c3 0.6 5.4 1.1 7.3 1.5zm5.5-19l-3.8 14.5c-7.8-1.8-24.8-5.1-48.1-7.4 7.6-3.2 15.3-7.3 22.4-12.4 13.8 2 24 4.1 29.5 5.3zm-188.9-1.8q-1 0.7-2 1.4-1.1 0.7-2 1.4-1 0.8-2 1.5-1 0.8-2 1.5l-1-4c2.2-0.5 5.3-1.1 9-1.8z"/>
	<path id="Layer" class="s8" d="m188.2 112.3q-8.7-0.5-17.5-0.8-0.2 0.3-0.5 0.7-0.2 0.3-0.5 0.7-0.2 0.3-0.5 0.7-0.2 0.3-0.5 0.7c-3.1 4.2-9.2 11.9-17.1 18.5 5.9-1.9 29.4-9.8 41.3-20.2q-0.6 0-1.1-0.1-0.6 0-1.2-0.1-0.6 0-1.2 0-0.6-0.1-1.2-0.1zm-42.6-1.5q-4.4-0.1-8.9-0.1-6.5 0-13 0.1l-8 3.8q0 0 0 0 0 0 0 0 0 0.1-0.1 0.1 0 0 0 0c-1.2 0.6-11.7 5.9-21.6 15.3q1.3-0.7 2.7-1.4c5.5-3.6 19.9-12.2 42.3-17.9q3.3 0 6.6 0.1zm-49.2 0.9q-5.6 0.3-11.1 0.6-6.4 0.4-12.8 0.9-3.3 0.2-6.4 0.5-0.9 0.1-1.8 0.2c-5.6 3.4-27 16.8-41.7 34.4q0.4-0.5 0.8-1c27.2-23.2 57-32.2 73-35.6zm123 95.4l-0.5 0.3c-2.7 1.4-6.3 2.1-10.9 2.1-2.7 0-5.4-0.2-8.4-0.5-6-0.5-16.1-1.7-16.2-1.7l-0.8-0.1-0.6-0.5c-0.1-0.1-8.9-7.1-16.1-12.7q-0.4-0.4-0.7-0.7c-0.8-0.6-0.8-0.6-1.2-0.6-2.3 0-9 2-23.6 6.6l-0.9 0.2-0.9-0.3c-0.1 0-9.7-3.6-21.2-3.6q-1.4 0-2.7 0.1c-1.2 0.1-7.6 3.1-15.9 16.2l-0.5 0.8-1 0.3c-0.1 0.1-14.3 4.7-29.4 9l-1 0.2-0.9-0.4c-0.1 0-6-2.8-11.6-5.3q0.6 0.3 1.3 0.5c5.5 4.8 16.1 14 17.3 15.3q0.2 0.3 0.6 0.6-0.1-0.1-0.2-0.2-0.1-0.1-0.2-0.2-0.1-0.1-0.2-0.3-0.1-0.1-0.2-0.2c2.5 2.3 5.2 4.3 8.2 5.7 1.5 0.7 3 1.3 4.6 1.5q1.2 0.2 2.4 0.2 1.2 0 2.5-0.1 4.9-0.2 10-0.7 5-0.4 10-1 4.9-0.6 9.9-1.3 2.5-0.4 4.9-0.9c0.8-0.2 1.6-0.4 2.2-0.7 0.6-0.2 1.3-0.8 1.9-1.3 1.2-1.1 2.4-2.3 3.6-3.4q0.4-0.5 0.9-0.9 0.4-0.5 0.9-0.9 0.4-0.5 0.8-0.9 0.5-0.5 0.9-1c2-2 3.6-4.2 5.5-6.3q0.4-0.4 0.8-0.8 0 0 0 0 0.6 0.5 1.2 0.9c2.2 1.7 4.6 3.5 6.8 5.1 3 2.1 5.9 4.1 9 5.8 0.7 0.5 1.5 0.9 2.3 1.1q0.1 0.1 0.2 0.1c0.1 0 0.3 0 0.3 0q0.2 0.1 0.5 0.1 0.7 0 1.3 0c1.7-0.2 3.5-0.4 5.2-0.7q5.3-0.8 10.5-1.9 5.3-1 10.5-2.1 1.3-0.3 2.6-0.6 1.3-0.3 2.6-0.6 1.3-0.3 2.6-0.6 1.3-0.3 2.6-0.6c1.7-0.5 3.4-0.9 4.9-1.6 1.6-0.8 3-1.8 4.4-2.9 2.6-2.3 4.9-5.1 6.8-8.2q0.3-0.7 0.6-1.3 0.4-0.7 0.7-1.3 0.3-0.7 0.5-1.4 0.3-0.7 0.5-1.4zm-65.2-164.3h6.2v-12.5h-45v12.5h6.2v-6.3h12.7v38.5h-5.2v7.2h17.7v-7.2h-5.3v-38.5h12.7z"/>
	<path id="Layer" class="s9" d="m200.8 113.2q0-0.1 0-0.1-0.1 0-0.1 0 0 0 0 0 0 0 0 0-0.9 0-1.9-0.1-0.9-0.1-1.9-0.1-0.9-0.1-1.9-0.2-1 0-1.9-0.1h-0.2c-11.9 10.4-35.4 18.3-41.3 20.2q-0.2 0.2-0.4 0.3c7.7-1.4 19.1-4.1 30.9-9.3 5.8-2.6 11.7-5.8 17.4-9.7q0.6-0.5 1.3-0.9zm-61.8-2.5c-22.4 5.7-36.8 14.3-42.3 17.9q1.9-0.9 3.8-1.9 1.9-0.9 3.8-1.8 1.9-0.8 3.8-1.7 2-0.8 3.9-1.6 0.2-0.1 0.5-0.2 0.2-0.1 0.4-0.2 0.3-0.1 0.5-0.2 0.2-0.1 0.5-0.2 0.3-0.1 0.6-0.3 0.7-0.3 1.5-0.6 0.5-0.2 0.9-0.3 0.7-0.3 1.4-0.6 0.6-0.2 1.1-0.4 0.7-0.3 1.4-0.5 0.6-0.2 1.2-0.5 0.6-0.2 1.3-0.4 0.7-0.3 1.4-0.5 0.6-0.2 1.2-0.4 0.8-0.3 1.7-0.6 0.4-0.1 0.9-0.3 1.4-0.4 2.7-0.8 3-1 6.1-1.8 1-0.3 2.1-0.5 1-0.3 2-0.6 1.1-0.2 2.1-0.5 1-0.2 2.1-0.4-3.3-0.1-6.6-0.1zm-42.6 1c-16 3.4-45.8 12.4-73 35.6q-0.4 0.5-0.8 1c13.8-9.7 37.6-23.9 67-32.6q1.4-0.5 2.8-0.9 1.9-0.5 3.8-1 1.8-0.4 3.7-0.9 1.9-0.4 3.8-0.8 1.9-0.4 3.8-0.8-5.6 0.2-11.1 0.4zm128.3 92.9q-0.1 0-0.2 0.1-0.1 0-0.2 0.1-0.1 0-0.2 0.1-0.1 0-0.2 0.1-0.2 0.1-0.5 0.2l-0.3 0.2-0.6 0.2q-0.1 0.1-0.2 0.1-0.3 0.2-0.7 0.3l-0.1 0.1q-0.3 0.2-0.7 0.3v0.1q-0.7 0.3-1.4 0.6-0.2 0.7-0.5 1.4-0.3 0.7-0.5 1.4-0.3 0.6-0.7 1.3-0.3 0.6-0.6 1.3 0 0 0 0c-1.9 3.1-4.2 5.9-6.9 8.2-1.3 1.1-2.7 2.1-4.3 2.8-1.5 0.8-3.2 1.2-4.9 1.7q-5.2 1.3-10.4 2.4-1.3 0.3-2.6 0.6-1.3 0.2-2.6 0.5-1.4 0.3-2.7 0.5-1.3 0.3-2.6 0.5-5.2 1.1-10.5 1.9c-1.7 0.3-3.5 0.5-5.2 0.7q-0.1 0-0.3 0-0.2 0-0.3 0-0.2 0-0.3 0-0.2 0-0.4 0 0 0-0.1 0-0.1 0-0.1 0-0.1 0-0.2 0 0 0-0.1-0.1 0 0-0.1 0 0 0 0 0-0.1 0-0.1 0 0 0-0.1 0 0 0 0 0-0.1 0-0.1 0 0-0.1-0.1-0.1 0 0 0 0c-0.8-0.2-1.6-0.6-2.3-1.1-3.1-1.7-6-3.7-9-5.8-2.2-1.6-4.6-3.4-6.9-5.1l-0.1 0.3q0.2 0.2 0.4 0.4-0.2-0.1-0.3-0.3l1.9 2.3q0 0 0.2 0.3c1 1.1 5 5.8 9.9 10.6 3.7 3.7 8.1 5.5 13.2 5.5 1.7 0 3.5-0.2 5.4-0.6 1.7-0.5 3.5-0.9 5.4-1.4 5.7-1.3 11.9-2.8 16.1-3.9q0.4-0.1 0.8-0.2 0.9-0.2 1.6-0.4 0.3-0.1 0.6-0.2 0.3-0.1 0.6-0.1 0.3-0.1 0.6-0.2 0.3-0.1 0.6-0.1c5.1-1.2 11.9-2.8 15.6-10.1q0.4-0.8 0.8-1.6 0.4-0.8 0.8-1.7 0.4-0.8 0.9-1.6 0.4-0.8 0.8-1.6 0.7-1.3 1.4-2.7 0.7-1.3 1.3-2.6 0.7-1.4 1.4-2.7 0.7-1.3 1.4-2.6 0 0 0 0l0.4-0.7zm-82.4 15.7l-0.3-0.3c-1.9 2.1-3.6 4.3-5.5 6.3q-0.5 0.5-0.9 1-0.4 0.4-0.9 0.9-0.4 0.4-0.9 0.9-0.4 0.4-0.8 0.9c-1.2 1.1-2.4 2.3-3.7 3.4-0.6 0.5-1.3 1.1-1.8 1.3-0.7 0.3-1.5 0.5-2.3 0.7q-2.4 0.5-4.9 0.9-4.9 0.7-9.9 1.3-5 0.6-10 1-5 0.5-10 0.7-1.2 0.1-2.5 0.1-1.2 0-2.3-0.2c-1.6-0.2-3.2-0.8-4.7-1.5-3-1.4-5.7-3.4-8.1-5.7q0.5 0.6 1 1.2-0.1-0.1-0.2-0.3-0.4-0.3-0.7-0.6c-1.2-1.3-11.8-10.5-17.3-15.3q-0.6-0.2-1.2-0.5 0.4 0.6 0.8 1.1 0.4 0.6 0.7 1.2 0.4 0.6 0.8 1.1 0.4 0.6 0.8 1.2 0.7 0.9 1.3 1.8 0.6 0.8 1.2 1.7 0.6 0.9 1.3 1.8 0.6 0.8 1.2 1.7 0.3 0.4 0.6 0.7 0.3 0.4 0.5 0.8 0.3 0.3 0.6 0.7 0.3 0.4 0.6 0.7c6 7.8 13.6 14.9 28.1 14.9 1.8 0 3.8-0.1 5.7-0.3q0.7-0.1 1.4-0.2 0.6 0 1.2-0.1c12.7-1.4 16.2-2.1 18.1-2.4 0.5-0.1 0.9-0.2 1.4-0.2q0.2-0.1 0.5-0.1c0.1 0 4.4-0.6 8.5-2.6 2.9-1.4 5.8-3.5 7.1-6.6 3.5-7.8 4.2-9.7 4.3-9.8z"/>
	<path id="Layer" fill-rule="evenodd" class="s0" d="m193.8 161.9c-3.7-1.8-7.7 0.5-15.1 0.6-5.5 0.2-10.1 0.3-10.4-8.3-0.3-8.7 3.2-15.8 8.7-16 5.5-0.2 10.5 6.7 11.2 15.3 0.1 2.3-0.1 4.1-0.7 5.3 5.1-0.6 6.2 2.9 6.3 3.1zm-17.2-12.6q0.5 0 1-0.3 0.6-0.2 0.9-0.6 0.4-0.4 0.6-0.9 0.2-0.5 0.2-1.1 0-0.5-0.2-1-0.2-0.5-0.6-0.9-0.4-0.4-0.9-0.6-0.6-0.2-1.1-0.2-0.6 0-1.1 0.2-0.5 0.2-0.9 0.6-0.4 0.4-0.6 1-0.2 0.5-0.2 1 0 0.6 0.3 1.1 0.2 0.5 0.6 0.9 0.4 0.4 0.9 0.6 0.5 0.2 1.1 0.2zm-70 6.6c0 8.6-4.5 8.1-10 8.1q-0.8 0-1.6 0-0.9 0.1-1.8 0c-5.3 0-8.7-0.2-11.7 1.4 0.1-0.2 1.4-3.1 6.2-4.3-0.6-1.2-0.9-2.8-1-5-0.3-8.6 5-15.7 10.5-15.7 5.4-0.1 9.3 6.9 9.4 15.5zm-8.5-4.5q0.5-0.1 1.1-0.3 0.5-0.2 0.8-0.6 0.4-0.4 0.6-0.9 0.2-0.6 0.2-1.1 0-0.6-0.2-1.1-0.3-0.5-0.7-0.9-0.4-0.4-0.9-0.6-0.5-0.2-1.1-0.1c-0.7 0-1.4 0.3-1.9 0.8-0.5 0.6-0.8 1.3-0.8 2 0 0.8 0.4 1.5 0.9 2 0.5 0.5 1.3 0.8 2 0.8zm126.6-47.6c-1.7-0.7-3.5-1.2-5.3-1.6q-0.7-0.2-1.3-0.4-0.7-0.1-1.4-0.3-0.6-0.1-1.3-0.3-0.7-0.1-1.4-0.2-5.4-1.1-10.8-1.7-5.4-0.7-10.9-1.2c-3.7-0.3-7.3-0.6-11-0.8-14.6-0.9-29.2-1.2-43.9-1.2-14.6 0-29.3 0.3-43.9 1.2-3.6 0.2-7.3 0.5-10.9 0.8q-5.5 0.5-10.9 1.2-5.5 0.7-10.9 1.7-0.7 0.1-1.3 0.2-0.7 0.2-1.4 0.3-0.7 0.2-1.3 0.3-0.7 0.2-1.4 0.4c-1.7 0.4-3.5 0.9-5.2 1.6q0.2-0.1 0.3-0.2l0.6-0.3q0.5-0.3 1.1-0.6 0.1 0 0.2-0.1 0.1 0 0.2-0.1 0.1 0 0.2-0.1 0 0 0.1-0.1c2.5-1.1 5-2 7.5-2.8q0.5-0.1 0.9-0.3 0-0.1 0-0.2c-0.1-0.3-0.7-5.1-0.3-12.7q0.1-1.4 0.2-2.8 0.1-1.4 0.2-2.8 0.2-1.4 0.4-2.7 0.2-1.4 0.4-2.8 0-0.2 0.1-0.5 0.1-0.2 0.3-0.4 0.2-0.1 0.4-0.3 0.2-0.1 0.4-0.2l3.7-1c0.8-28.9 12.7-42.5 13.1-42.9-10.6 17.1-10.5 37.4-10.3 42.1l23.1-6.6q0 0 0.1 0 0.1 0 0.2 0 0.1 0 0.1 0 0.1 0 0.1 0 0.1 0 0.1 0 0.1 0 0.1 0 0.1 0 0.1 0 0.1 0 0.1 0 0 0 0.1 0 0 0 0 0.1 0.1 0 0.1 0 0 0 0.1 0 0 0 0.1 0.1 0 0 0 0 0.1 0 0.1 0 0 0.1 0.1 0.1 0 0 0 0 0.1 0 0.1 0.1 0.1 0 0.1 0.1c0 0 0.6 0.6 1.6 1.5-0.2-7.6 0.1-29.5 10.5-47.6 0 0.2-0.9 2.8-2 7.2-2.3 9.3-5.5 26.3-3.6 44.6q0.4 0.3 0.7 0.6 0.4 0.3 0.7 0.5 0.4 0.3 0.7 0.6 0.4 0.2 0.8 0.5 0.1 0.1 0.3 0.2 0.1 0.2 0.2 0.4 0.1 0.1 0.1 0.3 0.1 0.2 0.1 0.5c0 0 0.2 8.7 4 16q0.1 0.2 0.1 0.4c9.5-0.7 19-0.9 28.5-1 9.5 0.1 19 0.3 28.5 1q0-0.2 0.1-0.4c3.8-7.3 4.1-16 4.1-16q0-0.3 0-0.5 0.1-0.2 0.2-0.3 0.1-0.2 0.2-0.4 0.1-0.1 0.3-0.2 0.4-0.3 0.7-0.5 0.4-0.3 0.7-0.5 0.3-0.3 0.7-0.5 0.3-0.3 0.6-0.6 0.1 0 0.1-0.1 0.1-0.1 0.1-0.2c2-19.3-1.7-37.1-4-45.9-0.9-3.5-1.6-5.5-1.7-5.7 7.2 12.5 9.6 26.7 10.3 36.9l0.1 1.2c0.2 4 0.2 7.3 0.2 9.5 0.9-0.9 1.5-1.5 1.6-1.5q0-0.1 0-0.1 0.1 0 0.1 0 0-0.1 0-0.1 0.2-0.1 0.3-0.1 0-0.1 0.1-0.1 0 0 0 0 0.1 0 0.1 0 0.1-0.1 0.1-0.1 0 0 0.1 0 0 0 0 0 0.1 0 0.1 0 0.1 0 0.1 0 0.1 0 0.1 0 0.1 0 0.1 0 0.1 0 0.1 0 0 0 0.1 0 0 0 0 0 0.1 0 0.1 0 0.1 0 0.1 0 0 0 0 0l23.2 6.6c0.2-4.7 0.3-25-10.4-42.1 0.4 0.4 12.3 14 13.1 42.9l3.7 1q0.3 0.1 0.5 0.2 0.2 0.2 0.4 0.3 0.1 0.2 0.2 0.4 0.1 0.3 0.2 0.5c0.6 4.1 1 7.9 1.2 11.1 0.4 7.6-0.3 12.4-0.3 12.7q0 0 0 0.1 0 0 0 0-0.1 0-0.1 0.1 0 0 0 0 0.5 0.2 0.9 0.3c2.5 0.8 5.1 1.7 7.5 2.8q0.1 0.1 0.2 0.1 0.1 0.1 0.2 0.1 0.1 0.1 0.2 0.1 0 0.1 0.1 0.1 0.7 0.3 1.1 0.6 0.4 0.1 0.7 0.3 0.1 0.1 0.3 0.2zm-44.8-33c-1.7 1.6-4.1 3.6-6.5 5.3-0.1 2.4-0.8 9.3-3.9 15.7q1.1 0.1 2.1 0.2 1 0.1 2.1 0.2 1 0.1 2 0.2 1.1 0.1 2.1 0.2-0.1-0.4 0-0.9c2.1-7.8 2.2-16.2 2.1-20.9zm-74.6 21c-3.1-6.4-3.7-13.3-3.9-15.7-2.4-1.7-4.7-3.7-6.4-5.3-0.2 4.7-0.1 13.1 2.1 20.9q0.1 0.5 0 0.9 4.1-0.4 8.2-0.8zm-11.4 1.1q-0.1-0.1-0.1-0.3-0.5-1.7-0.8-3.4c-1.7-8-1.6-15.9-1.4-19.8l-26.2 7.4c-1.6 10.2-1.1 18-0.8 20.7q0 0.5 0 0.8 3.3-0.9 6.6-1.7c3.6-0.8 7.3-1.4 10.9-2.1 3.7-0.6 7.4-1 11-1.5q0.4 0 0.8-0.1zm115.5-16.1l-26.1-7.4c0.2 4 0.3 12.4-1.6 20.8q-0.3 1.2-0.6 2.4-0.1 0.2-0.1 0.3 0.3 0.1 0.7 0.1c7.4 0.9 14.7 2 22 3.6q0.8 0.2 1.6 0.4 0.8 0.2 1.6 0.4 0.9 0.2 1.7 0.4 0.8 0.3 1.6 0.5 0-0.2 0-0.4 0.1-0.2 0.1-0.4 0-0.2 0-0.4 0-0.2 0.1-0.4c0.2-3.3 0.5-10.6-0.9-19.9z"/>
	<path id="Layer" fill-rule="evenodd" class="s0" d="m149.6 47.4v-6.3h-3.5v29.3h5.3v16.4h-27v-16.4h5.3v-29.3h-3.5v6.3h-15.4v-21.7h54.2v21.7c0 0-15.4 0-15.4 0zm4.6-10.9v6.3h6.2v-12.5h-45v12.5h6.2v-6.3h12.7v38.5h-5.2v7.2h17.7v-7.2h-5.3v-38.5c0 0 12.7 0 12.7 0z"/>
	<g id="Layer">
		<path id="Layer" fill-rule="evenodd" class="s10" d="m57.7 298.8h-10.4v-5.3h27v5.3h-10.3v30.4h-6.3c0 0 0-30.4 0-30.4zm16 3.6h5.2l0.4 4.7h0.2c1.9-3.5 4.8-5.4 7.6-5.4 1.4 0 2.3 0.2 3.1 0.6l-1.1 5.4c-0.9-0.3-1.7-0.4-2.8-0.4-2.1 0-4.7 1.5-6.3 5.5v16.4h-6.3v-26.8q0 0 0 0zm33.6 9.6c0-2.8-1.2-5.2-4.8-5.2-2.7 0-5.2 1.2-7.6 2.6l-2.3-4.2c3-1.8 6.8-3.5 11-3.5 6.7 0 10 4.1 10 11.6v15.9h-5.1l-0.5-3h-0.2c-2.4 2-5.1 3.6-8.3 3.6-4.7 0-8-3.1-8-7.8 0-5.8 4.8-8.8 15.8-10zm-5.8 12.9c2.2 0 3.9-1.1 5.8-2.9v-6c-7.2 0.9-9.6 2.8-9.6 5.5 0 2.4 1.5 3.4 3.8 3.4zm13.9-22.5h6.4l4.2 13.9c0.7 2.6 1.6 5.3 2.3 8.1h0.2c0.8-2.8 1.5-5.5 2.3-8.1l4.2-13.9h6.1l-9.1 26.8h-7.3zm28.8 0h6.3v26.8h-6.3zm-0.7-8.3c0-2.1 1.6-3.6 3.9-3.6 2.2 0 3.8 1.5 3.8 3.6 0 2.1-1.6 3.6-3.8 3.6-2.3 0-3.9-1.5-3.9-3.6zm20.9 31c2.9 0 4.3-1.4 4.3-3.2 0-2.3-2.9-3.2-5.7-4.3-3.6-1.4-7.6-3.4-7.6-7.8 0-4.7 3.8-8.1 9.8-8.1 3.7 0 6.7 1.5 8.9 3.2l-2.9 3.9c-1.8-1.4-3.8-2.3-5.9-2.3-2.7 0-3.9 1.2-3.9 2.9 0 2.1 2.7 3 5.5 4 3.7 1.4 7.7 3.1 7.7 8.1 0 4.6-3.6 8.3-10.4 8.3-3.6 0-7.5-1.6-10.1-3.7 0 0 2.9-4 2.9-4q0 0 0 0c2.4 1.8 4.7 3 7.4 3zm41-32.3c4.4 0 8 2.2 10.2 4.6l-3.5 3.9c-1.9-1.8-3.9-3-6.6-3-5.9 0-10.1 5-10.1 13 0 8.1 3.9 13 9.9 13 3.1 0 5.5-1.3 7.5-3.5l3.5 3.9c-2.9 3.3-6.6 5.1-11.1 5.1-9.1 0-16.3-6.5-16.3-18.4 0-11.6 7.4-18.6 16.5-18.6zm14.8 0.7h6.3v35.7h-6.3z"/>
	</g>
</svg>