<svg version="1.2" xmlns="http://www.w3.org/2000/svg" viewBox="0 0 256 256" width="256" height="256">
	<title>ubuntu-svg</title>
	<style>
		.s0 { fill: #f47421 } 
		.s1 { fill: none;stroke: #ffffff;stroke-width: 24.3 } 
		.s2 { fill: #000000;stroke: #f47421;stroke-width: 9.2 } 
		.s3 { fill: #ffffff } 
	</style>
	<path id="Layer" class="s0" d="m128 255.7c-70.6 0-127.7-57.1-127.7-127.7 0-70.6 57.1-127.7 127.7-127.7 70.6 0 127.7 57.1 127.7 127.7 0 70.6-57.1 127.7-127.7 127.7z"/>
	<path id="Layer" class="s1" d="m128 189.9c-34.2 0-61.9-27.7-61.9-61.9 0-34.2 27.7-61.9 61.9-61.9 34.2 0 61.9 27.7 61.9 61.9 0 34.2-27.7 61.9-61.9 61.9z"/>
	<g id="friend">
		<path id="Layer" class="s0" d="m41.2 151.9c-13.3 0-24-10.7-24-23.9 0-13.2 10.7-23.9 24-23.9 13.2 0 23.9 10.7 23.9 23.9 0 13.2-10.7 23.9-23.9 23.9z"/>
		<path id="Layer" class="s2" d="m176.2 128h28.4"/>
		<path id="Layer" class="s3" d="m41.2 145c-9.4 0-17.1-7.6-17.1-17 0-9.4 7.7-17 17.1-17 9.4 0 17 7.6 17 17 0 9.4-7.6 17-17 17z"/>
	</g>
	<g id="friend">
		<path id="Layer" class="s0" d="m150.7 40.8c6.6-11.4 21.2-15.3 32.7-8.7 11.4 6.6 15.4 21.2 8.7 32.7-6.6 11.5-21.2 15.4-32.7 8.7-11.4-6.6-15.3-21.2-8.7-32.7z"/>
		<path id="Layer" class="s2" d="m103.9 169.8l-14.2 24.5"/>
		<path id="Layer" class="s3" d="m156.6 44.3c4.8-8.2 15.2-11 23.3-6.2 8.2 4.7 11 15.1 6.3 23.2-4.7 8.2-15.2 11-23.3 6.3-8.2-4.7-11-15.1-6.3-23.3z"/>
	</g>
	<g id="friend">
		<path id="Layer" class="s0" d="m192.1 191.2c6.7 11.5 2.7 26.1-8.7 32.7-11.5 6.6-26.1 2.7-32.7-8.7-6.6-11.5-2.7-26.1 8.7-32.7 11.5-6.7 26.1-2.8 32.7 8.7z"/>
		<path id="Layer" class="s2" d="m103.9 86.2l-14.2-24.5"/>
		<path id="Layer" class="s3" d="m186.2 194.7c4.7 8.1 1.9 18.5-6.3 23.2-8.1 4.8-18.5 2-23.3-6.2-4.7-8.2-1.9-18.6 6.3-23.3 8.1-4.7 18.6-1.9 23.3 6.3z"/>
	</g>
</svg>