<svg version="1.2" xmlns="http://www.w3.org/2000/svg" viewBox="0 0 256 256" width="256" height="256">
	<title>ubuntu-svg</title>
	<style>
		.s0 { fill: #f47421 } 
		.s1 { fill: none;stroke: #ffffff;stroke-width: 24.2 } 
		.s2 { fill: #000000;stroke: #f47421;stroke-width: 9.2 } 
		.s3 { fill: #ffffff } 
	</style>
	<path id="Layer" class="s0" d="m128.5 255.9c-70.4 0-127.4-57-127.4-127.4 0-70.4 57-127.4 127.4-127.4 70.4 0 127.4 57 127.4 127.4 0 70.4-57 127.4-127.4 127.4z"/>
	<path id="Layer" class="s1" d="m128.5 190.3c-34.2 0-61.8-27.6-61.8-61.8 0-34.2 27.6-61.8 61.8-61.8 34.2 0 61.8 27.6 61.8 61.8 0 34.2-27.6 61.8-61.8 61.8z"/>
	<g id="friend">
		<path id="Layer" class="s0" d="m41.9 152.4c-13.2 0-23.9-10.7-23.9-23.9 0-13.2 10.7-23.9 23.9-23.9 13.2 0 23.9 10.7 23.9 23.9 0 13.2-10.7 23.9-23.9 23.9z"/>
		<path id="Layer" class="s2" d="m176.6 128.5h28.3"/>
		<path id="Layer" class="s3" d="m41.9 145.5c-9.4 0-17-7.6-17-17 0-9.4 7.6-17 17-17 9.4 0 17 7.6 17 17 0 9.4-7.6 17-17 17z"/>
	</g>
	<g id="friend">
		<path id="Layer" class="s0" d="m151.1 41.6c6.6-11.5 21.2-15.4 32.6-8.8 11.5 6.6 15.4 21.2 8.8 32.6-6.6 11.5-21.2 15.4-32.6 8.8-11.5-6.6-15.4-21.2-8.8-32.6z"/>
		<path id="Layer" class="s2" d="m104.4 170.2l-14.1 24.5"/>
		<path id="Layer" class="s3" d="m157.1 45c4.7-8.1 15.1-10.9 23.2-6.2 8.1 4.7 10.9 15.1 6.2 23.2-4.7 8.1-15.1 10.9-23.2 6.2-8.1-4.7-10.9-15.1-6.2-23.2z"/>
	</g>
	<g id="friend">
		<path id="Layer" class="s0" d="m192.5 191.6c6.6 11.4 2.7 26-8.8 32.6-11.4 6.6-26 2.7-32.6-8.8-6.6-11.4-2.7-26 8.8-32.6 11.4-6.6 26-2.7 32.6 8.8z"/>
		<path id="Layer" class="s2" d="m104.4 86.8l-14.1-24.5"/>
		<path id="Layer" class="s3" d="m186.5 195c4.7 8.1 1.9 18.5-6.2 23.2-8.1 4.7-18.5 1.9-23.2-6.2-4.7-8.1-1.9-18.5 6.2-23.2 8.1-4.7 18.5-1.9 23.2 6.2z"/>
	</g>
</svg>