<?xml version="1.0" encoding="UTF-8"?>
<svg xmlns="http://www.w3.org/2000/svg" xmlns:xlink="http://www.w3.org/1999/xlink" width="px" height="40px" viewBox="0 0 40 40" version="1.1">
<defs>
<filter id="alpha" filterUnits="objectBoundingBox" x="0%" y="0%" width="100%" height="100%">
  <feColorMatrix type="matrix" in="SourceGraphic" values="0 0 0 0 1 0 0 0 0 1 0 0 0 0 1 0 0 0 1 0"/>
</filter>
<mask id="mask0">
  <g filter="url(#alpha)">
<rect x="0" y="0" width="40" height="40" style="fill:rgb(0%,0%,0%);fill-opacity:0.301961;stroke:none;"/>
  </g>
</mask>
<linearGradient id="linear0" gradientUnits="userSpaceOnUse" x1="0" y1="0" x2="1" y2="0" gradientTransform="matrix(0,39.79172,-39.998906,0,20,0.15625)">
<stop offset="0" style="stop-color:rgb(100%,100%,100%);stop-opacity:1;"/>
<stop offset="1" style="stop-color:rgb(100%,100%,100%);stop-opacity:0;"/>
</linearGradient>
<clipPath id="clip1">
  <rect x="0" y="0" width="40" height="40"/>
</clipPath>
<g id="surface5" clip-path="url(#clip1)">
<path style=" stroke:none;fill-rule:evenodd;fill:url(#linear0);" d="M 28.375 39.78125 C 28.261719 39.738281 28.15625 39.691406 28.0625 39.640625 C 27.957031 39.578125 27.859375 39.515625 27.765625 39.453125 C 27.671875 39.378906 27.582031 39.300781 27.5 39.21875 L 14.21875 24.53125 L 6.453125 30.890625 L 5.78125 31.453125 C 5.675781 31.535156 5.566406 31.609375 5.453125 31.671875 C 5.328125 31.734375 5.199219 31.78125 5.0625 31.8125 C 4.9375 31.832031 4.808594 31.84375 4.671875 31.84375 C 4.535156 31.84375 4.40625 31.828125 4.28125 31.796875 C 4.261719 31.785156 4.238281 31.78125 4.21875 31.78125 C 4.199219 31.769531 4.175781 31.765625 4.15625 31.765625 C 4.144531 31.753906 4.128906 31.746094 4.109375 31.734375 C 4.089844 31.734375 4.066406 31.730469 4.046875 31.71875 L 1.03125 30.46875 C 0.886719 30.40625 0.75 30.328125 0.625 30.234375 C 0.511719 30.140625 0.40625 30.03125 0.3125 29.90625 C 0.21875 29.78125 0.144531 29.652344 0.09375 29.515625 C 0.0429688 29.371094 0.0117188 29.21875 0 29.0625 C 0 29.015625 0 11.203125 0 11.171875 C 0 11.128906 0 11.089844 0 11.046875 C 0.0117188 10.890625 0.0429688 10.738281 0.09375 10.59375 C 0.144531 10.449219 0.21875 10.3125 0.3125 10.1875 C 0.40625 10.0625 0.511719 9.953125 0.625 9.859375 C 0.75 9.765625 0.886719 9.691406 1.03125 9.640625 L 4.046875 8.359375 C 4.066406 8.359375 4.089844 8.355469 4.109375 8.34375 C 4.128906 8.332031 4.144531 8.328125 4.15625 8.328125 C 4.175781 8.316406 4.199219 8.308594 4.21875 8.296875 C 4.238281 8.296875 4.261719 8.296875 4.28125 8.296875 C 4.40625 8.253906 4.535156 8.234375 4.671875 8.234375 C 4.808594 8.234375 4.9375 8.25 5.0625 8.28125 C 5.199219 8.3125 5.328125 8.355469 5.453125 8.40625 C 5.566406 8.46875 5.675781 8.546875 5.78125 8.640625 L 6.453125 9.21875 L 14.21875 15.578125 L 27.5 0.890625 C 27.574219 0.816406 27.644531 0.75 27.71875 0.6875 C 27.792969 0.636719 27.871094 0.582031 27.953125 0.53125 C 28.035156 0.480469 28.121094 0.433594 28.203125 0.390625 C 28.296875 0.347656 28.386719 0.3125 28.46875 0.28125 C 28.625 0.230469 28.78125 0.191406 28.9375 0.171875 C 29.105469 0.152344 29.265625 0.144531 29.421875 0.15625 C 29.578125 0.167969 29.734375 0.191406 29.890625 0.234375 C 30.046875 0.277344 30.199219 0.332031 30.34375 0.40625 L 38.578125 4.359375 C 38.796875 4.464844 38.996094 4.59375 39.171875 4.75 C 39.339844 4.90625 39.484375 5.082031 39.609375 5.28125 C 39.734375 5.488281 39.832031 5.703125 39.90625 5.921875 C 39.96875 6.152344 40 6.386719 40 6.625 L 40 33.484375 C 40 33.722656 39.96875 33.953125 39.90625 34.171875 C 39.832031 34.402344 39.734375 34.613281 39.609375 34.8125 C 39.484375 35.011719 39.339844 35.1875 39.171875 35.34375 C 38.996094 35.511719 38.796875 35.640625 38.578125 35.734375 L 30.34375 39.703125 C 30.21875 39.765625 30.089844 39.8125 29.953125 39.84375 C 29.816406 39.886719 29.675781 39.917969 29.53125 39.9375 C 29.394531 39.949219 29.261719 39.949219 29.125 39.9375 C 28.980469 39.9375 28.839844 39.921875 28.703125 39.890625 C 28.589844 39.859375 28.480469 39.824219 28.375 39.78125 Z M 30 11.578125 L 19.671875 20.046875 L 30 28.515625 Z M 5 25.765625 L 10.171875 20.046875 L 5 14.328125 Z M 5 25.765625 "/>
</g>
</defs>
<g id="surface1">
<path style=" stroke:none;fill-rule:nonzero;fill:rgb(32.156864%,12.941177%,54.11765%);fill-opacity:1;" d="M 5.78125 31.46875 C 5.667969 31.574219 5.535156 31.65625 5.390625 31.71875 C 5.253906 31.78125 5.109375 31.824219 4.953125 31.84375 C 4.808594 31.875 4.65625 31.878906 4.5 31.859375 C 4.34375 31.839844 4.191406 31.796875 4.046875 31.734375 L 1.03125 30.46875 C 0.875 30.40625 0.734375 30.324219 0.609375 30.21875 C 0.484375 30.113281 0.375 29.996094 0.28125 29.859375 C 0.1875 29.722656 0.121094 29.578125 0.078125 29.421875 C 0.0273438 29.265625 0 29.105469 0 28.9375 L 0 11.171875 C 0 11.003906 0.0273438 10.84375 0.078125 10.6875 C 0.121094 10.53125 0.1875 10.386719 0.28125 10.25 C 0.375 10.113281 0.484375 9.996094 0.609375 9.890625 C 0.734375 9.785156 0.875 9.703125 1.03125 9.640625 L 4.046875 8.390625 C 4.191406 8.328125 4.34375 8.285156 4.5 8.265625 C 4.65625 8.246094 4.808594 8.25 4.953125 8.28125 C 5.109375 8.300781 5.253906 8.34375 5.390625 8.40625 C 5.535156 8.46875 5.667969 8.550781 5.78125 8.65625 L 6.453125 9.21875 C 6.328125 9.125 6.15625 9.0625 5.984375 9.046875 C 5.8125 9.03125 5.65625 9.0625 5.5 9.140625 C 5.34375 9.21875 5.21875 9.34375 5.140625 9.484375 C 5.046875 9.625 5 9.796875 5 9.96875 L 5 30.140625 C 5 30.3125 5.046875 30.46875 5.140625 30.609375 C 5.21875 30.765625 5.34375 30.875 5.5 30.953125 C 5.65625 31.03125 5.8125 31.0625 5.984375 31.0625 C 6.15625 31.046875 6.328125 30.984375 6.453125 30.890625 Z M 5.78125 31.46875 "/>
<path style=" stroke:none;fill-rule:nonzero;fill:rgb(42.352942%,20%,68.627453%);fill-opacity:1;" d="M 1.03125 30.46875 C 0.875 30.40625 0.734375 30.324219 0.609375 30.21875 C 0.484375 30.113281 0.375 29.996094 0.28125 29.859375 C 0.1875 29.722656 0.121094 29.578125 0.078125 29.421875 C 0.0273438 29.265625 0 29.105469 0 28.9375 L 0 28.796875 C 0 29 0.0625 29.1875 0.171875 29.34375 C 0.28125 29.5 0.4375 29.625 0.609375 29.6875 C 0.796875 29.765625 0.984375 29.765625 1.171875 29.734375 C 1.359375 29.6875 1.53125 29.59375 1.671875 29.453125 L 27.5 0.890625 C 27.6875 0.703125 27.894531 0.550781 28.125 0.4375 C 28.355469 0.324219 28.59375 0.238281 28.84375 0.1875 C 29.09375 0.144531 29.347656 0.144531 29.609375 0.1875 C 29.871094 0.21875 30.113281 0.292969 30.34375 0.40625 L 38.578125 4.375 C 38.796875 4.46875 38.996094 4.59375 39.171875 4.75 C 39.339844 4.917969 39.484375 5.097656 39.609375 5.296875 C 39.734375 5.496094 39.832031 5.707031 39.90625 5.9375 C 39.96875 6.15625 40 6.386719 40 6.625 L 40 6.71875 C 40 6.421875 39.921875 6.125 39.75 5.875 C 39.59375 5.625 39.359375 5.421875 39.09375 5.296875 C 38.828125 5.171875 38.53125 5.109375 38.234375 5.15625 C 37.9375 5.1875 37.65625 5.3125 37.421875 5.5 L 6.453125 30.890625 L 5.78125 31.46875 C 5.667969 31.574219 5.535156 31.65625 5.390625 31.71875 C 5.253906 31.78125 5.109375 31.824219 4.953125 31.84375 C 4.808594 31.875 4.65625 31.878906 4.5 31.859375 C 4.34375 31.839844 4.191406 31.796875 4.046875 31.734375 Z M 1.03125 30.46875 "/>
<path style=" stroke:none;fill-rule:nonzero;fill:rgb(52.156866%,29.803923%,78.039217%);fill-opacity:1;" d="M 1.03125 9.640625 C 0.875 9.703125 0.734375 9.785156 0.609375 9.890625 C 0.484375 9.996094 0.375 10.113281 0.28125 10.25 C 0.1875 10.386719 0.121094 10.53125 0.078125 10.6875 C 0.0273438 10.84375 0 11.003906 0 11.171875 L 0 11.296875 C 0 11.109375 0.0625 10.921875 0.171875 10.765625 C 0.28125 10.609375 0.4375 10.484375 0.609375 10.421875 C 0.796875 10.34375 0.984375 10.328125 1.171875 10.375 C 1.359375 10.421875 1.53125 10.515625 1.671875 10.65625 L 27.5 39.21875 C 27.6875 39.394531 27.894531 39.546875 28.125 39.671875 C 28.355469 39.785156 28.59375 39.863281 28.84375 39.90625 C 29.09375 39.949219 29.347656 39.953125 29.609375 39.921875 C 29.871094 39.890625 30.113281 39.816406 30.34375 39.703125 L 38.578125 35.734375 C 38.796875 35.628906 38.996094 35.5 39.171875 35.34375 C 39.339844 35.1875 39.484375 35.011719 39.609375 34.8125 C 39.734375 34.613281 39.832031 34.402344 39.90625 34.171875 C 39.96875 33.941406 40 33.714844 40 33.484375 L 40 33.390625 C 40 33.6875 39.921875 33.984375 39.75 34.234375 C 39.59375 34.484375 39.359375 34.6875 39.09375 34.8125 C 38.828125 34.9375 38.53125 34.984375 38.234375 34.953125 C 37.9375 34.921875 37.65625 34.796875 37.421875 34.609375 L 6.453125 9.21875 L 5.78125 8.640625 C 5.667969 8.535156 5.535156 8.453125 5.390625 8.390625 C 5.253906 8.328125 5.109375 8.285156 4.953125 8.265625 C 4.796875 8.246094 4.644531 8.246094 4.5 8.265625 C 4.34375 8.285156 4.191406 8.328125 4.046875 8.390625 Z M 1.03125 9.640625 "/>
<path style=" stroke:none;fill-rule:nonzero;fill:rgb(69.411767%,47.450981%,94.509804%);fill-opacity:1;" d="M 30.34375 39.703125 C 30.113281 39.816406 29.871094 39.890625 29.609375 39.921875 C 29.347656 39.953125 29.09375 39.949219 28.84375 39.90625 C 28.59375 39.863281 28.355469 39.785156 28.125 39.671875 C 27.894531 39.546875 27.6875 39.394531 27.5 39.21875 C 27.703125 39.421875 27.96875 39.5625 28.25 39.609375 C 28.53125 39.671875 28.828125 39.640625 29.09375 39.53125 C 29.359375 39.421875 29.59375 39.234375 29.75 39 C 29.90625 38.75 30 38.46875 30 38.1875 L 30 1.9375 C 30 1.640625 29.921875 1.359375 29.75 1.109375 C 29.59375 0.875 29.359375 0.6875 29.09375 0.578125 C 28.828125 0.46875 28.53125 0.4375 28.25 0.484375 C 27.96875 0.546875 27.703125 0.6875 27.5 0.890625 C 27.6875 0.703125 27.894531 0.550781 28.125 0.4375 C 28.355469 0.324219 28.59375 0.238281 28.84375 0.1875 C 29.09375 0.144531 29.347656 0.144531 29.609375 0.1875 C 29.871094 0.21875 30.113281 0.292969 30.34375 0.40625 L 38.578125 4.359375 C 38.796875 4.464844 38.996094 4.59375 39.171875 4.75 C 39.339844 4.90625 39.484375 5.082031 39.609375 5.28125 C 39.734375 5.488281 39.832031 5.703125 39.90625 5.921875 C 39.96875 6.152344 40 6.386719 40 6.625 L 40 33.484375 C 40 33.722656 39.96875 33.953125 39.90625 34.171875 C 39.832031 34.402344 39.734375 34.613281 39.609375 34.8125 C 39.484375 35.011719 39.339844 35.1875 39.171875 35.34375 C 38.996094 35.511719 38.796875 35.640625 38.578125 35.734375 Z M 30.34375 39.703125 "/>
<use xlink:href="#surface5" mask="url(#mask0)"/>
</g>
</svg>
