<svg version="1.2" xmlns="http://www.w3.org/2000/svg" viewBox="0 0 256 256" width="256" height="256">
	<title>visualstudio-svg</title>
	<defs>
		<linearGradient id="g1" x2="1" gradientUnits="userSpaceOnUse" gradientTransform="matrix(0,254.667,-255.993,0,128,1)">
			<stop offset="0" stop-color="#ffffff" stop-opacity="1"/>
			<stop offset="1" stop-color="#ffffff" stop-opacity="0"/>
		</linearGradient>
	</defs>
	<style>
		.s0 { fill: #52218a } 
		.s1 { fill: #6c33af } 
		.s2 { fill: #854cc7 } 
		.s3 { fill: #b179f1 } 
		.s4 { fill: url(#g1) } 
	</style>
	<g id="Layer">
		<path id="Layer" class="s0" d="m37 201.4q-1.1 1-2.5 1.6-1.3 0.6-2.8 0.8-1.4 0.3-2.9 0.1-1.5-0.2-2.9-0.8l-19.3-8.1q-1.5-0.6-2.7-1.6-1.2-1-2.1-2.3-0.9-1.3-1.3-2.8-0.5-1.5-0.5-3.1v-113.7q0-1.6 0.5-3.1 0.4-1.5 1.3-2.8 0.9-1.3 2.1-2.3 1.2-1 2.7-1.6l19.3-8q1.4-0.6 2.9-0.8 1.5-0.2 2.9 0.1 1.5 0.2 2.8 0.8 1.4 0.6 2.5 1.6l4.3 3.6c-0.8-0.6-1.9-1-3-1.1-1.1-0.1-2.1 0.1-3.1 0.6-1 0.5-1.8 1.3-2.3 2.2-0.6 0.9-0.9 2-0.9 3.1v129.1c0 1.1 0.3 2.1 0.9 3 0.5 1 1.3 1.7 2.3 2.2 1 0.5 2 0.7 3.1 0.7 1.1-0.1 2.2-0.5 3-1.1z"/>
		<path id="Layer" class="s1" d="m6.6 195q-1.5-0.6-2.7-1.6-1.2-1-2.1-2.3-0.9-1.3-1.3-2.8-0.5-1.5-0.5-3.1v-0.9c0 1.3 0.4 2.5 1.1 3.5 0.7 1 1.7 1.8 2.8 2.2 1.2 0.5 2.4 0.5 3.6 0.3 1.2-0.3 2.3-0.9 3.2-1.8l165.3-182.8q1.8-1.8 4-2.9 2.2-1.1 4.6-1.6 2.4-0.4 4.9 0 2.5 0.3 4.7 1.4l52.7 25.4q2.1 0.9 3.8 2.4 1.6 1.6 2.8 3.5 1.2 1.9 1.9 4.1 0.6 2.1 0.6 4.4v0.6c0-1.9-0.5-3.8-1.6-5.4-1-1.6-2.5-2.9-4.2-3.7-1.7-0.8-3.6-1.2-5.5-0.9-1.9 0.2-3.7 1-5.2 2.2l-198.2 162.5-4.3 3.7q-1.1 1-2.5 1.6-1.3 0.6-2.8 0.8-1.4 0.3-2.9 0.1-1.5-0.2-2.9-0.8z"/>
		<path id="Layer" class="s2" d="m6.6 61.7q-1.5 0.6-2.7 1.6-1.2 1-2.1 2.3-0.9 1.3-1.3 2.8-0.5 1.5-0.5 3.1v0.8c0-1.2 0.4-2.4 1.1-3.4 0.7-1 1.7-1.8 2.8-2.2 1.2-0.5 2.4-0.6 3.6-0.3 1.2 0.3 2.3 0.9 3.2 1.8l165.3 182.8q1.8 1.7 4 2.9 2.2 1.1 4.6 1.5 2.4 0.4 4.9 0.1 2.5-0.3 4.7-1.4l52.7-25.4q2.1-1 3.8-2.5 1.6-1.5 2.8-3.4 1.2-1.9 1.9-4.1 0.6-2.2 0.6-4.4v-0.6c0 1.9-0.5 3.8-1.6 5.4-1 1.6-2.5 2.9-4.2 3.7-1.7 0.8-3.6 1.1-5.5 0.9-1.9-0.2-3.7-1-5.2-2.2l-198.2-162.5-4.3-3.7q-1.1-1-2.5-1.6-1.3-0.6-2.8-0.8-1.5-0.2-2.9 0-1.5 0.2-2.9 0.8z"/>
		<path id="Layer" class="s3" d="m194.2 254.1q-2.2 1.1-4.7 1.4-2.5 0.3-4.9-0.1-2.4-0.4-4.6-1.5-2.2-1.2-4-2.9c1.3 1.3 3 2.2 4.8 2.5 1.8 0.4 3.7 0.2 5.4-0.5 1.7-0.7 3.2-1.9 4.2-3.4 1-1.6 1.6-3.4 1.6-5.2v-232c0-1.9-0.5-3.7-1.6-5.3-1-1.5-2.5-2.7-4.2-3.4-1.7-0.7-3.6-0.9-5.4-0.6-1.8 0.4-3.5 1.3-4.8 2.6q1.8-1.8 4-2.9 2.2-1.1 4.6-1.6 2.4-0.4 4.9 0 2.5 0.3 4.7 1.4l52.7 25.3q2.1 1 3.8 2.5 1.6 1.5 2.8 3.4 1.2 2 1.9 4.1 0.6 2.2 0.6 4.5v171.9q0 2.3-0.6 4.4-0.7 2.2-1.9 4.1-1.2 1.9-2.8 3.4-1.7 1.6-3.8 2.5z"/>
		<g id="Layer" style="opacity: .3">
			<path id="Layer" fill-rule="evenodd" class="s4" d="m181.6 254.6q-1.1-0.4-2-0.9-1-0.6-1.9-1.2-0.9-0.7-1.7-1.5l-85-94-49.7 40.7-4.3 3.6q-1 0.8-2.1 1.4-1.2 0.6-2.5 0.9-1.2 0.2-2.5 0.2-1.3 0-2.5-0.3-0.2-0.1-0.4-0.1-0.2-0.1-0.4-0.1-0.1-0.1-0.3-0.2-0.2 0-0.4-0.1l-19.3-8q-1.4-0.6-2.6-1.5-1.1-0.9-2-2.1-0.9-1.2-1.4-2.5-0.5-1.4-0.6-2.9c0-0.3 0-114.3 0-114.5q0-0.4 0-0.8 0.1-1.5 0.6-2.9 0.5-1.4 1.4-2.6 0.9-1.2 2-2.1 1.2-0.9 2.6-1.4l19.3-8.2q0.2 0 0.4-0.1 0.2-0.1 0.3-0.1 0.2-0.1 0.4-0.2 0.2 0 0.4 0 1.2-0.4 2.5-0.4 1.3 0 2.5 0.3 1.3 0.3 2.5 0.8 1.1 0.6 2.1 1.5l4.3 3.7 49.7 40.7 85-94q0.7-0.7 1.4-1.3 0.7-0.5 1.5-1 0.8-0.5 1.6-0.9 0.9-0.4 1.7-0.7 1.5-0.5 3-0.7 1.6-0.2 3.1-0.1 1.5 0.1 3 0.5 1.5 0.4 2.9 1.1l52.7 25.3q2.1 1 3.8 2.5 1.6 1.5 2.8 3.4 1.2 2 1.9 4.1 0.6 2.2 0.6 4.5v171.9q0 2.3-0.6 4.4-0.7 2.2-1.9 4.1-1.2 1.9-2.8 3.4-1.7 1.6-3.8 2.5l-52.7 25.4q-1.2 0.6-2.5 0.9-1.3 0.4-2.7 0.6-1.3 0.1-2.6 0-1.4 0-2.7-0.3-1.1-0.3-2.1-0.7zm10.4-180.5l-66.1 54.2 66.1 54.2zm-160 90.8l33.1-36.6-33.1-36.6z"/>
		</g>
	</g>
</svg>