<svg version="1.2" xmlns="http://www.w3.org/2000/svg" viewBox="0 0 256 256" width="256" height="256">
	<title>vscode-svg</title>
	<style>
		.s0 { fill: #2489ca } 
		.s1 { fill: #1070b3 } 
		.s2 { fill: #0877b9 } 
		.s3 { fill: #3c99d4 } 
	</style>
	<path id="Layer" class="s0" d="m2.4 89.5c0 0-6.2-4.5 1.3-10.5l17.4-15.6c0 0 5-5.3 10.2-0.7l160.8 122v58.5c0 0-0.1 9.1-11.9 8.1z"/>
	<path id="Layer" class="s1" d="m43.9 127.2l-41.5 37.7c0 0-4.2 3.2 0 8.9l19.3 17.5c0 0 4.5 4.9 11.3-0.7l43.9-33.3z"/>
	<path id="Layer" class="s2" d="m116.6 127.5l76-58.2-0.5-58.1c0 0-3.3-12.7-14.1-6.1l-101.1 92.2z"/>
	<path id="Layer" class="s3" d="m180.2 251.4c4.4 4.5 9.8 3 9.8 3l59.2-29.2c7.6-5.2 6.5-11.6 6.5-11.6v-174.6c0-7.7-7.8-10.4-7.8-10.4l-51.3-24.8c-11.3-6.9-18.6 1.3-18.6 1.3 0 0 9.4-6.8 14.1 6.1v230.9c0 1.6-0.4 3.1-1 4.5-1.4 2.8-4.3 5.3-11.4 4.3z"/>
</svg>