<svg version="1.2" xmlns="http://www.w3.org/2000/svg" viewBox="0 0 256 256" width="256" height="256">
	<title>vscode-svg</title>
	<style>
		.s0 { fill: #2489ca } 
		.s1 { fill: #1070b3 } 
		.s2 { fill: #0877b9 } 
		.s3 { fill: #3c99d4 } 
	</style>
	<path id="Layer" class="s0" d="m7.3 90.1c0 0-6-4.4 1.2-10.2l17-15.2c0 0 4.8-5.1 9.9-0.7l156.4 118.7v56.9c0 0-0.1 8.9-11.5 7.9z"/>
	<path id="Layer" class="s1" d="m47.6 126.8l-40.3 36.7c0 0-4.1 3.1 0 8.6l18.7 17c0 0 4.5 4.8 11-0.6l42.8-32.5z"/>
	<path id="Layer" class="s2" d="m118.4 127.1l73.9-56.6-0.5-56.6c0 0-3.2-12.4-13.7-5.9l-98.3 89.7z"/>
	<path id="Layer" class="s3" d="m180.3 247.6c4.3 4.4 9.5 3 9.5 3l57.6-28.5c7.3-5 6.3-11.3 6.3-11.3v-169.9c0-7.4-7.6-10-7.6-10l-49.9-24.1c-10.9-6.8-18.1 1.2-18.1 1.2 0 0 9.2-6.7 13.7 5.9v224.6c0 1.6-0.3 3.1-1 4.5-1.3 2.6-4.2 5.1-11 4.1z"/>
</svg>