<svg version="1.2" xmlns="http://www.w3.org/2000/svg" viewBox="0 0 256 256" width="256" height="256">
	<title>yarn-svg</title>
	<style>
		.s0 { fill: #368fb9 } 
		.s1 { fill: #ffffff } 
	</style>
	<g id="Layer">
		<path id="Layer" class="s0" d="m128 256c-70.8 0-128-57.2-128-128 0-70.8 57.2-128 128-128 70.8 0 128 57.2 128 128 0 70.8-57.2 128-128 128z"/>
		<path id="Layer" fill-rule="evenodd" class="s1" d="m205 181.3c-6.9 1.7-10.1 3-19.4 9-13.2 8.5-27.1 13.3-32.1 14.8-1.6 1.4-4.1 2.9-7.6 3.7-7.8 1.9-34.8 3.4-36.9 3.4h-0.5c-8.4 0-13-2.6-15.5-5.3-7 3.5-16.1 2.1-22.6-1.4-3.3-1.8-5.5-4.6-6.2-8.1-0.2-1.4-0.2-2.9 0-4.2-0.6-0.7-1.1-1.3-1.6-2.1-1.8-2.7-5.7-10-4.9-20.7 0.6-7.8 6-14.6 9.4-18.3-0.1-5.1 0.3-14.5 4.4-24.1 3.2-7.7 9.4-14.3 14-18.5-3.4-5.7-6.8-14.6-3.5-23.6 2.5-6.4 4.4-9.9 8.8-11.5h-0.1c2.2-0.8 4.2-1.6 5.2-2.7 8.4-9.1 18.3-11.4 24.5-11.8q0.6-1.5 1.4-3c3.3-7 6.8-11 10.9-12.5 3.1-1.1 6.3-0.7 9.1 1.1 1.3 0.9 3.1 1.9 8 12.3 3.4-1 5-0.5 5.9-0.2 2.2 0.6 3.9 2 5 4 5.1 9.8 5.7 27.2 3.5 38.4-2.5 13.2-8 21.7-12 27.5 3.4 3.5 8.3 9.6 11.9 19.5 2.9 8.2 3.3 15.7 2.9 21.5 1.8-0.9 3.9-2 6.4-3.5 6.3-3.9 15.9-9.8 27.2-10 7.7-0.1 13.6 4.8 14.5 11.8 0.8 6.8-3.4 12.9-10.1 14.5zm-4.3-18.8c-8.9 0.1-16.8 4.7-23.4 8.8-12.4 7.7-18.6 7.2-18.6 7.2 0 0 0-0.1-0.2-0.4-0.8-1.4 4-13.8-1.4-28.6-5.8-16.1-15.1-20-14.3-21.3 3.1-5.3 11-13.8 14.2-29.6 1.9-9.6 1.4-25.4-2.9-33.6-0.7-1.5-7.8 2.6-7.8 2.6 0 0-6.5-14.7-8.4-15.9-5.9-3.8-12.3 15.8-12.3 15.8 0 0-13.6-2.2-24.2 9.3-2.1 2.3-5 3.5-7.9 4.6-0.9 0.3-1.9 0.3-4.5 7.2-3.9 10.6 6.7 22.3 6.7 22.3 0 0-12.7 9-17.4 20.1-5.2 12.2-3.6 24.1-3.6 24.1 0 0-9 7.8-9.6 15.9-0.5 7.1 1.5 12.8 3.7 16.2 2.4 3.6 5.4 1.8 5.4 1.8 0 0-5.9 7-0.4 10 5.1 2.6 13.7 4.2 18.3-0.4 3.3-3.3 3.9-10.7 5.2-13.7 0.3-0.7 1.2 1.2 2.2 2.1 1 1 2.8 2.1 2.8 2.1 0 0-8.1 3.4-4.7 11.4 1 2.6 4.9 4.3 11.3 4.2 2.4 0 28.4-1.5 35.4-3.2 4-0.9 5.3-3 5.3-3 0 0 16.8-4.6 32-14.5 9.8-6.3 13.8-8.1 21.7-9.9 6.5-1.6 6.1-11.8-2.6-11.6z"/>
	</g>
</svg>