<svg version="1.2" xmlns="http://www.w3.org/2000/svg" viewBox="0 0 40 40" width="40" height="40">
	<title>yarn</title>
	<style>
		.s0 { fill: #368fb9 } 
		.s1 { fill: #ffffff } 
	</style>
	<g>
		<path fill-rule="evenodd" class="s0" d="m20 40c-11.1 0-20-8.9-20-20 0-11.1 8.9-20 20-20 11.1 0 20 8.9 20 20 0 11.1-8.9 20-20 20z"/>
		<path fill-rule="evenodd" class="s1" d="m32 28.3c-1 0.3-1.5 0.5-3 1.4-2.1 1.4-4.2 2.1-5 2.3-0.3 0.3-0.7 0.5-1.2 0.6-1.2 0.3-5.4 0.6-5.8 0.6-1.4 0-2.1-0.5-2.5-0.9-1.1 0.6-2.5 0.4-3.5-0.2-0.5-0.3-0.9-0.7-1-1.3q0-0.3 0-0.6-0.1-0.2-0.2-0.3c-0.3-0.5-0.9-1.6-0.8-3.3 0.1-1.2 1-2.3 1.5-2.8 0-0.8 0-2.3 0.7-3.8 0.5-1.2 1.4-2.2 2.2-2.9-0.6-0.9-1.1-2.3-0.6-3.7 0.4-1 0.7-1.5 1.4-1.8 0.3-0.1 0.6-0.2 0.8-0.4 1.3-1.4 2.8-1.8 3.8-1.8q0.1-0.3 0.2-0.5c0.5-1.1 1.1-1.7 1.7-2 0.5-0.1 1-0.1 1.5 0.2 0.2 0.2 0.4 0.3 1.2 1.9 0.5-0.1 0.8 0 0.9 0q0.5 0.1 0.8 0.6c0.8 1.6 0.9 4.3 0.6 6-0.4 2.1-1.3 3.4-1.9 4.3 0.5 0.6 1.3 1.5 1.8 3.1 0.5 1.3 0.6 2.4 0.5 3.3q0.4-0.2 1-0.5c1-0.6 2.5-1.5 4.2-1.6 1.2 0 2.2 0.8 2.3 1.9 0.1 1-0.5 2-1.6 2.2zm-0.6-2.9c-1.4 0-2.7 0.7-3.7 1.4-1.9 1.2-2.9 1.1-2.9 1.1q0 0 0-0.1c-0.2-0.2 0.6-2.1-0.3-4.4-0.9-2.6-2.3-3.2-2.2-3.4 0.5-0.8 1.7-2.1 2.2-4.6 0.3-1.5 0.2-4-0.4-5.2-0.1-0.3-1.2 0.4-1.2 0.4 0 0-1.1-2.3-1.4-2.5-0.9-0.6-1.9 2.4-1.9 2.4 0 0-2.1-0.3-3.8 1.5-0.3 0.4-0.7 0.5-1.2 0.7-0.1 0.1-0.3 0.1-0.7 1.1-0.6 1.7 1.1 3.5 1.1 3.5 0 0-2 1.4-2.8 3.2-0.8 1.9-0.5 3.7-0.5 3.7 0 0-1.4 1.3-1.5 2.5-0.1 1.1 0.2 2 0.5 2.5 0.4 0.6 0.9 0.3 0.9 0.3 0 0-0.9 1.1-0.1 1.6 0.8 0.4 2.2 0.6 2.9-0.1 0.5-0.5 0.6-1.6 0.8-2.1 0-0.1 0.2 0.2 0.3 0.3 0.2 0.2 0.5 0.3 0.5 0.3 0 0-1.3 0.6-0.8 1.8 0.2 0.4 0.8 0.7 1.8 0.7 0.4 0 4.5-0.3 5.5-0.5 0.7-0.2 0.9-0.5 0.9-0.5 0 0 2.6-0.7 5-2.3 1.5-0.9 2.1-1.2 3.4-1.5 1-0.2 0.9-1.8-0.4-1.8z"/>
	</g>
</svg>