<?xml version="1.0" encoding="UTF-8"?>
<svg xmlns="http://www.w3.org/2000/svg" xmlns:xlink="http://www.w3.org/1999/xlink" width="px" height="40px" viewBox="0 0 37 39" version="1.1">
<defs>
<clipPath id="clip1">
  <path d="M 0 0 L 37 0 L 37 37 L 0 37 Z M 0 0 "/>
</clipPath>
<clipPath id="clip2">
  <path d="M 37 18.054688 C 37 8.085938 28.714844 0 18.5 0 C 8.285156 0 0 8.085938 0 18.054688 C 0 23.539062 2.507812 28.445312 6.460938 31.757812 L 4.238281 35.507812 L 4.238281 38.488281 C 4.238281 38.75 4.457031 38.960938 4.726562 38.960938 C 4.816406 38.960938 4.898438 38.941406 4.972656 38.898438 L 7.613281 37.410156 L 9.675781 33.929688 C 12.296875 35.320312 15.304688 36.113281 18.5 36.113281 C 21.695312 36.113281 24.703125 35.320312 27.328125 33.929688 L 29.386719 37.410156 L 32.027344 38.898438 C 32.101562 38.941406 32.183594 38.960938 32.277344 38.960938 C 32.542969 38.960938 32.761719 38.75 32.761719 38.488281 L 32.761719 35.507812 L 30.542969 31.757812 C 34.492188 28.445312 37 23.539062 37 18.054688 Z M 37 18.054688 "/>
</clipPath>
<clipPath id="clip3">
  <path d="M 37 18.054688 C 37 8.085938 28.714844 0 18.5 0 C 8.285156 0 0 8.085938 0 18.054688 C 0 23.539062 2.507812 28.445312 6.460938 31.757812 L 4.238281 35.507812 L 4.238281 38.488281 C 4.238281 38.75 4.457031 38.960938 4.726562 38.960938 C 4.816406 38.960938 4.898438 38.941406 4.972656 38.898438 L 7.613281 37.410156 L 9.675781 33.929688 C 12.296875 35.320312 15.304688 36.113281 18.5 36.113281 C 21.695312 36.113281 24.703125 35.320312 27.328125 33.929688 L 29.386719 37.410156 L 32.027344 38.898438 C 32.101562 38.941406 32.183594 38.960938 32.277344 38.960938 C 32.542969 38.960938 32.761719 38.75 32.761719 38.488281 L 32.761719 35.507812 L 30.542969 31.757812 C 34.492188 28.445312 37 23.539062 37 18.054688 Z M 37 18.054688 "/>
</clipPath>
<filter id="alpha" filterUnits="objectBoundingBox" x="0%" y="0%" width="100%" height="100%">
  <feColorMatrix type="matrix" in="SourceGraphic" values="0 0 0 0 1 0 0 0 0 1 0 0 0 0 1 0 0 0 1 0"/>
</filter>
<mask id="mask0">
  <g filter="url(#alpha)">
<rect x="0" y="0" width="37" height="39" style="fill:rgb(0%,0%,0%);fill-opacity:0.2;stroke:none;"/>
  </g>
</mask>
<clipPath id="clip4">
  <rect x="0" y="0" width="37" height="39"/>
</clipPath>
<g id="surface5" clip-path="url(#clip4)">
<path style=" stroke:none;fill-rule:nonzero;fill:rgb(14.901961%,19.607843%,21.960784%);fill-opacity:1;" d="M 18.5 35.875 C 28.632812 35.875 36.859375 27.925781 37 18.054688 C 37 28.03125 28.710938 36.105469 18.5 36.105469 C 8.289062 36.105469 0 28.03125 0 18.054688 C 0.140625 27.925781 8.367188 35.875 18.5 35.875 Z M 18.5 35.875 "/>
</g>
<clipPath id="clip5">
  <path d="M 0 0 L 37 0 L 37 19 L 0 19 Z M 0 0 "/>
</clipPath>
<clipPath id="clip6">
  <path d="M 37 18.054688 C 37 8.085938 28.714844 0 18.5 0 C 8.285156 0 0 8.085938 0 18.054688 C 0 23.539062 2.507812 28.445312 6.460938 31.757812 L 4.238281 35.507812 L 4.238281 38.488281 C 4.238281 38.75 4.457031 38.960938 4.726562 38.960938 C 4.816406 38.960938 4.898438 38.941406 4.972656 38.898438 L 7.613281 37.410156 L 9.675781 33.929688 C 12.296875 35.320312 15.304688 36.113281 18.5 36.113281 C 21.695312 36.113281 24.703125 35.320312 27.328125 33.929688 L 29.386719 37.410156 L 32.027344 38.898438 C 32.101562 38.941406 32.183594 38.960938 32.277344 38.960938 C 32.542969 38.960938 32.761719 38.75 32.761719 38.488281 L 32.761719 35.507812 L 30.542969 31.757812 C 34.492188 28.445312 37 23.539062 37 18.054688 Z M 37 18.054688 "/>
</clipPath>
<clipPath id="clip7">
  <path d="M 16 12 L 21 12 L 21 18 L 16 18 Z M 16 12 "/>
</clipPath>
<clipPath id="clip8">
  <path d="M 37 18.054688 C 37 8.085938 28.714844 0 18.5 0 C 8.285156 0 0 8.085938 0 18.054688 C 0 23.539062 2.507812 28.445312 6.460938 31.757812 L 4.238281 35.507812 L 4.238281 38.488281 C 4.238281 38.75 4.457031 38.960938 4.726562 38.960938 C 4.816406 38.960938 4.898438 38.941406 4.972656 38.898438 L 7.613281 37.410156 L 9.675781 33.929688 C 12.296875 35.320312 15.304688 36.113281 18.5 36.113281 C 21.695312 36.113281 24.703125 35.320312 27.328125 33.929688 L 29.386719 37.410156 L 32.027344 38.898438 C 32.101562 38.941406 32.183594 38.960938 32.277344 38.960938 C 32.542969 38.960938 32.761719 38.75 32.761719 38.488281 L 32.761719 35.507812 L 30.542969 31.757812 C 34.492188 28.445312 37 23.539062 37 18.054688 Z M 37 18.054688 "/>
</clipPath>
<clipPath id="clip9">
  <path d="M 37 18.054688 C 37 8.085938 28.714844 0 18.5 0 C 8.285156 0 0 8.085938 0 18.054688 C 0 23.539062 2.507812 28.445312 6.460938 31.757812 L 4.238281 35.507812 L 4.238281 38.488281 C 4.238281 38.75 4.457031 38.960938 4.726562 38.960938 C 4.816406 38.960938 4.898438 38.941406 4.972656 38.898438 L 7.613281 37.410156 L 9.675781 33.929688 C 12.296875 35.320312 15.304688 36.113281 18.5 36.113281 C 21.695312 36.113281 24.703125 35.320312 27.328125 33.929688 L 29.386719 37.410156 L 32.027344 38.898438 C 32.101562 38.941406 32.183594 38.960938 32.277344 38.960938 C 32.542969 38.960938 32.761719 38.75 32.761719 38.488281 L 32.761719 35.507812 L 30.542969 31.757812 C 34.492188 28.445312 37 23.539062 37 18.054688 Z M 37 18.054688 "/>
</clipPath>
<mask id="mask1">
  <g filter="url(#alpha)">
<rect x="0" y="0" width="37" height="39" style="fill:rgb(0%,0%,0%);fill-opacity:0.101961;stroke:none;"/>
  </g>
</mask>
<clipPath id="clip10">
  <rect x="0" y="0" width="37" height="39"/>
</clipPath>
<g id="surface8" clip-path="url(#clip10)">
<path style=" stroke:none;fill-rule:nonzero;fill:rgb(14.901961%,19.607843%,21.960784%);fill-opacity:1;" d="M 0 17.824219 L 37 17.824219 L 37 18.054688 L 0 18.054688 Z M 0 17.824219 "/>
</g>
<mask id="mask2">
  <g filter="url(#alpha)">
<rect x="0" y="0" width="37" height="39" style="fill:rgb(0%,0%,0%);fill-opacity:0.101961;stroke:none;"/>
  </g>
</mask>
<clipPath id="clip11">
  <rect x="0" y="0" width="37" height="39"/>
</clipPath>
<g id="surface11" clip-path="url(#clip11)">
<path style=" stroke:none;fill-rule:nonzero;fill:rgb(100%,100%,100%);fill-opacity:1;" d="M 0 18.054688 L 37 18.054688 L 37 18.296875 L 0 18.296875 Z M 0 18.054688 "/>
</g>
<clipPath id="clip12">
  <path d="M 4 6 L 37 6 L 37 39 L 4 39 Z M 4 6 "/>
</clipPath>
<clipPath id="clip13">
  <path d="M 37 18.054688 C 37 8.085938 28.714844 0 18.5 0 C 8.285156 0 0 8.085938 0 18.054688 C 0 23.539062 2.507812 28.445312 6.460938 31.757812 L 4.238281 35.507812 L 4.238281 38.488281 C 4.238281 38.75 4.457031 38.960938 4.726562 38.960938 C 4.816406 38.960938 4.898438 38.941406 4.972656 38.898438 L 7.613281 37.410156 L 9.675781 33.929688 C 12.296875 35.320312 15.304688 36.113281 18.5 36.113281 C 21.695312 36.113281 24.703125 35.320312 27.328125 33.929688 L 29.386719 37.410156 L 32.027344 38.898438 C 32.101562 38.941406 32.183594 38.960938 32.277344 38.960938 C 32.542969 38.960938 32.761719 38.75 32.761719 38.488281 L 32.761719 35.507812 L 30.542969 31.757812 C 34.492188 28.445312 37 23.539062 37 18.054688 Z M 37 18.054688 "/>
</clipPath>
<linearGradient id="linear0" gradientUnits="userSpaceOnUse" x1="0" y1="0" x2="1" y2="0" gradientTransform="matrix(17.248557,9.91636,-11.262207,18.653578,14.205815,23.502222)">
<stop offset="0" style="stop-color:rgb(14.901961%,19.607843%,21.960784%);stop-opacity:0.2;"/>
<stop offset="1" style="stop-color:rgb(14.901961%,19.607843%,21.960784%);stop-opacity:0.0196078;"/>
</linearGradient>
<clipPath id="clip14">
  <path d="M 37 18.054688 C 37 8.085938 28.714844 0 18.5 0 C 8.285156 0 0 8.085938 0 18.054688 C 0 23.539062 2.507812 28.445312 6.460938 31.757812 L 4.238281 35.507812 L 4.238281 38.488281 C 4.238281 38.75 4.457031 38.960938 4.726562 38.960938 C 4.816406 38.960938 4.898438 38.941406 4.972656 38.898438 L 7.613281 37.410156 L 9.675781 33.929688 C 12.296875 35.320312 15.304688 36.113281 18.5 36.113281 C 21.695312 36.113281 24.703125 35.320312 27.328125 33.929688 L 29.386719 37.410156 L 32.027344 38.898438 C 32.101562 38.941406 32.183594 38.960938 32.277344 38.960938 C 32.542969 38.960938 32.761719 38.75 32.761719 38.488281 L 32.761719 35.507812 L 30.542969 31.757812 C 34.492188 28.445312 37 23.539062 37 18.054688 Z M 37 18.054688 "/>
</clipPath>
<mask id="mask3">
  <g filter="url(#alpha)">
<rect x="0" y="0" width="37" height="39" style="fill:rgb(0%,0%,0%);fill-opacity:0.2;stroke:none;"/>
  </g>
</mask>
<clipPath id="clip15">
  <rect x="0" y="0" width="37" height="39"/>
</clipPath>
<g id="surface14" clip-path="url(#clip15)">
<path style=" stroke:none;fill-rule:nonzero;fill:rgb(100%,100%,100%);fill-opacity:1;" d="M 18.5 0.242188 C 28.632812 0.242188 36.859375 8.195312 37 18.054688 C 37 8.089844 28.710938 0 18.5 0 C 8.289062 0 0 8.089844 0 18.054688 C 0.140625 8.195312 8.367188 0.242188 18.5 0.242188 Z M 18.5 0.242188 "/>
</g>
<clipPath id="clip16">
  <path d="M 17 18 L 33 18 L 33 39 L 17 39 Z M 17 18 "/>
</clipPath>
<clipPath id="clip17">
  <path d="M 37 18.054688 C 37 8.085938 28.714844 0 18.5 0 C 8.285156 0 0 8.085938 0 18.054688 C 0 23.539062 2.507812 28.445312 6.460938 31.757812 L 4.238281 35.507812 L 4.238281 38.488281 C 4.238281 38.75 4.457031 38.960938 4.726562 38.960938 C 4.816406 38.960938 4.898438 38.941406 4.972656 38.898438 L 7.613281 37.410156 L 9.675781 33.929688 C 12.296875 35.320312 15.304688 36.113281 18.5 36.113281 C 21.695312 36.113281 24.703125 35.320312 27.328125 33.929688 L 29.386719 37.410156 L 32.027344 38.898438 C 32.101562 38.941406 32.183594 38.960938 32.277344 38.960938 C 32.542969 38.960938 32.761719 38.75 32.761719 38.488281 L 32.761719 35.507812 L 30.542969 31.757812 C 34.492188 28.445312 37 23.539062 37 18.054688 Z M 37 18.054688 "/>
</clipPath>
<clipPath id="clip18">
  <path d="M 37 18.054688 C 37 8.085938 28.714844 0 18.5 0 C 8.285156 0 0 8.085938 0 18.054688 C 0 23.539062 2.507812 28.445312 6.460938 31.757812 L 4.238281 35.507812 L 4.238281 38.488281 C 4.238281 38.75 4.457031 38.960938 4.726562 38.960938 C 4.816406 38.960938 4.898438 38.941406 4.972656 38.898438 L 7.613281 37.410156 L 9.675781 33.929688 C 12.296875 35.320312 15.304688 36.113281 18.5 36.113281 C 21.695312 36.113281 24.703125 35.320312 27.328125 33.929688 L 29.386719 37.410156 L 32.027344 38.898438 C 32.101562 38.941406 32.183594 38.960938 32.277344 38.960938 C 32.542969 38.960938 32.761719 38.75 32.761719 38.488281 L 32.761719 35.507812 L 30.542969 31.757812 C 34.492188 28.445312 37 23.539062 37 18.054688 Z M 37 18.054688 "/>
</clipPath>
<mask id="mask4">
  <g filter="url(#alpha)">
<rect x="0" y="0" width="37" height="39" style="fill:rgb(0%,0%,0%);fill-opacity:0.301961;stroke:none;"/>
  </g>
</mask>
<clipPath id="clip19">
  <rect x="0" y="0" width="37" height="39"/>
</clipPath>
<g id="surface17" clip-path="url(#clip19)">
<path style=" stroke:none;fill-rule:nonzero;fill:rgb(74.117649%,74.117649%,74.117649%);fill-opacity:1;" d="M 22.433594 18.054688 L 17.9375 18.054688 L 29.382812 37.414062 L 32.035156 38.894531 C 32.109375 38.933594 32.1875 38.960938 32.269531 38.96875 C 32.550781 38.96875 32.769531 38.742188 32.769531 38.480469 L 32.769531 35.511719 Z M 22.433594 18.054688 "/>
</g>
<mask id="mask5">
  <g filter="url(#alpha)">
<rect x="0" y="0" width="37" height="39" style="fill:rgb(0%,0%,0%);fill-opacity:0.2;stroke:none;"/>
  </g>
</mask>
<clipPath id="clip20">
  <rect x="0" y="0" width="37" height="39"/>
</clipPath>
<g id="surface20" clip-path="url(#clip20)">
<path style=" stroke:none;fill-rule:nonzero;fill:rgb(100%,100%,100%);fill-opacity:1;" d="M 32.753906 35.511719 L 22.433594 18.054688 L 22.292969 18.054688 L 32.753906 35.738281 Z M 32.753906 35.511719 "/>
</g>
<mask id="mask6">
  <g filter="url(#alpha)">
<rect x="0" y="0" width="37" height="39" style="fill:rgb(0%,0%,0%);fill-opacity:0.101961;stroke:none;"/>
  </g>
</mask>
<clipPath id="clip21">
  <rect x="0" y="0" width="37" height="39"/>
</clipPath>
<g id="surface23" clip-path="url(#clip21)">
<path style=" stroke:none;fill-rule:nonzero;fill:rgb(12.941177%,12.941177%,12.941177%);fill-opacity:1;" d="M 32.269531 38.726562 C 32.1875 38.726562 32.101562 38.707031 32.019531 38.664062 L 29.382812 37.171875 L 18.078125 18.050781 L 17.9375 18.050781 L 29.382812 37.414062 L 32.035156 38.894531 C 32.109375 38.933594 32.1875 38.960938 32.269531 38.96875 C 32.550781 38.96875 32.769531 38.742188 32.769531 38.480469 L 32.769531 38.253906 C 32.753906 38.511719 32.535156 38.726562 32.269531 38.726562 Z M 32.269531 38.726562 "/>
</g>
<clipPath id="clip22">
  <path d="M 4 18 L 33 18 L 33 39 L 4 39 Z M 4 18 "/>
</clipPath>
<clipPath id="clip23">
  <path d="M 37 18.054688 C 37 8.085938 28.714844 0 18.5 0 C 8.285156 0 0 8.085938 0 18.054688 C 0 23.539062 2.507812 28.445312 6.460938 31.757812 L 4.238281 35.507812 L 4.238281 38.488281 C 4.238281 38.75 4.457031 38.960938 4.726562 38.960938 C 4.816406 38.960938 4.898438 38.941406 4.972656 38.898438 L 7.613281 37.410156 L 9.675781 33.929688 C 12.296875 35.320312 15.304688 36.113281 18.5 36.113281 C 21.695312 36.113281 24.703125 35.320312 27.328125 33.929688 L 29.386719 37.410156 L 32.027344 38.898438 C 32.101562 38.941406 32.183594 38.960938 32.277344 38.960938 C 32.542969 38.960938 32.761719 38.75 32.761719 38.488281 L 32.761719 35.507812 L 30.542969 31.757812 C 34.492188 28.445312 37 23.539062 37 18.054688 Z M 37 18.054688 "/>
</clipPath>
<clipPath id="clip24">
  <path d="M 37 18.054688 C 37 8.085938 28.714844 0 18.5 0 C 8.285156 0 0 8.085938 0 18.054688 C 0 23.539062 2.507812 28.445312 6.460938 31.757812 L 4.238281 35.507812 L 4.238281 38.488281 C 4.238281 38.75 4.457031 38.960938 4.726562 38.960938 C 4.816406 38.960938 4.898438 38.941406 4.972656 38.898438 L 7.613281 37.410156 L 9.675781 33.929688 C 12.296875 35.320312 15.304688 36.113281 18.5 36.113281 C 21.695312 36.113281 24.703125 35.320312 27.328125 33.929688 L 29.386719 37.410156 L 32.027344 38.898438 C 32.101562 38.941406 32.183594 38.960938 32.277344 38.960938 C 32.542969 38.960938 32.761719 38.75 32.761719 38.488281 L 32.761719 35.507812 L 30.542969 31.757812 C 34.492188 28.445312 37 23.539062 37 18.054688 Z M 37 18.054688 "/>
</clipPath>
<mask id="mask7">
  <g filter="url(#alpha)">
<rect x="0" y="0" width="37" height="39" style="fill:rgb(0%,0%,0%);fill-opacity:0.4;stroke:none;"/>
  </g>
</mask>
<clipPath id="clip25">
  <rect x="0" y="0" width="37" height="39"/>
</clipPath>
<g id="surface26" clip-path="url(#clip25)">
<path style=" stroke:none;fill-rule:nonzero;fill:rgb(100%,100%,100%);fill-opacity:1;" d="M 14.566406 18.054688 L 4.230469 35.511719 L 4.230469 35.738281 L 14.707031 18.054688 Z M 18.5 27.558594 C 16.90625 27.558594 15.394531 27.179688 14.066406 26.507812 L 14.066406 26.75 C 15.394531 27.421875 16.90625 27.804688 18.5 27.804688 C 23.871094 27.804688 28.242188 23.539062 28.242188 18.296875 L 32.128906 18.296875 C 32.128906 18.214844 32.128906 18.132812 32.128906 18.054688 L 28.242188 18.054688 C 28.242188 23.308594 23.871094 27.558594 18.5 27.558594 Z M 18.5 27.558594 "/>
</g>
<mask id="mask8">
  <g filter="url(#alpha)">
<rect x="0" y="0" width="37" height="39" style="fill:rgb(0%,0%,0%);fill-opacity:0.101961;stroke:none;"/>
  </g>
</mask>
<clipPath id="clip26">
  <rect x="0" y="0" width="37" height="39"/>
</clipPath>
<g id="surface29" clip-path="url(#clip26)">
<path style=" stroke:none;fill-rule:evenodd;fill:rgb(12.941177%,12.941177%,12.941177%);fill-opacity:1;" d="M 32.128906 18.054688 C 32.128906 25.410156 26.023438 31.351562 18.5 31.351562 C 16.1875 31.351562 14.019531 30.804688 12.113281 29.8125 L 7.617188 37.414062 L 4.964844 38.894531 C 4.890625 38.933594 4.8125 38.960938 4.730469 38.96875 C 4.449219 38.96875 4.230469 38.742188 4.230469 38.480469 L 4.230469 38.253906 C 4.230469 38.511719 4.449219 38.726562 4.730469 38.726562 C 4.8125 38.726562 4.890625 38.707031 4.964844 38.664062 L 7.617188 37.171875 L 12.113281 29.570312 C 14.019531 30.558594 16.1875 31.125 18.5 31.125 C 25.945312 31.125 31.988281 25.289062 32.128906 18.050781 Z M 14.050781 26.507812 L 14.050781 26.28125 L 18.921875 18.054688 L 19.0625 18.054688 Z M 14.050781 26.507812 "/>
</g>
<clipPath id="clip27">
  <path d="M 12 6 L 25 6 L 25 24 L 12 24 Z M 12 6 "/>
</clipPath>
<clipPath id="clip28">
  <path d="M 37 18.054688 C 37 8.085938 28.714844 0 18.5 0 C 8.285156 0 0 8.085938 0 18.054688 C 0 23.539062 2.507812 28.445312 6.460938 31.757812 L 4.238281 35.507812 L 4.238281 38.488281 C 4.238281 38.75 4.457031 38.960938 4.726562 38.960938 C 4.816406 38.960938 4.898438 38.941406 4.972656 38.898438 L 7.613281 37.410156 L 9.675781 33.929688 C 12.296875 35.320312 15.304688 36.113281 18.5 36.113281 C 21.695312 36.113281 24.703125 35.320312 27.328125 33.929688 L 29.386719 37.410156 L 32.027344 38.898438 C 32.101562 38.941406 32.183594 38.960938 32.277344 38.960938 C 32.542969 38.960938 32.761719 38.75 32.761719 38.488281 L 32.761719 35.507812 L 30.542969 31.757812 C 34.492188 28.445312 37 23.539062 37 18.054688 Z M 37 18.054688 "/>
</clipPath>
<clipPath id="clip29">
  <path d="M 37 18.054688 C 37 8.085938 28.714844 0 18.5 0 C 8.285156 0 0 8.085938 0 18.054688 C 0 23.539062 2.507812 28.445312 6.460938 31.757812 L 4.238281 35.507812 L 4.238281 38.488281 C 4.238281 38.75 4.457031 38.960938 4.726562 38.960938 C 4.816406 38.960938 4.898438 38.941406 4.972656 38.898438 L 7.613281 37.410156 L 9.675781 33.929688 C 12.296875 35.320312 15.304688 36.113281 18.5 36.113281 C 21.695312 36.113281 24.703125 35.320312 27.328125 33.929688 L 29.386719 37.410156 L 32.027344 38.898438 C 32.101562 38.941406 32.183594 38.960938 32.277344 38.960938 C 32.542969 38.960938 32.761719 38.75 32.761719 38.488281 L 32.761719 35.507812 L 30.542969 31.757812 C 34.492188 28.445312 37 23.539062 37 18.054688 Z M 37 18.054688 "/>
</clipPath>
<mask id="mask9">
  <g filter="url(#alpha)">
<rect x="0" y="0" width="37" height="39" style="fill:rgb(0%,0%,0%);fill-opacity:0.101961;stroke:none;"/>
  </g>
</mask>
<clipPath id="clip30">
  <rect x="0" y="0" width="37" height="39"/>
</clipPath>
<g id="surface32" clip-path="url(#clip30)">
<path style=" stroke:none;fill-rule:nonzero;fill:rgb(100%,100%,100%);fill-opacity:1;" d="M 22.886719 9.507812 L 20.453125 9.507812 L 20.453125 9.734375 L 22.886719 9.734375 C 23.683594 9.734375 24.339844 10.375 24.339844 11.167969 L 24.339844 10.921875 C 24.339844 10.144531 23.683594 9.507812 22.886719 9.507812 Z M 16.546875 6.65625 L 20.453125 6.65625 L 20.453125 6.886719 L 16.546875 6.886719 Z M 16.546875 9.507812 L 14.113281 9.507812 C 13.316406 9.507812 12.660156 10.144531 12.660156 10.9375 L 12.660156 11.183594 C 12.660156 10.390625 13.316406 9.75 14.113281 9.75 L 16.546875 9.75 Z M 18.5 17.582031 C 17.15625 17.582031 16.066406 16.515625 16.066406 15.203125 L 16.066406 15.449219 C 16.066406 16.757812 17.15625 17.824219 18.5 17.824219 C 19.84375 17.824219 20.933594 16.757812 20.933594 15.449219 L 20.933594 15.203125 C 20.933594 16.515625 19.84375 17.582031 18.5 17.582031 Z M 18.5 17.582031 "/>
</g>
<mask id="mask10">
  <g filter="url(#alpha)">
<rect x="0" y="0" width="37" height="39" style="fill:rgb(0%,0%,0%);fill-opacity:0.101961;stroke:none;"/>
  </g>
</mask>
<clipPath id="clip31">
  <rect x="0" y="0" width="37" height="39"/>
</clipPath>
<g id="surface35" clip-path="url(#clip31)">
<path style=" stroke:none;fill-rule:nonzero;fill:rgb(12.941177%,12.941177%,12.941177%);fill-opacity:1;" d="M 18.5 12.828125 C 19.84375 12.828125 20.933594 13.894531 20.933594 15.203125 L 20.933594 14.960938 C 20.933594 13.648438 19.84375 12.597656 18.5 12.597656 C 17.15625 12.597656 16.066406 13.648438 16.066406 14.960938 L 16.066406 15.203125 C 16.066406 13.894531 17.15625 12.828125 18.5 12.828125 Z M 19.53125 22.5 C 19.265625 22.761719 18.90625 22.929688 18.5 22.929688 C 18.09375 22.929688 17.734375 22.761719 17.46875 22.5 L 12.660156 17.824219 L 12.660156 18.050781 L 17.46875 22.746094 C 17.734375 23.003906 18.09375 23.15625 18.5 23.15625 C 18.90625 23.15625 19.265625 23.003906 19.53125 22.746094 L 24.339844 18.050781 L 24.339844 17.824219 Z M 19.53125 22.5 "/>
</g>
<radialGradient id="radial0" gradientUnits="userSpaceOnUse" cx="0" cy="0" fx="0" fy="0" r="1" gradientTransform="matrix(43.845939,0,0,42.785897,5.442435,5.272008)">
<stop offset="0" style="stop-color:rgb(100%,100%,100%);stop-opacity:0.101961;"/>
<stop offset="1" style="stop-color:rgb(100%,100%,100%);stop-opacity:0;"/>
</radialGradient>
</defs>
<g id="surface1">
<g clip-path="url(#clip1)" clip-rule="nonzero">
<g clip-path="url(#clip2)" clip-rule="nonzero">
<path style=" stroke:none;fill-rule:nonzero;fill:rgb(27.058825%,93.725491%,54.11765%);fill-opacity:1;" d="M 18.5 36.105469 C 8.273438 36.105469 0 28.046875 0 18.054688 C 0 8.074219 8.273438 0 18.5 0 C 28.726562 0 37 8.074219 37 18.054688 C 37 28.046875 28.726562 36.105469 18.5 36.105469 Z M 18.5 36.105469 "/>
</g>
</g>
<g clip-path="url(#clip3)" clip-rule="nonzero">
<use xlink:href="#surface5" mask="url(#mask0)"/>
</g>
<g clip-path="url(#clip5)" clip-rule="nonzero">
<g clip-path="url(#clip6)" clip-rule="nonzero">
<path style=" stroke:none;fill-rule:nonzero;fill:rgb(23.921569%,86.274511%,51.764709%);fill-opacity:1;" d="M 18.5 0 C 8.289062 0 0 8.089844 0 18.054688 L 37 18.054688 C 37 8.089844 28.710938 0 18.5 0 Z M 18.5 0 "/>
</g>
</g>
<g clip-path="url(#clip7)" clip-rule="nonzero">
<g clip-path="url(#clip8)" clip-rule="nonzero">
<path style=" stroke:none;fill-rule:nonzero;fill:rgb(23.921569%,86.274511%,51.764709%);fill-opacity:1;" d="M 18.5 17.582031 C 17.15625 17.582031 16.066406 16.515625 16.066406 15.203125 C 16.066406 13.894531 17.15625 12.828125 18.5 12.828125 C 19.84375 12.828125 20.933594 13.894531 20.933594 15.203125 C 20.933594 16.515625 19.84375 17.582031 18.5 17.582031 Z M 18.5 17.582031 "/>
</g>
</g>
<g clip-path="url(#clip9)" clip-rule="nonzero">
<use xlink:href="#surface8" mask="url(#mask1)"/>
<use xlink:href="#surface11" mask="url(#mask2)"/>
</g>
<g clip-path="url(#clip12)" clip-rule="nonzero">
<g clip-path="url(#clip13)" clip-rule="nonzero">
<path style=" stroke:none;fill-rule:nonzero;fill:url(#linear0);" d="M 14.566406 18.054688 L 4.730469 38.96875 L 37 38.96875 L 37 22.804688 L 20.453125 6.65625 L 16.546875 9.507812 Z M 14.566406 18.054688 "/>
</g>
</g>
<g clip-path="url(#clip14)" clip-rule="nonzero">
<use xlink:href="#surface14" mask="url(#mask3)"/>
</g>
<g clip-path="url(#clip16)" clip-rule="nonzero">
<g clip-path="url(#clip17)" clip-rule="nonzero">
<path style=" stroke:none;fill-rule:nonzero;fill:rgb(84.313726%,93.725491%,99.607843%);fill-opacity:1;" d="M 22.433594 18.054688 L 17.9375 18.054688 L 29.382812 37.414062 L 32.035156 38.894531 C 32.109375 38.933594 32.1875 38.960938 32.269531 38.96875 C 32.550781 38.96875 32.769531 38.742188 32.769531 38.480469 L 32.769531 35.511719 Z M 22.433594 18.054688 "/>
</g>
</g>
<g clip-path="url(#clip18)" clip-rule="nonzero">
<use xlink:href="#surface17" mask="url(#mask4)"/>
<use xlink:href="#surface20" mask="url(#mask5)"/>
<use xlink:href="#surface23" mask="url(#mask6)"/>
</g>
<g clip-path="url(#clip22)" clip-rule="nonzero">
<g clip-path="url(#clip23)" clip-rule="nonzero">
<path style=" stroke:none;fill-rule:nonzero;fill:rgb(84.313726%,93.725491%,99.607843%);fill-opacity:1;" d="M 28.242188 18.054688 C 28.242188 23.308594 23.871094 27.558594 18.5 27.558594 C 16.90625 27.558594 15.394531 27.179688 14.066406 26.507812 L 18.5 19.011719 L 19.0625 18.054688 L 14.566406 18.054688 L 4.230469 35.511719 L 4.230469 38.480469 C 4.230469 38.742188 4.449219 38.96875 4.730469 38.96875 C 4.8125 38.960938 4.890625 38.933594 4.964844 38.894531 L 7.617188 37.414062 L 12.113281 29.8125 C 14.019531 30.804688 16.1875 31.351562 18.5 31.351562 C 26.023438 31.351562 32.128906 25.410156 32.128906 18.050781 Z M 28.242188 18.054688 "/>
</g>
</g>
<g clip-path="url(#clip24)" clip-rule="nonzero">
<use xlink:href="#surface26" mask="url(#mask7)"/>
<use xlink:href="#surface29" mask="url(#mask8)"/>
</g>
<g clip-path="url(#clip27)" clip-rule="nonzero">
<g clip-path="url(#clip28)" clip-rule="nonzero">
<path style=" stroke:none;fill-rule:evenodd;fill:rgb(2.745098%,18.82353%,25.882354%);fill-opacity:1;" d="M 24.339844 10.921875 L 24.339844 18.054688 L 19.53125 22.746094 C 19.265625 23.003906 18.90625 23.15625 18.5 23.15625 C 18.09375 23.15625 17.734375 23.003906 17.46875 22.746094 L 12.660156 18.054688 L 12.660156 10.921875 C 12.660156 10.144531 13.316406 9.507812 14.113281 9.507812 L 16.546875 9.507812 L 16.546875 6.65625 L 20.453125 6.65625 L 20.453125 9.507812 L 22.886719 9.507812 C 23.683594 9.507812 24.339844 10.144531 24.339844 10.921875 Z M 20.933594 15.203125 C 20.933594 13.894531 19.84375 12.828125 18.5 12.828125 C 17.15625 12.828125 16.066406 13.894531 16.066406 15.203125 C 16.066406 16.515625 17.15625 17.582031 18.5 17.582031 C 19.84375 17.582031 20.933594 16.515625 20.933594 15.203125 Z M 20.933594 15.203125 "/>
</g>
</g>
<g clip-path="url(#clip29)" clip-rule="nonzero">
<use xlink:href="#surface32" mask="url(#mask9)"/>
<use xlink:href="#surface35" mask="url(#mask10)"/>
</g>
<path style=" stroke:none;fill-rule:nonzero;fill:url(#radial0);" d="M 37 18.054688 C 37 8.089844 28.710938 0 18.5 0 C 8.289062 0 0 8.089844 0 18.054688 C 0 23.539062 2.511719 28.441406 6.464844 31.765625 L 4.246094 35.511719 L 4.246094 38.480469 C 4.246094 38.742188 4.464844 38.96875 4.730469 38.96875 C 4.8125 38.960938 4.898438 38.933594 4.980469 38.894531 L 7.617188 37.414062 L 9.679688 33.925781 C 12.300781 35.3125 15.300781 36.105469 18.5 36.105469 C 21.699219 36.105469 24.699219 35.3125 27.320312 33.925781 L 29.382812 37.414062 L 32.035156 38.894531 C 32.109375 38.933594 32.1875 38.960938 32.269531 38.96875 C 32.550781 38.96875 32.769531 38.742188 32.769531 38.480469 L 32.769531 35.511719 L 30.535156 31.765625 C 34.488281 28.441406 37 23.539062 37 18.054688 Z M 37 18.054688 "/>
</g>
</svg>
