<?xml version="1.0" encoding="UTF-8"?>
<svg xmlns="http://www.w3.org/2000/svg" xmlns:xlink="http://www.w3.org/1999/xlink" width="px" height="40px" viewBox="0 0 20 40" version="1.1">
<defs>
<linearGradient id="linear0" gradientUnits="userSpaceOnUse" x1="0" y1="0" x2="1" y2="0" gradientTransform="matrix(8.384063,-2.331094,2.112344,7.597656,15.096093,3.402031)">
<stop offset="0" style="stop-color:rgb(96.470588%,60%,13.72549%);stop-opacity:1;"/>
<stop offset="0.312" style="stop-color:rgb(96.862745%,60.392157%,13.72549%);stop-opacity:1;"/>
<stop offset="0.838" style="stop-color:rgb(91.372549%,47.058824%,14.901961%);stop-opacity:1;"/>
</linearGradient>
<filter id="alpha" filterUnits="objectBoundingBox" x="0%" y="0%" width="100%" height="100%">
  <feColorMatrix type="matrix" in="SourceGraphic" values="0 0 0 0 1 0 0 0 0 1 0 0 0 0 1 0 0 0 1 0"/>
</filter>
<mask id="mask0">
  <g filter="url(#alpha)">
<rect x="0" y="0" width="20" height="40" style="fill:rgb(0%,0%,0%);fill-opacity:0.301961;stroke:none;"/>
  </g>
</mask>
<clipPath id="clip1">
  <rect x="0" y="0" width="20" height="40"/>
</clipPath>
<g id="surface5" clip-path="url(#clip1)">
<path style=" stroke:none;fill-rule:nonzero;fill:rgb(74.509805%,12.54902%,18.039216%);fill-opacity:1;" d="M 13.203125 18.3125 C 13.058594 18.34375 12.90625 18.371094 12.75 18.390625 C 12.824219 18.378906 12.894531 18.371094 12.96875 18.359375 C 13.050781 18.347656 13.128906 18.332031 13.203125 18.3125 Z M 13.203125 18.3125 "/>
</g>
<mask id="mask1">
  <g filter="url(#alpha)">
<rect x="0" y="0" width="20" height="40" style="fill:rgb(0%,0%,0%);fill-opacity:0.301961;stroke:none;"/>
  </g>
</mask>
<clipPath id="clip2">
  <rect x="0" y="0" width="20" height="40"/>
</clipPath>
<g id="surface8" clip-path="url(#clip2)">
<path style=" stroke:none;fill-rule:nonzero;fill:rgb(74.509805%,12.54902%,18.039216%);fill-opacity:1;" d="M 13.578125 16.421875 C 13.578125 16.433594 13.578125 16.4375 13.578125 16.4375 C 13.597656 16.425781 13.625 16.421875 13.65625 16.421875 C 13.75 16.410156 13.84375 16.394531 13.9375 16.375 C 13.824219 16.386719 13.703125 16.402344 13.578125 16.421875 Z M 13.578125 16.421875 "/>
</g>
<linearGradient id="linear1" gradientUnits="userSpaceOnUse" x1="0" y1="0" x2="1" y2="0" gradientTransform="matrix(17.028438,-36.518905,12.30875,5.739532,-3.243125,40.975623)">
<stop offset="0.323" style="stop-color:rgb(61.960784%,12.54902%,39.215686%);stop-opacity:1;"/>
<stop offset="0.63" style="stop-color:rgb(78.823529%,12.54902%,21.568627%);stop-opacity:1;"/>
<stop offset="0.751" style="stop-color:rgb(80.392157%,13.72549%,20.784314%);stop-opacity:1;"/>
<stop offset="1" style="stop-color:rgb(91.372549%,47.058824%,14.901961%);stop-opacity:1;"/>
</linearGradient>
<linearGradient id="linear2" gradientUnits="userSpaceOnUse" x1="0" y1="0" x2="1" y2="0" gradientTransform="matrix(10.147344,-21.761718,11.456562,5.342031,2.478438,38.275156)">
<stop offset="0" style="stop-color:rgb(15.686275%,14.901961%,38.431373%);stop-opacity:1;"/>
<stop offset="0.095" style="stop-color:rgb(40%,18.039216%,55.294118%);stop-opacity:1;"/>
<stop offset="0.788" style="stop-color:rgb(62.352941%,12.54902%,39.215686%);stop-opacity:1;"/>
<stop offset="0.949" style="stop-color:rgb(80.392157%,12.54902%,19.607843%);stop-opacity:1;"/>
</linearGradient>
<linearGradient id="linear3" gradientUnits="userSpaceOnUse" x1="0" y1="0" x2="1" y2="0" gradientTransform="matrix(17.052656,-36.57078,7.393125,3.447344,-2.638281,38.791718)">
<stop offset="0.323" style="stop-color:rgb(61.960784%,12.54902%,39.215686%);stop-opacity:1;"/>
<stop offset="0.63" style="stop-color:rgb(78.823529%,12.54902%,21.568627%);stop-opacity:1;"/>
<stop offset="0.751" style="stop-color:rgb(80.392157%,13.72549%,20.784314%);stop-opacity:1;"/>
<stop offset="1" style="stop-color:rgb(91.372549%,47.058824%,14.901961%);stop-opacity:1;"/>
</linearGradient>
<linearGradient id="linear4" gradientUnits="userSpaceOnUse" x1="0" y1="0" x2="1" y2="0" gradientTransform="matrix(8.961719,-19.219062,6.376875,2.973438,-0.899844,36.346562)">
<stop offset="0" style="stop-color:rgb(15.686275%,14.901961%,38.431373%);stop-opacity:1;"/>
<stop offset="0.095" style="stop-color:rgb(40%,18.039216%,55.294118%);stop-opacity:1;"/>
<stop offset="0.788" style="stop-color:rgb(62.352941%,12.54902%,39.215686%);stop-opacity:1;"/>
<stop offset="0.949" style="stop-color:rgb(80.392157%,12.54902%,19.607843%);stop-opacity:1;"/>
</linearGradient>
<linearGradient id="linear5" gradientUnits="userSpaceOnUse" x1="0" y1="0" x2="1" y2="0" gradientTransform="matrix(17.028438,-36.518905,10.1025,4.710625,1.15875,40.528283)">
<stop offset="0.323" style="stop-color:rgb(61.960784%,12.54902%,39.215686%);stop-opacity:1;"/>
<stop offset="0.63" style="stop-color:rgb(78.823529%,12.54902%,21.568627%);stop-opacity:1;"/>
<stop offset="0.751" style="stop-color:rgb(80.392157%,13.72549%,20.784314%);stop-opacity:1;"/>
<stop offset="1" style="stop-color:rgb(91.372549%,47.058824%,14.901961%);stop-opacity:1;"/>
</linearGradient>
<linearGradient id="linear6" gradientUnits="userSpaceOnUse" x1="0" y1="0" x2="1" y2="0" gradientTransform="matrix(17.028438,-36.518905,15.710468,7.325625,-0.0870312,42.706094)">
<stop offset="0.323" style="stop-color:rgb(61.960784%,12.54902%,39.215686%);stop-opacity:1;"/>
<stop offset="0.63" style="stop-color:rgb(78.823529%,12.54902%,21.568627%);stop-opacity:1;"/>
<stop offset="0.751" style="stop-color:rgb(80.392157%,13.72549%,20.784314%);stop-opacity:1;"/>
<stop offset="1" style="stop-color:rgb(91.372549%,47.058824%,14.901961%);stop-opacity:1;"/>
</linearGradient>
<mask id="mask2">
  <g filter="url(#alpha)">
<rect x="0" y="0" width="20" height="40" style="fill:rgb(0%,0%,0%);fill-opacity:0.301961;stroke:none;"/>
  </g>
</mask>
<clipPath id="clip3">
  <rect x="0" y="0" width="20" height="40"/>
</clipPath>
<g id="surface11" clip-path="url(#clip3)">
<path style=" stroke:none;fill-rule:nonzero;fill:rgb(74.509805%,12.54902%,18.039216%);fill-opacity:1;" d="M 12.96875 18.359375 C 12.894531 18.371094 12.824219 18.378906 12.75 18.390625 C 12.824219 18.378906 12.894531 18.371094 12.96875 18.359375 Z M 12.96875 18.359375 "/>
</g>
<mask id="mask3">
  <g filter="url(#alpha)">
<rect x="0" y="0" width="20" height="40" style="fill:rgb(0%,0%,0%);fill-opacity:0.301961;stroke:none;"/>
  </g>
</mask>
<clipPath id="clip4">
  <rect x="0" y="0" width="20" height="40"/>
</clipPath>
<g id="surface14" clip-path="url(#clip4)">
<path style=" stroke:none;fill-rule:nonzero;fill:rgb(74.509805%,12.54902%,18.039216%);fill-opacity:1;" d="M 13.578125 16.4375 C 13.597656 16.425781 13.625 16.421875 13.65625 16.421875 C 13.625 16.421875 13.597656 16.425781 13.578125 16.4375 Z M 13.578125 16.4375 "/>
</g>
</defs>
<g id="surface1">
<path style=" stroke:none;fill-rule:nonzero;fill:url(#linear0);" d="M 17.046875 0.203125 C 16.421875 0.5625 15.375 1.625 14.125 3.140625 L 15.265625 5.296875 C 16.078125 4.140625 16.890625 3.109375 17.71875 2.234375 C 17.78125 2.160156 17.8125 2.125 17.8125 2.125 C 17.78125 2.167969 17.75 2.203125 17.71875 2.234375 C 17.453125 2.53125 16.640625 3.46875 15.421875 5.328125 C 16.59375 5.28125 18.390625 5.03125 19.875 4.78125 C 20.3125 2.34375 19.4375 1.21875 19.4375 1.21875 C 19.4375 1.21875 18.34375 -0.5625 17.046875 0.203125 Z M 17.046875 0.203125 "/>
<path style=" stroke:none;fill-rule:nonzero;fill:rgb(74.509805%,12.54902%,18.039216%);fill-opacity:1;" d="M 13.203125 18.3125 C 13.058594 18.34375 12.90625 18.371094 12.75 18.390625 C 12.824219 18.378906 12.894531 18.371094 12.96875 18.359375 C 13.050781 18.347656 13.128906 18.332031 13.203125 18.3125 Z M 13.203125 18.3125 "/>
<use xlink:href="#surface5" mask="url(#mask0)"/>
<path style=" stroke:none;fill-rule:nonzero;fill:rgb(74.509805%,12.54902%,18.039216%);fill-opacity:1;" d="M 13.578125 16.421875 C 13.578125 16.433594 13.578125 16.4375 13.578125 16.4375 C 13.597656 16.425781 13.625 16.421875 13.65625 16.421875 C 13.75 16.410156 13.84375 16.394531 13.9375 16.375 C 13.824219 16.386719 13.703125 16.402344 13.578125 16.421875 Z M 13.578125 16.421875 "/>
<use xlink:href="#surface8" mask="url(#mask1)"/>
<path style=" stroke:none;fill-rule:nonzero;fill:url(#linear1);" d="M 11.890625 10.859375 C 12.246094 10.214844 12.597656 9.582031 12.953125 8.96875 C 13.316406 8.324219 13.691406 7.699219 14.078125 7.09375 C 14.097656 7.0625 14.121094 7.03125 14.140625 7 C 14.515625 6.40625 14.890625 5.839844 15.265625 5.296875 L 14.125 3.140625 C 14.042969 3.246094 13.953125 3.347656 13.859375 3.453125 C 13.535156 3.871094 13.199219 4.3125 12.84375 4.78125 C 12.449219 5.3125 12.042969 5.871094 11.625 6.453125 C 11.238281 7.003906 10.855469 7.578125 10.46875 8.171875 C 10.136719 8.671875 9.808594 9.191406 9.484375 9.734375 C 9.464844 9.753906 9.449219 9.769531 9.4375 9.78125 L 10.9375 12.71875 C 11.25 12.09375 11.566406 11.472656 11.890625 10.859375 Z M 11.890625 10.859375 "/>
<path style=" stroke:none;fill-rule:nonzero;fill:url(#linear2);" d="M 5.109375 27.421875 C 4.910156 27.964844 4.714844 28.515625 4.515625 29.078125 C 4.515625 29.078125 4.515625 29.082031 4.515625 29.09375 C 4.484375 29.175781 4.453125 29.253906 4.421875 29.328125 C 4.296875 29.71875 4.171875 30.0625 3.90625 30.828125 C 4.34375 31.03125 4.703125 31.5625 5.03125 32.15625 C 5 31.53125 4.75 30.953125 4.25 30.515625 C 6.421875 30.609375 8.28125 30.0625 9.25 28.484375 C 9.332031 28.339844 9.410156 28.1875 9.484375 28.03125 C 9.046875 28.59375 8.5 28.828125 7.484375 28.765625 C 7.472656 28.765625 7.46875 28.765625 7.46875 28.765625 C 7.46875 28.765625 7.472656 28.765625 7.484375 28.765625 C 8.984375 28.09375 9.734375 27.453125 10.40625 26.375 C 10.5625 26.125 10.71875 25.84375 10.875 25.546875 C 9.5625 26.890625 8.03125 27.265625 6.421875 26.984375 L 5.21875 27.109375 C 5.1875 27.214844 5.152344 27.316406 5.109375 27.421875 Z M 5.109375 27.421875 "/>
<path style=" stroke:none;fill-rule:nonzero;fill:url(#linear3);" d="M 5.671875 24.71875 C 5.933594 24.050781 6.203125 23.375 6.484375 22.6875 C 6.746094 22.03125 7.015625 21.371094 7.296875 20.703125 C 7.566406 20.035156 7.847656 19.375 8.140625 18.71875 C 8.433594 18.03125 8.730469 17.355469 9.03125 16.6875 C 9.332031 16.019531 9.640625 15.359375 9.953125 14.703125 C 10.066406 14.464844 10.183594 14.230469 10.296875 14 C 10.496094 13.59375 10.691406 13.1875 10.890625 12.78125 C 10.902344 12.761719 10.917969 12.738281 10.9375 12.71875 L 9.4375 9.78125 C 9.417969 9.824219 9.394531 9.863281 9.375 9.90625 C 9.019531 10.46875 8.675781 11.046875 8.34375 11.640625 C 8 12.234375 7.660156 12.84375 7.328125 13.46875 C 7.046875 13.988281 6.777344 14.515625 6.515625 15.046875 C 6.464844 15.152344 6.410156 15.253906 6.359375 15.359375 C 6.035156 16.027344 5.738281 16.671875 5.46875 17.296875 C 5.175781 17.996094 4.917969 18.660156 4.6875 19.296875 C 4.53125 19.714844 4.390625 20.121094 4.265625 20.515625 C 4.160156 20.839844 4.0625 21.167969 3.96875 21.5 C 3.738281 22.28125 3.546875 23.058594 3.390625 23.828125 L 4.890625 26.78125 C 5.089844 26.25 5.292969 25.714844 5.5 25.171875 C 5.5625 25.027344 5.621094 24.875 5.671875 24.71875 Z M 5.671875 24.71875 "/>
<path style=" stroke:none;fill-rule:nonzero;fill:url(#linear4);" d="M 3.375 23.9375 C 3.1875 24.875 3.046875 25.828125 2.984375 26.75 C 2.984375 26.792969 2.984375 26.828125 2.984375 26.859375 C 2.515625 26.109375 1.265625 25.375 1.265625 25.390625 C 2.15625 26.6875 2.84375 27.96875 2.9375 29.234375 C 2.453125 29.328125 1.796875 29.1875 1.046875 28.90625 C 1.828125 29.640625 2.421875 29.828125 2.65625 29.890625 C 1.9375 29.9375 1.171875 30.4375 0.40625 31 C 1.53125 30.546875 2.4375 30.375 3.078125 30.515625 C 2.046875 33.40625 1.03125 36.609375 0 40 C 0.3125 39.90625 0.5 39.6875 0.609375 39.40625 C 0.796875 38.796875 2 34.765625 3.90625 29.46875 C 3.957031 29.324219 4.011719 29.171875 4.0625 29.015625 C 4.082031 28.972656 4.097656 28.933594 4.109375 28.890625 C 4.316406 28.339844 4.527344 27.769531 4.734375 27.1875 C 4.785156 27.050781 4.839844 26.921875 4.890625 26.796875 C 4.890625 26.785156 4.890625 26.78125 4.890625 26.78125 L 3.390625 23.828125 C 3.390625 23.871094 3.386719 23.90625 3.375 23.9375 Z M 3.375 23.9375 "/>
<path style=" stroke:none;fill-rule:nonzero;fill:url(#linear5);" d="M 11.15625 12.96875 C 11.113281 13.0625 11.074219 13.152344 11.03125 13.234375 C 10.90625 13.503906 10.777344 13.777344 10.640625 14.046875 C 10.496094 14.347656 10.347656 14.65625 10.203125 14.96875 C 10.128906 15.125 10.058594 15.285156 9.984375 15.453125 C 9.765625 15.933594 9.542969 16.433594 9.3125 16.953125 C 9.03125 17.589844 8.746094 18.246094 8.453125 18.921875 C 8.171875 19.578125 7.890625 20.253906 7.609375 20.953125 C 7.339844 21.609375 7.0625 22.292969 6.78125 23 C 6.53125 23.625 6.28125 24.269531 6.03125 24.9375 C 6.019531 24.96875 6.011719 25 6 25.03125 C 5.75 25.699219 5.496094 26.375 5.234375 27.0625 C 5.234375 27.082031 5.230469 27.097656 5.21875 27.109375 L 6.421875 26.984375 C 6.402344 26.984375 6.378906 26.980469 6.359375 26.96875 C 7.796875 26.796875 9.71875 25.71875 10.953125 24.390625 C 11.515625 23.78125 12.03125 23.0625 12.515625 22.21875 C 12.871094 21.59375 13.207031 20.894531 13.53125 20.125 C 13.800781 19.449219 14.066406 18.714844 14.328125 17.921875 C 14 18.09375 13.625 18.234375 13.203125 18.3125 C 13.128906 18.332031 13.050781 18.347656 12.96875 18.359375 C 12.894531 18.371094 12.824219 18.378906 12.75 18.390625 C 14.09375 17.875 14.9375 16.875 15.546875 15.65625 C 15.203125 15.90625 14.625 16.21875 13.9375 16.375 C 13.84375 16.394531 13.75 16.410156 13.65625 16.421875 C 13.625 16.421875 13.597656 16.425781 13.578125 16.4375 C 13.578125 16.4375 13.578125 16.433594 13.578125 16.421875 C 14.046875 16.234375 14.4375 16.015625 14.78125 15.765625 C 14.855469 15.703125 14.925781 15.644531 15 15.59375 C 15.105469 15.5 15.203125 15.402344 15.296875 15.296875 C 15.359375 15.234375 15.417969 15.171875 15.46875 15.109375 C 15.605469 14.953125 15.730469 14.78125 15.84375 14.59375 C 15.886719 14.53125 15.921875 14.472656 15.953125 14.421875 C 15.996094 14.328125 16.035156 14.238281 16.078125 14.15625 C 16.265625 13.78125 16.417969 13.449219 16.53125 13.15625 C 16.59375 13.011719 16.644531 12.875 16.6875 12.75 C 16.707031 12.699219 16.730469 12.644531 16.75 12.59375 C 16.792969 12.457031 16.828125 12.332031 16.859375 12.21875 C 16.902344 12.050781 16.933594 11.921875 16.953125 11.828125 C 16.902344 11.859375 16.847656 11.894531 16.796875 11.9375 C 16.390625 12.171875 15.6875 12.390625 15.125 12.5 L 16.234375 12.375 L 15.125 12.5 C 15.125 12.5 15.121094 12.5 15.109375 12.5 C 15.046875 12.511719 14.988281 12.519531 14.9375 12.53125 C 14.949219 12.53125 14.957031 12.527344 14.96875 12.515625 L 11.1875 12.9375 C 11.175781 12.949219 11.167969 12.957031 11.15625 12.96875 Z M 11.15625 12.96875 "/>
<path style=" stroke:none;fill-rule:nonzero;fill:url(#linear6);" d="M 15.421875 5.34375 C 15.089844 5.855469 14.722656 6.4375 14.328125 7.09375 C 14.308594 7.136719 14.285156 7.171875 14.265625 7.203125 C 13.921875 7.777344 13.558594 8.40625 13.171875 9.09375 C 12.839844 9.699219 12.496094 10.34375 12.140625 11.03125 C 11.828125 11.625 11.511719 12.261719 11.1875 12.9375 L 14.96875 12.515625 C 16.0625 12.015625 16.5625 11.546875 17.046875 10.890625 C 17.171875 10.703125 17.296875 10.511719 17.421875 10.3125 C 17.8125 9.71875 18.1875 9.046875 18.53125 8.390625 C 18.859375 7.75 19.15625 7.109375 19.375 6.53125 C 19.515625 6.171875 19.625 5.828125 19.703125 5.53125 C 19.777344 5.269531 19.832031 5.019531 19.875 4.78125 C 18.390625 5.03125 16.59375 5.28125 15.421875 5.34375 Z M 15.421875 5.34375 "/>
<path style=" stroke:none;fill-rule:nonzero;fill:rgb(74.509805%,12.54902%,18.039216%);fill-opacity:1;" d="M 12.96875 18.359375 C 12.894531 18.371094 12.824219 18.378906 12.75 18.390625 C 12.824219 18.378906 12.894531 18.371094 12.96875 18.359375 Z M 12.96875 18.359375 "/>
<use xlink:href="#surface11" mask="url(#mask2)"/>
<path style=" stroke:none;fill-rule:nonzero;fill:rgb(0%,0%,0%);fill-opacity:1;" d="M 12.96875 18.359375 C 12.894531 18.371094 12.824219 18.378906 12.75 18.390625 C 12.824219 18.378906 12.894531 18.371094 12.96875 18.359375 Z M 12.96875 18.359375 "/>
<path style=" stroke:none;fill-rule:nonzero;fill:rgb(74.509805%,12.54902%,18.039216%);fill-opacity:1;" d="M 13.578125 16.4375 C 13.597656 16.425781 13.625 16.421875 13.65625 16.421875 C 13.625 16.421875 13.597656 16.425781 13.578125 16.4375 Z M 13.578125 16.4375 "/>
<use xlink:href="#surface14" mask="url(#mask3)"/>
<path style=" stroke:none;fill-rule:nonzero;fill:rgb(0%,0%,0%);fill-opacity:1;" d="M 13.578125 16.4375 C 13.597656 16.425781 13.625 16.421875 13.65625 16.421875 C 13.625 16.421875 13.597656 16.425781 13.578125 16.4375 Z M 13.578125 16.4375 "/>
</g>
</svg>
