<?xml version="1.0" encoding="UTF-8"?>
<svg xmlns="http://www.w3.org/2000/svg" xmlns:xlink="http://www.w3.org/1999/xlink" width="px" height="40px" viewBox="0 0 40 40" version="1.1">
<g id="surface1">
<path style="fill-rule:evenodd;fill:rgb(40.392157%,34.901962%,36.470589%);fill-opacity:1;stroke-width:2;stroke-linecap:butt;stroke-linejoin:round;stroke:rgb(100%,100%,100%);stroke-opacity:1;stroke-miterlimit:4;" d="M 38.6 67 C 37.8 68.7 37.1 70.1 36.4 71.5 C 33.1 78.7 30.3 86.1 28.9 93.9 C 28.1 98.2 27.7 102.6 28.8 107 C 29.8 110.7 31.8 112.6 35.3 112.8 C 36.8 112.9 38.4 112.5 39.9 112.1 C 43.8 111 47.2 108.9 50.5 106.5 C 51.3 106 52.1 105.6 53.1 106 C 54.9 106.7 55.5 109 54 110.1 C 48.7 114.1 43 117.6 36 117.8 C 30.3 118 26.1 114.9 24.3 109.5 C 23 105.4 22.9 101.2 23.4 97 C 24.9 84.6 29.7 73.2 35.5 62.2 C 36 61.3 36 60.5 35.6 59.5 C 34.2 55.4 32.8 51.2 31.5 47 C 31.3 46.2 31 46 30.2 46.2 C 24.5 47.4 18.9 48.9 13.9 51.9 C 11.9 53.1 10.1 54.5 8.5 56.1 C 6 58.8 5.9 61.8 8 64.9 C 9.9 67.6 12.4 69.5 15.2 71.1 C 16 71.7 16.9 72.1 17.8 72.6 C 19.1 73.4 19.5 74.8 18.8 76 C 18.2 77.3 16.7 77.7 15.4 77.1 C 11.6 75.1 8 72.7 5.1 69.4 C 3.4 67.4 2.1 65.2 1.7 62.5 C 1.1 59.1 2.1 56.2 4.1 53.5 C 6.2 50.8 8.9 48.8 11.9 47.2 C 17.1 44.3 22.8 42.6 28.7 41.4 C 29.1 41.3 29.5 41.2 30 41 C 29.7 39.5 29.4 38 29.2 36.4 C 28.2 30.2 27.8 24 29.3 17.9 C 29.9 15.4 30.9 13.1 32.5 11.2 C 35.9 7.2 40.2 6.3 45 7.5 C 49.8 8.7 53.8 11.3 57.6 14.4 C 58.6 15.3 58.7 16.9 57.8 17.9 C 56.9 18.9 55.5 19 54.3 18.2 C 52.4 16.9 50.6 15.6 48.7 14.4 C 46.4 13.1 44 12.1 41.3 12.1 C 39.1 12.1 37.3625 13 36.1 14.8 C 34.5 17.1 33.9 19.7 33.6 22.4 C 33 28.1 33.7 33.8 34.8 39.4 C 35 39.9 35.2 40.2 35.8 40.1 C 40.3 39.6 44.8 39.2 49.3 38.8 C 50.3 38.7 51 38.4 51.6 37.6 C 57.4 30.2 63.9 23.3 71.5 17.6 C 75.7 14.4 80.1 11.6 85.3 10.1 C 88.5 9.2 91.7 8.8 95 9.9 C 99 11.4 101.3 14.4 102.4 18.4 C 103.6 22.6 103.5 26.9 103 31.2 C 102.9375 31.4625 102.8625 31.7375 102.8 32 C 102.8 32.2625 102.7625 32.5375 102.7 32.8 C 102.7 33.0625 102.6625 33.3375 102.6 33.6 C 102.5375 33.8625 102.4625 34.1625 102.4 34.5 C 102.1 35.9 101 36.7 99.6 36.5 C 98.2 36.4 97.4 35.3 97.5 33.8 C 97.7 31.7 98.2 29.7 98.2 27.6 C 98.2 25.2 98.2 22.7 97.6 20.3 C 96.6 15.4 93.2 13.5 88.1 14.6 C 84.4 15.4 81 17.2 77.8 19.3 C 71.2 23.6 65.6 29 60.4 34.9 C 59.5 35.9 58.5 37.1 57.6 38.2 C 57.5 38.2 57.6 38.4 57.5 38.6 L 58.8 38.6 C 72.2 38.8 85.4 40.4 98.3 44.1 C 104.5 45.8 110.4 48.2 115.8 51.5 C 118.7 53.3 121.4 55.4 123.5 58.2 C 127.8 63.7 127.5 70 122.5 74.9 C 119.2 78.3 115.1 80.4 110.7 82.1 C 109.4 82.5 108.1 81.9 107.6 80.7 C 107.1 79.4 107.6 78 109 77.4 C 111 76.4 113.1 75.6 115 74.4 C 115.4 74.1375 115.8 73.8625 116.2 73.6 C 116.6 73.3375 116.9625 73.0625 117.3 72.8 C 117.6375 72.4625 118 72.1625 118.4 71.9 C 118.7375 71.5625 119.0625 71.2375 119.4 70.9 C 122 68 122.1 64.9 119.9 61.7 C 118.2 59.3 115.9 57.6 113.4 56.1 C 107.4 52.3 100.7 50 93.9 48.2 C 86.7 46.3 79.5 44.9 72.1 44.4 C 66.2 44 60.4 43.9 54.5 43.6 C 53.6 43.6 53 43.8 52.6 44.5 C 49.1 49.8 45.6 55.1 42.2 60.5 C 42 60.9 41.9 61.6 42 62 C 47.8 75.8 55.2 88.7 64.9 100.1 C 69 104.9 73.5 109.4 78.9 112.8 C 81.4 114.3 84.1 115.7 87.2 115.9 C 90 116.1 92 114.9 93.4 112.5 C 94.7 110.3 95.2 107.8 95.4 105.3 C 96.2 97.1 94.6 89.2 92.4 81.4 C 90.2 73.4 87.1 65.8 83.6 58.3 C 83.3 57.7 83.1 57 83.1 56.3 C 83.1 55.1 84.1 54.3 85.2 54.1 C 86.3 54 87.3 54.5 87.8 55.6 C 89.1 58.3 90.4 61.1 91.6 63.8 C 95.2 72.4 98.1 81.2 99.6 90.4 C 100.7 96.8 101.2 103.3 99.7 109.7 C 99.6375 110.0375 99.5375 110.4 99.4 110.8 C 99.3375 111.1375 99.2375 111.4625 99.1 111.8 C 98.9625 112.2 98.8375 112.5625 98.7 112.9 C 98.5625 113.2375 98.4375 113.5625 98.3 113.9 C 95.7 119.4 90.6 121.9 84.7 120.6 C 79.9 119.6 75.8 117.1 72 114 C 65 108.5 59.3 101.7 54.2 94.5 C 48.3 86.3 43.4 77.5 39.3 68.3 C 39.1 67.9 38.9 67.6 38.6 67 Z M 36.1 45 L 39.3 55.2 C 41.8 51.3 44.2 47.7 46.7 43.9 Z M 64.5 71.2 C 60.5 71.2 57.2 68 57.2 64 C 57.2 59.9 60.5 56.7 64.6 56.7 C 68.6 56.7 71.8 59.9 71.8 63.9 C 71.8 68 68.6 71.2 64.5 71.2 Z M 64.5 71.2 " transform="matrix(0.3125,0,0,0.3125,0,0)"/>
</g>
</svg>
