<?xml version="1.0" encoding="UTF-8"?>
<svg xmlns="http://www.w3.org/2000/svg" xmlns:xlink="http://www.w3.org/1999/xlink" width="px" height="40px" viewBox="0 0 35 39" version="1.1">
<g id="surface1">
<path style=" stroke:none;fill-rule:nonzero;fill:rgb(0%,34.901962%,61.176473%);fill-opacity:1;" d="M 34.554688 29.1875 C 34.832031 28.730469 35 28.199219 35 27.726562 L 35 11.210938 C 35 10.726562 34.832031 10.207031 34.554688 9.734375 L 17.5 19.46875 Z M 34.554688 29.1875 "/>
<path style=" stroke:none;fill-rule:nonzero;fill:rgb(0%,26.666668%,50.980395%);fill-opacity:1;" d="M 19.011719 38.574219 L 33.488281 30.316406 C 33.90625 30.074219 34.273438 29.660156 34.554688 29.1875 L 17.5 19.46875 L 0.445312 29.1875 C 0.726562 29.660156 1.09375 30.074219 1.511719 30.316406 L 15.988281 38.574219 C 16.820312 39.046875 18.179688 39.046875 19.011719 38.574219 Z M 19.011719 38.574219 "/>
<path style=" stroke:none;fill-rule:nonzero;fill:rgb(39.607844%,60.392159%,82.352942%);fill-opacity:1;" d="M 34.554688 9.734375 C 34.273438 9.261719 33.90625 8.851562 33.488281 8.609375 L 19.011719 0.351562 C 18.179688 -0.121094 16.820312 -0.121094 15.988281 0.351562 L 1.511719 8.609375 C 0.679688 9.09375 0 10.253906 0 11.210938 L 0 27.726562 C 0 28.199219 0.167969 28.730469 0.445312 29.1875 L 17.5 19.46875 Z M 34.554688 9.734375 "/>
<path style=" stroke:none;fill-rule:nonzero;fill:rgb(100%,100%,100%);fill-opacity:1;" d="M 17.5 30.988281 C 11.070312 30.988281 5.828125 25.820312 5.828125 19.46875 C 5.828125 13.101562 11.070312 7.9375 17.5 7.9375 C 21.648438 7.9375 25.519531 10.144531 27.597656 13.695312 L 22.558594 16.574219 C 21.507812 14.808594 19.582031 13.695312 17.5 13.695312 C 14.277344 13.695312 11.671875 16.285156 11.671875 19.46875 C 11.671875 22.636719 14.277344 25.226562 17.5 25.226562 C 19.582031 25.226562 21.507812 24.117188 22.558594 22.347656 L 27.597656 25.226562 C 25.519531 28.792969 21.648438 30.988281 17.5 30.988281 Z M 17.5 30.988281 "/>
<path style=" stroke:none;fill-rule:nonzero;fill:rgb(100%,100%,100%);fill-opacity:1;" d="M 29.171875 18.828125 L 27.875 18.828125 L 27.875 17.535156 L 26.582031 17.535156 L 26.582031 18.828125 L 25.269531 18.828125 L 25.269531 20.109375 L 26.582031 20.109375 L 26.582031 21.390625 L 27.875 21.390625 L 27.875 20.109375 L 29.171875 20.109375 Z M 29.171875 18.828125 "/>
<path style=" stroke:none;fill-rule:nonzero;fill:rgb(100%,100%,100%);fill-opacity:1;" d="M 34.027344 18.828125 L 32.734375 18.828125 L 32.734375 17.535156 L 31.4375 17.535156 L 31.4375 18.828125 L 30.144531 18.828125 L 30.144531 20.109375 L 31.4375 20.109375 L 31.4375 21.390625 L 32.734375 21.390625 L 32.734375 20.109375 L 34.027344 20.109375 Z M 34.027344 18.828125 "/>
</g>
</svg>
