<?xml version="1.0" encoding="UTF-8"?>
<svg xmlns="http://www.w3.org/2000/svg" xmlns:xlink="http://www.w3.org/1999/xlink" width="px" height="40px" viewBox="0 0 36 40" version="1.1">
<g id="surface1">
<path style=" stroke:none;fill-rule:nonzero;fill:rgb(63.137257%,47.450981%,86.274511%);fill-opacity:1;" d="M 35.9375 11.734375 C 35.9375 11.058594 35.789062 10.464844 35.496094 9.953125 C 35.210938 9.453125 34.777344 9.035156 34.199219 8.703125 C 29.414062 5.984375 24.632812 3.265625 19.847656 0.53125 C 18.550781 -0.203125 17.304688 -0.171875 16.027344 0.578125 C 14.117188 1.6875 4.578125 7.078125 1.738281 8.703125 C 0.570312 9.375 0 10.390625 0 11.734375 C 0 17.214844 0 22.691406 0 28.171875 C 0 28.828125 0.140625 29.40625 0.425781 29.90625 C 0.710938 30.425781 1.148438 30.855469 1.738281 31.1875 C 4.578125 32.8125 14.117188 38.21875 16.027344 39.328125 C 17.304688 40.0625 18.550781 40.09375 19.847656 39.359375 C 24.632812 36.625 29.414062 33.921875 34.199219 31.1875 C 34.789062 30.84375 35.230469 30.417969 35.527344 29.90625 C 35.800781 29.40625 35.9375 28.828125 35.9375 28.171875 C 35.9375 28.171875 35.9375 17.203125 35.9375 11.734375 Z M 35.9375 11.734375 "/>
<path style=" stroke:none;fill-rule:nonzero;fill:rgb(15.686275%,0%,40.784314%);fill-opacity:1;" d="M 18.03125 19.890625 L 0.425781 29.90625 C 0.710938 30.425781 1.148438 30.855469 1.738281 31.1875 C 4.578125 32.8125 14.117188 38.21875 16.027344 39.328125 C 17.304688 40.0625 18.550781 40.09375 19.847656 39.359375 C 24.632812 36.625 29.414062 33.921875 34.199219 31.1875 C 34.789062 30.84375 35.230469 30.417969 35.527344 29.90625 Z M 18.03125 19.890625 "/>
<path style=" stroke:none;fill-rule:nonzero;fill:rgb(22.352941%,0%,56.862748%);fill-opacity:1;" d="M 35.9375 11.734375 C 35.9375 11.058594 35.789062 10.464844 35.496094 9.953125 L 18.03125 19.890625 L 35.527344 29.90625 C 35.800781 29.40625 35.9375 28.828125 35.9375 28.171875 C 35.9375 28.171875 35.9375 17.203125 35.9375 11.734375 Z M 35.9375 11.734375 "/>
<path style=" stroke:none;fill-rule:evenodd;fill:rgb(100%,100%,100%);fill-opacity:1;" d="M 28.390625 16.15625 L 28.390625 18.015625 L 30.285156 18.015625 L 30.285156 16.15625 L 31.230469 16.15625 L 31.230469 18.015625 L 33.125 18.015625 L 33.125 18.953125 L 31.230469 18.953125 L 31.230469 20.828125 L 33.125 20.828125 L 33.125 21.765625 L 31.230469 21.765625 L 31.230469 23.640625 L 30.285156 23.640625 L 30.285156 21.765625 L 28.390625 21.765625 L 28.390625 23.640625 L 27.441406 23.640625 L 27.441406 21.765625 L 25.546875 21.765625 L 25.546875 20.828125 L 27.441406 20.828125 L 27.441406 18.953125 L 25.546875 18.953125 L 25.546875 18.015625 L 27.441406 18.015625 L 27.441406 16.15625 Z M 28.390625 20.828125 L 30.285156 20.828125 L 30.285156 18.953125 L 28.390625 18.953125 Z M 28.390625 20.828125 "/>
<path style=" stroke:none;fill-rule:nonzero;fill:rgb(100%,100%,100%);fill-opacity:1;" d="M 18.0625 6.75 C 23.003906 6.75 27.316406 9.40625 29.636719 13.34375 L 29.605469 13.3125 L 23.792969 16.609375 C 22.640625 14.703125 20.542969 13.40625 18.140625 13.375 L 18.0625 13.375 C 14.382812 13.375 11.414062 16.3125 11.414062 19.953125 C 11.414062 21.140625 11.730469 22.25 12.285156 23.203125 C 13.4375 25.1875 15.585938 26.515625 18.0625 26.515625 C 20.558594 26.515625 22.722656 25.171875 23.859375 23.171875 L 23.828125 23.21875 L 29.636719 26.546875 C 27.347656 30.453125 23.101562 33.09375 18.207031 33.140625 L 18.0625 33.140625 C 13.105469 33.140625 8.777344 30.46875 6.472656 26.515625 C 5.351562 24.578125 4.707031 22.34375 4.707031 19.953125 C 4.707031 12.65625 10.691406 6.75 18.0625 6.75 Z M 18.0625 6.75 "/>
</g>
</svg>
