<?xml version="1.0" encoding="UTF-8"?>
<svg xmlns="http://www.w3.org/2000/svg" xmlns:xlink="http://www.w3.org/1999/xlink" width="px" height="40px" viewBox="0 0 35 39" version="1.1">
<g id="surface1">
<path style=" stroke:none;fill-rule:nonzero;fill:rgb(8.235294%,44.705883%,71.372551%);fill-opacity:1;" d="M 3.253906 35.007812 L 0.078125 0.105469 L 34.921875 0.105469 L 31.746094 35.007812 L 17.484375 38.894531 Z M 3.253906 35.007812 "/>
<path style=" stroke:none;fill-rule:nonzero;fill:rgb(20%,66.274512%,86.274511%);fill-opacity:1;" d="M 17.5 35.921875 L 29.023438 32.785156 L 31.730469 2.957031 L 17.5 2.957031 Z M 17.5 35.921875 "/>
<path style=" stroke:none;fill-rule:nonzero;fill:rgb(100%,100%,100%);fill-opacity:1;" d="M 17.5 15.617188 L 23.277344 15.617188 L 23.664062 11.226562 L 17.5 11.226562 L 17.5 6.945312 L 28.433594 6.945312 L 28.324219 8.089844 L 27.257812 19.894531 L 17.5 19.894531 Z M 17.5 15.617188 "/>
<path style=" stroke:none;fill-rule:nonzero;fill:rgb(92.156863%,92.156863%,92.156863%);fill-opacity:1;" d="M 17.53125 26.722656 L 17.5 26.734375 L 12.652344 25.441406 L 12.34375 22.027344 L 7.960938 22.027344 L 8.578125 28.746094 L 17.5 31.183594 L 17.53125 31.183594 Z M 17.53125 26.722656 "/>
<path style=" stroke:none;fill-rule:nonzero;fill:rgb(100%,100%,100%);fill-opacity:1;" d="M 22.90625 19.714844 L 22.378906 25.441406 L 17.515625 26.734375 L 17.515625 31.183594 L 26.453125 28.746094 L 26.511719 28.03125 L 27.273438 19.714844 Z M 22.90625 19.714844 "/>
<path style=" stroke:none;fill-rule:nonzero;fill:rgb(92.156863%,92.156863%,92.156863%);fill-opacity:1;" d="M 17.515625 6.945312 L 17.515625 11.226562 L 6.984375 11.226562 L 6.890625 10.269531 L 6.691406 8.089844 L 6.597656 6.945312 Z M 17.5 15.617188 L 17.5 19.894531 L 12.699219 19.894531 L 12.605469 18.921875 L 12.40625 16.757812 L 12.3125 15.613281 Z M 17.5 15.617188 "/>
</g>
</svg>
