<?xml version="1.0" encoding="UTF-8"?>
<svg xmlns="http://www.w3.org/2000/svg" xmlns:xlink="http://www.w3.org/1999/xlink" width="px" height="40px" viewBox="0 0 33 39" version="1.1">
<g id="surface1">
<path style=" stroke:none;fill-rule:evenodd;fill:rgb(98.823529%,98.431373%,98.431373%);fill-opacity:1;" d="M 17.054688 38.328125 C 12.679688 37.242188 8.769531 33.25 4.96875 25.992188 C -0.464844 15.636719 -1.167969 6.1875 3.300781 3.320312 C 4.820312 2.394531 7.046875 2.429688 9.011719 3.410156 C 10.105469 3.953125 10.417969 4.300781 11.03125 5.640625 C 11.808594 7.292969 12.105469 9.179688 12.234375 13.1875 L 12.347656 16.851562 L 12.960938 15.472656 C 13.3125 14.710938 13.996094 13.386719 14.480469 12.535156 C 14.980469 11.683594 15.386719 10.757812 15.386719 10.464844 C 15.386719 10.195312 15.164062 9.449219 14.90625 8.832031 C 14.40625 7.671875 14.332031 7.039062 14.535156 5.984375 C 14.664062 5.40625 14.664062 5.40625 15.945312 5.40625 L 17.222656 5.386719 L 18.019531 4.371094 C 18.929688 3.230469 20.671875 1.832031 22.171875 1.070312 C 23.042969 0.617188 23.414062 0.542969 24.84375 0.542969 C 26.308594 0.542969 26.605469 0.597656 27.4375 1.089844 C 27.9375 1.378906 28.328125 1.667969 28.273438 1.722656 C 28.21875 1.757812 27.679688 1.667969 27.066406 1.488281 C 25.527344 1.050781 23.988281 1.195312 22.433594 1.960938 C 18.726562 3.753906 14.941406 10.539062 16.425781 12.753906 C 16.609375 13.042969 17.09375 13.3125 17.796875 13.515625 C 18.929688 13.839844 19.484375 13.75 18.539062 13.40625 C 16.554688 12.660156 16.964844 10.882812 19.875 7.671875 L 21.523438 5.824219 L 21.414062 4.789062 C 21.320312 3.828125 21.355469 3.699219 21.746094 3.5 C 22.285156 3.210938 23.175781 3.375 23.804688 3.882812 C 24.417969 4.351562 26.324219 4.390625 27.921875 3.972656 C 28.511719 3.828125 29.53125 3.699219 30.183594 3.699219 C 31.3125 3.683594 31.40625 3.71875 31.515625 4.171875 C 31.574219 4.425781 31.589844 4.769531 31.515625 4.914062 C 31.460938 5.078125 31.589844 5.605469 31.8125 6.113281 C 32.3125 7.21875 32.5 9.867188 32.183594 11.300781 C 32.074219 11.882812 31.628906 13.042969 31.203125 13.894531 C 30.144531 16.035156 30.109375 16.363281 30.71875 17.777344 C 31.757812 20.1875 32.5 24.816406 32.3125 27.5 C 32.257812 28.296875 31.980469 30.058594 31.683594 31.417969 C 31.144531 34.03125 31.183594 34.9375 31.886719 35.515625 C 32.035156 35.644531 32.164062 36.023438 32.164062 36.351562 C 32.164062 37.058594 31.628906 37.640625 30.644531 37.964844 C 29.71875 38.273438 27.734375 38.238281 26.769531 37.894531 C 25.601562 37.496094 24.65625 37.53125 23.859375 38.019531 C 23.265625 38.402344 22.894531 38.457031 20.671875 38.492188 C 18.964844 38.527344 17.796875 38.457031 17.019531 38.273438 Z M 14.128906 31.617188 C 12.402344 26.648438 12.941406 21.058594 15.683594 15.238281 L 16.519531 13.496094 L 15.628906 12.734375 L 14.851562 14.382812 C 11.699219 21.097656 11.214844 27.011719 13.476562 31.398438 C 14.070312 32.578125 14.628906 33.484375 14.71875 33.484375 C 14.738281 33.484375 14.480469 32.652344 14.128906 31.617188 Z M 28.902344 14.945312 L 29.3125 13.949219 L 29.21875 14.785156 C 29.179688 15.253906 29.21875 15.546875 29.3125 15.453125 C 29.460938 15.292969 30.460938 12.84375 30.460938 12.589844 C 30.460938 12.535156 30.199219 12.699219 29.867188 12.96875 C 29.273438 13.460938 28.199219 13.839844 27.402344 13.839844 C 26.992188 13.859375 26.976562 13.914062 27.085938 14.566406 C 27.308594 15.855469 27.363281 15.945312 27.9375 15.945312 C 28.421875 15.945312 28.550781 15.835938 28.902344 14.945312 Z M 28.902344 14.945312 "/>
<path style=" stroke:none;fill-rule:evenodd;fill:rgb(98.431373%,98.431373%,98.431373%);fill-opacity:1;" d="M 17.054688 38.328125 C 12.679688 37.242188 8.769531 33.25 4.96875 25.992188 C 0.816406 18.050781 -0.613281 10.703125 1.09375 6.1875 C 2.335938 2.921875 5.636719 1.796875 9.027344 3.464844 C 10.121094 4.007812 10.417969 4.351562 11.050781 5.695312 C 11.828125 7.347656 12.125 9.25 12.253906 13.242188 L 12.367188 16.925781 L 12.976562 15.527344 C 13.3125 14.765625 13.996094 13.460938 14.496094 12.605469 C 15 11.753906 15.40625 10.828125 15.40625 10.539062 C 15.40625 10.265625 15.183594 9.523438 14.925781 8.90625 C 14.421875 7.746094 14.347656 7.109375 14.554688 6.058594 C 14.683594 5.460938 14.683594 5.460938 15.960938 5.460938 L 17.242188 5.460938 L 18.039062 4.445312 C 18.929688 3.300781 20.691406 1.886719 22.191406 1.125 C 23.0625 0.6875 23.433594 0.617188 24.859375 0.617188 C 26.324219 0.617188 26.605469 0.671875 27.4375 1.160156 C 27.957031 1.449219 28.328125 1.742188 28.289062 1.777344 C 28.234375 1.832031 27.699219 1.722656 27.066406 1.558594 C 25.546875 1.105469 24.007812 1.269531 22.433594 2.03125 C 18.726562 3.828125 14.960938 10.613281 16.425781 12.824219 C 16.628906 13.113281 17.113281 13.386719 17.816406 13.585938 C 18.945312 13.914062 19.503906 13.824219 18.558594 13.476562 C 16.554688 12.734375 16.964844 10.957031 19.875 7.726562 L 21.542969 5.894531 L 21.429688 4.84375 C 21.339844 3.898438 21.355469 3.773438 21.765625 3.574219 C 22.304688 3.285156 23.175781 3.445312 23.824219 3.953125 C 24.433594 4.425781 26.34375 4.460938 27.9375 4.046875 C 28.53125 3.882812 29.550781 3.753906 30.199219 3.753906 C 31.332031 3.753906 31.40625 3.792969 31.535156 4.226562 C 31.589844 4.5 31.589844 4.84375 31.535156 4.988281 C 31.480469 5.152344 31.609375 5.675781 31.832031 6.167969 C 32.332031 7.292969 32.519531 9.921875 32.203125 11.375 C 32.074219 11.953125 31.628906 13.113281 31.21875 13.96875 C 30.164062 16.109375 30.125 16.433594 30.71875 17.832031 C 31.757812 20.261719 32.519531 24.886719 32.332031 27.570312 C 32.257812 28.371094 31.980469 30.128906 31.703125 31.488281 C 31.164062 34.101562 31.203125 35.007812 31.90625 35.570312 C 32.054688 35.714844 32.183594 36.097656 32.183594 36.425781 C 32.183594 37.132812 31.648438 37.710938 30.664062 38.019531 C 29.738281 38.328125 27.734375 38.292969 26.769531 37.964844 C 25.621094 37.550781 24.675781 37.601562 23.878906 38.09375 C 23.285156 38.472656 22.894531 38.527344 20.691406 38.566406 C 18.984375 38.601562 17.816406 38.527344 17.039062 38.328125 Z M 14.128906 31.617188 C 12.402344 26.648438 12.941406 21.058594 15.683594 15.253906 L 16.519531 13.515625 L 15.628906 12.753906 L 14.851562 14.402344 C 11.699219 21.113281 11.214844 27.011719 13.476562 31.417969 C 14.070312 32.578125 14.609375 33.503906 14.71875 33.503906 C 14.738281 33.503906 14.480469 32.667969 14.128906 31.636719 Z M 28.902344 14.945312 L 29.3125 13.949219 L 29.21875 14.785156 C 29.164062 15.253906 29.199219 15.546875 29.3125 15.4375 C 29.460938 15.292969 30.460938 12.84375 30.460938 12.589844 C 30.460938 12.535156 30.199219 12.699219 29.867188 12.96875 C 29.273438 13.460938 28.199219 13.839844 27.402344 13.839844 C 26.992188 13.839844 26.957031 13.914062 27.066406 14.566406 C 27.289062 15.855469 27.34375 15.945312 27.9375 15.945312 C 28.421875 15.945312 28.53125 15.816406 28.902344 14.945312 Z M 28.902344 14.945312 "/>
<path style=" stroke:none;fill-rule:evenodd;fill:rgb(62.7451%,51.764709%,43.921569%);fill-opacity:1;" d="M 17.054688 38.328125 C 14.664062 37.730469 11.828125 35.824219 9.789062 33.449219 C 6.394531 29.457031 2.761719 22.347656 1.261719 16.796875 C 0.722656 14.765625 0.628906 14.128906 0.554688 11.320312 C 0.464844 8.488281 0.5 8 0.851562 6.820312 C 1.351562 5.242188 1.890625 4.425781 2.964844 3.609375 C 4.523438 2.429688 6.839844 2.359375 9.011719 3.445312 C 10.105469 3.992188 10.417969 4.335938 11.050781 5.675781 C 11.808594 7.328125 12.105469 9.214844 12.234375 13.222656 L 12.367188 16.886719 L 12.976562 15.507812 C 13.3125 14.746094 13.996094 13.421875 14.496094 12.570312 C 14.980469 11.71875 15.386719 10.792969 15.386719 10.519531 C 15.386719 10.230469 15.183594 9.488281 14.90625 8.871094 C 14.421875 7.710938 14.332031 7.074219 14.554688 6.023438 C 14.664062 5.441406 14.664062 5.441406 15.945312 5.441406 L 17.222656 5.441406 L 18.019531 4.40625 C 18.929688 3.265625 20.671875 1.867188 22.171875 1.105469 C 23.042969 0.652344 23.433594 0.582031 24.84375 0.582031 C 26.308594 0.582031 26.605469 0.636719 27.4375 1.125 C 27.9375 1.414062 28.328125 1.707031 28.273438 1.757812 C 28.21875 1.796875 27.679688 1.707031 27.066406 1.523438 C 25.527344 1.089844 23.988281 1.234375 22.433594 1.996094 C 18.726562 3.792969 14.960938 10.574219 16.425781 12.789062 C 16.609375 13.078125 17.113281 13.351562 17.796875 13.550781 C 18.945312 13.875 19.484375 13.804688 18.539062 13.441406 C 16.554688 12.699219 16.964844 10.921875 19.875 7.710938 L 21.523438 5.878906 L 21.429688 4.824219 C 21.320312 3.863281 21.355469 3.738281 21.746094 3.539062 C 22.285156 3.246094 23.175781 3.410156 23.824219 3.917969 C 24.433594 4.390625 26.324219 4.445312 27.9375 4.007812 C 28.511719 3.863281 29.53125 3.738281 30.183594 3.738281 C 31.3125 3.738281 31.40625 3.753906 31.515625 4.207031 C 31.589844 4.460938 31.589844 4.808594 31.535156 4.96875 C 31.460938 5.117188 31.609375 5.640625 31.832031 6.148438 C 32.332031 7.253906 32.519531 9.902344 32.183594 11.355469 C 32.074219 11.917969 31.628906 13.078125 31.203125 13.929688 C 30.144531 16.070312 30.109375 16.398438 30.71875 17.8125 C 31.757812 20.226562 32.519531 24.851562 32.3125 27.554688 C 32.257812 28.332031 31.980469 30.09375 31.703125 31.453125 C 31.144531 34.066406 31.203125 34.972656 31.886719 35.554688 C 32.054688 35.679688 32.183594 36.0625 32.183594 36.386719 C 32.183594 37.113281 31.628906 37.675781 30.644531 38.003906 C 29.738281 38.3125 27.734375 38.273438 26.769531 37.929688 C 25.621094 37.53125 24.65625 37.566406 23.878906 38.074219 C 23.265625 38.4375 22.894531 38.492188 20.691406 38.527344 C 18.984375 38.566406 17.796875 38.492188 17.039062 38.3125 Z M 14.109375 31.617188 C 12.402344 26.648438 12.921875 21.058594 15.664062 15.238281 L 16.5 13.496094 L 15.609375 12.734375 L 14.851562 14.382812 C 11.699219 21.097656 11.214844 27.011719 13.460938 31.398438 C 14.070312 32.578125 14.609375 33.484375 14.703125 33.484375 C 14.738281 33.484375 14.460938 32.652344 14.109375 31.636719 Z M 28.902344 14.929688 L 29.292969 13.929688 L 29.21875 14.765625 C 29.164062 15.238281 29.199219 15.527344 29.292969 15.4375 C 29.460938 15.273438 30.441406 12.824219 30.441406 12.570312 C 30.441406 12.515625 30.183594 12.679688 29.867188 12.953125 C 29.253906 13.441406 28.199219 13.824219 27.382812 13.839844 C 26.976562 13.839844 26.957031 13.894531 27.066406 14.546875 C 27.289062 15.835938 27.34375 15.925781 27.921875 15.925781 C 28.421875 15.925781 28.53125 15.816406 28.882812 14.929688 Z M 28.902344 14.929688 "/>
<path style=" stroke:none;fill-rule:evenodd;fill:rgb(27.058825%,20.784314%,18.431373%);fill-opacity:1;" d="M 17.054688 38.328125 C 12.738281 37.148438 8.769531 32.976562 5.042969 25.648438 C 1.890625 19.480469 0.554688 14.566406 0.777344 10.050781 C 0.945312 6.347656 2.003906 4.316406 4.226562 3.355469 C 5.488281 2.828125 7.265625 2.902344 8.730469 3.539062 C 10.4375 4.261719 11.050781 5.117188 11.773438 7.710938 C 12.105469 8.925781 12.179688 9.941406 12.253906 13.660156 L 12.367188 18.140625 L 12.699219 17.179688 C 13.050781 16.125 14.40625 13.40625 15.109375 12.335938 C 15.757812 11.320312 15.8125 10.320312 15.277344 9.179688 C 15 8.5625 14.832031 7.871094 14.832031 7.238281 C 14.832031 5.695312 14.867188 5.640625 16.351562 5.640625 L 17.632812 5.625 L 18.355469 4.679688 C 19.242188 3.519531 20.929688 2.195312 22.449219 1.433594 C 23.433594 0.960938 23.804688 0.871094 25.066406 0.890625 C 26.25 0.890625 26.679688 0.980469 27.402344 1.378906 C 27.882812 1.632812 28.085938 1.796875 27.882812 1.722656 C 25.140625 0.871094 22.730469 1.503906 20.375 3.71875 C 17.484375 6.421875 15.515625 11.027344 16.480469 12.84375 C 16.851562 13.542969 16.765625 13.609375 16.222656 13.042969 L 15.851562 12.644531 L 15.480469 13.386719 C 14.628906 15.019531 13.292969 18.609375 12.792969 20.605469 C 12.328125 22.421875 12.253906 23.074219 12.253906 25.46875 C 12.253906 27.933594 12.308594 28.371094 12.773438 29.75 C 13.402344 31.582031 14.960938 34.191406 15.738281 34.648438 C 15.851562 34.71875 15.722656 33.976562 15.460938 33.015625 C 14.90625 30.945312 14.777344 27.371094 15.222656 26.140625 L 15.480469 25.394531 L 16.074219 26.429688 C 17.09375 28.171875 20.039062 30.765625 21.394531 31.109375 C 22.394531 31.363281 22.378906 30.058594 21.320312 27.265625 C 20.410156 24.832031 20.226562 23.925781 20.226562 21.640625 C 20.207031 19.371094 20.503906 18.339844 21.820312 16 C 22.710938 14.382812 22.765625 13.695312 22.210938 11.898438 C 21.988281 11.226562 21.820312 10.574219 21.820312 10.449219 C 21.820312 10.320312 22.265625 10.539062 22.820312 10.957031 C 24.25 12.007812 26.121094 12.898438 27.195312 13.007812 C 27.976562 13.097656 28.179688 13.042969 28.71875 12.605469 C 29.367188 12.0625 30.109375 10.375 30.109375 9.449219 C 30.109375 9.140625 30.199219 8.886719 30.292969 8.886719 C 30.554688 8.886719 30.757812 10.050781 30.664062 10.957031 L 30.589844 11.71875 L 31.128906 11.210938 C 31.425781 10.9375 31.832031 10.265625 32.054688 9.742188 L 32.445312 8.78125 L 32.386719 10.410156 C 32.3125 11.882812 32.222656 12.207031 31.40625 13.949219 C 30.847656 15.109375 30.496094 16.125 30.496094 16.542969 C 30.496094 16.925781 30.757812 17.867188 31.089844 18.648438 C 32.445312 22.003906 32.796875 27.171875 31.960938 31.054688 C 31.3125 33.992188 31.3125 34.972656 31.980469 35.753906 C 32.40625 36.242188 32.460938 36.441406 32.3125 36.839844 C 32.054688 37.585938 31.277344 38.039062 29.867188 38.273438 C 28.699219 38.472656 28.457031 38.457031 27.253906 38.074219 C 25.585938 37.53125 25.195312 37.550781 24.082031 38.128906 C 23.25 38.566406 23.007812 38.601562 20.617188 38.582031 C 19.113281 38.582031 17.648438 38.457031 17.09375 38.3125 Z M 28.570312 16.035156 C 28.734375 15.910156 28.976562 15.617188 29.105469 15.417969 C 29.3125 15.054688 29.328125 15.054688 29.21875 15.453125 C 29.03125 16.109375 29.441406 15.980469 29.8125 15.292969 C 30.257812 14.4375 30.886719 12.605469 30.757812 12.480469 C 30.699219 12.425781 30.421875 12.605469 30.125 12.878906 C 29.476562 13.496094 28.734375 13.785156 27.828125 13.785156 L 27.140625 13.785156 L 27.234375 14.730469 C 27.363281 16.109375 27.882812 16.578125 28.585938 16.035156 Z M 28.234375 7.4375 C 26.289062 6.53125 25.824219 5.261719 27.179688 4.609375 C 28.070312 4.191406 30.421875 3.792969 31.089844 3.953125 C 31.554688 4.082031 31.628906 4.191406 31.628906 4.863281 C 31.628906 6.167969 30.421875 7.910156 29.515625 7.890625 C 29.347656 7.890625 28.773438 7.691406 28.234375 7.4375 Z M 21.652344 6.3125 C 21.875 5.96875 21.894531 5.730469 21.710938 5.097656 C 21.320312 3.609375 22.246094 3.285156 24.15625 4.226562 L 25.230469 4.769531 L 24.210938 5.097656 C 23.65625 5.261719 22.839844 5.714844 22.394531 6.078125 C 21.488281 6.855469 21.265625 6.929688 21.652344 6.3125 Z M 21.652344 6.3125 "/>
</g>
</svg>
