<?xml version="1.0" encoding="UTF-8"?>
<svg xmlns="http://www.w3.org/2000/svg" xmlns:xlink="http://www.w3.org/1999/xlink" width="px" height="40px" viewBox="0 0 32 39" version="1.1">
<g id="surface1">
<path style=" stroke:none;fill-rule:nonzero;fill:rgb(84.313726%,2.745098%,31.764707%);fill-opacity:1;" d="M 28.367188 16.757812 C 28.414062 17.761719 28.089844 18.3125 27.8125 19.226562 C 26.882812 19.5 27.070312 20.503906 26.976562 20.78125 C 26.417969 21.054688 23.714844 23.886719 24.65625 22.332031 C 23.714844 22.972656 23.898438 23.246094 22.414062 23.703125 L 22.382812 23.613281 C 18.75 25.273438 13.636719 21.96875 13.636719 17.398438 C 13.605469 17.671875 13.542969 17.582031 13.449219 17.671875 C 13.355469 12.539062 19.402344 9.613281 22.941406 12.71875 C 20.605469 10.070312 15.691406 9.886719 14.003906 13.085938 C 13.078125 13.632812 12.894531 15.476562 12.523438 15.753906 C 12.058594 23.796875 19.492188 29.023438 26.480469 22.882812 C 27.222656 22.332031 27.964844 21.417969 28.242188 21.328125 C 27.964844 21.847656 28.304688 21.511719 28.058594 21.96875 C 28.613281 21.054688 28.152344 19.132812 29.171875 20.492188 C 29.25 18.753906 31.210938 15.171875 30.191406 18.386719 C 30.46875 17.289062 30.285156 15.082031 30.746094 17.109375 C 30.46875 15.996094 31.027344 15.171875 31.210938 14.535156 C 30.65625 13.164062 29.542969 10.601562 30.839844 12.429688 C 28.152344 6.945312 30.933594 9.230469 31.96875 12.886719 C 31.875 11.898438 31.503906 10.953125 31.210938 10.054688 C 31.398438 10.144531 30.839844 8.042969 31.503906 9.507812 C 30.65625 6.476562 27.964844 3.824219 25.445312 2.359375 C 27.128906 4.007812 20.605469 0.992188 19.03125 0.441406 C 20.144531 1.082031 13.355469 1.082031 17.128906 0.519531 C 15.828125 0.425781 14.144531 0.882812 15.738281 0.0625 C 14.730469 0.105469 13.402344 0.609375 13.773438 0.152344 C 11.824219 1.15625 5.875 5.089844 7.542969 2.984375 C 5.410156 4.90625 4.097656 6.277344 2.984375 8.851562 C -4.359375 19.011719 2.796875 34.292969 14.421875 38.605469 C 15.445312 38.96875 17.128906 38.96875 18.519531 38.96875 C 16.941406 38.511719 16.664062 38.785156 15.074219 38.238281 C 13.960938 37.765625 13.679688 37.125 12.847656 36.394531 C 12.785156 37.125 10.621094 36.347656 11.363281 35.480469 C 10.898438 35.449219 10.046875 34.65625 9.769531 34.203125 C 8.933594 34.382812 8.191406 32.921875 8.191406 32.375 C 8.101562 32.648438 4.746094 29.355469 6.710938 30.269531 C 6.246094 29.8125 5.597656 29.722656 6.152344 29.171875 C 5.6875 27.878906 4.46875 27.332031 5.875 27.789062 C 3.816406 26.417969 2.613281 24.222656 3.539062 24.132812 C 3.078125 23.582031 3.078125 23.125 3.167969 22.394531 C 1.59375 19.011719 3.261719 14.792969 4.46875 11.960938 C 2.519531 12.140625 8.007812 7.375 9.492188 7.375 C 9.304688 6.640625 10.527344 5.726562 12.011719 5.269531 C 11.917969 5.179688 17.222656 2.894531 14.980469 4.539062 C 21.226562 2.527344 28.105469 7.832031 28.476562 13.328125 C 28.847656 13.421875 28.429688 17.445312 28.382812 17.71875 "/>
</g>
</svg>
