<?xml version="1.0" encoding="UTF-8"?>
<svg xmlns="http://www.w3.org/2000/svg" xmlns:xlink="http://www.w3.org/1999/xlink" width="px" height="40px" viewBox="0 0 40 39" version="1.1">
<defs>
<clipPath id="clip1">
  <path d="M 0.101562 0 L 39.898438 0 L 39.898438 39 L 0.101562 39 Z M 0.101562 0 "/>
</clipPath>
</defs>
<g id="surface1">
<g clip-path="url(#clip1)" clip-rule="nonzero">
<path style=" stroke:none;fill-rule:evenodd;fill:rgb(27.058825%,2.352941%,44.313726%);fill-opacity:1;" d="M 20.171875 0 L 20.421875 0.914062 C 20.558594 1.417969 20.792969 2.347656 20.933594 2.957031 C 21.074219 3.578125 21.277344 4.480469 21.386719 4.953125 C 21.507812 5.4375 21.679688 6.214844 21.789062 6.703125 C 21.914062 7.175781 22.117188 8.074219 22.242188 8.699219 C 22.382812 9.324219 22.582031 10.085938 22.675781 10.421875 C 22.785156 10.742188 22.863281 11.183594 22.863281 11.394531 C 22.863281 11.746094 22.660156 11.777344 20.234375 11.777344 C 18.273438 11.777344 17.539062 11.699219 17.371094 11.488281 C 17.230469 11.335938 17.183594 11.058594 17.261719 10.878906 C 17.371094 10.601562 17.742188 10.542969 19.394531 10.542969 C 21.152344 10.542969 21.386719 10.496094 21.386719 10.175781 C 21.371094 9.992188 21.183594 9.09375 20.949219 8.210938 C 20.714844 7.328125 20.527344 6.476562 20.527344 6.320312 C 20.527344 6.183594 20.421875 5.804688 20.296875 5.484375 C 20.0625 4.921875 20.046875 4.953125 19.6875 6.320312 C 19.5 7.113281 19.191406 7.84375 18.988281 7.96875 C 18.738281 8.121094 18.550781 8.105469 18.382812 7.9375 C 18.179688 7.738281 18.304688 6.992188 18.910156 4.554688 C 19.347656 2.832031 19.8125 1.097656 19.9375 0.714844 Z M 5.945312 5.621094 C 6.007812 5.621094 6.800781 6.0625 7.71875 6.613281 C 8.621094 7.144531 10.054688 8.011719 10.863281 8.515625 C 11.6875 9.035156 13.246094 9.992188 14.320312 10.648438 C 15.394531 11.304688 16.28125 11.898438 16.28125 11.960938 C 16.28125 12.035156 15.425781 12.902344 14.367188 13.925781 L 12.46875 15.753906 L 12.015625 15.324219 L 11.578125 14.898438 L 13.058594 13.46875 L 14.519531 12.019531 L 13.339844 11.351562 C 12.683594 10.96875 11.609375 10.328125 10.972656 9.917969 C 10.335938 9.507812 9.679688 9.109375 9.539062 9.019531 C 9.386719 8.941406 9.539062 9.308594 9.867188 9.855469 C 10.210938 10.40625 10.597656 11.042969 10.753906 11.273438 C 10.910156 11.515625 10.972656 11.867188 10.910156 12.050781 C 10.832031 12.234375 10.597656 12.386719 10.382812 12.386719 C 10.101562 12.386719 9.507812 11.578125 8.328125 9.671875 C 7.410156 8.179688 6.476562 6.65625 6.257812 6.292969 C 6.023438 5.925781 5.882812 5.621094 5.945312 5.621094 Z M 34.304688 5.835938 C 34.351562 5.925781 33.960938 6.625 33.449219 7.402344 C 32.933594 8.164062 32.03125 9.535156 31.441406 10.4375 C 30.847656 11.335938 29.820312 12.886719 29.152344 13.894531 L 27.9375 15.722656 L 27.082031 14.914062 C 26.613281 14.488281 25.773438 13.679688 25.230469 13.132812 C 24.699219 12.582031 24.25 11.972656 24.25 11.792969 C 24.25 11.609375 24.4375 11.425781 24.652344 11.394531 C 24.917969 11.351562 25.507812 11.746094 26.398438 12.613281 C 27.144531 13.316406 27.78125 13.847656 27.828125 13.800781 C 27.875 13.757812 28.558594 12.722656 29.355469 11.503906 C 30.148438 10.296875 30.753906 9.261719 30.691406 9.203125 C 30.644531 9.15625 30.054688 9.445312 29.402344 9.839844 C 28.558594 10.34375 28.046875 10.527344 27.75 10.4375 C 27.488281 10.359375 27.332031 10.160156 27.378906 9.964844 C 27.410156 9.765625 28.964844 8.730469 30.847656 7.648438 C 32.714844 6.566406 34.273438 5.742188 34.304688 5.835938 Z M 20.078125 13.421875 C 20.46875 13.40625 21.292969 13.542969 21.914062 13.726562 C 22.535156 13.894531 23.441406 14.320312 23.921875 14.640625 C 24.390625 14.976562 25.058594 15.628906 25.417969 16.085938 C 25.757812 16.542969 26.195312 17.414062 26.367188 18.023438 C 26.550781 18.617188 26.691406 19.363281 26.691406 19.683594 C 26.691406 20.003906 26.550781 20.71875 26.382812 21.265625 C 26.210938 21.816406 25.867188 22.578125 25.617188 22.957031 C 25.386719 23.339844 24.792969 23.964844 24.3125 24.359375 C 23.828125 24.753906 22.925781 25.273438 22.304688 25.488281 C 21.664062 25.714844 20.761719 25.898438 20.28125 25.898438 C 19.8125 25.898438 19.019531 25.792969 18.535156 25.65625 C 18.054688 25.53125 17.292969 25.199219 16.839844 24.921875 C 16.390625 24.648438 15.6875 24.085938 15.300781 23.675781 C 14.894531 23.261719 14.398438 22.441406 14.164062 21.847656 C 13.929688 21.25 13.726562 20.324219 13.726562 19.773438 C 13.726562 19.242188 13.835938 18.480469 13.960938 18.097656 C 14.085938 17.71875 14.335938 17.125 14.519531 16.789062 C 14.707031 16.453125 15.160156 15.875 15.515625 15.492188 C 15.875 15.113281 16.5 14.625 16.886719 14.394531 C 17.277344 14.152344 17.992188 13.847656 18.476562 13.695312 C 18.972656 13.558594 19.6875 13.421875 20.078125 13.421875 Z M 28.917969 16.925781 C 29.324219 16.984375 29.355469 17.152344 29.417969 18.890625 C 29.464844 20.628906 29.507812 20.78125 29.898438 20.78125 C 30.132812 20.78125 31.003906 20.613281 31.859375 20.398438 C 32.699219 20.1875 33.742188 19.941406 34.195312 19.882812 C 34.628906 19.804688 34.988281 19.667969 34.988281 19.578125 C 34.988281 19.5 34.351562 19.300781 33.585938 19.132812 C 32.761719 18.96875 32.125 18.722656 32.015625 18.523438 C 31.90625 18.34375 31.90625 18.066406 32 17.914062 C 32.15625 17.6875 32.855469 17.792969 35.875 18.507812 C 37.898438 18.996094 39.6875 19.453125 39.84375 19.546875 C 40.03125 19.636719 39.796875 19.773438 39.207031 19.910156 C 38.691406 20.035156 37.851562 20.230469 37.324219 20.339844 C 36.792969 20.460938 35.890625 20.65625 35.300781 20.78125 C 34.722656 20.917969 33.851562 21.101562 33.386719 21.207031 C 32.917969 21.296875 31.703125 21.570312 30.691406 21.800781 C 29.679688 22.027344 28.699219 22.210938 28.511719 22.210938 C 28.234375 22.210938 28.1875 21.847656 28.1875 19.683594 C 28.1875 18.296875 28.25 17.09375 28.34375 17.015625 C 28.421875 16.941406 28.683594 16.894531 28.917969 16.925781 Z M 11.457031 17.109375 L 12.046875 17.09375 L 11.984375 19.714844 L 11.921875 22.320312 L 11.394531 22.320312 C 10.863281 22.320312 10.863281 22.304688 10.800781 20.335938 L 10.738281 18.371094 L 8.996094 18.753906 C 8.046875 18.96875 6.785156 19.242188 6.210938 19.347656 C 5.632812 19.46875 5.121094 19.589844 5.074219 19.636719 C 5.027344 19.683594 5.496094 19.867188 6.117188 20.03125 C 6.738281 20.199219 7.441406 20.367188 7.671875 20.414062 C 7.90625 20.445312 8.140625 20.640625 8.171875 20.855469 C 8.21875 21.070312 8.15625 21.328125 8.046875 21.433594 C 7.90625 21.558594 6.566406 21.328125 4.28125 20.78125 C 2.335938 20.324219 0.527344 19.867188 0.296875 19.773438 C -0.0625 19.652344 0.046875 19.578125 0.902344 19.363281 C 1.480469 19.226562 2.320312 19.042969 2.785156 18.9375 C 3.253906 18.84375 4.078125 18.664062 4.589844 18.554688 C 5.121094 18.433594 6.039062 18.234375 6.613281 18.113281 C 7.207031 17.992188 8.390625 17.71875 9.277344 17.503906 C 10.148438 17.304688 11.128906 17.125 11.457031 17.109375 Z M 12.46875 23.445312 C 12.542969 23.445312 13.433594 24.269531 14.460938 25.273438 C 16.109375 26.902344 16.28125 27.164062 16.078125 27.527344 C 15.953125 27.757812 15.734375 27.957031 15.59375 27.957031 C 15.457031 27.957031 14.707031 27.347656 13.929688 26.597656 L 12.511719 25.242188 L 11.78125 26.445312 C 11.378906 27.101562 10.691406 28.183594 10.257812 28.824219 C 9.820312 29.480469 9.523438 29.996094 9.601562 29.996094 C 9.679688 29.996094 10.320312 29.675781 11.019531 29.28125 C 11.734375 28.871094 12.4375 28.59375 12.589844 28.65625 C 12.746094 28.71875 12.886719 28.929688 12.886719 29.160156 C 12.886719 29.433594 11.984375 30.074219 9.496094 31.519531 C 7.625 32.601562 6.054688 33.484375 5.976562 33.484375 C 5.914062 33.484375 6.117188 33.042969 6.445312 32.511719 C 6.753906 31.976562 7.65625 30.605469 8.421875 29.464844 C 9.183594 28.335938 10.382812 26.507812 11.082031 25.425781 C 11.78125 24.34375 12.40625 23.460938 12.46875 23.445312 Z M 28.078125 23.492188 C 28.3125 23.523438 28.527344 23.71875 28.574219 23.917969 C 28.621094 24.148438 28.171875 24.742188 27.410156 25.519531 C 26.722656 26.1875 26.148438 26.8125 26.117188 26.890625 C 26.085938 26.964844 26.320312 27.179688 26.644531 27.359375 C 26.972656 27.542969 28.03125 28.167969 29.011719 28.746094 C 29.992188 29.339844 30.816406 29.785156 30.847656 29.753906 C 30.894531 29.722656 30.582031 29.1875 30.179688 28.5625 C 29.773438 27.953125 29.480469 27.253906 29.507812 27.027344 C 29.539062 26.78125 29.726562 26.613281 29.976562 26.613281 C 30.289062 26.613281 30.925781 27.46875 32.453125 29.90625 C 33.585938 31.703125 34.445312 33.210938 34.335938 33.242188 C 34.242188 33.289062 33.601562 32.953125 32.917969 32.511719 C 32.25 32.070312 31.066406 31.335938 30.304688 30.878906 C 29.554688 30.4375 27.90625 29.449219 26.644531 28.6875 C 25.402344 27.941406 24.3125 27.222656 24.234375 27.101562 C 24.15625 26.980469 24.902344 26.113281 25.867188 25.167969 C 27.097656 23.980469 27.78125 23.445312 28.078125 23.492188 Z M 20.0625 27.390625 L 22.769531 27.4375 L 22.769531 27.957031 C 22.769531 28.457031 22.738281 28.472656 20.714844 28.519531 L 18.660156 28.578125 L 18.847656 29.234375 C 18.941406 29.601562 19.222656 30.683594 19.457031 31.640625 C 19.6875 32.601562 19.90625 33.5625 19.953125 33.789062 C 20.015625 34.0625 20.125 33.910156 20.3125 33.289062 C 20.46875 32.769531 20.683594 32.054688 20.792969 31.6875 C 20.949219 31.183594 21.105469 31.03125 21.507812 31.03125 C 21.867188 31.03125 22.023438 31.140625 22.023438 31.414062 C 22.023438 31.625 21.632812 33.300781 21.152344 35.144531 C 20.683594 36.988281 20.25 38.632812 20.203125 38.785156 C 20.140625 38.953125 20.0625 39.03125 20 38.984375 C 19.9375 38.925781 19.796875 38.390625 19.65625 37.765625 C 19.53125 37.15625 19.363281 36.335938 19.269531 35.9375 C 19.175781 35.558594 18.707031 33.546875 18.226562 31.488281 C 17.742188 29.433594 17.355469 27.652344 17.355469 27.542969 C 17.355469 27.40625 18.289062 27.347656 20.0625 27.390625 Z M 20.0625 27.390625 "/>
</g>
</g>
</svg>
