<?xml version="1.0" encoding="UTF-8"?>
<svg xmlns="http://www.w3.org/2000/svg" xmlns:xlink="http://www.w3.org/1999/xlink" width="px" height="40px" viewBox="0 0 40 40" version="1.1">
<g id="surface1">
<path style=" stroke:none;fill-rule:nonzero;fill:rgb(31.764707%,63.529414%,85.490197%);fill-opacity:1;" d="M 19.96875 0.0625 C 8.949219 0.0625 0.03125 8.984375 0 20.015625 L 0 35.453125 C 0.015625 37.953125 2.039062 39.984375 4.535156 39.984375 L 19.96875 39.984375 C 31.003906 39.96875 39.921875 31.046875 39.921875 20.03125 C 39.921875 9 30.988281 0.078125 19.953125 0.078125 Z M 19.96875 0.0625 "/>
<path style=" stroke:none;fill-rule:nonzero;fill:rgb(100%,100%,100%);fill-opacity:1;" d="M 24.03125 8.265625 C 20.917969 8.265625 18.160156 10.609375 17.777344 13.6875 C 17.761719 13.9375 17.746094 14.125 17.746094 14.359375 L 17.746094 26.9375 C 17.746094 29.34375 15.953125 30.984375 13.6875 30.984375 C 11.433594 30.984375 9.609375 29.171875 9.609375 26.921875 C 9.65625 24.453125 11.632812 22.890625 13.929688 22.828125 L 13.945312 22.828125 L 16.292969 22.796875 L 16.292969 19.484375 L 13.945312 19.5 C 9.746094 19.453125 6.40625 22.75 6.285156 26.9375 C 6.285156 31 9.640625 34.3125 13.6875 34.3125 C 17.515625 34.3125 20.703125 31.328125 21.058594 27.578125 C 21.101562 26.3125 21.074219 24.625 21.074219 24.625 C 21.089844 23.9375 21.074219 24.1875 21.074219 22.8125 L 23.984375 22.796875 C 26.238281 22.8125 26.207031 19.421875 23.953125 19.46875 L 21.074219 19.484375 C 21.074219 17.78125 21.101562 16.09375 21.074219 14.375 C 21.074219 12.90625 22.484375 11.59375 24.03125 11.59375 C 25.578125 11.59375 27.21875 12.375 27.21875 14.375 C 27.21875 14.671875 27.21875 14.828125 27.203125 14.9375 C 27.035156 15.875 27.664062 16.765625 28.597656 16.890625 C 29.546875 17.03125 30.40625 16.34375 30.5 15.40625 C 30.542969 15.03125 30.542969 14.703125 30.542969 14.375 C 30.542969 10.84375 27.386719 8.28125 24.03125 8.28125 Z M 24.03125 8.265625 "/>
</g>
</svg>
