<?xml version="1.0" encoding="UTF-8"?>
<svg xmlns="http://www.w3.org/2000/svg" xmlns:xlink="http://www.w3.org/1999/xlink" width="px" height="40px" viewBox="0 0 34 39" version="1.1">
<g id="surface1">
<path style=" stroke:none;fill-rule:nonzero;fill:rgb(100%,76.078433%,29.019609%);fill-opacity:1;" d="M 0.078125 31.445312 L 0.3125 31.109375 L 11.695312 9.980469 L 11.726562 9.765625 L 6.707031 0.535156 C 6.269531 -0.242188 5.101562 -0.046875 4.960938 0.824219 Z M 0.078125 31.445312 "/>
<path style=" stroke:none;fill-rule:nonzero;fill:rgb(95.686275%,74.117649%,38.431373%);fill-opacity:1;" d="M 15.394531 16.742188 L 19.121094 12.996094 L 15.394531 6.019531 C 15.035156 5.363281 14.035156 5.363281 13.695312 6.019531 L 11.695312 9.75 L 11.695312 10.070312 Z M 15.394531 16.742188 "/>
<path style=" stroke:none;fill-rule:nonzero;fill:rgb(96.470588%,50.980395%,4.705882%);fill-opacity:1;" d="M 0.078125 31.445312 L 0.1875 31.335938 L 0.578125 31.183594 L 15.160156 16.988281 L 15.332031 16.5 L 11.695312 9.71875 Z M 0.078125 31.445312 "/>
<path style=" stroke:none;fill-rule:nonzero;fill:rgb(99.215686%,87.843138%,40.784314%);fill-opacity:1;" d="M 15.863281 38.605469 L 29.039062 31.414062 L 25.265625 8.730469 C 25.15625 8.011719 24.253906 7.738281 23.753906 8.242188 L 0.078125 31.445312 L 13.195312 38.605469 C 14.019531 39.0625 15.035156 39.0625 15.863281 38.605469 Z M 15.863281 38.605469 "/>
<path style=" stroke:none;fill-rule:nonzero;fill:rgb(98.823529%,79.215688%,24.705882%);fill-opacity:1;" d="M 28.929688 31.351562 L 25.1875 8.851562 C 25.078125 8.136719 24.332031 7.847656 23.816406 8.347656 L 0.21875 31.398438 L 13.179688 38.480469 C 14.003906 38.9375 15.003906 38.9375 15.832031 38.480469 Z M 28.929688 31.351562 "/>
<path style=" stroke:none;fill-rule:nonzero;fill:rgb(93.333334%,67.058825%,21.568628%);fill-opacity:1;" d="M 15.863281 38.390625 C 15.035156 38.847656 14.019531 38.847656 13.179688 38.390625 L 0.171875 31.335938 L 0.0625 31.445312 L 13.179688 38.605469 C 14.019531 39.046875 15.035156 39.046875 15.863281 38.605469 L 29.039062 31.414062 L 29.007812 31.214844 Z M 15.863281 38.390625 "/>
<path style=" stroke:none;fill-rule:nonzero;fill:rgb(45.882353%,45.882353%,45.882353%);fill-opacity:1;" d="M 33.828125 31.230469 C 33.0625 35.816406 28.667969 38.910156 23.988281 38.175781 C 19.308594 37.429688 16.140625 33.132812 16.890625 28.550781 C 17.65625 23.980469 22.054688 20.871094 26.730469 21.617188 C 31.410156 22.363281 34.578125 26.660156 33.828125 31.230469 Z M 33.828125 31.230469 "/>
<path style=" stroke:none;fill-rule:nonzero;fill:rgb(100%,100%,100%);fill-opacity:1;" d="M 21.476562 27.621094 L 25.296875 25.730469 L 29.210938 27.621094 L 29.210938 29.539062 L 25.296875 27.636719 L 21.476562 29.539062 Z M 21.476562 27.621094 "/>
<path style=" stroke:none;fill-rule:nonzero;fill:rgb(100%,100%,100%);fill-opacity:1;" d="M 21.476562 30.894531 L 25.296875 28.992188 L 29.210938 30.894531 L 29.210938 32.800781 L 25.296875 30.894531 L 21.476562 32.800781 Z M 21.476562 30.894531 "/>
<path style=" stroke:none;fill-rule:nonzero;fill:rgb(100%,100%,100%);fill-opacity:1;" d="M 25.296875 32.753906 L 26.421875 32.25 L 28.371094 33.132812 L 25.296875 34.566406 Z M 25.296875 32.753906 "/>
</g>
</svg>
