<?xml version="1.0" encoding="UTF-8"?>
<svg xmlns="http://www.w3.org/2000/svg" xmlns:xlink="http://www.w3.org/1999/xlink" width="px" height="40px" viewBox="0 0 40 40" version="1.1">
<g id="surface1">
<path style=" stroke:none;fill-rule:nonzero;fill:rgb(100%,100%,100%);fill-opacity:1;" d="M 8.28125 16.09375 C 3.953125 16.09375 0.46875 12.609375 0.46875 8.28125 C 0.46875 3.953125 3.953125 0.46875 8.28125 0.46875 C 12.609375 0.46875 16.09375 3.953125 16.09375 8.28125 C 16.09375 12.609375 12.609375 16.09375 8.28125 16.09375 Z M 8.28125 16.09375 "/>
<path style=" stroke:none;fill-rule:nonzero;fill:rgb(100%,100%,100%);fill-opacity:1;" d="M 19.21875 25.78125 C 16.453125 25.78125 14.21875 23.546875 14.21875 20.78125 C 14.21875 18.015625 16.453125 15.78125 19.21875 15.78125 C 21.984375 15.78125 24.21875 18.015625 24.21875 20.78125 C 24.21875 23.546875 21.984375 25.78125 19.21875 25.78125 Z M 19.21875 25.78125 "/>
<path style=" stroke:none;fill-rule:nonzero;fill:rgb(100%,100%,100%);fill-opacity:1;" d="M 34.21875 25.46875 C 31.453125 25.46875 29.21875 23.234375 29.21875 20.46875 C 29.21875 17.703125 31.453125 15.46875 34.21875 15.46875 C 36.984375 15.46875 39.21875 17.703125 39.21875 20.46875 C 39.21875 23.234375 36.984375 25.46875 34.21875 25.46875 Z M 19.21875 39.0625 C 16.453125 39.0625 14.21875 36.828125 14.21875 34.0625 C 14.21875 31.296875 16.453125 29.0625 19.21875 29.0625 C 21.984375 29.0625 24.21875 31.296875 24.21875 34.0625 C 24.21875 36.828125 21.984375 39.0625 19.21875 39.0625 Z M 19.21875 39.0625 "/>
<path style=" stroke:none;fill-rule:nonzero;fill:rgb(100%,100%,100%);fill-opacity:1;" d="M 34.21875 39.0625 C 31.453125 39.0625 29.21875 36.828125 29.21875 34.0625 C 29.21875 31.296875 31.453125 29.0625 34.21875 29.0625 C 36.984375 29.0625 39.21875 31.296875 39.21875 34.0625 C 39.21875 36.828125 36.984375 39.0625 34.21875 39.0625 Z M 34.21875 39.0625 "/>
<path style=" stroke:none;fill-rule:evenodd;fill:rgb(29.019609%,49.411765%,74.901962%);fill-opacity:1;" d="M 8.375 0 C 13 0 16.75 3.75 16.75 8.375 C 16.75 12.921875 13.125 16.609375 8.609375 16.734375 C 8.609375 17.125 8.625 17.859375 8.84375 18.296875 C 9.140625 18.90625 10.953125 20.03125 12.734375 20.03125 L 13.375 20.03125 C 13.78125 17.171875 16.21875 14.984375 19.1875 14.984375 C 22.140625 14.984375 24.59375 17.15625 25 20 L 28.3125 20 C 28.71875 17.15625 31.171875 14.984375 34.125 14.984375 C 37.375 14.984375 40 17.609375 40 20.859375 C 40 24.109375 37.375 26.734375 34.125 26.734375 C 31.171875 26.734375 28.71875 24.546875 28.3125 21.71875 L 25 21.71875 C 24.59375 24.546875 22.140625 26.734375 19.1875 26.734375 C 16.25 26.734375 13.796875 24.5625 13.375 21.734375 L 12.671875 21.75 C 11.515625 21.75 10.28125 21.4375 9.296875 20.765625 C 9.03125 20.578125 8.765625 20.390625 8.484375 20.203125 L 8.484375 20.59375 C 8.484375 20.71875 8.46875 22.5625 8.46875 24.625 L 8.46875 25.0625 C 8.46875 26.40625 8.46875 27.796875 8.515625 28.8125 C 8.578125 31.046875 10.390625 32.84375 12.390625 33.265625 C 12.640625 33.3125 13.09375 33.328125 13.375 33.296875 C 13.78125 30.4375 16.234375 28.25 19.1875 28.25 C 22.4375 28.25 25.0625 30.875 25.0625 34.125 C 25.0625 37.375 22.4375 40 19.1875 40 C 16.265625 40 13.828125 37.859375 13.390625 35.046875 L 12.875 35.046875 C 9.0625 34.84375 6.6875 31.328125 6.734375 28.5 C 6.78125 24.921875 6.734375 21.34375 6.734375 17.765625 L 6.734375 16.59375 C 2.890625 15.828125 0 12.4375 0 8.375 C 0 3.75 3.75 0 8.375 0 Z M 23.359375 34.125 C 23.359375 31.828125 21.5 29.96875 19.1875 29.96875 C 16.890625 29.96875 15.03125 31.828125 15.03125 34.125 C 15.03125 36.421875 16.890625 38.28125 19.1875 38.28125 C 21.5 38.28125 23.359375 36.421875 23.359375 34.125 Z M 23.359375 20.859375 C 23.359375 18.5625 21.5 16.703125 19.1875 16.703125 C 16.890625 16.703125 15.03125 18.5625 15.03125 20.859375 C 15.03125 23.15625 16.890625 25.015625 19.1875 25.015625 C 21.5 25.015625 23.359375 23.15625 23.359375 20.859375 Z M 38.28125 20.859375 C 38.28125 18.5625 36.421875 16.703125 34.125 16.703125 C 31.828125 16.703125 29.96875 18.5625 29.96875 20.859375 C 29.96875 23.15625 31.828125 25.015625 34.125 25.015625 C 36.421875 25.015625 38.28125 23.15625 38.28125 20.859375 Z M 36.484375 19.109375 C 36.8125 19.4375 36.828125 19.953125 36.515625 20.296875 L 36.5 20.328125 L 33.9375 22.875 C 33.625 23.203125 33.09375 23.203125 32.765625 22.90625 L 32.734375 22.875 L 31.484375 21.65625 C 31.140625 21.3125 31.140625 20.78125 31.484375 20.4375 C 31.796875 20.109375 32.328125 20.09375 32.671875 20.40625 L 33.328125 21.0625 L 35.28125 19.109375 C 35.609375 18.765625 36.15625 18.765625 36.484375 19.109375 Z M 21.5 19.09375 C 21.8125 19.421875 21.828125 19.9375 21.515625 20.28125 L 21.5 20.3125 L 18.953125 22.859375 C 18.625 23.1875 18.09375 23.203125 17.765625 22.890625 L 17.734375 22.859375 L 16.484375 21.640625 C 16.15625 21.3125 16.140625 20.765625 16.484375 20.421875 C 16.796875 20.09375 17.328125 20.078125 17.671875 20.390625 L 17.6875 20.421875 L 18.328125 21.046875 L 20.28125 19.09375 C 20.609375 18.765625 21.15625 18.765625 21.5 19.09375 Z M 15.03125 8.375 C 15.03125 4.6875 12.0625 1.71875 8.375 1.71875 C 4.6875 1.71875 1.71875 4.6875 1.71875 8.375 C 1.71875 12.046875 4.6875 15.03125 8.375 15.03125 C 12.0625 15.03125 15.03125 12.046875 15.03125 8.375 Z M 7.6875 4.390625 C 9.082031 5.234375 10.464844 6.105469 11.828125 7 C 12.96875 7.765625 12.96875 9.125 11.8125 9.875 C 10.425781 10.792969 9.015625 11.660156 7.578125 12.484375 C 6.421875 13.171875 5.109375 12.390625 5.078125 11.03125 C 5.0625 10.15625 5.078125 9.28125 5.078125 8.40625 C 5.078125 7.546875 5.0625 6.703125 5.078125 5.84375 C 5.125 4.40625 6.453125 3.65625 7.6875 4.390625 Z M 6.765625 5.78125 L 6.765625 6.390625 C 6.765625 6.683594 6.765625 6.972656 6.765625 7.265625 L 6.765625 8.703125 C 6.765625 9.375 6.765625 10.015625 6.765625 10.671875 C 6.765625 10.984375 6.921875 10.96875 7.125 10.84375 C 8.3125 10.105469 9.5 9.363281 10.6875 8.625 C 10.890625 8.515625 10.890625 8.375 10.703125 8.265625 C 9.421875 7.453125 8.15625 6.65625 6.765625 5.78125 Z M 6.765625 5.78125 "/>
<path style=" stroke:none;fill-rule:nonzero;fill:rgb(52.156866%,70.19608%,87.450981%);fill-opacity:1;" d="M 20.8125 34.984375 C 20.34375 34.984375 19.953125 34.59375 19.953125 34.125 C 19.953125 33.640625 20.34375 33.265625 20.8125 33.265625 C 21.296875 33.265625 21.671875 33.640625 21.671875 34.125 C 21.671875 34.59375 21.296875 34.984375 20.8125 34.984375 Z M 20.8125 34.984375 "/>
<path style=" stroke:none;fill-rule:nonzero;fill:rgb(52.156866%,70.19608%,87.450981%);fill-opacity:1;" d="M 17.53125 34.984375 C 17.046875 34.984375 16.671875 34.59375 16.671875 34.125 C 16.671875 33.640625 17.046875 33.265625 17.53125 33.265625 C 18 33.265625 18.390625 33.640625 18.390625 34.125 C 18.390625 34.59375 18 34.984375 17.53125 34.984375 Z M 17.53125 34.984375 "/>
<path style=" stroke:none;fill-rule:evenodd;fill:rgb(52.156866%,70.19608%,87.450981%);fill-opacity:1;" d="M 40 34.125 C 40 37.375 37.375 40 34.125 40 C 31.171875 40 28.71875 37.828125 28.3125 34.984375 L 27.34375 34.984375 C 26.921875 34.984375 26.59375 34.59375 26.59375 34.125 C 26.59375 33.65625 26.921875 33.265625 27.34375 33.265625 L 28.3125 33.265625 C 28.71875 30.421875 31.171875 28.25 34.125 28.25 C 37.375 28.25 40 30.875 40 34.125 Z M 38.28125 34.125 C 38.28125 31.828125 36.421875 29.96875 34.125 29.96875 C 31.828125 29.96875 29.96875 31.828125 29.96875 34.125 C 29.96875 36.421875 31.828125 38.28125 34.125 38.28125 C 36.421875 38.28125 38.28125 36.421875 38.28125 34.125 Z M 38.28125 34.125 "/>
</g>
</svg>
