<?xml version="1.0" encoding="UTF-8"?>
<svg xmlns="http://www.w3.org/2000/svg" xmlns:xlink="http://www.w3.org/1999/xlink" width="px" height="40px" viewBox="0 0 40 40" version="1.1">
<g id="surface1">
<path style=" stroke:none;fill-rule:nonzero;fill:rgb(100%,100%,100%);fill-opacity:1;" d="M 19.953125 39.921875 C 8.921875 39.921875 0 31 0 19.953125 C 0 8.921875 8.921875 0 19.953125 0 C 31 0 39.921875 8.921875 39.921875 19.953125 C 39.921875 31 31 39.921875 19.953125 39.921875 Z M 19.953125 39.921875 "/>
<path style=" stroke:none;fill-rule:evenodd;fill:rgb(9.411765%,8.627451%,8.627451%);fill-opacity:1;" d="M 19.953125 0.203125 C 9.046875 0.203125 0.203125 9.046875 0.203125 19.953125 C 0.203125 28.6875 5.859375 36.09375 13.71875 38.703125 C 14.703125 38.890625 15.0625 38.28125 15.0625 37.75 C 15.0625 37.28125 15.046875 35.734375 15.03125 34.078125 C 9.53125 35.265625 8.375 31.75 8.375 31.75 C 7.484375 29.46875 6.1875 28.859375 6.1875 28.859375 C 4.390625 27.625 6.3125 27.65625 6.3125 27.65625 C 8.296875 27.796875 9.34375 29.6875 9.34375 29.6875 C 11.109375 32.703125 13.96875 31.84375 15.09375 31.328125 C 15.28125 30.0625 15.78125 29.1875 16.359375 28.6875 C 11.96875 28.1875 7.34375 26.5 7.34375 18.921875 C 7.34375 16.765625 8.125 15 9.390625 13.625 C 9.1875 13.125 8.5 11.109375 9.578125 8.390625 C 9.578125 8.390625 11.234375 7.859375 15.015625 10.421875 C 16.59375 9.984375 18.28125 9.765625 19.953125 9.75 C 21.640625 9.765625 23.328125 9.984375 24.90625 10.421875 C 28.6875 7.859375 30.34375 8.390625 30.34375 8.390625 C 31.40625 11.109375 30.734375 13.125 30.53125 13.625 C 31.796875 15 32.5625 16.765625 32.5625 18.921875 C 32.5625 26.515625 27.9375 28.1875 23.546875 28.671875 C 24.25 29.28125 24.875 30.484375 24.875 32.328125 C 24.875 34.96875 24.859375 37.109375 24.859375 37.75 C 24.859375 38.28125 25.21875 38.890625 26.21875 38.703125 C 34.0625 36.09375 39.71875 28.6875 39.71875 19.953125 C 39.71875 9.046875 30.875 0.203125 19.953125 0.203125 Z M 19.953125 0.203125 "/>
<path style=" stroke:none;fill-rule:nonzero;fill:rgb(9.411765%,8.627451%,8.627451%);fill-opacity:1;" d="M 7.6875 28.5625 C 7.640625 28.671875 7.484375 28.6875 7.34375 28.625 C 7.203125 28.5625 7.125 28.421875 7.171875 28.328125 C 7.203125 28.234375 7.359375 28.203125 7.515625 28.265625 C 7.65625 28.328125 7.734375 28.46875 7.6875 28.5625 Z M 8.484375 29.453125 C 8.390625 29.546875 8.203125 29.5 8.078125 29.375 C 7.953125 29.234375 7.921875 29.046875 8.015625 28.953125 C 8.125 28.875 8.296875 28.90625 8.421875 29.046875 C 8.5625 29.1875 8.578125 29.375 8.484375 29.453125 Z M 9.265625 30.59375 C 9.140625 30.6875 8.9375 30.609375 8.828125 30.421875 C 8.703125 30.25 8.703125 30.046875 8.828125 29.953125 C 8.953125 29.875 9.140625 29.953125 9.265625 30.125 C 9.390625 30.296875 9.390625 30.515625 9.265625 30.59375 Z M 10.328125 31.703125 C 10.21875 31.8125 9.984375 31.78125 9.828125 31.625 C 9.65625 31.46875 9.609375 31.234375 9.703125 31.109375 C 9.828125 31 10.046875 31.03125 10.21875 31.1875 C 10.390625 31.34375 10.453125 31.578125 10.328125 31.703125 Z M 11.390625 32.515625 C 11.15625 32.515625 10.984375 32.375 10.984375 32.21875 C 10.984375 32.046875 11.15625 31.90625 11.390625 31.90625 C 11.625 31.90625 11.8125 32.046875 11.8125 32.21875 C 11.8125 32.375 11.625 32.515625 11.390625 32.515625 Z M 13 32.75 C 12.765625 32.75 12.578125 32.625 12.578125 32.453125 C 12.578125 32.296875 12.765625 32.171875 13 32.171875 C 13.234375 32.171875 13.421875 32.296875 13.421875 32.453125 C 13.421875 32.625 13.234375 32.75 13 32.75 Z M 14.5 32.578125 C 14.265625 32.578125 14.078125 32.4375 14.078125 32.265625 C 14.078125 32.109375 14.265625 31.96875 14.5 31.96875 C 14.734375 31.96875 14.921875 32.109375 14.921875 32.265625 C 14.921875 32.4375 14.734375 32.578125 14.5 32.578125 Z M 14.5 32.578125 "/>
</g>
</svg>
