<?xml version="1.0" encoding="UTF-8"?>
<svg xmlns="http://www.w3.org/2000/svg" xmlns:xlink="http://www.w3.org/1999/xlink" width="px" height="40px" viewBox="0 0 53 40" version="1.1">
<g id="surface1">
<path style=" stroke:none;fill-rule:evenodd;fill:rgb(0.784314%,18.82353%,22.745098%);fill-opacity:1;" d="M 43.292969 24.65625 C 39.410156 27.609375 38.039062 33.5 37.960938 38.640625 C 37.960938 38.746094 37.941406 38.847656 37.902344 38.953125 C 37.859375 39.046875 37.796875 39.128906 37.714844 39.203125 C 37.644531 39.277344 37.5625 39.332031 37.46875 39.375 C 37.367188 39.417969 37.265625 39.4375 37.160156 39.4375 L 33.570312 39.4375 C 33.46875 39.4375 33.371094 39.421875 33.277344 39.390625 C 33.195312 39.347656 33.121094 39.296875 33.046875 39.234375 C 32.964844 39.171875 32.902344 39.09375 32.863281 39 C 32.820312 38.917969 32.792969 38.828125 32.769531 38.734375 C 32.601562 37.390625 31.953125 36.171875 30.953125 35.28125 C 29.964844 34.390625 28.6875 33.90625 27.347656 33.90625 C 26.023438 33.90625 24.742188 34.390625 23.742188 35.28125 C 22.757812 36.171875 22.109375 37.390625 21.925781 38.734375 C 21.914062 38.828125 21.886719 38.917969 21.847656 39 C 21.796875 39.09375 21.734375 39.171875 21.664062 39.234375 C 21.589844 39.296875 21.507812 39.347656 21.414062 39.390625 C 21.332031 39.421875 21.242188 39.4375 21.136719 39.4375 L 17.519531 39.4375 C 17.425781 39.4375 17.332031 39.421875 17.242188 39.390625 C 17.148438 39.347656 17.066406 39.296875 16.992188 39.234375 C 16.921875 39.171875 16.867188 39.09375 16.824219 39 C 16.773438 38.917969 16.742188 38.828125 16.730469 38.734375 C 16.5625 37.390625 15.914062 36.171875 14.914062 35.28125 C 13.929688 34.390625 12.632812 33.90625 11.308594 33.90625 C 9.984375 33.90625 8.703125 34.390625 7.703125 35.28125 C 6.703125 36.171875 6.054688 37.390625 5.886719 38.734375 C 5.875 38.828125 5.847656 38.921875 5.808594 39.015625 C 5.757812 39.109375 5.695312 39.191406 5.625 39.265625 C 5.550781 39.328125 5.464844 39.378906 5.363281 39.421875 C 5.269531 39.453125 5.171875 39.46875 5.070312 39.46875 L 1.371094 39.46875 C 1.277344 39.46875 1.1875 39.453125 1.09375 39.421875 C 1.011719 39.390625 0.933594 39.34375 0.863281 39.28125 C 0.789062 39.21875 0.730469 39.144531 0.679688 39.0625 C 0.636719 38.980469 0.605469 38.894531 0.585938 38.8125 C -1.496094 27.796875 2.355469 19.109375 8.628906 14.578125 L 11.910156 20.3125 C 12.09375 20.65625 12.339844 20.96875 12.601562 21.234375 C 12.878906 21.515625 13.1875 21.75 13.511719 21.9375 C 13.851562 22.140625 14.207031 22.28125 14.574219 22.390625 C 14.945312 22.484375 15.328125 22.53125 15.714844 22.53125 C 15.898438 22.53125 16.085938 22.519531 16.269531 22.5 C 16.453125 22.480469 16.632812 22.441406 16.808594 22.390625 C 16.992188 22.339844 17.171875 22.28125 17.347656 22.21875 C 17.511719 22.144531 17.675781 22.0625 17.839844 21.96875 L 19.382812 21.09375 L 19.429688 21.09375 C 19.878906 20.8125 20.328125 20.515625 20.769531 20.203125 C 21.210938 19.902344 21.648438 19.589844 22.078125 19.265625 C 22.5 18.941406 22.914062 18.609375 23.324219 18.265625 C 23.738281 17.921875 24.144531 17.566406 24.542969 17.203125 C 24.625 17.121094 24.6875 17.027344 24.726562 16.921875 C 24.769531 16.816406 24.789062 16.707031 24.789062 16.59375 C 24.789062 16.480469 24.765625 16.371094 24.710938 16.265625 C 24.660156 16.160156 24.59375 16.074219 24.511719 16 C 24.429688 15.9375 24.34375 15.890625 24.25 15.859375 C 24.148438 15.828125 24.050781 15.8125 23.957031 15.8125 C 23.855469 15.824219 23.757812 15.84375 23.664062 15.875 C 23.574219 15.917969 23.484375 15.972656 23.402344 16.046875 C 23.035156 16.378906 22.652344 16.707031 22.261719 17.03125 C 21.871094 17.355469 21.472656 17.667969 21.0625 17.96875 C 20.660156 18.28125 20.25 18.578125 19.828125 18.859375 C 19.417969 19.152344 18.996094 19.433594 18.566406 19.703125 L 17.054688 20.5625 L 17.117188 20.515625 L 17.023438 20.5625 C 16.714844 20.734375 16.378906 20.859375 16.023438 20.890625 C 15.667969 20.9375 15.316406 20.921875 14.960938 20.8125 C 14.621094 20.71875 14.296875 20.5625 14.019531 20.34375 C 13.726562 20.125 13.496094 19.84375 13.328125 19.53125 L 9.84375 13.453125 C 9.660156 13.125 9.535156 12.765625 9.492188 12.375 C 9.445312 12 9.492188 11.609375 9.597656 11.25 C 9.707031 10.875 9.890625 10.53125 10.136719 10.25 C 10.382812 9.953125 10.691406 9.71875 11.03125 9.546875 C 31.246094 -0.21875 40.152344 18.734375 46.820312 11.96875 C 47.714844 11.109375 48.253906 9.921875 48.316406 8.671875 C 48.378906 7.40625 47.960938 6.171875 47.144531 5.21875 C 46.328125 4.265625 45.1875 3.671875 43.941406 3.5625 C 42.707031 3.453125 41.476562 3.828125 40.503906 4.609375 C 40.421875 4.671875 40.335938 4.714844 40.242188 4.734375 C 40.152344 4.765625 40.058594 4.777344 39.964844 4.765625 C 39.875 4.765625 39.78125 4.746094 39.6875 4.703125 C 39.605469 4.660156 39.527344 4.605469 39.457031 4.53125 L 38.441406 3.484375 C 38.359375 3.410156 38.296875 3.324219 38.253906 3.21875 C 38.214844 3.113281 38.195312 3.003906 38.195312 2.890625 C 38.195312 2.777344 38.214844 2.667969 38.253906 2.5625 C 38.296875 2.457031 38.359375 2.371094 38.441406 2.296875 C 39.226562 1.546875 40.152344 0.953125 41.167969 0.5625 C 42.167969 0.171875 43.246094 -0.015625 44.324219 0 C 45.40625 0.015625 46.46875 0.25 47.453125 0.671875 C 48.453125 1.109375 49.363281 1.71875 50.117188 2.5 C 53.246094 5.65625 56.789062 14.421875 43.292969 24.65625 Z M 37.023438 16.484375 C 36.976562 15.921875 36.636719 15.421875 36.128906 15.171875 C 35.636719 14.921875 35.035156 14.9375 34.558594 15.234375 C 34.082031 15.53125 33.804688 16.0625 33.804688 16.640625 L 36.375 17.9375 C 36.824219 17.609375 37.070312 17.0625 37.023438 16.484375 Z M 37.023438 16.484375 "/>
</g>
</svg>
