<?xml version="1.0" encoding="UTF-8"?>
<svg xmlns="http://www.w3.org/2000/svg" xmlns:xlink="http://www.w3.org/1999/xlink" width="px" height="40px" viewBox="0 0 37 40" version="1.1">
<defs>
<linearGradient id="linear0" gradientUnits="userSpaceOnUse" x1="0" y1="0" x2="1" y2="0" gradientTransform="matrix(0,-36.380782,33.766988,0,18.5,48.852344)">
<stop offset="0" style="stop-color:rgb(98.823529%,93.333333%,12.156863%);stop-opacity:1;"/>
<stop offset="1" style="stop-color:rgb(94.509804%,35.686275%,16.470588%);stop-opacity:1;"/>
</linearGradient>
</defs>
<g id="surface1">
<path style=" stroke:none;fill-rule:nonzero;fill:url(#linear0);" d="M 36.921875 17.65625 C 36.859375 16.984375 36.75 16.203125 36.542969 15.34375 C 36.324219 14.5 35.960938 13.578125 35.503906 12.59375 C 35 11.640625 34.402344 10.609375 33.566406 9.65625 C 33.253906 9.265625 32.890625 8.90625 32.542969 8.53125 C 33.109375 6.296875 31.867188 4.34375 31.867188 4.34375 C 29.679688 4.203125 28.324219 5.015625 27.835938 5.375 C 27.757812 5.34375 27.648438 5.3125 27.585938 5.265625 C 27.222656 5.125 26.828125 4.984375 26.433594 4.84375 C 26.042969 4.734375 25.648438 4.59375 25.253906 4.53125 C 24.875 4.421875 24.4375 4.34375 24.011719 4.28125 C 23.949219 4.28125 23.867188 4.25 23.804688 4.25 C 22.878906 1.265625 20.152344 0 20.152344 0 C 17.050781 1.984375 16.453125 4.640625 16.453125 4.640625 C 16.453125 4.640625 16.453125 4.703125 16.40625 4.78125 C 16.234375 4.8125 16.089844 4.875 15.917969 4.921875 C 15.699219 4.984375 15.445312 5.0625 15.242188 5.171875 C 15.019531 5.265625 14.769531 5.34375 14.5625 5.453125 C 14.089844 5.65625 13.667969 5.875 13.195312 6.125 C 12.769531 6.359375 12.34375 6.609375 11.949219 6.890625 C 11.886719 6.859375 11.839844 6.828125 11.839844 6.828125 C 7.667969 5.234375 3.96875 7.140625 3.96875 7.140625 C 3.636719 11.5625 5.636719 14.328125 6.03125 14.828125 C 5.921875 15.109375 5.855469 15.34375 5.746094 15.640625 C 5.417969 16.625 5.210938 17.65625 5.070312 18.71875 C 5.039062 18.859375 5.039062 19.03125 4.992188 19.171875 C 1.148438 21.046875 0 24.9375 0 24.9375 C 3.210938 28.609375 6.992188 28.828125 6.992188 28.828125 C 7.464844 29.671875 8.03125 30.484375 8.628906 31.234375 C 8.878906 31.546875 9.164062 31.828125 9.460938 32.15625 C 8.28125 35.484375 9.636719 38.265625 9.636719 38.265625 C 13.242188 38.40625 15.585938 36.71875 16.089844 36.328125 C 16.449219 36.433594 16.804688 36.535156 17.160156 36.640625 C 18.265625 36.921875 19.414062 37.109375 20.515625 37.140625 C 20.796875 37.140625 21.082031 37.140625 21.367188 37.140625 L 21.980469 37.140625 C 23.648438 39.546875 26.65625 39.859375 26.65625 39.859375 C 28.765625 37.640625 28.90625 35.484375 28.90625 34.984375 C 28.90625 34.984375 28.90625 34.984375 28.90625 34.953125 C 28.90625 34.90625 28.90625 34.875 28.90625 34.875 C 28.90625 34.84375 28.90625 34.808594 28.90625 34.765625 C 29.332031 34.453125 29.757812 34.140625 30.183594 33.78125 C 31.046875 33.03125 31.757812 32.15625 32.402344 31.234375 C 32.464844 31.15625 32.496094 31.0625 32.574219 30.984375 C 34.96875 31.125 36.636719 29.5 36.636719 29.5 C 36.246094 27.03125 34.828125 25.828125 34.542969 25.609375 C 34.542969 25.609375 34.542969 25.609375 34.496094 25.578125 L 34.464844 25.53125 L 34.433594 25.5 C 34.433594 25.359375 34.464844 25.21875 34.464844 25.046875 C 34.496094 24.765625 34.496094 24.515625 34.496094 24.234375 L 34.496094 23.875 C 34.496094 23.8125 34.496094 23.84375 34.496094 23.8125 L 34.496094 23.421875 C 34.496094 23.347656 34.496094 23.277344 34.496094 23.203125 C 34.496094 23.140625 34.496094 23.0625 34.464844 22.984375 L 34.433594 22.78125 L 34.402344 22.5625 C 34.355469 22.28125 34.292969 22.03125 34.261719 21.75 C 34.007812 20.6875 33.566406 19.671875 33.03125 18.78125 C 32.464844 17.859375 31.789062 17.078125 31 16.375 C 30.214844 15.703125 29.363281 15.140625 28.433594 14.75 C 27.507812 14.328125 26.578125 14.078125 25.617188 13.96875 C 25.160156 13.90625 24.65625 13.90625 24.183594 13.90625 L 23.648438 13.90625 C 23.585938 13.90625 23.507812 13.90625 23.476562 13.90625 C 23.222656 13.9375 22.972656 13.96875 22.765625 14 C 21.804688 14.1875 20.910156 14.53125 20.121094 15 C 19.335938 15.453125 18.65625 16.0625 18.089844 16.734375 C 17.523438 17.40625 17.082031 18.109375 16.800781 18.890625 C 16.515625 19.625 16.34375 20.4375 16.3125 21.1875 C 16.3125 21.359375 16.3125 21.578125 16.3125 21.75 C 16.3125 21.796875 16.3125 21.859375 16.3125 21.890625 L 16.3125 22.03125 C 16.3125 22.140625 16.3125 22.21875 16.34375 22.3125 C 16.375 22.703125 16.453125 23.0625 16.546875 23.421875 C 16.769531 24.128906 17.09375 24.765625 17.523438 25.328125 C 17.949219 25.890625 18.40625 26.3125 18.941406 26.671875 C 19.476562 27.03125 20.011719 27.265625 20.59375 27.453125 C 21.160156 27.628906 21.695312 27.699219 22.199219 27.65625 C 22.261719 27.65625 22.339844 27.65625 22.375 27.65625 C 22.40625 27.65625 22.441406 27.65625 22.484375 27.65625 C 22.515625 27.65625 22.546875 27.65625 22.578125 27.65625 C 22.65625 27.65625 22.6875 27.65625 22.765625 27.65625 L 22.828125 27.65625 C 22.871094 27.65625 22.910156 27.65625 22.941406 27.65625 C 23.019531 27.65625 23.082031 27.625 23.113281 27.625 C 23.191406 27.625 23.222656 27.59375 23.300781 27.59375 C 23.414062 27.5625 23.554688 27.515625 23.648438 27.484375 C 23.867188 27.40625 24.089844 27.3125 24.292969 27.234375 C 24.515625 27.128906 24.691406 27.027344 24.828125 26.921875 C 24.875 26.875 24.941406 26.84375 24.972656 26.8125 C 25.160156 26.671875 25.191406 26.421875 25.050781 26.25 C 24.90625 26.109375 24.6875 26.0625 24.515625 26.140625 C 24.484375 26.171875 24.4375 26.171875 24.371094 26.203125 C 24.230469 26.28125 24.042969 26.359375 23.902344 26.390625 C 23.726562 26.421875 23.554688 26.5 23.363281 26.53125 C 23.269531 26.53125 23.191406 26.5625 23.082031 26.5625 C 23.050781 26.5625 22.972656 26.5625 22.941406 26.5625 C 22.910156 26.5625 22.828125 26.5625 22.796875 26.5625 C 22.765625 26.5625 22.6875 26.5625 22.65625 26.5625 C 22.578125 26.5625 22.546875 26.5625 22.484375 26.5625 C 22.484375 26.5625 22.4375 26.5625 22.484375 26.5625 L 22.40625 26.5625 C 22.375 26.5625 22.375 26.5625 22.339844 26.5625 C 22.292969 26.5625 22.230469 26.5625 22.199219 26.53125 C 21.804688 26.453125 21.367188 26.359375 20.972656 26.171875 C 20.59375 26 20.199219 25.75 19.871094 25.4375 C 19.523438 25.109375 19.222656 24.765625 18.988281 24.328125 C 18.734375 23.90625 18.59375 23.453125 18.515625 22.984375 C 18.484375 22.75 18.453125 22.5 18.484375 22.25 C 18.484375 22.175781 18.484375 22.105469 18.484375 22.03125 C 18.484375 22.078125 18.484375 22.03125 18.484375 22.03125 L 18.484375 21.96875 C 18.484375 21.925781 18.484375 21.890625 18.484375 21.859375 C 18.484375 21.71875 18.515625 21.609375 18.546875 21.46875 C 18.734375 20.40625 19.273438 19.390625 20.089844 18.609375 C 20.292969 18.390625 20.515625 18.21875 20.765625 18.078125 C 21.019531 17.902344 21.265625 17.761719 21.507812 17.65625 C 21.757812 17.546875 22.042969 17.4375 22.339844 17.375 C 22.625 17.296875 22.910156 17.21875 23.191406 17.21875 C 23.332031 17.21875 23.476562 17.1875 23.617188 17.1875 C 23.660156 17.1875 23.695312 17.1875 23.726562 17.1875 L 23.902344 17.1875 C 23.949219 17.1875 23.902344 17.1875 23.902344 17.1875 L 24.042969 17.1875 C 24.371094 17.21875 24.6875 17.265625 24.972656 17.328125 C 25.585938 17.46875 26.183594 17.6875 26.765625 18 C 27.898438 18.640625 28.859375 19.59375 29.441406 20.765625 C 29.726562 21.328125 29.929688 21.96875 30.039062 22.640625 C 30.074219 22.8125 30.074219 22.953125 30.121094 23.140625 L 30.121094 23.34375 C 30.121094 23.386719 30.121094 23.421875 30.121094 23.453125 C 30.121094 23.484375 30.121094 23.519531 30.121094 23.5625 L 30.121094 23.765625 C 30.121094 23.84375 30.121094 23.984375 30.121094 24.046875 C 30.121094 24.234375 30.074219 24.40625 30.074219 24.578125 C 30.039062 24.765625 30.039062 24.9375 30.007812 25.109375 C 29.96875 25.285156 29.929688 25.464844 29.898438 25.640625 C 29.835938 26 29.679688 26.3125 29.585938 26.671875 C 29.332031 27.34375 28.96875 27.984375 28.546875 28.546875 C 27.695312 29.71875 26.515625 30.671875 25.191406 31.265625 C 24.515625 31.546875 23.835938 31.796875 23.113281 31.90625 C 22.757812 31.980469 22.398438 32.015625 22.042969 32.015625 L 21.507812 32.015625 C 21.554688 32.015625 21.507812 32.015625 21.507812 32.015625 L 21.476562 32.015625 C 21.300781 32.015625 21.082031 32.015625 20.910156 31.96875 C 20.121094 31.90625 19.382812 31.765625 18.625 31.546875 C 17.878906 31.339844 17.167969 31.058594 16.484375 30.703125 C 15.128906 30 13.917969 28.96875 12.957031 27.796875 C 12.484375 27.203125 12.058594 26.5625 11.699219 25.890625 C 11.351562 25.21875 11.101562 24.515625 10.878906 23.8125 C 10.675781 23.09375 10.566406 22.359375 10.53125 21.609375 L 10.53125 20.796875 C 10.53125 20.6875 10.53125 20.625 10.53125 20.515625 C 10.53125 20.15625 10.566406 19.765625 10.628906 19.390625 C 10.675781 19 10.738281 18.640625 10.816406 18.25 C 10.878906 17.859375 10.988281 17.515625 11.101562 17.125 C 11.304688 16.375 11.554688 15.671875 11.886719 15 C 12.515625 13.65625 13.351562 12.453125 14.3125 11.5 C 14.5625 11.25 14.800781 11.03125 15.097656 10.828125 C 15.195312 10.71875 15.445312 10.5 15.730469 10.328125 C 16.027344 10.15625 16.3125 9.96875 16.625 9.828125 C 16.769531 9.765625 16.910156 9.6875 17.082031 9.625 C 17.160156 9.578125 17.242188 9.546875 17.335938 9.515625 C 17.414062 9.484375 17.476562 9.4375 17.585938 9.40625 C 17.917969 9.265625 18.230469 9.15625 18.546875 9.0625 C 18.625 9.015625 18.734375 9.015625 18.800781 8.984375 C 18.878906 8.953125 18.988281 8.953125 19.050781 8.90625 C 19.222656 8.875 19.382812 8.84375 19.554688 8.765625 C 19.617188 8.734375 19.726562 8.734375 19.808594 8.703125 C 19.871094 8.703125 19.980469 8.671875 20.058594 8.671875 C 20.121094 8.671875 20.230469 8.625 20.292969 8.625 L 20.453125 8.59375 L 20.59375 8.5625 C 20.65625 8.5625 20.765625 8.53125 20.832031 8.53125 C 20.941406 8.53125 21.019531 8.484375 21.128906 8.484375 C 21.191406 8.484375 21.335938 8.453125 21.414062 8.453125 C 21.476562 8.453125 21.507812 8.453125 21.585938 8.421875 L 21.835938 8.421875 C 21.949219 8.421875 22.011719 8.421875 22.121094 8.390625 L 22.261719 8.390625 C 22.261719 8.390625 22.292969 8.390625 22.261719 8.390625 L 22.375 8.390625 C 22.4375 8.390625 22.546875 8.390625 22.625 8.390625 C 22.941406 8.390625 23.261719 8.390625 23.585938 8.390625 C 24.230469 8.421875 24.875 8.484375 25.476562 8.59375 C 26.6875 8.8125 27.867188 9.203125 28.90625 9.734375 C 29.929688 10.21875 30.890625 10.859375 31.679688 11.53125 C 31.726562 11.5625 31.789062 11.609375 31.820312 11.671875 C 31.867188 11.703125 31.929688 11.75 31.960938 11.8125 C 32.070312 11.890625 32.152344 11.984375 32.261719 12.0625 C 32.355469 12.125 32.433594 12.234375 32.542969 12.3125 C 32.605469 12.421875 32.71875 12.484375 32.796875 12.59375 C 33.140625 12.953125 33.472656 13.328125 33.757812 13.6875 C 34.324219 14.4375 34.78125 15.171875 35.140625 15.875 C 35.171875 15.921875 35.171875 15.953125 35.222656 16.03125 C 35.253906 16.0625 35.253906 16.09375 35.285156 16.171875 C 35.316406 16.234375 35.363281 16.34375 35.425781 16.40625 C 35.472656 16.484375 35.503906 16.59375 35.535156 16.65625 C 35.566406 16.734375 35.613281 16.84375 35.644531 16.90625 C 35.789062 17.21875 35.898438 17.546875 36.007812 17.859375 C 36.179688 18.359375 36.292969 18.78125 36.386719 19.140625 C 36.433594 19.28125 36.574219 19.390625 36.714844 19.390625 C 36.890625 19.390625 37 19.25 37 19.0625 C 36.96875 18.640625 36.96875 18.1875 36.921875 17.65625 Z M 36.921875 17.65625 "/>
</g>
</svg>
