<?xml version="1.0" encoding="UTF-8"?>
<svg xmlns="http://www.w3.org/2000/svg" xmlns:xlink="http://www.w3.org/1999/xlink" width="px" height="40px" viewBox="0 0 42 40" version="1.1">
<defs>
<filter id="alpha" filterUnits="objectBoundingBox" x="0%" y="0%" width="100%" height="100%">
  <feColorMatrix type="matrix" in="SourceGraphic" values="0 0 0 0 1 0 0 0 0 1 0 0 0 0 1 0 0 0 1 0"/>
</filter>
<mask id="mask0">
  <g filter="url(#alpha)">
<rect x="0" y="0" width="42" height="40" style="fill:rgb(0%,0%,0%);fill-opacity:0.501961;stroke:none;"/>
  </g>
</mask>
<clipPath id="clip1">
  <rect x="0" y="0" width="42" height="40"/>
</clipPath>
<g id="surface5" clip-path="url(#clip1)">
<path style=" stroke:none;fill-rule:nonzero;fill:rgb(30.588236%,81.960785%,97.254902%);fill-opacity:1;" d="M 1.058594 36.265625 L 30.988281 36.265625 L 30.988281 36.640625 L 1.058594 36.640625 Z M 1.058594 36.265625 "/>
<path style=" stroke:none;fill-rule:nonzero;fill:rgb(30.588236%,81.960785%,97.254902%);fill-opacity:1;" d="M 1.058594 34.78125 L 30.988281 34.78125 L 30.988281 35.15625 L 1.058594 35.15625 Z M 1.058594 34.78125 "/>
<path style=" stroke:none;fill-rule:nonzero;fill:rgb(30.588236%,81.960785%,97.254902%);fill-opacity:1;" d="M 1.058594 33.28125 L 30.988281 33.28125 L 30.988281 33.65625 L 1.058594 33.65625 Z M 1.058594 33.28125 "/>
<path style=" stroke:none;fill-rule:nonzero;fill:rgb(30.588236%,81.960785%,97.254902%);fill-opacity:1;" d="M 1.058594 30.28125 L 30.988281 30.28125 L 30.988281 30.65625 L 1.058594 30.65625 Z M 1.058594 30.28125 "/>
<path style=" stroke:none;fill-rule:nonzero;fill:rgb(30.588236%,81.960785%,97.254902%);fill-opacity:1;" d="M 1.058594 28.78125 L 30.988281 28.78125 L 30.988281 29.15625 L 1.058594 29.15625 Z M 1.058594 28.78125 "/>
<path style=" stroke:none;fill-rule:nonzero;fill:rgb(30.588236%,81.960785%,97.254902%);fill-opacity:1;" d="M 1.058594 27.28125 L 30.988281 27.28125 L 30.988281 27.65625 L 1.058594 27.65625 Z M 1.058594 27.28125 "/>
<path style=" stroke:none;fill-rule:nonzero;fill:rgb(30.588236%,81.960785%,97.254902%);fill-opacity:1;" d="M 1.058594 24.296875 L 30.988281 24.296875 L 30.988281 24.671875 L 1.058594 24.671875 Z M 1.058594 24.296875 "/>
<path style=" stroke:none;fill-rule:nonzero;fill:rgb(30.588236%,81.960785%,97.254902%);fill-opacity:1;" d="M 1.058594 22.796875 L 30.988281 22.796875 L 30.988281 23.171875 L 1.058594 23.171875 Z M 1.058594 22.796875 "/>
<path style=" stroke:none;fill-rule:nonzero;fill:rgb(30.588236%,81.960785%,97.254902%);fill-opacity:1;" d="M 1.058594 21.296875 L 30.988281 21.296875 L 30.988281 21.671875 L 1.058594 21.671875 Z M 1.058594 21.296875 "/>
<path style=" stroke:none;fill-rule:nonzero;fill:rgb(30.588236%,81.960785%,97.254902%);fill-opacity:1;" d="M 1.058594 18.296875 L 30.988281 18.296875 L 30.988281 18.671875 L 1.058594 18.671875 Z M 1.058594 18.296875 "/>
<path style=" stroke:none;fill-rule:nonzero;fill:rgb(30.588236%,81.960785%,97.254902%);fill-opacity:1;" d="M 1.058594 16.796875 L 30.988281 16.796875 L 30.988281 17.171875 L 1.058594 17.171875 Z M 1.058594 16.796875 "/>
<path style=" stroke:none;fill-rule:nonzero;fill:rgb(30.588236%,81.960785%,97.254902%);fill-opacity:1;" d="M 1.058594 15.296875 L 30.988281 15.296875 L 30.988281 15.671875 L 1.058594 15.671875 Z M 1.058594 15.296875 "/>
<path style=" stroke:none;fill-rule:nonzero;fill:rgb(30.588236%,81.960785%,97.254902%);fill-opacity:1;" d="M 1.058594 12.3125 L 30.988281 12.3125 L 30.988281 12.6875 L 1.058594 12.6875 Z M 1.058594 12.3125 "/>
<path style=" stroke:none;fill-rule:nonzero;fill:rgb(30.588236%,81.960785%,97.254902%);fill-opacity:1;" d="M 1.058594 10.8125 L 30.988281 10.8125 L 30.988281 11.1875 L 1.058594 11.1875 Z M 1.058594 10.8125 "/>
<path style=" stroke:none;fill-rule:nonzero;fill:rgb(30.588236%,81.960785%,97.254902%);fill-opacity:1;" d="M 1.058594 9.3125 L 30.988281 9.3125 L 30.988281 9.6875 L 1.058594 9.6875 Z M 1.058594 9.3125 "/>
<path style=" stroke:none;fill-rule:nonzero;fill:rgb(30.588236%,81.960785%,97.254902%);fill-opacity:1;" d="M 1.058594 6.3125 L 30.988281 6.3125 L 30.988281 6.6875 L 1.058594 6.6875 Z M 1.058594 6.3125 "/>
<path style=" stroke:none;fill-rule:nonzero;fill:rgb(30.588236%,81.960785%,97.254902%);fill-opacity:1;" d="M 1.058594 4.8125 L 30.988281 4.8125 L 30.988281 5.1875 L 1.058594 5.1875 Z M 1.058594 4.8125 "/>
<path style=" stroke:none;fill-rule:nonzero;fill:rgb(30.588236%,81.960785%,97.254902%);fill-opacity:1;" d="M 1.058594 3.3125 L 30.988281 3.3125 L 30.988281 3.6875 L 1.058594 3.6875 Z M 1.058594 3.3125 "/>
</g>
<mask id="mask1">
  <g filter="url(#alpha)">
<rect x="0" y="0" width="42" height="40" style="fill:rgb(0%,0%,0%);fill-opacity:0.501961;stroke:none;"/>
  </g>
</mask>
<clipPath id="clip2">
  <rect x="0" y="0" width="42" height="40"/>
</clipPath>
<g id="surface8" clip-path="url(#clip2)">
<path style=" stroke:none;fill-rule:nonzero;fill:rgb(30.588236%,81.960785%,97.254902%);fill-opacity:1;" d="M 29.246094 2 L 29.617188 2 L 29.617188 37.984375 L 29.246094 37.984375 Z M 29.246094 2 "/>
<path style=" stroke:none;fill-rule:nonzero;fill:rgb(30.588236%,81.960785%,97.254902%);fill-opacity:1;" d="M 27.75 2 L 28.125 2 L 28.125 37.984375 L 27.75 37.984375 Z M 27.75 2 "/>
<path style=" stroke:none;fill-rule:nonzero;fill:rgb(30.588236%,81.960785%,97.254902%);fill-opacity:1;" d="M 26.257812 2 L 26.632812 2 L 26.632812 37.984375 L 26.257812 37.984375 Z M 26.257812 2 "/>
<path style=" stroke:none;fill-rule:nonzero;fill:rgb(30.588236%,81.960785%,97.254902%);fill-opacity:1;" d="M 23.269531 2 L 23.644531 2 L 23.644531 37.984375 L 23.269531 37.984375 Z M 23.269531 2 "/>
<path style=" stroke:none;fill-rule:nonzero;fill:rgb(30.588236%,81.960785%,97.254902%);fill-opacity:1;" d="M 21.777344 2 L 22.152344 2 L 22.152344 37.984375 L 21.777344 37.984375 Z M 21.777344 2 "/>
<path style=" stroke:none;fill-rule:nonzero;fill:rgb(30.588236%,81.960785%,97.254902%);fill-opacity:1;" d="M 20.285156 2 L 20.65625 2 L 20.65625 37.984375 L 20.285156 37.984375 Z M 20.285156 2 "/>
<path style=" stroke:none;fill-rule:nonzero;fill:rgb(30.588236%,81.960785%,97.254902%);fill-opacity:1;" d="M 17.296875 2 L 17.671875 2 L 17.671875 37.984375 L 17.296875 37.984375 Z M 17.296875 2 "/>
<path style=" stroke:none;fill-rule:nonzero;fill:rgb(30.588236%,81.960785%,97.254902%);fill-opacity:1;" d="M 15.804688 2 L 16.179688 2 L 16.179688 37.984375 L 15.804688 37.984375 Z M 15.804688 2 "/>
<path style=" stroke:none;fill-rule:nonzero;fill:rgb(30.588236%,81.960785%,97.254902%);fill-opacity:1;" d="M 14.3125 2 L 14.683594 2 L 14.683594 37.984375 L 14.3125 37.984375 Z M 14.3125 2 "/>
<path style=" stroke:none;fill-rule:nonzero;fill:rgb(30.588236%,81.960785%,97.254902%);fill-opacity:1;" d="M 11.324219 2 L 11.699219 2 L 11.699219 37.984375 L 11.324219 37.984375 Z M 11.324219 2 "/>
<path style=" stroke:none;fill-rule:nonzero;fill:rgb(30.588236%,81.960785%,97.254902%);fill-opacity:1;" d="M 9.832031 2 L 10.203125 2 L 10.203125 37.984375 L 9.832031 37.984375 Z M 9.832031 2 "/>
<path style=" stroke:none;fill-rule:nonzero;fill:rgb(30.588236%,81.960785%,97.254902%);fill-opacity:1;" d="M 8.335938 2 L 8.710938 2 L 8.710938 37.984375 L 8.335938 37.984375 Z M 8.335938 2 "/>
<path style=" stroke:none;fill-rule:nonzero;fill:rgb(30.588236%,81.960785%,97.254902%);fill-opacity:1;" d="M 5.351562 2 L 5.722656 2 L 5.722656 37.984375 L 5.351562 37.984375 Z M 5.351562 2 "/>
<path style=" stroke:none;fill-rule:nonzero;fill:rgb(30.588236%,81.960785%,97.254902%);fill-opacity:1;" d="M 3.859375 2 L 4.230469 2 L 4.230469 37.984375 L 3.859375 37.984375 Z M 3.859375 2 "/>
<path style=" stroke:none;fill-rule:nonzero;fill:rgb(30.588236%,81.960785%,97.254902%);fill-opacity:1;" d="M 2.363281 2 L 2.738281 2 L 2.738281 37.984375 L 2.363281 37.984375 Z M 2.363281 2 "/>
</g>
</defs>
<g id="surface1">
<path style=" stroke:none;fill-rule:nonzero;fill:rgb(90.196079%,90.196079%,90.196079%);fill-opacity:1;" d="M 31.949219 39.890625 L 0.046875 39.890625 L 0.046875 0.109375 L 31.949219 0.109375 Z M 31.949219 39.890625 "/>
<path style=" stroke:none;fill-rule:nonzero;fill:rgb(30.588236%,81.960785%,97.254902%);fill-opacity:1;" d="M 1.058594 1.828125 L 30.988281 1.828125 L 30.988281 2.203125 L 1.058594 2.203125 Z M 1.058594 1.828125 "/>
<path style=" stroke:none;fill-rule:nonzero;fill:rgb(30.588236%,81.960785%,97.254902%);fill-opacity:1;" d="M 1.058594 7.8125 L 30.988281 7.8125 L 30.988281 8.1875 L 1.058594 8.1875 Z M 1.058594 7.8125 "/>
<path style=" stroke:none;fill-rule:nonzero;fill:rgb(30.588236%,81.960785%,97.254902%);fill-opacity:1;" d="M 1.058594 13.796875 L 30.988281 13.796875 L 30.988281 14.171875 L 1.058594 14.171875 Z M 1.058594 13.796875 "/>
<path style=" stroke:none;fill-rule:nonzero;fill:rgb(30.588236%,81.960785%,97.254902%);fill-opacity:1;" d="M 1.058594 19.796875 L 30.988281 19.796875 L 30.988281 20.171875 L 1.058594 20.171875 Z M 1.058594 19.796875 "/>
<path style=" stroke:none;fill-rule:nonzero;fill:rgb(30.588236%,81.960785%,97.254902%);fill-opacity:1;" d="M 1.058594 25.78125 L 30.988281 25.78125 L 30.988281 26.15625 L 1.058594 26.15625 Z M 1.058594 25.78125 "/>
<path style=" stroke:none;fill-rule:nonzero;fill:rgb(30.588236%,81.960785%,97.254902%);fill-opacity:1;" d="M 1.058594 31.78125 L 30.988281 31.78125 L 30.988281 32.15625 L 1.058594 32.15625 Z M 1.058594 31.78125 "/>
<path style=" stroke:none;fill-rule:nonzero;fill:rgb(30.588236%,81.960785%,97.254902%);fill-opacity:1;" d="M 1.058594 37.765625 L 30.988281 37.765625 L 30.988281 38.140625 L 1.058594 38.140625 Z M 1.058594 37.765625 "/>
<path style=" stroke:none;fill-rule:nonzero;fill:rgb(30.588236%,81.960785%,97.254902%);fill-opacity:1;" d="M 0.871094 1.828125 L 1.246094 1.828125 L 1.246094 38.140625 L 0.871094 38.140625 Z M 0.871094 1.828125 "/>
<path style=" stroke:none;fill-rule:nonzero;fill:rgb(30.588236%,81.960785%,97.254902%);fill-opacity:1;" d="M 6.84375 2 L 7.21875 2 L 7.21875 37.984375 L 6.84375 37.984375 Z M 6.84375 2 "/>
<path style=" stroke:none;fill-rule:nonzero;fill:rgb(30.588236%,81.960785%,97.254902%);fill-opacity:1;" d="M 12.816406 2 L 13.191406 2 L 13.191406 37.984375 L 12.816406 37.984375 Z M 12.816406 2 "/>
<path style=" stroke:none;fill-rule:nonzero;fill:rgb(30.588236%,81.960785%,97.254902%);fill-opacity:1;" d="M 18.792969 2 L 19.164062 2 L 19.164062 37.984375 L 18.792969 37.984375 Z M 18.792969 2 "/>
<path style=" stroke:none;fill-rule:nonzero;fill:rgb(30.588236%,81.960785%,97.254902%);fill-opacity:1;" d="M 24.765625 2 L 25.136719 2 L 25.136719 37.984375 L 24.765625 37.984375 Z M 24.765625 2 "/>
<path style=" stroke:none;fill-rule:nonzero;fill:rgb(30.588236%,81.960785%,97.254902%);fill-opacity:1;" d="M 30.738281 1.828125 L 31.109375 1.828125 L 31.109375 38.140625 L 30.738281 38.140625 Z M 30.738281 1.828125 "/>
<use xlink:href="#surface5" mask="url(#mask0)"/>
<use xlink:href="#surface8" mask="url(#mask1)"/>
<path style=" stroke:none;fill-rule:evenodd;fill:rgb(39.607844%,39.607844%,39.607844%);fill-opacity:1;" d="M 16.441406 10.015625 C 13.175781 10.015625 10.59375 8.21875 10.515625 5.8125 C 10.515625 5.480469 10.550781 5.15625 10.625 4.84375 C 10.707031 4.519531 10.828125 4.21875 10.980469 3.9375 C 11.136719 3.644531 11.324219 3.378906 11.542969 3.140625 C 11.761719 2.902344 12.007812 2.691406 12.289062 2.515625 C 12.589844 2.296875 12.90625 2.105469 13.238281 1.9375 C 13.570312 1.769531 13.910156 1.628906 14.265625 1.515625 C 14.617188 1.402344 14.980469 1.3125 15.351562 1.25 C 15.714844 1.1875 16.085938 1.152344 16.457031 1.140625 C 16.820312 1.121094 17.1875 1.125 17.5625 1.15625 C 17.9375 1.199219 18.304688 1.261719 18.667969 1.34375 C 19.019531 1.4375 19.371094 1.558594 19.722656 1.703125 C 20.066406 1.839844 20.394531 2.003906 20.703125 2.203125 C 20.996094 2.359375 21.257812 2.546875 21.496094 2.765625 C 21.734375 2.996094 21.945312 3.246094 22.121094 3.515625 C 22.296875 3.796875 22.4375 4.089844 22.539062 4.390625 C 22.632812 4.703125 22.695312 5.027344 22.726562 5.359375 C 22.820312 7.84375 20.207031 9.890625 16.769531 10.015625 C 16.664062 10.015625 16.554688 10.015625 16.441406 10.015625 Z M 16.785156 2.640625 C 16.691406 2.640625 16.597656 2.640625 16.503906 2.640625 C 16.214844 2.640625 15.917969 2.667969 15.617188 2.71875 C 15.328125 2.761719 15.042969 2.828125 14.761719 2.921875 C 14.480469 3.015625 14.207031 3.128906 13.9375 3.265625 C 13.667969 3.390625 13.414062 3.535156 13.175781 3.703125 C 13 3.816406 12.839844 3.949219 12.691406 4.09375 C 12.558594 4.238281 12.4375 4.402344 12.335938 4.578125 C 12.230469 4.753906 12.152344 4.941406 12.101562 5.140625 C 12.039062 5.339844 12.007812 5.542969 12.007812 5.75 C 12.054688 7.34375 14.21875 8.609375 16.738281 8.515625 C 19.242188 8.4375 21.296875 7 21.234375 5.40625 C 21.210938 5.199219 21.164062 5 21.09375 4.8125 C 21.019531 4.613281 20.925781 4.433594 20.8125 4.265625 C 20.699219 4.097656 20.570312 3.949219 20.425781 3.8125 C 20.269531 3.675781 20.097656 3.5625 19.910156 3.46875 C 19.683594 3.324219 19.4375 3.199219 19.179688 3.09375 C 18.929688 2.988281 18.671875 2.902344 18.402344 2.828125 C 18.144531 2.753906 17.875 2.703125 17.59375 2.671875 C 17.324219 2.640625 17.054688 2.628906 16.785156 2.640625 Z M 16.785156 2.640625 "/>
<path style=" stroke:none;fill-rule:evenodd;fill:rgb(39.607844%,39.607844%,39.607844%);fill-opacity:1;" d="M 7.09375 38.859375 C 6.75 38.871094 6.410156 38.855469 6.066406 38.8125 C 5.714844 38.761719 5.371094 38.691406 5.039062 38.609375 C 4.707031 38.515625 4.382812 38.402344 4.058594 38.265625 C 3.738281 38.121094 3.433594 37.957031 3.140625 37.78125 C 2.851562 37.625 2.585938 37.433594 2.347656 37.203125 C 2.121094 36.972656 1.917969 36.722656 1.742188 36.453125 C 1.566406 36.171875 1.425781 35.878906 1.320312 35.578125 C 1.21875 35.265625 1.15625 34.941406 1.136719 34.609375 C 1.058594 32.125 3.6875 30.09375 7.109375 29.984375 C 10.515625 29.875 13.269531 31.734375 13.347656 34.234375 C 13.347656 34.558594 13.304688 34.875 13.222656 35.1875 C 13.148438 35.511719 13.03125 35.8125 12.863281 36.09375 C 12.707031 36.386719 12.523438 36.652344 12.304688 36.890625 C 12.078125 37.128906 11.828125 37.339844 11.558594 37.515625 C 11.257812 37.722656 10.941406 37.910156 10.609375 38.078125 C 10.265625 38.246094 9.917969 38.386719 9.566406 38.5 C 9.214844 38.613281 8.855469 38.703125 8.492188 38.765625 C 8.128906 38.828125 7.761719 38.859375 7.390625 38.859375 C 7.296875 38.859375 7.195312 38.859375 7.09375 38.859375 Z M 7.359375 31.484375 L 7.140625 31.484375 C 4.636719 31.5625 2.566406 32.96875 2.613281 34.5625 C 2.644531 34.769531 2.691406 34.96875 2.753906 35.15625 C 2.824219 35.355469 2.917969 35.535156 3.035156 35.703125 C 3.148438 35.878906 3.28125 36.035156 3.4375 36.171875 C 3.582031 36.308594 3.75 36.421875 3.9375 36.515625 C 4.183594 36.671875 4.449219 36.808594 4.730469 36.921875 C 5 37.035156 5.277344 37.125 5.570312 37.1875 C 5.859375 37.261719 6.148438 37.3125 6.441406 37.34375 C 6.742188 37.375 7.035156 37.378906 7.328125 37.359375 C 7.628906 37.359375 7.921875 37.332031 8.214844 37.28125 C 8.503906 37.238281 8.789062 37.171875 9.070312 37.078125 C 9.359375 36.996094 9.632812 36.886719 9.894531 36.75 C 10.164062 36.625 10.421875 36.472656 10.671875 36.296875 C 10.847656 36.191406 11.003906 36.066406 11.136719 35.921875 C 11.28125 35.777344 11.40625 35.613281 11.511719 35.4375 C 11.613281 35.261719 11.691406 35.074219 11.746094 34.875 C 11.808594 34.675781 11.84375 34.472656 11.851562 34.265625 C 11.808594 32.734375 9.785156 31.484375 7.359375 31.484375 Z M 7.359375 31.484375 "/>
<path style=" stroke:none;fill-rule:evenodd;fill:rgb(39.607844%,39.607844%,39.607844%);fill-opacity:1;" d="M 25.308594 38.828125 C 24.964844 38.839844 24.625 38.824219 24.28125 38.78125 C 23.929688 38.738281 23.585938 38.671875 23.253906 38.578125 C 22.914062 38.484375 22.582031 38.371094 22.261719 38.234375 C 21.949219 38.097656 21.644531 37.9375 21.34375 37.75 C 21.0625 37.59375 20.804688 37.402344 20.5625 37.171875 C 20.324219 36.953125 20.117188 36.703125 19.941406 36.421875 C 19.765625 36.152344 19.625 35.859375 19.523438 35.546875 C 19.429688 35.234375 19.371094 34.917969 19.351562 34.59375 C 19.273438 32.09375 21.886719 30.0625 25.308594 29.953125 C 25.683594 29.933594 26.054688 29.941406 26.429688 29.984375 C 26.792969 30.015625 27.15625 30.078125 27.519531 30.171875 C 27.878906 30.265625 28.234375 30.386719 28.574219 30.53125 C 28.917969 30.667969 29.246094 30.832031 29.554688 31.03125 C 30.148438 31.328125 30.644531 31.78125 30.988281 32.34375 C 31.34375 32.90625 31.53125 33.546875 31.5625 34.203125 C 31.578125 34.859375 31.421875 35.515625 31.109375 36.09375 C 30.785156 36.671875 30.332031 37.140625 29.757812 37.484375 C 29.457031 37.703125 29.140625 37.890625 28.808594 38.046875 C 28.476562 38.214844 28.136719 38.355469 27.78125 38.46875 C 27.417969 38.582031 27.054688 38.671875 26.691406 38.734375 C 26.332031 38.796875 25.960938 38.828125 25.589844 38.828125 C 25.496094 38.828125 25.402344 38.828125 25.308594 38.828125 Z M 20.84375 34.546875 C 20.863281 34.746094 20.90625 34.941406 20.96875 35.140625 C 21.042969 35.328125 21.136719 35.503906 21.25 35.671875 C 21.363281 35.847656 21.496094 36.003906 21.652344 36.140625 C 21.796875 36.277344 21.964844 36.390625 22.152344 36.484375 C 22.664062 36.78125 23.207031 37 23.785156 37.140625 C 24.359375 37.296875 24.949219 37.359375 25.542969 37.328125 C 26.132812 37.3125 26.722656 37.21875 27.285156 37.03125 C 27.859375 36.859375 28.390625 36.609375 28.886719 36.28125 C 29.246094 36.078125 29.554688 35.796875 29.757812 35.4375 C 29.976562 35.078125 30.070312 34.65625 30.070312 34.25 C 30.054688 33.828125 29.914062 33.4375 29.695312 33.09375 C 29.460938 32.75 29.136719 32.46875 28.761719 32.296875 C 28.503906 32.152344 28.238281 32.019531 27.96875 31.90625 C 27.6875 31.792969 27.410156 31.699219 27.128906 31.625 C 26.839844 31.550781 26.542969 31.5 26.242188 31.46875 C 25.953125 31.449219 25.65625 31.441406 25.355469 31.453125 C 22.867188 31.53125 20.78125 32.953125 20.84375 34.546875 Z M 20.84375 34.546875 "/>
<path style=" stroke:none;fill-rule:nonzero;fill:rgb(39.607844%,39.607844%,39.607844%);fill-opacity:1;" d="M 6.8125 30.625 C 6.75 28.828125 6.8125 27.046875 7 25.265625 C 7.1875 23.484375 7.496094 21.71875 7.917969 19.984375 C 8.351562 18.234375 8.898438 16.53125 9.550781 14.875 C 10.21875 13.203125 10.980469 11.59375 11.867188 10.03125 L 12.847656 10.59375 C 11.992188 12.109375 11.230469 13.671875 10.59375 15.28125 C 9.957031 16.90625 9.425781 18.5625 9.007812 20.25 C 8.585938 21.9375 8.292969 23.640625 8.105469 25.375 C 7.933594 27.109375 7.871094 28.84375 7.933594 30.578125 Z M 6.8125 30.625 "/>
<path style=" stroke:none;fill-rule:nonzero;fill:rgb(39.607844%,39.607844%,39.607844%);fill-opacity:1;" d="M 13.410156 8.578125 C 13.355469 8.847656 13.316406 9.121094 13.285156 9.390625 C 13.253906 9.671875 13.234375 9.949219 13.222656 10.21875 C 13.210938 10.488281 13.210938 10.765625 13.222656 11.046875 C 13.242188 11.316406 13.269531 11.59375 13.300781 11.875 L 12.226562 10.546875 L 10.5625 10.21875 C 10.820312 10.125 11.074219 10.019531 11.324219 9.90625 C 11.574219 9.78125 11.816406 9.652344 12.054688 9.515625 C 12.292969 9.378906 12.527344 9.234375 12.753906 9.078125 C 12.972656 8.921875 13.191406 8.753906 13.410156 8.578125 Z M 13.410156 8.578125 "/>
<path style=" stroke:none;fill-rule:nonzero;fill:rgb(39.607844%,39.607844%,39.607844%);fill-opacity:1;" d="M 26.148438 30.625 L 25.042969 30.578125 C 25.074219 29.640625 25.070312 28.699219 25.027344 27.75 C 24.988281 26.8125 24.914062 25.875 24.8125 24.9375 C 24.695312 24 24.550781 23.066406 24.375 22.140625 C 24.199219 21.214844 23.988281 20.296875 23.738281 19.390625 C 23.53125 18.621094 23.300781 17.859375 23.054688 17.109375 C 22.792969 16.347656 22.515625 15.605469 22.214844 14.875 C 21.914062 14.136719 21.585938 13.410156 21.234375 12.703125 C 20.890625 11.984375 20.523438 11.28125 20.128906 10.59375 L 21.09375 10.03125 C 21.496094 10.75 21.882812 11.472656 22.246094 12.203125 C 22.597656 12.941406 22.929688 13.691406 23.238281 14.453125 C 23.550781 15.203125 23.839844 15.96875 24.109375 16.75 C 24.371094 17.519531 24.609375 18.300781 24.828125 19.09375 C 25.074219 20.03125 25.292969 20.972656 25.480469 21.921875 C 25.667969 22.878906 25.8125 23.84375 25.914062 24.8125 C 26.03125 25.769531 26.105469 26.734375 26.148438 27.703125 C 26.191406 28.683594 26.191406 29.65625 26.148438 30.625 Z M 26.148438 30.625 "/>
<path style=" stroke:none;fill-rule:nonzero;fill:rgb(39.607844%,39.607844%,39.607844%);fill-opacity:1;" d="M 19.570312 8.578125 C 19.777344 8.753906 19.992188 8.921875 20.222656 9.078125 C 20.449219 9.234375 20.683594 9.378906 20.921875 9.515625 C 21.160156 9.652344 21.40625 9.78125 21.652344 9.90625 C 21.902344 10.019531 22.15625 10.125 22.414062 10.21875 L 20.75 10.546875 L 19.679688 11.875 C 19.707031 11.59375 19.730469 11.316406 19.738281 11.046875 C 19.761719 10.765625 19.765625 10.488281 19.753906 10.21875 C 19.746094 9.9375 19.722656 9.660156 19.691406 9.390625 C 19.664062 9.121094 19.621094 8.847656 19.570312 8.578125 Z M 19.570312 8.578125 "/>
<path style=" stroke:none;fill-rule:nonzero;fill:rgb(39.607844%,39.607844%,39.607844%);fill-opacity:1;" d="M 16.007812 14.453125 L 16.085938 9.453125 L 17.203125 9.46875 L 17.125 14.46875 Z M 16.007812 14.453125 "/>
<path style=" stroke:none;fill-rule:nonzero;fill:rgb(39.607844%,39.607844%,39.607844%);fill-opacity:1;" d="M 16.519531 16.484375 C 16.4375 16.222656 16.339844 15.96875 16.222656 15.71875 C 16.109375 15.46875 15.992188 15.21875 15.867188 14.96875 C 15.730469 14.730469 15.59375 14.496094 15.445312 14.265625 C 15.292969 14.027344 15.128906 13.796875 14.964844 13.578125 L 16.550781 14.1875 L 18.167969 13.640625 C 17.992188 13.847656 17.828125 14.066406 17.671875 14.296875 C 17.515625 14.527344 17.371094 14.761719 17.234375 15 C 17.089844 15.238281 16.960938 15.484375 16.847656 15.734375 C 16.734375 15.984375 16.625 16.234375 16.519531 16.484375 Z M 16.519531 16.484375 "/>
<path style=" stroke:none;fill-rule:nonzero;fill:rgb(39.607844%,39.607844%,39.607844%);fill-opacity:1;" d="M 10.1875 28.90625 L 13.796875 23.203125 L 14.746094 23.8125 L 11.136719 29.515625 Z M 10.1875 28.90625 "/>
<path style=" stroke:none;fill-rule:nonzero;fill:rgb(39.607844%,39.607844%,39.607844%);fill-opacity:1;" d="M 9.582031 30.921875 C 9.632812 30.660156 9.679688 30.390625 9.722656 30.109375 C 9.765625 29.839844 9.789062 29.566406 9.800781 29.296875 C 9.820312 29.015625 9.824219 28.738281 9.816406 28.46875 C 9.804688 28.1875 9.789062 27.910156 9.769531 27.640625 L 10.796875 28.984375 L 12.460938 29.359375 C 12.199219 29.441406 11.945312 29.542969 11.699219 29.65625 C 11.449219 29.769531 11.199219 29.894531 10.949219 30.03125 C 10.710938 30.15625 10.480469 30.296875 10.25 30.453125 C 10.011719 30.597656 9.789062 30.753906 9.582031 30.921875 Z M 9.582031 30.921875 "/>
<path style=" stroke:none;fill-rule:nonzero;fill:rgb(39.607844%,39.607844%,39.607844%);fill-opacity:1;" d="M 18.167969 23.6875 L 19.132812 23.109375 L 22.695312 29.125 L 21.730469 29.703125 Z M 18.167969 23.6875 "/>
<path style=" stroke:none;fill-rule:nonzero;fill:rgb(39.607844%,39.607844%,39.607844%);fill-opacity:1;" d="M 23.238281 31.15625 C 23.03125 30.980469 22.816406 30.8125 22.585938 30.65625 C 22.359375 30.5 22.125 30.355469 21.886719 30.21875 C 21.660156 30.074219 21.421875 29.941406 21.171875 29.828125 C 20.921875 29.703125 20.667969 29.59375 20.410156 29.5 L 22.074219 29.1875 L 23.164062 27.859375 C 23.121094 28.140625 23.09375 28.417969 23.085938 28.6875 C 23.0625 28.957031 23.058594 29.234375 23.070312 29.515625 C 23.078125 29.785156 23.101562 30.0625 23.132812 30.34375 C 23.152344 30.613281 23.1875 30.886719 23.238281 31.15625 Z M 23.238281 31.15625 "/>
<path style=" stroke:none;fill-rule:nonzero;fill:rgb(39.607844%,39.607844%,39.607844%);fill-opacity:1;" d="M 16.488281 24.4375 C 16.136719 24.449219 15.789062 24.425781 15.445312 24.375 C 15.09375 24.332031 14.75 24.269531 14.421875 24.1875 C 14.078125 24.09375 13.75 23.972656 13.441406 23.828125 C 13.117188 23.691406 12.808594 23.535156 12.507812 23.359375 C 12.226562 23.191406 11.96875 23 11.730469 22.78125 C 11.492188 22.550781 11.28125 22.300781 11.105469 22.03125 C 10.929688 21.75 10.796875 21.453125 10.703125 21.140625 C 10.597656 20.828125 10.535156 20.511719 10.515625 20.1875 C 10.515625 19.863281 10.558594 19.542969 10.640625 19.21875 C 10.722656 18.90625 10.84375 18.605469 10.996094 18.3125 C 11.152344 18.03125 11.339844 17.769531 11.558594 17.53125 C 11.785156 17.292969 12.035156 17.082031 12.304688 16.90625 C 12.605469 16.6875 12.921875 16.5 13.253906 16.34375 C 13.59375 16.175781 13.941406 16.035156 14.296875 15.921875 C 14.648438 15.808594 15.007812 15.71875 15.367188 15.65625 C 15.742188 15.59375 16.109375 15.5625 16.472656 15.5625 C 16.734375 15.550781 16.992188 15.558594 17.25 15.578125 C 17.5 15.589844 17.753906 15.613281 18.011719 15.65625 C 18.261719 15.699219 18.511719 15.746094 18.761719 15.796875 C 19.007812 15.859375 19.257812 15.925781 19.507812 16 L 19.023438 17.421875 C 18.828125 17.359375 18.625 17.300781 18.417969 17.25 C 18.210938 17.207031 18.003906 17.171875 17.796875 17.140625 C 17.589844 17.109375 17.375 17.082031 17.15625 17.0625 C 16.949219 17.050781 16.738281 17.046875 16.519531 17.046875 C 16.230469 17.058594 15.9375 17.082031 15.648438 17.125 C 15.347656 17.175781 15.058594 17.246094 14.777344 17.328125 C 14.496094 17.421875 14.222656 17.53125 13.953125 17.65625 C 13.683594 17.792969 13.429688 17.941406 13.191406 18.109375 C 13.015625 18.214844 12.855469 18.339844 12.707031 18.484375 C 12.5625 18.628906 12.4375 18.792969 12.335938 18.96875 C 12.242188 19.144531 12.164062 19.332031 12.101562 19.53125 C 12.039062 19.730469 12.007812 19.933594 12.007812 20.140625 C 12.03125 20.339844 12.070312 20.535156 12.132812 20.734375 C 12.207031 20.933594 12.300781 21.113281 12.414062 21.28125 C 12.527344 21.449219 12.664062 21.597656 12.816406 21.734375 C 12.964844 21.878906 13.128906 22 13.316406 22.09375 C 13.5625 22.238281 13.828125 22.371094 14.109375 22.484375 C 14.378906 22.597656 14.660156 22.691406 14.949219 22.765625 C 15.238281 22.839844 15.53125 22.890625 15.820312 22.921875 C 16.121094 22.941406 16.417969 22.949219 16.707031 22.9375 C 16.914062 22.917969 17.117188 22.890625 17.3125 22.859375 C 17.519531 22.839844 17.722656 22.800781 17.921875 22.75 C 18.117188 22.707031 18.3125 22.65625 18.511719 22.59375 C 18.707031 22.542969 18.898438 22.472656 19.085938 22.390625 L 19.632812 23.796875 C 19.394531 23.878906 19.160156 23.957031 18.929688 24.03125 C 18.691406 24.105469 18.453125 24.167969 18.214844 24.21875 C 17.976562 24.269531 17.738281 24.316406 17.5 24.359375 C 17.25 24.390625 17.003906 24.417969 16.753906 24.4375 C 16.660156 24.4375 16.570312 24.4375 16.488281 24.4375 Z M 16.488281 24.4375 "/>
<path style=" stroke:none;fill-rule:nonzero;fill:rgb(39.607844%,39.607844%,39.607844%);fill-opacity:1;" d="M 19.894531 15.5625 C 19.738281 15.730469 19.59375 15.902344 19.460938 16.078125 C 19.316406 16.253906 19.183594 16.441406 19.070312 16.640625 C 18.957031 16.828125 18.851562 17.027344 18.761719 17.234375 C 18.65625 17.441406 18.574219 17.652344 18.511719 17.859375 C 18.746094 18.140625 18.945312 18.453125 19.070312 18.796875 C 19.210938 19.140625 19.273438 19.5 19.273438 19.859375 C 19.273438 20.234375 19.195312 20.59375 19.070312 20.9375 C 18.929688 21.265625 18.730469 21.578125 18.480469 21.859375 C 18.550781 22.066406 18.636719 22.269531 18.730469 22.46875 C 18.832031 22.675781 18.941406 22.875 19.054688 23.0625 C 19.167969 23.25 19.292969 23.433594 19.429688 23.609375 C 19.574219 23.785156 19.71875 23.957031 19.863281 24.125 C 20.488281 23.609375 21 22.96875 21.34375 22.234375 C 21.683594 21.5 21.871094 20.703125 21.886719 19.90625 C 21.902344 19.09375 21.730469 18.296875 21.40625 17.546875 C 21.078125 16.8125 20.59375 16.15625 19.988281 15.625 C 19.957031 15.59375 19.925781 15.59375 19.894531 15.5625 Z M 19.894531 15.5625 "/>
<path style=" stroke:none;fill-rule:nonzero;fill:rgb(39.607844%,39.607844%,39.607844%);fill-opacity:1;" d="M 25.699219 18.96875 C 25.574219 18.519531 25.445312 18.074219 25.308594 17.625 C 25.175781 17.175781 25.035156 16.730469 24.890625 16.28125 C 24.742188 15.84375 24.589844 15.40625 24.421875 14.96875 C 24.257812 14.53125 24.085938 14.09375 23.910156 13.65625 C 23.679688 13.675781 23.457031 13.703125 23.238281 13.734375 C 23.03125 13.777344 22.820312 13.828125 22.601562 13.890625 C 22.394531 13.953125 22.1875 14.027344 21.980469 14.109375 C 21.773438 14.191406 21.574219 14.285156 21.390625 14.390625 C 21.566406 14.816406 21.734375 15.246094 21.902344 15.671875 C 22.066406 16.109375 22.222656 16.546875 22.367188 16.984375 C 22.515625 17.410156 22.652344 17.847656 22.789062 18.296875 C 22.921875 18.734375 23.046875 19.175781 23.164062 19.625 C 23.296875 20.15625 23.417969 20.6875 23.519531 21.21875 C 23.632812 21.75 23.734375 22.285156 23.816406 22.828125 C 23.910156 23.359375 23.988281 23.894531 24.050781 24.4375 C 24.109375 24.980469 24.164062 25.519531 24.203125 26.0625 C 24.421875 26.074219 24.640625 26.066406 24.859375 26.046875 C 25.085938 26.027344 25.304688 25.996094 25.511719 25.953125 C 25.730469 25.910156 25.945312 25.859375 26.164062 25.796875 C 26.371094 25.734375 26.578125 25.65625 26.785156 25.5625 C 26.746094 25.011719 26.6875 24.457031 26.617188 23.90625 C 26.542969 23.355469 26.464844 22.800781 26.382812 22.25 C 26.289062 21.699219 26.183594 21.152344 26.070312 20.609375 C 25.957031 20.058594 25.832031 19.511719 25.699219 18.96875 Z M 25.699219 18.96875 "/>
<path style=" stroke:none;fill-rule:evenodd;fill:rgb(17.254902%,16.078432%,15.686275%);fill-opacity:1;" d="M 23.191406 13.71875 C 24.003906 13.5625 24.828125 13.5625 25.636719 13.734375 C 26.445312 13.90625 27.222656 14.234375 27.90625 14.703125 C 28.574219 15.15625 29.167969 15.75 29.617188 16.453125 C 31.019531 18.578125 31.003906 21.34375 29.570312 23.453125 C 28.140625 25.5625 25.589844 26.59375 23.101562 26.078125 C 20.609375 25.5625 18.667969 23.59375 18.199219 21.09375 C 17.71875 18.59375 18.792969 16.046875 20.921875 14.640625 C 21.605469 14.1875 22.382812 13.875 23.191406 13.71875 Z M 29.445312 23.375 C 29.898438 22.703125 30.207031 21.953125 30.378906 21.15625 C 30.550781 20.359375 30.550781 19.546875 30.394531 18.75 C 30.253906 17.953125 29.945312 17.1875 29.492188 16.515625 C 28.140625 14.421875 25.652344 13.359375 23.207031 13.828125 C 20.75 14.296875 18.835938 16.203125 18.324219 18.640625 C 17.828125 21.09375 18.835938 23.59375 20.890625 25 C 22.945312 26.40625 25.652344 26.421875 27.734375 25.0625 C 28.40625 24.609375 28.996094 24.046875 29.445312 23.375 Z M 29.445312 23.375 "/>
<path style=" stroke:none;fill-rule:nonzero;fill:rgb(15.686275%,15.686275%,15.686275%);fill-opacity:1;" d="M 29.214844 24.53125 C 29.203125 24.5 29.1875 24.46875 29.167969 24.4375 C 29.144531 24.417969 29.121094 24.390625 29.089844 24.359375 C 29.066406 24.339844 29.046875 24.316406 29.027344 24.296875 C 28.996094 24.277344 28.96875 24.253906 28.949219 24.234375 C 28.90625 24.265625 28.867188 24.300781 28.824219 24.34375 C 28.792969 24.386719 28.757812 24.425781 28.714844 24.46875 C 28.675781 24.5 28.632812 24.535156 28.589844 24.578125 C 28.550781 24.609375 28.507812 24.644531 28.464844 24.6875 C 28.425781 24.730469 28.378906 24.769531 28.328125 24.8125 C 28.273438 24.855469 28.222656 24.894531 28.171875 24.9375 C 28.121094 24.96875 28.0625 25.003906 28 25.046875 C 27.949219 25.089844 27.894531 25.125 27.84375 25.15625 C 27.742188 25.230469 27.632812 25.296875 27.519531 25.359375 C 27.414062 25.421875 27.304688 25.480469 27.191406 25.53125 C 27.085938 25.59375 26.980469 25.652344 26.863281 25.703125 C 26.75 25.746094 26.632812 25.792969 26.507812 25.84375 C 26.515625 25.855469 26.523438 25.863281 26.523438 25.875 C 26.523438 25.886719 26.523438 25.894531 26.523438 25.90625 C 26.53125 25.917969 26.539062 25.925781 26.539062 25.9375 C 26.546875 25.957031 26.554688 25.972656 26.554688 25.984375 C 26.5625 25.996094 26.570312 26.003906 26.570312 26.015625 C 26.578125 26.027344 26.585938 26.035156 26.585938 26.046875 C 26.59375 26.058594 26.601562 26.066406 26.601562 26.078125 C 26.609375 26.089844 26.617188 26.097656 26.617188 26.109375 L 27.316406 27.25 L 29.898438 25.65625 Z M 29.214844 24.53125 "/>
<path style=" stroke:none;fill-rule:nonzero;fill:rgb(15.686275%,15.686275%,15.686275%);fill-opacity:1;" d="M 27.550781 27.640625 L 30.148438 26.046875 L 30.472656 26.578125 L 27.875 28.171875 Z M 27.550781 27.640625 "/>
<path style=" stroke:none;fill-rule:nonzero;fill:rgb(15.686275%,15.686275%,15.686275%);fill-opacity:1;" d="M 28.109375 28.5625 L 30.707031 26.96875 L 35.777344 35.3125 L 33.195312 36.90625 Z M 28.109375 28.5625 "/>
<path style=" stroke:none;fill-rule:nonzero;fill:rgb(15.686275%,15.686275%,15.686275%);fill-opacity:1;" d="M 36.351562 36.25 L 36.027344 35.703125 L 33.429688 37.296875 L 33.753906 37.84375 C 33.859375 37.980469 33.988281 38.089844 34.144531 38.171875 C 34.289062 38.253906 34.445312 38.308594 34.609375 38.328125 C 34.789062 38.347656 34.957031 38.339844 35.125 38.296875 C 35.289062 38.246094 35.441406 38.167969 35.574219 38.0625 L 35.730469 37.96875 C 35.875 37.894531 36.011719 37.796875 36.136719 37.671875 C 36.25 37.546875 36.332031 37.40625 36.382812 37.25 C 36.445312 37.082031 36.472656 36.917969 36.460938 36.75 C 36.460938 36.574219 36.425781 36.40625 36.351562 36.25 Z M 36.351562 36.25 "/>
<path style=" stroke:none;fill-rule:evenodd;fill:rgb(0%,100%,50.196081%);fill-opacity:1;" d="M 27.332031 18.359375 C 27.363281 18.339844 27.398438 18.324219 27.441406 18.3125 C 27.480469 18.300781 27.523438 18.300781 27.5625 18.3125 C 27.617188 18.3125 27.65625 18.324219 27.6875 18.34375 C 27.730469 18.355469 27.765625 18.371094 27.796875 18.390625 C 27.859375 18.453125 27.910156 18.515625 27.953125 18.578125 C 28.003906 18.640625 28.046875 18.707031 28.078125 18.78125 C 28.109375 18.84375 28.140625 18.910156 28.171875 18.984375 C 28.191406 19.066406 28.207031 19.144531 28.21875 19.21875 C 28.25 19.292969 28.269531 19.371094 28.28125 19.453125 C 28.300781 19.527344 28.3125 19.605469 28.3125 19.6875 C 28.3125 19.761719 28.3125 19.839844 28.3125 19.921875 C 28.300781 19.996094 28.285156 20.066406 28.265625 20.140625 C 28.242188 20.183594 28.222656 20.21875 28.203125 20.25 C 28.171875 20.292969 28.140625 20.324219 28.109375 20.34375 C 28.066406 20.375 28.03125 20.394531 28 20.40625 C 27.957031 20.417969 27.917969 20.425781 27.875 20.4375 C 27.824219 20.4375 27.777344 20.4375 27.734375 20.4375 C 27.683594 20.4375 27.636719 20.433594 27.59375 20.421875 C 27.542969 20.410156 27.496094 20.390625 27.457031 20.359375 C 27.414062 20.339844 27.378906 20.316406 27.347656 20.296875 C 27.292969 20.246094 27.25 20.191406 27.207031 20.140625 C 27.164062 20.078125 27.128906 20.019531 27.097656 19.96875 C 27.066406 19.90625 27.039062 19.84375 27.019531 19.78125 C 27 19.71875 26.984375 19.652344 26.972656 19.578125 C 26.953125 19.515625 26.9375 19.449219 26.925781 19.375 C 26.917969 19.300781 26.90625 19.234375 26.894531 19.171875 C 26.894531 19.097656 26.902344 19.027344 26.910156 18.953125 C 26.921875 18.878906 26.9375 18.8125 26.957031 18.75 C 26.980469 18.707031 27 18.667969 27.019531 18.625 C 27.039062 18.582031 27.066406 18.546875 27.097656 18.515625 C 27.128906 18.484375 27.164062 18.453125 27.207031 18.421875 C 27.25 18.402344 27.289062 18.378906 27.332031 18.359375 Z M 27.410156 18.6875 C 27.398438 18.6875 27.386719 18.691406 27.378906 18.703125 C 27.367188 18.703125 27.355469 18.707031 27.347656 18.71875 C 27.335938 18.730469 27.332031 18.738281 27.332031 18.75 C 27.320312 18.75 27.308594 18.753906 27.300781 18.765625 C 27.300781 18.785156 27.292969 18.800781 27.285156 18.8125 C 27.285156 18.832031 27.277344 18.847656 27.269531 18.859375 C 27.269531 18.878906 27.269531 18.894531 27.269531 18.90625 C 27.269531 18.925781 27.269531 18.941406 27.269531 18.953125 C 27.269531 18.996094 27.273438 19.042969 27.285156 19.09375 C 27.285156 19.136719 27.289062 19.175781 27.300781 19.21875 C 27.308594 19.261719 27.320312 19.300781 27.332031 19.34375 C 27.339844 19.386719 27.351562 19.425781 27.363281 19.46875 C 27.371094 19.511719 27.382812 19.546875 27.394531 19.578125 C 27.402344 19.621094 27.414062 19.660156 27.425781 19.703125 C 27.433594 19.746094 27.449219 19.78125 27.472656 19.8125 C 27.480469 19.855469 27.496094 19.894531 27.519531 19.9375 C 27.527344 19.949219 27.539062 19.957031 27.550781 19.96875 C 27.550781 19.988281 27.558594 20.003906 27.578125 20.015625 C 27.589844 20.027344 27.601562 20.042969 27.609375 20.0625 C 27.621094 20.074219 27.636719 20.082031 27.65625 20.09375 C 27.667969 20.09375 27.679688 20.09375 27.6875 20.09375 C 27.699219 20.105469 27.710938 20.109375 27.71875 20.109375 C 27.730469 20.109375 27.742188 20.109375 27.75 20.109375 C 27.761719 20.109375 27.773438 20.109375 27.78125 20.109375 C 27.792969 20.109375 27.804688 20.105469 27.8125 20.09375 C 27.824219 20.09375 27.835938 20.089844 27.84375 20.078125 C 27.855469 20.078125 27.863281 20.074219 27.875 20.0625 C 27.886719 20.050781 27.890625 20.046875 27.890625 20.046875 C 27.902344 20.027344 27.910156 20.011719 27.921875 20 C 27.921875 19.980469 27.921875 19.964844 27.921875 19.953125 C 27.933594 19.933594 27.9375 19.917969 27.9375 19.90625 C 27.9375 19.886719 27.9375 19.871094 27.9375 19.859375 C 27.925781 19.765625 27.910156 19.675781 27.890625 19.59375 C 27.878906 19.511719 27.863281 19.421875 27.84375 19.328125 C 27.8125 19.246094 27.789062 19.160156 27.765625 19.078125 C 27.734375 18.996094 27.703125 18.910156 27.671875 18.828125 C 27.664062 18.816406 27.652344 18.800781 27.640625 18.78125 C 27.632812 18.769531 27.621094 18.761719 27.609375 18.75 C 27.601562 18.738281 27.589844 18.722656 27.578125 18.703125 C 27.570312 18.691406 27.554688 18.6875 27.535156 18.6875 C 27.523438 18.675781 27.511719 18.671875 27.503906 18.671875 C 27.492188 18.671875 27.480469 18.671875 27.472656 18.671875 C 27.460938 18.671875 27.449219 18.671875 27.441406 18.671875 C 27.429688 18.671875 27.417969 18.675781 27.410156 18.6875 Z M 27.410156 18.6875 "/>
<path style=" stroke:none;fill-rule:evenodd;fill:rgb(0%,100%,50.196081%);fill-opacity:1;" d="M 28.761719 17.734375 C 28.804688 17.714844 28.84375 17.699219 28.886719 17.6875 C 28.929688 17.675781 28.976562 17.675781 29.027344 17.6875 C 29.066406 17.699219 29.109375 17.714844 29.152344 17.734375 C 29.183594 17.753906 29.21875 17.78125 29.261719 17.8125 C 29.3125 17.886719 29.363281 17.957031 29.414062 18.03125 C 29.46875 18.113281 29.515625 18.199219 29.554688 18.28125 C 29.585938 18.363281 29.617188 18.449219 29.648438 18.53125 C 29.679688 18.625 29.699219 18.714844 29.710938 18.796875 C 29.742188 18.890625 29.769531 18.980469 29.789062 19.0625 C 29.808594 19.15625 29.820312 19.25 29.820312 19.34375 C 29.832031 19.4375 29.835938 19.53125 29.835938 19.625 C 29.824219 19.71875 29.816406 19.808594 29.804688 19.890625 C 29.785156 19.941406 29.761719 19.984375 29.742188 20.015625 C 29.722656 20.058594 29.695312 20.09375 29.664062 20.125 C 29.621094 20.144531 29.582031 20.167969 29.539062 20.1875 C 29.5 20.207031 29.457031 20.21875 29.414062 20.21875 C 29.363281 20.230469 29.316406 20.230469 29.277344 20.21875 C 29.222656 20.21875 29.171875 20.207031 29.121094 20.1875 C 29.078125 20.167969 29.035156 20.144531 28.996094 20.125 C 28.953125 20.09375 28.914062 20.0625 28.871094 20.03125 C 28.820312 19.96875 28.773438 19.902344 28.730469 19.828125 C 28.691406 19.765625 28.648438 19.691406 28.605469 19.609375 C 28.574219 19.535156 28.550781 19.464844 28.527344 19.390625 C 28.496094 19.308594 28.476562 19.230469 28.464844 19.15625 C 28.4375 19.074219 28.414062 18.988281 28.40625 18.90625 C 28.382812 18.824219 28.375 18.738281 28.375 18.65625 C 28.363281 18.574219 28.363281 18.488281 28.375 18.40625 C 28.382812 18.324219 28.394531 18.238281 28.40625 18.15625 C 28.414062 18.105469 28.429688 18.058594 28.449219 18.015625 C 28.472656 17.972656 28.496094 17.9375 28.527344 17.90625 C 28.558594 17.863281 28.597656 17.828125 28.636719 17.796875 C 28.679688 17.765625 28.722656 17.746094 28.761719 17.734375 Z M 28.871094 18.109375 C 28.859375 18.121094 28.851562 18.125 28.839844 18.125 C 28.828125 18.136719 28.820312 18.144531 28.808594 18.15625 C 28.796875 18.167969 28.789062 18.175781 28.777344 18.1875 C 28.777344 18.199219 28.773438 18.207031 28.761719 18.21875 C 28.75 18.230469 28.746094 18.246094 28.746094 18.265625 C 28.734375 18.285156 28.730469 18.308594 28.730469 18.328125 C 28.730469 18.339844 28.730469 18.355469 28.730469 18.375 C 28.730469 18.394531 28.730469 18.417969 28.730469 18.4375 C 28.742188 18.488281 28.746094 18.542969 28.746094 18.59375 C 28.757812 18.636719 28.765625 18.683594 28.777344 18.734375 C 28.789062 18.785156 28.796875 18.839844 28.808594 18.890625 C 28.820312 18.941406 28.835938 18.996094 28.855469 19.046875 C 28.867188 19.089844 28.875 19.136719 28.886719 19.1875 C 28.898438 19.230469 28.914062 19.277344 28.933594 19.328125 C 28.945312 19.378906 28.960938 19.425781 28.980469 19.46875 C 29 19.519531 29.019531 19.566406 29.042969 19.609375 C 29.042969 19.628906 29.046875 19.644531 29.058594 19.65625 C 29.066406 19.675781 29.078125 19.699219 29.089844 19.71875 C 29.109375 19.730469 29.125 19.746094 29.136719 19.765625 C 29.144531 19.777344 29.160156 19.785156 29.183594 19.796875 C 29.191406 19.808594 29.203125 19.8125 29.214844 19.8125 C 29.222656 19.824219 29.234375 19.828125 29.246094 19.828125 C 29.253906 19.828125 29.269531 19.828125 29.292969 19.828125 C 29.300781 19.828125 29.3125 19.828125 29.320312 19.828125 C 29.332031 19.828125 29.34375 19.824219 29.351562 19.8125 C 29.363281 19.8125 29.375 19.808594 29.382812 19.796875 C 29.394531 19.796875 29.40625 19.792969 29.414062 19.78125 C 29.414062 19.769531 29.421875 19.761719 29.429688 19.75 C 29.441406 19.738281 29.445312 19.722656 29.445312 19.703125 C 29.457031 19.683594 29.460938 19.667969 29.460938 19.65625 C 29.460938 19.636719 29.460938 19.613281 29.460938 19.59375 C 29.460938 19.574219 29.460938 19.558594 29.460938 19.546875 C 29.441406 19.433594 29.421875 19.328125 29.398438 19.234375 C 29.390625 19.128906 29.367188 19.027344 29.335938 18.921875 C 29.308594 18.816406 29.277344 18.714844 29.246094 18.609375 C 29.214844 18.515625 29.175781 18.417969 29.136719 18.3125 C 29.136719 18.292969 29.128906 18.277344 29.121094 18.265625 C 29.109375 18.246094 29.097656 18.230469 29.089844 18.21875 C 29.078125 18.199219 29.0625 18.183594 29.042969 18.171875 C 29.03125 18.152344 29.015625 18.136719 28.996094 18.125 C 28.984375 18.125 28.976562 18.121094 28.964844 18.109375 C 28.953125 18.109375 28.945312 18.109375 28.933594 18.109375 C 28.921875 18.109375 28.914062 18.109375 28.902344 18.109375 C 28.890625 18.109375 28.882812 18.109375 28.871094 18.109375 Z M 28.871094 18.109375 "/>
<path style=" stroke:none;fill-rule:nonzero;fill:rgb(0%,100%,50.196081%);fill-opacity:1;" d="M 31.28125 19.90625 L 30.894531 19.953125 L 30.363281 17.921875 C 30.34375 17.972656 30.324219 18.027344 30.300781 18.078125 C 30.269531 18.121094 30.238281 18.167969 30.207031 18.21875 C 30.179688 18.261719 30.148438 18.308594 30.117188 18.359375 C 30.074219 18.402344 30.039062 18.4375 30.007812 18.46875 L 29.882812 18 C 29.902344 17.980469 29.921875 17.953125 29.945312 17.921875 C 29.964844 17.890625 29.984375 17.859375 30.007812 17.828125 C 30.027344 17.796875 30.046875 17.765625 30.070312 17.734375 C 30.089844 17.703125 30.105469 17.671875 30.117188 17.640625 C 30.136719 17.589844 30.152344 17.542969 30.164062 17.5 C 30.183594 17.457031 30.191406 17.417969 30.191406 17.375 C 30.203125 17.324219 30.214844 17.277344 30.222656 17.234375 C 30.222656 17.183594 30.222656 17.136719 30.222656 17.09375 L 30.503906 16.96875 Z M 31.28125 19.90625 "/>
<path style=" stroke:none;fill-rule:nonzero;fill:rgb(0%,100%,50.196081%);fill-opacity:1;" d="M 32.667969 19.703125 L 32.292969 19.765625 L 31.6875 17.453125 C 31.664062 17.503906 31.644531 17.5625 31.625 17.625 C 31.605469 17.675781 31.578125 17.730469 31.546875 17.78125 C 31.515625 17.832031 31.484375 17.878906 31.453125 17.921875 C 31.410156 17.972656 31.371094 18.019531 31.328125 18.0625 L 31.1875 17.53125 C 31.21875 17.5 31.246094 17.46875 31.265625 17.4375 C 31.289062 17.40625 31.308594 17.375 31.328125 17.34375 C 31.351562 17.300781 31.363281 17.265625 31.375 17.234375 C 31.394531 17.203125 31.410156 17.167969 31.421875 17.125 C 31.441406 17.074219 31.457031 17.027344 31.46875 16.984375 C 31.480469 16.933594 31.488281 16.878906 31.5 16.828125 C 31.511719 16.777344 31.515625 16.722656 31.515625 16.671875 C 31.515625 16.621094 31.515625 16.566406 31.515625 16.515625 L 31.796875 16.390625 Z M 32.667969 19.703125 "/>
<path style=" stroke:none;fill-rule:evenodd;fill:rgb(0%,100%,50.196081%);fill-opacity:1;" d="M 32.929688 15.90625 C 33.105469 15.824219 33.285156 15.890625 33.460938 16.109375 C 33.523438 16.222656 33.585938 16.339844 33.648438 16.453125 C 33.707031 16.566406 33.765625 16.6875 33.816406 16.8125 C 33.859375 16.9375 33.902344 17.0625 33.941406 17.1875 C 33.984375 17.324219 34.015625 17.453125 34.035156 17.578125 C 34.078125 17.703125 34.113281 17.832031 34.144531 17.96875 C 34.175781 18.09375 34.203125 18.222656 34.222656 18.359375 C 34.242188 18.496094 34.253906 18.625 34.253906 18.75 C 34.265625 18.886719 34.265625 19.019531 34.253906 19.15625 C 34.210938 19.425781 34.097656 19.574219 33.910156 19.59375 C 33.707031 19.625 33.523438 19.515625 33.335938 19.265625 C 33.273438 19.160156 33.214844 19.058594 33.164062 18.953125 C 33.101562 18.847656 33.050781 18.738281 33.007812 18.625 C 32.96875 18.511719 32.925781 18.394531 32.882812 18.28125 C 32.851562 18.15625 32.828125 18.035156 32.808594 17.921875 C 32.765625 17.808594 32.730469 17.6875 32.699219 17.5625 C 32.675781 17.4375 32.65625 17.3125 32.636719 17.1875 C 32.625 17.0625 32.613281 16.9375 32.605469 16.8125 C 32.605469 16.6875 32.609375 16.5625 32.621094 16.4375 C 32.621094 16.386719 32.625 16.332031 32.636719 16.28125 C 32.644531 16.230469 32.667969 16.175781 32.699219 16.125 C 32.730469 16.082031 32.761719 16.042969 32.792969 16 C 32.832031 15.957031 32.878906 15.925781 32.929688 15.90625 Z M 33.085938 16.46875 C 33.066406 16.480469 33.050781 16.488281 33.039062 16.5 C 33.03125 16.511719 33.023438 16.519531 33.023438 16.53125 C 33.015625 16.542969 33.003906 16.550781 32.992188 16.5625 C 32.992188 16.574219 32.992188 16.582031 32.992188 16.59375 C 32.984375 16.625 32.976562 16.652344 32.976562 16.671875 C 32.976562 16.703125 32.976562 16.730469 32.976562 16.75 C 32.976562 16.78125 32.976562 16.808594 32.976562 16.828125 C 32.976562 16.859375 32.984375 16.886719 32.992188 16.90625 C 33.003906 16.988281 33.015625 17.066406 33.023438 17.140625 C 33.035156 17.214844 33.050781 17.285156 33.070312 17.359375 C 33.09375 17.441406 33.105469 17.519531 33.117188 17.59375 C 33.136719 17.667969 33.160156 17.738281 33.179688 17.8125 C 33.199219 17.886719 33.222656 17.957031 33.242188 18.03125 C 33.261719 18.105469 33.285156 18.175781 33.304688 18.25 C 33.324219 18.3125 33.347656 18.378906 33.367188 18.453125 C 33.386719 18.527344 33.414062 18.597656 33.445312 18.671875 C 33.453125 18.691406 33.464844 18.71875 33.476562 18.75 C 33.484375 18.769531 33.5 18.796875 33.523438 18.828125 C 33.53125 18.847656 33.546875 18.871094 33.570312 18.890625 C 33.578125 18.910156 33.59375 18.9375 33.617188 18.96875 C 33.625 18.980469 33.636719 18.984375 33.648438 18.984375 C 33.65625 18.996094 33.667969 19 33.679688 19 C 33.6875 19.011719 33.699219 19.015625 33.707031 19.015625 C 33.730469 19.015625 33.746094 19.015625 33.753906 19.015625 C 33.765625 19.015625 33.777344 19.011719 33.785156 19 C 33.796875 19 33.808594 18.996094 33.816406 18.984375 C 33.828125 18.972656 33.839844 18.964844 33.847656 18.953125 C 33.847656 18.941406 33.847656 18.933594 33.847656 18.921875 C 33.859375 18.890625 33.863281 18.863281 33.863281 18.84375 C 33.863281 18.8125 33.863281 18.785156 33.863281 18.765625 C 33.863281 18.734375 33.863281 18.707031 33.863281 18.6875 C 33.863281 18.65625 33.859375 18.628906 33.847656 18.609375 C 33.839844 18.527344 33.828125 18.449219 33.816406 18.375 C 33.796875 18.300781 33.78125 18.222656 33.769531 18.140625 C 33.75 18.066406 33.730469 17.988281 33.707031 17.90625 C 33.6875 17.832031 33.667969 17.761719 33.648438 17.6875 C 33.636719 17.605469 33.621094 17.527344 33.601562 17.453125 C 33.578125 17.378906 33.558594 17.308594 33.539062 17.234375 C 33.507812 17.160156 33.480469 17.089844 33.460938 17.015625 C 33.4375 16.941406 33.414062 16.871094 33.382812 16.796875 C 33.371094 16.777344 33.363281 16.75 33.351562 16.71875 C 33.339844 16.699219 33.332031 16.675781 33.320312 16.65625 C 33.300781 16.625 33.285156 16.597656 33.273438 16.578125 C 33.253906 16.558594 33.230469 16.535156 33.210938 16.515625 C 33.199219 16.503906 33.191406 16.496094 33.179688 16.484375 C 33.167969 16.484375 33.160156 16.484375 33.148438 16.484375 C 33.136719 16.472656 33.128906 16.46875 33.117188 16.46875 C 33.105469 16.46875 33.097656 16.46875 33.085938 16.46875 Z M 33.085938 16.46875 "/>
<path style=" stroke:none;fill-rule:nonzero;fill:rgb(0%,100%,50.196081%);fill-opacity:1;" d="M 35.761719 19.265625 L 35.390625 19.328125 L 34.625 16.4375 C 34.605469 16.5 34.589844 16.5625 34.578125 16.625 C 34.558594 16.6875 34.535156 16.75 34.503906 16.8125 C 34.472656 16.875 34.441406 16.9375 34.410156 17 C 34.378906 17.050781 34.339844 17.105469 34.300781 17.15625 L 34.113281 16.484375 C 34.144531 16.453125 34.171875 16.417969 34.191406 16.375 C 34.210938 16.332031 34.226562 16.292969 34.238281 16.25 C 34.257812 16.207031 34.273438 16.167969 34.285156 16.125 C 34.304688 16.082031 34.320312 16.042969 34.332031 16 C 34.339844 15.949219 34.351562 15.890625 34.363281 15.828125 C 34.371094 15.765625 34.382812 15.703125 34.394531 15.640625 C 34.394531 15.578125 34.394531 15.515625 34.394531 15.453125 C 34.394531 15.390625 34.386719 15.332031 34.378906 15.28125 L 34.65625 15.15625 Z M 35.761719 19.265625 "/>
<path style=" stroke:none;fill-rule:evenodd;fill:rgb(0%,100%,50.196081%);fill-opacity:1;" d="M 35.808594 14.65625 C 35.984375 14.574219 36.167969 14.667969 36.351562 14.9375 C 36.425781 15.082031 36.5 15.230469 36.570312 15.375 C 36.632812 15.519531 36.695312 15.667969 36.757812 15.8125 C 36.808594 15.957031 36.863281 16.109375 36.914062 16.265625 C 36.953125 16.421875 36.992188 16.578125 37.023438 16.734375 C 37.074219 16.890625 37.121094 17.046875 37.164062 17.203125 C 37.191406 17.359375 37.222656 17.519531 37.253906 17.6875 C 37.277344 17.84375 37.292969 18 37.300781 18.15625 C 37.324219 18.324219 37.332031 18.484375 37.332031 18.640625 C 37.300781 18.96875 37.191406 19.140625 37.007812 19.171875 C 36.820312 19.203125 36.601562 19.0625 36.398438 18.75 C 36.328125 18.613281 36.261719 18.480469 36.199219 18.34375 C 36.136719 18.207031 36.078125 18.074219 36.027344 17.9375 C 35.976562 17.792969 35.929688 17.644531 35.886719 17.5 C 35.84375 17.363281 35.808594 17.222656 35.777344 17.078125 C 35.734375 16.933594 35.695312 16.78125 35.652344 16.625 C 35.621094 16.480469 35.597656 16.328125 35.574219 16.171875 C 35.542969 16.027344 35.523438 15.875 35.511719 15.71875 C 35.503906 15.574219 35.496094 15.421875 35.496094 15.265625 C 35.527344 14.9375 35.621094 14.734375 35.808594 14.65625 Z M 35.996094 15.359375 C 35.945312 15.378906 35.914062 15.425781 35.902344 15.5 C 35.890625 15.53125 35.886719 15.5625 35.886719 15.59375 C 35.886719 15.625 35.886719 15.65625 35.886719 15.6875 C 35.886719 15.730469 35.890625 15.765625 35.902344 15.796875 C 35.902344 15.828125 35.90625 15.859375 35.917969 15.890625 C 35.929688 15.972656 35.945312 16.0625 35.964844 16.15625 C 35.984375 16.25 36.007812 16.34375 36.027344 16.4375 C 36.046875 16.53125 36.066406 16.625 36.089844 16.71875 C 36.109375 16.8125 36.136719 16.902344 36.167969 16.984375 C 36.300781 17.503906 36.40625 17.855469 36.476562 18.03125 C 36.488281 18.074219 36.5 18.109375 36.507812 18.140625 C 36.53125 18.171875 36.546875 18.203125 36.554688 18.234375 C 36.578125 18.265625 36.59375 18.292969 36.601562 18.3125 C 36.621094 18.34375 36.644531 18.375 36.664062 18.40625 C 36.675781 18.417969 36.683594 18.425781 36.695312 18.4375 C 36.707031 18.449219 36.714844 18.453125 36.726562 18.453125 C 36.738281 18.464844 36.753906 18.46875 36.773438 18.46875 C 36.785156 18.480469 36.792969 18.484375 36.804688 18.484375 C 36.855469 18.472656 36.886719 18.433594 36.898438 18.359375 C 36.90625 18.328125 36.914062 18.296875 36.914062 18.265625 C 36.914062 18.234375 36.914062 18.203125 36.914062 18.171875 C 36.914062 18.140625 36.914062 18.109375 36.914062 18.078125 C 36.902344 18.046875 36.898438 18.015625 36.898438 17.984375 C 36.878906 17.890625 36.855469 17.796875 36.835938 17.703125 C 36.816406 17.609375 36.792969 17.515625 36.773438 17.421875 C 36.753906 17.316406 36.730469 17.21875 36.710938 17.125 C 36.691406 17.03125 36.664062 16.9375 36.632812 16.84375 C 36.5 16.324219 36.394531 15.96875 36.320312 15.78125 C 36.300781 15.738281 36.285156 15.703125 36.277344 15.671875 C 36.265625 15.640625 36.25 15.609375 36.230469 15.578125 C 36.21875 15.546875 36.203125 15.519531 36.183594 15.5 C 36.160156 15.46875 36.140625 15.4375 36.121094 15.40625 C 36.078125 15.355469 36.035156 15.339844 35.996094 15.359375 Z M 35.996094 15.359375 "/>
<path style=" stroke:none;fill-rule:evenodd;fill:rgb(0%,100%,50.196081%);fill-opacity:1;" d="M 37.238281 14.03125 C 37.417969 13.957031 37.601562 14.066406 37.800781 14.359375 C 37.882812 14.515625 37.960938 14.675781 38.035156 14.84375 C 38.105469 15 38.167969 15.160156 38.21875 15.328125 C 38.28125 15.496094 38.339844 15.660156 38.390625 15.828125 C 38.441406 15.996094 38.484375 16.160156 38.515625 16.328125 C 38.566406 16.496094 38.613281 16.667969 38.65625 16.84375 C 38.695312 17.011719 38.734375 17.183594 38.765625 17.359375 C 38.796875 17.535156 38.816406 17.707031 38.828125 17.875 C 38.847656 18.050781 38.863281 18.230469 38.875 18.40625 C 38.851562 18.761719 38.742188 18.949219 38.546875 18.96875 C 38.359375 19 38.15625 18.84375 37.941406 18.515625 C 37.867188 18.371094 37.792969 18.21875 37.722656 18.0625 C 37.660156 17.917969 37.597656 17.765625 37.535156 17.609375 C 37.484375 17.464844 37.4375 17.308594 37.394531 17.140625 C 37.34375 16.984375 37.300781 16.828125 37.269531 16.671875 C 37.21875 16.515625 37.171875 16.355469 37.132812 16.1875 C 37.101562 16.019531 37.070312 15.859375 37.039062 15.703125 C 37.015625 15.535156 36.996094 15.371094 36.976562 15.203125 C 36.964844 15.035156 36.953125 14.871094 36.945312 14.703125 C 36.964844 14.328125 37.0625 14.105469 37.238281 14.03125 Z M 37.441406 14.796875 C 37.402344 14.816406 37.375 14.871094 37.363281 14.953125 C 37.355469 14.984375 37.347656 15.019531 37.347656 15.0625 C 37.347656 15.09375 37.347656 15.125 37.347656 15.15625 C 37.347656 15.199219 37.355469 15.234375 37.363281 15.265625 C 37.363281 15.296875 37.371094 15.328125 37.378906 15.359375 C 37.421875 15.609375 37.515625 16.015625 37.660156 16.578125 C 37.816406 17.140625 37.929688 17.519531 38.003906 17.71875 C 38.011719 17.761719 38.027344 17.796875 38.050781 17.828125 C 38.058594 17.859375 38.070312 17.890625 38.078125 17.921875 C 38.101562 17.964844 38.121094 18 38.140625 18.03125 C 38.164062 18.0625 38.183594 18.09375 38.203125 18.125 C 38.257812 18.1875 38.304688 18.214844 38.34375 18.203125 C 38.394531 18.203125 38.425781 18.160156 38.4375 18.078125 C 38.449219 18.046875 38.453125 18.015625 38.453125 17.984375 C 38.453125 17.941406 38.453125 17.90625 38.453125 17.875 C 38.453125 17.84375 38.449219 17.8125 38.4375 17.78125 C 38.4375 17.738281 38.433594 17.703125 38.421875 17.671875 C 38.390625 17.433594 38.296875 17.019531 38.140625 16.4375 C 37.988281 15.863281 37.871094 15.472656 37.800781 15.265625 C 37.789062 15.234375 37.773438 15.199219 37.753906 15.15625 C 37.742188 15.125 37.726562 15.09375 37.707031 15.0625 C 37.695312 15.03125 37.679688 15 37.660156 14.96875 C 37.640625 14.9375 37.617188 14.90625 37.597656 14.875 C 37.535156 14.800781 37.484375 14.777344 37.441406 14.796875 Z M 37.441406 14.796875 "/>
<path style=" stroke:none;fill-rule:nonzero;fill:rgb(0%,100%,50.196081%);fill-opacity:1;" d="M 40.414062 18.625 L 40.023438 18.6875 L 39.027344 14.90625 C 39.019531 14.980469 39.007812 15.058594 38.996094 15.140625 C 38.976562 15.214844 38.957031 15.292969 38.9375 15.375 C 38.914062 15.449219 38.890625 15.519531 38.859375 15.59375 C 38.828125 15.667969 38.789062 15.734375 38.75 15.796875 L 38.515625 14.921875 C 38.535156 14.871094 38.558594 14.816406 38.578125 14.765625 C 38.597656 14.722656 38.621094 14.675781 38.640625 14.625 C 38.648438 14.574219 38.660156 14.519531 38.671875 14.46875 C 38.679688 14.417969 38.691406 14.363281 38.703125 14.3125 C 38.710938 14.238281 38.71875 14.167969 38.71875 14.09375 C 38.726562 14.011719 38.734375 13.933594 38.734375 13.859375 C 38.734375 13.777344 38.726562 13.699219 38.71875 13.625 C 38.71875 13.542969 38.710938 13.464844 38.703125 13.390625 L 38.980469 13.265625 Z M 40.414062 18.625 "/>
<path style=" stroke:none;fill-rule:evenodd;fill:rgb(0%,100%,50.196081%);fill-opacity:1;" d="M 40.117188 12.78125 C 40.292969 12.707031 40.484375 12.847656 40.691406 13.203125 C 40.785156 13.390625 40.875 13.578125 40.957031 13.765625 C 41.03125 13.953125 41.101562 14.140625 41.175781 14.328125 C 41.238281 14.527344 41.300781 14.71875 41.363281 14.90625 C 41.414062 15.105469 41.460938 15.300781 41.503906 15.5 C 41.5625 15.699219 41.621094 15.894531 41.671875 16.09375 C 41.714844 16.292969 41.757812 16.488281 41.796875 16.6875 C 41.828125 16.894531 41.859375 17.097656 41.890625 17.296875 C 41.910156 17.503906 41.925781 17.707031 41.9375 17.90625 C 41.9375 18.3125 41.84375 18.53125 41.640625 18.5625 C 41.457031 18.582031 41.25 18.394531 41.019531 18 C 40.9375 17.824219 40.855469 17.644531 40.769531 17.46875 C 40.699219 17.292969 40.632812 17.113281 40.570312 16.9375 C 40.507812 16.761719 40.449219 16.578125 40.398438 16.390625 C 40.347656 16.203125 40.300781 16.015625 40.257812 15.828125 C 40.195312 15.652344 40.144531 15.464844 40.101562 15.265625 C 40.0625 15.078125 40.019531 14.890625 39.976562 14.703125 C 39.945312 14.503906 39.921875 14.308594 39.898438 14.109375 C 39.878906 13.921875 39.863281 13.730469 39.851562 13.53125 C 39.851562 13.113281 39.941406 12.863281 40.117188 12.78125 Z M 40.351562 13.6875 C 40.308594 13.699219 40.285156 13.753906 40.273438 13.859375 C 40.273438 13.890625 40.273438 13.925781 40.273438 13.96875 C 40.273438 14.011719 40.273438 14.050781 40.273438 14.09375 C 40.285156 14.136719 40.289062 14.171875 40.289062 14.203125 C 40.300781 14.246094 40.304688 14.285156 40.304688 14.328125 C 40.355469 14.609375 40.46875 15.078125 40.648438 15.734375 C 40.824219 16.390625 40.953125 16.839844 41.035156 17.078125 C 41.046875 17.121094 41.0625 17.160156 41.082031 17.203125 C 41.09375 17.246094 41.109375 17.285156 41.128906 17.328125 C 41.148438 17.371094 41.171875 17.40625 41.191406 17.4375 C 41.210938 17.480469 41.234375 17.519531 41.253906 17.5625 C 41.316406 17.636719 41.367188 17.667969 41.410156 17.65625 C 41.449219 17.644531 41.480469 17.597656 41.503906 17.515625 C 41.503906 17.472656 41.503906 17.4375 41.503906 17.40625 C 41.503906 17.363281 41.503906 17.324219 41.503906 17.28125 C 41.492188 17.238281 41.488281 17.203125 41.488281 17.171875 C 41.476562 17.128906 41.464844 17.089844 41.457031 17.046875 C 41.414062 16.765625 41.304688 16.285156 41.128906 15.609375 C 40.953125 14.941406 40.816406 14.484375 40.722656 14.234375 C 40.714844 14.191406 40.699219 14.15625 40.679688 14.125 C 40.667969 14.082031 40.652344 14.042969 40.632812 14 C 40.609375 13.957031 40.589844 13.917969 40.570312 13.875 C 40.546875 13.84375 40.527344 13.808594 40.507812 13.765625 C 40.453125 13.691406 40.402344 13.667969 40.351562 13.6875 Z M 40.351562 13.6875 "/>
<path style=" stroke:none;fill-rule:evenodd;fill:rgb(0%,100%,50.196081%);fill-opacity:1;" d="M 28.015625 20.515625 C 28.058594 20.515625 28.105469 20.527344 28.15625 20.546875 C 28.195312 20.558594 28.234375 20.574219 28.265625 20.59375 C 28.304688 20.613281 28.34375 20.640625 28.375 20.671875 C 28.414062 20.703125 28.445312 20.738281 28.464844 20.78125 C 28.507812 20.90625 28.527344 21.035156 28.527344 21.171875 C 28.527344 21.308594 28.511719 21.4375 28.480469 21.5625 C 28.449219 21.699219 28.398438 21.824219 28.328125 21.9375 C 28.253906 22.050781 28.171875 22.152344 28.078125 22.234375 C 28.035156 22.253906 27.996094 22.269531 27.953125 22.28125 C 27.902344 22.292969 27.855469 22.296875 27.8125 22.296875 C 27.773438 22.296875 27.730469 22.292969 27.6875 22.28125 C 27.636719 22.269531 27.589844 22.253906 27.550781 22.234375 C 27.507812 22.222656 27.464844 22.203125 27.425781 22.171875 C 27.382812 22.152344 27.339844 22.125 27.300781 22.09375 C 27.269531 22.0625 27.238281 22.027344 27.207031 21.984375 C 27.164062 21.953125 27.132812 21.917969 27.113281 21.875 C 27.070312 21.761719 27.050781 21.644531 27.050781 21.53125 C 27.050781 21.40625 27.066406 21.285156 27.097656 21.171875 C 27.128906 21.066406 27.175781 20.964844 27.238281 20.859375 C 27.300781 20.765625 27.378906 20.675781 27.472656 20.59375 C 27.511719 20.574219 27.554688 20.558594 27.59375 20.546875 C 27.648438 20.527344 27.695312 20.515625 27.734375 20.515625 C 27.789062 20.503906 27.835938 20.5 27.875 20.5 C 27.925781 20.5 27.972656 20.503906 28.015625 20.515625 Z M 27.9375 20.78125 C 27.917969 20.78125 27.890625 20.78125 27.859375 20.78125 C 27.839844 20.78125 27.8125 20.785156 27.78125 20.796875 C 27.761719 20.808594 27.742188 20.824219 27.71875 20.84375 C 27.699219 20.863281 27.683594 20.886719 27.671875 20.90625 C 27.640625 20.96875 27.609375 21.03125 27.578125 21.09375 C 27.558594 21.167969 27.539062 21.234375 27.519531 21.296875 C 27.507812 21.371094 27.492188 21.4375 27.472656 21.5 C 27.460938 21.574219 27.457031 21.644531 27.457031 21.71875 C 27.457031 21.730469 27.457031 21.746094 27.457031 21.765625 C 27.457031 21.777344 27.460938 21.785156 27.472656 21.796875 C 27.472656 21.816406 27.476562 21.832031 27.488281 21.84375 C 27.488281 21.863281 27.492188 21.878906 27.503906 21.890625 C 27.511719 21.902344 27.523438 21.910156 27.535156 21.921875 C 27.542969 21.921875 27.554688 21.925781 27.5625 21.9375 C 27.574219 21.949219 27.585938 21.953125 27.59375 21.953125 C 27.605469 21.964844 27.617188 21.96875 27.625 21.96875 C 27.648438 21.980469 27.671875 21.984375 27.703125 21.984375 C 27.726562 21.984375 27.75 21.980469 27.78125 21.96875 C 27.804688 21.957031 27.824219 21.949219 27.84375 21.9375 C 27.863281 21.917969 27.878906 21.894531 27.890625 21.875 C 27.921875 21.800781 27.953125 21.734375 27.984375 21.671875 C 28.003906 21.597656 28.027344 21.527344 28.046875 21.453125 C 28.066406 21.378906 28.082031 21.308594 28.09375 21.234375 C 28.105469 21.160156 28.113281 21.089844 28.125 21.015625 C 28.125 21.003906 28.125 20.988281 28.125 20.96875 C 28.125 20.957031 28.121094 20.941406 28.109375 20.921875 C 28.109375 20.910156 28.105469 20.902344 28.09375 20.890625 C 28.082031 20.871094 28.074219 20.855469 28.0625 20.84375 C 28.0625 20.832031 28.058594 20.828125 28.046875 20.828125 C 28.035156 20.816406 28.027344 20.8125 28.015625 20.8125 C 28.003906 20.800781 27.996094 20.796875 27.984375 20.796875 C 27.972656 20.785156 27.957031 20.78125 27.9375 20.78125 Z M 27.9375 20.78125 "/>
<path style=" stroke:none;fill-rule:evenodd;fill:rgb(0%,100%,50.196081%);fill-opacity:1;" d="M 29.726562 20.78125 C 29.777344 20.78125 29.824219 20.792969 29.867188 20.8125 C 29.90625 20.824219 29.949219 20.84375 29.992188 20.875 C 30.03125 20.894531 30.0625 20.925781 30.085938 20.96875 C 30.117188 21 30.140625 21.035156 30.164062 21.078125 C 30.191406 21.152344 30.214844 21.230469 30.222656 21.3125 C 30.234375 21.394531 30.238281 21.472656 30.238281 21.546875 C 30.230469 21.628906 30.21875 21.707031 30.207031 21.78125 C 30.1875 21.863281 30.167969 21.941406 30.148438 22.015625 C 30.125 22.097656 30.105469 22.175781 30.085938 22.25 C 30.054688 22.324219 30.023438 22.394531 29.992188 22.46875 C 29.949219 22.542969 29.902344 22.609375 29.851562 22.671875 C 29.808594 22.734375 29.757812 22.792969 29.695312 22.84375 C 29.652344 22.863281 29.613281 22.886719 29.570312 22.90625 C 29.53125 22.917969 29.484375 22.925781 29.429688 22.9375 C 29.390625 22.9375 29.34375 22.933594 29.292969 22.921875 C 29.25 22.910156 29.207031 22.894531 29.167969 22.875 C 29.113281 22.855469 29.066406 22.832031 29.027344 22.8125 C 28.984375 22.78125 28.949219 22.75 28.917969 22.71875 C 28.875 22.675781 28.839844 22.636719 28.808594 22.59375 C 28.789062 22.550781 28.765625 22.511719 28.746094 22.46875 C 28.714844 22.332031 28.699219 22.191406 28.699219 22.046875 C 28.699219 21.902344 28.722656 21.761719 28.761719 21.625 C 28.804688 21.488281 28.859375 21.359375 28.933594 21.234375 C 28.996094 21.121094 29.078125 21.011719 29.183594 20.90625 C 29.222656 20.875 29.265625 20.847656 29.308594 20.828125 C 29.347656 20.808594 29.394531 20.792969 29.445312 20.78125 C 29.488281 20.769531 29.535156 20.765625 29.585938 20.765625 C 29.636719 20.765625 29.683594 20.769531 29.726562 20.78125 Z M 29.632812 21.109375 C 29.621094 21.109375 29.613281 21.105469 29.601562 21.09375 C 29.59375 21.09375 29.582031 21.097656 29.570312 21.109375 C 29.5625 21.109375 29.550781 21.109375 29.539062 21.109375 C 29.519531 21.109375 29.503906 21.113281 29.492188 21.125 C 29.484375 21.136719 29.472656 21.144531 29.460938 21.15625 C 29.441406 21.167969 29.425781 21.175781 29.414062 21.1875 C 29.40625 21.199219 29.394531 21.207031 29.382812 21.21875 C 29.375 21.238281 29.363281 21.253906 29.351562 21.265625 C 29.320312 21.339844 29.292969 21.417969 29.261719 21.5 C 29.230469 21.582031 29.203125 21.667969 29.183594 21.75 C 29.160156 21.832031 29.140625 21.917969 29.121094 22 C 29.109375 22.082031 29.097656 22.167969 29.089844 22.25 C 29.089844 22.269531 29.089844 22.292969 29.089844 22.3125 C 29.089844 22.324219 29.09375 22.339844 29.105469 22.359375 C 29.105469 22.378906 29.109375 22.394531 29.121094 22.40625 C 29.121094 22.425781 29.125 22.441406 29.136719 22.453125 C 29.144531 22.464844 29.15625 22.472656 29.167969 22.484375 C 29.167969 22.496094 29.171875 22.503906 29.183594 22.515625 C 29.191406 22.527344 29.203125 22.53125 29.214844 22.53125 C 29.222656 22.542969 29.238281 22.546875 29.261719 22.546875 C 29.269531 22.558594 29.28125 22.5625 29.292969 22.5625 C 29.300781 22.5625 29.3125 22.5625 29.320312 22.5625 C 29.332031 22.5625 29.34375 22.5625 29.351562 22.5625 C 29.375 22.5625 29.390625 22.558594 29.398438 22.546875 C 29.410156 22.546875 29.421875 22.542969 29.429688 22.53125 C 29.453125 22.519531 29.46875 22.503906 29.476562 22.484375 C 29.488281 22.472656 29.5 22.464844 29.507812 22.453125 C 29.519531 22.441406 29.523438 22.425781 29.523438 22.40625 C 29.566406 22.324219 29.601562 22.238281 29.632812 22.15625 C 29.664062 22.074219 29.691406 21.988281 29.710938 21.90625 C 29.730469 21.824219 29.753906 21.734375 29.773438 21.640625 C 29.792969 21.558594 29.804688 21.46875 29.804688 21.375 C 29.816406 21.355469 29.820312 21.339844 29.820312 21.328125 C 29.808594 21.308594 29.804688 21.285156 29.804688 21.265625 C 29.804688 21.253906 29.800781 21.238281 29.789062 21.21875 C 29.777344 21.199219 29.769531 21.183594 29.757812 21.171875 C 29.757812 21.160156 29.753906 21.152344 29.742188 21.140625 C 29.730469 21.140625 29.722656 21.136719 29.710938 21.125 C 29.699219 21.125 29.691406 21.121094 29.679688 21.109375 C 29.667969 21.109375 29.652344 21.109375 29.632812 21.109375 Z M 29.632812 21.109375 "/>
<path style=" stroke:none;fill-rule:nonzero;fill:rgb(0%,100%,50.196081%);fill-opacity:1;" d="M 31.140625 23.609375 L 30.738281 23.453125 L 31.203125 21.71875 C 31.152344 21.75 31.105469 21.777344 31.0625 21.796875 C 31.011719 21.816406 30.960938 21.839844 30.910156 21.859375 C 30.855469 21.878906 30.800781 21.894531 30.738281 21.90625 C 30.6875 21.917969 30.632812 21.921875 30.582031 21.921875 L 30.675781 21.53125 C 30.71875 21.519531 30.753906 21.515625 30.785156 21.515625 C 30.824219 21.503906 30.863281 21.496094 30.894531 21.484375 C 30.933594 21.464844 30.972656 21.449219 31.003906 21.4375 C 31.035156 21.425781 31.0625 21.410156 31.09375 21.390625 C 31.136719 21.371094 31.171875 21.347656 31.203125 21.328125 C 31.234375 21.296875 31.265625 21.269531 31.296875 21.25 C 31.328125 21.21875 31.359375 21.1875 31.390625 21.15625 C 31.410156 21.125 31.4375 21.089844 31.46875 21.046875 L 31.8125 21.109375 Z M 31.140625 23.609375 "/>
<path style=" stroke:none;fill-rule:evenodd;fill:rgb(0%,100%,50.196081%);fill-opacity:1;" d="M 33.148438 21.3125 C 33.199219 21.3125 33.253906 21.324219 33.304688 21.34375 C 33.347656 21.363281 33.386719 21.390625 33.429688 21.421875 C 33.460938 21.464844 33.492188 21.503906 33.523438 21.546875 C 33.542969 21.589844 33.5625 21.636719 33.585938 21.6875 C 33.59375 21.792969 33.605469 21.894531 33.617188 22 C 33.617188 22.105469 33.609375 22.207031 33.601562 22.3125 C 33.589844 22.417969 33.574219 22.519531 33.554688 22.625 C 33.53125 22.71875 33.507812 22.816406 33.476562 22.921875 C 33.453125 23.027344 33.429688 23.125 33.398438 23.21875 C 33.367188 23.324219 33.324219 23.421875 33.273438 23.515625 C 33.230469 23.609375 33.183594 23.699219 33.132812 23.78125 C 33.070312 23.875 33.007812 23.964844 32.945312 24.046875 C 32.914062 24.078125 32.875 24.109375 32.820312 24.140625 C 32.78125 24.160156 32.734375 24.175781 32.683594 24.1875 C 32.640625 24.199219 32.59375 24.199219 32.542969 24.1875 C 32.492188 24.1875 32.445312 24.175781 32.402344 24.15625 C 32.351562 24.136719 32.296875 24.109375 32.246094 24.078125 C 32.207031 24.035156 32.167969 23.996094 32.136719 23.953125 C 32.097656 23.910156 32.066406 23.863281 32.042969 23.8125 C 32.011719 23.761719 31.992188 23.707031 31.980469 23.65625 C 31.972656 23.5625 31.960938 23.46875 31.949219 23.375 C 31.949219 23.28125 31.957031 23.1875 31.964844 23.09375 C 31.976562 23 31.992188 22.90625 32.011719 22.8125 C 32.023438 22.71875 32.042969 22.625 32.074219 22.53125 C 32.097656 22.4375 32.121094 22.34375 32.152344 22.25 C 32.183594 22.167969 32.222656 22.078125 32.261719 21.984375 C 32.304688 21.902344 32.351562 21.816406 32.402344 21.734375 C 32.464844 21.652344 32.527344 21.574219 32.589844 21.5 C 32.621094 21.46875 32.65625 21.4375 32.699219 21.40625 C 32.75 21.375 32.796875 21.347656 32.835938 21.328125 C 32.890625 21.316406 32.941406 21.308594 32.992188 21.296875 C 33.046875 21.296875 33.097656 21.300781 33.148438 21.3125 Z M 33.039062 21.75 C 33.019531 21.75 33.003906 21.75 32.992188 21.75 C 32.984375 21.75 32.96875 21.75 32.945312 21.75 C 32.9375 21.75 32.925781 21.753906 32.914062 21.765625 C 32.90625 21.765625 32.894531 21.769531 32.882812 21.78125 C 32.863281 21.792969 32.847656 21.808594 32.835938 21.828125 C 32.816406 21.839844 32.800781 21.855469 32.792969 21.875 C 32.78125 21.894531 32.769531 21.910156 32.761719 21.921875 C 32.75 21.941406 32.738281 21.964844 32.730469 21.984375 C 32.6875 22.089844 32.644531 22.199219 32.605469 22.3125 C 32.574219 22.425781 32.542969 22.535156 32.511719 22.640625 C 32.480469 22.753906 32.453125 22.871094 32.433594 22.984375 C 32.402344 23.097656 32.382812 23.214844 32.371094 23.328125 C 32.359375 23.347656 32.355469 23.375 32.355469 23.40625 C 32.355469 23.425781 32.359375 23.449219 32.371094 23.46875 C 32.371094 23.488281 32.371094 23.511719 32.371094 23.53125 C 32.382812 23.5625 32.390625 23.589844 32.402344 23.609375 C 32.402344 23.621094 32.40625 23.628906 32.417969 23.640625 C 32.429688 23.652344 32.4375 23.660156 32.449219 23.671875 C 32.460938 23.683594 32.46875 23.6875 32.480469 23.6875 C 32.492188 23.699219 32.5 23.703125 32.511719 23.703125 C 32.519531 23.714844 32.53125 23.71875 32.542969 23.71875 C 32.550781 23.71875 32.566406 23.71875 32.589844 23.71875 C 32.597656 23.71875 32.609375 23.714844 32.621094 23.703125 C 32.628906 23.703125 32.640625 23.699219 32.652344 23.6875 C 32.671875 23.675781 32.6875 23.667969 32.699219 23.65625 C 32.707031 23.636719 32.722656 23.621094 32.746094 23.609375 C 32.753906 23.589844 32.765625 23.574219 32.777344 23.5625 C 32.785156 23.542969 32.796875 23.519531 32.808594 23.5 C 32.847656 23.386719 32.890625 23.269531 32.929688 23.15625 C 32.960938 23.042969 32.992188 22.925781 33.023438 22.8125 C 33.054688 22.699219 33.085938 22.582031 33.117188 22.46875 C 33.136719 22.34375 33.160156 22.222656 33.179688 22.109375 C 33.179688 22.089844 33.179688 22.0625 33.179688 22.03125 C 33.179688 22.011719 33.179688 21.988281 33.179688 21.96875 C 33.179688 21.949219 33.175781 21.925781 33.164062 21.90625 C 33.164062 21.886719 33.160156 21.863281 33.148438 21.84375 C 33.136719 21.832031 33.132812 21.824219 33.132812 21.8125 C 33.121094 21.800781 33.113281 21.792969 33.101562 21.78125 C 33.09375 21.769531 33.082031 21.765625 33.070312 21.765625 C 33.0625 21.753906 33.050781 21.75 33.039062 21.75 Z M 33.039062 21.75 "/>
<path style=" stroke:none;fill-rule:nonzero;fill:rgb(0%,100%,50.196081%);fill-opacity:1;" d="M 34.363281 24.875 L 33.972656 24.71875 L 34.578125 22.4375 C 34.527344 22.480469 34.476562 22.515625 34.425781 22.546875 C 34.371094 22.589844 34.320312 22.621094 34.269531 22.640625 C 34.207031 22.671875 34.148438 22.699219 34.097656 22.71875 C 34.035156 22.738281 33.972656 22.753906 33.910156 22.765625 L 34.066406 22.234375 C 34.097656 22.222656 34.132812 22.214844 34.175781 22.203125 C 34.207031 22.183594 34.242188 22.167969 34.285156 22.15625 C 34.316406 22.136719 34.351562 22.113281 34.394531 22.09375 C 34.425781 22.074219 34.457031 22.050781 34.488281 22.03125 C 34.527344 22 34.570312 21.964844 34.609375 21.921875 C 34.640625 21.890625 34.671875 21.855469 34.703125 21.8125 C 34.746094 21.78125 34.777344 21.746094 34.796875 21.703125 C 34.828125 21.660156 34.855469 21.613281 34.875 21.5625 L 35.21875 21.625 Z M 34.363281 24.875 "/>
<path style=" stroke:none;fill-rule:evenodd;fill:rgb(0%,100%,50.196081%);fill-opacity:1;" d="M 36.570312 21.828125 C 36.632812 21.839844 36.683594 21.859375 36.726562 21.890625 C 36.777344 21.910156 36.820312 21.941406 36.851562 21.984375 C 36.894531 22.027344 36.921875 22.074219 36.945312 22.125 C 36.964844 22.175781 36.976562 22.230469 36.976562 22.28125 C 36.984375 22.417969 36.992188 22.546875 36.992188 22.671875 C 36.992188 22.808594 36.980469 22.9375 36.960938 23.0625 C 36.949219 23.1875 36.929688 23.316406 36.898438 23.453125 C 36.867188 23.578125 36.832031 23.703125 36.789062 23.828125 C 36.769531 23.953125 36.738281 24.078125 36.695312 24.203125 C 36.652344 24.328125 36.605469 24.449219 36.554688 24.5625 C 36.503906 24.675781 36.445312 24.792969 36.382812 24.90625 C 36.320312 25.019531 36.253906 25.128906 36.183594 25.234375 C 36.152344 25.285156 36.113281 25.328125 36.074219 25.359375 C 36.03125 25.390625 35.984375 25.417969 35.933594 25.4375 C 35.882812 25.449219 35.828125 25.453125 35.777344 25.453125 C 35.726562 25.453125 35.675781 25.441406 35.621094 25.421875 C 35.570312 25.402344 35.519531 25.371094 35.464844 25.328125 C 35.425781 25.285156 35.382812 25.238281 35.34375 25.1875 C 35.3125 25.136719 35.285156 25.082031 35.265625 25.03125 C 35.242188 24.96875 35.234375 24.90625 35.234375 24.84375 C 35.222656 24.730469 35.21875 24.609375 35.21875 24.484375 C 35.21875 24.371094 35.226562 24.25 35.25 24.125 C 35.257812 24.011719 35.28125 23.894531 35.3125 23.78125 C 35.332031 23.65625 35.363281 23.542969 35.40625 23.4375 C 35.425781 23.3125 35.457031 23.191406 35.496094 23.078125 C 35.539062 22.964844 35.582031 22.847656 35.621094 22.734375 C 35.675781 22.621094 35.730469 22.511719 35.792969 22.40625 C 35.855469 22.300781 35.917969 22.199219 35.980469 22.09375 C 36.019531 22.050781 36.0625 22.011719 36.105469 21.96875 C 36.144531 21.9375 36.191406 21.910156 36.246094 21.890625 C 36.296875 21.859375 36.347656 21.84375 36.398438 21.84375 C 36.460938 21.832031 36.519531 21.828125 36.570312 21.828125 Z M 36.429688 22.390625 C 36.410156 22.390625 36.394531 22.390625 36.382812 22.390625 C 36.375 22.390625 36.359375 22.394531 36.335938 22.40625 C 36.328125 22.40625 36.316406 22.410156 36.308594 22.421875 C 36.296875 22.433594 36.285156 22.4375 36.277344 22.4375 C 36.253906 22.457031 36.234375 22.480469 36.214844 22.5 C 36.203125 22.519531 36.1875 22.542969 36.167969 22.5625 C 36.15625 22.582031 36.144531 22.605469 36.136719 22.625 C 36.125 22.65625 36.113281 22.683594 36.105469 22.703125 C 36.050781 22.839844 36.007812 22.980469 35.964844 23.125 C 35.914062 23.261719 35.871094 23.402344 35.839844 23.546875 C 35.796875 23.691406 35.761719 23.832031 35.730469 23.96875 C 35.699219 24.113281 35.667969 24.261719 35.636719 24.40625 C 35.636719 24.4375 35.636719 24.464844 35.636719 24.484375 C 35.636719 24.515625 35.636719 24.546875 35.636719 24.578125 C 35.636719 24.609375 35.636719 24.636719 35.636719 24.65625 C 35.648438 24.6875 35.652344 24.71875 35.652344 24.75 C 35.664062 24.761719 35.667969 24.769531 35.667969 24.78125 C 35.679688 24.792969 35.691406 24.800781 35.699219 24.8125 C 35.710938 24.824219 35.722656 24.832031 35.730469 24.84375 C 35.742188 24.855469 35.75 24.859375 35.761719 24.859375 C 35.78125 24.871094 35.796875 24.875 35.808594 24.875 C 35.820312 24.875 35.828125 24.875 35.839844 24.875 C 35.859375 24.863281 35.875 24.859375 35.886719 24.859375 C 35.898438 24.847656 35.90625 24.839844 35.917969 24.828125 C 35.9375 24.816406 35.953125 24.800781 35.964844 24.78125 C 35.984375 24.761719 36 24.738281 36.011719 24.71875 C 36.03125 24.699219 36.046875 24.675781 36.058594 24.65625 C 36.066406 24.625 36.078125 24.597656 36.089844 24.578125 C 36.109375 24.503906 36.136719 24.433594 36.167969 24.359375 C 36.1875 24.285156 36.214844 24.214844 36.246094 24.140625 C 36.265625 24.066406 36.285156 23.996094 36.308594 23.921875 C 36.328125 23.847656 36.347656 23.777344 36.367188 23.703125 C 36.390625 23.628906 36.410156 23.558594 36.429688 23.484375 C 36.441406 23.410156 36.457031 23.339844 36.476562 23.265625 C 36.488281 23.191406 36.503906 23.121094 36.523438 23.046875 C 36.535156 22.972656 36.546875 22.902344 36.554688 22.828125 C 36.566406 22.796875 36.570312 22.769531 36.570312 22.75 C 36.570312 22.71875 36.570312 22.6875 36.570312 22.65625 C 36.570312 22.636719 36.566406 22.609375 36.554688 22.578125 C 36.554688 22.546875 36.550781 22.519531 36.539062 22.5 C 36.539062 22.480469 36.535156 22.464844 36.523438 22.453125 C 36.515625 22.441406 36.503906 22.433594 36.492188 22.421875 C 36.484375 22.421875 36.472656 22.417969 36.460938 22.40625 C 36.453125 22.394531 36.441406 22.390625 36.429688 22.390625 Z M 36.429688 22.390625 "/>
<path style=" stroke:none;fill-rule:nonzero;fill:rgb(0%,100%,50.196081%);fill-opacity:1;" d="M 37.597656 26.140625 L 37.191406 25.984375 L 37.941406 23.1875 C 37.898438 23.230469 37.847656 23.269531 37.785156 23.3125 C 37.734375 23.363281 37.679688 23.40625 37.628906 23.4375 C 37.566406 23.46875 37.503906 23.5 37.441406 23.53125 C 37.378906 23.5625 37.316406 23.589844 37.253906 23.609375 L 37.425781 22.953125 C 37.46875 22.933594 37.507812 22.917969 37.550781 22.90625 C 37.59375 22.886719 37.632812 22.859375 37.675781 22.828125 C 37.707031 22.808594 37.742188 22.78125 37.785156 22.75 C 37.816406 22.730469 37.847656 22.703125 37.878906 22.671875 C 37.929688 22.628906 37.972656 22.589844 38.003906 22.546875 C 38.042969 22.503906 38.085938 22.457031 38.125 22.40625 C 38.15625 22.355469 38.1875 22.308594 38.21875 22.265625 C 38.25 22.214844 38.28125 22.15625 38.3125 22.09375 L 38.65625 22.15625 Z M 37.597656 26.140625 "/>
<path style=" stroke:none;fill-rule:nonzero;fill:rgb(0%,100%,50.196081%);fill-opacity:1;" d="M 39.042969 26.703125 L 38.640625 26.546875 L 39.464844 23.515625 C 39.414062 23.566406 39.359375 23.613281 39.308594 23.65625 C 39.257812 23.707031 39.199219 23.753906 39.136719 23.796875 C 39.074219 23.839844 39.011719 23.875 38.949219 23.90625 C 38.890625 23.9375 38.828125 23.964844 38.765625 23.984375 L 38.949219 23.28125 C 38.992188 23.261719 39.035156 23.238281 39.074219 23.21875 C 39.117188 23.199219 39.160156 23.171875 39.199219 23.140625 C 39.230469 23.121094 39.265625 23.09375 39.308594 23.0625 C 39.339844 23.03125 39.371094 23 39.402344 22.96875 C 39.453125 22.925781 39.5 22.878906 39.542969 22.828125 C 39.582031 22.777344 39.625 22.722656 39.667969 22.671875 C 39.699219 22.621094 39.730469 22.566406 39.761719 22.515625 C 39.792969 22.453125 39.820312 22.394531 39.851562 22.34375 L 40.195312 22.390625 Z M 39.042969 26.703125 "/>
<path style=" stroke:none;fill-rule:evenodd;fill:rgb(0%,100%,50.196081%);fill-opacity:1;" d="M 41.550781 22.59375 C 41.757812 22.625 41.875 22.816406 41.90625 23.171875 C 41.917969 23.339844 41.910156 23.503906 41.890625 23.671875 C 41.878906 23.839844 41.863281 24 41.84375 24.15625 C 41.8125 24.324219 41.78125 24.488281 41.75 24.65625 C 41.710938 24.8125 41.664062 24.972656 41.609375 25.140625 C 41.578125 25.296875 41.539062 25.457031 41.488281 25.625 C 41.433594 25.78125 41.382812 25.9375 41.332031 26.09375 C 41.269531 26.25 41.203125 26.402344 41.128906 26.546875 C 41.054688 26.703125 40.980469 26.847656 40.894531 26.984375 C 40.699219 27.265625 40.496094 27.363281 40.289062 27.28125 C 40.09375 27.207031 39.976562 26.980469 39.945312 26.59375 C 39.9375 26.4375 39.941406 26.28125 39.960938 26.125 C 39.972656 25.96875 39.988281 25.8125 40.007812 25.65625 C 40.03125 25.5 40.0625 25.347656 40.101562 25.203125 C 40.132812 25.046875 40.175781 24.894531 40.226562 24.75 C 40.257812 24.59375 40.292969 24.4375 40.335938 24.28125 C 40.386719 24.136719 40.445312 23.984375 40.507812 23.828125 C 40.558594 23.683594 40.621094 23.542969 40.691406 23.40625 C 40.765625 23.261719 40.84375 23.121094 40.925781 22.984375 C 41.128906 22.703125 41.332031 22.5625 41.550781 22.59375 Z M 41.347656 23.328125 C 41.335938 23.328125 41.320312 23.328125 41.300781 23.328125 C 41.289062 23.328125 41.273438 23.332031 41.253906 23.34375 C 41.242188 23.355469 41.234375 23.363281 41.222656 23.375 C 41.210938 23.386719 41.203125 23.394531 41.191406 23.40625 C 41.171875 23.425781 41.148438 23.453125 41.128906 23.484375 C 41.109375 23.503906 41.09375 23.53125 41.082031 23.5625 C 41.0625 23.59375 41.046875 23.625 41.035156 23.65625 C 41.023438 23.6875 41.015625 23.71875 41.003906 23.75 C 40.964844 23.84375 40.925781 23.933594 40.894531 24.015625 C 40.863281 24.109375 40.832031 24.203125 40.800781 24.296875 C 40.78125 24.390625 40.753906 24.484375 40.722656 24.578125 C 40.703125 24.683594 40.679688 24.78125 40.648438 24.875 C 40.625 24.957031 40.605469 25.046875 40.585938 25.140625 C 40.554688 25.234375 40.527344 25.328125 40.507812 25.421875 C 40.484375 25.515625 40.464844 25.609375 40.445312 25.703125 C 40.433594 25.796875 40.417969 25.886719 40.398438 25.96875 C 40.386719 26.011719 40.382812 26.046875 40.382812 26.078125 C 40.382812 26.121094 40.378906 26.15625 40.367188 26.1875 C 40.367188 26.21875 40.367188 26.253906 40.367188 26.296875 C 40.378906 26.328125 40.382812 26.363281 40.382812 26.40625 C 40.382812 26.417969 40.386719 26.433594 40.398438 26.453125 C 40.398438 26.464844 40.402344 26.472656 40.414062 26.484375 C 40.421875 26.496094 40.433594 26.503906 40.445312 26.515625 C 40.453125 26.527344 40.46875 26.535156 40.492188 26.546875 C 40.5 26.546875 40.515625 26.546875 40.539062 26.546875 C 40.546875 26.546875 40.558594 26.546875 40.570312 26.546875 C 40.589844 26.535156 40.605469 26.527344 40.617188 26.515625 C 40.625 26.503906 40.636719 26.496094 40.648438 26.484375 C 40.667969 26.464844 40.6875 26.4375 40.707031 26.40625 C 40.71875 26.386719 40.734375 26.359375 40.753906 26.328125 C 40.765625 26.296875 40.78125 26.269531 40.800781 26.25 C 40.8125 26.21875 40.824219 26.1875 40.832031 26.15625 C 40.863281 26.0625 40.894531 25.96875 40.925781 25.875 C 40.957031 25.78125 40.988281 25.683594 41.019531 25.578125 C 41.050781 25.484375 41.082031 25.390625 41.113281 25.296875 C 41.132812 25.203125 41.15625 25.105469 41.175781 25 C 41.207031 24.90625 41.234375 24.8125 41.253906 24.71875 C 41.285156 24.625 41.308594 24.53125 41.332031 24.4375 C 41.351562 24.34375 41.371094 24.25 41.394531 24.15625 C 41.414062 24.0625 41.429688 23.96875 41.441406 23.875 C 41.449219 23.832031 41.457031 23.796875 41.457031 23.765625 C 41.464844 23.734375 41.472656 23.699219 41.472656 23.65625 C 41.472656 23.625 41.472656 23.589844 41.472656 23.546875 C 41.472656 23.515625 41.464844 23.480469 41.457031 23.4375 C 41.433594 23.375 41.398438 23.339844 41.347656 23.328125 Z M 41.347656 23.328125 "/>
</g>
</svg>
