<?xml version="1.0" encoding="UTF-8"?>
<svg xmlns="http://www.w3.org/2000/svg" xmlns:xlink="http://www.w3.org/1999/xlink" width="px" height="40px" viewBox="0 0 51 40" version="1.1">
<g id="surface1">
<path style=" stroke:none;fill-rule:nonzero;fill:rgb(100%,100%,0%);fill-opacity:1;" d="M 18.792969 9.84375 L 15.394531 10.390625 L 12.300781 11.765625 L 9.675781 13.4375 L 7.1875 16.515625 L 5.765625 18.03125 L 4.40625 18.546875 L 4.050781 17.65625 L 4.683594 16.734375 L 4.820312 15.4375 L 5.238281 15.453125 L 5.703125 15.875 L 5.578125 14.546875 L 5.070312 14.203125 L 5.085938 13.703125 L 3.863281 14.390625 L 2.765625 15.703125 L 2.535156 16.875 L 3.011719 17.8125 L 3.445312 19.40625 L 4.34375 19.828125 L 5.285156 19.78125 L 6.167969 19.265625 L 5.578125 22.296875 L 6.167969 25.6875 L 5.515625 27.25 L 3.367188 29.578125 L 3.753906 30.96875 L 4.777344 32.578125 L 6.675781 33.9375 L 7.695312 34.078125 L 8.824219 34.125 L 8.113281 37.03125 L 10.695312 38.109375 L 13.925781 38.53125 L 15.023438 37.8125 L 15.097656 35.84375 L 16.335938 33.78125 L 16.414062 32.15625 L 19.378906 32.375 L 22.132812 32.109375 L 19.378906 33.78125 L 19.84375 35.796875 L 21.589844 38.53125 L 23.273438 39.265625 L 24.632812 38.703125 L 25.191406 37.59375 L 28.019531 35.421875 L 28.574219 35.890625 L 33.027344 36.0625 L 33.90625 35.328125 L 34 34.046875 L 33.691406 33.484375 L 33.488281 30.015625 L 32.007812 27.015625 L 32.253906 25.6875 L 33.148438 26.171875 L 35.652344 28.515625 L 36.875 28.609375 L 38.234375 28.046875 L 39.578125 27.015625 L 40.257812 24.796875 L 44.246094 25.046875 L 46.65625 24.109375 L 48.605469 22.265625 L 50.011719 19.609375 L 50.335938 16.484375 L 50.042969 12.84375 L 49.285156 9.59375 L 48.527344 8.5625 L 47.460938 8.21875 L 45.605469 10.28125 L 43.90625 10.875 L 42.421875 8.390625 L 40.9375 7.015625 L 40.136719 6.515625 L 36.921875 3.8125 L 34.339844 2.390625 L 31.742188 2.1875 L 28.746094 2.6875 L 26.117188 3.671875 L 24.292969 5.171875 L 22.855469 6.9375 L 21.375 7.359375 Z M 18.792969 9.84375 "/>
<path style=" stroke:none;fill-rule:nonzero;fill:rgb(100%,100%,80.000001%);fill-opacity:1;" d="M 8.964844 17.578125 C 6.058594 21 6.707031 25.140625 7.511719 29.21875 C 7.078125 28.113281 6.652344 27.015625 6.226562 25.921875 L 5.75 22.90625 C 5.789062 21.875 5.835938 20.847656 5.886719 19.828125 L 7.109375 16.875 L 8.933594 14.140625 L 11.777344 11.734375 L 14.898438 10.4375 L 18.5625 9.953125 L 15.175781 13.859375 C 12.441406 14.75 10.847656 15.359375 8.964844 17.578125 Z M 8.964844 17.578125 "/>
<path style=" stroke:none;fill-rule:nonzero;fill:rgb(100%,100%,80.000001%);fill-opacity:1;" d="M 22.625 7.140625 C 20.601562 9.140625 19.503906 10.640625 18.222656 12.96875 C 17.308594 14.640625 16.273438 16.234375 15.300781 17.890625 C 14.820312 18.71875 14.773438 19.40625 14.621094 20.375 L 13.199219 18.65625 C 13.425781 17.96875 13.652344 17.285156 13.878906 16.609375 L 16.179688 12.421875 L 21.066406 7.546875 C 21.589844 7.410156 22.109375 7.277344 22.625 7.140625 Z M 32.59375 2.203125 C 30.972656 2.828125 28.296875 3.015625 28.113281 4.890625 C 27.972656 6.234375 28.203125 6.90625 28.992188 8.3125 C 27.046875 6.25 26.550781 6.578125 22.765625 7.21875 L 24.386719 4.875 L 27.230469 3.09375 L 30.894531 2.28125 Z M 32.59375 2.203125 "/>
<path style=" stroke:none;fill-rule:evenodd;fill:rgb(80.000001%,80.000001%,0%);fill-opacity:1;" d="M 36.65625 27.546875 C 36.484375 27.453125 36.3125 27.363281 36.148438 27.28125 C 36.035156 27.082031 35.921875 26.890625 35.808594 26.703125 C 35.789062 26.371094 35.765625 26.035156 35.746094 25.703125 C 35.828125 25.472656 35.910156 25.238281 35.992188 25 L 39.410156 24.5625 L 40.199219 25.15625 L 39.578125 26.75 L 38.761719 27.875 C 38.335938 28.042969 37.914062 28.214844 37.492188 28.390625 C 37.570312 28.15625 37.585938 27.90625 37.042969 27.578125 C 36.910156 27.566406 36.78125 27.558594 36.65625 27.546875 Z M 34.527344 24.015625 C 35.035156 22.296875 35.019531 22.171875 36.734375 21.65625 C 35.683594 22.390625 35.191406 22.9375 34.527344 24.015625 Z M 47.523438 10.03125 L 46.796875 10.8125 L 45.558594 11.578125 L 44.554688 11.578125 C 44.410156 11.546875 44.261719 11.519531 44.105469 11.5 C 44.355469 11.3125 44.539062 11.390625 44.847656 11.296875 C 45.203125 11.1875 45.558594 11.046875 45.898438 10.828125 C 46.578125 10.40625 46.921875 9.890625 47.335938 9.296875 C 47.523438 9 47.816406 8.9375 48.125 8.796875 Z M 21.449219 11.0625 L 22.578125 9.40625 L 24.867188 8.890625 L 27.308594 8.59375 C 24.433594 9.828125 23.199219 11.15625 22.75 14.328125 C 22.71875 13.703125 22.59375 13.078125 22.546875 12.453125 C 21.746094 12.1875 21.683594 12.921875 21.390625 13.546875 C 20.648438 15.15625 19.84375 16.375 18.546875 17.796875 C 19.566406 16.109375 20.152344 14.5 20.832031 12.640625 Z M 26.394531 12.578125 C 27.015625 15.515625 27.894531 18.34375 28.28125 21.34375 C 28.542969 23.296875 28.558594 24.21875 27.601562 25.90625 C 26.535156 25.84375 25.886719 25.953125 24.851562 26.296875 C 20.785156 27.640625 18.4375 29.640625 15.703125 25.625 L 18.328125 26.890625 C 18.957031 26.765625 19.582031 26.640625 20.199219 26.515625 C 21.300781 25.871094 22.402344 25.21875 23.507812 24.5625 L 26.101562 24.046875 L 26.9375 20.515625 L 26.320312 15.84375 C 26.289062 15.113281 26.261719 14.378906 26.242188 13.640625 C 26.292969 13.285156 26.34375 12.933594 26.394531 12.578125 Z M 33.414062 30.8125 C 33.074219 33.21875 34.199219 34.5 33.738281 35.15625 C 33.597656 35.34375 33.414062 35.671875 33.210938 35.765625 C 32.5 36.09375 31.511719 35.703125 31.449219 35.890625 L 29.085938 35.890625 L 28.144531 35.484375 L 29.59375 33.765625 C 30.070312 32.722656 30.542969 31.683594 31.015625 30.640625 L 31.914062 27.46875 L 32.394531 27.46875 Z M 33.414062 30.8125 "/>
<path style=" stroke:none;fill-rule:evenodd;fill:rgb(80.000001%,80.000001%,0%);fill-opacity:1;" d="M 30.675781 24.9375 C 31.222656 25.175781 31.769531 25.421875 32.316406 25.671875 C 32.285156 26.171875 32.25 26.671875 32.207031 27.171875 C 31.773438 28.496094 31.34375 29.816406 30.910156 31.140625 L 29.890625 33.0625 L 28.761719 34.671875 C 28.164062 35.191406 27.566406 35.707031 26.96875 36.21875 C 26.484375 36.582031 26 36.953125 25.515625 37.328125 C 25.289062 37.765625 25.058594 38.207031 24.820312 38.65625 L 23.523438 39.453125 L 22.53125 39.3125 C 22.140625 38.949219 21.753906 38.578125 21.375 38.203125 C 20.808594 37.316406 20.246094 36.433594 19.6875 35.546875 C 20.460938 36.1875 21.359375 37.265625 22.347656 36.765625 C 22.980469 36.4375 23.089844 36.078125 23.429688 35.4375 C 24.25 35.5625 24.726562 35.8125 25.390625 35.296875 C 26.320312 34.578125 27.136719 33.84375 27.957031 33.015625 C 28.453125 32.515625 28.667969 32.171875 28.945312 31.53125 C 29.59375 30.015625 30.136719 27.96875 30.476562 26.25 C 29.964844 25.203125 29.625 24.9375 29.441406 23.84375 C 29.84375 24.234375 30.277344 24.546875 30.675781 24.9375 Z M 16.382812 31.515625 C 18.222656 31.515625 20.167969 31.40625 21.835938 30.625 C 22.316406 29.90625 22.796875 29.3125 23.367188 28.6875 C 22.84375 29.6875 22.671875 30.265625 22.53125 31.40625 L 21.992188 32.21875 C 20.601562 32.25 19.214844 32.285156 17.835938 32.328125 C 17.390625 32.277344 16.941406 32.222656 16.488281 32.171875 C 16.449219 32.121094 16.402344 32.074219 16.351562 32.03125 C 16.359375 31.855469 16.371094 31.683594 16.382812 31.515625 Z M 16.460938 32.984375 L 16.273438 34.15625 L 15.253906 36.078125 C 15.140625 36.785156 15.023438 37.496094 14.898438 38.203125 L 13.800781 38.640625 L 8.964844 37.390625 C 9.96875 37.4375 12.410156 37.984375 12.578125 36.75 C 12.625 36.40625 12.59375 36.109375 12.519531 35.640625 C 13.429688 35.265625 14.234375 34.578125 14.882812 33.8125 C 15.75 32.109375 15.671875 30.828125 15.996094 28.921875 L 16.132812 30.21875 Z M 15.578125 22.578125 L 15.40625 24.640625 C 14.835938 23.609375 14.203125 22.640625 13.691406 21.59375 C 13.289062 20.765625 13.351562 20.390625 13.398438 19.453125 C 14.128906 20.496094 14.855469 21.535156 15.578125 22.578125 Z M 7.542969 30.015625 L 9.257812 32.6875 L 8.050781 33.90625 C 7.648438 33.980469 7.25 34.050781 6.847656 34.125 C 6.042969 33.488281 5.234375 32.855469 4.421875 32.21875 C 5.144531 32.21875 5.796875 32.25 6.523438 32.359375 C 6.847656 31.9375 6.953125 31.703125 7.109375 31.1875 C 6.273438 29.890625 5.886719 28.953125 5.457031 27.484375 C 5.621094 27.152344 5.78125 26.8125 5.933594 26.46875 C 6.46875 27.644531 7.007812 28.828125 7.542969 30.015625 Z M 49.191406 9.078125 L 49.996094 12.53125 C 50.140625 13.699219 50.289062 14.863281 50.445312 16.03125 L 49.886719 19.609375 L 48.433594 22.6875 C 47.796875 23.230469 47.152344 23.769531 46.503906 24.3125 C 45.679688 24.550781 44.855469 24.796875 44.03125 25.046875 C 42.8125 24.984375 41.605469 24.921875 40.398438 24.859375 L 36.503906 23.234375 C 39.6875 24.0625 43.085938 24.96875 45.992188 23.046875 C 48.589844 21.34375 49.128906 17.78125 49.207031 14.953125 C 49.269531 12.640625 48.621094 10.5625 48.125 8.3125 C 48.484375 8.574219 48.839844 8.828125 49.191406 9.078125 Z M 5.023438 14.25 C 5.125 14.332031 5.230469 14.421875 5.332031 14.515625 L 5.640625 15.046875 L 5.703125 15.875 C 5.546875 15.75 5.394531 15.625 5.238281 15.5 C 5.117188 15.46875 4.992188 15.433594 4.867188 15.390625 L 4.574219 16.96875 L 4.019531 17.796875 C 4.171875 18.035156 4.328125 18.277344 4.480469 18.515625 L 4.882812 18.515625 L 6.660156 17.625 C 6.445312 18.300781 6.226562 18.972656 6.011719 19.640625 L 4.777344 19.9375 L 4.078125 19.703125 L 3.523438 19.328125 L 3.121094 17.875 C 2.984375 16.265625 3.507812 15.890625 4.820312 15.03125 Z M 36.550781 3.796875 L 39.488281 6.21875 C 40.09375 6.59375 40.695312 6.96875 41.292969 7.34375 L 41.449219 7.34375 C 41.984375 7.863281 42.515625 8.378906 43.039062 8.890625 L 43.890625 10.8125 C 43.695312 11.136719 43.5 11.464844 43.304688 11.796875 C 43.367188 12.308594 43.425781 12.8125 43.488281 13.3125 L 42.824219 13.421875 C 42.839844 13.09375 42.871094 12.78125 42.683594 12.46875 C 42.113281 12.359375 41.558594 12.28125 40.984375 12.296875 C 40.785156 11.984375 40.753906 11.53125 40.707031 11.234375 C 40.523438 11.109375 40.398438 11.0625 40.289062 10.8125 C 40.289062 10.765625 40.785156 10.875 40.800781 10.84375 C 41.710938 10.578125 42.035156 10.328125 42.050781 10.21875 C 41.972656 8.984375 40.863281 7.28125 39.6875 7.140625 C 39.023438 7.0625 38.730469 7.03125 37.910156 7.28125 C 38.683594 6.53125 38.28125 6.28125 37.925781 5.75 C 36.984375 4.40625 35.546875 3.453125 34.386719 2.359375 Z M 36.332031 11.421875 C 36.273438 11.53125 36.179688 11.703125 36.054688 11.828125 C 36.550781 12.296875 36.78125 12.609375 36.96875 13.265625 C 36.410156 13.535156 35.859375 13.8125 35.3125 14.09375 L 33.90625 15.453125 C 33.304688 15.125 33.148438 14.859375 32.855469 14.21875 C 32.5 14.3125 32.175781 14.40625 31.898438 14.296875 C 32.066406 14.296875 32.191406 14.25 32.363281 14.140625 L 33.257812 13.203125 C 33.785156 12.808594 34.308594 12.40625 34.835938 12 L 35.855469 11.671875 C 35.992188 11.609375 36.210938 11.484375 36.332031 11.421875 Z M 36.332031 11.421875 "/>
<path style=" stroke:none;fill-rule:nonzero;fill:rgb(80.000001%,80.000001%,0%);fill-opacity:1;" d="M 37.878906 13.078125 C 36.117188 14.03125 34.449219 14.984375 33.550781 16.796875 C 33.550781 14.5 35.824219 13.484375 37.878906 13.078125 Z M 33.195312 8.5625 C 31.898438 9.453125 30.972656 11.265625 31.09375 13.03125 C 30.675781 11.5 30.816406 10.0625 32.113281 9 C 32.339844 8.894531 32.5625 8.785156 32.777344 8.671875 C 32.921875 8.628906 33.0625 8.59375 33.195312 8.5625 Z M 33.195312 8.5625 "/>
<path style=" stroke:none;fill-rule:evenodd;fill:rgb(0%,0%,0%);fill-opacity:1;" d="M 50.90625 17.4375 C 50.738281 19.046875 50.320312 20.59375 49.5625 21.921875 C 48.882812 23.109375 47.957031 24.109375 46.6875 24.78125 C 45.839844 25.234375 44.847656 25.5 43.828125 25.609375 C 42.761719 25.71875 41.664062 25.671875 40.644531 25.5 L 40.492188 25.96875 L 40.320312 26.578125 C 40.105469 27.265625 39.609375 27.890625 38.992188 28.359375 C 38.34375 28.84375 37.570312 29.15625 36.828125 29.1875 C 36.132812 29.21875 35.59375 29.046875 35.113281 28.765625 C 34.648438 28.5 34.261719 28.109375 33.828125 27.6875 L 33.257812 27.140625 L 32.871094 26.765625 C 32.863281 26.859375 32.851562 26.941406 32.839844 27.015625 C 33.042969 27.421875 33.179688 27.8125 33.320312 28.203125 L 33.117188 28.28125 L 33.089844 28.296875 L 33.320312 28.203125 C 33.414062 28.464844 33.511719 28.71875 33.613281 28.96875 C 33.785156 29.375 33.90625 29.71875 34 30.0625 C 34.09375 30.421875 34.140625 30.765625 34.140625 31.21875 C 34.148438 31.582031 34.160156 31.953125 34.171875 32.328125 C 34.179688 32.683594 34.191406 33.035156 34.199219 33.390625 C 34.355469 33.671875 34.449219 33.859375 34.496094 34.078125 C 34.539062 34.3125 34.539062 34.53125 34.511719 34.890625 C 34.464844 35.703125 34.199219 36.15625 33.753906 36.421875 C 33.335938 36.65625 32.777344 36.6875 32.082031 36.6875 C 31.976562 36.6875 31.804688 36.6875 31.605469 36.6875 C 30.941406 36.6875 29.90625 36.6875 29.59375 36.671875 C 29.164062 36.640625 28.824219 36.609375 28.511719 36.53125 C 28.296875 36.46875 28.097656 36.390625 27.941406 36.28125 C 27.726562 36.46875 27.523438 36.640625 27.324219 36.796875 C 26.722656 37.296875 26.117188 37.796875 25.886719 37.953125 C 25.792969 38.109375 25.699219 38.25 25.625 38.390625 C 25.375 38.828125 25.191406 39.15625 24.605469 39.46875 C 23.460938 40.109375 22.5625 40.046875 21.789062 39.5625 C 21.050781 39.109375 20.429688 38.25 19.78125 37.25 C 19.472656 36.78125 18.992188 35.984375 18.761719 35.21875 C 18.484375 34.375 18.53125 33.546875 19.363281 33.109375 L 19.488281 33.046875 C 19.582031 33 19.65625 32.953125 19.734375 32.921875 C 19.417969 32.933594 19.097656 32.9375 18.777344 32.9375 C 18.148438 32.9375 17.519531 32.894531 16.890625 32.8125 C 16.902344 32.886719 16.914062 32.941406 16.921875 32.984375 C 16.96875 33.421875 17 33.703125 16.96875 33.984375 C 16.921875 34.265625 16.800781 34.53125 16.566406 34.890625 C 16.550781 34.921875 16.488281 35 16.445312 35.0625 C 16.226562 35.390625 16.089844 35.59375 15.777344 36.28125 C 15.808594 36.625 15.824219 36.90625 15.792969 37.171875 C 15.777344 37.46875 15.71875 37.765625 15.609375 38.15625 C 15.347656 39.140625 14.355469 39.375 13.277344 39.3125 C 12.285156 39.25 11.1875 38.921875 10.554688 38.75 C 10.417969 38.71875 10.308594 38.6875 10.199219 38.65625 C 9.660156 38.515625 9.085938 38.359375 8.609375 38.140625 C 7.648438 37.703125 7.015625 37 7.632812 35.65625 C 7.726562 35.449219 7.808594 35.234375 7.882812 35.015625 C 7.914062 34.933594 7.9375 34.855469 7.960938 34.78125 C 7.464844 34.859375 6.9375 34.765625 6.429688 34.5625 C 5.546875 34.234375 4.699219 33.578125 4.171875 33.046875 C 3.753906 32.625 3.429688 32.171875 3.183594 31.703125 C 2.9375 31.21875 2.765625 30.703125 2.671875 30.15625 C 2.535156 29.3125 2.628906 29.21875 3.121094 28.75 C 3.199219 28.671875 3.277344 28.59375 3.308594 28.578125 C 3.542969 28.328125 3.785156 28.082031 4.035156 27.84375 L 4.804688 27.0625 L 5.160156 26.078125 C 5.246094 25.871094 5.320312 25.660156 5.394531 25.453125 C 5.363281 25.253906 5.332031 25.058594 5.300781 24.859375 C 5.269531 24.628906 5.246094 24.417969 5.222656 24.21875 C 5.144531 23.328125 5.132812 22.5625 5.144531 21.875 C 5.167969 21.375 5.21875 20.878906 5.300781 20.390625 C 4.898438 20.484375 4.480469 20.46875 4.109375 20.34375 C 3.632812 20.203125 3.230469 19.875 2.984375 19.34375 C 2.890625 19.140625 2.8125 18.953125 2.734375 18.71875 C 2.6875 18.53125 2.628906 18.3125 2.566406 18.0625 C 2.226562 17.71875 2.039062 17.34375 1.976562 16.96875 C 1.902344 16.546875 1.992188 16.125 2.179688 15.703125 C 2.363281 15.3125 2.644531 14.9375 2.96875 14.609375 C 3.832031 13.6875 5.070312 13 5.640625 12.90625 L 6.074219 12.828125 L 5.917969 13.25 C 5.855469 13.453125 5.765625 13.671875 5.6875 13.890625 C 5.65625 13.953125 5.628906 14.015625 5.609375 14.078125 C 5.871094 14.296875 6.027344 14.59375 6.105469 14.9375 C 6.210938 15.453125 6.152344 16.046875 6.042969 16.484375 L 5.933594 17.015625 L 5.59375 16.59375 C 5.515625 16.484375 5.457031 16.390625 5.378906 16.28125 C 5.328125 16.1875 5.269531 16.105469 5.207031 16.03125 C 5.160156 16.71875 5.085938 17.421875 4.589844 17.90625 C 4.605469 17.953125 4.605469 17.984375 4.621094 17.984375 C 4.636719 18 4.714844 17.953125 4.914062 17.875 C 5.253906 17.734375 5.5625 17.515625 5.84375 17.25 C 6.152344 16.984375 6.414062 16.671875 6.691406 16.375 C 7 15.765625 7.355469 15.1875 7.757812 14.640625 C 8.191406 14.078125 8.683594 13.546875 9.226562 13.0625 C 10.585938 11.84375 11.898438 11.03125 13.398438 10.453125 C 14.867188 9.875 16.503906 9.515625 18.53125 9.1875 C 18.777344 8.917969 19.035156 8.652344 19.300781 8.390625 C 19.582031 8.109375 19.875 7.839844 20.183594 7.578125 C 20.601562 7.1875 20.972656 6.953125 21.328125 6.8125 C 21.652344 6.6875 21.960938 6.625 22.316406 6.609375 C 22.933594 5.78125 23.492188 5.0625 24.15625 4.453125 C 24.851562 3.796875 25.640625 3.265625 26.707031 2.8125 C 28.914062 1.875 30.785156 1.375 32.5625 1.5 C 34.339844 1.609375 36.007812 2.328125 37.800781 3.828125 C 38.140625 4.109375 38.480469 4.40625 38.820312 4.71875 C 39.578125 5.375 40.304688 6.03125 41.171875 6.578125 C 41.496094 6.78125 41.773438 6.953125 42.035156 7.171875 C 42.324219 7.390625 42.585938 7.640625 42.824219 7.921875 C 43.132812 8.296875 43.410156 8.671875 43.675781 9.078125 C 43.878906 9.421875 44.0625 9.785156 44.214844 10.171875 C 44.585938 10.015625 44.972656 9.859375 45.28125 9.578125 C 45.558594 9.359375 45.777344 9.03125 45.992188 8.6875 C 46.195312 8.40625 46.394531 8.109375 46.640625 7.859375 C 46.714844 7.777344 46.800781 7.714844 46.90625 7.671875 C 47.261719 7.46875 47.722656 7.5 48.15625 7.65625 C 48.574219 7.796875 48.976562 8.046875 49.238281 8.328125 C 49.363281 8.453125 49.46875 8.578125 49.53125 8.703125 C 50.074219 9.75 50.472656 11.21875 50.707031 12.71875 C 50.96875 14.40625 51.046875 16.15625 50.90625 17.4375 Z M 46.253906 23.859375 C 48.433594 22.625 49.640625 19.90625 49.902344 17.40625 C 50.148438 15.171875 49.734375 11.6875 48.820312 9.484375 C 48.621094 8.96875 47.785156 8.203125 47.261719 8.71875 C 46.71875 9.25 46.316406 9.984375 45.730469 10.453125 C 44.941406 11.09375 43.582031 10.875 43.828125 12.21875 C 44 13.1875 44.0625 14.28125 43.84375 15.1875 C 43.660156 16.0625 43.441406 17.3125 42.996094 17.890625 C 43.132812 17.40625 43.351562 16.109375 43.410156 15.234375 C 43.457031 14.75 43.394531 14.171875 43.304688 13.59375 L 43.011719 13.609375 C 42.65625 13.609375 42.050781 14.140625 41.898438 14.46875 C 41.449219 15.390625 41.417969 16.234375 40.921875 17.109375 C 41.324219 16.125 41.09375 15.25 41.464844 14.203125 C 41.589844 13.828125 41.914062 13.515625 42.300781 13.328125 C 42.082031 13.296875 41.882812 13.390625 41.574219 13.453125 C 40.226562 13.78125 40.289062 14.84375 39.472656 15.84375 C 40.257812 14.375 39.855469 13.40625 41.574219 13.015625 C 42.128906 12.890625 42.546875 12.84375 42.917969 13.140625 C 42.925781 13.140625 42.9375 13.136719 42.949219 13.125 L 43.226562 13.109375 C 43.179688 12.84375 43.132812 12.578125 43.085938 12.328125 C 42.300781 12.21875 41.574219 12.25 40.769531 12.375 C 40.945312 12.292969 41.113281 12.21875 41.277344 12.15625 C 41.234375 12.109375 41.1875 12.046875 41.15625 11.96875 L 41.15625 11.953125 C 41.046875 11.75 41 11.515625 41.03125 11.28125 C 41.046875 11.109375 41.09375 10.9375 41.1875 10.78125 C 41.15625 10.792969 41.128906 10.800781 41.109375 10.8125 C 40.921875 10.890625 40.507812 10.859375 40.320312 10.796875 C 40.691406 10.734375 41.21875 10.546875 41.574219 10.375 L 41.605469 10.359375 C 41.929688 10.15625 42.359375 10.125 42.730469 10.296875 C 42.886719 10.34375 43.070312 10.40625 43.289062 10.484375 C 42.949219 9.796875 42.578125 9.15625 42.128906 8.53125 C 41.710938 7.9375 41.355469 7.734375 40.722656 7.359375 C 40.589844 7.277344 40.453125 7.191406 40.320312 7.109375 C 39.855469 7.015625 39.347656 6.9375 38.898438 7.015625 C 39.269531 6.875 39.546875 6.8125 39.871094 6.796875 C 38.976562 6.140625 38.21875 5.421875 37.339844 4.6875 C 33.96875 1.8125 31.234375 2.015625 26.9375 3.90625 C 25.191406 4.671875 24.558594 5.4375 23.492188 6.828125 L 23.523438 6.828125 C 24.617188 6.796875 25.699219 6.765625 26.828125 6.65625 C 25.65625 6.9375 24.558594 7.15625 23.414062 7.328125 C 22.144531 7.515625 21.777344 7.484375 20.816406 8.421875 C 19.070312 10.140625 17.601562 12.078125 16.011719 13.828125 C 15.082031 14.84375 14.621094 15.84375 14.078125 17 C 13.539062 18.140625 13.617188 18.578125 14.34375 19.5625 C 15.082031 20.578125 15.515625 21.046875 15.839844 21.9375 C 16.660156 20.671875 17.632812 19.609375 18.667969 18.34375 C 17.835938 19.71875 17.0625 21.015625 16.351562 22.40625 C 15.917969 23.28125 15.703125 23.71875 15.71875 24.6875 C 16.535156 25.640625 17.046875 26.140625 17.820312 26.359375 C 18.636719 26.578125 19.410156 26.546875 20.136719 26.15625 C 21.992188 25.1875 23.738281 23.9375 25.777344 23.78125 C 26.828125 21.875 26.535156 19.484375 26.164062 17.3125 C 25.855469 15.515625 25.933594 13.9375 26.351562 12.125 C 26.457031 13.890625 26.597656 15.515625 26.9375 17.234375 C 27.449219 19.75 27.539062 21.921875 26.503906 24.515625 C 24.234375 24.578125 22.378906 25.90625 20.382812 26.953125 C 19.472656 27.421875 18.636719 27.453125 17.632812 27.21875 C 16.597656 26.96875 15.808594 26.171875 14.757812 25 C 14.867188 24.109375 14.976562 23.5625 15.285156 22.90625 C 14.914062 21.765625 14.449219 21.234375 13.570312 20.0625 C 12.578125 18.703125 12.566406 18.109375 13.320312 16.546875 C 13.863281 15.4375 14.371094 14.390625 15.238281 13.359375 C 16.089844 12.359375 16.875 11.40625 17.664062 10.515625 C 14.371094 11.015625 12.269531 11.8125 10.03125 13.8125 C 8.359375 15.28125 7.324219 17.125 6.582031 19.25 C 6.121094 20.578125 5.980469 21.921875 6.210938 24.109375 C 6.492188 26.9375 7.972656 30.109375 9.566406 32.4375 C 9.367188 33.875 9.117188 34.96875 8.714844 36 C 8.269531 37.171875 10.0625 37.53125 10.925781 37.765625 C 11.636719 37.953125 14.3125 38.703125 14.574219 37.75 C 14.742188 37.171875 14.742188 36.765625 14.699219 36.15625 C 15.175781 35.203125 15.316406 35.0625 15.65625 34.5 C 16.027344 33.890625 16.058594 33.640625 16.058594 32.921875 C 16.058594 32 16.042969 30.359375 16.074219 29.765625 C 16.195312 30.296875 16.351562 31.03125 16.472656 31.75 C 18.375 32.09375 20.261719 32.0625 22.160156 31.671875 C 22.191406 31.53125 22.238281 31.390625 22.285156 31.21875 C 22.410156 30.765625 22.671875 30.3125 22.796875 29.859375 C 22.753906 30.308594 22.71875 30.75 22.6875 31.1875 C 22.65625 31.640625 22.65625 32.015625 22.703125 32.46875 L 22.796875 33.21875 C 22.65625 33 22.441406 32.78125 22.316406 32.546875 C 21.480469 33.109375 21.003906 33.421875 20.183594 33.875 C 19.300781 34.34375 20.308594 36.03125 20.664062 36.609375 C 21.464844 37.890625 22.425781 39.40625 23.90625 38.609375 C 24.386719 38.359375 24.679688 37.75 25.003906 37.3125 C 25.4375 37.0625 27.742188 35.09375 28.113281 34.875 C 28.621094 34.578125 30.492188 31.484375 30.722656 30.71875 C 31.25 29 31.867188 27.703125 32.039062 25.921875 C 30.847656 25.421875 30.277344 24.859375 29.425781 23.84375 C 30.617188 24.75 31.652344 25.21875 32.949219 25.640625 C 33.414062 26.0625 33.890625 26.484375 34.386719 26.921875 C 35.097656 27.5625 35.746094 28.21875 36.78125 28.25 C 37.910156 28.265625 39.175781 27.390625 39.5 26.328125 L 39.886719 25.078125 C 39.660156 25.027344 39.445312 24.96875 39.238281 24.90625 C 39.007812 25.46875 39.023438 25.6875 38.914062 26.09375 C 38.714844 26.8125 37.753906 27.3125 36.734375 27.0625 C 36.378906 26.96875 36.164062 26.921875 36.039062 26.828125 C 36.148438 27.109375 36.332031 27.34375 36.703125 27.40625 C 37.121094 27.484375 37.414062 27.515625 38.019531 27.390625 C 37.277344 27.765625 37.042969 27.78125 36.519531 27.671875 C 35.160156 27.359375 35.636719 25.6875 35.933594 24.671875 C 36.117188 24.03125 36.054688 23.359375 35.917969 22.703125 C 36.441406 23.046875 36.84375 23.328125 37.429688 23.53125 C 40.199219 24.46875 43.472656 25.4375 46.253906 23.859375 Z M 33.226562 33.609375 L 33.164062 31.234375 C 33.148438 30.484375 33.011719 30.046875 32.71875 29.359375 C 32.546875 28.9375 32.4375 28.546875 32.332031 28.15625 C 32.066406 29.09375 31.710938 29.984375 31.386719 31 C 31.09375 31.96875 29.535156 34.765625 28.621094 35.453125 C 28.808594 35.578125 29.132812 35.625 29.71875 35.6875 C 30.121094 35.71875 31.742188 35.71875 32.160156 35.734375 C 33.058594 35.75 33.398438 35.6875 33.472656 34.65625 C 33.519531 34.140625 33.488281 34.046875 33.226562 33.609375 Z M 5.65625 27.703125 L 4.1875 29.203125 C 3.832031 29.578125 3.753906 29.59375 3.832031 30.109375 C 3.925781 30.84375 4.34375 31.609375 4.976562 32.265625 C 5.5625 32.859375 7.542969 34.40625 8.328125 33.34375 C 8.5 33.125 8.578125 32.84375 8.640625 32.5625 L 8.640625 32.53125 C 7.558594 30.84375 6.566406 28.859375 5.980469 26.828125 Z M 3.214844 17.765625 C 3.355469 18.25 3.460938 18.640625 3.648438 19.046875 C 4.035156 19.859375 5.039062 19.640625 5.8125 19.3125 C 5.832031 19.25 5.851562 19.183594 5.871094 19.109375 C 5.996094 18.714844 6.128906 18.324219 6.273438 17.9375 C 5.964844 18.21875 5.625 18.453125 5.222656 18.625 C 4.140625 19.0625 4.171875 18.6875 3.710938 17.734375 C 4.683594 16.953125 4.234375 15.984375 4.542969 14.890625 C 4.621094 14.640625 4.730469 14.390625 4.867188 14.0625 C 3.847656 14.6875 1.960938 16.4375 3.214844 17.765625 Z M 5.132812 14.65625 C 5.109375 14.71875 5.09375 14.78125 5.085938 14.84375 C 5.054688 14.957031 5.027344 15.082031 5.007812 15.21875 C 5.207031 15.203125 5.332031 15.3125 5.488281 15.46875 C 5.457031 15.09375 5.394531 14.8125 5.132812 14.65625 Z M 43.070312 10.53125 C 43.183594 10.644531 43.273438 10.78125 43.335938 10.9375 C 43.367188 10.90625 43.402344 10.875 43.441406 10.84375 C 43.390625 10.738281 43.34375 10.636719 43.304688 10.53125 C 43.222656 10.53125 43.144531 10.53125 43.070312 10.53125 Z M 2.8125 12.78125 C 1.191406 14.515625 0.757812 15.5 0.554688 17.796875 C 0.277344 14.875 0.789062 14.21875 2.8125 12.78125 Z M 5.007812 18.109375 L 4.992188 18.09375 Z M 49.347656 21.796875 L 49.363281 21.796875 Z M 49.347656 21.796875 "/>
<path style=" stroke:none;fill-rule:nonzero;fill:rgb(0%,0%,0%);fill-opacity:1;" d="M 0.03125 15.921875 C 0.261719 14.890625 0.464844 14.5 1.097656 13.640625 C 0.078125 14.375 -0.0625 14.671875 0.03125 15.921875 Z M 23.785156 1.5 C 22.578125 1.796875 22.347656 2.03125 21.976562 3.234375 C 22.5625 2.34375 22.886719 2.0625 23.785156 1.5 Z M 23.785156 1.5 "/>
<path style=" stroke:none;fill-rule:evenodd;fill:rgb(0%,0%,0%);fill-opacity:1;" d="M 21.789062 5.171875 C 22.578125 2.34375 23.289062 1.921875 25.699219 1.328125 C 23.566406 2.34375 22.796875 3.109375 21.789062 5.171875 Z M 33.351562 8.5 C 31.589844 9.359375 31.140625 10.453125 30.878906 11.609375 C 30.585938 10.078125 31.015625 9.09375 33.351562 8.5 Z M 43.953125 11.484375 C 44.632812 11.546875 45.019531 11.65625 45.621094 11.34375 C 46.765625 10.78125 47.601562 9.84375 48.140625 8.734375 C 47.816406 10.0625 47.152344 11.1875 45.761719 11.6875 C 45.082031 11.9375 44.648438 11.671875 43.953125 11.484375 Z M 36.472656 13.328125 C 36.984375 13.15625 37.476562 13.078125 37.910156 13.078125 C 36.394531 13.515625 34.773438 14.515625 33.660156 15.859375 C 33.785156 15.515625 33.953125 15.199219 34.171875 14.90625 C 33.660156 14.640625 33.335938 14.109375 33.320312 13.515625 C 32.949219 13.8125 32.546875 14.109375 32.113281 14.28125 C 32.703125 13.75 33.488281 12.5 34.078125 12.109375 C 34.726562 11.65625 35.605469 11.75 36.378906 11.390625 C 36.117188 11.625 35.777344 11.8125 35.4375 12 C 35.824219 12.140625 36.148438 12.4375 36.332031 12.8125 C 36.40625 12.980469 36.453125 13.152344 36.472656 13.328125 Z M 35.652344 21.859375 C 35.933594 21.8125 36.441406 21.71875 36.703125 21.671875 C 36.441406 21.8125 35.949219 22.015625 35.683594 22.171875 C 35.296875 22.375 35.207031 22.421875 35.019531 22.8125 C 34.867188 23.1875 34.679688 23.640625 34.539062 24.03125 C 34.585938 23.6875 34.664062 23.25 34.726562 22.90625 C 34.835938 22.171875 34.925781 22 35.652344 21.859375 Z M 23.582031 8.921875 C 24.53125 8.839844 25.480469 8.738281 26.425781 8.625 C 25.59375 8.953125 24.820312 9.203125 24 9.421875 C 23.257812 10.40625 22.796875 10.921875 22.625 12.25 C 22.425781 10.9375 22.394531 10.703125 22.964844 9.71875 C 22.796875 9.8125 22.640625 9.921875 22.425781 10.125 C 21.621094 10.8125 20.570312 13.546875 20.152344 14.53125 C 20.414062 13.34375 21.25 10.40625 22.101562 9.546875 C 22.671875 8.984375 22.796875 9 23.582031 8.921875 Z M 23.582031 8.921875 "/>
<path style=" stroke:none;fill-rule:nonzero;fill:rgb(100%,100%,80.000001%);fill-opacity:1;" d="M 33.785156 14.5625 C 33.628906 14.234375 33.769531 13.828125 34.09375 13.671875 C 34.417969 13.515625 34.820312 13.65625 34.972656 13.984375 C 34.984375 14.015625 34.996094 14.046875 35.003906 14.078125 C 34.695312 14.3125 34.402344 14.59375 34.171875 14.90625 C 34 14.84375 33.859375 14.734375 33.785156 14.5625 Z M 41.109375 11.6875 C 41.125 11.421875 41.355469 11.21875 41.632812 11.25 C 41.914062 11.265625 42.097656 11.515625 42.082031 11.78125 C 42.074219 11.84375 42.058594 11.902344 42.035156 11.953125 C 41.789062 12 41.542969 12.0625 41.277344 12.15625 C 41.171875 12.046875 41.09375 11.84375 41.109375 11.6875 Z M 41.109375 11.6875 "/>
</g>
</svg>
