<?xml version="1.0" encoding="UTF-8"?>
<svg xmlns="http://www.w3.org/2000/svg" xmlns:xlink="http://www.w3.org/1999/xlink" width="px" height="40px" viewBox="0 0 40 40" version="1.1">
<g id="surface1">
<path style=" stroke:none;fill-rule:nonzero;fill:rgb(89.411765%,30.19608%,14.901961%);fill-opacity:1;" d="M 5.949219 35.585938 L 2.824219 0.519531 L 37.175781 0.519531 L 34.046875 35.582031 L 19.980469 39.480469 Z M 5.949219 35.585938 "/>
<path style=" stroke:none;fill-rule:nonzero;fill:rgb(94.509804%,39.607844%,16.078432%);fill-opacity:1;" d="M 20 36.5 L 31.367188 33.347656 L 34.042969 3.386719 L 20 3.386719 Z M 20 36.5 "/>
<path style=" stroke:none;fill-rule:nonzero;fill:rgb(92.156863%,92.156863%,92.156863%);fill-opacity:1;" d="M 20 16.390625 L 14.308594 16.390625 L 13.914062 11.988281 L 20 11.988281 L 20 7.6875 L 9.214844 7.6875 L 9.320312 8.839844 L 10.375 20.691406 L 20 20.691406 Z M 20 27.5625 L 19.980469 27.566406 L 15.191406 26.273438 L 14.886719 22.84375 L 10.566406 22.84375 L 11.171875 29.597656 L 19.980469 32.042969 L 20 32.035156 Z M 20 27.5625 "/>
<path style=" stroke:none;fill-rule:nonzero;fill:rgb(100%,100%,100%);fill-opacity:1;" d="M 19.984375 16.390625 L 19.984375 20.691406 L 25.28125 20.691406 L 24.78125 26.269531 L 19.984375 27.566406 L 19.984375 32.039062 L 28.800781 29.597656 L 28.867188 28.871094 L 29.878906 17.546875 L 29.980469 16.390625 Z M 19.984375 7.6875 L 19.984375 11.988281 L 30.375 11.988281 L 30.460938 11.023438 L 30.65625 8.839844 L 30.757812 7.6875 Z M 19.984375 7.6875 "/>
</g>
</svg>
