<?xml version="1.0" encoding="UTF-8"?>
<svg xmlns="http://www.w3.org/2000/svg" xmlns:xlink="http://www.w3.org/1999/xlink" width="px" height="40px" viewBox="0 0 29 39" version="1.1">
<g id="surface1">
<path style=" stroke:none;fill-rule:nonzero;fill:rgb(0%,45.490196%,74.117649%);fill-opacity:1;" d="M 9.285156 30.058594 C 9.285156 30.058594 7.789062 30.925781 10.351562 31.214844 C 13.449219 31.566406 15.039062 31.503906 18.449219 30.863281 C 18.449219 30.863281 19.34375 31.429688 20.609375 31.902344 C 12.941406 35.144531 3.269531 31.71875 9.285156 30.058594 Z M 8.34375 25.835938 C 8.34375 25.835938 6.664062 27.054688 9.222656 27.316406 C 12.539062 27.648438 15.164062 27.679688 19.683594 26.828125 C 19.683594 26.828125 20.316406 27.453125 21.289062 27.789062 C 12.03125 30.46875 1.726562 28 8.34375 25.835938 Z M 8.34375 25.835938 "/>
<path style=" stroke:none;fill-rule:nonzero;fill:rgb(91.764706%,17.647059%,18.039216%);fill-opacity:1;" d="M 16.242188 18.648438 C 18.125 20.796875 15.734375 22.730469 15.734375 22.730469 C 15.734375 22.730469 20.53125 20.292969 18.324219 17.230469 C 16.273438 14.382812 14.699219 12.964844 23.230469 8.074219 C 23.230469 8.074219 9.839844 11.378906 16.242188 18.648438 Z M 16.242188 18.648438 "/>
<path style=" stroke:none;fill-rule:evenodd;fill:rgb(0%,45.490196%,74.117649%);fill-opacity:1;" d="M 1.960938 36.121094 C -3.777344 35.207031 4.703125 32.007812 6.261719 33.089844 C 6.261719 33.089844 5.769531 33.042969 4.90625 33.226562 C 4.085938 33.410156 1.464844 34.246094 2.871094 34.839844 C 6.742188 36.5 20.730469 36.105469 25.144531 34.78125 C 27.472656 34.09375 26.363281 33.195312 26.363281 33.195312 C 30.417969 34.992188 17.570312 38.617188 1.960938 36.121094 Z M 9.996094 21.449219 C 9.996094 21.449219 2.882812 23.109375 7.480469 23.71875 C 9.425781 23.980469 13.28125 23.917969 16.890625 23.613281 C 19.835938 23.371094 22.785156 22.851562 22.785156 22.851562 C 22.785156 22.851562 21.75 23.292969 20.996094 23.796875 C 13.773438 25.671875 -0.167969 24.800781 3.839844 22.882812 C 7.234375 21.265625 9.996094 21.449219 9.996094 21.449219 Z M 22.753906 28.488281 C 30.09375 24.726562 26.703125 21.101562 24.339844 21.585938 C 23.753906 21.710938 23.492188 21.816406 23.492188 21.816406 C 23.492188 21.816406 23.710938 21.480469 24.125 21.328125 C 28.816406 19.714844 32.410156 26.125 22.613281 28.6875 C 22.613281 28.6875 22.722656 28.578125 22.753906 28.488281 Z M 22.753906 28.488281 "/>
<path style=" stroke:none;fill-rule:nonzero;fill:rgb(91.764706%,17.647059%,18.039216%);fill-opacity:1;" d="M 18.324219 0.183594 C 18.324219 0.183594 22.398438 4.1875 14.484375 10.375 C 8.128906 15.324219 13.035156 18.144531 14.46875 21.375 C 10.765625 18.066406 8.050781 15.160156 9.871094 12.460938 C 12.554688 8.484375 19.976562 6.550781 18.324219 0.183594 Z M 18.324219 0.183594 "/>
<path style=" stroke:none;fill-rule:nonzero;fill:rgb(0%,45.490196%,74.117649%);fill-opacity:1;" d="M 10.722656 38.695312 C 17.769531 39.136719 28.582031 38.453125 28.847656 35.160156 C 28.847656 35.160156 28.351562 36.410156 23.03125 37.398438 C 17.015625 38.511719 9.59375 38.390625 5.199219 37.660156 C 5.199219 37.660156 6.09375 38.40625 10.722656 38.695312 Z M 10.722656 38.695312 "/>
</g>
</svg>
