<?xml version="1.0" encoding="UTF-8"?>
<svg xmlns="http://www.w3.org/2000/svg" xmlns:xlink="http://www.w3.org/1999/xlink" width="px" height="40px" viewBox="0 0 41 40" version="1.1">
<g id="surface1">
<path style="fill-rule:nonzero;fill:rgb(19.607843%,42.352942%,89.803922%);fill-opacity:1;stroke-width:0.1;stroke-linecap:butt;stroke-linejoin:miter;stroke:rgb(100%,100%,100%);stroke-opacity:1;stroke-miterlimit:4;" d="M 131.094512 0.4 C 130.490854 0.4 129.912348 0.475 129.308689 0.6 C 128.755335 0.675 128.201982 0.775 127.598323 0.9 C 127.070122 1.025 126.541921 1.2 125.988567 1.4 C 125.410061 1.6 124.856707 1.825 124.403963 2.1 L 32.89939 45.9 C 31.692073 46.425 30.560213 47.1 29.503811 47.9 C 28.497713 48.7 27.592226 49.625 26.8125 50.7 C 25.932165 51.7 25.227896 52.8 24.699695 54 C 24.096037 55.125 23.668445 56.325 23.391768 57.6 L 0.804878 155.9 C 0.528201 157.025 0.402439 158.2 0.402439 159.4 C 0.326982 160.525 0.402439 161.675 0.603659 162.8 C 0.804878 163.925 1.13186 165.075 1.609756 166.2 C 2.012195 167.275 2.540396 168.3 3.19436 169.3 C 3.269817 169.375 3.345274 169.475 3.395579 169.6 C 3.471037 169.725 3.571646 169.875 3.697409 170 C 3.772866 170.075 3.823171 170.175 3.898628 170.3 C 4.02439 170.425 4.125 170.525 4.200457 170.6 L 67.509146 249.5 C 68.288872 250.5 69.244665 251.4 70.301067 252.2 C 71.307165 253 72.38872 253.7 73.596037 254.3 C 74.803354 254.825 76.035823 255.275 77.293445 255.6 C 78.57622 255.875 79.858994 256 81.192073 256 L 182.807927 256 C 184.065549 256 185.373476 255.825 186.706555 255.5 C 187.964177 255.225 189.171494 254.825 190.303354 254.3 C 191.510671 253.7 192.64253 253 193.698933 252.2 C 194.70503 251.4 195.610518 250.475 196.390244 249.4 L 259.698933 170.6 C 260.554116 169.6 261.258384 168.5 261.811738 167.3 C 262.390244 166.175 262.842988 164.925 263.094512 163.6 C 263.421494 162.325 263.597561 161.075 263.597561 159.8 C 263.597561 158.475 263.421494 157.175 263.094512 155.9 L 240.507622 57.6 C 240.230945 56.325 239.803354 55.1 239.199695 53.9 C 238.671494 52.775 237.967226 51.7 237.112043 50.7 C 236.307165 49.625 235.401677 48.7 234.395579 47.9 C 233.339177 47.1 232.23247 46.4 231.10061 45.8 L 139.495427 2.1 C 138.891768 1.775 138.237805 1.5 137.508384 1.3 C 136.829268 1.025 136.125 0.825 135.395579 0.7 C 134.666159 0.575 133.936738 0.475 133.207317 0.4 C 132.528201 0.325 131.823933 0.325 131.094512 0.4 Z M 131.094512 0.4 " transform="matrix(0.155303,0,0,0.15625,0,0)"/>
<path style="fill-rule:evenodd;fill:rgb(100%,100%,100%);fill-opacity:1;stroke-width:0.1;stroke-linecap:butt;stroke-linejoin:miter;stroke:rgb(100%,100%,100%);stroke-opacity:1;stroke-miterlimit:4;" d="M 140.803354 43.3 C 140.803354 43.8 140.803354 44.4 140.803354 44.9 C 140.803354 46.8 140.300305 48.3 140.099085 50.1 C 139.596037 53.9 139.193598 57.1 139.495427 60 C 139.696646 61.5 140.501524 62.1 141.205793 62.8 C 141.306402 63.2 141.306402 64.5 141.407012 65.2 C 158.8125 66.8 175.010671 74.7 186.807165 87.2 L 188.894817 85.7 C 189.599085 85.8 191.208841 86 192.189787 85.4 C 194.70503 83.7 196.893293 81.4 199.609756 78.7 C 200.89253 77.3 201.798018 76.1 203.206555 74.8 C 203.608994 74.5 204.112043 74.2 204.489329 73.9 C 207.105183 71.8 210.701982 72 212.588415 74.4 C 214.5 76.7 213.896341 80.3 211.30564 82.4 C 210.903201 82.7 210.400152 83.1 210.098323 83.4 C 208.488567 84.6 207.105183 85.1 205.495427 86.1 C 202.200457 88.1 199.509146 89.8 197.396341 91.8 C 196.390244 92.9 196.390244 93.9 196.390244 94.9 C 195.987805 95.2 195.00686 96.1 194.403201 96.6 C 199.106707 103.7 202.703506 111.7 204.690549 120.4 C 206.702744 129 207.004573 137.7 205.797256 146 L 208.010671 146.6 C 208.387957 147.2 209.192835 148.6 210.400152 149 C 213.192073 149.9 216.411585 150.2 220.209604 150.6 C 221.995427 150.8 223.605183 150.7 225.491616 151 C 225.894055 151.1 226.598323 151.3 227.101372 151.4 C 230.295732 152.2 232.408537 155.2 231.704268 158.1 C 231 161 227.90625 162.8 224.61128 162.1 C 224.61128 162.1 224.560976 162.1 224.510671 162.1 C 224.510671 162.1 224.460366 162.075 224.410061 162 C 224.007622 161.9 223.403963 161.8 223.001524 161.7 C 221.089939 161.2 219.807165 160.5 218.096799 159.8 C 214.5 158.5 211.50686 157.5 208.589177 157 C 207.105183 156.9 206.300305 157.6 205.495427 158.2 C 205.092988 158.1 203.910823 157.9 203.105945 157.8 C 197.89939 174.3 186.706555 188.6 171.589939 197.5 C 171.791159 198.1 172.294207 199.5 172.495427 199.7 C 172.092988 200.7 171.589939 201.5 172.092988 203 C 173.099085 205.7 174.910061 208.4 176.897104 211.7 C 177.903201 213.2 179.009909 214.3 179.890244 216 C 180.091463 216.4 180.393293 217.1 180.594512 217.5 C 182.003049 220.5 180.996951 224 178.20503 225.3 C 175.488567 226.6 172.092988 225.2 170.709604 222.2 C 170.508384 221.8 170.206555 221.2 170.005335 220.8 C 169.200457 219 168.999238 217.5 168.395579 215.8 C 167.188262 212.1 166.106707 209.1 164.597561 206.5 C 163.792683 205.3 162.811738 205.2 161.90625 204.8 C 161.70503 204.5 161.000762 203.4 160.698933 202.7 C 157.630335 203.9 154.511433 204.875 151.291921 205.6 C 137.105945 208.8 122.794207 207.5 110.092226 202.6 L 108.910061 204.9 C 108.004573 205.1 107.099085 205.4 106.495427 206 C 104.508384 208.4 103.703506 212.2 102.29497 215.9 C 101.791921 217.6 101.490091 219.1 100.710366 220.9 C 100.509146 221.3 100.307927 221.8 100.006098 222.3 C 98.597561 225.3 95.201982 226.7 92.510671 225.4 C 89.794207 224.1 88.6875 220.6 90.096037 217.6 C 90.397866 217.2 90.599085 216.5 90.800305 216.1 C 91.806402 214.4 92.8125 213.2 93.793445 211.7 C 95.90625 208.5 97.692073 205.6 98.698171 202.8 C 99 201.9 98.597561 200.7 98.295732 199.7 L 99.20122 197.3 C 84.688262 188.7 73.193598 174.9 67.710366 157.9 L 65.295732 158.3 C 64.591463 157.9 63.308689 157.1 62.101372 157.2 C 59.208841 157.6 56.190549 158.7 52.59375 160 C 50.908537 160.6 49.5 161.4 47.689024 161.9 C 47.311738 162 46.708079 162.1 46.20503 162.2 C 46.20503 162.2 46.154726 162.2 46.104421 162.2 C 42.809451 162.9 39.690549 161.1 39.011433 158.2 C 38.307165 155.3 40.394817 152.3 43.589177 151.5 C 43.664634 151.5 43.689787 151.5 43.689787 151.5 C 43.689787 151.5 43.740091 151.5 43.790396 151.5 C 44.192835 151.4 44.796494 151.2 45.198933 151.2 C 47.110518 150.8 48.695122 150.9 50.506098 150.7 C 54.304116 150.3 57.498476 150 60.290396 149.1 C 61.195884 148.8 62.000762 147.5 62.604421 146.8 L 64.893293 146.1 C 62.403201 128.3 66.704268 110.8 76.11128 96.6 L 74.400915 95.1 C 74.199695 94.4 74.099085 92.8 73.294207 91.9 C 71.105945 89.9 68.389482 88.2 65.094512 86.2 C 63.610518 85.3 62.101372 84.7 60.592226 83.5 C 60.189787 83.3 59.8125 82.9 59.410061 82.6 C 59.410061 82.6 59.410061 82.575 59.410061 82.5 C 56.693598 80.4 56.089939 76.8 58.001524 74.5 C 59.108232 73.1 60.692835 72.5 62.403201 72.5 C 63.711128 72.6 64.993902 73 66.20122 74 C 66.603659 74.3 67.106707 74.7 67.408537 74.9 C 68.89253 76.2 69.798018 77.5 71.005335 78.8 C 73.696646 81.5 75.910061 83.8 78.400152 85.4 C 79.708079 86.2 80.689024 85.9 81.594512 85.8 C 81.996951 86 83.003049 86.8 83.606707 87.2 C 92.887957 77.3 105.1875 69.9 119.398628 66.7 C 122.743902 65.975 126.038872 65.475 129.308689 65.2 L 129.409299 62.9 C 130.189024 62.2 130.993902 61.1 131.195122 60 C 131.496951 57.1 131.094512 53.9 130.591463 50.1 C 130.390244 48.3 129.912348 46.8 129.912348 44.9 C 129.811738 44.5 129.912348 43.9 129.912348 43.5 C 129.912348 43.425 129.912348 43.375 129.912348 43.3 C 129.912348 39.9 132.301829 37.2 135.29497 37.2 C 138.38872 37.2 140.803354 39.9 140.803354 43.3 Z M 122.592988 80.7 C 112.003811 83.2 102.697409 88.4 95.503811 95.6 L 118.996189 112.3 L 119.096799 112.3 C 119.901677 112.8 120.807165 113.2 121.88872 113.2 C 124.504573 113.2 126.592226 111.1 126.692835 108.6 L 126.894055 108.5 L 128.503811 79.7 C 126.567073 79.975 124.605183 80.3 122.592988 80.7 Z M 143.796494 108.4 L 143.897104 108.5 C 143.897104 109.4 144.198933 110.4 144.903201 111.3 C 146.487805 113.3 149.506098 113.7 151.49314 112.2 L 151.59375 112.2 L 175.010671 95.6 C 166.207317 86.9 154.6875 81.3 142.21189 79.7 Z M 78.903201 142 L 106.495427 134.1 L 106.495427 134 C 107.400915 133.7 108.306402 133.2 109.010671 132.3 C 110.595274 130.3 110.293445 127.4 108.407012 125.7 L 108.407012 125.6 L 86.901677 106.3 C 80.487805 116.7 77.494665 129.2 78.903201 142 Z M 162.208079 125.5 C 161.403201 126.2 160.900152 127.1 160.698933 128.1 C 160.095274 130.6 161.604421 133.2 164.094512 133.8 L 164.094512 134 L 191.8125 141.9 C 192.391006 136 191.988567 129.8 190.605183 123.6 C 189.196646 117.3 186.807165 111.5 183.587652 106.3 C 183.587652 106.3 162.208079 125.5 162.208079 125.5 Z M 125.410061 133.9 L 127.397104 142.4 L 135.29497 146.2 L 143.192835 142.4 L 145.20503 133.9 L 139.696646 127 L 130.893293 127 Z M 157.303354 151 C 154.88872 152.2 153.907774 154.9 154.88872 157.3 L 166.006098 184.1 C 176.695884 177.3 184.59375 167.1 188.794207 155.4 L 160.296494 150.6 L 160.195884 150.6 C 159.868902 150.525 159.491616 150.5 159.089177 150.5 C 158.510671 150.575 157.907012 150.725 157.303354 151 Z M 110.293445 150.7 L 110.192835 150.7 L 81.996951 155.5 C 86.298018 167.6 94.497713 177.4 104.709604 184 L 115.70122 157.5 L 115.60061 157.4 C 116.003049 156.5 116.103659 155.5 115.902439 154.4 C 115.39939 152.2 113.412348 150.7 111.198933 150.7 C 110.922256 150.7 110.645579 150.7 110.293445 150.7 Z M 130.993902 164.8 L 117.109756 190 C 126.692835 193.3 137.407774 194 147.996951 191.6 C 149.933689 191.125 151.79497 190.6 153.605945 190 L 139.696646 164.8 L 139.495427 164.8 C 139.092988 163.9 138.28811 163.2 137.407774 162.8 C 136.678354 162.4 135.898628 162.225 135.09375 162.3 C 133.509146 162.3 131.89939 163.3 130.993902 164.8 Z M 130.993902 164.8 " transform="matrix(0.155303,0,0,0.15625,0,0)"/>
</g>
</svg>
