<?xml version="1.0" encoding="UTF-8"?>
<svg xmlns="http://www.w3.org/2000/svg" xmlns:xlink="http://www.w3.org/1999/xlink" width="px" height="40px" viewBox="0 0 63 40" version="1.1">
<g id="surface1">
<path style="fill-rule:nonzero;fill:rgb(100%,100%,100%);fill-opacity:1;stroke-width:6;stroke-linecap:butt;stroke-linejoin:round;stroke:rgb(100%,100%,100%);stroke-opacity:1;stroke-miterlimit:4;" d="M 22.995536 21 L 380.00248 21 L 380.00248 236 L 22.995536 236 Z M 22.995536 21 " transform="matrix(0.155941,0,0,0.15625,0,0)"/>
<path style="fill-rule:evenodd;fill:rgb(0%,0%,0%);fill-opacity:1;stroke-width:6;stroke-linecap:butt;stroke-linejoin:round;stroke:rgb(100%,100%,100%);stroke-opacity:1;stroke-miterlimit:4;" d="M 368.705109 1.4 C 387.392113 1.4 402.697421 17 402.697421 35.6 L 402.697421 221.2 C 402.697421 239.8 387.392113 255.4 368.705109 255.4 L 35.294891 255.4 C 16.607887 255.4 1.302579 239.8 1.302579 221.2 L 1.302579 35.6 C 1.302579 17 16.607887 1.4 35.294891 1.4 Z M 31.787946 222.8 C 31.787946 223.9 32.689732 224.8 33.791915 224.8 L 370.208085 224.8 C 371.310268 224.8 372.212054 223.9 372.212054 222.8 L 372.212054 34 C 372.212054 32.9 371.310268 32 370.208085 32 L 33.791915 32 C 32.689732 32 31.787946 32.9 31.787946 34 Z M 31.787946 222.8 " transform="matrix(0.155941,0,0,0.15625,0,0)"/>
<path style="fill-rule:nonzero;fill:rgb(0%,0%,0%);fill-opacity:1;stroke-width:6;stroke-linecap:butt;stroke-linejoin:round;stroke:rgb(100%,100%,100%);stroke-opacity:1;stroke-miterlimit:4;" d="M 63.400546 192.8 L 63.400546 64 L 100.899802 64 L 138.298859 111.4 L 175.798115 64 L 213.197173 64 L 213.197173 192.8 L 175.798115 192.8 L 175.798115 118.9 L 138.298859 166.3 L 100.799603 118.9 L 100.799603 192.8 Z M 297.489087 192.8 L 241.302827 130.3 L 278.802083 130.3 L 278.802083 64 L 316.301339 64 L 316.301339 130.3 L 353.700397 130.3 Z M 297.489087 192.8 " transform="matrix(0.155941,0,0,0.15625,0,0)"/>
</g>
</svg>
