<?xml version="1.0" encoding="UTF-8"?>
<svg xmlns="http://www.w3.org/2000/svg" xmlns:xlink="http://www.w3.org/1999/xlink" width="px" height="40px" viewBox="0 0 40 40" version="1.1">
<g id="surface1">
<path style="fill-rule:evenodd;fill:rgb(100%,100%,100%);fill-opacity:1;stroke-width:2;stroke-linecap:butt;stroke-linejoin:miter;stroke:rgb(46.666667%,46.666667%,46.666667%);stroke-opacity:1;stroke-miterlimit:4;" d="M 130 2 C 199.2 3.1 254.5 59.8 254 129 C 253.4 198.2 197.2 254 128 254 C 58.8 254 2.6 198.2 2 129 C 1.5 59.8 56.8 3.1 126 2 Z M 126 30 C 72.3 31.1 29.5 75.2 30 129 C 30.6 182.7 74.3 226 128 226 C 181.7 226 225.4 182.7 226 129 C 226.5 75.2 183.7 31.1 130 30 Z M 130 58 C 168.3 59.1 198.5 90.7 198 129 C 197.4 167.2 166.3 198 128 198 C 89.7 198 58.6 167.2 58 129 C 57.5 90.7 87.7 59.1 126 58 Z M 126 86 C 103.2 87.1 85.5 106.2 86 129 C 86.6 151.8 105.2 170 128 170 C 150.8 170 169.4 151.8 170 129 C 170.5 106.2 152.8 87.1 130 86 Z M 130 114 C 137.3 115 142.5 121.5 142 128.9 C 141.4 136.2 135.3 141.9 128 141.9 C 120.7 141.9 114.6 136.2 114 128.9 C 113.5 121.5 118.7 115 126 114 Z M 218 218 L 38 38 M 218 38 L 38 218 M 254 128 L 2 128 M 128 2 L 128 254 " transform="matrix(0.15625,0,0,0.15625,0,0)"/>
<path style="fill-rule:nonzero;fill:rgb(100%,40.000001%,0%);fill-opacity:1;stroke-width:2;stroke-linecap:butt;stroke-linejoin:miter;stroke:rgb(46.666667%,46.666667%,46.666667%);stroke-opacity:1;stroke-miterlimit:4;" d="M 100 16 L 60 36 L 196 220 L 216 200 L 128 128 Z M 100 16 " transform="matrix(0.15625,0,0,0.15625,0,0)"/>
<path style="fill-rule:nonzero;fill:rgb(100%,80.000001%,0%);fill-opacity:1;stroke-width:2;stroke-linecap:butt;stroke-linejoin:miter;stroke:rgb(46.666667%,46.666667%,46.666667%);stroke-opacity:1;stroke-miterlimit:4;" d="M 34 100 L 34 156 L 128 128 Z M 34 100 " transform="matrix(0.15625,0,0,0.15625,0,0)"/>
<path style="fill-rule:nonzero;fill:rgb(46.666667%,100%,46.666667%);fill-opacity:1;stroke-width:2;stroke-linecap:butt;stroke-linejoin:miter;stroke:rgb(46.666667%,46.666667%,46.666667%);stroke-opacity:1;stroke-miterlimit:4;" d="M 128 128 L 140 198 L 116 198 Z M 128 128 " transform="matrix(0.15625,0,0,0.15625,0,0)"/>
<path style="fill-rule:nonzero;fill:rgb(80.000001%,100%,20%);fill-opacity:1;stroke-width:2;stroke-linecap:butt;stroke-linejoin:miter;stroke:rgb(46.666667%,46.666667%,46.666667%);stroke-opacity:1;stroke-miterlimit:4;" d="M 128 128 L 154 48 L 172 58 Z M 128 128 " transform="matrix(0.15625,0,0,0.15625,0,0)"/>
<path style="fill-rule:evenodd;fill:rgb(0%,26.666668%,100%);fill-opacity:1;stroke-width:2;stroke-linecap:butt;stroke-linejoin:miter;stroke:rgb(46.666667%,46.666667%,46.666667%);stroke-opacity:1;stroke-miterlimit:4;" d="M 158 124 L 156 116 L 128 128 Z M 128 128 L 76 154 L 82 162 Z M 128 128 " transform="matrix(0.15625,0,0,0.15625,0,0)"/>
</g>
</svg>
