<?xml version="1.0" encoding="UTF-8"?>
<svg xmlns="http://www.w3.org/2000/svg" xmlns:xlink="http://www.w3.org/1999/xlink" width="px" height="40px" viewBox="0 0 30 40" version="1.1">
<defs>
<linearGradient id="linear0" gradientUnits="userSpaceOnUse" x1="0" y1="0" x2="1" y2="0" gradientTransform="matrix(4.971406,-6.306719,5.713906,4.504063,-0.178594,0.417188)">
<stop offset="0" style="stop-color:rgb(96.470588%,60%,13.72549%);stop-opacity:1;"/>
<stop offset="0.312" style="stop-color:rgb(96.862745%,60.392157%,13.72549%);stop-opacity:1;"/>
<stop offset="0.838" style="stop-color:rgb(91.372549%,47.058824%,14.901961%);stop-opacity:1;"/>
</linearGradient>
<filter id="alpha" filterUnits="objectBoundingBox" x="0%" y="0%" width="100%" height="100%">
  <feColorMatrix type="matrix" in="SourceGraphic" values="0 0 0 0 1 0 0 0 0 1 0 0 0 0 1 0 0 0 1 0"/>
</filter>
<mask id="mask0">
  <g filter="url(#alpha)">
<rect x="0" y="0" width="30" height="40" style="fill:rgb(0%,0%,0%);fill-opacity:0.301961;stroke:none;"/>
  </g>
</mask>
<clipPath id="clip1">
  <rect x="0" y="0" width="30" height="40"/>
</clipPath>
<g id="surface5" clip-path="url(#clip1)">
<path style=" stroke:none;fill-rule:nonzero;fill:rgb(74.509805%,12.54902%,18.039216%);fill-opacity:1;" d="M 7.65625 16.40625 C 7.5625 16.511719 7.46875 16.609375 7.375 16.703125 C 7.421875 16.65625 7.46875 16.609375 7.515625 16.546875 C 7.535156 16.535156 7.550781 16.527344 7.5625 16.515625 C 7.574219 16.503906 7.582031 16.496094 7.59375 16.484375 C 7.605469 16.472656 7.613281 16.457031 7.625 16.4375 C 7.636719 16.425781 7.644531 16.417969 7.65625 16.40625 Z M 7.65625 16.40625 "/>
</g>
<mask id="mask1">
  <g filter="url(#alpha)">
<rect x="0" y="0" width="30" height="40" style="fill:rgb(0%,0%,0%);fill-opacity:0.301961;stroke:none;"/>
  </g>
</mask>
<clipPath id="clip2">
  <rect x="0" y="0" width="30" height="40"/>
</clipPath>
<g id="surface8" clip-path="url(#clip2)">
<path style=" stroke:none;fill-rule:nonzero;fill:rgb(74.509805%,12.54902%,18.039216%);fill-opacity:1;" d="M 6.921875 14.78125 C 6.9375 14.765625 6.9375 14.75 6.953125 14.734375 C 7.03125 14.671875 7.09375 14.609375 7.140625 14.546875 C 7.078125 14.625 6.984375 14.703125 6.921875 14.78125 Z M 6.921875 14.78125 "/>
</g>
<linearGradient id="linear1" gradientUnits="userSpaceOnUse" x1="0" y1="0" x2="1" y2="0" gradientTransform="matrix(-7.242344,-36.526718,12.3,-2.43875,6.657344,38.441563)">
<stop offset="0.323" style="stop-color:rgb(61.960784%,12.54902%,39.215686%);stop-opacity:1;"/>
<stop offset="0.63" style="stop-color:rgb(78.823529%,12.54902%,21.568627%);stop-opacity:1;"/>
<stop offset="0.751" style="stop-color:rgb(80.392157%,13.72549%,20.784314%);stop-opacity:1;"/>
<stop offset="1" style="stop-color:rgb(91.372549%,47.058824%,14.901961%);stop-opacity:1;"/>
</linearGradient>
<linearGradient id="linear2" gradientUnits="userSpaceOnUse" x1="0" y1="0" x2="1" y2="0" gradientTransform="matrix(-4.315781,-21.76625,11.424531,-2.265156,9.453906,33.304374)">
<stop offset="0" style="stop-color:rgb(15.686275%,14.901961%,38.431373%);stop-opacity:1;"/>
<stop offset="0.095" style="stop-color:rgb(40%,18.039216%,55.294118%);stop-opacity:1;"/>
<stop offset="0.788" style="stop-color:rgb(62.352941%,12.54902%,39.215686%);stop-opacity:1;"/>
<stop offset="0.949" style="stop-color:rgb(80.392157%,12.54902%,19.607843%);stop-opacity:1;"/>
</linearGradient>
<linearGradient id="linear3" gradientUnits="userSpaceOnUse" x1="0" y1="0" x2="1" y2="0" gradientTransform="matrix(314.885788,0,0,807.47345,-10698.481445,2977.760315)">
<stop offset="0.323" style="stop-color:rgb(61.960784%,12.54902%,39.215686%);stop-opacity:1;"/>
<stop offset="0.63" style="stop-color:rgb(78.823529%,12.54902%,21.568627%);stop-opacity:1;"/>
<stop offset="0.751" style="stop-color:rgb(80.392157%,13.72549%,20.784314%);stop-opacity:1;"/>
<stop offset="1" style="stop-color:rgb(91.372549%,47.058824%,14.901961%);stop-opacity:1;"/>
</linearGradient>
<linearGradient id="linear4" gradientUnits="userSpaceOnUse" x1="0" y1="0" x2="1" y2="0" gradientTransform="matrix(165.480785,0,0,317.981243,-10675.515137,2973.44635)">
<stop offset="0" style="stop-color:rgb(15.686275%,14.901961%,38.431373%);stop-opacity:1;"/>
<stop offset="0.095" style="stop-color:rgb(40%,18.039216%,55.294118%);stop-opacity:1;"/>
<stop offset="0.788" style="stop-color:rgb(62.352941%,12.54902%,39.215686%);stop-opacity:1;"/>
<stop offset="0.949" style="stop-color:rgb(80.392157%,12.54902%,19.607843%);stop-opacity:1;"/>
</linearGradient>
<linearGradient id="linear5" gradientUnits="userSpaceOnUse" x1="0" y1="0" x2="1" y2="0" gradientTransform="matrix(314.885788,0,0,909.293137,-10698.481445,2945.174561)">
<stop offset="0.323" style="stop-color:rgb(61.960784%,12.54902%,39.215686%);stop-opacity:1;"/>
<stop offset="0.63" style="stop-color:rgb(78.823529%,12.54902%,21.568627%);stop-opacity:1;"/>
<stop offset="0.751" style="stop-color:rgb(80.392157%,13.72549%,20.784314%);stop-opacity:1;"/>
<stop offset="1" style="stop-color:rgb(91.372549%,47.058824%,14.901961%);stop-opacity:1;"/>
</linearGradient>
<linearGradient id="linear6" gradientUnits="userSpaceOnUse" x1="0" y1="0" x2="1" y2="0" gradientTransform="matrix(314.885788,0,0,802.885284,-10718.015137,2946.75293)">
<stop offset="0.323" style="stop-color:rgb(61.960784%,12.54902%,39.215686%);stop-opacity:1;"/>
<stop offset="0.63" style="stop-color:rgb(78.823529%,12.54902%,21.568627%);stop-opacity:1;"/>
<stop offset="0.751" style="stop-color:rgb(80.392157%,13.72549%,20.784314%);stop-opacity:1;"/>
<stop offset="1" style="stop-color:rgb(91.372549%,47.058824%,14.901961%);stop-opacity:1;"/>
</linearGradient>
<mask id="mask2">
  <g filter="url(#alpha)">
<rect x="0" y="0" width="30" height="40" style="fill:rgb(0%,0%,0%);fill-opacity:0.301961;stroke:none;"/>
  </g>
</mask>
<clipPath id="clip3">
  <rect x="0" y="0" width="30" height="40"/>
</clipPath>
<g id="surface11" clip-path="url(#clip3)">
<path style=" stroke:none;fill-rule:nonzero;fill:rgb(74.509805%,12.54902%,18.039216%);fill-opacity:1;" d="M 7.53125 16.5625 C 7.484375 16.609375 7.421875 16.65625 7.375 16.703125 C 7.386719 16.691406 7.394531 16.683594 7.40625 16.671875 C 7.417969 16.660156 7.433594 16.644531 7.453125 16.625 C 7.464844 16.613281 7.472656 16.605469 7.484375 16.59375 C 7.496094 16.582031 7.511719 16.574219 7.53125 16.5625 Z M 7.53125 16.5625 "/>
</g>
<linearGradient id="linear7" gradientUnits="userSpaceOnUse" x1="0" y1="0" x2="1" y2="0" gradientTransform="matrix(314.885788,0,0,317.828598,-10698.481445,2935.413513)">
<stop offset="0.323" style="stop-color:rgb(61.960784%,12.54902%,39.215686%);stop-opacity:1;"/>
<stop offset="0.63" style="stop-color:rgb(78.823529%,12.54902%,21.568627%);stop-opacity:1;"/>
<stop offset="0.751" style="stop-color:rgb(80.392157%,13.72549%,20.784314%);stop-opacity:1;"/>
<stop offset="1" style="stop-color:rgb(91.372549%,47.058824%,14.901961%);stop-opacity:1;"/>
</linearGradient>
<mask id="mask3">
  <g filter="url(#alpha)">
<rect x="0" y="0" width="30" height="40" style="fill:rgb(0%,0%,0%);fill-opacity:0.301961;stroke:none;"/>
  </g>
</mask>
<clipPath id="clip4">
  <rect x="0" y="0" width="30" height="40"/>
</clipPath>
<g id="surface14" clip-path="url(#clip4)">
<path style=" stroke:none;fill-rule:nonzero;fill:rgb(74.509805%,12.54902%,18.039216%);fill-opacity:1;" d="M 6.921875 14.78125 C 6.9375 14.765625 6.9375 14.75 6.96875 14.734375 C 6.953125 14.75 6.9375 14.765625 6.921875 14.78125 Z M 6.921875 14.78125 "/>
</g>
<linearGradient id="linear8" gradientUnits="userSpaceOnUse" x1="0" y1="0" x2="1" y2="0" gradientTransform="matrix(9.04625,-1.124219,1.020313,8.210156,21.809218,2.834375)">
<stop offset="0" style="stop-color:rgb(96.470588%,60%,13.72549%);stop-opacity:1;"/>
<stop offset="0.312" style="stop-color:rgb(96.862745%,60.392157%,13.72549%);stop-opacity:1;"/>
<stop offset="0.838" style="stop-color:rgb(91.372549%,47.058824%,14.901961%);stop-opacity:1;"/>
</linearGradient>
<mask id="mask4">
  <g filter="url(#alpha)">
<rect x="0" y="0" width="30" height="40" style="fill:rgb(0%,0%,0%);fill-opacity:0.301961;stroke:none;"/>
  </g>
</mask>
<clipPath id="clip5">
  <rect x="0" y="0" width="30" height="40"/>
</clipPath>
<g id="surface17" clip-path="url(#clip5)">
<path style=" stroke:none;fill-rule:nonzero;fill:rgb(74.509805%,12.54902%,18.039216%);fill-opacity:1;" d="M 20.46875 19.46875 C 20.3125 19.480469 20.15625 19.484375 20 19.484375 C 20.078125 19.484375 20.15625 19.484375 20.234375 19.484375 C 20.253906 19.484375 20.277344 19.484375 20.296875 19.484375 C 20.316406 19.484375 20.339844 19.484375 20.359375 19.484375 C 20.378906 19.484375 20.394531 19.484375 20.40625 19.484375 C 20.425781 19.484375 20.449219 19.480469 20.46875 19.46875 Z M 20.46875 19.46875 "/>
</g>
<mask id="mask5">
  <g filter="url(#alpha)">
<rect x="0" y="0" width="30" height="40" style="fill:rgb(0%,0%,0%);fill-opacity:0.301961;stroke:none;"/>
  </g>
</mask>
<clipPath id="clip6">
  <rect x="0" y="0" width="30" height="40"/>
</clipPath>
<g id="surface20" clip-path="url(#clip6)">
<path style=" stroke:none;fill-rule:nonzero;fill:rgb(74.509805%,12.54902%,18.039216%);fill-opacity:1;" d="M 21.15625 17.578125 C 21.1875 17.578125 21.214844 17.578125 21.234375 17.578125 C 21.34375 17.578125 21.4375 17.578125 21.53125 17.5625 C 21.421875 17.5625 21.296875 17.5625 21.15625 17.578125 Z M 21.15625 17.578125 "/>
</g>
<linearGradient id="linear9" gradientUnits="userSpaceOnUse" x1="0" y1="0" x2="1" y2="0" gradientTransform="matrix(23.301563,-35.267189,11.839375,7.822344,-3.015469,38.986249)">
<stop offset="0.323" style="stop-color:rgb(61.960784%,12.54902%,39.215686%);stop-opacity:1;"/>
<stop offset="0.63" style="stop-color:rgb(78.823529%,12.54902%,21.568627%);stop-opacity:1;"/>
<stop offset="0.751" style="stop-color:rgb(80.392157%,13.72549%,20.784314%);stop-opacity:1;"/>
<stop offset="1" style="stop-color:rgb(91.372549%,47.058824%,14.901961%);stop-opacity:1;"/>
</linearGradient>
<linearGradient id="linear10" gradientUnits="userSpaceOnUse" x1="0" y1="0" x2="1" y2="0" gradientTransform="matrix(13.885468,-21.015937,11.0175,7.279375,3.341562,37.070625)">
<stop offset="0" style="stop-color:rgb(15.686275%,14.901961%,38.431373%);stop-opacity:1;"/>
<stop offset="0.095" style="stop-color:rgb(40%,18.039216%,55.294118%);stop-opacity:1;"/>
<stop offset="0.788" style="stop-color:rgb(62.352941%,12.54902%,39.215686%);stop-opacity:1;"/>
<stop offset="0.949" style="stop-color:rgb(80.392157%,12.54902%,19.607843%);stop-opacity:1;"/>
</linearGradient>
<linearGradient id="linear11" gradientUnits="userSpaceOnUse" x1="0" y1="0" x2="1" y2="0" gradientTransform="matrix(23.301563,-35.267189,7.173437,4.739531,-2.0325,36.790156)">
<stop offset="0.323" style="stop-color:rgb(61.960784%,12.54902%,39.215686%);stop-opacity:1;"/>
<stop offset="0.63" style="stop-color:rgb(78.823529%,12.54902%,21.568627%);stop-opacity:1;"/>
<stop offset="0.751" style="stop-color:rgb(80.392157%,13.72549%,20.784314%);stop-opacity:1;"/>
<stop offset="1" style="stop-color:rgb(91.372549%,47.058824%,14.901961%);stop-opacity:1;"/>
</linearGradient>
<linearGradient id="linear12" gradientUnits="userSpaceOnUse" x1="0" y1="0" x2="1" y2="0" gradientTransform="matrix(12.245625,-18.533906,6.18875,4.088906,0.150156,34.537344)">
<stop offset="0" style="stop-color:rgb(15.686275%,14.901961%,38.431373%);stop-opacity:1;"/>
<stop offset="0.095" style="stop-color:rgb(40%,18.039216%,55.294118%);stop-opacity:1;"/>
<stop offset="0.788" style="stop-color:rgb(62.352941%,12.54902%,39.215686%);stop-opacity:1;"/>
<stop offset="0.949" style="stop-color:rgb(80.392157%,12.54902%,19.607843%);stop-opacity:1;"/>
</linearGradient>
<linearGradient id="linear13" gradientUnits="userSpaceOnUse" x1="0" y1="0" x2="1" y2="0" gradientTransform="matrix(23.301563,-35.267189,9.75375,6.444531,1.617188,39.201562)">
<stop offset="0.323" style="stop-color:rgb(61.960784%,12.54902%,39.215686%);stop-opacity:1;"/>
<stop offset="0.63" style="stop-color:rgb(78.823529%,12.54902%,21.568627%);stop-opacity:1;"/>
<stop offset="0.751" style="stop-color:rgb(80.392157%,13.72549%,20.784314%);stop-opacity:1;"/>
<stop offset="1" style="stop-color:rgb(91.372549%,47.058824%,14.901961%);stop-opacity:1;"/>
</linearGradient>
<linearGradient id="linear14" gradientUnits="userSpaceOnUse" x1="0" y1="0" x2="1" y2="0" gradientTransform="matrix(23.301563,-35.267189,15.090781,9.970781,-0.0053125,41.272345)">
<stop offset="0.323" style="stop-color:rgb(61.960784%,12.54902%,39.215686%);stop-opacity:1;"/>
<stop offset="0.63" style="stop-color:rgb(78.823529%,12.54902%,21.568627%);stop-opacity:1;"/>
<stop offset="0.751" style="stop-color:rgb(80.392157%,13.72549%,20.784314%);stop-opacity:1;"/>
<stop offset="1" style="stop-color:rgb(91.372549%,47.058824%,14.901961%);stop-opacity:1;"/>
</linearGradient>
</defs>
<g id="surface1">
<path style=" stroke:none;fill-rule:nonzero;fill:url(#linear0);" d="M 0.59375 0.765625 C 0.511719 1.066406 0.433594 1.375 0.359375 1.6875 C 0.285156 2 0.230469 2.316406 0.1875 2.640625 C 0.136719 2.953125 0.0976562 3.269531 0.078125 3.59375 C 0.046875 3.917969 0.03125 4.234375 0.03125 4.546875 L 2.0625 5.53125 C 2.050781 5.230469 2.046875 4.925781 2.046875 4.625 C 2.058594 4.324219 2.066406 4.019531 2.078125 3.71875 C 2.089844 3.417969 2.105469 3.113281 2.125 2.8125 C 2.144531 2.511719 2.171875 2.207031 2.203125 1.90625 C 2.21875 1.828125 2.21875 1.78125 2.21875 1.78125 C 2.21875 1.828125 2.21875 1.875 2.203125 1.90625 C 2.183594 2.207031 2.167969 2.511719 2.15625 2.8125 C 2.144531 3.105469 2.140625 3.402344 2.140625 3.703125 C 2.140625 4.003906 2.144531 4.300781 2.15625 4.59375 C 2.167969 4.894531 2.183594 5.191406 2.203125 5.484375 C 2.464844 5.265625 2.722656 5.042969 2.984375 4.8125 C 3.246094 4.574219 3.5 4.339844 3.75 4.109375 C 4 3.871094 4.25 3.625 4.5 3.375 C 4.738281 3.136719 4.980469 2.890625 5.21875 2.640625 C 5.125 2.371094 5 2.113281 4.84375 1.875 C 4.699219 1.636719 4.527344 1.410156 4.328125 1.203125 C 4.128906 0.996094 3.917969 0.808594 3.6875 0.640625 C 3.457031 0.472656 3.214844 0.328125 2.953125 0.203125 C 2.6875 0.09375 1.140625 -0.515625 0.59375 0.765625 Z M 0.59375 0.765625 "/>
<path style=" stroke:none;fill-rule:nonzero;fill:rgb(74.509805%,12.54902%,18.039216%);fill-opacity:1;" d="M 7.65625 16.40625 C 7.5625 16.511719 7.46875 16.609375 7.375 16.703125 C 7.421875 16.65625 7.46875 16.609375 7.515625 16.546875 C 7.535156 16.535156 7.550781 16.527344 7.5625 16.515625 C 7.574219 16.503906 7.582031 16.496094 7.59375 16.484375 C 7.605469 16.472656 7.613281 16.457031 7.625 16.4375 C 7.636719 16.425781 7.644531 16.417969 7.65625 16.40625 Z M 7.65625 16.40625 "/>
<use xlink:href="#surface5" mask="url(#mask0)"/>
<path style=" stroke:none;fill-rule:nonzero;fill:rgb(74.509805%,12.54902%,18.039216%);fill-opacity:1;" d="M 6.921875 14.78125 C 6.9375 14.765625 6.9375 14.75 6.953125 14.734375 C 7.03125 14.671875 7.09375 14.609375 7.140625 14.546875 C 7.078125 14.625 6.984375 14.703125 6.921875 14.78125 Z M 6.921875 14.78125 "/>
<use xlink:href="#surface8" mask="url(#mask1)"/>
<path style=" stroke:none;fill-rule:nonzero;fill:url(#linear1);" d="M 2.609375 11.546875 C 2.515625 10.871094 2.425781 10.203125 2.34375 9.546875 C 2.269531 8.871094 2.207031 8.203125 2.15625 7.546875 C 2.15625 7.5 2.15625 7.46875 2.15625 7.421875 C 2.105469 6.777344 2.074219 6.144531 2.0625 5.53125 L 0.03125 4.5625 C 0.03125 4.671875 0.015625 4.8125 0.015625 4.9375 C -0.015625 5.421875 -0.03125 5.9375 -0.03125 6.484375 C -0.03125 7.109375 -0.03125 7.734375 -0.015625 8.40625 C 0 9.03125 0.015625 9.671875 0.046875 10.328125 C 0.0898438 10.878906 0.128906 11.449219 0.171875 12.03125 C 0.171875 12.046875 0.171875 12.0625 0.171875 12.09375 L 2.890625 13.46875 C 2.796875 12.828125 2.703125 12.1875 2.609375 11.546875 Z M 2.609375 11.546875 "/>
<path style=" stroke:none;fill-rule:nonzero;fill:url(#linear2);" d="M 6.625 27.640625 C 6.765625 28.140625 6.9375 28.671875 7.09375 29.203125 C 7.09375 29.203125 7.09375 29.21875 7.09375 29.21875 C 7.125 29.296875 7.140625 29.375 7.171875 29.4375 C 7.28125 29.796875 7.375 30.125 7.609375 30.84375 C 7.746094 30.832031 7.878906 30.832031 8.015625 30.84375 C 8.152344 30.863281 8.28125 30.890625 8.40625 30.921875 C 8.542969 30.953125 8.671875 30.996094 8.796875 31.046875 C 8.921875 31.089844 9.046875 31.144531 9.171875 31.21875 C 9.078125 31.105469 8.972656 31 8.859375 30.90625 C 8.746094 30.824219 8.625 30.746094 8.5 30.671875 C 8.375 30.597656 8.246094 30.542969 8.109375 30.5 C 7.964844 30.457031 7.824219 30.425781 7.6875 30.40625 C 8.078125 30.21875 8.4375 29.96875 8.75 29.671875 C 9.078125 29.375 9.359375 29.03125 9.578125 28.65625 C 9.8125 28.28125 9.984375 27.875 10.109375 27.453125 C 10.21875 27.03125 10.28125 26.59375 10.28125 26.15625 C 10.269531 26.011719 10.25 25.859375 10.21875 25.703125 C 10.207031 25.871094 10.175781 26.035156 10.125 26.203125 C 10.074219 26.371094 10 26.527344 9.90625 26.671875 C 9.800781 26.816406 9.6875 26.949219 9.5625 27.0625 C 9.425781 27.175781 9.28125 27.269531 9.125 27.34375 C 9.292969 27.09375 9.433594 26.832031 9.546875 26.5625 C 9.671875 26.292969 9.769531 26.011719 9.84375 25.71875 C 9.917969 25.4375 9.96875 25.144531 10 24.84375 C 10.019531 24.550781 10.019531 24.253906 10 23.953125 C 9.980469 23.683594 9.941406 23.390625 9.890625 23.078125 C 9.847656 23.453125 9.761719 23.816406 9.625 24.171875 C 9.488281 24.527344 9.3125 24.859375 9.09375 25.171875 C 8.875 25.472656 8.621094 25.746094 8.328125 25.984375 C 8.027344 26.222656 7.703125 26.425781 7.359375 26.59375 L 6.53125 27.34375 C 6.5625 27.4375 6.59375 27.53125 6.625 27.640625 Z M 6.625 27.640625 "/>
<path style=" stroke:none;fill-rule:nonzero;fill:url(#linear3);" d="M 5.5625 25.3125 C 5.394531 24.667969 5.222656 24.011719 5.046875 23.34375 C 4.878906 22.71875 4.71875 22.082031 4.5625 21.4375 C 4.40625 20.78125 4.25 20.128906 4.09375 19.484375 C 3.953125 18.828125 3.796875 18.140625 3.65625 17.484375 C 3.519531 16.816406 3.386719 16.152344 3.25 15.484375 C 3.203125 15.25 3.171875 15.015625 3.125 14.78125 C 3.046875 14.375 2.984375 13.953125 2.90625 13.546875 C 2.90625 13.527344 2.902344 13.503906 2.890625 13.484375 L 0.1875 12.09375 C 0.1875 12.105469 0.1875 12.113281 0.1875 12.125 C 0.1875 12.144531 0.1875 12.160156 0.1875 12.171875 C 0.199219 12.183594 0.203125 12.191406 0.203125 12.203125 C 0.203125 12.214844 0.203125 12.222656 0.203125 12.234375 C 0.25 12.84375 0.296875 13.46875 0.375 14.078125 C 0.453125 14.703125 0.53125 15.359375 0.625 16 C 0.703125 16.546875 0.78125 17.078125 0.875 17.625 C 0.890625 17.734375 0.921875 17.84375 0.9375 17.953125 C 1.0625 18.625 1.1875 19.265625 1.34375 19.875 C 1.5 20.5625 1.671875 21.203125 1.84375 21.8125 C 1.957031 22.207031 2.078125 22.582031 2.203125 22.9375 C 2.296875 23.25 2.40625 23.546875 2.515625 23.84375 C 2.777344 24.550781 3.0625 25.238281 3.375 25.90625 L 6.109375 27.28125 C 5.964844 26.78125 5.824219 26.269531 5.6875 25.75 C 5.640625 25.609375 5.609375 25.46875 5.5625 25.3125 Z M 5.5625 25.3125 "/>
<path style=" stroke:none;fill-rule:nonzero;fill:url(#linear4);" d="M 3.40625 25.984375 C 3.5 26.183594 3.597656 26.378906 3.703125 26.578125 C 3.796875 26.777344 3.894531 26.972656 4 27.171875 C 4.105469 27.359375 4.214844 27.550781 4.328125 27.75 C 4.441406 27.9375 4.558594 28.125 4.671875 28.3125 C 4.6875 28.328125 4.703125 28.359375 4.71875 28.390625 C 4.550781 28.339844 4.378906 28.296875 4.203125 28.265625 C 4.035156 28.234375 3.863281 28.214844 3.6875 28.203125 C 3.511719 28.191406 3.332031 28.1875 3.15625 28.1875 C 2.980469 28.1875 2.808594 28.199219 2.640625 28.21875 C 2.953125 28.3125 3.261719 28.421875 3.5625 28.546875 C 3.863281 28.671875 4.15625 28.816406 4.4375 28.984375 C 4.71875 29.152344 4.988281 29.332031 5.25 29.53125 C 5.511719 29.730469 5.761719 29.949219 6 30.1875 C 5.886719 30.28125 5.765625 30.371094 5.640625 30.453125 C 5.515625 30.535156 5.386719 30.613281 5.25 30.6875 C 5.113281 30.75 4.980469 30.808594 4.84375 30.859375 C 4.699219 30.910156 4.550781 30.953125 4.40625 30.984375 C 4.550781 31.003906 4.699219 31.015625 4.84375 31.015625 C 4.988281 31.027344 5.136719 31.027344 5.28125 31.015625 C 5.425781 30.996094 5.574219 30.96875 5.71875 30.9375 C 5.863281 30.90625 6.003906 30.871094 6.140625 30.828125 C 6.015625 30.964844 5.894531 31.113281 5.78125 31.28125 C 5.667969 31.4375 5.5625 31.605469 5.46875 31.78125 C 5.386719 31.957031 5.3125 32.140625 5.25 32.328125 C 5.175781 32.503906 5.125 32.691406 5.09375 32.890625 C 5.1875 32.703125 5.296875 32.519531 5.421875 32.34375 C 5.535156 32.167969 5.667969 32.003906 5.8125 31.859375 C 5.957031 31.703125 6.113281 31.558594 6.28125 31.421875 C 6.449219 31.296875 6.625 31.175781 6.8125 31.0625 C 7.625 33.78125 8.609375 36.734375 9.703125 39.828125 C 9.746094 39.777344 9.78125 39.71875 9.8125 39.65625 C 9.84375 39.59375 9.863281 39.527344 9.875 39.453125 C 9.886719 39.390625 9.886719 39.324219 9.875 39.25 C 9.875 39.1875 9.863281 39.125 9.84375 39.0625 C 9.640625 38.5 8.328125 34.828125 6.84375 29.828125 C 6.8125 29.6875 6.765625 29.546875 6.71875 29.40625 C 6.703125 29.359375 6.703125 29.328125 6.6875 29.28125 C 6.53125 28.761719 6.375 28.21875 6.21875 27.65625 C 6.1875 27.53125 6.15625 27.421875 6.109375 27.28125 L 3.375 25.90625 C 3.386719 25.90625 3.390625 25.910156 3.390625 25.921875 C 3.390625 25.933594 3.390625 25.9375 3.390625 25.9375 C 3.402344 25.949219 3.40625 25.957031 3.40625 25.96875 C 3.40625 25.96875 3.40625 25.972656 3.40625 25.984375 Z M 3.40625 25.984375 "/>
<path style=" stroke:none;fill-rule:nonzero;fill:url(#linear5);" d="M 3.21875 13.53125 C 3.234375 13.609375 3.25 13.703125 3.265625 13.796875 C 3.3125 14.0625 3.359375 14.34375 3.421875 14.609375 C 3.472656 14.910156 3.53125 15.21875 3.59375 15.53125 C 3.625 15.6875 3.65625 15.847656 3.6875 16.015625 C 3.792969 16.496094 3.894531 16.996094 4 17.515625 C 4.15625 18.140625 4.296875 18.78125 4.453125 19.453125 C 4.59375 20.09375 4.765625 20.765625 4.921875 21.4375 C 5.09375 22.078125 5.265625 22.734375 5.4375 23.421875 C 5.609375 24.015625 5.78125 24.640625 5.953125 25.265625 C 5.953125 25.296875 5.96875 25.34375 5.96875 25.359375 C 6.144531 25.996094 6.332031 26.640625 6.53125 27.296875 C 6.53125 27.296875 6.53125 27.300781 6.53125 27.3125 C 6.53125 27.324219 6.53125 27.328125 6.53125 27.328125 C 6.53125 27.328125 6.53125 27.332031 6.53125 27.34375 L 7.359375 26.578125 C 7.34375 26.578125 7.328125 26.59375 7.296875 26.609375 C 7.578125 26.308594 7.832031 25.980469 8.0625 25.625 C 8.28125 25.28125 8.480469 24.921875 8.65625 24.546875 C 8.824219 24.171875 8.964844 23.78125 9.078125 23.375 C 9.183594 22.980469 9.261719 22.578125 9.3125 22.171875 C 9.332031 21.964844 9.347656 21.753906 9.359375 21.546875 C 9.371094 21.339844 9.371094 21.128906 9.359375 20.921875 C 9.359375 20.714844 9.355469 20.503906 9.34375 20.296875 C 9.332031 20.097656 9.3125 19.894531 9.28125 19.6875 C 9.261719 19.511719 9.234375 19.332031 9.203125 19.15625 C 9.183594 18.980469 9.15625 18.800781 9.125 18.625 C 9.082031 18.449219 9.046875 18.269531 9.015625 18.09375 C 8.972656 17.917969 8.933594 17.738281 8.890625 17.5625 C 8.722656 16.90625 8.519531 16.214844 8.28125 15.484375 C 8.238281 15.566406 8.191406 15.652344 8.140625 15.734375 C 8.097656 15.808594 8.050781 15.886719 8 15.96875 C 7.949219 16.042969 7.890625 16.113281 7.828125 16.1875 C 7.777344 16.261719 7.71875 16.328125 7.65625 16.390625 L 7.5 16.546875 C 7.453125 16.609375 7.40625 16.65625 7.359375 16.703125 C 7.515625 16.441406 7.652344 16.167969 7.765625 15.875 C 7.871094 15.582031 7.949219 15.285156 8 14.984375 C 8.050781 14.671875 8.074219 14.359375 8.0625 14.046875 C 8.050781 13.734375 8.015625 13.425781 7.953125 13.125 C 7.902344 13.261719 7.847656 13.390625 7.796875 13.515625 C 7.734375 13.640625 7.671875 13.761719 7.609375 13.875 C 7.535156 13.988281 7.457031 14.105469 7.375 14.21875 C 7.300781 14.332031 7.21875 14.441406 7.125 14.546875 C 7.078125 14.609375 7.015625 14.671875 6.953125 14.734375 C 6.9375 14.75 6.921875 14.765625 6.890625 14.78125 C 6.953125 14.699219 7.011719 14.609375 7.0625 14.515625 C 7.105469 14.421875 7.152344 14.324219 7.203125 14.21875 C 7.246094 14.125 7.285156 14.027344 7.328125 13.921875 C 7.359375 13.828125 7.390625 13.730469 7.421875 13.625 C 7.433594 13.605469 7.4375 13.582031 7.4375 13.5625 C 7.449219 13.542969 7.457031 13.519531 7.46875 13.5 C 7.46875 13.480469 7.46875 13.457031 7.46875 13.4375 C 7.480469 13.417969 7.484375 13.394531 7.484375 13.375 C 7.515625 13.25 7.542969 13.125 7.5625 13 C 7.5625 12.921875 7.578125 12.84375 7.578125 12.765625 C 7.589844 12.714844 7.59375 12.660156 7.59375 12.609375 C 7.59375 12.566406 7.59375 12.519531 7.59375 12.46875 C 7.59375 12.417969 7.59375 12.363281 7.59375 12.3125 C 7.59375 12.269531 7.589844 12.222656 7.578125 12.171875 C 7.578125 12.109375 7.578125 12.046875 7.5625 11.984375 C 7.546875 11.890625 7.546875 11.8125 7.515625 11.734375 C 7.453125 11.34375 7.375 11.015625 7.3125 10.734375 C 7.269531 10.589844 7.234375 10.457031 7.203125 10.34375 C 7.1875 10.28125 7.171875 10.25 7.15625 10.1875 C 7.109375 10.0625 7.078125 9.9375 7.03125 9.84375 C 7.019531 9.8125 7.011719 9.78125 7 9.75 C 6.988281 9.730469 6.980469 9.703125 6.96875 9.671875 C 6.957031 9.640625 6.949219 9.609375 6.9375 9.578125 C 6.917969 9.558594 6.902344 9.53125 6.890625 9.5 C 6.890625 9.511719 6.886719 9.527344 6.875 9.546875 C 6.875 9.558594 6.871094 9.566406 6.859375 9.578125 C 6.859375 9.597656 6.855469 9.613281 6.84375 9.625 C 6.84375 9.636719 6.839844 9.644531 6.828125 9.65625 C 6.765625 9.78125 6.703125 9.902344 6.640625 10.015625 C 6.566406 10.140625 6.496094 10.253906 6.421875 10.359375 C 6.339844 10.472656 6.253906 10.582031 6.171875 10.6875 C 6.089844 10.792969 6 10.894531 5.90625 11 L 6.65625 10.296875 L 5.890625 10.984375 C 5.890625 10.996094 5.890625 11 5.890625 11 C 5.890625 11 5.890625 11.003906 5.890625 11.015625 C 5.878906 11.027344 5.871094 11.035156 5.859375 11.046875 C 5.847656 11.058594 5.839844 11.0625 5.828125 11.0625 C 5.816406 11.074219 5.808594 11.089844 5.796875 11.109375 C 5.785156 11.121094 5.777344 11.128906 5.765625 11.140625 C 5.765625 11.125 5.78125 11.109375 5.78125 11.109375 L 3.1875 13.484375 C 3.21875 13.5 3.21875 13.515625 3.21875 13.53125 Z M 3.21875 13.53125 "/>
<path style=" stroke:none;fill-rule:nonzero;fill:url(#linear6);" d="M 2.203125 5.484375 C 2.234375 6.058594 2.28125 6.699219 2.34375 7.40625 C 2.34375 7.417969 2.34375 7.425781 2.34375 7.4375 C 2.34375 7.449219 2.347656 7.457031 2.359375 7.46875 C 2.359375 7.480469 2.359375 7.484375 2.359375 7.484375 C 2.359375 7.496094 2.359375 7.503906 2.359375 7.515625 C 2.421875 8.140625 2.5 8.796875 2.59375 9.53125 C 2.671875 10.15625 2.765625 10.8125 2.875 11.53125 C 2.96875 12.140625 3.078125 12.796875 3.203125 13.484375 L 5.796875 11.09375 C 5.910156 10.925781 6.011719 10.746094 6.09375 10.546875 C 6.175781 10.359375 6.246094 10.167969 6.296875 9.96875 C 6.347656 9.769531 6.390625 9.566406 6.421875 9.359375 C 6.441406 9.160156 6.453125 8.957031 6.453125 8.75 C 6.453125 8.546875 6.4375 8.328125 6.421875 8.109375 C 6.410156 7.941406 6.394531 7.769531 6.375 7.59375 C 6.363281 7.425781 6.347656 7.261719 6.328125 7.09375 C 6.308594 6.917969 6.285156 6.746094 6.265625 6.578125 C 6.246094 6.410156 6.21875 6.238281 6.1875 6.0625 C 6.167969 5.90625 6.140625 5.753906 6.109375 5.609375 C 6.089844 5.453125 6.0625 5.296875 6.03125 5.140625 C 5.988281 4.996094 5.953125 4.84375 5.921875 4.6875 C 5.890625 4.53125 5.855469 4.378906 5.8125 4.234375 C 5.792969 4.152344 5.765625 4.074219 5.734375 4 C 5.714844 3.917969 5.691406 3.839844 5.671875 3.765625 C 5.640625 3.683594 5.613281 3.605469 5.59375 3.53125 C 5.5625 3.449219 5.535156 3.371094 5.515625 3.296875 C 5.421875 3.0625 5.3125 2.859375 5.21875 2.65625 C 4.980469 2.90625 4.738281 3.152344 4.5 3.390625 C 4.25 3.628906 4 3.871094 3.75 4.109375 C 3.5 4.347656 3.246094 4.582031 2.984375 4.8125 C 2.722656 5.042969 2.464844 5.265625 2.203125 5.484375 Z M 2.203125 5.484375 "/>
<path style=" stroke:none;fill-rule:nonzero;fill:rgb(74.509805%,12.54902%,18.039216%);fill-opacity:1;" d="M 7.53125 16.5625 C 7.484375 16.609375 7.421875 16.65625 7.375 16.703125 C 7.386719 16.691406 7.394531 16.683594 7.40625 16.671875 C 7.417969 16.660156 7.433594 16.644531 7.453125 16.625 C 7.464844 16.613281 7.472656 16.605469 7.484375 16.59375 C 7.496094 16.582031 7.511719 16.574219 7.53125 16.5625 Z M 7.53125 16.5625 "/>
<use xlink:href="#surface11" mask="url(#mask2)"/>
<path style=" stroke:none;fill-rule:nonzero;fill:url(#linear7);" d="M 7.53125 16.5625 C 7.484375 16.609375 7.421875 16.65625 7.375 16.703125 C 7.386719 16.691406 7.394531 16.683594 7.40625 16.671875 C 7.417969 16.660156 7.433594 16.644531 7.453125 16.625 C 7.464844 16.613281 7.472656 16.605469 7.484375 16.59375 C 7.496094 16.582031 7.511719 16.574219 7.53125 16.5625 Z M 7.53125 16.5625 "/>
<path style=" stroke:none;fill-rule:nonzero;fill:rgb(74.509805%,12.54902%,18.039216%);fill-opacity:1;" d="M 6.921875 14.78125 C 6.9375 14.765625 6.9375 14.75 6.96875 14.734375 C 6.953125 14.75 6.9375 14.765625 6.921875 14.78125 Z M 6.921875 14.78125 "/>
<use xlink:href="#surface14" mask="url(#mask3)"/>
<path style=" stroke:none;fill-rule:nonzero;fill:rgb(0%,0%,0%);fill-opacity:1;" d="M 6.921875 14.78125 C 6.9375 14.765625 6.9375 14.75 6.96875 14.734375 C 6.953125 14.75 6.9375 14.765625 6.921875 14.78125 Z M 6.921875 14.78125 "/>
<path style=" stroke:none;fill-rule:nonzero;fill:url(#linear8);" d="M 27.21875 1.28125 C 26.894531 1.449219 26.582031 1.628906 26.28125 1.828125 C 25.980469 2.027344 25.683594 2.234375 25.390625 2.453125 C 25.097656 2.671875 24.816406 2.902344 24.546875 3.140625 C 24.277344 3.371094 24.011719 3.613281 23.75 3.875 L 24.609375 6.28125 C 24.839844 6.03125 25.078125 5.785156 25.328125 5.546875 C 25.566406 5.308594 25.8125 5.066406 26.0625 4.828125 C 26.3125 4.597656 26.566406 4.371094 26.828125 4.140625 C 27.078125 3.921875 27.339844 3.703125 27.609375 3.484375 C 27.6875 3.421875 27.71875 3.390625 27.71875 3.390625 C 27.6875 3.421875 27.640625 3.453125 27.609375 3.484375 C 27.347656 3.703125 27.09375 3.925781 26.84375 4.15625 C 26.605469 4.386719 26.363281 4.621094 26.125 4.859375 C 25.886719 5.097656 25.652344 5.34375 25.421875 5.59375 C 25.191406 5.84375 24.96875 6.097656 24.75 6.359375 C 25.144531 6.378906 25.535156 6.402344 25.921875 6.421875 C 26.316406 6.441406 26.707031 6.457031 27.09375 6.46875 C 27.488281 6.480469 27.878906 6.484375 28.265625 6.484375 C 28.660156 6.472656 29.050781 6.464844 29.4375 6.453125 C 29.574219 6.160156 29.675781 5.859375 29.75 5.546875 C 29.824219 5.222656 29.863281 4.902344 29.875 4.578125 C 29.886719 4.253906 29.859375 3.9375 29.796875 3.625 C 29.746094 3.300781 29.660156 2.988281 29.546875 2.6875 C 29.4375 2.390625 28.671875 0.671875 27.21875 1.28125 Z M 27.21875 1.28125 "/>
<path style=" stroke:none;fill-rule:nonzero;fill:rgb(74.509805%,12.54902%,18.039216%);fill-opacity:1;" d="M 20.46875 19.46875 C 20.3125 19.480469 20.15625 19.484375 20 19.484375 C 20.078125 19.484375 20.15625 19.484375 20.234375 19.484375 C 20.253906 19.484375 20.277344 19.484375 20.296875 19.484375 C 20.316406 19.484375 20.339844 19.484375 20.359375 19.484375 C 20.378906 19.484375 20.394531 19.484375 20.40625 19.484375 C 20.425781 19.484375 20.449219 19.480469 20.46875 19.46875 Z M 20.46875 19.46875 "/>
<use xlink:href="#surface17" mask="url(#mask4)"/>
<path style=" stroke:none;fill-rule:nonzero;fill:rgb(74.509805%,12.54902%,18.039216%);fill-opacity:1;" d="M 21.15625 17.578125 C 21.1875 17.578125 21.214844 17.578125 21.234375 17.578125 C 21.34375 17.578125 21.4375 17.578125 21.53125 17.5625 C 21.421875 17.5625 21.296875 17.5625 21.15625 17.578125 Z M 21.15625 17.578125 "/>
<use xlink:href="#surface20" mask="url(#mask5)"/>
<path style=" stroke:none;fill-rule:nonzero;fill:url(#linear9);" d="M 20.265625 11.546875 C 20.722656 10.933594 21.183594 10.328125 21.640625 9.734375 C 22.109375 9.125 22.59375 8.53125 23.09375 7.96875 C 23.113281 7.925781 23.140625 7.894531 23.171875 7.875 C 23.652344 7.3125 24.125 6.78125 24.59375 6.28125 L 23.75 3.875 C 23.644531 3.96875 23.535156 4.066406 23.421875 4.171875 C 23.015625 4.546875 22.59375 4.949219 22.15625 5.375 C 21.667969 5.863281 21.160156 6.386719 20.640625 6.9375 C 20.171875 7.4375 19.671875 7.984375 19.1875 8.53125 C 18.765625 9.015625 18.34375 9.5 17.921875 10 L 17.875 10.046875 L 18.96875 13.3125 C 19.40625 12.734375 19.828125 12.125 20.265625 11.546875 Z M 20.265625 11.546875 "/>
<path style=" stroke:none;fill-rule:nonzero;fill:url(#linear10);" d="M 10.71875 27.6875 C 10.425781 28.21875 10.136719 28.761719 9.84375 29.3125 C 9.84375 29.328125 9.84375 29.328125 9.84375 29.34375 C 9.796875 29.421875 9.75 29.5 9.71875 29.578125 C 9.515625 29.953125 9.359375 30.28125 8.953125 31.046875 C 9.066406 31.152344 9.175781 31.261719 9.28125 31.375 C 9.386719 31.5 9.472656 31.625 9.546875 31.75 C 9.628906 31.886719 9.703125 32.019531 9.765625 32.15625 C 9.828125 32.300781 9.878906 32.449219 9.921875 32.59375 C 9.933594 32.425781 9.933594 32.265625 9.921875 32.109375 C 9.902344 31.941406 9.863281 31.78125 9.8125 31.625 C 9.769531 31.46875 9.714844 31.316406 9.640625 31.171875 C 9.558594 31.027344 9.464844 30.890625 9.359375 30.765625 C 11.59375 31.1875 13.609375 30.90625 14.84375 29.421875 C 14.949219 29.285156 15.050781 29.140625 15.15625 28.984375 C 15.011719 29.121094 14.847656 29.234375 14.671875 29.328125 C 14.496094 29.410156 14.3125 29.472656 14.125 29.515625 C 13.925781 29.558594 13.734375 29.574219 13.546875 29.5625 C 13.347656 29.542969 13.15625 29.5 12.96875 29.4375 C 13.292969 29.375 13.613281 29.28125 13.9375 29.15625 C 14.25 29.03125 14.546875 28.878906 14.828125 28.703125 C 15.121094 28.527344 15.394531 28.332031 15.65625 28.125 C 15.90625 27.90625 16.140625 27.667969 16.359375 27.40625 C 16.558594 27.167969 16.761719 26.902344 16.96875 26.609375 C 16.640625 26.875 16.28125 27.109375 15.890625 27.28125 C 15.5 27.453125 15.09375 27.578125 14.671875 27.65625 C 14.25 27.734375 13.8125 27.75 13.390625 27.703125 C 12.96875 27.671875 12.546875 27.578125 12.140625 27.421875 L 10.875 27.375 C 10.828125 27.484375 10.765625 27.578125 10.71875 27.6875 Z M 10.71875 27.6875 "/>
<path style=" stroke:none;fill-rule:nonzero;fill:url(#linear11);" d="M 11.703125 24.96875 C 12.078125 24.3125 12.457031 23.652344 12.84375 22.984375 C 13.21875 22.339844 13.597656 21.691406 13.984375 21.046875 C 14.378906 20.402344 14.777344 19.753906 15.171875 19.109375 C 15.5625 18.46875 15.984375 17.796875 16.40625 17.140625 C 16.828125 16.5 17.25 15.859375 17.65625 15.234375 C 17.8125 15 17.96875 14.765625 18.125 14.546875 C 18.390625 14.15625 18.65625 13.765625 18.921875 13.375 C 18.9375 13.359375 18.953125 13.34375 18.96875 13.3125 L 17.890625 10.0625 C 17.878906 10.0625 17.871094 10.066406 17.859375 10.078125 C 17.859375 10.089844 17.855469 10.097656 17.84375 10.109375 C 17.832031 10.121094 17.824219 10.128906 17.8125 10.140625 C 17.8125 10.152344 17.808594 10.160156 17.796875 10.171875 C 17.34375 10.703125 16.90625 11.25 16.453125 11.8125 C 16.015625 12.375 15.578125 12.953125 15.140625 13.546875 C 14.765625 14.046875 14.40625 14.546875 14.046875 15.046875 C 13.984375 15.15625 13.90625 15.265625 13.84375 15.359375 C 13.40625 16 13 16.625 12.625 17.234375 C 12.21875 17.921875 11.84375 18.578125 11.5 19.203125 C 11.28125 19.609375 11.078125 20 10.890625 20.390625 C 10.734375 20.71875 10.578125 21.046875 10.421875 21.375 C 10.078125 22.140625 9.765625 22.921875 9.484375 23.703125 L 10.578125 26.984375 C 10.875 26.46875 11.171875 25.953125 11.453125 25.421875 C 11.53125 25.28125 11.625 25.125 11.703125 24.96875 Z M 11.703125 24.96875 "/>
<path style=" stroke:none;fill-rule:nonzero;fill:url(#linear12);" d="M 9.4375 23.8125 C 9.355469 24.050781 9.277344 24.285156 9.203125 24.515625 C 9.121094 24.753906 9.046875 24.996094 8.984375 25.234375 C 8.910156 25.472656 8.84375 25.714844 8.78125 25.953125 C 8.71875 26.191406 8.660156 26.4375 8.609375 26.6875 C 8.609375 26.71875 8.59375 26.75 8.578125 26.78125 C 8.484375 26.613281 8.378906 26.449219 8.265625 26.28125 C 8.152344 26.125 8.027344 25.96875 7.890625 25.8125 C 7.765625 25.667969 7.628906 25.527344 7.484375 25.390625 C 7.339844 25.253906 7.1875 25.125 7.03125 25 C 7.21875 25.324219 7.386719 25.65625 7.53125 26 C 7.667969 26.34375 7.785156 26.691406 7.890625 27.046875 C 7.984375 27.402344 8.058594 27.765625 8.109375 28.140625 C 8.160156 28.503906 8.1875 28.871094 8.1875 29.234375 C 8.019531 29.222656 7.855469 29.203125 7.6875 29.171875 C 7.519531 29.140625 7.355469 29.097656 7.1875 29.046875 C 7.03125 28.996094 6.875 28.933594 6.71875 28.859375 C 6.5625 28.785156 6.417969 28.707031 6.28125 28.625 C 6.375 28.761719 6.480469 28.886719 6.59375 29 C 6.707031 29.125 6.828125 29.238281 6.953125 29.34375 C 7.089844 29.449219 7.222656 29.546875 7.359375 29.640625 C 7.503906 29.722656 7.652344 29.800781 7.796875 29.875 C 7.578125 29.886719 7.359375 29.910156 7.140625 29.953125 C 6.921875 29.996094 6.707031 30.050781 6.5 30.125 C 6.28125 30.1875 6.074219 30.269531 5.875 30.375 C 5.675781 30.46875 5.488281 30.578125 5.3125 30.703125 C 5.53125 30.628906 5.761719 30.566406 6 30.515625 C 6.238281 30.472656 6.480469 30.453125 6.71875 30.453125 C 6.957031 30.441406 7.199219 30.449219 7.4375 30.46875 C 7.667969 30.5 7.902344 30.546875 8.140625 30.609375 C 6.625 33.4375 5.09375 36.59375 3.515625 39.953125 C 3.589844 39.941406 3.660156 39.925781 3.734375 39.90625 C 3.808594 39.875 3.875 39.839844 3.9375 39.796875 C 4 39.746094 4.050781 39.691406 4.09375 39.640625 C 4.144531 39.578125 4.1875 39.511719 4.21875 39.4375 C 4.515625 38.828125 6.375 34.84375 9.15625 29.640625 C 9.234375 29.484375 9.3125 29.34375 9.390625 29.1875 C 9.421875 29.140625 9.4375 29.109375 9.453125 29.0625 C 9.746094 28.519531 10.046875 27.964844 10.359375 27.390625 C 10.4375 27.265625 10.515625 27.140625 10.578125 27 L 9.484375 23.71875 C 9.472656 23.730469 9.46875 23.734375 9.46875 23.734375 C 9.46875 23.746094 9.464844 23.753906 9.453125 23.765625 C 9.453125 23.777344 9.453125 23.78125 9.453125 23.78125 C 9.441406 23.792969 9.4375 23.800781 9.4375 23.8125 Z M 9.4375 23.8125 "/>
<path style=" stroke:none;fill-rule:nonzero;fill:url(#linear13);" d="M 19.171875 13.625 C 19.125 13.703125 19.0625 13.78125 19 13.875 C 18.828125 14.140625 18.65625 14.390625 18.484375 14.65625 C 18.3125 14.921875 18.09375 15.25 17.890625 15.546875 C 17.785156 15.691406 17.6875 15.84375 17.59375 16 C 17.28125 16.46875 16.96875 16.953125 16.65625 17.453125 C 16.265625 18.078125 15.875 18.71875 15.46875 19.375 C 15.078125 20.015625 14.671875 20.671875 14.28125 21.34375 C 13.894531 21.988281 13.503906 22.65625 13.109375 23.34375 C 12.765625 23.96875 12.40625 24.59375 12.046875 25.25 C 12.015625 25.28125 12.015625 25.3125 11.984375 25.34375 C 11.628906 25.988281 11.269531 26.65625 10.90625 27.34375 C 10.894531 27.34375 10.890625 27.34375 10.890625 27.34375 C 10.890625 27.355469 10.890625 27.359375 10.890625 27.359375 C 10.878906 27.371094 10.875 27.375 10.875 27.375 C 10.875 27.375 10.875 27.378906 10.875 27.390625 L 12.140625 27.421875 C 12.125 27.421875 12.09375 27.421875 12.0625 27.40625 C 12.53125 27.375 12.996094 27.3125 13.453125 27.21875 C 13.910156 27.113281 14.359375 26.980469 14.796875 26.8125 C 15.234375 26.644531 15.65625 26.449219 16.0625 26.21875 C 16.46875 25.980469 16.855469 25.714844 17.21875 25.421875 C 17.394531 25.277344 17.574219 25.121094 17.75 24.953125 C 17.917969 24.796875 18.082031 24.636719 18.25 24.46875 C 18.417969 24.300781 18.574219 24.128906 18.71875 23.953125 C 18.875 23.777344 19.027344 23.59375 19.171875 23.40625 C 19.296875 23.25 19.417969 23.089844 19.53125 22.921875 C 19.644531 22.753906 19.761719 22.589844 19.875 22.421875 C 19.988281 22.253906 20.105469 22.082031 20.21875 21.90625 C 20.324219 21.730469 20.425781 21.558594 20.53125 21.390625 C 20.921875 20.734375 21.3125 20.015625 21.6875 19.234375 C 21.59375 19.265625 21.496094 19.292969 21.390625 19.3125 C 21.285156 19.34375 21.1875 19.371094 21.09375 19.390625 C 20.988281 19.410156 20.886719 19.425781 20.78125 19.4375 C 20.675781 19.449219 20.574219 19.453125 20.46875 19.453125 L 20.21875 19.46875 C 20.140625 19.46875 20.0625 19.46875 19.984375 19.46875 C 20.328125 19.386719 20.65625 19.269531 20.96875 19.125 C 21.292969 18.980469 21.59375 18.800781 21.875 18.59375 C 22.15625 18.386719 22.417969 18.152344 22.65625 17.890625 C 22.894531 17.640625 23.109375 17.363281 23.296875 17.0625 C 23.160156 17.136719 23.019531 17.199219 22.875 17.25 C 22.730469 17.300781 22.582031 17.347656 22.4375 17.390625 C 22.28125 17.433594 22.128906 17.46875 21.984375 17.5 C 21.828125 17.519531 21.671875 17.542969 21.515625 17.5625 C 21.421875 17.5625 21.3125 17.5625 21.21875 17.5625 C 21.199219 17.5625 21.171875 17.5625 21.140625 17.5625 C 21.253906 17.542969 21.371094 17.511719 21.484375 17.46875 C 21.597656 17.4375 21.714844 17.402344 21.828125 17.359375 C 21.941406 17.308594 22.050781 17.261719 22.15625 17.21875 C 22.269531 17.167969 22.378906 17.109375 22.484375 17.046875 C 22.503906 17.035156 22.527344 17.027344 22.546875 17.015625 C 22.566406 17.003906 22.589844 16.996094 22.609375 16.984375 C 22.628906 16.972656 22.652344 16.964844 22.671875 16.953125 C 22.691406 16.941406 22.714844 16.925781 22.734375 16.90625 C 22.859375 16.828125 22.96875 16.75 23.078125 16.65625 C 23.15625 16.609375 23.21875 16.546875 23.296875 16.484375 C 23.339844 16.453125 23.378906 16.417969 23.421875 16.375 C 23.464844 16.332031 23.503906 16.296875 23.546875 16.265625 C 23.578125 16.222656 23.613281 16.183594 23.65625 16.140625 C 23.6875 16.097656 23.722656 16.058594 23.765625 16.015625 C 23.8125 15.953125 23.859375 15.90625 23.890625 15.84375 C 23.953125 15.765625 24.015625 15.6875 24.0625 15.609375 C 24.3125 15.246094 24.519531 14.917969 24.6875 14.625 C 24.769531 14.480469 24.847656 14.34375 24.921875 14.21875 C 24.9375 14.171875 24.96875 14.125 25 14.078125 C 25.0625 13.9375 25.125 13.8125 25.171875 13.703125 C 25.191406 13.671875 25.207031 13.640625 25.21875 13.609375 C 25.230469 13.578125 25.246094 13.546875 25.265625 13.515625 C 25.277344 13.472656 25.285156 13.4375 25.296875 13.40625 C 25.308594 13.375 25.316406 13.34375 25.328125 13.3125 C 25.316406 13.324219 25.300781 13.328125 25.28125 13.328125 C 25.269531 13.339844 25.261719 13.347656 25.25 13.359375 C 25.230469 13.359375 25.214844 13.363281 25.203125 13.375 C 25.183594 13.386719 25.167969 13.390625 25.15625 13.390625 C 25.011719 13.441406 24.859375 13.488281 24.703125 13.53125 C 24.558594 13.574219 24.410156 13.605469 24.265625 13.625 C 24.109375 13.65625 23.957031 13.683594 23.8125 13.703125 C 23.65625 13.714844 23.5 13.722656 23.34375 13.734375 L 24.515625 13.78125 L 23.34375 13.734375 C 23.34375 13.734375 23.339844 13.734375 23.328125 13.734375 C 23.308594 13.734375 23.292969 13.734375 23.28125 13.734375 C 23.261719 13.734375 23.246094 13.734375 23.234375 13.734375 C 23.214844 13.734375 23.199219 13.734375 23.1875 13.734375 C 23.167969 13.734375 23.152344 13.734375 23.140625 13.734375 C 23.140625 13.734375 23.15625 13.734375 23.171875 13.71875 L 19.1875 13.578125 C 19.203125 13.59375 19.1875 13.609375 19.171875 13.625 Z M 19.171875 13.625 "/>
<path style=" stroke:none;fill-rule:nonzero;fill:url(#linear14);" d="M 24.75 6.359375 C 24.324219 6.839844 23.855469 7.390625 23.34375 8.015625 C 23.332031 8.027344 23.328125 8.035156 23.328125 8.046875 C 23.316406 8.046875 23.308594 8.050781 23.296875 8.0625 C 23.296875 8.074219 23.292969 8.082031 23.28125 8.09375 C 23.28125 8.105469 23.277344 8.109375 23.265625 8.109375 C 22.828125 8.65625 22.359375 9.265625 21.859375 9.921875 C 21.421875 10.484375 20.96875 11.09375 20.5 11.765625 C 20.078125 12.328125 19.65625 12.9375 19.203125 13.59375 L 23.1875 13.734375 C 23.417969 13.683594 23.640625 13.609375 23.859375 13.515625 C 24.078125 13.433594 24.285156 13.332031 24.484375 13.21875 C 24.691406 13.105469 24.886719 12.972656 25.0625 12.828125 C 25.25 12.683594 25.421875 12.527344 25.578125 12.359375 C 25.746094 12.191406 25.90625 12.011719 26.0625 11.8125 C 26.199219 11.667969 26.324219 11.519531 26.4375 11.375 C 26.5625 11.230469 26.6875 11.078125 26.8125 10.921875 C 26.925781 10.777344 27.042969 10.625 27.15625 10.46875 C 27.28125 10.3125 27.394531 10.15625 27.5 10 C 27.605469 9.855469 27.707031 9.707031 27.8125 9.5625 C 27.90625 9.417969 28 9.265625 28.09375 9.109375 C 28.1875 8.964844 28.28125 8.816406 28.375 8.671875 C 28.46875 8.515625 28.558594 8.359375 28.640625 8.203125 C 28.691406 8.128906 28.738281 8.050781 28.78125 7.96875 C 28.824219 7.886719 28.863281 7.800781 28.90625 7.71875 C 28.949219 7.636719 28.988281 7.550781 29.03125 7.46875 C 29.074219 7.386719 29.109375 7.300781 29.140625 7.21875 C 29.25 6.953125 29.34375 6.71875 29.4375 6.46875 C 29.042969 6.480469 28.652344 6.484375 28.265625 6.484375 C 27.871094 6.484375 27.480469 6.480469 27.09375 6.46875 C 26.699219 6.457031 26.308594 6.441406 25.921875 6.421875 C 25.535156 6.410156 25.144531 6.390625 24.75 6.359375 Z M 24.75 6.359375 "/>
</g>
</svg>
