<?xml version="1.0" encoding="UTF-8"?>
<svg xmlns="http://www.w3.org/2000/svg" xmlns:xlink="http://www.w3.org/1999/xlink" width="px" height="40px" viewBox="0 0 40 40" version="1.1">
<g id="surface1">
<path style=" stroke:none;fill-rule:nonzero;fill:rgb(100%,100%,100%);fill-opacity:1;" d="M 20 40 C 8.9375 40 0 31.0625 0 20 C 0 8.9375 8.9375 0 20 0 C 31.0625 0 40 8.9375 40 20 C 40 31.0625 31.0625 40 20 40 Z M 20 40 "/>
<path style=" stroke:none;fill-rule:nonzero;fill:rgb(41.176471%,70.980394%,24.705882%);fill-opacity:1;" d="M 20 36.875 C 10.671875 36.875 3.125 29.328125 3.125 20 C 3.125 10.671875 10.671875 3.125 20 3.125 C 29.328125 3.125 36.875 10.671875 36.875 20 C 36.875 29.328125 29.328125 36.875 20 36.875 Z M 20 36.875 "/>
<path style=" stroke:none;fill-rule:nonzero;fill:rgb(97.254902%,97.254902%,97.254902%);fill-opacity:1;" d="M 9.0625 9.84375 L 9.0625 23.90625 C 9.078125 27.359375 11.859375 30.140625 15.3125 30.15625 L 24.6875 30.15625 C 28.140625 30.140625 30.921875 27.359375 30.9375 23.90625 L 30.9375 16.09375 C 30.921875 13.515625 28.828125 11.421875 26.25 11.40625 C 25.09375 11.40625 23.984375 11.84375 23.125 12.640625 C 22.265625 11.859375 21.15625 11.421875 20 11.40625 C 17.421875 11.421875 15.328125 13.515625 15.3125 16.09375 L 15.3125 23.90625 L 18.4375 23.90625 L 18.4375 16.09375 C 18.4375 15.234375 19.140625 14.53125 20 14.53125 C 20.859375 14.53125 21.5625 15.234375 21.5625 16.09375 L 21.5625 23.90625 L 24.6875 23.90625 L 24.6875 16.09375 C 24.6875 15.234375 25.390625 14.53125 26.25 14.53125 C 27.109375 14.53125 27.8125 15.234375 27.8125 16.09375 L 27.8125 23.90625 C 27.828125 25.625 26.4375 27.015625 24.734375 27.03125 C 24.722656 27.03125 24.707031 27.03125 24.6875 27.03125 L 15.3125 27.03125 C 13.59375 27.046875 12.203125 25.65625 12.1875 23.953125 C 12.1875 23.941406 12.1875 23.925781 12.1875 23.90625 L 12.1875 9.84375 Z M 9.0625 9.84375 "/>
</g>
</svg>
