<?xml version="1.0" encoding="UTF-8"?>
<svg xmlns="http://www.w3.org/2000/svg" xmlns:xlink="http://www.w3.org/1999/xlink" width="px" height="40px" viewBox="0 0 40 40" version="1.1">
<g id="surface1">
<path style=" stroke:none;fill-rule:nonzero;fill:rgb(7.450981%,66.666669%,32.156864%);fill-opacity:1;" d="M 20 40 C 8.9375 40 0 31.0625 0 20 C 0 8.9375 8.9375 0 20 0 C 31.0625 0 40 8.9375 40 20 C 40 31.0625 31.0625 40 20 40 Z M 20 40 "/>
<path style=" stroke:none;fill-rule:evenodd;fill:rgb(100%,100%,100%);fill-opacity:1;" d="M 25.421875 18.109375 C 25.453125 18.296875 25.472656 18.480469 25.484375 18.65625 C 25.503906 18.84375 25.519531 19.03125 25.53125 19.21875 C 25.542969 19.40625 25.546875 19.59375 25.546875 19.78125 C 25.5625 24.234375 23.21875 27.03125 21.90625 28.234375 L 21.875 28.25 C 21.8125 28.3125 21.75 28.371094 21.6875 28.421875 C 21.625 28.484375 21.5625 28.542969 21.5 28.59375 C 21.4375 28.644531 21.371094 28.699219 21.296875 28.75 C 21.234375 28.800781 21.167969 28.855469 21.09375 28.90625 L 21.046875 28.921875 C 20.996094 29.171875 20.941406 29.425781 20.890625 29.6875 C 20.847656 29.9375 20.808594 30.191406 20.765625 30.453125 C 20.714844 30.703125 20.671875 30.957031 20.640625 31.21875 C 20.609375 31.480469 20.578125 31.738281 20.546875 32 L 20.0625 32 C 19.9375 30.53125 19.734375 29.15625 19.734375 29.125 L 19.671875 29.078125 C 19.046875 28.640625 14.5 25.109375 14.78125 19.203125 C 15.078125 12.875 18.796875 9.75 19.515625 9.1875 C 19.984375 8.6875 20 8.5 20.046875 8 C 20.046875 8.03125 20.0625 8.0625 20.0625 8.078125 C 20.0625 8.078125 20.421875 8.953125 20.78125 9.453125 C 21.09375 10.140625 24.078125 11.984375 25.34375 17.5625 C 25.375 17.738281 25.402344 17.921875 25.421875 18.109375 Z M 20.78125 28.15625 C 20.78125 28.15625 20.5 17.46875 20.28125 17.46875 C 20.015625 17.453125 20.015625 25.75 20.015625 25.75 C 20.015625 26.390625 20.390625 28.109375 20.78125 28.15625 Z M 20.78125 28.15625 "/>
</g>
</svg>
