<?xml version="1.0" encoding="UTF-8"?>
<svg xmlns="http://www.w3.org/2000/svg" xmlns:xlink="http://www.w3.org/1999/xlink" width="px" height="40px" viewBox="0 0 40 40" version="1.1">
<g id="surface1">
<path style=" stroke:none;fill-rule:evenodd;fill:rgb(0%,38.039216%,54.11765%);fill-opacity:1;" d="M 34.972656 29.265625 C 34.101562 28.640625 33.195312 27.953125 32.261719 27.375 C 31.769531 27.078125 30.925781 26.84375 30.40625 26.625 C 29.671875 26.296875 28.046875 26 27.617188 25.421875 C 26.820312 24.328125 26.269531 23.015625 25.699219 21.703125 C 25.132812 20.390625 24.429688 19.015625 23.847656 17.671875 C 23.570312 17 23.433594 16.40625 23.109375 15.78125 C 21.117188 11.890625 18.207031 8.625 14.652344 6.328125 C 13.472656 5.578125 12.183594 4.890625 10.757812 4.4375 C 9.945312 4.1875 8.964844 4.328125 8.09375 4.125 L 7.539062 4.125 C 7.050781 3.984375 6.652344 3.453125 6.238281 3.1875 C 5.410156 2.609375 4.582031 2.21875 3.585938 1.796875 C 3.21875 1.640625 2.207031 1.265625 1.855469 1.546875 C 1.640625 1.609375 1.546875 1.703125 1.488281 1.921875 C 1.273438 2.25 1.472656 2.75 1.609375 3.0625 C 2.007812 3.9375 2.574219 4.46875 3.097656 5.203125 C 3.554688 5.859375 4.121094 6.609375 4.445312 7.34375 C 5.148438 8.890625 5.457031 10.59375 6.113281 12.125 C 6.375 12.71875 6.742188 13.390625 7.109375 13.890625 C 7.402344 14.296875 7.9375 14.609375 8.09375 15.15625 C 8.429688 15.6875 7.601562 17.53125 7.417969 18.109375 C 6.710938 20.375 6.851562 23.53125 7.664062 25.484375 C 7.984375 26.265625 8.292969 27.15625 9.148438 27.375 C 9.210938 27.328125 9.164062 27.34375 9.273438 27.3125 C 9.457031 25.796875 9.515625 24.34375 10.007812 23.15625 C 10.328125 22.40625 10.910156 21.890625 11.308594 21.265625 C 11.601562 21.4375 11.601562 21.9375 11.738281 22.265625 C 12.105469 23.140625 12.492188 24.0625 12.917969 24.921875 C 13.824219 26.6875 14.820312 28.390625 15.9375 29.953125 C 16.335938 30.515625 16.890625 31.109375 17.363281 31.59375 C 17.578125 31.796875 17.824219 31.90625 17.976562 32.15625 L 18.039062 32.15625 L 18.039062 32.21875 C 17.210938 31.9375 16.703125 31.078125 16.0625 30.59375 C 14.835938 29.640625 13.363281 28.21875 12.550781 26.875 L 11.433594 24.59375 L 11.433594 24.53125 C 11.28125 24.75 11.324219 24.984375 11.25 25.296875 C 10.898438 26.6875 11.171875 28.25 9.945312 28.765625 C 8.550781 29.34375 7.539062 27.828125 7.109375 27.125 C 5.699219 24.828125 5.332031 20.96875 6.300781 17.859375 C 6.511719 17.171875 6.542969 16.328125 6.925781 15.78125 C 6.867188 15.296875 6.46875 15.15625 6.238281 14.84375 C 5.871094 14.328125 5.546875 13.71875 5.257812 13.140625 C 4.675781 12 4.277344 10.65625 3.832031 9.421875 C 3.648438 8.921875 3.617188 8.4375 3.402344 7.96875 C 3.082031 7.25 2.5 6.53125 2.039062 5.890625 C 1.394531 4.984375 -0.414062 3.21875 0.304688 1.421875 C 1.457031 -1.4375 5.441406 0.734375 6.988281 1.734375 C 7.371094 1.984375 7.800781 2.5 8.214844 2.671875 C 8.898438 2.722656 9.578125 2.769531 10.253906 2.8125 C 11.523438 3.109375 12.71875 3.34375 13.714844 3.9375 C 18.390625 6.734375 21.425781 9.5625 24.230469 14.265625 C 24.8125 15.25 25.117188 16.328125 25.578125 17.421875 C 26.269531 19.015625 27.035156 20.6875 27.800781 22.203125 C 28.183594 22.9375 28.445312 23.71875 28.917969 24.34375 C 29.117188 24.609375 29.65625 24.703125 29.976562 24.859375 C 30.882812 25.328125 31.953125 25.6875 32.8125 26.234375 C 34.359375 27.234375 35.878906 28.4375 37.257812 29.640625 C 37.792969 30.09375 38.128906 30.765625 38.621094 31.28125 L 38.621094 31.53125 L 37.316406 31.90625 C 36.367188 32.15625 35.539062 32.09375 34.605469 32.34375 C 34.054688 32.5 33.347656 32.71875 32.75 32.796875 L 32.8125 32.859375 C 33.164062 33.859375 35.050781 34.6875 35.90625 35.3125 C 36.964844 36.078125 37.960938 37.015625 38.742188 38.078125 L 39.539062 38.90625 C 39.722656 39.171875 39.785156 39.53125 39.984375 39.78125 L 39.984375 39.84375 C 39.601562 39.703125 39.402344 39.375 39.109375 39.15625 C 38.527344 38.71875 37.929688 38.21875 37.316406 37.828125 C 36.304688 37.171875 35.109375 36.796875 34.054688 36.125 C 33.457031 35.765625 32.875 35.296875 32.320312 34.875 C 31.800781 34.484375 31.234375 33.734375 30.898438 33.171875 C 30.726562 32.875 30.683594 32.53125 30.46875 32.28125 C 30.527344 31.765625 31.171875 31.765625 31.570312 31.59375 C 32.996094 30.984375 34.652344 30.78125 36.828125 30.84375 C 36.765625 30.265625 35.417969 29.578125 34.972656 29.265625 Z M 9.945312 7.46875 C 10.085938 7.671875 10.101562 7.875 10.253906 8.03125 C 10.253906 8.703125 10.085938 9.140625 9.699219 9.421875 L 9.640625 9.484375 C 9.433594 9.046875 9.230469 8.605469 9.027344 8.15625 C 8.75 7.765625 8.367188 7.484375 8.152344 7.03125 L 8.09375 7.03125 L 8.09375 6.96875 C 8.429688 6.890625 8.75 6.828125 9.210938 6.84375 C 9.425781 7.0625 9.777344 7.203125 9.945312 7.46875 Z M 9.945312 7.46875 "/>
</g>
</svg>
