<?xml version="1.0" encoding="UTF-8"?>
<svg xmlns="http://www.w3.org/2000/svg" xmlns:xlink="http://www.w3.org/1999/xlink" width="px" height="40px" viewBox="0 0 35 40" version="1.1">
<g id="surface1">
<path style=" stroke:none;fill-rule:evenodd;fill:rgb(63.137257%,77.254903%,20.784314%);fill-opacity:1;" d="M 17.5 0 L 17.5 7.734375 L 6.777344 13.90625 L 0 10 Z M 17.5 0 "/>
<path style=" stroke:none;fill-rule:evenodd;fill:rgb(67.843139%,83.137256%,22.352941%);fill-opacity:1;" d="M 35 10 L 28.222656 13.90625 L 17.5 7.734375 L 17.5 0 Z M 35 10 "/>
<path style=" stroke:none;fill-rule:evenodd;fill:rgb(10.588235%,41.568628%,77.64706%);fill-opacity:1;" d="M 35 30 L 28.222656 26.09375 L 28.222656 13.90625 L 35 10 Z M 35 30 "/>
<path style=" stroke:none;fill-rule:evenodd;fill:rgb(18.039216%,56.470591%,90.980393%);fill-opacity:1;" d="M 17.5 40 L 17.5 32.265625 L 28.222656 26.09375 L 35 30 Z M 17.5 40 "/>
<path style=" stroke:none;fill-rule:evenodd;fill:rgb(91.764706%,12.54902%,36.862746%);fill-opacity:1;" d="M 0 30 L 6.777344 26.09375 L 17.5 32.265625 L 17.5 40 Z M 0 30 "/>
<path style=" stroke:none;fill-rule:evenodd;fill:rgb(64.705884%,2.745098%,24.313726%);fill-opacity:1;" d="M 0 10 L 6.777344 13.90625 L 6.777344 26.09375 L 0 30 Z M 0 10 "/>
<path style=" stroke:none;fill-rule:evenodd;fill:rgb(94.509804%,96.470588%,88.627452%);fill-opacity:1;" d="M 6.777344 13.90625 L 17.5 7.734375 L 28.222656 13.90625 L 17.5 20 Z M 6.777344 13.90625 "/>
<path style=" stroke:none;fill-rule:evenodd;fill:rgb(80.784315%,85.882354%,90.196079%);fill-opacity:1;" d="M 17.5 20 L 28.222656 13.90625 L 28.222656 26.09375 L 17.5 32.265625 Z M 17.5 20 "/>
<path style=" stroke:none;fill-rule:evenodd;fill:rgb(100%,100%,100%);fill-opacity:1;" d="M 6.777344 13.90625 L 17.5 20 L 17.5 32.265625 L 6.777344 26.09375 Z M 6.777344 13.90625 "/>
</g>
</svg>
