<?xml version="1.0" encoding="UTF-8"?>
<svg xmlns="http://www.w3.org/2000/svg" xmlns:xlink="http://www.w3.org/1999/xlink" width="px" height="40px" viewBox="0 0 40 40" version="1.1">
<g id="surface1">
<path style=" stroke:none;fill-rule:evenodd;fill:rgb(0%,31.37255%,36.470589%);fill-opacity:1;" d="M 24.78125 0.390625 C 27.40625 0.828125 29.609375 2.765625 29.609375 5.34375 L 29.609375 14.4375 C 29.609375 17.09375 27.46875 19.28125 24.78125 19.28125 L 15.15625 19.28125 C 11.875 19.28125 9.125 22.0625 9.125 25.21875 L 9.125 29.578125 L 5.8125 29.578125 C 3 29.578125 1.359375 27.5625 0.671875 24.734375 C -0.25 20.9375 -0.203125 18.671875 0.671875 15.03125 C 1.453125 11.859375 3.90625 10.203125 6.703125 10.203125 L 19.96875 10.203125 L 19.96875 8.984375 L 10.328125 8.984375 L 10.328125 5.34375 C 10.328125 2.59375 11.0625 1.109375 15.15625 0.390625 C 16.53125 0.140625 18.109375 0.015625 19.765625 0 C 21.40625 0 23.125 0.109375 24.78125 0.390625 Z M 16.359375 4.75 C 16.359375 3.734375 15.546875 2.921875 14.546875 2.921875 C 13.546875 2.921875 12.734375 3.734375 12.734375 4.75 C 12.734375 5.75 13.546875 6.5625 14.546875 6.5625 C 15.546875 6.5625 16.359375 5.75 16.359375 4.75 Z M 16.359375 4.75 "/>
<path style=" stroke:none;fill-rule:evenodd;fill:rgb(0%,31.37255%,36.470589%);fill-opacity:1;" d="M 34.4375 10.203125 C 37.25 10.203125 38.5625 12.28125 39.265625 15.03125 C 40.21875 18.875 40.265625 21.75 39.265625 24.734375 C 38.28125 27.640625 37.234375 29.578125 34.4375 29.578125 L 19.96875 29.578125 L 19.96875 30.78125 L 29.609375 30.78125 L 29.609375 34.421875 C 29.609375 37.171875 27.21875 38.578125 24.78125 39.265625 C 21.140625 40.328125 18.203125 40.15625 15.15625 39.265625 C 12.59375 38.53125 10.328125 37.015625 10.328125 34.421875 L 10.328125 25.34375 C 10.328125 22.71875 12.515625 20.484375 15.15625 20.484375 L 24.78125 20.484375 C 28 20.484375 30.8125 17.71875 30.8125 14.4375 L 30.8125 10.203125 Z M 27.203125 35.03125 C 27.203125 34.03125 26.390625 33.21875 25.390625 33.21875 C 24.390625 33.21875 23.578125 34.03125 23.578125 35.03125 C 23.578125 36.03125 24.390625 36.84375 25.390625 36.84375 C 26.390625 36.84375 27.203125 36.03125 27.203125 35.03125 Z M 27.203125 35.03125 "/>
</g>
</svg>
