<svg version="1.2" xmlns="http://www.w3.org/2000/svg" viewBox="0 0 103 40" width="103" height="40">
	<title>npm</title>
	<style>
		.s0 { fill: #cb3837 } 
		.s1 { fill: #ffffff } 
	</style>
	<path class="s0" d="m0 0h103v34.3h-51.5v5.7h-22.9v-5.7h-28.6zm5.7 28.6h11.5v-17.2h5.7v17.2h5.7v-22.9h-22.9zm28.6-22.9v28.6h11.5v-5.7h11.4v-22.9zm11.5 5.8h5.7v11.4h-5.7zm17.1-5.7v22.8h11.5v-17.1h5.7v17.1h5.7v-17.1h5.7v17.1h5.8v-22.8z"/>
	<path fill-rule="evenodd" class="s1" d="m5.7 28.6h11.5v-17.2h5.7v17.2h5.7v-22.9h-22.9z"/>
	<path class="s1" d="m34.3 5.7v28.6h11.5v-5.7h11.4v-22.9zm17.2 17.2h-5.7v-11.5h5.7z"/>
	<path fill-rule="evenodd" class="s1" d="m62.9 5.7v22.9h11.5v-17.2h5.7v17.2h5.7v-17.2h5.8v17.2h5.7v-22.9z"/>
</svg>