<?xml version="1.0" encoding="UTF-8"?>
<svg xmlns="http://www.w3.org/2000/svg" xmlns:xlink="http://www.w3.org/1999/xlink" width="px" height="40px" viewBox="0 0 37 39" version="1.1">
<g id="surface1">
<path style=" stroke:none;fill-rule:nonzero;fill:rgb(30.19608%,67.058825%,81.176472%);fill-opacity:1;" d="M 27.6875 26.570312 L 27.6875 35.144531 L 19.929688 38.9375 L 19.929688 30.363281 Z M 37 21.984375 L 37 30.589844 L 30.378906 33.835938 L 30.378906 25.273438 Z M 27.671875 15.082031 L 27.6875 23.566406 L 19.929688 27.347656 L 19.929688 18.84375 Z M 37 10.542969 L 37 18.980469 L 30.378906 22.289062 L 30.363281 13.773438 Z M 18.765625 9.550781 L 25.683594 12.980469 L 18.5 16.515625 L 11.707031 13.164062 Z M 9.125 4.785156 L 15.734375 8.058594 L 8.660156 11.683594 L 1.867188 8.332031 Z M 28.015625 4.84375 L 35.132812 8.332031 L 28.777344 11.472656 L 21.828125 8.042969 Z M 18.546875 0.183594 L 24.953125 3.335938 L 18.8125 6.550781 L 12.203125 3.289062 Z M 18.546875 0.183594 "/>
<path style=" stroke:none;fill-rule:nonzero;fill:rgb(30.19608%,46.666667%,81.176472%);fill-opacity:1;" d="M 17.195312 18.84375 L 11.96875 16.269531 L 11.96875 27.421875 C 11.96875 27.421875 5.566406 14.078125 4.976562 12.875 C 4.898438 12.71875 4.585938 12.554688 4.507812 12.507812 C 3.359375 11.914062 0 10.238281 0 10.238281 L 0 29.9375 L 4.648438 32.375 L 4.648438 22.074219 C 4.648438 22.074219 10.976562 34.003906 11.039062 34.140625 C 11.101562 34.277344 11.738281 35.527344 12.421875 35.96875 C 13.324219 36.5625 17.195312 38.847656 17.195312 38.847656 Z M 17.195312 18.84375 "/>
</g>
</svg>
