<?xml version="1.0" encoding="UTF-8"?>
<svg xmlns="http://www.w3.org/2000/svg" xmlns:xlink="http://www.w3.org/1999/xlink" width="px" height="40px" viewBox="0 0 42 40" version="1.1">
<g id="surface1">
<path style=" stroke:none;fill-rule:nonzero;fill:rgb(100%,0.392157%,0.392157%);fill-opacity:1;" d="M 15.972656 18.78125 C 12.125 16.515625 10.238281 11.875 11.390625 7.484375 C 12.554688 3.109375 16.449219 0.046875 20.894531 0.046875 C 25.339844 0.046875 29.246094 3.109375 30.394531 7.484375 C 31.546875 11.875 29.660156 16.515625 25.8125 18.78125 L 22.855469 13.546875 C 24.386719 12.640625 25.125 10.796875 24.679688 9.0625 C 24.21875 7.3125 22.671875 6.09375 20.894531 6.09375 C 19.128906 6.09375 17.566406 7.3125 17.121094 9.0625 C 16.660156 10.796875 17.398438 12.640625 18.929688 13.546875 Z M 15.972656 18.78125 "/>
<path style=" stroke:none;fill-rule:nonzero;fill:rgb(0.392157%,0.392157%,100%);fill-opacity:1;" d="M 37.035156 21.21875 C 40.882812 23.484375 42.765625 28.125 41.617188 32.515625 C 40.46875 36.890625 36.574219 39.953125 32.113281 39.953125 C 27.667969 39.953125 23.773438 36.890625 22.625 32.515625 C 21.476562 28.125 23.34375 23.484375 27.207031 21.21875 L 30.167969 26.453125 C 28.632812 27.359375 27.882812 29.203125 28.34375 30.9375 C 28.800781 32.6875 30.351562 33.90625 32.113281 33.90625 C 33.890625 33.90625 35.4375 32.6875 35.898438 30.9375 C 36.359375 29.203125 35.609375 27.359375 34.074219 26.453125 Z M 37.035156 21.21875 "/>
<path style=" stroke:none;fill-rule:nonzero;fill:rgb(0.392157%,100%,0.392157%);fill-opacity:1;" d="M 19.710938 29.90625 C 19.710938 34.453125 16.722656 38.4375 12.429688 39.609375 C 8.125 40.78125 3.585938 38.859375 1.363281 34.9375 C -0.859375 31 -0.214844 26.03125 2.929688 22.8125 C 6.070312 19.59375 10.945312 18.9375 14.792969 21.21875 L 11.832031 26.453125 C 10.300781 25.546875 8.371094 25.8125 7.113281 27.078125 C 5.871094 28.359375 5.609375 30.34375 6.5 31.90625 C 7.371094 33.46875 9.183594 34.234375 10.898438 33.765625 C 12.601562 33.296875 13.796875 31.71875 13.796875 29.90625 Z M 19.710938 29.90625 "/>
</g>
</svg>
