<svg version="1.2" xmlns="http://www.w3.org/2000/svg" viewBox="0 0 64 40" width="64" height="40">
	<title>opensuse</title>
	<defs>
		<clipPath clipPathUnits="userSpaceOnUse" id="cp1">
			<path d="m64 0v39.9h-64v-39.9z"/>
		</clipPath>
	</defs>
	<style>
		.s0 { fill: #73ba25 } 
	</style>
	<g>
		<g id="Clip-Path" clip-path="url(#cp1)">
			<g>
				<g>
					<path class="s0" d="m62 11q0.3-0.2 0.3-0.2l0.1-0.1c-0.1-0.9-1.4-5-2.4-6-0.2-0.3-0.5-0.5-0.9-0.8-3.5-2-11.8-3.2-12.2-3.3v0.1c0 0-0.1 1.7-0.1 1.9-0.8-0.3-7-2.3-12.7-2.5-4.9-0.2-12-0.8-21.5 5l-0.3 0.2c-4.4 2.7-7.5 6.1-9.1 10.1-0.5 1.2-1.1 4-0.5 6.7 0.3 1.1 0.9 2.3 1.6 3.3 1.6 2.4 4.4 3.9 7.3 4.2 4.2 0.3 7.4-1.5 8.5-5 0.8-2.4 0-6-3-7.8-2.4-1.5-5-1.1-6.5-0.1-1.3 0.8-2 2.2-2 3.6 0 2.6 2.3 4 3.9 4q0.7 0 1.5-0.2 0.3-0.1 0.5-0.3h0.1c0.4-0.3 0.6-0.7 0.6-1.1q0-0.2 0-0.4c-0.2-0.6-0.9-1-1.6-0.9h-0.2l-0.2 0.1c-0.3 0.1-0.6 0.1-0.7 0.1-0.2 0-1.1-0.3-1.1-1.3 0-0.4 0.2-0.7 0.2-0.8 0.3-0.5 1.1-0.9 2.2-0.8 1.4 0.1 2.4 0.8 3.1 2.2 0.6 1.3 0.5 2.8-0.4 4-0.9 1.1-2.5 1.6-4.5 1.3-2.1-0.2-3.9-1.4-4.9-3.3-1-1.8-1-4-0.1-5.6 2.1-4 6.1-4 8.3-3.6 3.3 0.6 7 3.6 8.3 7 0.2 0.6 0.3 1 0.4 1.4l0.1 0.6 3.7 1.8h0.1v-0.1c0-0.1 0-0.2-0.1-1.2-0.1-0.9-0.2-3.4 1-4.6 0.5-0.5 1.3-0.9 1.9-1.1 2.4-0.6 5.2-0.1 7.9 2.9 1.3 1.6 2 2.3 2.3 2.7l0.2 0.1 0.1 0.1c0.1 0 4.6 2.1 4.6 2.1h0.1v-0.1c0-0.1-2.9-3.7-2.4-6.7 0.4-2.3 2.3-2.1 5-1.8 0.8 0.1 1.8 0.2 2.8 0.2 2.8 0 5.9-0.5 7.7-1.3 1.2-0.5 2-0.9 2.5-1.3 0.2-0.2 0.3-0.4 0.3-0.6l0.1-0.2c0.1-0.2 0.2-0.6 0.3-0.9 0-0.1 0-0.2-0.1-0.2h-0.2c-0.9 0.5-2.9 1.4-4.8 1.5-2.4 0-7.2-2.4-7.7-2.7h-0.1c-0.1-0.3-0.8-2-1-2.4 3.5 2.3 6.4 3.6 8.6 3.7 2.4 0.3 4.3-1.1 5.1-1.6zm-9.5-3.5c0.1-0.9 0.5-1.8 1.2-2.5 0.7-0.6 1.6-0.9 2.5-0.9 2 0.1 3.5 1.7 3.4 3.6 0 1-0.4 1.9-1.1 2.5-0.7 0.6-1.6 1-2.5 0.9-2 0-3.5-1.7-3.5-3.6zm3.7-2.4c-0.7 0-1.3 0.2-1.8 0.7-0.5 0.4-0.8 1-0.8 1.7 0 1.4 1 2.5 2.4 2.6 0.7 0 1.3-0.3 1.8-0.7 0.5-0.5 0.7-1.1 0.8-1.7 0-1.4-1.1-2.5-2.4-2.6zm0.4 2.7c-0.6 0-1.1-0.3-1.1-0.7 0-0.4 0.5-0.7 1.1-0.7 0.6 0 1.1 0.3 1.1 0.7 0 0.4-0.5 0.7-1.1 0.7z"/>
				</g>
				<g>
					<path class="s0" d="m26.8 27.9c-1.6 0-2.4 1.3-2.4 2.2v1.2c0 1.3 1.1 2.1 2.1 2.1h3.6c0.4 0 0.5 0.3 0.5 0.6v0.7c0 0.1 0 0.8-0.5 0.8h-4.9c-0.5 0-0.8 0.4-0.8 0.8v0.2c0 0.5 0.3 0.8 0.8 0.8h5.1c1.4 0 2.2-0.9 2.2-2.3v-1.3c0-1.4-0.9-2-1.9-2h-3.5c-0.5 0-0.8-0.4-0.8-0.6v-0.7c0-0.5 0.3-0.7 0.8-0.7h3.9c0.5 0 0.8-0.4 0.8-0.8v-0.2c0-0.5-0.3-0.8-0.8-0.8h-4.2z"/>
				</g>
				<g>
					<path class="s0" d="m41.4 27.9c-0.5 0-0.9 0.4-0.9 0.8v6c0 0.4-0.4 0.8-0.8 0.8h-2.7c-0.5 0-0.9-0.4-0.9-0.8v-6c0-0.4-0.4-0.8-0.8-0.8h-0.3c-0.5 0-0.8 0.4-0.8 0.8v6.2c0 1.4 1.1 2.5 2.7 2.5h2.9c1.5 0 2.7-1.1 2.7-2.5v-6.2c0-0.4-0.4-0.8-0.9-0.8 0 0-0.2 0-0.2 0z"/>
				</g>
				<g>
					<path class="s0" d="m46.6 27.9c-1.6 0-2.5 1.3-2.5 2.2v1.2c0 1.3 1.1 2.1 2.2 2.1h3.5c0.5 0 0.6 0.3 0.6 0.6v0.7c0 0.1-0.1 0.8-0.6 0.8h-4.8c-0.5 0-0.9 0.4-0.9 0.8v0.2c0 0.5 0.4 0.8 0.9 0.8h5.1c1.3 0 2.2-0.9 2.2-2.3v-1.3c0-1.4-1-2-2-2h-3.5c-0.5 0-0.7-0.4-0.7-0.6v-0.7c0-0.5 0.3-0.7 0.8-0.7h3.9c0.4 0 0.8-0.4 0.8-0.8v-0.2c0-0.5-0.4-0.8-0.9-0.8 0 0-4.1 0-4.1 0z"/>
				</g>
				<g>
					<path class="s0" d="m54.7 27.9c-0.4 0-0.8 0.3-0.8 0.8v7.8c0 0.5 0.4 0.8 0.8 0.8h6.3c0.5 0 0.8-0.3 0.8-0.8v-0.2c0-0.4-0.3-0.8-0.8-0.8h-5.1v-2h3.7c0.5 0 0.9-0.3 0.9-0.8v-0.2c0-0.4-0.4-0.8-0.9-0.8h-3.7v-2h4.8c0.5 0 0.9-0.3 0.9-0.8v-0.2c0-0.5-0.4-0.8-0.9-0.8h-6z"/>
				</g>
				<g>
					<path class="s0" d="m1.4 31.6c-0.8 0-1.4 0.6-1.4 1.4v2.9c0 0.8 0.6 1.4 1.4 1.4h1.9c0.8 0 1.4-0.6 1.4-1.4v-2.9c0-0.8-0.7-1.4-1.4-1.4h-1.9zm-0.4 4.2v-2.7c0-0.3 0.3-0.6 0.6-0.6h1.5c0.3 0 0.6 0.3 0.6 0.6v2.7c0 0.3-0.3 0.6-0.6 0.6h-1.5c-0.3 0-0.6-0.3-0.6-0.6z"/>
				</g>
				<g>
					<path class="s0" d="m9 31.6c-0.5 0-0.9 0.2-1.3 0.3-0.2 0.1-0.4 0.2-0.5 0.2q-0.1 0-0.1 0l-0.2-0.3c0-0.1-0.1-0.2-0.3-0.2h-0.2c-0.2 0-0.3 0.2-0.3 0.4v7.5c0 0.2 0.2 0.4 0.4 0.4h0.2c0.2 0 0.4-0.2 0.4-0.4v-2.5c0-0.1 0-0.2 0.1-0.2 0.1 0 0.3 0.1 0.5 0.2 0.4 0.2 0.8 0.4 1.3 0.4h0.2c1 0 1.6-0.6 1.6-1.5v-2.9c0-0.8-0.6-1.4-1.6-1.4h-0.2q0 0 0 0zm-1.9 4.2v-2.6c0-0.4 0.3-0.7 0.6-0.7h1.4c0.4 0 0.7 0.3 0.7 0.7v2.6c0 0.3-0.3 0.6-0.7 0.6h-1.4c-0.3 0-0.6-0.3-0.6-0.6z"/>
				</g>
				<g>
					<path class="s0" d="m13.6 31.6c-0.8 0-1.4 0.6-1.4 1.4v2.9c0 0.8 0.6 1.4 1.4 1.4h1.9c0.3 0 0.5-0.1 0.5-0.4v-0.1c0-0.2-0.2-0.4-0.5-0.4h-1.6q-0.7 0-0.7-0.6v-0.9h2.9c0.5 0 0.8-0.3 0.8-0.8v-1.1c0-0.8-0.6-1.4-1.4-1.4h-1.9q0 0 0 0zm-0.4 1.5c0-0.3 0.3-0.6 0.6-0.6h1.5c0.3 0 0.6 0.3 0.6 0.6v0.9h-2.7c0-0.1 0-0.9 0-0.9z"/>
				</g>
				<g>
					<path class="s0" d="m21 31.6c-0.6 0-1 0.2-1.3 0.3-0.2 0.1-0.4 0.2-0.6 0.2 0 0 0 0-0.1-0.1l-0.1-0.2q-0.1-0.2-0.3-0.2h-0.2c-0.2 0-0.4 0.2-0.4 0.4v4.9c0 0.2 0.2 0.4 0.5 0.4h0.1c0.3 0 0.5-0.2 0.5-0.4v-3.7c0-0.4 0.2-0.7 0.6-0.7h1.4c0.3 0 0.6 0.3 0.6 0.7v3.7c0 0.2 0.2 0.4 0.5 0.4h0.1c0.3 0 0.4-0.2 0.4-0.4v-3.9c0-0.8-0.6-1.4-1.5-1.4z"/>
				</g>
				<g>
					<path class="s0" d="m63.2 35.4c0.5 0 0.8 0.4 0.8 0.8 0 0.4-0.3 0.8-0.8 0.8-0.4 0-0.7-0.4-0.7-0.8 0-0.4 0.3-0.8 0.7-0.8zm0 0.1c-0.3 0-0.6 0.3-0.6 0.7 0 0.4 0.3 0.7 0.6 0.7 0.4 0 0.7-0.3 0.7-0.7 0-0.4-0.3-0.7-0.7-0.7zm-0.1 1.2h-0.2v-0.9q0.1 0 0.3 0 0.2 0 0.3 0 0 0.1 0 0.2 0 0.2-0.1 0.2 0.1 0 0.1 0.2 0 0.2 0.1 0.3h-0.2q0-0.1 0-0.3-0.1-0.1-0.2-0.1h-0.1v0.4zm0-0.5h0.1c0.1 0 0.2-0.1 0.2-0.2 0-0.1-0.1-0.1-0.2-0.1q-0.1 0-0.1 0z"/>
				</g>
			</g>
		</g>
	</g>
</svg>