<?xml version="1.0" encoding="UTF-8"?>
<svg xmlns="http://www.w3.org/2000/svg" xmlns:xlink="http://www.w3.org/1999/xlink" width="px" height="40px" viewBox="0 0 40 40" version="1.1">
<g id="surface1">
<rect x="0" y="0" width="40" height="40" style="fill:rgb(23.921569%,45.882353%,68.627453%);fill-opacity:1;stroke:none;"/>
<path style=" stroke:none;fill-rule:evenodd;fill:rgb(98.039216%,98.431373%,98.823529%);fill-opacity:1;" d="M 4 23.734375 L 4 16.34375 C 4 16.34375 4.28125 16.28125 4.4375 16.265625 C 4.613281 16.234375 4.792969 16.214844 4.96875 16.203125 C 5.144531 16.191406 5.324219 16.183594 5.5 16.171875 C 5.675781 16.171875 5.855469 16.175781 6.03125 16.1875 C 6.207031 16.199219 6.386719 16.207031 6.5625 16.21875 C 6.84375 16.234375 7.125 16.3125 7.375 16.4375 C 7.640625 16.5625 7.859375 16.734375 8.046875 16.9375 C 8.234375 17.15625 8.375 17.40625 8.46875 17.671875 C 8.546875 17.9375 8.59375 18.21875 8.5625 18.5 C 8.574219 18.71875 8.558594 18.9375 8.515625 19.15625 C 8.464844 19.375 8.386719 19.578125 8.28125 19.765625 C 8.167969 19.953125 8.03125 20.125 7.875 20.28125 C 7.71875 20.425781 7.542969 20.550781 7.34375 20.65625 C 7.238281 20.707031 7.128906 20.753906 7.015625 20.796875 C 6.910156 20.839844 6.800781 20.871094 6.6875 20.890625 C 6.574219 20.921875 6.457031 20.941406 6.34375 20.953125 C 6.230469 20.964844 6.113281 20.96875 6 20.96875 C 5.75 20.984375 5.234375 20.96875 5.234375 20.96875 L 5.234375 23.734375 Z M 5.234375 17.296875 L 5.234375 19.84375 C 5.328125 19.863281 5.421875 19.878906 5.515625 19.890625 C 5.597656 19.902344 5.6875 19.90625 5.78125 19.90625 C 5.875 19.90625 5.96875 19.902344 6.0625 19.890625 C 6.144531 19.878906 6.234375 19.863281 6.328125 19.84375 C 6.453125 19.8125 6.574219 19.765625 6.6875 19.703125 C 6.800781 19.640625 6.90625 19.558594 7 19.453125 C 7.082031 19.359375 7.152344 19.25 7.203125 19.125 C 7.253906 19.011719 7.285156 18.886719 7.296875 18.75 C 7.296875 18.71875 7.296875 18.683594 7.296875 18.640625 C 7.296875 18.597656 7.296875 18.5625 7.296875 18.53125 C 7.296875 18.488281 7.296875 18.453125 7.296875 18.421875 C 7.296875 18.378906 7.296875 18.34375 7.296875 18.3125 C 7.285156 18.1875 7.261719 18.066406 7.21875 17.953125 C 7.167969 17.839844 7.105469 17.734375 7.03125 17.640625 C 6.949219 17.558594 6.855469 17.484375 6.75 17.421875 C 6.644531 17.359375 6.535156 17.316406 6.421875 17.296875 C 6.316406 17.277344 6.21875 17.261719 6.125 17.25 C 6.019531 17.238281 5.921875 17.234375 5.828125 17.234375 C 5.722656 17.234375 5.625 17.238281 5.53125 17.25 C 5.4375 17.261719 5.339844 17.277344 5.234375 17.296875 Z M 5.234375 17.296875 "/>
<path style=" stroke:none;fill-rule:nonzero;fill:rgb(98.039216%,98.431373%,98.823529%);fill-opacity:1;" d="M 18.78125 16.546875 L 18.484375 17.59375 C 18.410156 17.5625 18.339844 17.535156 18.265625 17.515625 C 18.183594 17.484375 18.105469 17.457031 18.03125 17.4375 C 17.957031 17.417969 17.878906 17.394531 17.796875 17.375 C 17.722656 17.355469 17.652344 17.339844 17.578125 17.328125 C 17.503906 17.316406 17.433594 17.3125 17.359375 17.3125 C 17.277344 17.300781 17.199219 17.296875 17.125 17.296875 C 17.050781 17.296875 16.980469 17.300781 16.90625 17.3125 C 16.832031 17.324219 16.761719 17.332031 16.6875 17.34375 C 16.605469 17.355469 16.527344 17.378906 16.453125 17.421875 C 16.371094 17.464844 16.296875 17.515625 16.234375 17.578125 C 16.171875 17.640625 16.125 17.707031 16.09375 17.78125 C 16.050781 17.863281 16.027344 17.949219 16.015625 18.03125 C 15.996094 18.113281 15.988281 18.199219 16 18.28125 C 16.011719 18.363281 16.03125 18.449219 16.0625 18.53125 C 16.09375 18.605469 16.136719 18.675781 16.1875 18.75 C 16.25 18.8125 16.316406 18.863281 16.390625 18.90625 C 16.6875 19.09375 17.015625 19.25 17.34375 19.40625 C 17.5625 19.53125 17.796875 19.625 18 19.765625 C 18.359375 19.984375 18.65625 20.296875 18.84375 20.6875 C 19.015625 21.0625 19.09375 21.484375 19.03125 21.90625 C 18.984375 22.328125 18.796875 22.71875 18.53125 23.046875 C 18.25 23.359375 17.890625 23.59375 17.484375 23.71875 C 17.253906 23.78125 17.027344 23.824219 16.796875 23.84375 C 16.566406 23.875 16.339844 23.878906 16.109375 23.859375 C 15.871094 23.839844 15.640625 23.796875 15.421875 23.734375 C 15.191406 23.671875 14.972656 23.589844 14.765625 23.484375 C 14.753906 23.472656 14.746094 23.464844 14.734375 23.453125 C 14.722656 23.453125 14.714844 23.449219 14.703125 23.4375 C 14.691406 23.425781 14.675781 23.417969 14.65625 23.40625 C 14.644531 23.40625 14.636719 23.402344 14.625 23.390625 L 14.890625 22.265625 C 15.03125 22.328125 15.140625 22.390625 15.265625 22.4375 C 15.390625 22.5 15.519531 22.550781 15.65625 22.59375 C 15.792969 22.636719 15.925781 22.667969 16.0625 22.6875 C 16.207031 22.707031 16.347656 22.71875 16.484375 22.71875 C 16.628906 22.71875 16.777344 22.707031 16.921875 22.6875 C 17.078125 22.671875 17.21875 22.625 17.34375 22.53125 C 17.484375 22.4375 17.59375 22.328125 17.671875 22.1875 C 17.734375 22.046875 17.78125 21.90625 17.78125 21.75 C 17.78125 21.578125 17.75 21.4375 17.6875 21.296875 C 17.65625 21.246094 17.625 21.199219 17.59375 21.15625 C 17.5625 21.105469 17.527344 21.058594 17.484375 21.015625 C 17.453125 20.984375 17.417969 20.949219 17.375 20.90625 C 17.332031 20.875 17.285156 20.84375 17.234375 20.8125 C 17.183594 20.78125 17.125 20.75 17.0625 20.71875 C 17.011719 20.6875 16.953125 20.65625 16.890625 20.625 C 16.839844 20.59375 16.78125 20.5625 16.71875 20.53125 C 16.65625 20.511719 16.597656 20.484375 16.546875 20.453125 C 16.472656 20.421875 16.402344 20.390625 16.328125 20.359375 C 16.253906 20.316406 16.183594 20.28125 16.109375 20.25 C 16.035156 20.207031 15.964844 20.167969 15.890625 20.125 C 15.816406 20.082031 15.75 20.042969 15.6875 20 C 15.511719 19.894531 15.355469 19.769531 15.21875 19.625 C 15.082031 19.480469 14.972656 19.3125 14.890625 19.125 C 14.816406 18.9375 14.765625 18.746094 14.734375 18.546875 C 14.714844 18.347656 14.722656 18.152344 14.765625 17.953125 C 14.785156 17.753906 14.839844 17.5625 14.921875 17.375 C 15.003906 17.199219 15.113281 17.03125 15.25 16.875 C 15.386719 16.730469 15.535156 16.605469 15.703125 16.5 C 15.871094 16.394531 16.050781 16.316406 16.25 16.265625 C 16.4375 16.214844 16.628906 16.175781 16.828125 16.15625 C 17.027344 16.125 17.230469 16.121094 17.4375 16.140625 C 17.636719 16.152344 17.828125 16.175781 18.015625 16.21875 C 18.214844 16.269531 18.40625 16.339844 18.59375 16.421875 C 18.59375 16.421875 18.597656 16.425781 18.609375 16.4375 C 18.621094 16.4375 18.628906 16.4375 18.640625 16.4375 C 18.652344 16.449219 18.65625 16.453125 18.65625 16.453125 C 18.667969 16.464844 18.675781 16.46875 18.6875 16.46875 C 18.703125 16.484375 18.734375 16.5 18.78125 16.546875 Z M 18.78125 16.546875 "/>
<path style=" stroke:none;fill-rule:nonzero;fill:rgb(98.039216%,98.431373%,98.823529%);fill-opacity:1;" d="M 24.65625 22.453125 L 24.875 23.53125 C 24.832031 23.550781 24.792969 23.574219 24.75 23.59375 C 24.707031 23.605469 24.667969 23.613281 24.625 23.625 C 24.582031 23.644531 24.535156 23.660156 24.484375 23.671875 C 24.441406 23.683594 24.402344 23.699219 24.359375 23.71875 C 24.191406 23.761719 24.019531 23.792969 23.84375 23.8125 C 23.667969 23.84375 23.488281 23.859375 23.3125 23.859375 C 23.125 23.871094 22.941406 23.863281 22.765625 23.84375 C 22.589844 23.832031 22.410156 23.808594 22.234375 23.765625 C 21.984375 23.722656 21.746094 23.652344 21.515625 23.546875 C 21.277344 23.441406 21.058594 23.308594 20.859375 23.140625 C 20.660156 22.972656 20.488281 22.785156 20.34375 22.578125 C 20.1875 22.371094 20.0625 22.144531 19.96875 21.90625 C 19.84375 21.605469 19.75 21.285156 19.6875 20.953125 C 19.613281 20.621094 19.582031 20.285156 19.59375 19.953125 C 19.605469 19.621094 19.652344 19.285156 19.734375 18.953125 C 19.816406 18.628906 19.9375 18.316406 20.09375 18.015625 C 20.230469 17.734375 20.402344 17.480469 20.609375 17.25 C 20.816406 17.011719 21.050781 16.808594 21.3125 16.640625 C 21.582031 16.472656 21.871094 16.347656 22.171875 16.265625 C 22.472656 16.183594 22.78125 16.140625 23.09375 16.140625 C 23.25 16.128906 23.40625 16.128906 23.5625 16.140625 C 23.71875 16.152344 23.875 16.167969 24.03125 16.1875 C 24.1875 16.21875 24.339844 16.261719 24.484375 16.3125 C 24.628906 16.363281 24.777344 16.421875 24.921875 16.484375 L 24.65625 17.53125 C 24.582031 17.511719 24.511719 17.488281 24.4375 17.46875 C 24.355469 17.449219 24.277344 17.433594 24.203125 17.421875 C 24.121094 17.402344 24.042969 17.378906 23.96875 17.359375 C 23.886719 17.347656 23.808594 17.339844 23.734375 17.328125 C 23.652344 17.316406 23.5625 17.3125 23.46875 17.3125 C 23.386719 17.3125 23.296875 17.3125 23.203125 17.3125 C 23.121094 17.3125 23.03125 17.316406 22.9375 17.328125 C 22.855469 17.339844 22.769531 17.355469 22.6875 17.375 C 22.511719 17.40625 22.34375 17.457031 22.1875 17.53125 C 22.042969 17.605469 21.902344 17.699219 21.765625 17.8125 C 21.628906 17.925781 21.515625 18.058594 21.421875 18.203125 C 21.328125 18.347656 21.25 18.5 21.1875 18.65625 C 21.09375 18.875 21.027344 19.097656 20.984375 19.328125 C 20.941406 19.558594 20.921875 19.785156 20.921875 20.015625 C 20.921875 20.253906 20.941406 20.488281 20.984375 20.71875 C 21.035156 20.9375 21.105469 21.15625 21.1875 21.375 C 21.261719 21.5625 21.359375 21.738281 21.484375 21.90625 C 21.609375 22.0625 21.753906 22.203125 21.921875 22.328125 C 22.089844 22.441406 22.269531 22.53125 22.46875 22.59375 C 22.65625 22.65625 22.855469 22.691406 23.0625 22.703125 C 23.1875 22.714844 23.308594 22.71875 23.421875 22.71875 C 23.546875 22.707031 23.671875 22.699219 23.796875 22.6875 C 23.921875 22.667969 24.042969 22.640625 24.15625 22.609375 C 24.28125 22.578125 24.402344 22.542969 24.515625 22.5 C 24.546875 22.484375 24.59375 22.484375 24.65625 22.453125 Z M 24.65625 22.453125 "/>
<path style=" stroke:none;fill-rule:nonzero;fill:rgb(98.039216%,98.431373%,98.823529%);fill-opacity:1;" d="M 36 22.59375 L 36 23.75 L 32 23.75 L 32 16.265625 L 33.203125 16.265625 L 33.203125 22.59375 Z M 36 22.59375 "/>
<path style=" stroke:none;fill-rule:evenodd;fill:rgb(98.039216%,98.431373%,98.823529%);fill-opacity:1;" d="M 14.140625 23.75 L 12.8125 23.75 L 12.1875 21.640625 L 10.046875 21.640625 L 9.46875 23.734375 L 8.171875 23.734375 L 10.34375 16.25 L 11.953125 16.25 Z M 11.953125 20.578125 L 11.09375 17.453125 L 10.265625 20.578125 Z M 11.953125 20.578125 "/>
<path style=" stroke:none;fill-rule:evenodd;fill:rgb(98.039216%,98.431373%,98.823529%);fill-opacity:1;" d="M 31.234375 23.75 L 29.890625 23.75 L 29.28125 21.640625 L 27.125 21.640625 L 26.546875 23.734375 L 25.25 23.734375 L 27.4375 16.25 L 29.03125 16.25 Z M 29.046875 20.578125 L 28.1875 17.453125 L 27.359375 20.578125 Z M 29.046875 20.578125 "/>
</g>
</svg>
