<?xml version="1.0" encoding="UTF-8"?>
<svg xmlns="http://www.w3.org/2000/svg" xmlns:xlink="http://www.w3.org/1999/xlink" width="px" height="40px" viewBox="0 0 78 40" version="1.1">
<g id="surface1">
<path style=" stroke:none;fill-rule:nonzero;fill:rgb(38.039216%,50.588238%,71.372551%);fill-opacity:1;" d="M 39 39.90625 C 17.425781 39.90625 0 30.984375 0 19.953125 C 0 8.921875 17.425781 0 39 0 C 60.574219 0 78 8.921875 78 19.953125 C 78 30.984375 60.574219 39.90625 39 39.90625 Z M 39 39.90625 "/>
<path style=" stroke:none;fill-rule:evenodd;fill:rgb(100%,100%,100%);fill-opacity:1;" d="M 46.816406 26.609375 C 46.785156 26.671875 46.738281 26.730469 46.675781 26.78125 C 46.625 26.824219 46.5625 26.859375 46.492188 26.890625 C 46.417969 26.910156 46.347656 26.921875 46.273438 26.921875 L 41.585938 26.921875 C 41.492188 26.921875 41.398438 26.902344 41.304688 26.859375 C 41.222656 26.816406 41.152344 26.761719 41.089844 26.6875 C 41.027344 26.613281 40.984375 26.53125 40.964844 26.4375 C 40.945312 26.34375 40.945312 26.25 40.964844 26.15625 L 42.792969 16.59375 C 43.023438 15.421875 42.824219 15.046875 42.730469 14.9375 C 42.621094 14.8125 42.21875 14.546875 40.871094 14.546875 L 37.699219 14.546875 L 35.410156 26.40625 C 35.398438 26.480469 35.375 26.546875 35.332031 26.609375 C 35.300781 26.671875 35.253906 26.730469 35.191406 26.78125 C 35.140625 26.824219 35.078125 26.859375 35.007812 26.890625 C 34.933594 26.910156 34.863281 26.921875 34.789062 26.921875 L 30.164062 26.921875 C 30.070312 26.921875 29.984375 26.902344 29.898438 26.859375 C 29.808594 26.816406 29.734375 26.761719 29.683594 26.6875 C 29.621094 26.613281 29.582031 26.53125 29.558594 26.4375 C 29.527344 26.34375 29.523438 26.25 29.542969 26.15625 L 30.378906 21.84375 C 30.246094 22.074219 30.105469 22.296875 29.960938 22.515625 C 29.808594 22.734375 29.648438 22.949219 29.480469 23.15625 C 29.316406 23.363281 29.148438 23.5625 28.972656 23.75 C 28.785156 23.949219 28.59375 24.136719 28.398438 24.3125 C 27.410156 25.25 26.292969 25.921875 25.070312 26.328125 C 23.878906 26.71875 22.347656 26.921875 20.519531 26.921875 L 17.054688 26.921875 L 16.046875 32.140625 C 16.039062 32.214844 16.011719 32.285156 15.972656 32.359375 C 15.929688 32.421875 15.882812 32.472656 15.832031 32.515625 C 15.769531 32.566406 15.707031 32.605469 15.644531 32.625 C 15.574219 32.65625 15.503906 32.671875 15.429688 32.671875 L 10.769531 32.671875 C 10.679688 32.671875 10.585938 32.652344 10.492188 32.609375 C 10.410156 32.566406 10.339844 32.511719 10.277344 32.4375 C 10.214844 32.363281 10.171875 32.28125 10.152344 32.1875 C 10.132812 32.09375 10.125 32 10.136719 31.90625 L 14.300781 10.296875 C 14.320312 10.222656 14.347656 10.15625 14.378906 10.09375 C 14.417969 10.03125 14.464844 9.980469 14.515625 9.9375 C 14.578125 9.886719 14.644531 9.847656 14.71875 9.828125 C 14.78125 9.796875 14.847656 9.78125 14.917969 9.78125 L 23.894531 9.78125 C 26.757812 9.78125 28.910156 10.578125 30.269531 12.140625 C 31 13 31.464844 14.03125 31.648438 15.234375 L 33.707031 4.5625 C 33.71875 4.488281 33.742188 4.421875 33.785156 4.359375 C 33.816406 4.296875 33.863281 4.238281 33.921875 4.1875 C 33.976562 4.136719 34.039062 4.097656 34.109375 4.078125 C 34.183594 4.058594 34.253906 4.046875 34.328125 4.046875 L 38.953125 4.046875 C 39.046875 4.046875 39.132812 4.066406 39.214844 4.109375 C 39.300781 4.152344 39.371094 4.207031 39.433594 4.28125 C 39.496094 4.355469 39.535156 4.4375 39.558594 4.53125 C 39.589844 4.613281 39.59375 4.703125 39.574219 4.796875 L 38.613281 9.78125 L 41.957031 9.78125 C 44.742188 9.78125 46.644531 10.28125 47.757812 11.328125 C 48.90625 12.390625 49.277344 14.078125 48.828125 16.359375 L 46.894531 26.40625 C 46.882812 26.480469 46.855469 26.546875 46.816406 26.609375 Z M 25.195312 15.25 C 24.871094 14.890625 24.082031 14.46875 22.117188 14.46875 L 19.453125 14.46875 L 17.953125 22.234375 L 20.027344 22.234375 C 21.742188 22.234375 23.027344 21.921875 23.832031 21.296875 C 24.621094 20.6875 25.164062 19.609375 25.457031 18.09375 C 25.722656 16.734375 25.628906 15.75 25.195312 15.25 Z M 67.941406 18.671875 C 67.890625 18.941406 67.828125 19.207031 67.753906 19.46875 C 67.683594 19.738281 67.601562 20.003906 67.507812 20.265625 C 67.414062 20.515625 67.3125 20.765625 67.199219 21.015625 C 67.085938 21.265625 66.964844 21.511719 66.839844 21.75 C 66.316406 22.6875 65.632812 23.546875 64.8125 24.3125 C 63.824219 25.25 62.695312 25.921875 61.472656 26.328125 C 60.28125 26.71875 58.761719 26.921875 56.9375 26.921875 L 53.46875 26.921875 L 52.464844 32.140625 C 52.445312 32.214844 52.417969 32.285156 52.386719 32.359375 C 52.34375 32.421875 52.300781 32.472656 52.246094 32.515625 C 52.1875 32.566406 52.117188 32.605469 52.046875 32.625 C 51.984375 32.65625 51.914062 32.671875 51.828125 32.671875 L 47.171875 32.671875 C 47.078125 32.671875 46.992188 32.652344 46.910156 32.609375 C 46.824219 32.566406 46.753906 32.511719 46.691406 32.4375 C 46.628906 32.363281 46.589844 32.28125 46.566406 32.1875 C 46.535156 32.09375 46.53125 32 46.550781 31.90625 L 50.714844 10.296875 C 50.726562 10.222656 50.75 10.15625 50.792969 10.09375 C 50.824219 10.03125 50.871094 9.972656 50.933594 9.921875 C 50.984375 9.878906 51.046875 9.847656 51.117188 9.828125 C 51.191406 9.796875 51.261719 9.78125 51.335938 9.78125 L 60.296875 9.78125 C 63.171875 9.78125 65.324219 10.578125 66.671875 12.140625 C 68.035156 13.71875 68.464844 15.921875 67.941406 18.671875 Z M 61.5625 15.25 C 61.253906 14.890625 60.464844 14.46875 58.5 14.46875 L 55.824219 14.46875 L 54.335938 22.234375 L 56.394531 22.234375 C 58.128906 22.234375 59.414062 21.921875 60.21875 21.296875 C 61.007812 20.6875 61.546875 19.609375 61.84375 18.09375 C 62.105469 16.734375 62.011719 15.75 61.5625 15.25 Z M 61.5625 15.25 "/>
<path style=" stroke:none;fill-rule:evenodd;fill:rgb(0%,0%,1.568628%);fill-opacity:1;" d="M 14.917969 10.421875 L 23.894531 10.421875 C 26.589844 10.421875 28.554688 11.136719 29.792969 12.5625 C 31.03125 13.988281 31.402344 15.984375 30.90625 18.546875 C 30.699219 19.609375 30.355469 20.574219 29.867188 21.4375 C 29.746094 21.667969 29.609375 21.886719 29.464844 22.09375 C 29.320312 22.3125 29.171875 22.519531 29.019531 22.71875 C 28.863281 22.917969 28.699219 23.109375 28.523438 23.296875 C 28.347656 23.484375 28.167969 23.667969 27.980469 23.84375 C 27.042969 24.71875 26.003906 25.34375 24.871094 25.71875 C 23.734375 26.09375 22.285156 26.28125 20.519531 26.28125 L 16.527344 26.28125 L 15.429688 32.03125 L 10.769531 32.03125 Z M 22.117188 13.828125 L 18.910156 13.828125 L 17.179688 22.859375 L 20.011719 22.859375 C 21.886719 22.859375 23.285156 22.503906 24.203125 21.796875 C 25.132812 21.078125 25.757812 19.886719 26.078125 18.21875 C 26.386719 16.605469 26.246094 15.46875 25.660156 14.8125 C 25.0625 14.15625 23.878906 13.828125 22.117188 13.828125 Z M 34.3125 4.671875 L 38.9375 4.671875 L 37.839844 10.421875 L 41.957031 10.421875 C 44.546875 10.421875 46.332031 10.875 47.3125 11.78125 C 48.300781 12.699219 48.601562 14.175781 48.207031 16.21875 L 46.273438 26.265625 L 41.570312 26.265625 L 43.410156 16.71875 C 43.617188 15.625 43.539062 14.878906 43.179688 14.484375 C 42.816406 14.089844 42.042969 13.890625 40.855469 13.890625 L 37.160156 13.890625 L 34.773438 26.265625 L 30.164062 26.265625 Z M 51.289062 10.421875 L 60.25 10.421875 C 62.941406 10.421875 64.90625 11.136719 66.144531 12.5625 C 67.382812 13.988281 67.753906 15.984375 67.257812 18.546875 C 67.054688 19.597656 66.707031 20.5625 66.222656 21.4375 C 66.097656 21.667969 65.96875 21.886719 65.835938 22.09375 C 65.691406 22.3125 65.535156 22.519531 65.371094 22.71875 C 65.214844 22.917969 65.050781 23.109375 64.875 23.296875 C 64.699219 23.484375 64.519531 23.667969 64.335938 23.84375 C 63.40625 24.71875 62.367188 25.34375 61.222656 25.71875 C 60.089844 26.09375 58.640625 26.28125 56.875 26.28125 L 52.898438 26.28125 L 51.785156 32.03125 L 47.125 32.03125 Z M 58.484375 13.828125 L 55.296875 13.828125 L 53.546875 22.859375 L 56.378906 22.859375 C 58.269531 22.859375 59.671875 22.503906 60.589844 21.796875 C 61.507812 21.078125 62.125 19.886719 62.445312 18.21875 C 62.757812 16.605469 62.617188 15.46875 62.027344 14.8125 C 61.441406 14.15625 60.257812 13.828125 58.484375 13.828125 Z M 58.484375 13.828125 "/>
</g>
</svg>
