<svg version="1.2" xmlns="http://www.w3.org/2000/svg" viewBox="0 0 40 40" width="40" height="40">
	<title>pop_os</title>
	<style>
		.s0 { fill: #48b9c7 } 
		.s1 { fill: #ffffff } 
	</style>
	<g id="g18">
		<g id="g8">
			<path id="circle4" fill-rule="evenodd" class="s0" d="m20 40c-11.1 0-20-8.9-20-20 0-11.1 8.9-20 20-20 11.1 0 20 8.9 20 20 0 11.1-8.9 20-20 20z"/>
			<path id="rect6" class="s1" d="m11 30.7h18c0.9 0 1.6 0.7 1.6 1.5v0.1c0 0.9-0.7 1.6-1.6 1.6h-18c-0.9 0-1.6-0.7-1.6-1.6v-0.1c0-0.8 0.7-1.5 1.6-1.5z"/>
		</g>
		<path id="path10" class="s1" d="m22.7 15.1c-1 2.1-2.7 3.8-5.1 4.7l2 5.3c0.4 0.9 0.7 2 0.4 2.9-0.3 0.9-1.6 1.2-2.6 0.2-1.8-2-8.1-14.5-8.6-15.4-0.4-1-0.9-1.7-0.9-2.6 0-1.4 2.2-2.9 3.2-3.6 1.1-0.7 3.2-1.7 5-1.7 1.8-0.1 2.5 0.3 3.6 1 1.6 1.1 2.8 2.7 3.2 4.6 0.4 1.9 0.3 3.4-0.2 4.5m-4.8-2.3c-0.4-1.3-1.2-2.6-2.3-3.4-0.2-0.2-0.4-0.4-0.7-0.5-2-0.6-1.1 2.6-0.8 3.5 0.3 0.8 1.1 2.6 2 3.5 0.2 0.2 0.4 0.4 0.6 0.4 0.3 0 0.8-0.2 1-0.6 0.2-0.3 0.3-0.5 0.3-0.9q0.1-1-0.1-2z"/>
		<g id="g16">
			<path id="path12" class="s1" d="m26.4 28c-0.1 0.4-0.3 0.8-0.6 1-0.3 0.2-1.1 0.2-1.6-0.2-0.5-0.4-0.6-1-0.4-1.5 0.1-0.5 0.5-1.1 1.1-1.3 1.2-0.3 1.8 1 1.5 2z"/>
			<path id="path14" class="s1" d="m25.7 24.2c-0.8-0.3-0.5-4.4 0.2-9.3 0.2-1.4 0.5-2 0.9-2.4 0.4-0.3 1.5-0.5 2.2-0.4 0.8 0.2 1.5 0.5 2.1 1.1 0.5 0.4 0.5 0.9 0.4 1.6-0.2 0.6-0.8 1.9-1.3 2.9l-1.1 2.3c-2.3 4-2.8 4.4-3.4 4.2z"/>
		</g>
	</g>
</svg>