<?xml version="1.0" encoding="UTF-8"?>
<svg xmlns="http://www.w3.org/2000/svg" xmlns:xlink="http://www.w3.org/1999/xlink" width="px" height="40px" viewBox="0 0 39 40" version="1.1">
<g id="surface1">
<path style=" stroke:none;fill-rule:nonzero;fill:rgb(0%,0%,0%);fill-opacity:1;" d="M 29.117188 29.109375 C 29.367188 26.984375 29.289062 26.6875 30.882812 27.015625 L 31.292969 27.0625 C 32.511719 27.109375 34.121094 26.859375 35.050781 26.4375 C 37.089844 25.5 38.289062 23.953125 36.285156 24.359375 C 31.722656 25.28125 31.421875 23.75 31.421875 23.75 C 36.222656 16.6875 38.242188 7.71875 36.503906 5.515625 C 31.769531 -0.46875 23.574219 2.359375 23.429688 2.4375 L 23.382812 2.453125 C 22.484375 2.265625 21.472656 2.15625 20.351562 2.125 C 18.285156 2.09375 16.722656 2.671875 15.535156 3.5625 C 15.535156 3.5625 0.914062 -2.40625 1.59375 11.0625 C 1.738281 13.921875 5.730469 32.734375 10.515625 27.046875 C 12.253906 24.96875 13.941406 23.21875 13.941406 23.21875 C 14.777344 23.765625 15.789062 24.046875 16.832031 23.953125 L 16.910156 23.875 C 16.894531 24.140625 16.894531 24.390625 16.941406 24.6875 C 15.710938 26.046875 16.074219 26.28125 13.625 26.78125 C 11.132812 27.296875 12.601562 28.203125 13.546875 28.4375 C 14.699219 28.71875 17.382812 29.125 19.183594 26.625 L 19.121094 26.90625 C 19.59375 27.28125 19.5625 29.65625 19.640625 31.34375 C 19.707031 33.03125 19.816406 34.609375 20.164062 35.53125 C 20.511719 36.46875 20.921875 38.859375 24.15625 38.171875 C 26.859375 37.609375 28.925781 36.78125 29.117188 29.109375 Z M 29.117188 29.109375 "/>
<path style=" stroke:none;fill-rule:evenodd;fill:rgb(0%,0%,0%);fill-opacity:1;" d="M 23.101562 39.84375 C 21.679688 39.84375 20.746094 39.296875 20.179688 38.765625 C 19.328125 37.96875 18.996094 36.953125 18.789062 36.328125 L 18.695312 36.078125 C 18.285156 34.984375 18.15625 33.421875 18.0625 31.40625 C 18.0625 31.109375 18.046875 30.796875 18.046875 30.453125 C 18.03125 30.21875 18.03125 29.90625 18.015625 29.59375 C 17.890625 29.65625 17.757812 29.714844 17.621094 29.765625 C 17.484375 29.816406 17.351562 29.863281 17.226562 29.90625 C 17.089844 29.949219 16.949219 29.984375 16.800781 30.015625 C 16.664062 30.046875 16.527344 30.078125 16.390625 30.109375 C 15.378906 30.28125 14.304688 30.21875 13.167969 29.9375 C 12.378906 29.75 11.542969 29.328125 11.070312 28.703125 C 9.695312 29.890625 8.382812 29.734375 7.671875 29.5 C 6.410156 29.078125 5.273438 27.90625 4.214844 25.921875 C 3.457031 24.5 2.730469 22.65625 2.050781 20.4375 C 0.851562 16.5625 0.09375 12.484375 0.03125 11.140625 C -0.191406 6.9375 0.949219 3.9375 3.410156 2.21875 C 7.292969 -0.484375 13.183594 1.109375 15.316406 1.828125 C 16.769531 0.96875 18.457031 0.546875 20.367188 0.578125 C 21.394531 0.59375 22.375 0.6875 23.289062 0.84375 C 24.238281 0.546875 26.117188 0.125 28.261719 0.15625 C 32.210938 0.203125 35.496094 1.734375 37.738281 4.5625 C 39.332031 6.59375 38.542969 10.84375 37.925781 13.203125 C 37.074219 16.515625 35.558594 20.03125 33.695312 23.109375 C 34.199219 23.109375 34.925781 23.046875 35.96875 22.828125 C 38.019531 22.421875 38.621094 23.5 38.777344 24 C 39.441406 25.953125 36.601562 27.4375 35.714844 27.84375 C 34.578125 28.359375 32.730469 28.671875 31.214844 28.609375 L 31.152344 28.609375 L 30.757812 28.5625 L 30.710938 28.890625 L 30.679688 29.21875 C 30.570312 33.109375 30.015625 35.5625 28.863281 37.1875 C 27.648438 38.90625 25.972656 39.375 24.488281 39.6875 C 23.984375 39.796875 23.527344 39.84375 23.101562 39.84375 Z M 20.101562 25.703125 C 21.015625 26.421875 21.09375 27.796875 21.171875 30.375 C 21.183594 30.699219 21.195312 31 21.207031 31.28125 C 21.238281 32.140625 21.316406 34.15625 21.632812 35 C 21.671875 35.113281 21.714844 35.238281 21.757812 35.375 C 22.121094 36.4375 22.292969 36.984375 23.828125 36.65625 C 25.121094 36.390625 25.785156 36.140625 26.289062 35.40625 C 27.046875 34.34375 27.472656 32.21875 27.550781 29.0625 L 29.117188 29.109375 L 27.550781 28.921875 L 27.601562 28.53125 C 27.757812 27.265625 27.851562 26.359375 28.707031 25.75 C 29.398438 25.265625 30.171875 25.3125 30.804688 25.421875 C 30.125 24.90625 29.9375 24.3125 29.875 24.0625 L 29.746094 23.421875 L 30.109375 22.890625 C 32.226562 19.78125 33.980469 15.96875 34.894531 12.421875 C 35.84375 8.78125 35.558594 6.84375 35.273438 6.484375 C 31.4375 1.625 24.773438 3.625 24.078125 3.859375 L 23.96875 3.921875 L 23.367188 4.03125 L 23.070312 3.96875 C 22.230469 3.796875 21.316406 3.703125 20.320312 3.6875 C 18.773438 3.65625 17.511719 4.015625 16.484375 4.796875 L 15.773438 5.328125 L 14.9375 5 C 13.167969 4.28125 7.957031 2.828125 5.210938 4.765625 C 3.695312 5.828125 3 7.921875 3.15625 10.984375 C 3.207031 12 3.898438 15.8125 5.035156 19.53125 C 6.632812 24.65625 8.070312 26.359375 8.667969 26.5625 C 8.761719 26.59375 9.03125 26.375 9.316406 26.0625 C 9.589844 25.730469 9.875 25.394531 10.167969 25.0625 C 10.453125 24.730469 10.738281 24.402344 11.019531 24.078125 C 11.316406 23.753906 11.609375 23.433594 11.90625 23.109375 C 12.210938 22.785156 12.511719 22.46875 12.804688 22.15625 L 13.722656 21.203125 L 14.808594 21.921875 C 15.253906 22.21875 15.742188 22.375 16.246094 22.40625 L 18.851562 20.203125 L 18.472656 24.03125 C 18.472656 24.109375 18.457031 24.234375 18.488281 24.453125 L 18.617188 25.171875 L 18.109375 25.71875 L 18.0625 25.78125 L 19.5 26.4375 Z M 20.101562 25.703125 "/>
<path style=" stroke:none;fill-rule:nonzero;fill:rgb(20%,40.392157%,56.862748%);fill-opacity:1;" d="M 36.285156 24.359375 C 31.722656 25.28125 31.421875 23.75 31.421875 23.75 C 36.222656 16.6875 38.242188 7.71875 36.503906 5.515625 C 31.769531 -0.46875 23.574219 2.359375 23.429688 2.4375 L 23.382812 2.453125 C 22.484375 2.265625 21.472656 2.15625 20.351562 2.140625 C 18.285156 2.09375 16.722656 2.671875 15.535156 3.5625 C 15.535156 3.5625 0.914062 -2.40625 1.59375 11.0625 C 1.738281 13.921875 5.730469 32.734375 10.515625 27.046875 C 12.253906 24.96875 13.941406 23.21875 13.941406 23.21875 C 14.777344 23.765625 15.773438 24.046875 16.832031 23.953125 L 16.910156 23.875 C 16.894531 24.140625 16.894531 24.390625 16.941406 24.6875 C 15.710938 26.046875 16.074219 26.28125 13.625 26.78125 C 11.132812 27.296875 12.601562 28.203125 13.546875 28.4375 C 14.699219 28.71875 17.382812 29.125 19.183594 26.625 L 19.121094 26.90625 C 19.59375 27.296875 19.941406 29.390625 19.878906 31.296875 C 19.816406 33.203125 19.785156 34.515625 20.164062 35.53125 C 20.542969 36.5625 20.921875 38.859375 24.15625 38.171875 C 26.859375 37.609375 28.261719 36.125 28.453125 33.640625 C 28.59375 31.875 28.894531 32.140625 28.925781 30.5625 L 29.179688 29.828125 C 29.464844 27.4375 29.226562 26.671875 30.882812 27.015625 L 31.292969 27.0625 C 32.511719 27.109375 34.121094 26.859375 35.050781 26.4375 C 37.074219 25.5 38.289062 23.953125 36.285156 24.359375 Z M 36.285156 24.359375 "/>
<path style=" stroke:none;fill-rule:evenodd;fill:rgb(100%,100%,100%);fill-opacity:1;" d="M 23.273438 38.890625 C 20.574219 38.890625 19.722656 36.78125 19.375 35.90625 C 18.949219 34.859375 18.789062 31.234375 18.820312 27.71875 C 17.84375 28.640625 16.609375 29.109375 15.191406 29.109375 C 14.605469 29.109375 14.003906 29.03125 13.390625 28.875 C 12.757812 28.71875 11.667969 28.25 11.683594 27.46875 C 11.714844 26.59375 12.996094 26.328125 13.484375 26.234375 C 15.238281 25.875 15.347656 25.71875 15.898438 25.03125 C 16.011719 24.890625 16.136719 24.734375 16.292969 24.546875 C 16.292969 24.527344 16.292969 24.511719 16.292969 24.5 C 16.292969 24.46875 16.292969 24.441406 16.292969 24.421875 C 15.488281 24.40625 14.714844 24.203125 14.003906 23.828125 C 13.5625 24.296875 12.269531 25.671875 10.878906 27.328125 C 10.074219 28.296875 9.300781 28.578125 8.652344 28.578125 C 8.601562 28.578125 8.542969 28.574219 8.480469 28.5625 C 8.425781 28.5625 8.367188 28.558594 8.304688 28.546875 C 8.253906 28.535156 8.195312 28.527344 8.132812 28.515625 C 8.078125 28.496094 8.027344 28.472656 7.972656 28.453125 C 6.222656 27.875 4.546875 25.0625 3.015625 20.078125 C 1.847656 16.28125 1.105469 12.3125 1.042969 11.03125 C 0.835938 7.21875 1.832031 4.515625 3.996094 3 C 7.863281 0.28125 14.148438 2.390625 15.472656 2.890625 C 16.816406 1.96875 18.441406 1.53125 20.320312 1.5625 C 21.347656 1.578125 22.292969 1.703125 23.164062 1.921875 C 23.183594 1.910156 23.214844 1.902344 23.257812 1.890625 C 23.792969 1.6875 25.769531 1.109375 28.199219 1.140625 C 31.832031 1.171875 34.832031 2.5625 36.882812 5.140625 C 37.847656 6.375 37.847656 9.1875 36.882812 12.890625 C 35.9375 16.546875 34.167969 20.46875 32.003906 23.703125 C 32.320312 23.9375 33.300781 24.375 36.140625 23.796875 C 37.058594 23.609375 37.59375 23.765625 37.769531 24.265625 C 38.085938 25.234375 36.253906 26.375 35.242188 26.84375 C 34.34375 27.265625 32.890625 27.53125 31.625 27.53125 C 31.011719 27.53125 30.425781 27.453125 30 27.3125 C 29.792969 29.171875 29.351562 32.71875 29.085938 34.1875 C 28.609375 36.90625 27.394531 38.140625 24.585938 38.75 C 24.09375 38.84375 23.667969 38.890625 23.273438 38.890625 Z M 17.828125 23.609375 C 18.15625 23.609375 18.425781 23.71875 18.601562 23.796875 C 19.152344 24.03125 19.625 24.578125 19.816406 25.25 C 19.847656 25.355469 19.867188 25.457031 19.878906 25.5625 C 19.898438 25.625 19.910156 25.683594 19.910156 25.734375 C 19.769531 30.375 19.957031 34.59375 20.335938 35.53125 C 20.9375 36.984375 21.820312 38.265625 24.363281 37.734375 C 26.761719 37.21875 27.664062 36.3125 28.058594 34.015625 C 28.375 32.265625 28.972656 27.328125 29.050781 26.265625 C 28.941406 24.125 30.140625 23.75 30.757812 23.578125 C 30.679688 23.453125 30.550781 23.296875 30.425781 23.140625 C 30.0625 22.703125 29.574219 22.09375 29.195312 21.171875 C 29.132812 21.03125 28.941406 20.703125 28.722656 20.3125 C 27.550781 18.234375 25.121094 13.90625 26.683594 11.703125 C 27.410156 10.671875 28.847656 10.265625 30.980469 10.5 C 30.347656 8.609375 27.378906 2.703125 20.304688 2.59375 C 18.171875 2.5625 16.4375 3.203125 15.125 4.515625 C 13.027344 6.625 12.472656 9.953125 12.347656 11.6875 C 12.464844 11.625 12.589844 11.558594 12.726562 11.484375 C 13.246094 11.21875 14.289062 10.765625 15.441406 10.640625 C 17.320312 10.453125 18.570312 11.28125 18.949219 13 C 19.957031 17.609375 19.027344 19.640625 18.347656 21.125 C 18.222656 21.40625 18.09375 21.671875 18 21.921875 L 17.921875 22.140625 C 17.714844 22.703125 17.511719 23.21875 17.414062 23.6875 C 17.550781 23.636719 17.691406 23.609375 17.828125 23.609375 Z M 14.382812 3.78125 C 14.425781 3.738281 14.46875 3.699219 14.511719 3.65625 C 12.585938 3.03125 7.609375 1.71875 4.59375 3.84375 C 2.746094 5.140625 1.910156 7.53125 2.085938 10.984375 C 2.132812 12.0625 2.828125 15.921875 4.011719 19.765625 C 5.382812 24.21875 6.949219 27.03125 8.289062 27.484375 C 8.511719 27.546875 9.15625 27.765625 10.074219 26.671875 C 10.347656 26.347656 10.621094 26.03125 10.894531 25.71875 C 11.167969 25.394531 11.441406 25.078125 11.714844 24.765625 C 12 24.464844 12.285156 24.15625 12.570312 23.84375 C 12.757812 23.636719 12.949219 23.433594 13.136719 23.234375 C 12.988281 23.109375 12.847656 22.972656 12.710938 22.828125 C 11.480469 21.5625 10.910156 19.796875 11.164062 18 C 11.449219 16.046875 11.335938 14.3125 11.289062 13.390625 C 11.273438 13.125 11.257812 12.9375 11.257812 12.8125 C 11.242188 12.375 11.210938 6.96875 14.382812 3.78125 Z M 36.0625 5.78125 C 34.214844 3.453125 31.625 2.234375 28.328125 2.171875 C 26.96875 2.140625 25.769531 2.328125 24.914062 2.5 C 26.9375 3.359375 28.40625 4.65625 29.398438 5.796875 C 31.199219 7.875 32.070312 10.15625 32.148438 10.90625 C 32.15625 11.019531 32.152344 11.121094 32.132812 11.203125 C 32.132812 11.160156 32.125 11.121094 32.117188 11.078125 C 32.117188 10.9375 32.050781 10.8125 31.941406 10.71875 C 31.847656 10.625 31.707031 10.578125 31.578125 10.578125 C 31.4375 10.59375 31.308594 10.65625 31.214844 10.75 C 31.121094 10.859375 31.074219 10.984375 31.074219 11.125 C 31.085938 11.269531 31.089844 11.410156 31.089844 11.546875 C 29.242188 11.3125 28.058594 11.5625 27.535156 12.296875 C 26.351562 13.96875 28.65625 18.0625 29.636719 19.8125 C 29.890625 20.265625 30.0625 20.578125 30.15625 20.78125 C 30.261719 21.03125 30.375 21.261719 30.488281 21.46875 C 30.394531 21.667969 30.285156 21.859375 30.15625 22.046875 C 30.09375 22.125 30.0625 22.21875 30.0625 22.3125 C 30.0625 22.40625 30.078125 22.5 30.125 22.578125 C 30.171875 22.671875 30.238281 22.734375 30.316406 22.78125 C 30.394531 22.828125 30.488281 22.859375 30.585938 22.859375 C 30.625 22.859375 30.667969 22.855469 30.710938 22.84375 C 30.753906 22.832031 30.792969 22.816406 30.835938 22.796875 C 30.867188 22.777344 30.898438 22.75 30.929688 22.71875 C 30.964844 22.699219 30.996094 22.667969 31.027344 22.625 C 31.070312 22.550781 31.117188 22.480469 31.167969 22.40625 C 31.191406 22.4375 31.210938 22.46875 31.230469 22.5 C 31.292969 22.574219 31.351562 22.644531 31.40625 22.71875 C 35.921875 15.71875 37.46875 7.578125 36.0625 5.78125 Z M 31.707031 11.609375 L 31.515625 11.609375 C 31.367188 11.589844 31.226562 11.566406 31.089844 11.546875 C 31.074219 12.125 30.996094 12.640625 30.914062 13.171875 C 30.835938 13.734375 30.742188 14.3125 30.710938 15.015625 C 30.695312 15.703125 30.773438 16.421875 30.867188 17.109375 C 31.042969 18.546875 31.214844 20.015625 30.488281 21.46875 C 30.710938 21.84375 30.949219 22.140625 31.167969 22.40625 C 32.335938 20.515625 32.101562 18.640625 31.894531 16.984375 C 31.816406 16.3125 31.738281 15.65625 31.753906 15.046875 C 31.785156 14.40625 31.863281 13.859375 31.941406 13.328125 C 32.050781 12.671875 32.164062 12 32.132812 11.203125 C 32.050781 11.515625 31.769531 11.59375 31.707031 11.609375 Z M 30.09375 26.21875 C 30.207031 26.34375 30.789062 26.53125 31.972656 26.484375 C 33.015625 26.4375 34.136719 26.21875 34.800781 25.90625 C 35.652344 25.515625 36.222656 25.078125 36.519531 24.78125 L 36.363281 24.796875 C 34.058594 25.28125 32.414062 25.21875 31.5 24.625 C 31.488281 24.613281 31.480469 24.605469 31.46875 24.59375 C 31.449219 24.582031 31.429688 24.574219 31.421875 24.5625 C 31.398438 24.542969 31.382812 24.527344 31.375 24.515625 C 31.363281 24.503906 31.347656 24.496094 31.328125 24.484375 C 31.230469 24.53125 31.136719 24.546875 31.074219 24.5625 C 30.550781 24.71875 30.015625 24.859375 30.09375 26.21875 Z M 12.820312 27.515625 C 12.980469 27.625 13.292969 27.796875 13.640625 27.875 C 14.179688 28.015625 14.699219 28.078125 15.191406 28.078125 C 16.671875 28.078125 17.859375 27.46875 18.726562 26.265625 C 18.914062 26.015625 18.851562 25.703125 18.804688 25.53125 C 18.710938 25.171875 18.457031 24.859375 18.207031 24.75 C 18.0625 24.6875 17.9375 24.65625 17.828125 24.65625 C 17.777344 24.65625 17.605469 24.65625 17.304688 24.984375 C 17.253906 25.035156 17.199219 25.09375 17.148438 25.15625 C 17.105469 25.207031 17.058594 25.265625 17.003906 25.328125 C 16.953125 25.378906 16.90625 25.4375 16.863281 25.5 C 16.808594 25.5625 16.761719 25.621094 16.722656 25.671875 C 16.042969 26.53125 15.726562 26.828125 13.691406 27.234375 C 13.199219 27.34375 12.949219 27.4375 12.820312 27.515625 Z M 12.300781 12.953125 L 12.332031 13.328125 C 12.378906 14.296875 12.488281 16.078125 12.207031 18.140625 C 11.984375 19.625 12.441406 21.078125 13.453125 22.109375 C 14.257812 22.9375 15.300781 23.390625 16.390625 23.390625 L 16.40625 23.390625 C 16.53125 22.890625 16.722656 22.359375 16.941406 21.78125 L 17.019531 21.5625 C 17.132812 21.28125 17.257812 21 17.398438 20.703125 C 18.046875 19.28125 18.851562 17.484375 17.921875 13.21875 C 17.730469 12.359375 17.289062 11.875 16.546875 11.71875 C 15.03125 11.375 12.773438 12.515625 12.300781 12.953125 Z M 16.375 13.65625 L 16.246094 13.640625 C 15.949219 13.609375 15.648438 13.421875 15.457031 13.15625 C 15.378906 13.0625 15.269531 12.875 15.285156 12.71875 C 15.316406 12.46875 15.617188 12.328125 16.074219 12.328125 C 16.179688 12.328125 16.285156 12.339844 16.390625 12.359375 C 16.640625 12.390625 16.863281 12.453125 17.035156 12.5625 C 17.335938 12.71875 17.367188 12.90625 17.351562 13 C 17.304688 13.265625 16.894531 13.65625 16.375 13.65625 Z M 15.457031 12.734375 C 15.425781 12.921875 15.789062 13.40625 16.277344 13.46875 C 16.753906 13.53125 17.148438 13.15625 17.179688 12.96875 C 17.210938 12.796875 16.832031 12.59375 16.359375 12.53125 C 15.882812 12.453125 15.488281 12.5625 15.457031 12.734375 Z M 16.074219 12.671875 C 16.09375 12.671875 16.117188 12.671875 16.136719 12.671875 C 16.15625 12.671875 16.179688 12.675781 16.199219 12.6875 C 16.222656 12.6875 16.246094 12.6875 16.277344 12.6875 C 16.300781 12.6875 16.320312 12.691406 16.34375 12.703125 C 16.753906 12.75 16.972656 12.90625 17.003906 12.953125 C 16.972656 13.046875 16.722656 13.3125 16.375 13.3125 L 16.292969 13.296875 C 15.929688 13.25 15.648438 12.875 15.632812 12.765625 C 15.664062 12.734375 15.804688 12.671875 16.074219 12.671875 Z M 28.972656 13.1875 C 28.515625 13.1875 28.121094 12.84375 28.089844 12.609375 C 28.058594 12.34375 28.515625 12.125 28.988281 12.0625 C 29.085938 12.050781 29.183594 12.046875 29.289062 12.046875 C 29.699219 12.046875 29.96875 12.15625 29.984375 12.359375 C 30 12.46875 29.90625 12.671875 29.746094 12.84375 C 29.636719 12.953125 29.414062 13.140625 29.101562 13.1875 Z M 28.988281 12.140625 C 28.515625 12.203125 28.152344 12.40625 28.183594 12.59375 C 28.199219 12.78125 28.609375 13.15625 29.085938 13.09375 C 29.558594 13.03125 29.921875 12.546875 29.890625 12.359375 C 29.875 12.171875 29.464844 12.078125 28.988281 12.140625 Z M 29.808594 12.375 C 29.808594 12.421875 29.761719 12.5625 29.621094 12.703125 C 29.527344 12.8125 29.335938 12.96875 29.070312 13 L 28.972656 13.015625 C 28.578125 13.015625 28.277344 12.6875 28.261719 12.578125 C 28.246094 12.484375 28.53125 12.296875 29.003906 12.234375 C 29.101562 12.214844 29.195312 12.203125 29.289062 12.203125 C 29.621094 12.203125 29.792969 12.296875 29.808594 12.375 Z M 29.808594 12.375 "/>
</g>
</svg>
