<?xml version="1.0" encoding="UTF-8"?>
<svg xmlns="http://www.w3.org/2000/svg" xmlns:xlink="http://www.w3.org/1999/xlink" width="px" height="40px" viewBox="0 0 40 40" version="1.1">
<g id="surface1">
<path style=" stroke:none;fill-rule:evenodd;fill:rgb(90.196079%,32.156864%,17.254902%);fill-opacity:1;" d="M 19.921875 40 C 8.90625 40 0 31.078125 0 20.03125 C 0 9 8.90625 0.078125 19.921875 0.078125 C 30.9375 0.078125 39.84375 9 39.84375 20.03125 C 39.84375 31.078125 30.9375 40 19.921875 40 Z M 25.59375 32.75 L 14.25 32.75 C 14.25 35.34375 16.796875 37.4375 19.921875 37.4375 C 23.046875 37.4375 25.59375 35.34375 25.59375 32.75 Z M 29.28125 27.8125 L 10.5625 27.8125 L 10.5625 31.203125 L 29.28125 31.203125 C 29.28125 31.203125 29.28125 27.8125 29.28125 27.8125 Z M 32.21875 21.03125 L 27.953125 21.875 C 27.953125 21.875 27.046875 22.09375 25.734375 22.34375 C 26.890625 20.96875 27.578125 19.21875 27.578125 17.359375 C 27.578125 14.578125 26.890625 13.109375 25.78125 11.171875 C 25.09375 9.96875 24.078125 7.46875 24.96875 5.484375 C 22.96875 7.0625 22.4375 11.65625 22.3125 14.796875 C 21.96875 13.28125 22.03125 10.890625 21.578125 9.484375 C 20.375 5.703125 19.015625 4.171875 20.09375 2.40625 C 18.875 2.46875 17.671875 4.609375 17.671875 6.4375 C 17.671875 8.21875 17.203125 11.109375 16.046875 12.6875 C 15.96875 9.265625 14.828125 7.078125 13.75 7 C 14.859375 9.8125 11.796875 13.3125 11.796875 17.3125 C 11.796875 19.140625 12.5 20.921875 13.6875 22.328125 C 12.453125 22.09375 11.59375 21.90625 11.59375 21.90625 C 9.953125 21.53125 7.609375 21.015625 7.625 21.046875 C 8.0625 22.296875 8.515625 23.515625 10.421875 25.84375 C 10.484375 25.917969 10.546875 25.984375 10.609375 26.046875 L 29.21875 26.046875 C 31.609375 23.59375 32.21875 21.03125 32.21875 21.03125 Z M 32.21875 21.03125 "/>
</g>
</svg>
