<?xml version="1.0" encoding="UTF-8"?>
<svg xmlns="http://www.w3.org/2000/svg" xmlns:xlink="http://www.w3.org/1999/xlink" width="px" height="40px" viewBox="0 0 40 40" version="1.1">
<g id="surface1">
<path style=" stroke:none;fill-rule:nonzero;fill:rgb(45.882353%,66.666669%,85.882354%);fill-opacity:1;" d="M 34.125 34.125 C 26.328125 41.9375 13.71875 41.9375 5.90625 34.125 C -1.890625 26.328125 -1.890625 13.71875 5.90625 5.90625 C 13.71875 -1.890625 26.328125 -1.890625 34.125 5.90625 C 41.9375 13.71875 41.9375 26.328125 34.125 34.125 Z M 34.125 34.125 "/>
<path style=" stroke:none;fill-rule:evenodd;fill:rgb(100%,100%,100%);fill-opacity:1;" d="M 26.84375 26.390625 L 29.015625 26.390625 L 29.015625 28.0625 L 25.703125 28.0625 L 20.234375 19.859375 L 17.3125 19.859375 L 17.3125 26.390625 L 20.171875 26.390625 L 20.171875 28.0625 L 12.984375 28.0625 L 12.984375 26.390625 L 15.453125 26.390625 L 15.453125 11.921875 L 12.984375 11.625 L 12.984375 10.03125 C 13.921875 10.25 14.734375 10.390625 15.75 10.390625 C 17.28125 10.390625 18.84375 10.03125 20.375 10.03125 C 23.359375 10.03125 26.125 11.390625 26.125 14.6875 C 26.125 17.25 24.59375 18.875 22.203125 19.5625 Z M 17.3125 18.234375 L 18.890625 18.265625 C 22.703125 18.328125 24.171875 16.859375 24.171875 14.90625 C 24.171875 12.609375 22.515625 11.71875 20.421875 11.71875 C 19.421875 11.71875 18.40625 11.8125 17.3125 11.921875 Z M 17.3125 18.234375 "/>
</g>
</svg>
