<?xml version="1.0" encoding="UTF-8"?>
<svg xmlns="http://www.w3.org/2000/svg" xmlns:xlink="http://www.w3.org/1999/xlink" width="px" height="40px" viewBox="0 0 42 40" version="1.1">
<defs>
<clipPath id="clip1">
  <path d="M 2 6 L 39 6 L 39 35 L 2 35 Z M 2 6 "/>
</clipPath>
<clipPath id="clip2">
  <path d="M 19.972656 39.957031 C 8.949219 39.957031 0.0351562 31.03125 0.0351562 19.992188 C 0.0351562 8.949219 8.949219 0.0234375 19.972656 0.0234375 C 31 0.0234375 39.914062 8.949219 39.914062 19.992188 C 39.914062 31.03125 31 39.957031 19.972656 39.957031 Z M 19.972656 39.957031 "/>
</clipPath>
</defs>
<g id="surface1">
<path style=" stroke:none;fill-rule:nonzero;fill:rgb(0%,32.941177%,65.098041%);fill-opacity:1;" d="M 19.96875 0.03125 C 17.363281 0.03125 14.769531 0.546875 12.351562 1.546875 C 9.929688 2.546875 7.730469 4.015625 5.871094 5.875 C 4.027344 7.71875 2.5625 9.921875 1.546875 12.34375 C 0.546875 14.765625 0.03125 17.375 0.03125 19.984375 C 0.03125 20.816406 0.0820312 21.640625 0.1875 22.453125 C 0.292969 23.265625 0.441406 24.074219 0.640625 24.875 C 0.847656 25.675781 1.097656 26.464844 1.390625 27.234375 C 1.691406 27.996094 2.035156 28.738281 2.421875 29.46875 C 2.546875 29.5 2.652344 29.53125 2.761719 29.59375 C 3.136719 29.765625 3.511719 30.015625 3.730469 30.390625 C 3.839844 30.578125 3.902344 30.78125 3.917969 31 C 3.917969 31.203125 3.871094 31.421875 3.746094 31.59375 C 4.667969 32.890625 5.746094 34.0625 6.933594 35.09375 C 8.132812 36.125 9.445312 37.015625 10.851562 37.75 C 12.257812 38.46875 13.738281 39.015625 15.285156 39.390625 C 16.816406 39.765625 18.390625 39.953125 19.96875 39.953125 C 22.59375 39.953125 25.183594 39.4375 27.605469 38.4375 C 30.023438 37.4375 32.226562 35.96875 34.070312 34.109375 C 35.925781 32.25 37.394531 30.046875 38.394531 27.625 C 39.390625 25.203125 39.90625 22.609375 39.90625 19.984375 C 39.90625 17.375 39.390625 14.765625 38.394531 12.34375 C 37.394531 9.921875 35.925781 7.71875 34.070312 5.875 C 32.226562 4.015625 30.023438 2.546875 27.605469 1.546875 C 25.183594 0.546875 22.59375 0.03125 19.96875 0.03125 Z M 19.96875 0.03125 "/>
<path style=" stroke:none;fill-rule:evenodd;fill:rgb(0%,32.941177%,65.098041%);fill-opacity:1;" d="M 38.410156 12.484375 L 39.421875 12.015625 L 40.125 10.125 L 40.84375 10.375 L 40.21875 12.0625 L 41.9375 12.65625 L 41.671875 13.359375 L 39.765625 12.6875 L 38.707031 13.171875 "/>
<g clip-path="url(#clip1)" clip-rule="nonzero">
<g clip-path="url(#clip2)" clip-rule="nonzero">
<path style=" stroke:none;fill-rule:evenodd;fill:rgb(100%,100%,100%);fill-opacity:1;" d="M 27.386719 22.609375 C 26.011719 20.734375 23.296875 19.640625 20.96875 19.125 C 18.640625 18.609375 17.222656 18.21875 16.097656 17.59375 C 14.800781 16.90625 13.785156 14.828125 14.175781 13.046875 C 14.800781 10.234375 17.316406 8.21875 20.171875 8.609375 C 21.59375 8.8125 22.8125 9.578125 23.609375 10.640625 L 26.777344 14.8125 C 28.589844 17.140625 30.617188 17.84375 32.835938 16.734375 L 33.914062 16.21875 C 34.007812 16.1875 34.117188 16.09375 34.285156 16.15625 C 34.457031 16.21875 34.550781 16.359375 34.644531 16.546875 C 34.738281 16.71875 34.847656 16.875 35.035156 16.921875 C 35.222656 16.96875 35.472656 16.9375 35.597656 16.828125 C 36.425781 16.046875 38.082031 14.453125 38.082031 14.453125 C 38.535156 14.0625 38.410156 13.703125 38.410156 13.703125 L 37.785156 12.296875 C 37.785156 12.296875 37.613281 11.953125 37.035156 12.03125 L 33.585938 12.34375 C 33.382812 12.375 33.195312 12.515625 33.117188 12.71875 C 33.085938 12.828125 33.070312 12.953125 33.117188 13.078125 L 33.226562 13.46875 C 33.257812 13.546875 33.257812 13.640625 33.226562 13.734375 C 33.179688 13.828125 33.101562 13.90625 33.007812 13.953125 L 32.039062 14.359375 C 30.914062 14.734375 29.851562 14.578125 29.070312 13.625 L 28.199219 12.453125 L 25.667969 9.109375 C 24.480469 7.515625 22.671875 6.375 20.546875 6.078125 C 16.269531 5.484375 12.320312 8.4375 11.695312 12.6875 C 11.382812 14.828125 11.679688 16.640625 13.285156 18.484375 C 14.910156 20.34375 18.050781 21.046875 20.765625 21.671875 C 21.0625 21.734375 21.875 21.9375 22.359375 22.125 C 22.8125 22.28125 23.839844 22.65625 24.683594 23.34375 C 25.683594 24.375 26.214844 25.828125 25.996094 27.359375 C 25.605469 29.953125 23.1875 31.78125 20.5625 31.40625 C 19.25 31.234375 18.144531 30.53125 17.410156 29.5625 L 14.378906 25.53125 C 13.769531 24.71875 12.835938 24.125 11.742188 23.96875 C 10.632812 23.8125 9.570312 24.125 8.742188 24.75 L 2.421875 29.46875 C 2.683594 30.234375 3.027344 30.984375 3.746094 31.609375 L 10.273438 26.71875 C 10.570312 26.515625 10.929688 26.421875 11.320312 26.46875 C 11.726562 26.53125 12.070312 26.734375 12.304688 27.046875 L 15.503906 31.359375 C 16.628906 32.734375 18.269531 33.71875 20.1875 33.984375 C 24.214844 34.546875 27.964844 31.75 28.558594 27.734375 C 28.824219 25.875 28.371094 24.0625 27.386719 22.609375 Z M 27.386719 22.609375 "/>
</g>
</g>
</g>
</svg>
