<?xml version="1.0" encoding="UTF-8"?>
<svg xmlns="http://www.w3.org/2000/svg" xmlns:xlink="http://www.w3.org/1999/xlink" width="px" height="40px" viewBox="0 0 36 40" version="1.1">
<defs>
<linearGradient id="linear0" gradientUnits="userSpaceOnUse" x1="0" y1="0" x2="1" y2="0" gradientTransform="matrix(0,25.572655,-24.494527,0,16.191789,3.228438)">
<stop offset="0" style="stop-color:rgb(59.215686%,85.098039%,96.470588%);stop-opacity:1;"/>
<stop offset="0.92" style="stop-color:rgb(5.882353%,50.196078%,80%);stop-opacity:1;"/>
<stop offset="1" style="stop-color:rgb(5.882353%,50.196078%,80%);stop-opacity:1;"/>
</linearGradient>
</defs>
<g id="surface1">
<path style=" stroke:none;fill-rule:nonzero;fill:rgb(5.882353%,50.196081%,80.000001%);fill-opacity:1;" d="M 28.328125 1.765625 L 3.078125 1.765625 C 1.390625 1.765625 0.015625 3.140625 0.015625 4.8125 L 0.015625 32.328125 C 0.015625 34 1.40625 35.359375 3.078125 35.359375 L 19.722656 35.359375 C 19.53125 27.1875 22.359375 11.3125 28.328125 1.765625 Z M 28.328125 1.765625 "/>
<path style=" stroke:none;fill-rule:nonzero;fill:url(#linear0);" d="M 27.410156 2.65625 L 3.078125 2.65625 C 1.878906 2.65625 0.898438 3.640625 0.898438 4.8125 L 0.898438 30.34375 C 6.410156 28.25 14.683594 26.4375 20.398438 26.53125 C 20.84375 24.5 21.320312 22.480469 21.835938 20.46875 C 22.351562 18.457031 22.898438 16.457031 23.480469 14.46875 C 24.070312 12.480469 24.691406 10.5 25.34375 8.53125 C 25.996094 6.5625 26.683594 4.605469 27.410156 2.65625 Z M 27.410156 2.65625 "/>
<path style=" stroke:none;fill-rule:nonzero;fill:rgb(0%,23.137255%,34.117648%);fill-opacity:1;" d="M 34.214844 0.875 C 32.496094 -0.640625 30.394531 -0.03125 28.328125 1.765625 L 27.410156 2.65625 C 23.875 6.359375 20.652344 13.234375 19.578125 18.484375 C 19.671875 18.691406 19.761719 18.902344 19.847656 19.109375 C 19.929688 19.316406 20.011719 19.53125 20.085938 19.75 C 20.167969 19.96875 20.242188 20.1875 20.304688 20.40625 C 20.367188 20.625 20.425781 20.84375 20.480469 21.0625 L 20.621094 21.671875 L 20.746094 22.296875 C 20.746094 22.296875 20.714844 22.171875 20.589844 21.796875 L 20.511719 21.5625 C 20.5 21.550781 20.496094 21.542969 20.496094 21.53125 C 20.496094 21.519531 20.488281 21.511719 20.480469 21.5 C 20.480469 21.488281 20.472656 21.472656 20.464844 21.453125 C 20.464844 21.441406 20.457031 21.433594 20.449219 21.421875 C 20.226562 20.90625 19.59375 19.78125 19.308594 19.296875 C 19.246094 19.453125 19.191406 19.613281 19.136719 19.78125 C 19.085938 19.9375 19.03125 20.097656 18.980469 20.265625 C 18.925781 20.421875 18.875 20.582031 18.820312 20.75 C 18.769531 20.917969 18.722656 21.078125 18.679688 21.234375 C 19.484375 22.703125 19.972656 25.21875 19.972656 25.21875 C 19.972656 25.21875 19.925781 25.0625 19.722656 24.5 C 19.546875 23.984375 18.648438 22.421875 18.441406 22.0625 C 18.0625 23.40625 17.9375 24.296875 18.0625 24.515625 C 18.300781 24.9375 18.550781 25.734375 18.757812 26.484375 C 18.84375 26.816406 18.921875 27.152344 18.996094 27.484375 C 19.078125 27.816406 19.152344 28.15625 19.214844 28.5 C 19.277344 28.832031 19.34375 29.167969 19.40625 29.5 C 19.46875 29.84375 19.527344 30.1875 19.578125 30.53125 L 19.609375 30.90625 C 19.589844 31.28125 19.578125 31.65625 19.578125 32.03125 C 19.570312 32.417969 19.570312 32.796875 19.578125 33.171875 C 19.589844 33.558594 19.605469 33.9375 19.625 34.3125 C 19.636719 34.699219 19.65625 35.078125 19.691406 35.453125 C 19.863281 37.34375 20.164062 38.984375 20.542969 39.859375 L 20.792969 39.71875 C 20.242188 38 20.003906 35.75 20.117188 33.140625 C 20.257812 29.171875 21.191406 24.375 22.894531 19.375 C 25.800781 11.765625 29.792969 5.71875 33.472656 2.828125 C 30.125 5.8125 25.59375 15.46875 24.253906 19.046875 C 22.738281 23.046875 21.664062 26.8125 21.015625 30.421875 C 22.121094 27.046875 25.738281 25.578125 25.738281 25.578125 C 25.738281 25.578125 27.519531 23.421875 29.574219 20.328125 L 25.625 21.375 L 24.347656 21.9375 C 24.347656 21.9375 27.601562 19.984375 30.394531 19.078125 C 34.246094 13.09375 38.449219 4.578125 34.214844 0.875 Z M 34.214844 0.875 "/>
</g>
</svg>
