<svg version="1.2" xmlns="http://www.w3.org/2000/svg" viewBox="0 0 65 40" width="65" height="40">
	<title>tailwind</title>
	<defs>
		<clipPath clipPathUnits="userSpaceOnUse" id="cp1">
			<path d="m65 0v39.27h-65v-39.27z"/>
		</clipPath>
	</defs>
	<style>
		.s0 { fill: #38bdf8 } 
	</style>
	<g id="Clip-Path" clip-path="url(#cp1)">
		<g>
			<path fill-rule="evenodd" class="s0" d="m32.5 0q-13 0-16.3 13.1 4.9-6.6 11.4-4.9c2.5 0.6 4.3 2.4 6.2 4.4 3.2 3.3 6.9 7 14.9 7q13.1 0 16.3-13.1-4.9 6.6-11.4 5c-2.4-0.7-4.2-2.5-6.2-4.5-3.2-3.2-6.8-7-14.9-7zm-16.3 19.6q-12.9 0-16.2 13.1 4.9-6.5 11.4-4.9c2.4 0.6 4.2 2.4 6.2 4.4 3.2 3.3 6.8 7.1 14.9 7.1q13 0 16.3-13.1-4.9 6.5-11.4 4.9c-2.5-0.6-4.3-2.4-6.2-4.4-3.2-3.3-6.9-7.1-15-7.1z"/>
		</g>
	</g>
</svg>