<?xml version="1.0" encoding="UTF-8"?>
<svg xmlns="http://www.w3.org/2000/svg" xmlns:xlink="http://www.w3.org/1999/xlink" width="px" height="40px" viewBox="0 0 37 39" version="1.1">
<g id="surface1">
<path style=" stroke:none;fill-rule:nonzero;fill:rgb(89.803922%,35.686275%,17.647059%);fill-opacity:1;" d="M 21.117188 5.941406 L 21.117188 11.945312 L 31.675781 17.945312 L 31.675781 11.945312 Z M 0.015625 11.945312 L 0.015625 17.945312 L 5.292969 20.945312 L 5.292969 14.945312 Z M 15.835938 14.945312 L 10.558594 17.945312 L 10.558594 35.9375 L 15.835938 38.9375 L 15.835938 26.933594 L 21.117188 29.9375 L 21.117188 23.933594 L 15.835938 20.945312 Z M 15.835938 14.945312 "/>
<path style=" stroke:none;fill-rule:nonzero;fill:rgb(92.941177%,55.686277%,14.117648%);fill-opacity:1;" d="M 21.117188 5.941406 L 5.292969 14.945312 L 5.292969 20.945312 L 15.851562 14.945312 L 15.851562 20.945312 L 21.117188 17.945312 Z M 36.953125 8.941406 L 31.675781 11.945312 L 31.675781 17.945312 L 36.953125 14.945312 Z M 26.394531 20.933594 L 21.117188 23.933594 L 21.117188 29.9375 L 26.394531 26.933594 Z M 21.117188 29.9375 L 15.851562 26.933594 L 15.851562 38.9375 L 21.117188 35.9375 Z M 21.117188 29.9375 "/>
<path style=" stroke:none;fill-rule:nonzero;fill:rgb(97.254902%,74.901962%,23.529412%);fill-opacity:1;" d="M 21.117188 -0.0625 L 0.015625 11.945312 L 5.292969 14.945312 L 21.117188 5.941406 L 31.675781 11.945312 L 36.953125 8.941406 Z M 21.117188 17.945312 L 15.835938 20.933594 L 21.117188 23.933594 L 26.378906 20.933594 Z M 21.117188 17.945312 "/>
</g>
</svg>
