<?xml version="1.0" encoding="UTF-8"?>
<svg xmlns="http://www.w3.org/2000/svg" xmlns:xlink="http://www.w3.org/1999/xlink" width="px" height="40px" viewBox="0 0 56 40" version="1.1">
<g id="surface1">
<path style=" stroke:none;fill-rule:nonzero;fill:rgb(81.960785%,64.313728%,10.196079%);fill-opacity:1;" d="M 9.726562 26.234375 C 9.902344 26.441406 10.074219 26.644531 10.238281 26.84375 C 10.414062 27.050781 10.589844 27.253906 10.765625 27.453125 C 10.941406 27.652344 11.121094 27.847656 11.308594 28.046875 C 11.484375 28.234375 11.664062 28.425781 11.851562 28.625 C 9.585938 29.3125 8.113281 30.578125 7.183594 31.703125 C 5.707031 33.484375 4.949219 35.828125 5.117188 37.84375 L 1.226562 37.84375 C 2 36.140625 5.117188 31.203125 9.726562 26.234375 Z M 54.882812 38.90625 L 50.152344 38.90625 C 39.277344 33.203125 29.722656 29.1875 19.59375 28.296875 C 19.613281 26.878906 19.867188 25.277344 20.351562 23.484375 L 19.40625 23.234375 C 18.910156 25.066406 18.652344 26.734375 18.628906 28.234375 C 17.574219 28.160156 16.511719 28.125 15.433594 28.125 C 14.519531 28.125 13.699219 28.203125 12.9375 28.359375 C 11.960938 27.359375 11.105469 26.421875 10.394531 25.515625 C 15.078125 20.625 22.773438 16.1875 29.488281 14.515625 C 31.367188 20.828125 35.429688 25.15625 40.347656 28.0625 C 40.429688 28.011719 40.519531 27.957031 40.613281 27.90625 C 40.703125 27.855469 40.792969 27.800781 40.875 27.75 C 40.96875 27.699219 41.054688 27.640625 41.140625 27.578125 C 41.230469 27.527344 41.320312 27.472656 41.402344 27.421875 L 49.980469 36.703125 L 50.351562 36.671875 C 52.695312 36.46875 54.03125 37.75 54.386719 38.15625 C 54.652344 38.4375 54.804688 38.703125 54.882812 38.90625 Z M 54.882812 38.90625 "/>
<path style=" stroke:none;fill-rule:nonzero;fill:rgb(100%,86.274511%,46.27451%);fill-opacity:1;" d="M 50.695312 7.828125 C 50.882812 16.40625 46.523438 23.234375 40.441406 26.734375 C 30.109375 21.546875 28.15625 8.4375 29.921875 1.390625 C 30.40625 4.078125 31.304688 5.765625 33.226562 6.59375 C 37.417969 5.390625 43.203125 5.296875 47.453125 6.46875 C 49.222656 5.171875 49.902344 3.203125 50.292969 1.46875 C 50.757812 3.484375 50.695312 7.828125 50.695312 7.828125 Z M 50.695312 7.828125 "/>
<path style=" stroke:none;fill-rule:evenodd;fill:rgb(0%,0%,0%);fill-opacity:1;" d="M 21.5 17.421875 L 24.710938 15.953125 L 26.277344 20.65625 Z M 18.242188 19.125 L 20.105469 18 L 21.796875 20.9375 Z M 14.628906 21.53125 L 16.257812 20.296875 L 17.078125 23.234375 Z M 40.84375 30.53125 L 42.363281 28.171875 L 43.527344 29.296875 Z M 42.316406 32.765625 L 44.769531 30.875 L 45.699219 31.875 Z M 40.628906 9.390625 L 38.8125 5.390625 L 41.789062 5.328125 Z M 29.9375 12.921875 L 29.644531 11.21875 L 32.515625 12.75 Z M 30.636719 15.4375 L 30.34375 14.328125 L 32.09375 15.03125 Z M 48.445312 13.328125 L 50.789062 12.328125 L 50.382812 13.609375 Z M 48.027344 15.75 L 49.839844 15.21875 L 49.484375 16.265625 Z M 48.027344 15.75 "/>
<path style=" stroke:none;fill-rule:evenodd;fill:rgb(0%,0%,0%);fill-opacity:1;" d="M 28.667969 19.59375 L 34.3125 19.59375 L 34.3125 20.296875 L 28.667969 20.296875 Z M 28.667969 17.90625 L 34.3125 17.90625 L 34.3125 18.609375 L 28.667969 18.609375 Z M 45.886719 19.59375 L 51.515625 19.59375 L 51.515625 20.296875 L 45.886719 20.296875 Z M 45.886719 17.90625 L 51.515625 17.90625 L 51.515625 18.609375 L 45.886719 18.609375 Z M 43.898438 13.75 L 34.71875 13.75 L 34.71875 13.125 L 37.570312 13.125 C 37.929688 11.609375 37.988281 10.15625 37.570312 9.421875 C 37.386719 9.109375 37.136719 8.96875 36.78125 8.96875 C 35.152344 8.96875 34.46875 10.6875 34.4375 10.78125 L 33.847656 10.5625 C 33.894531 10.46875 34.703125 8.328125 36.78125 8.328125 C 37.355469 8.328125 37.820312 8.59375 38.113281 9.109375 C 38.625 10 38.5625 11.546875 38.207031 13.125 L 43.234375 13.125 C 43.898438 11.15625 45.28125 10.21875 47.609375 10.21875 L 47.609375 10.859375 C 45.09375 10.859375 44.382812 11.921875 43.882812 13.125 L 46.613281 13.125 L 46.613281 13.75 C 46.613281 13.75 43.898438 13.75 43.898438 13.75 Z M 34.4375 10.78125 Z M 44.304688 16.859375 L 44.320312 16.859375 M 44.304688 16.859375 L 44.320312 16.859375 "/>
<path style=" stroke:none;fill-rule:evenodd;fill:rgb(0%,0%,0%);fill-opacity:1;" d="M 44.304688 16.875 C 44.148438 16.984375 40.78125 19.1875 40.78125 19.1875 L 43.03125 20.59375 L 42.691406 21.125 L 40.269531 19.53125 L 38.019531 21.015625 L 37.664062 20.5 L 39.679688 19.15625 L 36.113281 16.890625 L 36.253906 16.640625 C 36.71875 15.828125 37.121094 14.796875 37.417969 13.765625 L 38.050781 13.765625 C 37.789062 14.734375 37.429688 15.6875 37.042969 16.46875 L 43.417969 16.46875 C 42.875 15.546875 42.785156 14.484375 43 13.765625 L 43.652344 13.765625 C 43.328125 14.828125 43.574219 15.78125 44.320312 16.875 Z M 42.785156 17.109375 L 37.617188 17.109375 L 40.253906 18.78125 Z M 42.785156 17.109375 "/>
<path style=" stroke:none;fill-rule:evenodd;fill:rgb(0%,0%,0%);fill-opacity:1;" d="M 51.75 7.078125 Z M 51.75 7.078125 C 51.75 7.078125 51.75 7.0625 51.75 7.0625 C 51.9375 16.59375 47.097656 24.15625 40.332031 28.046875 C 33.769531 24.15625 28.746094 17.75 28.355469 7.4375 L 28.371094 7.4375 C 28.265625 4.96875 28.667969 1.515625 29.535156 0.03125 C 31.613281 1.015625 34.390625 2.78125 34.933594 5.078125 C 38.222656 4.515625 41.992188 4.453125 45.328125 4.953125 C 46.027344 2.8125 49.097656 0.71875 50.789062 0.078125 C 51.410156 1.34375 51.75 5.96875 51.75 7.078125 Z M 50.277344 1.453125 C 49.902344 3.1875 49.222656 5.15625 47.453125 6.453125 C 43.1875 5.28125 37.417969 5.375 33.226562 6.578125 C 31.304688 5.75 30.40625 4.0625 29.921875 1.375 C 28.15625 8.421875 30.109375 21.53125 40.441406 26.71875 C 46.523438 23.21875 50.882812 16.390625 50.695312 7.8125 C 50.695312 7.8125 50.757812 3.46875 50.277344 1.453125 Z M 45.886719 5.046875 C 45.824219 5.035156 45.761719 5.027344 45.699219 5.015625 Z M 46.210938 5.09375 L 46.132812 5.078125 C 46.132812 5.078125 46.210938 5.09375 46.210938 5.09375 Z M 46.210938 5.09375 "/>
<path style=" stroke:none;fill-rule:evenodd;fill:rgb(0%,0%,0%);fill-opacity:1;" d="M 55.90625 39.484375 L 55.828125 39.875 L 49.902344 39.875 C 39.136719 34.203125 29.597656 30.15625 19.609375 29.265625 C 19.730469 31.09375 20.273438 32.5625 21.269531 33.65625 C 22.292969 33.3125 23.410156 33.375 24.136719 33.84375 C 24.632812 34.171875 24.898438 34.65625 24.898438 35.203125 L 24.898438 35.6875 L 20.304688 35.6875 C 17.359375 33.59375 14.722656 31.4375 12.644531 29.40625 C 10.300781 29.96875 8.828125 31.21875 7.925781 32.3125 C 6.5 34.046875 5.800781 36.359375 6.144531 38.21875 L 6.25 38.796875 L 0.0625 38.796875 L 0.0625 38.3125 C 0.0625 37.375 3.492188 31.71875 8.191406 26.4375 C 8.480469 26.09375 8.785156 25.75 9.105469 25.40625 C 7.183594 22.84375 6.035156 20.359375 5.707031 18.015625 C 5.367188 15.5625 5.957031 13.296875 7.414062 11.46875 C 8.902344 9.609375 10.890625 8.6875 13.496094 8.671875 C 14.242188 8.671875 15.25 8.796875 16.273438 8.984375 C 16.441406 8.625 16.707031 8.3125 17.046875 8.140625 C 18.085938 7.640625 21.824219 8.90625 23.671875 11.515625 C 21.160156 12.625 16.96875 12.21875 16.195312 11.0625 C 16.007812 10.796875 15.945312 10.34375 16.007812 9.875 C 13.0625 9.375 10.191406 9.546875 8.175781 12.078125 C 6.886719 13.6875 6.359375 15.703125 6.671875 17.890625 C 6.917969 19.625 7.726562 21.90625 9.789062 24.703125 C 14.210938 20.0625 22.152344 15.28125 29.410156 13.515625 L 29.628906 14.46875 C 22.882812 16.109375 15.109375 20.5625 10.394531 25.5 C 11.105469 26.40625 11.945312 27.34375 12.9375 28.34375 C 13.699219 28.1875 14.519531 28.109375 15.433594 28.109375 C 16.511719 28.109375 17.574219 28.144531 18.628906 28.21875 C 18.652344 26.71875 18.910156 25.050781 19.40625 23.21875 L 20.335938 23.46875 C 19.859375 25.261719 19.613281 26.863281 19.59375 28.28125 C 29.722656 29.15625 39.277344 33.1875 50.152344 38.890625 L 54.882812 38.890625 C 54.804688 38.6875 54.652344 38.421875 54.386719 38.125 C 54.03125 37.734375 52.695312 36.453125 50.351562 36.65625 L 49.980469 36.6875 L 41.355469 27.34375 L 41.851562 26.71875 C 41.851562 26.71875 49.003906 34.296875 50.230469 35.765625 C 51.964844 35.71875 54.046875 36.296875 55.101562 37.484375 C 55.722656 38.171875 56.015625 38.921875 55.90625 39.484375 Z M 11.851562 28.609375 C 11.664062 28.410156 11.484375 28.214844 11.308594 28.015625 C 11.121094 27.828125 10.941406 27.636719 10.765625 27.4375 C 10.589844 27.230469 10.414062 27.027344 10.238281 26.828125 C 10.074219 26.621094 9.902344 26.410156 9.726562 26.203125 C 5.117188 31.1875 2 36.125 1.226562 37.828125 L 5.117188 37.828125 C 4.949219 35.8125 5.722656 33.46875 7.183594 31.6875 C 8.113281 30.5625 9.585938 29.28125 11.851562 28.609375 Z M 11.851562 28.609375 "/>
</g>
</svg>
