<?xml version="1.0" encoding="UTF-8"?>
<svg xmlns="http://www.w3.org/2000/svg" xmlns:xlink="http://www.w3.org/1999/xlink" width="px" height="40px" viewBox="0 0 40 39" version="1.1">
<g id="surface1">
<path style=" stroke:none;fill-rule:nonzero;fill:rgb(5.490196%,5.882353%,5.098039%);fill-opacity:1;" d="M 39.78125 13.726562 C 39.773438 13.585938 39.75 13.441406 39.722656 13.300781 C 39.710938 13.269531 39.699219 13.234375 39.691406 13.191406 C 39.691406 13.152344 39.683594 13.117188 39.675781 13.085938 C 39.664062 13.046875 39.652344 13.011719 39.644531 12.980469 C 39.632812 12.9375 39.621094 12.902344 39.613281 12.871094 L 39.503906 12.691406 C 39.039062 12.339844 38.558594 12.082031 38.046875 11.835938 C 37.644531 11.652344 37.210938 11.488281 36.789062 11.320312 C 35.613281 8.089844 33.566406 5.226562 30.882812 3.230469 C 28.125 1.171875 24.867188 0.0742188 21.472656 0.0742188 C 18.078125 0.0742188 14.820312 1.171875 12.0625 3.230469 C 9.378906 5.226562 7.332031 8.089844 6.15625 11.335938 C 5.738281 11.488281 5.300781 11.652344 4.898438 11.835938 C 4.386719 12.082031 3.90625 12.339844 3.441406 12.691406 L 3.332031 12.871094 C 3.324219 12.902344 3.3125 12.9375 3.300781 12.980469 C 3.292969 13.011719 3.28125 13.046875 3.269531 13.085938 C 3.261719 13.125 3.253906 13.164062 3.253906 13.191406 C 3.246094 13.234375 3.234375 13.269531 3.226562 13.300781 C 3.203125 13.441406 3.183594 13.582031 3.164062 13.726562 C 3.152344 13.796875 3.140625 13.867188 3.132812 13.9375 C 3.121094 14.011719 3.109375 14.082031 3.101562 14.152344 C 3.101562 14.222656 3.09375 14.296875 3.085938 14.367188 C 3.085938 14.4375 3.082031 14.507812 3.070312 14.578125 C 3.070312 14.722656 3.066406 14.863281 3.054688 15.007812 C 3.054688 15.148438 3.058594 15.289062 3.070312 15.433594 C 3.070312 15.574219 3.074219 15.71875 3.085938 15.859375 C 3.09375 16.011719 3.109375 16.160156 3.132812 16.300781 C 3.140625 16.441406 3.15625 16.578125 3.179688 16.710938 C 3.199219 16.855469 3.226562 16.996094 3.253906 17.140625 C 3.277344 17.28125 3.308594 17.421875 3.347656 17.566406 C 3.378906 17.707031 3.410156 17.84375 3.441406 17.976562 C 3.460938 18.046875 3.484375 18.117188 3.503906 18.191406 C 3.535156 18.261719 3.5625 18.328125 3.582031 18.386719 C 3.601562 18.460938 3.621094 18.53125 3.644531 18.601562 C 3.675781 18.671875 3.699219 18.738281 3.722656 18.800781 C 3.78125 18.941406 3.84375 19.078125 3.90625 19.210938 C 3.9375 19.273438 3.972656 19.335938 4.015625 19.410156 C 4.09375 19.546875 4.109375 19.578125 4.140625 19.621094 L 4.277344 19.757812 C 4.386719 19.804688 4.464844 19.851562 4.558594 19.882812 L 4.804688 20.003906 C 4.859375 20.023438 4.910156 20.042969 4.960938 20.0625 C 3.78125 21.128906 2.496094 22.515625 1.394531 24.222656 L 0 26.402344 L 1.953125 24.710938 C 2 24.679688 3.644531 23.277344 6.371094 21.695312 L 6.417969 22 C 6.234375 22.089844 5.378906 22.53125 5.117188 22.746094 C 4.699219 23.09375 4.683594 23.628906 4.789062 24.632812 C 4.851562 25.152344 5.039062 26.140625 5.300781 27.070312 C 5.765625 28.640625 6.09375 28.914062 6.386719 28.976562 C 6.527344 29.023438 6.699219 29.023438 6.882812 29.023438 C 7.410156 29.023438 8.078125 28.929688 8.527344 28.792969 C 9.039062 30.378906 9.765625 31.792969 10.652344 33.042969 C 10.609375 33.054688 10.570312 33.0625 10.527344 33.074219 C 10 32.832031 8.125 31.976562 7.488281 31.703125 L 6.1875 31.125 L 6.960938 32.3125 C 7.007812 32.402344 8.355469 34.460938 9.457031 35.832031 C 10.480469 37.125 11.875 38.453125 14.527344 38.453125 C 14.847656 38.453125 15.179688 38.429688 15.519531 38.390625 C 16.308594 38.300781 16.898438 38.238281 17.347656 38.175781 C 20.125 39.183594 23.195312 39.242188 26.09375 38.164062 C 26.277344 38.089844 26.464844 38.015625 26.652344 37.933594 C 26.847656 37.851562 27.035156 37.765625 27.210938 37.675781 C 27.394531 37.59375 27.578125 37.503906 27.75 37.402344 C 27.925781 37.308594 28.101562 37.207031 28.277344 37.097656 C 29.394531 36.835938 30.621094 36.546875 31.226562 36.378906 C 31.332031 36.347656 31.441406 36.335938 31.582031 36.304688 C 32.417969 36.105469 33.828125 35.785156 34.574219 34.308594 C 35.332031 32.816406 36.574219 30.53125 36.589844 30.515625 L 37.164062 29.449219 L 36.03125 29.921875 C 35.984375 29.949219 34.558594 30.558594 33.8125 30.941406 C 34.324219 29.785156 34.636719 28.808594 34.730469 28.441406 C 35.148438 28.550781 35.765625 28.535156 36.21875 28.535156 C 36.433594 28.535156 36.667969 28.488281 36.820312 28.457031 C 37.117188 28.382812 37.332031 28.183594 37.765625 26.570312 C 38.015625 25.625 38.1875 24.589844 38.234375 24.070312 C 38.339844 23.035156 38.308594 22.484375 37.875 22.136719 C 37.660156 21.96875 37.039062 21.632812 36.714844 21.464844 C 36.898438 21.390625 36.992188 21.417969 36.992188 21.417969 L 37.285156 20.339844 C 37.378906 20.296875 37.488281 20.257812 37.613281 20.214844 C 37.789062 20.144531 37.964844 20.074219 38.140625 20.003906 L 38.386719 19.882812 C 38.480469 19.851562 38.558594 19.804688 38.667969 19.757812 L 38.804688 19.621094 C 38.835938 19.574219 38.867188 19.546875 38.882812 19.515625 C 38.976562 19.347656 39.007812 19.273438 39.039062 19.210938 C 39.101562 19.078125 39.164062 18.941406 39.226562 18.800781 C 39.246094 18.738281 39.269531 18.671875 39.300781 18.601562 C 39.324219 18.53125 39.34375 18.460938 39.363281 18.386719 C 39.394531 18.328125 39.421875 18.261719 39.441406 18.191406 C 39.460938 18.117188 39.484375 18.046875 39.503906 17.976562 C 39.535156 17.84375 39.570312 17.707031 39.613281 17.566406 C 39.644531 17.421875 39.667969 17.28125 39.691406 17.136719 C 39.722656 16.996094 39.746094 16.855469 39.765625 16.710938 C 39.789062 16.578125 39.808594 16.441406 39.828125 16.300781 C 39.890625 15.722656 39.90625 15.148438 39.875 14.578125 C 39.867188 14.507812 39.859375 14.4375 39.859375 14.367188 C 39.851562 14.292969 39.84375 14.222656 39.84375 14.152344 C 39.835938 14.082031 39.824219 14.011719 39.8125 13.9375 C 39.804688 13.867188 39.792969 13.796875 39.78125 13.726562 Z M 39.78125 13.726562 "/>
<path style=" stroke:none;fill-rule:nonzero;fill:rgb(88.235295%,77.254903%,63.529414%);fill-opacity:1;" d="M 23.285156 35.875 C 23.082031 35.90625 22.867188 35.933594 22.652344 35.953125 C 22.527344 35.953125 22.371094 35.96875 22.25 35.96875 L 22.203125 35.96875 C 22.355469 35.601562 22.480469 35.328125 22.574219 35.117188 C 22.773438 35.328125 23.023438 35.585938 23.285156 35.875 Z M 23.285156 35.875 "/>
<path style=" stroke:none;fill-rule:evenodd;fill:rgb(65.882355%,60.000002%,51.372552%);fill-opacity:1;" d="M 23.039062 19.804688 C 22.699219 20.078125 22.355469 20.324219 21.984375 20.535156 L 20.773438 21.25 C 20.015625 21.34375 19.347656 21.527344 19.300781 21.542969 C 19.28125 21.550781 19.261719 21.5625 19.242188 21.570312 C 19.230469 21.582031 19.21875 21.59375 19.210938 21.601562 C 19.1875 21.613281 19.171875 21.621094 19.164062 21.632812 C 19.152344 21.652344 19.148438 21.667969 19.148438 21.679688 C 19.136719 21.699219 19.125 21.714844 19.117188 21.722656 L 17.875 25.730469 L 11.269531 27.179688 L 9.179688 25.746094 L 8.574219 20.917969 C 9.75 20.703125 11.332031 20.460938 13.242188 20.246094 C 13.1875 20.308594 13.136719 20.367188 13.085938 20.429688 C 13.035156 20.492188 12.988281 20.554688 12.945312 20.628906 C 12.894531 20.6875 12.84375 20.75 12.789062 20.808594 C 12.75 20.871094 12.703125 20.9375 12.652344 21.007812 L 11.519531 22.609375 L 13.164062 21.527344 C 13.195312 21.511719 14.25 20.824219 15.953125 20.003906 C 16.429688 19.972656 16.898438 19.941406 17.363281 19.910156 C 17.828125 19.882812 18.300781 19.859375 18.773438 19.851562 C 19.242188 19.832031 19.707031 19.816406 20.171875 19.804688 C 20.644531 19.792969 21.117188 19.789062 21.582031 19.789062 C 22.078125 19.789062 22.5625 19.792969 23.039062 19.804688 Z M 12.730469 25.242188 C 13.210938 25 13.738281 25.03125 14.558594 25.03125 C 14.652344 25.03125 14.746094 25.03125 14.835938 25.03125 C 14.917969 25.03125 15.007812 25.03125 15.101562 25.03125 C 15.953125 25.015625 16.667969 25.105469 16.652344 23.78125 C 16.636719 22.457031 16.046875 21.390625 15.179688 21.40625 C 14.324219 21.40625 13.503906 22.484375 13.550781 23.8125 C 13.566406 24.148438 13.613281 24.40625 13.691406 24.574219 C 12.945312 24.769531 12.746094 25.210938 12.730469 25.242188 Z M 34.511719 20.902344 L 33.90625 25.015625 L 31.8125 26.460938 L 25.195312 25.714844 L 23.96875 21.722656 C 23.957031 21.703125 23.949219 21.683594 23.9375 21.664062 C 23.925781 21.644531 23.914062 21.628906 23.890625 21.617188 C 23.882812 21.597656 23.867188 21.582031 23.84375 21.570312 C 23.824219 21.5625 23.796875 21.550781 23.765625 21.542969 C 23.738281 21.527344 22.914062 21.296875 22.046875 21.222656 L 22.203125 21.222656 C 22.339844 21.207031 24.621094 20.933594 27.347656 20.019531 C 30.355469 20.246094 32.820312 20.597656 34.511719 20.902344 Z M 30.277344 24.710938 C 30.277344 24.679688 30.09375 24.148438 29.300781 24.238281 C 29.378906 24.039062 29.425781 23.765625 29.394531 23.414062 C 29.300781 22.089844 28.511719 21.039062 27.660156 21.070312 C 26.804688 21.097656 26.25 22.195312 26.292969 23.523438 C 26.339844 24.832031 27.070312 24.832031 27.921875 24.800781 C 29.070312 24.769531 29.707031 24.4375 30.277344 24.710938 Z M 30.277344 24.710938 "/>
<path style=" stroke:none;fill-rule:nonzero;fill:rgb(100%,100%,100%);fill-opacity:1;" d="M 28.015625 22.332031 C 28.015625 22.382812 28.003906 22.441406 27.984375 22.5 C 27.964844 22.550781 27.933594 22.597656 27.890625 22.636719 C 27.859375 22.679688 27.8125 22.710938 27.75 22.730469 C 27.699219 22.75 27.648438 22.761719 27.597656 22.761719 C 27.535156 22.769531 27.476562 22.765625 27.425781 22.746094 C 27.375 22.714844 27.328125 22.683594 27.285156 22.652344 C 27.234375 22.613281 27.199219 22.566406 27.179688 22.515625 C 27.15625 22.457031 27.148438 22.398438 27.148438 22.347656 C 27.148438 22.289062 27.15625 22.230469 27.179688 22.179688 C 27.199219 22.128906 27.230469 22.085938 27.269531 22.042969 C 27.3125 22.003906 27.359375 21.96875 27.410156 21.9375 C 27.460938 21.917969 27.519531 21.90625 27.582031 21.90625 C 27.632812 21.90625 27.683594 21.917969 27.738281 21.9375 C 27.796875 21.957031 27.851562 21.988281 27.890625 22.027344 C 27.933594 22.070312 27.964844 22.117188 27.984375 22.164062 C 28.003906 22.21875 28.015625 22.273438 28.015625 22.332031 Z M 15.75 22.652344 C 15.75 22.703125 15.742188 22.753906 15.722656 22.804688 C 15.699219 22.867188 15.667969 22.917969 15.628906 22.957031 C 15.585938 23 15.539062 23.03125 15.488281 23.050781 C 15.4375 23.070312 15.386719 23.078125 15.332031 23.078125 C 15.269531 23.089844 15.214844 23.085938 15.164062 23.066406 C 15.101562 23.042969 15.050781 23.015625 15.007812 22.972656 C 14.964844 22.933594 14.933594 22.886719 14.914062 22.835938 C 14.894531 22.785156 14.882812 22.730469 14.882812 22.667969 C 14.875 22.609375 14.878906 22.550781 14.898438 22.5 C 14.917969 22.449219 14.949219 22.40625 14.992188 22.363281 C 15.035156 22.324219 15.082031 22.289062 15.132812 22.257812 C 15.183594 22.238281 15.242188 22.226562 15.300781 22.226562 C 15.363281 22.226562 15.421875 22.238281 15.472656 22.257812 C 15.523438 22.277344 15.570312 22.308594 15.613281 22.347656 C 15.652344 22.390625 15.691406 22.433594 15.722656 22.484375 C 15.742188 22.535156 15.75 22.59375 15.75 22.652344 Z M 15.75 22.652344 "/>
<path style=" stroke:none;fill-rule:nonzero;fill:rgb(88.235295%,77.254903%,63.529414%);fill-opacity:1;" d="M 37.394531 22.714844 C 37.285156 22.625 36.945312 22.441406 36.605469 22.257812 L 36.046875 26.066406 C 36.046875 26.085938 36.042969 26.105469 36.03125 26.125 C 36.03125 26.136719 36.027344 26.152344 36.015625 26.171875 C 36.003906 26.191406 35.996094 26.207031 35.984375 26.21875 C 35.964844 26.226562 35.949219 26.238281 35.9375 26.25 L 35.148438 26.796875 C 35.117188 26.890625 35.117188 26.964844 35.101562 27.039062 C 35.875 27.222656 36.636719 26.675781 37.054688 26.28125 C 37.253906 25.53125 37.425781 24.632812 37.488281 23.992188 C 37.566406 23.003906 37.488281 22.789062 37.394531 22.714844 Z M 25.148438 37.203125 C 24.636719 37.019531 24.171875 36.730469 23.75 36.335938 C 23.722656 36.304688 23.691406 36.269531 23.660156 36.226562 C 23.578125 36.246094 23.492188 36.261719 23.410156 36.273438 C 23.328125 36.292969 23.246094 36.308594 23.164062 36.320312 C 23.082031 36.328125 23.003906 36.339844 22.929688 36.347656 C 22.847656 36.359375 22.765625 36.363281 22.683594 36.363281 C 22.542969 36.378906 22.402344 36.394531 22.261719 36.394531 L 21.96875 36.394531 C 21.472656 37.109375 20.652344 37.507812 20 37.703125 C 21.921875 38.039062 24.03125 37.539062 25.148438 37.203125 Z M 8.21875 27.863281 C 8.195312 27.804688 8.179688 27.746094 8.171875 27.695312 L 7.132812 26.980469 C 7.121094 26.96875 7.105469 26.960938 7.085938 26.949219 C 7.074219 26.929688 7.066406 26.914062 7.054688 26.902344 C 7.042969 26.882812 7.039062 26.863281 7.039062 26.84375 C 7.027344 26.824219 7.023438 26.808594 7.023438 26.796875 L 6.511719 22.789062 C 6.140625 22.972656 5.722656 23.21875 5.597656 23.308594 C 5.503906 23.398438 5.425781 23.597656 5.535156 24.558594 C 5.613281 25.273438 5.875 26.371094 6.140625 27.207031 C 6.652344 27.589844 7.425781 28 8.21875 27.863281 Z M 23.613281 27.679688 C 23.582031 27.679688 23.554688 27.675781 23.535156 27.664062 C 23.503906 27.65625 23.476562 27.640625 23.457031 27.621094 C 23.4375 27.601562 23.421875 27.578125 23.410156 27.558594 C 23.390625 27.539062 23.378906 27.511719 23.378906 27.484375 L 22.109375 23.371094 C 21.890625 23.339844 21.707031 23.324219 21.550781 23.324219 C 21.386719 23.324219 21.195312 23.339844 20.976562 23.371094 L 19.75 27.359375 C 19.742188 27.390625 19.730469 27.417969 19.722656 27.4375 C 19.699219 27.457031 19.683594 27.472656 19.675781 27.484375 C 19.652344 27.503906 19.632812 27.519531 19.613281 27.527344 C 19.589844 27.539062 19.566406 27.546875 19.535156 27.558594 L 18.945312 27.679688 C 18.898438 27.894531 18.730469 28.183594 18.1875 28.351562 C 17.300781 28.625 11.707031 30.253906 11.070312 30.164062 C 10.699219 30.117188 9.984375 29.738281 9.457031 29.417969 C 9.253906 28.929688 9.132812 28.609375 9.117188 28.535156 L 9.101562 28.535156 C 9.179688 28.746094 9.90625 30.804688 11.394531 32.828125 C 12.992188 32.371094 14.355469 31.929688 14.789062 31.792969 C 15.691406 30.4375 16.960938 29.097656 17.875 29.050781 C 17.917969 29.050781 17.953125 29.050781 17.984375 29.050781 C 18.027344 29.050781 18.066406 29.050781 18.109375 29.050781 C 18.148438 29.042969 18.191406 29.035156 18.234375 29.035156 C 18.273438 29.035156 18.316406 29.035156 18.355469 29.035156 C 18.789062 29.035156 19.210938 29.066406 19.613281 29.113281 C 19.269531 28.824219 19.210938 28.472656 19.164062 28.320312 C 19.164062 28.320312 20.308594 29.203125 21.78125 29.019531 C 23.253906 28.839844 24.171875 28 24.171875 28 L 24.203125 27.742188 C 24.203125 27.742188 23.613281 27.679688 23.613281 27.679688 Z M 23.613281 27.679688 "/>
<path style=" stroke:none;fill-rule:nonzero;fill:rgb(88.235295%,77.254903%,63.529414%);fill-opacity:1;" d="M 24.804688 28.199219 C 24.496094 28.121094 24.308594 28 24.1875 27.863281 L 24.171875 28 C 24.171875 28 24.171875 28.609375 23.519531 29.082031 C 24.757812 28.71875 25.269531 28.59375 25.613281 28.59375 C 26 28.59375 26.1875 28.746094 26.355469 28.882812 C 26.386719 28.90625 26.421875 28.929688 26.464844 28.960938 C 26.660156 29.125 26.863281 29.28125 27.070312 29.433594 C 27.265625 29.59375 27.46875 29.753906 27.675781 29.90625 C 27.871094 30.066406 28.074219 30.226562 28.277344 30.378906 C 28.476562 30.539062 28.675781 30.695312 28.882812 30.851562 C 29.269531 30.894531 30.496094 31.03125 31.253906 31.109375 C 31.707031 31.140625 32.109375 31.167969 32.496094 31.167969 C 32.628906 31.167969 32.753906 31.167969 32.867188 31.167969 C 33.269531 30.390625 33.644531 29.554688 33.96875 28.625 C 33.519531 28.929688 32.480469 29.617188 32 29.707031 C 31.363281 29.828125 25.691406 28.425781 24.804688 28.199219 Z M 24.804688 28.199219 "/>
<path style=" stroke:none;fill-rule:nonzero;fill:rgb(87.843138%,84.705883%,58.823532%);fill-opacity:1;" d="M 39.054688 13.800781 C 39.054688 13.773438 39.054688 13.742188 39.054688 13.710938 C 39.042969 13.679688 39.039062 13.648438 39.039062 13.621094 C 39.039062 13.578125 39.035156 13.542969 39.023438 13.511719 C 39.023438 13.484375 39.019531 13.453125 39.007812 13.421875 C 39.007812 13.390625 39.007812 13.367188 39.007812 13.34375 C 38.996094 13.324219 38.992188 13.300781 38.992188 13.269531 C 38.992188 13.25 38.988281 13.226562 38.976562 13.207031 C 38.976562 13.1875 38.976562 13.164062 38.976562 13.132812 C 38.621094 12.84375 38.203125 12.582031 37.78125 12.339844 C 37.316406 12.082031 36.851562 11.835938 36.355469 11.625 C 35.875 11.394531 35.363281 11.195312 34.867188 11 C 34.804688 10.96875 34.746094 10.945312 34.683594 10.921875 C 34.621094 10.890625 34.558594 10.867188 34.496094 10.847656 C 34.433594 10.828125 34.367188 10.800781 34.292969 10.769531 C 34.234375 10.75 34.171875 10.730469 34.109375 10.710938 C 33.859375 10.609375 33.605469 10.511719 33.347656 10.421875 C 33.875 10.511719 34.417969 10.632812 34.945312 10.769531 C 35.285156 10.851562 35.628906 10.949219 35.96875 11.058594 C 33.550781 4.84375 27.78125 0.808594 21.472656 0.808594 C 15.164062 0.808594 9.394531 4.84375 6.976562 11.058594 C 7.316406 10.949219 7.660156 10.851562 8 10.769531 C 8.527344 10.632812 9.070312 10.511719 9.597656 10.421875 C 9.339844 10.511719 9.085938 10.609375 8.835938 10.710938 C 8.773438 10.730469 8.714844 10.75 8.652344 10.769531 C 8.578125 10.800781 8.511719 10.828125 8.449219 10.847656 C 8.386719 10.867188 8.324219 10.890625 8.261719 10.921875 C 8.203125 10.945312 8.140625 10.96875 8.078125 11 C 7.582031 11.195312 7.070312 11.394531 6.589844 11.625 C 6.09375 11.835938 5.628906 12.082031 5.164062 12.339844 C 4.746094 12.582031 4.324219 12.84375 3.96875 13.132812 C 3.96875 13.164062 3.96875 13.1875 3.96875 13.207031 C 3.957031 13.226562 3.953125 13.25 3.953125 13.269531 C 3.953125 13.300781 3.949219 13.324219 3.9375 13.34375 C 3.9375 13.367188 3.9375 13.390625 3.9375 13.421875 C 3.925781 13.453125 3.921875 13.484375 3.921875 13.511719 C 3.921875 13.542969 3.917969 13.578125 3.90625 13.621094 C 3.90625 13.648438 3.90625 13.679688 3.90625 13.710938 C 3.898438 13.742188 3.890625 13.773438 3.890625 13.800781 C 3.882812 13.875 3.875 13.945312 3.875 14.015625 C 3.875 14.078125 3.871094 14.140625 3.859375 14.214844 C 3.859375 14.273438 3.859375 14.339844 3.859375 14.410156 C 3.859375 14.472656 3.859375 14.539062 3.859375 14.609375 C 3.84375 15.144531 3.890625 15.675781 3.953125 16.195312 C 4.03125 16.726562 4.125 17.246094 4.277344 17.75 C 4.289062 17.820312 4.304688 17.886719 4.324219 17.945312 C 4.347656 18.007812 4.367188 18.066406 4.386719 18.128906 C 4.410156 18.191406 4.429688 18.25 4.449219 18.3125 C 4.46875 18.371094 4.496094 18.433594 4.527344 18.496094 C 4.570312 18.617188 4.613281 18.738281 4.667969 18.859375 C 4.699219 18.910156 4.730469 18.96875 4.757812 19.027344 L 4.789062 19.089844 C 4.832031 19.109375 4.875 19.128906 4.914062 19.148438 L 5.148438 19.257812 C 5.285156 19.316406 5.472656 19.410156 5.628906 19.46875 C 5.636719 19.46875 5.644531 19.464844 5.644531 19.453125 L 5.210938 17.777344 C 5.300781 17.761719 6.140625 17.550781 7.597656 17.277344 C 7.566406 17.265625 7.539062 17.261719 7.519531 17.261719 C 7.488281 17.25 7.457031 17.242188 7.425781 17.230469 C 7.394531 17.230469 7.363281 17.226562 7.332031 17.214844 C 7.300781 17.203125 7.277344 17.199219 7.253906 17.199219 C 6.914062 17.109375 6.589844 17.015625 6.261719 16.894531 C 6.109375 16.824219 5.957031 16.746094 5.8125 16.667969 C 5.660156 16.589844 5.519531 16.5 5.410156 16.363281 C 7.007812 16.878906 10.324219 16.652344 13.253906 16.347656 C 15.953125 16.074219 18.652344 15.90625 21.363281 15.890625 C 24.078125 15.90625 26.773438 16.074219 29.472656 16.347656 C 32.417969 16.652344 35.722656 16.878906 37.316406 16.363281 C 37.210938 16.5 37.070312 16.589844 36.914062 16.667969 C 36.769531 16.746094 36.621094 16.824219 36.464844 16.894531 C 36.140625 17.015625 35.8125 17.109375 35.488281 17.199219 C 35.4375 17.210938 35.386719 17.21875 35.332031 17.230469 C 36.929688 17.519531 37.859375 17.761719 37.96875 17.777344 L 37.535156 19.378906 C 37.628906 19.335938 37.714844 19.296875 37.796875 19.257812 L 38.03125 19.148438 C 38.074219 19.128906 38.113281 19.109375 38.15625 19.089844 L 38.1875 19.027344 C 38.21875 18.96875 38.25 18.910156 38.277344 18.859375 C 38.332031 18.738281 38.378906 18.617188 38.417969 18.496094 C 38.449219 18.433594 38.476562 18.371094 38.496094 18.3125 C 38.515625 18.25 38.539062 18.191406 38.558594 18.128906 C 38.578125 18.066406 38.597656 18.007812 38.621094 17.945312 C 38.640625 17.886719 38.65625 17.820312 38.667969 17.75 C 38.820312 17.246094 38.914062 16.726562 38.992188 16.195312 C 39.054688 15.675781 39.101562 15.144531 39.085938 14.609375 C 39.085938 14.539062 39.085938 14.472656 39.085938 14.410156 C 39.085938 14.339844 39.085938 14.273438 39.085938 14.214844 C 39.074219 14.144531 39.070312 14.078125 39.070312 14.015625 C 39.070312 13.945312 39.066406 13.875 39.054688 13.800781 Z M 39.054688 13.800781 "/>
<path style=" stroke:none;fill-rule:evenodd;fill:rgb(84.313726%,75.686276%,51.764709%);fill-opacity:1;" d="M 28.109375 10.726562 C 28.140625 11.441406 28.109375 12.71875 27.78125 13.925781 C 27.761719 13.976562 27.761719 14.019531 27.78125 14.0625 C 27.667969 14.050781 27.5625 14.042969 27.457031 14.03125 C 27.355469 14.019531 27.246094 14.011719 27.132812 14 C 27.027344 13.992188 26.917969 13.980469 26.804688 13.96875 C 26.703125 13.960938 26.597656 13.953125 26.496094 13.953125 C 26.976562 12.964844 27.085938 11.898438 27.101562 11.53125 C 27.472656 11.273438 27.84375 10.96875 28.109375 10.726562 Z M 15.84375 11.53125 C 15.875 11.898438 15.96875 12.949219 16.449219 13.9375 C 16.027344 13.980469 15.597656 14.019531 15.164062 14.0625 C 15.183594 14.019531 15.183594 13.976562 15.164062 13.925781 C 14.835938 12.71875 14.820312 11.441406 14.835938 10.726562 C 15.117188 10.96875 15.472656 11.273438 15.84375 11.53125 Z M 33.410156 13.101562 C 33.644531 13.984375 34.046875 15.15625 34.667969 15.554688 C 34.292969 15.386719 33.890625 15.25 33.503906 15.128906 C 33.453125 15.109375 33.40625 15.09375 33.363281 15.082031 C 33.363281 15.070312 33.363281 15.066406 33.363281 15.066406 C 33.363281 15.066406 33.363281 15.0625 33.363281 15.050781 C 33.378906 15.007812 33.472656 14.257812 33.410156 13.101562 Z M 14.527344 13.542969 C 14.355469 13.207031 14.1875 12.75 14.0625 12.1875 C 13.859375 11.289062 12.820312 11.59375 12.171875 11.746094 C 11.503906 11.898438 10.652344 12.109375 10.511719 12.445312 C 10.25 13.101562 10.109375 14.808594 10.109375 14.808594 L 10.09375 14.824219 C 10.046875 14.394531 9.96875 13.207031 10.21875 11.640625 L 14.308594 10.496094 C 14.277344 11.089844 14.261719 12.308594 14.527344 13.542969 Z M 32.730469 11.640625 C 32.945312 13.070312 32.898438 14.199219 32.867188 14.6875 C 32.835938 14.304688 32.699219 12.996094 32.464844 12.445312 C 32.324219 12.109375 31.472656 11.898438 30.820312 11.746094 C 30.171875 11.59375 29.132812 11.289062 28.929688 12.1875 C 28.773438 12.828125 28.574219 13.34375 28.386719 13.695312 C 28.683594 12.402344 28.667969 11.121094 28.636719 10.496094 Z M 16.371094 3.992188 L 16.480469 3.6875 C 16.480469 3.6875 16.652344 12.582031 18.773438 12.582031 L 24.277344 12.582031 C 26.277344 12.582031 26.496094 4.691406 26.511719 3.761719 C 26.882812 5.117188 27.441406 7.84375 27.132812 10.800781 L 27.117188 10.863281 C 27.085938 10.882812 27.050781 10.90625 27.007812 10.9375 C 26.976562 10.96875 26.941406 10.992188 26.898438 11.015625 C 26.867188 11.046875 26.835938 11.070312 26.804688 11.089844 C 26.765625 11.121094 26.722656 11.148438 26.683594 11.167969 C 26.671875 11.175781 26.65625 11.191406 26.636719 11.210938 C 26.625 11.234375 26.613281 11.25 26.605469 11.257812 C 26.59375 11.277344 26.582031 11.296875 26.574219 11.320312 C 26.574219 11.339844 26.574219 11.359375 26.574219 11.378906 C 26.574219 11.394531 26.542969 12.722656 25.9375 13.847656 C 25.9375 13.867188 25.933594 13.890625 25.921875 13.910156 C 24.449219 13.800781 22.960938 13.773438 21.472656 13.757812 C 19.984375 13.773438 18.511719 13.800781 17.023438 13.910156 C 17.023438 13.890625 17.019531 13.867188 17.007812 13.847656 C 16.402344 12.722656 16.371094 11.394531 16.371094 11.378906 C 16.371094 11.304688 16.324219 11.210938 16.261719 11.167969 C 16.222656 11.148438 16.179688 11.121094 16.140625 11.089844 C 16.109375 11.070312 16.074219 11.046875 16.03125 11.015625 C 16 10.984375 15.964844 10.957031 15.921875 10.9375 C 15.890625 10.90625 15.855469 10.878906 15.8125 10.847656 C 15.519531 8.027344 16.015625 5.421875 16.371094 3.992188 Z M 9.441406 15.128906 C 9.054688 15.25 8.652344 15.386719 8.261719 15.554688 C 8.898438 15.15625 9.300781 13.984375 9.535156 13.101562 C 9.472656 14.257812 9.566406 15.007812 9.582031 15.050781 C 9.582031 15.0625 9.582031 15.070312 9.582031 15.082031 C 9.539062 15.09375 9.492188 15.109375 9.441406 15.128906 Z M 9.441406 15.128906 "/>
<path style=" stroke:none;fill-rule:nonzero;fill:rgb(62.352943%,56.078434%,47.058824%);fill-opacity:1;" d="M 35.101562 27.039062 C 35.089844 27.082031 35.082031 27.128906 35.070312 27.179688 C 35.058594 27.21875 35.050781 27.257812 35.039062 27.300781 C 35.027344 27.339844 35.019531 27.386719 35.007812 27.4375 C 34.996094 27.476562 34.988281 27.519531 34.976562 27.558594 C 35.425781 27.664062 36.171875 27.742188 36.527344 27.679688 C 36.683594 27.511719 36.882812 26.949219 37.054688 26.28125 C 36.636719 26.675781 35.875 27.222656 35.101562 27.042969 Z M 18.804688 37.964844 C 19.890625 38.253906 21.007812 38.390625 22.09375 38.3125 C 23.195312 38.238281 24.621094 38.007812 26.125 37.398438 C 26.042969 37.398438 25.957031 37.394531 25.875 37.386719 C 25.792969 37.375 25.710938 37.359375 25.628906 37.339844 C 25.546875 37.320312 25.460938 37.296875 25.378906 37.277344 C 25.308594 37.257812 25.230469 37.234375 25.148438 37.203125 C 24.03125 37.539062 21.921875 38.039062 20 37.703125 C 19.488281 37.871094 19.085938 37.933594 19.054688 37.933594 C 18.976562 37.933594 18.898438 37.949219 18.804688 37.964844 Z M 8.292969 28.109375 C 8.261719 28.027344 8.238281 27.945312 8.21875 27.863281 C 7.425781 28 6.652344 27.589844 6.140625 27.207031 C 6.308594 27.726562 6.464844 28.152344 6.605469 28.273438 C 6.992188 28.335938 7.859375 28.230469 8.292969 28.109375 Z M 9.457031 29.417969 C 9.984375 29.738281 10.699219 30.117188 11.070312 30.164062 C 11.707031 30.253906 17.300781 28.625 18.1875 28.351562 C 18.730469 28.183594 18.898438 27.894531 18.945312 27.679688 L 10.882812 29.449219 C 10.875 29.449219 10.867188 29.449219 10.867188 29.449219 C 10.859375 29.449219 10.851562 29.449219 10.851562 29.449219 C 10.84375 29.449219 10.835938 29.449219 10.835938 29.449219 C 10.828125 29.449219 10.820312 29.449219 10.820312 29.449219 C 10.757812 29.449219 10.707031 29.433594 10.667969 29.402344 L 10.339844 29.1875 L 9.394531 28.550781 L 9.394531 28.535156 L 9.023438 28.273438 C 9.035156 28.296875 9.039062 28.316406 9.039062 28.335938 C 9.058594 28.40625 9.085938 28.472656 9.117188 28.535156 C 9.132812 28.609375 9.253906 28.929688 9.457031 29.417969 Z M 34.21875 27.894531 C 34.269531 27.710938 34.320312 27.523438 34.371094 27.332031 L 34.09375 27.527344 L 33.332031 28.046875 L 32.511719 28.609375 C 32.46875 28.628906 32.421875 28.644531 32.371094 28.65625 C 32.363281 28.65625 32.355469 28.65625 32.355469 28.65625 C 32.347656 28.65625 32.339844 28.65625 32.339844 28.65625 C 32.339844 28.65625 32.335938 28.65625 32.324219 28.65625 L 24.203125 27.742188 L 24.1875 27.863281 C 24.308594 28 24.496094 28.121094 24.804688 28.199219 C 25.707031 28.425781 31.363281 29.828125 32 29.707031 C 32.480469 29.617188 33.519531 28.929688 33.96875 28.625 C 33.980469 28.605469 33.984375 28.589844 33.984375 28.578125 C 34.003906 28.527344 34.027344 28.472656 34.046875 28.414062 C 34.066406 28.363281 34.085938 28.304688 34.109375 28.246094 C 34.128906 28.183594 34.148438 28.128906 34.171875 28.078125 C 34.179688 28.015625 34.195312 27.957031 34.21875 27.894531 Z M 34.21875 27.894531 "/>
<path style=" stroke:none;fill-rule:evenodd;fill:rgb(43.137255%,41.568628%,40.392157%);fill-opacity:1;" d="M 25.628906 17.140625 C 25.554688 17.21875 25.484375 17.304688 25.410156 17.398438 C 25.023438 17.886719 24.496094 18.496094 23.859375 19.089844 C 23.664062 19.089844 23.472656 19.082031 23.285156 19.074219 C 23.101562 19.074219 22.910156 19.074219 22.714844 19.074219 C 22.527344 19.0625 22.339844 19.058594 22.15625 19.058594 C 21.957031 19.058594 21.765625 19.058594 21.582031 19.058594 C 20.292969 19.058594 19.054688 19.089844 17.890625 19.148438 C 19.550781 18.464844 21.535156 17.808594 23.691406 17.414062 C 23.855469 17.382812 24.015625 17.355469 24.171875 17.335938 C 24.335938 17.304688 24.496094 17.28125 24.652344 17.261719 C 24.816406 17.230469 24.976562 17.203125 25.132812 17.183594 C 25.296875 17.175781 25.460938 17.160156 25.628906 17.140625 Z M 15.921875 17.871094 C 15.332031 18.28125 14.667969 18.800781 14.015625 19.421875 C 13.652344 19.464844 13.292969 19.503906 12.929688 19.546875 C 12.570312 19.585938 12.210938 19.625 11.859375 19.667969 C 11.5 19.71875 11.136719 19.769531 10.773438 19.820312 C 10.421875 19.871094 10.066406 19.925781 9.707031 19.988281 C 11.550781 19.148438 13.644531 18.386719 15.921875 17.871094 Z M 36.1875 21.238281 L 35.519531 25.867188 L 32.277344 28.109375 L 23.84375 27.164062 L 22.589844 23.050781 C 22.578125 23.03125 22.570312 23.003906 22.558594 22.972656 C 22.539062 22.953125 22.515625 22.9375 22.496094 22.929688 C 22.476562 22.90625 22.453125 22.890625 22.433594 22.882812 C 22.414062 22.871094 22.386719 22.867188 22.355469 22.867188 C 22.046875 22.816406 21.777344 22.789062 21.550781 22.789062 C 21.3125 22.789062 21.039062 22.816406 20.730469 22.867188 C 20.699219 22.867188 20.671875 22.871094 20.652344 22.882812 C 20.628906 22.890625 20.609375 22.90625 20.589844 22.929688 C 20.570312 22.9375 20.546875 22.957031 20.527344 22.988281 C 20.515625 23.007812 20.507812 23.03125 20.496094 23.050781 L 19.253906 27.054688 L 10.882812 28.882812 L 7.550781 26.597656 L 6.898438 21.40625 C 6.941406 21.382812 6.976562 21.363281 7.007812 21.34375 C 7.050781 21.324219 7.085938 21.304688 7.117188 21.28125 C 7.15625 21.261719 7.195312 21.242188 7.226562 21.222656 C 7.265625 21.203125 7.300781 21.179688 7.332031 21.160156 C 7.539062 21.121094 7.773438 21.074219 8.03125 21.023438 L 8.652344 25.929688 C 8.652344 26.003906 8.699219 26.082031 8.757812 26.125 L 11.054688 27.695312 C 11.101562 27.726562 11.148438 27.742188 11.210938 27.742188 C 11.230469 27.742188 11.25 27.742188 11.269531 27.742188 L 18.15625 26.234375 C 18.164062 26.234375 18.175781 26.234375 18.1875 26.234375 C 18.1875 26.234375 18.191406 26.226562 18.203125 26.21875 C 18.203125 26.21875 18.207031 26.21875 18.21875 26.21875 C 18.21875 26.21875 18.222656 26.214844 18.234375 26.203125 C 18.292969 26.171875 18.339844 26.113281 18.371094 26.050781 L 19.613281 22.027344 C 19.9375 21.953125 20.789062 21.753906 21.550781 21.753906 C 22.292969 21.753906 23.148438 21.953125 23.472656 22.027344 L 24.714844 26.050781 C 24.746094 26.15625 24.835938 26.234375 24.945312 26.234375 L 31.84375 27.011719 C 31.90625 27.011719 31.984375 26.996094 32.03125 26.964844 L 34.324219 25.394531 C 34.386719 25.351562 34.433594 25.273438 34.433594 25.199219 L 35.054688 21.007812 C 35.503906 21.085938 35.890625 21.175781 36.1875 21.238281 Z M 37.039062 18.328125 L 36.449219 20.535156 C 35.242188 20.277344 32.574219 19.757812 28.945312 19.410156 C 30.125 18.90625 31.332031 18.296875 32.433594 17.503906 C 34.605469 17.808594 36.1875 18.128906 37.039062 18.328125 Z M 7.535156 18.039062 C 7.421875 18.109375 7.3125 18.179688 7.210938 18.25 C 7.105469 18.320312 7.003906 18.398438 6.898438 18.480469 C 6.796875 18.550781 6.691406 18.625 6.589844 18.707031 C 6.484375 18.777344 6.382812 18.855469 6.277344 18.9375 L 6.125 18.328125 C 6.464844 18.25 6.945312 18.144531 7.535156 18.039062 Z M 7.535156 18.039062 "/>
<path style=" stroke:none;fill-rule:nonzero;fill:rgb(57.647061%,13.725491%,17.254902%);fill-opacity:1;" d="M 29.410156 17.09375 C 28.5 17.042969 27.589844 16.996094 26.683594 16.957031 C 26.652344 16.996094 26.625 17.03125 26.605469 17.0625 C 26.574219 17.101562 26.546875 17.144531 26.527344 17.183594 C 26.496094 17.214844 26.46875 17.25 26.449219 17.289062 C 26.417969 17.320312 26.386719 17.355469 26.355469 17.398438 C 25.875 18.039062 24.914062 19.226562 23.691406 20.230469 C 24.605469 19.941406 28.277344 18.738281 30.140625 17.140625 C 30.085938 17.128906 30.03125 17.125 29.96875 17.125 C 29.90625 17.125 29.84375 17.117188 29.78125 17.109375 C 29.722656 17.109375 29.660156 17.109375 29.597656 17.109375 C 29.535156 17.097656 29.472656 17.09375 29.410156 17.09375 Z M 22.746094 16.847656 C 22.289062 16.847656 21.828125 16.84375 21.363281 16.835938 C 20.691406 16.84375 20.015625 16.855469 19.332031 16.863281 L 18.078125 17.445312 C 18.078125 17.445312 18.074219 17.449219 18.0625 17.457031 C 17.875 17.550781 16.234375 18.359375 14.699219 19.804688 C 14.832031 19.734375 14.972656 19.664062 15.117188 19.589844 C 15.96875 19.042969 18.21875 17.71875 21.722656 16.847656 C 22.0625 16.847656 22.402344 16.847656 22.746094 16.847656 Z M 15.070312 17 C 14.492188 17.03125 13.914062 17.0625 13.332031 17.09375 C 12.660156 17.125 11.988281 17.164062 11.316406 17.214844 C 10.988281 17.246094 10.65625 17.277344 10.324219 17.304688 C 10.234375 17.316406 10.140625 17.328125 10.046875 17.335938 C 9.164062 17.855469 5.828125 19.910156 3.535156 22.609375 C 3.578125 22.566406 3.617188 22.523438 3.660156 22.46875 C 7.90625 18.90625 12.558594 17.519531 15.070312 17 Z M 34.277344 31.65625 L 34.203125 31.6875 C 33.78125 31.914062 33.226562 32.023438 32.496094 32.023438 C 32.078125 32.023438 31.660156 31.976562 31.179688 31.945312 C 30.25 31.855469 28.683594 31.671875 28.667969 31.671875 L 28.542969 31.65625 L 28.449219 31.582031 C 28.433594 31.582031 27.054688 30.484375 25.921875 29.628906 C 25.882812 29.589844 25.839844 29.554688 25.796875 29.523438 C 25.691406 29.433594 25.691406 29.433594 25.613281 29.433594 C 25.253906 29.433594 24.21875 29.753906 21.9375 30.4375 L 21.796875 30.484375 L 21.660156 30.4375 C 21.644531 30.421875 20.140625 29.890625 18.355469 29.890625 C 18.203125 29.890625 18.058594 29.890625 17.921875 29.890625 C 17.738281 29.90625 16.730469 30.378906 15.441406 32.375 L 15.347656 32.511719 L 15.210938 32.554688 C 15.179688 32.554688 12.960938 33.273438 10.605469 33.925781 L 10.464844 33.972656 L 10.308594 33.910156 C 10.292969 33.898438 9.378906 33.484375 8.496094 33.089844 C 8.570312 33.121094 8.636719 33.144531 8.699219 33.164062 C 9.566406 33.910156 11.226562 35.3125 11.394531 35.511719 C 11.425781 35.542969 11.460938 35.578125 11.503906 35.617188 C 11.492188 35.609375 11.484375 35.59375 11.472656 35.570312 C 11.460938 35.5625 11.453125 35.550781 11.441406 35.542969 C 11.429688 35.53125 11.421875 35.523438 11.410156 35.511719 C 11.402344 35.492188 11.390625 35.476562 11.378906 35.464844 C 11.765625 35.816406 12.1875 36.136719 12.652344 36.347656 C 12.882812 36.457031 13.132812 36.53125 13.378906 36.578125 C 13.503906 36.597656 13.628906 36.609375 13.75 36.609375 C 13.875 36.609375 14.003906 36.601562 14.140625 36.59375 C 14.65625 36.574219 15.171875 36.539062 15.691406 36.488281 C 16.21875 36.4375 16.738281 36.378906 17.253906 36.320312 C 17.773438 36.269531 18.289062 36.203125 18.804688 36.121094 C 19.066406 36.089844 19.324219 36.050781 19.582031 36 C 19.707031 35.96875 19.828125 35.9375 19.921875 35.890625 C 20.015625 35.847656 20.125 35.769531 20.21875 35.679688 C 20.402344 35.527344 20.589844 35.34375 20.773438 35.160156 C 20.828125 35.109375 20.875 35.0625 20.914062 35.023438 C 20.964844 34.972656 21.011719 34.925781 21.054688 34.886719 C 21.105469 34.835938 21.152344 34.785156 21.195312 34.734375 C 21.234375 34.695312 21.28125 34.648438 21.332031 34.597656 C 21.628906 34.292969 21.890625 33.957031 22.1875 33.636719 C 22.226562 33.585938 22.269531 33.539062 22.308594 33.5 L 22.308594 33.515625 C 22.371094 33.554688 22.433594 33.597656 22.496094 33.636719 C 22.851562 33.910156 23.210938 34.1875 23.566406 34.429688 C 24.03125 34.75 24.480469 35.054688 24.960938 35.328125 C 25.085938 35.390625 25.210938 35.449219 25.316406 35.480469 C 25.339844 35.492188 25.355469 35.496094 25.363281 35.496094 C 25.378906 35.496094 25.410156 35.511719 25.410156 35.511719 C 25.429688 35.511719 25.457031 35.511719 25.488281 35.511719 C 25.550781 35.511719 25.617188 35.511719 25.691406 35.511719 C 25.953125 35.496094 26.234375 35.449219 26.511719 35.40625 C 27.058594 35.324219 27.601562 35.226562 28.140625 35.113281 C 28.6875 35.011719 29.234375 34.90625 29.78125 34.796875 C 29.917969 34.765625 30.050781 34.734375 30.1875 34.703125 C 30.320312 34.671875 30.453125 34.644531 30.589844 34.613281 C 30.722656 34.582031 30.859375 34.550781 30.992188 34.519531 C 31.125 34.492188 31.261719 34.453125 31.394531 34.414062 C 31.675781 34.351562 31.9375 34.277344 32.171875 34.171875 C 32.417969 34.0625 32.652344 33.910156 32.851562 33.730469 C 33.269531 33.378906 33.628906 32.9375 33.921875 32.464844 C 33.953125 32.402344 33.984375 32.335938 34.015625 32.265625 C 34.058594 32.207031 34.09375 32.140625 34.125 32.066406 C 34.15625 31.996094 34.179688 31.925781 34.203125 31.855469 C 34.234375 31.792969 34.257812 31.726562 34.277344 31.65625 Z M 24.09375 6.414062 L 25.054688 6.414062 L 25.054688 4.507812 L 18.03125 4.507812 L 18.03125 6.414062 L 18.992188 6.414062 L 18.992188 5.453125 L 20.976562 5.453125 L 20.976562 11.363281 L 20.171875 11.363281 L 20.171875 12.460938 L 22.929688 12.460938 L 22.929688 11.363281 L 22.109375 11.363281 L 22.109375 5.453125 L 24.09375 5.453125 Z M 24.09375 6.414062 "/>
<path style=" stroke:none;fill-rule:nonzero;fill:rgb(45.09804%,10.588235%,16.470589%);fill-opacity:1;" d="M 31.363281 17.214844 C 31.261719 17.203125 31.164062 17.199219 31.070312 17.199219 C 30.964844 17.1875 30.863281 17.179688 30.757812 17.167969 C 30.667969 17.167969 30.570312 17.164062 30.464844 17.152344 C 30.371094 17.144531 30.273438 17.140625 30.171875 17.140625 L 30.140625 17.140625 C 28.277344 18.738281 24.605469 19.941406 23.691406 20.230469 C 23.667969 20.25 23.648438 20.265625 23.628906 20.277344 C 24.820312 20.078125 26.605469 19.652344 28.449219 18.84375 C 29.363281 18.449219 30.292969 17.960938 31.164062 17.367188 C 31.234375 17.316406 31.300781 17.265625 31.363281 17.214844 Z M 21.722656 16.847656 C 18.21875 17.71875 15.96875 19.042969 15.117188 19.589844 C 15.3125 19.5 15.507812 19.402344 15.707031 19.300781 C 15.902344 19.210938 16.097656 19.117188 16.292969 19.027344 C 16.492188 18.9375 16.691406 18.851562 16.898438 18.769531 C 17.09375 18.675781 17.296875 18.589844 17.503906 18.507812 C 17.523438 18.5 17.546875 18.488281 17.566406 18.480469 C 17.597656 18.46875 17.621094 18.457031 17.644531 18.449219 C 17.664062 18.4375 17.691406 18.429688 17.722656 18.417969 C 17.742188 18.40625 17.765625 18.398438 17.796875 18.386719 C 17.828125 18.378906 17.855469 18.367188 17.875 18.355469 C 17.957031 18.328125 18.042969 18.292969 18.125 18.25 C 18.175781 18.242188 18.222656 18.226562 18.261719 18.203125 C 18.335938 18.175781 18.414062 18.144531 18.496094 18.113281 C 18.546875 18.09375 18.605469 18.074219 18.667969 18.050781 C 18.730469 18.03125 18.796875 18.007812 18.867188 17.976562 C 18.929688 17.957031 18.996094 17.9375 19.070312 17.914062 C 19.132812 17.886719 19.195312 17.859375 19.253906 17.839844 C 19.339844 17.820312 19.417969 17.792969 19.488281 17.761719 C 19.550781 17.742188 19.605469 17.722656 19.660156 17.703125 C 19.75 17.671875 19.84375 17.640625 19.9375 17.609375 C 19.980469 17.601562 20.027344 17.585938 20.078125 17.566406 C 20.222656 17.523438 20.367188 17.484375 20.511719 17.441406 C 20.820312 17.339844 21.136719 17.25 21.457031 17.167969 C 21.5625 17.136719 21.667969 17.109375 21.78125 17.078125 C 21.886719 17.058594 21.988281 17.03125 22.09375 17 C 22.207031 16.980469 22.316406 16.957031 22.417969 16.925781 C 22.53125 16.90625 22.640625 16.878906 22.746094 16.847656 C 22.402344 16.847656 22.0625 16.847656 21.722656 16.847656 Z M 15.070312 17 C 12.558594 17.519531 7.90625 18.90625 3.660156 22.46875 C 3.617188 22.511719 3.578125 22.558594 3.535156 22.609375 C 5.691406 21.128906 9.410156 18.9375 14 17.609375 C 14.144531 17.558594 14.289062 17.515625 14.433594 17.472656 C 14.628906 17.421875 14.828125 17.371094 15.023438 17.320312 C 15.21875 17.269531 15.417969 17.226562 15.613281 17.183594 C 15.808594 17.132812 16.003906 17.085938 16.203125 17.046875 C 16.398438 17.007812 16.59375 16.972656 16.789062 16.941406 C 16.210938 16.960938 15.636719 16.980469 15.070312 17 Z M 35.117188 31.261719 C 35.105469 31.261719 35.09375 31.265625 35.085938 31.277344 C 35.074219 31.277344 35.066406 31.28125 35.054688 31.292969 C 35.035156 31.292969 35.019531 31.296875 35.007812 31.304688 C 34.996094 31.304688 34.988281 31.3125 34.976562 31.320312 C 34.957031 31.332031 34.933594 31.34375 34.914062 31.351562 L 34.851562 31.382812 L 34.757812 31.414062 C 34.75 31.421875 34.738281 31.429688 34.730469 31.429688 C 34.699219 31.449219 34.667969 31.464844 34.636719 31.472656 L 34.605469 31.488281 C 34.574219 31.507812 34.542969 31.523438 34.511719 31.535156 L 34.496094 31.550781 C 34.421875 31.582031 34.351562 31.617188 34.277344 31.65625 C 34.257812 31.726562 34.234375 31.792969 34.203125 31.855469 C 34.179688 31.925781 34.15625 31.996094 34.125 32.066406 C 34.09375 32.140625 34.058594 32.207031 34.015625 32.265625 C 33.984375 32.335938 33.953125 32.402344 33.921875 32.464844 C 33.628906 32.953125 33.269531 33.378906 32.851562 33.730469 C 32.636719 33.910156 32.417969 34.0625 32.171875 34.171875 C 31.9375 34.277344 31.675781 34.351562 31.394531 34.414062 C 30.859375 34.546875 30.320312 34.671875 29.78125 34.796875 C 29.636719 34.824219 29.5 34.851562 29.363281 34.871094 C 29.230469 34.902344 29.09375 34.933594 28.960938 34.960938 C 28.828125 34.992188 28.691406 35.019531 28.558594 35.039062 C 28.414062 35.070312 28.273438 35.09375 28.140625 35.113281 C 27.601562 35.226562 27.058594 35.324219 26.511719 35.40625 C 26.234375 35.449219 25.953125 35.496094 25.691406 35.511719 C 25.667969 35.511719 25.652344 35.511719 25.644531 35.511719 C 25.621094 35.511719 25.605469 35.511719 25.597656 35.511719 C 25.578125 35.511719 25.554688 35.511719 25.535156 35.511719 C 25.523438 35.511719 25.507812 35.511719 25.488281 35.511719 C 25.488281 35.511719 25.484375 35.511719 25.472656 35.511719 C 25.460938 35.511719 25.453125 35.511719 25.441406 35.511719 C 25.441406 35.511719 25.4375 35.511719 25.425781 35.511719 C 25.417969 35.511719 25.410156 35.511719 25.410156 35.511719 C 25.402344 35.511719 25.394531 35.511719 25.394531 35.511719 C 25.394531 35.5 25.390625 35.496094 25.378906 35.496094 C 25.371094 35.496094 25.363281 35.496094 25.363281 35.496094 C 25.363281 35.496094 25.359375 35.496094 25.347656 35.496094 C 25.339844 35.496094 25.332031 35.496094 25.332031 35.496094 C 25.332031 35.484375 25.328125 35.480469 25.316406 35.480469 C 25.210938 35.449219 25.085938 35.390625 24.960938 35.328125 C 24.480469 35.054688 24.03125 34.75 23.566406 34.429688 C 23.210938 34.1875 22.851562 33.894531 22.496094 33.636719 L 22.464844 33.683594 C 22.484375 33.703125 22.507812 33.722656 22.527344 33.742188 C 22.515625 33.734375 22.5 33.722656 22.480469 33.714844 L 22.773438 34.0625 C 22.773438 34.0625 22.785156 34.074219 22.804688 34.09375 C 22.960938 34.277344 23.597656 34.992188 24.355469 35.738281 C 24.929688 36.289062 25.628906 36.578125 26.417969 36.578125 C 26.683594 36.578125 26.976562 36.546875 27.253906 36.472656 C 27.535156 36.410156 27.8125 36.347656 28.125 36.273438 C 28.992188 36.058594 29.96875 35.832031 30.621094 35.664062 C 30.660156 35.652344 30.703125 35.644531 30.746094 35.632812 C 30.835938 35.613281 30.917969 35.59375 30.992188 35.574219 C 31.023438 35.5625 31.054688 35.550781 31.085938 35.542969 C 31.125 35.542969 31.164062 35.535156 31.195312 35.527344 C 31.226562 35.515625 31.253906 35.507812 31.285156 35.496094 C 31.316406 35.496094 31.347656 35.492188 31.378906 35.480469 C 32.171875 35.296875 33.242188 35.054688 33.8125 33.925781 C 33.855469 33.847656 33.898438 33.765625 33.9375 33.683594 C 33.980469 33.601562 34.019531 33.519531 34.0625 33.441406 C 34.113281 33.347656 34.160156 33.261719 34.203125 33.179688 C 34.242188 33.097656 34.285156 33.019531 34.324219 32.9375 C 34.398438 32.792969 34.46875 32.65625 34.542969 32.527344 C 34.613281 32.394531 34.6875 32.257812 34.757812 32.113281 C 34.832031 31.980469 34.90625 31.84375 34.976562 31.703125 C 35.050781 31.570312 35.121094 31.4375 35.195312 31.308594 L 35.242188 31.199219 Z M 22.25 33.683594 L 22.203125 33.621094 C 21.90625 33.957031 21.644531 34.292969 21.332031 34.597656 C 21.292969 34.648438 21.25 34.695312 21.210938 34.734375 C 21.15625 34.785156 21.109375 34.835938 21.070312 34.886719 C 21.019531 34.925781 20.972656 34.972656 20.929688 35.023438 C 20.890625 35.0625 20.84375 35.109375 20.789062 35.160156 C 20.605469 35.34375 20.417969 35.527344 20.234375 35.679688 C 20.125 35.753906 20.015625 35.847656 19.9375 35.890625 C 19.828125 35.9375 19.707031 35.96875 19.582031 35.984375 C 19.332031 36.042969 19.085938 36.089844 18.820312 36.121094 C 18.304688 36.203125 17.789062 36.269531 17.269531 36.320312 C 16.746094 36.378906 16.222656 36.4375 15.707031 36.488281 C 15.1875 36.539062 14.667969 36.574219 14.140625 36.59375 C 14.015625 36.601562 13.886719 36.609375 13.75 36.609375 C 13.628906 36.609375 13.503906 36.597656 13.378906 36.578125 C 13.132812 36.53125 12.898438 36.457031 12.667969 36.347656 C 12.203125 36.136719 11.765625 35.816406 11.394531 35.464844 C 11.445312 35.527344 11.5 35.585938 11.550781 35.648438 C 11.539062 35.636719 11.53125 35.628906 11.519531 35.617188 C 11.476562 35.578125 11.441406 35.542969 11.410156 35.511719 C 11.226562 35.3125 9.566406 33.910156 8.714844 33.164062 C 8.640625 33.144531 8.574219 33.121094 8.511719 33.089844 C 8.554688 33.148438 8.59375 33.207031 8.636719 33.257812 C 8.675781 33.316406 8.71875 33.378906 8.757812 33.4375 C 8.800781 33.5 8.84375 33.5625 8.882812 33.621094 C 8.925781 33.683594 8.964844 33.738281 9.007812 33.789062 C 9.070312 33.882812 9.132812 33.972656 9.195312 34.0625 C 9.265625 34.15625 9.332031 34.246094 9.394531 34.339844 C 9.457031 34.429688 9.523438 34.515625 9.597656 34.597656 C 9.660156 34.6875 9.722656 34.78125 9.78125 34.871094 C 9.8125 34.914062 9.84375 34.949219 9.875 34.976562 C 9.90625 35.019531 9.9375 35.058594 9.96875 35.101562 C 9.988281 35.128906 10.015625 35.164062 10.046875 35.207031 C 10.078125 35.246094 10.109375 35.28125 10.140625 35.3125 C 11.070312 36.515625 12.261719 37.613281 14.527344 37.613281 C 14.820312 37.613281 15.117188 37.597656 15.425781 37.550781 C 15.5 37.542969 15.570312 37.539062 15.644531 37.539062 C 15.707031 37.527344 15.765625 37.515625 15.828125 37.507812 C 17.8125 37.292969 18.355469 37.1875 18.652344 37.140625 C 18.730469 37.125 18.789062 37.109375 18.867188 37.109375 C 18.898438 37.101562 18.929688 37.09375 18.960938 37.09375 C 18.960938 37.09375 19.628906 37.003906 20.292969 36.699219 C 20.746094 36.484375 21.179688 36.167969 21.394531 35.679688 C 21.9375 34.476562 22.0625 34.1875 22.0625 34.1875 Z M 22.25 33.683594 "/>
<path style=" stroke:none;fill-rule:evenodd;fill:rgb(5.490196%,5.882353%,5.098039%);fill-opacity:1;" d="M 30.277344 24.710938 C 29.707031 24.4375 29.070312 24.769531 27.921875 24.800781 C 27.070312 24.832031 26.339844 24.832031 26.292969 23.523438 C 26.25 22.195312 26.804688 21.097656 27.660156 21.070312 C 28.511719 21.039062 29.285156 22.089844 29.394531 23.414062 C 29.425781 23.765625 29.394531 24.039062 29.300781 24.238281 C 30.09375 24.148438 30.277344 24.679688 30.277344 24.710938 Z M 27.597656 22.761719 C 27.648438 22.761719 27.699219 22.75 27.75 22.730469 C 27.804688 22.710938 27.851562 22.679688 27.890625 22.636719 C 27.933594 22.597656 27.964844 22.550781 27.984375 22.5 C 28.003906 22.441406 28.015625 22.382812 28.015625 22.332031 C 28.015625 22.273438 28.003906 22.21875 27.984375 22.164062 C 27.964844 22.117188 27.933594 22.070312 27.890625 22.027344 C 27.851562 21.988281 27.796875 21.957031 27.738281 21.9375 C 27.683594 21.917969 27.632812 21.90625 27.582031 21.90625 C 27.519531 21.90625 27.460938 21.917969 27.410156 21.9375 C 27.359375 21.96875 27.3125 22.003906 27.269531 22.042969 C 27.230469 22.085938 27.199219 22.128906 27.179688 22.179688 C 27.15625 22.230469 27.148438 22.289062 27.148438 22.347656 C 27.148438 22.398438 27.15625 22.457031 27.179688 22.515625 C 27.199219 22.566406 27.234375 22.613281 27.285156 22.652344 C 27.328125 22.683594 27.375 22.714844 27.425781 22.746094 C 27.476562 22.765625 27.535156 22.769531 27.597656 22.761719 Z M 16.652344 23.78125 C 16.667969 25.105469 15.953125 25.015625 15.085938 25.03125 C 15.003906 25.03125 14.917969 25.03125 14.835938 25.03125 C 14.746094 25.03125 14.652344 25.03125 14.558594 25.03125 C 13.738281 25.03125 13.210938 25 12.730469 25.242188 C 12.746094 25.210938 12.945312 24.769531 13.691406 24.574219 C 13.613281 24.40625 13.566406 24.144531 13.550781 23.8125 C 13.503906 22.484375 14.324219 21.402344 15.179688 21.390625 C 16.03125 21.390625 16.636719 22.457031 16.652344 23.78125 Z M 15.332031 23.078125 C 15.386719 23.078125 15.4375 23.070312 15.488281 23.050781 C 15.539062 23.03125 15.585938 23 15.628906 22.957031 C 15.667969 22.917969 15.699219 22.867188 15.722656 22.804688 C 15.742188 22.753906 15.75 22.703125 15.75 22.652344 C 15.75 22.59375 15.742188 22.535156 15.722656 22.484375 C 15.691406 22.433594 15.652344 22.390625 15.613281 22.347656 C 15.570312 22.308594 15.523438 22.277344 15.472656 22.257812 C 15.421875 22.238281 15.363281 22.226562 15.300781 22.226562 C 15.195312 22.226562 15.070312 22.273438 14.992188 22.363281 C 14.914062 22.441406 14.867188 22.5625 14.882812 22.667969 C 14.882812 22.773438 14.929688 22.898438 15.007812 22.972656 C 15.101562 23.050781 15.210938 23.09375 15.332031 23.078125 Z M 35.101562 15.78125 C 34.835938 15.675781 34.558594 15.601562 34.277344 15.523438 C 34.207031 15.511719 34.140625 15.5 34.078125 15.476562 C 34.003906 15.46875 33.933594 15.453125 33.859375 15.433594 C 33.796875 15.421875 33.730469 15.40625 33.660156 15.386719 C 33.585938 15.375 33.515625 15.367188 33.441406 15.355469 C 32.882812 15.246094 32.320312 15.15625 31.75 15.097656 C 31.183594 15.015625 30.613281 14.953125 30.046875 14.914062 C 29.472656 14.867188 28.898438 14.808594 28.339844 14.777344 C 26.046875 14.640625 23.765625 14.609375 21.472656 14.609375 C 19.179688 14.609375 16.898438 14.65625 14.605469 14.777344 C 14.046875 14.808594 13.472656 14.867188 12.898438 14.914062 C 12.332031 14.953125 11.761719 15.015625 11.195312 15.097656 C 10.625 15.15625 10.0625 15.246094 9.503906 15.355469 C 9.429688 15.367188 9.359375 15.375 9.285156 15.386719 C 9.214844 15.40625 9.148438 15.421875 9.085938 15.433594 C 9.011719 15.453125 8.941406 15.46875 8.867188 15.476562 C 8.796875 15.5 8.730469 15.511719 8.667969 15.523438 C 8.386719 15.601562 8.109375 15.675781 7.84375 15.78125 C 7.855469 15.773438 7.871094 15.761719 7.890625 15.753906 L 7.984375 15.707031 C 8.035156 15.675781 8.09375 15.644531 8.15625 15.613281 L 8.171875 15.613281 C 8.171875 15.613281 8.175781 15.609375 8.1875 15.601562 C 8.195312 15.601562 8.207031 15.59375 8.21875 15.585938 C 8.226562 15.585938 8.238281 15.578125 8.25 15.570312 C 8.257812 15.570312 8.261719 15.5625 8.261719 15.554688 C 8.652344 15.386719 9.054688 15.25 9.441406 15.128906 C 9.492188 15.109375 9.539062 15.09375 9.582031 15.082031 C 9.582031 15.070312 9.582031 15.0625 9.582031 15.050781 C 9.566406 15.007812 9.472656 14.257812 9.535156 13.101562 C 9.535156 12.960938 9.539062 12.816406 9.550781 12.675781 C 9.570312 12.53125 9.585938 12.390625 9.597656 12.25 C 9.617188 12.105469 9.636719 11.964844 9.660156 11.820312 C 9.667969 11.679688 9.691406 11.539062 9.722656 11.394531 C 9.722656 11.363281 9.726562 11.339844 9.738281 11.320312 C 9.746094 11.296875 9.761719 11.277344 9.78125 11.257812 C 9.804688 11.238281 9.824219 11.222656 9.84375 11.210938 C 9.867188 11.203125 9.886719 11.191406 9.90625 11.183594 L 10.496094 11.015625 C 10.621094 6.582031 12.480469 4.496094 12.527344 4.433594 C 10.867188 7.070312 10.882812 10.175781 10.914062 10.90625 L 14.527344 9.886719 C 14.539062 9.886719 14.542969 9.886719 14.542969 9.886719 C 14.554688 9.886719 14.570312 9.886719 14.589844 9.886719 C 14.589844 9.886719 14.59375 9.886719 14.605469 9.886719 C 14.605469 9.886719 14.609375 9.886719 14.621094 9.886719 C 14.621094 9.886719 14.625 9.886719 14.636719 9.886719 C 14.636719 9.886719 14.640625 9.886719 14.652344 9.886719 C 14.652344 9.886719 14.65625 9.886719 14.667969 9.886719 C 14.675781 9.886719 14.683594 9.886719 14.683594 9.886719 C 14.683594 9.886719 14.6875 9.890625 14.699219 9.902344 C 14.707031 9.902344 14.714844 9.902344 14.714844 9.902344 C 14.722656 9.902344 14.730469 9.90625 14.730469 9.917969 C 14.738281 9.917969 14.746094 9.917969 14.746094 9.917969 C 14.753906 9.925781 14.757812 9.933594 14.757812 9.933594 C 14.757812 9.933594 14.765625 9.933594 14.773438 9.933594 C 14.773438 9.933594 14.773438 9.9375 14.773438 9.949219 L 14.789062 9.949219 C 14.789062 9.949219 14.789062 9.953125 14.789062 9.964844 C 14.789062 9.964844 14.898438 10.054688 15.054688 10.191406 C 15.007812 9.019531 15.070312 5.667969 16.699219 2.878906 C 16.683594 2.910156 16.542969 3.320312 16.371094 3.992188 C 16.015625 5.421875 15.519531 8.027344 15.8125 10.847656 C 15.84375 10.878906 15.882812 10.90625 15.921875 10.9375 C 15.964844 10.957031 16 10.984375 16.03125 11.015625 C 16.074219 11.042969 16.109375 11.070312 16.140625 11.089844 C 16.179688 11.121094 16.222656 11.144531 16.261719 11.167969 C 16.273438 11.1875 16.289062 11.203125 16.308594 11.210938 C 16.320312 11.234375 16.332031 11.246094 16.339844 11.257812 C 16.351562 11.277344 16.363281 11.296875 16.371094 11.320312 C 16.371094 11.339844 16.371094 11.359375 16.371094 11.378906 C 16.371094 11.394531 16.402344 12.71875 17.007812 13.847656 C 17.007812 13.867188 17.011719 13.886719 17.023438 13.910156 C 18.511719 13.800781 19.984375 13.773438 21.472656 13.773438 C 22.960938 13.773438 24.433594 13.800781 25.921875 13.910156 C 25.921875 13.886719 25.925781 13.867188 25.9375 13.847656 C 26.542969 12.71875 26.574219 11.394531 26.574219 11.378906 C 26.574219 11.359375 26.574219 11.339844 26.574219 11.320312 C 26.582031 11.296875 26.59375 11.277344 26.605469 11.257812 C 26.613281 11.246094 26.625 11.234375 26.636719 11.210938 C 26.65625 11.203125 26.671875 11.1875 26.683594 11.167969 C 26.722656 11.144531 26.757812 11.121094 26.789062 11.089844 C 26.832031 11.070312 26.867188 11.042969 26.898438 11.015625 C 26.941406 10.992188 26.976562 10.96875 27.007812 10.9375 C 27.050781 10.90625 27.085938 10.882812 27.117188 10.863281 C 27.125 10.851562 27.132812 10.847656 27.132812 10.847656 C 27.132812 10.835938 27.132812 10.820312 27.132812 10.800781 C 27.441406 7.84375 26.882812 5.117188 26.511719 3.761719 C 26.371094 3.230469 26.261719 2.910156 26.25 2.878906 C 27.378906 4.796875 27.75 6.992188 27.859375 8.546875 L 27.875 8.730469 C 27.90625 9.355469 27.90625 9.855469 27.90625 10.191406 C 28.046875 10.054688 28.15625 9.964844 28.15625 9.964844 C 28.15625 9.953125 28.15625 9.949219 28.15625 9.949219 C 28.164062 9.949219 28.171875 9.949219 28.171875 9.949219 C 28.171875 9.9375 28.171875 9.933594 28.171875 9.933594 C 28.191406 9.921875 28.207031 9.917969 28.21875 9.917969 C 28.21875 9.917969 28.222656 9.914062 28.234375 9.902344 C 28.234375 9.902344 28.238281 9.902344 28.25 9.902344 C 28.257812 9.890625 28.261719 9.886719 28.261719 9.886719 C 28.261719 9.886719 28.269531 9.886719 28.277344 9.886719 C 28.289062 9.886719 28.292969 9.886719 28.292969 9.886719 C 28.304688 9.886719 28.308594 9.886719 28.308594 9.886719 C 28.320312 9.886719 28.324219 9.886719 28.324219 9.886719 C 28.335938 9.886719 28.339844 9.886719 28.339844 9.886719 C 28.351562 9.886719 28.355469 9.886719 28.355469 9.886719 C 28.355469 9.886719 28.363281 9.886719 28.371094 9.886719 C 28.371094 9.886719 28.378906 9.886719 28.386719 9.886719 C 28.398438 9.886719 28.402344 9.886719 28.402344 9.886719 C 28.402344 9.886719 28.410156 9.886719 28.417969 9.886719 L 32.03125 10.90625 C 32.0625 10.175781 32.078125 7.070312 30.417969 4.433594 C 30.464844 4.496094 32.324219 6.582031 32.449219 11.015625 L 33.039062 11.183594 C 33.058594 11.191406 33.082031 11.203125 33.101562 11.210938 C 33.121094 11.222656 33.140625 11.238281 33.164062 11.257812 C 33.183594 11.277344 33.199219 11.296875 33.210938 11.320312 C 33.21875 11.339844 33.226562 11.363281 33.226562 11.394531 C 33.332031 12.019531 33.394531 12.597656 33.410156 13.101562 C 33.472656 14.257812 33.378906 15.007812 33.363281 15.050781 C 33.363281 15.0625 33.363281 15.066406 33.363281 15.066406 C 33.363281 15.066406 33.363281 15.070312 33.363281 15.082031 C 33.40625 15.09375 33.453125 15.109375 33.503906 15.128906 C 33.890625 15.25 34.292969 15.386719 34.667969 15.554688 C 34.675781 15.5625 34.6875 15.570312 34.699219 15.570312 C 34.707031 15.578125 34.71875 15.585938 34.730469 15.585938 C 34.738281 15.59375 34.75 15.601562 34.757812 15.601562 C 34.769531 15.609375 34.78125 15.613281 34.789062 15.613281 C 34.851562 15.644531 34.910156 15.675781 34.960938 15.707031 C 34.992188 15.714844 35.023438 15.730469 35.054688 15.753906 C 35.074219 15.761719 35.089844 15.773438 35.101562 15.78125 Z M 28.109375 10.726562 C 27.84375 10.96875 27.472656 11.273438 27.101562 11.53125 C 27.085938 11.898438 26.976562 12.964844 26.496094 13.953125 C 26.597656 13.953125 26.703125 13.960938 26.804688 13.96875 C 26.917969 13.980469 27.027344 13.988281 27.132812 14 C 27.246094 14.011719 27.355469 14.019531 27.457031 14.03125 C 27.5625 14.039062 27.667969 14.050781 27.78125 14.0625 C 27.761719 14.019531 27.761719 13.976562 27.78125 13.925781 C 28.109375 12.71875 28.140625 11.441406 28.109375 10.726562 Z M 16.449219 13.9375 C 15.96875 12.949219 15.875 11.898438 15.84375 11.53125 C 15.472656 11.273438 15.117188 10.96875 14.835938 10.726562 C 14.820312 11.441406 14.835938 12.71875 15.164062 13.925781 C 15.183594 13.976562 15.183594 14.019531 15.164062 14.0625 C 15.597656 14.019531 16.027344 13.980469 16.449219 13.9375 Z M 14.667969 14.121094 C 14.667969 14.101562 14.660156 14.082031 14.652344 14.0625 C 14.597656 13.886719 14.558594 13.714844 14.527344 13.542969 C 14.261719 12.308594 14.277344 11.089844 14.308594 10.496094 L 10.21875 11.640625 C 9.96875 13.207031 10.046875 14.394531 10.09375 14.808594 C 10.09375 14.867188 10.097656 14.910156 10.109375 14.929688 C 10.4375 14.839844 10.78125 14.757812 11.132812 14.6875 C 11.691406 14.5625 12.261719 14.457031 12.835938 14.367188 C 13.394531 14.273438 13.984375 14.199219 14.558594 14.121094 C 14.589844 14.121094 14.625 14.121094 14.667969 14.121094 Z M 32.730469 11.640625 L 28.636719 10.496094 C 28.667969 11.121094 28.683594 12.402344 28.386719 13.695312 C 28.355469 13.816406 28.324219 13.9375 28.292969 14.0625 C 28.285156 14.082031 28.277344 14.101562 28.277344 14.121094 C 28.320312 14.121094 28.355469 14.121094 28.386719 14.121094 C 29.550781 14.257812 30.699219 14.441406 31.828125 14.6875 C 31.914062 14.707031 31.996094 14.726562 32.078125 14.746094 C 32.160156 14.765625 32.25 14.789062 32.339844 14.808594 C 32.421875 14.828125 32.507812 14.847656 32.589844 14.867188 C 32.671875 14.890625 32.753906 14.910156 32.835938 14.929688 C 32.847656 14.910156 32.851562 14.890625 32.851562 14.867188 C 32.851562 14.847656 32.851562 14.828125 32.851562 14.808594 C 32.851562 14.789062 32.859375 14.765625 32.867188 14.746094 C 32.867188 14.726562 32.867188 14.707031 32.867188 14.6875 C 32.898438 14.199219 32.945312 13.070312 32.730469 11.640625 Z M 32.730469 11.640625 "/>
<path style=" stroke:none;fill-rule:evenodd;fill:rgb(5.490196%,5.882353%,5.098039%);fill-opacity:1;" d="M 23.378906 7.128906 L 23.378906 6.15625 L 22.835938 6.15625 L 22.835938 10.664062 L 23.660156 10.664062 L 23.660156 13.179688 L 19.441406 13.179688 L 19.441406 10.664062 L 20.261719 10.664062 L 20.261719 6.15625 L 19.722656 6.15625 L 19.722656 7.128906 L 17.316406 7.128906 L 17.316406 3.792969 L 25.78125 3.792969 L 25.78125 7.128906 C 25.78125 7.128906 23.378906 7.128906 23.378906 7.128906 Z M 24.09375 5.453125 L 24.09375 6.414062 L 25.054688 6.414062 L 25.054688 4.507812 L 18.03125 4.507812 L 18.03125 6.414062 L 18.992188 6.414062 L 18.992188 5.453125 L 20.976562 5.453125 L 20.976562 11.363281 L 20.171875 11.363281 L 20.171875 12.460938 L 22.929688 12.460938 L 22.929688 11.363281 L 22.109375 11.363281 L 22.109375 5.453125 C 22.109375 5.453125 24.09375 5.453125 24.09375 5.453125 Z M 24.09375 5.453125 "/>
</g>
</svg>
