<?xml version="1.0" encoding="UTF-8"?>
<svg xmlns="http://www.w3.org/2000/svg" xmlns:xlink="http://www.w3.org/1999/xlink" width="px" height="40px" viewBox="0 0 40 40" version="1.1">
<g id="surface1">
<path style=" stroke:none;fill-rule:nonzero;fill:rgb(95.686275%,45.490196%,12.941177%);fill-opacity:1;" d="M 20 39.953125 C 8.96875 39.953125 0.046875 31.03125 0.046875 20 C 0.046875 8.96875 8.96875 0.046875 20 0.046875 C 31.03125 0.046875 39.953125 8.96875 39.953125 20 C 39.953125 31.03125 31.03125 39.953125 20 39.953125 Z M 20 39.953125 "/>
<path style="fill:none;stroke-width:24.299999;stroke-linecap:butt;stroke-linejoin:miter;stroke:rgb(100%,100%,100%);stroke-opacity:1;stroke-miterlimit:4;" d="M 128 189.9 C 93.8 189.9 66.1 162.2 66.1 128 C 66.1 93.8 93.8 66.1 128 66.1 C 162.2 66.1 189.9 93.8 189.9 128 C 189.9 162.2 162.2 189.9 128 189.9 Z M 128 189.9 " transform="matrix(0.15625,0,0,0.15625,0,0)"/>
<path style=" stroke:none;fill-rule:nonzero;fill:rgb(95.686275%,45.490196%,12.941177%);fill-opacity:1;" d="M 6.4375 23.734375 C 4.359375 23.734375 2.6875 22.0625 2.6875 20 C 2.6875 17.9375 4.359375 16.265625 6.4375 16.265625 C 8.5 16.265625 10.171875 17.9375 10.171875 20 C 10.171875 22.0625 8.5 23.734375 6.4375 23.734375 Z M 6.4375 23.734375 "/>
<path style="fill:none;stroke-width:9.2;stroke-linecap:butt;stroke-linejoin:miter;stroke:rgb(95.686275%,45.490196%,12.941177%);stroke-opacity:1;stroke-miterlimit:4;" d="M 176.2 128 L 204.6 128 " transform="matrix(0.15625,0,0,0.15625,0,0)"/>
<path style=" stroke:none;fill-rule:nonzero;fill:rgb(100%,100%,100%);fill-opacity:1;" d="M 6.4375 22.65625 C 4.96875 22.65625 3.765625 21.46875 3.765625 20 C 3.765625 18.53125 4.96875 17.34375 6.4375 17.34375 C 7.90625 17.34375 9.09375 18.53125 9.09375 20 C 9.09375 21.46875 7.90625 22.65625 6.4375 22.65625 Z M 6.4375 22.65625 "/>
<path style=" stroke:none;fill-rule:nonzero;fill:rgb(95.686275%,45.490196%,12.941177%);fill-opacity:1;" d="M 23.546875 6.375 C 24.578125 4.59375 26.859375 3.984375 28.65625 5.015625 C 30.4375 6.046875 31.0625 8.328125 30.015625 10.125 C 28.984375 11.921875 26.703125 12.53125 24.90625 11.484375 C 23.125 10.453125 22.515625 8.171875 23.546875 6.375 Z M 23.546875 6.375 "/>
<path style="fill-rule:nonzero;fill:rgb(0%,0%,0%);fill-opacity:1;stroke-width:9.2;stroke-linecap:butt;stroke-linejoin:miter;stroke:rgb(95.686275%,45.490196%,12.941177%);stroke-opacity:1;stroke-miterlimit:4;" d="M 103.9 169.8 L 89.7 194.3 " transform="matrix(0.15625,0,0,0.15625,0,0)"/>
<path style=" stroke:none;fill-rule:nonzero;fill:rgb(100%,100%,100%);fill-opacity:1;" d="M 24.46875 6.921875 C 25.21875 5.640625 26.84375 5.203125 28.109375 5.953125 C 29.390625 6.6875 29.828125 8.3125 29.09375 9.578125 C 28.359375 10.859375 26.71875 11.296875 25.453125 10.5625 C 24.171875 9.828125 23.734375 8.203125 24.46875 6.921875 Z M 24.46875 6.921875 "/>
<path style=" stroke:none;fill-rule:nonzero;fill:rgb(95.686275%,45.490196%,12.941177%);fill-opacity:1;" d="M 30.015625 29.875 C 31.0625 31.671875 30.4375 33.953125 28.65625 34.984375 C 26.859375 36.015625 24.578125 35.40625 23.546875 33.625 C 22.515625 31.828125 23.125 29.546875 24.90625 28.515625 C 26.703125 27.46875 28.984375 28.078125 30.015625 29.875 Z M 30.015625 29.875 "/>
<path style="fill-rule:nonzero;fill:rgb(0%,0%,0%);fill-opacity:1;stroke-width:9.2;stroke-linecap:butt;stroke-linejoin:miter;stroke:rgb(95.686275%,45.490196%,12.941177%);stroke-opacity:1;stroke-miterlimit:4;" d="M 103.9 86.2 L 89.7 61.7 " transform="matrix(0.15625,0,0,0.15625,0,0)"/>
<path style=" stroke:none;fill-rule:nonzero;fill:rgb(100%,100%,100%);fill-opacity:1;" d="M 29.09375 30.421875 C 29.828125 31.6875 29.390625 33.3125 28.109375 34.046875 C 26.84375 34.796875 25.21875 34.359375 24.46875 33.078125 C 23.734375 31.796875 24.171875 30.171875 25.453125 29.4375 C 26.71875 28.703125 28.359375 29.140625 29.09375 30.421875 Z M 29.09375 30.421875 "/>
</g>
</svg>
