<?xml version="1.0" encoding="UTF-8"?>
<svg xmlns="http://www.w3.org/2000/svg" xmlns:xlink="http://www.w3.org/1999/xlink" width="px" height="40px" viewBox="0 0 40 40" version="1.1">
<g id="surface1">
<path style=" stroke:none;fill-rule:nonzero;fill:rgb(14.117648%,53.725493%,79.215688%);fill-opacity:1;" d="M 0.375 13.984375 C 0.375 13.984375 -0.59375 13.28125 0.578125 12.34375 L 3.296875 9.90625 C 3.296875 9.90625 4.078125 9.078125 4.890625 9.796875 L 30.015625 28.859375 L 30.015625 38 C 30.015625 38 30 39.421875 28.15625 39.265625 Z M 0.375 13.984375 "/>
<path style=" stroke:none;fill-rule:nonzero;fill:rgb(6.27451%,43.921569%,70.19608%);fill-opacity:1;" d="M 6.859375 19.875 L 0.375 25.765625 C 0.375 25.765625 -0.28125 26.265625 0.375 27.15625 L 3.390625 29.890625 C 3.390625 29.890625 4.09375 30.65625 5.15625 29.78125 L 12.015625 24.578125 Z M 6.859375 19.875 "/>
<path style=" stroke:none;fill-rule:nonzero;fill:rgb(3.137255%,46.666667%,72.549021%);fill-opacity:1;" d="M 18.21875 19.921875 L 30.09375 10.828125 L 30.015625 1.75 C 30.015625 1.75 29.5 -0.234375 27.8125 0.796875 L 12.015625 15.203125 Z M 18.21875 19.921875 "/>
<path style=" stroke:none;fill-rule:nonzero;fill:rgb(23.529412%,60.000002%,83.137256%);fill-opacity:1;" d="M 28.15625 39.28125 C 28.84375 39.984375 29.6875 39.75 29.6875 39.75 L 38.9375 35.1875 C 40.125 34.375 39.953125 33.375 39.953125 33.375 L 39.953125 6.09375 C 39.953125 4.890625 38.734375 4.46875 38.734375 4.46875 L 30.71875 0.59375 C 28.953125 -0.484375 27.8125 0.796875 27.8125 0.796875 C 27.8125 0.796875 29.28125 -0.265625 30.015625 1.75 L 30.015625 37.828125 C 30.015625 38.078125 29.953125 38.3125 29.859375 38.53125 C 29.640625 38.96875 29.1875 39.359375 28.078125 39.203125 Z M 28.15625 39.28125 "/>
</g>
</svg>
