<svg version="1.2" xmlns="http://www.w3.org/2000/svg" viewBox="0 0 40 40" width="40" height="40">
	<title>webstorm</title>
	<defs>
		<linearGradient id="g1" x2="1" gradientUnits="userSpaceOnUse" gradientTransform="matrix(10.351,37.266,-31.216,8.671,14.325,.834)">
			<stop offset=".285" stop-color="#00cdd7"/>
			<stop offset=".941" stop-color="#2086d7"/>
		</linearGradient>
		<linearGradient id="g2" x2="1" gradientUnits="userSpaceOnUse" gradientTransform="matrix(17.511,25.678,-29.141,19.873,17.554,5.562)">
			<stop offset=".14" stop-color="#fff045"/>
			<stop offset=".365" stop-color="#00cdd7"/>
		</linearGradient>
		<linearGradient id="g3" x2="1" gradientUnits="userSpaceOnUse" gradientTransform="matrix(2.299,8.145,-4.996,1.41,34.904,8.737)">
			<stop offset=".285" stop-color="#00cdd7"/>
			<stop offset=".941" stop-color="#2086d7"/>
		</linearGradient>
	</defs>
	<style>
		.s0 { fill: url(#g1) } 
		.s1 { fill: url(#g2) } 
		.s2 { fill: url(#g3) } 
		.s3 { fill: #000000 } 
		.s4 { fill: #ffffff } 
	</style>
	<path fill-rule="evenodd" class="s0" d="m5.4 36.2l-5.4-32 10-4.1 6.3 3.7 5.9-3.1 12.1 4.7-6.8 34.6z"/>
	<path fill-rule="evenodd" class="s1" d="m40 13.5l-5.1-12.7-9.4-0.8-14.5 13.9 3.9 17.9 7.3 5.1 17.8-10.6-4.4-8.2z"/>
	<path fill-rule="evenodd" class="s2" d="m32 11.7l3.6 6.4 4.4-4.6-3.2-7.9z"/>
	<path fill-rule="evenodd" class="s3" d="m32.3 7.7v24.6h-24.6v-24.6z"/>
	<path fill-rule="evenodd" class="s4" d="m19.3 27.7v1.6h-9.3v-1.6z"/>
	<path class="s4" d="m22.1 19.6l1.3-1.6c0.9 0.7 1.9 1.3 3.1 1.3 0.9 0 1.4-0.4 1.4-1v-0.1c0-0.5-0.4-0.8-2.1-1.3-2-0.5-3.3-1.1-3.3-3.1v-0.1c0-1.9 1.5-3.1 3.6-3.1q2.2 0 3.7 1.3l-1.1 1.8c-0.9-0.7-1.8-1.1-2.6-1.1-0.9 0-1.4 0.4-1.4 0.9v0.1c0 0.7 0.5 0.9 2.2 1.4 2.1 0.5 3.2 1.3 3.2 3.1 0 2.1-1.5 3.2-3.7 3.2-1.5 0-3.1-0.6-4.3-1.7z"/>
	<path fill-rule="evenodd" class="s4" d="m20.1 10.9l-1.5 5.9-1.7-5.9h-1.8l-1.7 5.9-1.6-5.9h-2.3l2.9 10.2h1.9l1.7-6 1.7 6h1.9l2.9-10.2z"/>
</svg>